<?xml version="1.0" encoding="UTF-8" standalone="no"?>
<!DOCTYPE svg PUBLIC "-//W3C//DTD SVG 1.1//EN"
 "http://www.w3.org/Graphics/SVG/1.1/DTD/svg11.dtd">
<!-- Generated by graphviz version 2.40.1 (20161225.0304)
 -->
<!-- Title: %3 Pages: 1 -->
<svg width="1293pt" height="131pt"
 viewBox="0.00 0.00 1292.54 131.00" xmlns="http://www.w3.org/2000/svg" xmlns:xlink="http://www.w3.org/1999/xlink">
<g id="graph0" class="graph" transform="scale(1 1) rotate(0) translate(4 127)">
<title>%3</title>
<polygon fill="#ffffff" stroke="transparent" points="-4,4 -4,-127 1288.5392,-127 1288.5392,4 -4,4"/>
<!-- activity -->
<g id="node1" class="node">
<title>activity</title>
<ellipse fill="none" stroke="#000000" cx="666.5438" cy="-105" rx="46.2923" ry="18"/>
<text text-anchor="middle" x="666.5438" y="-101.3" font-family="Times,serif" font-size="14.00" fill="#000000">activity</text>
</g>
<!-- named thing -->
<g id="node2" class="node">
<title>named thing</title>
<ellipse fill="none" stroke="#000000" cx="69.5438" cy="-18" rx="69.5877" ry="18"/>
<text text-anchor="middle" x="69.5438" y="-14.3" font-family="Times,serif" font-size="14.00" fill="#000000">named thing</text>
</g>
<!-- activity&#45;&gt;named thing -->
<g id="edge1" class="edge">
<title>activity&#45;&gt;named thing</title>
<path fill="none" stroke="#000000" d="M621.6377,-100.4198C531.5334,-90.921 322.4318,-67.3234 148.5438,-36 142.6904,-34.9456 136.6156,-33.7485 130.552,-32.4845"/>
<polygon fill="#000000" stroke="#000000" points="130.911,-28.982 120.3994,-30.3078 129.4434,-35.8265 130.911,-28.982"/>
<text text-anchor="middle" x="361.5438" y="-57.8" font-family="Times,serif" font-size="14.00" fill="#000000">is_a</text>
</g>
<!-- activity and behavior -->
<g id="node3" class="node">
<title>activity and behavior</title>
<ellipse fill="none" stroke="#000000" cx="266.5438" cy="-18" rx="109.381" ry="18"/>
<text text-anchor="middle" x="266.5438" y="-14.3" font-family="Times,serif" font-size="14.00" fill="#000000">activity and behavior</text>
</g>
<!-- activity&#45;&gt;activity and behavior -->
<g id="edge2" class="edge">
<title>activity&#45;&gt;activity and behavior</title>
<path fill="none" stroke="#000000" d="M625.502,-96.575C590.6342,-89.3779 539.27,-78.6824 494.5438,-69 443.13,-57.8698 385.293,-44.9277 340.7363,-34.8661"/>
<polygon fill="#000000" stroke="#000000" points="341.3888,-31.4254 330.8632,-32.6347 339.8456,-38.2531 341.3888,-31.4254"/>
<text text-anchor="middle" x="511.0438" y="-57.8" font-family="Times,serif" font-size="14.00" fill="#000000">uses</text>
</g>
<!-- id -->
<g id="node4" class="node">
<title>id</title>
<ellipse fill="none" stroke="#0000ff" cx="432.5438" cy="-18" rx="38.1938" ry="18"/>
<text text-anchor="middle" x="432.5438" y="-14.3" font-family="Times,serif" font-size="14.00" fill="#000000">string</text>
</g>
<!-- activity&#45;&gt;id -->
<g id="edge3" class="edge">
<title>activity&#45;&gt;id</title>
<path fill="none" stroke="#0000ff" d="M632.7155,-92.6593C595.2239,-78.9494 532.9894,-56.0937 479.5438,-36 477.0238,-35.0525 474.4294,-34.0724 471.8153,-33.0812"/>
<polygon fill="#0000ff" stroke="#0000ff" points="472.9499,-29.7681 462.3589,-29.4817 470.4597,-36.3102 472.9499,-29.7681"/>
<text text-anchor="middle" x="573.5438" y="-57.8" font-family="Times,serif" font-size="14.00" fill="#000000">id</text>
</g>
<!-- name -->
<g id="node5" class="node">
<title>name</title>
<ellipse fill="none" stroke="#0000ff" cx="545.5438" cy="-18" rx="56.59" ry="18"/>
<text text-anchor="middle" x="545.5438" y="-14.3" font-family="Times,serif" font-size="14.00" fill="#000000">label type</text>
</g>
<!-- activity&#45;&gt;name -->
<g id="edge4" class="edge">
<title>activity&#45;&gt;name</title>
<path fill="none" stroke="#0000ff" d="M644.3506,-89.0429C625.5218,-75.5048 598.2839,-55.9205 577.1726,-40.7414"/>
<polygon fill="#0000ff" stroke="#0000ff" points="578.996,-37.7416 568.8335,-34.7455 574.9095,-43.425 578.996,-37.7416"/>
<text text-anchor="middle" x="633.5438" y="-57.8" font-family="Times,serif" font-size="14.00" fill="#000000">name</text>
</g>
<!-- enabled -->
<g id="node6" class="node">
<title>enabled</title>
<ellipse fill="none" stroke="#0000ff" cx="666.5438" cy="-18" rx="46.5926" ry="18"/>
<text text-anchor="middle" x="666.5438" y="-14.3" font-family="Times,serif" font-size="14.00" fill="#000000">boolean</text>
</g>
<!-- activity&#45;&gt;enabled -->
<g id="edge5" class="edge">
<title>activity&#45;&gt;enabled</title>
<path fill="none" stroke="#0000ff" d="M666.5438,-86.9735C666.5438,-75.1918 666.5438,-59.5607 666.5438,-46.1581"/>
<polygon fill="#0000ff" stroke="#0000ff" points="670.0439,-46.0033 666.5438,-36.0034 663.0439,-46.0034 670.0439,-46.0033"/>
<text text-anchor="middle" x="695.0438" y="-57.8" font-family="Times,serif" font-size="14.00" fill="#000000">enabled</text>
</g>
<!-- archived -->
<g id="node7" class="node">
<title>archived</title>
<ellipse fill="none" stroke="#0000ff" cx="778.5438" cy="-18" rx="46.5926" ry="18"/>
<text text-anchor="middle" x="778.5438" y="-14.3" font-family="Times,serif" font-size="14.00" fill="#000000">boolean</text>
</g>
<!-- activity&#45;&gt;archived -->
<g id="edge6" class="edge">
<title>activity&#45;&gt;archived</title>
<path fill="none" stroke="#0000ff" d="M694.5236,-90.4558C705.242,-84.3865 717.3378,-76.9091 727.5438,-69 737.6486,-61.1693 747.805,-51.4732 756.3648,-42.6449"/>
<polygon fill="#0000ff" stroke="#0000ff" points="759.1002,-44.8466 763.4345,-35.1788 754.0173,-40.0335 759.1002,-44.8466"/>
<text text-anchor="middle" x="776.0438" y="-57.8" font-family="Times,serif" font-size="14.00" fill="#000000">archived</text>
</g>
<!-- description -->
<g id="node8" class="node">
<title>description</title>
<ellipse fill="none" stroke="#0000ff" cx="918.5438" cy="-18" rx="75.2868" ry="18"/>
<text text-anchor="middle" x="918.5438" y="-14.3" font-family="Times,serif" font-size="14.00" fill="#000000">narrative text</text>
</g>
<!-- activity&#45;&gt;description -->
<g id="edge7" class="edge">
<title>activity&#45;&gt;description</title>
<path fill="none" stroke="#0000ff" d="M701.2726,-92.9432C707.958,-90.819 714.936,-88.7355 721.5438,-87 760.9979,-76.6377 772.8365,-81.874 811.5438,-69 834.9753,-61.2067 859.9497,-49.5141 879.8724,-39.2899"/>
<polygon fill="#0000ff" stroke="#0000ff" points="881.6843,-42.2924 888.9316,-34.5641 878.4467,-36.0861 881.6843,-42.2924"/>
<text text-anchor="middle" x="889.5438" y="-57.8" font-family="Times,serif" font-size="14.00" fill="#000000">description</text>
</g>
<!-- note -->
<g id="node9" class="node">
<title>note</title>
<ellipse fill="none" stroke="#0000ff" cx="1087.5438" cy="-18" rx="75.2868" ry="18"/>
<text text-anchor="middle" x="1087.5438" y="-14.3" font-family="Times,serif" font-size="14.00" fill="#000000">narrative text</text>
</g>
<!-- activity&#45;&gt;note -->
<g id="edge8" class="edge">
<title>activity&#45;&gt;note</title>
<path fill="none" stroke="#0000ff" d="M700.2464,-92.6092C707.2095,-90.4358 714.5531,-88.4192 721.5438,-87 814.6486,-68.098 841.4911,-88.1563 934.5438,-69 970.5167,-61.5944 1009.7945,-48.3882 1039.5459,-37.27"/>
<polygon fill="#0000ff" stroke="#0000ff" points="1041.1416,-40.4083 1049.2518,-33.591 1038.6604,-33.8627 1041.1416,-40.4083"/>
<text text-anchor="middle" x="1006.5438" y="-57.8" font-family="Times,serif" font-size="14.00" fill="#000000">note</text>
</g>
<!-- category -->
<g id="node10" class="node">
<title>category</title>
<ellipse fill="none" stroke="#000000" cx="1232.5438" cy="-18" rx="51.9908" ry="18"/>
<text text-anchor="middle" x="1232.5438" y="-14.3" font-family="Times,serif" font-size="14.00" fill="#000000">category</text>
</g>
<!-- activity&#45;&gt;category -->
<g id="edge9" class="edge">
<title>activity&#45;&gt;category</title>
<path fill="none" stroke="#0000ff" d="M699.925,-92.5616C706.9771,-90.3634 714.437,-88.3492 721.5438,-87 854.9523,-61.6724 892.1069,-88.1318 1026.5438,-69 1091.9769,-59.6882 1107.5946,-52.6943 1171.5438,-36 1175.4,-34.9933 1179.3813,-33.9127 1183.376,-32.799"/>
<polygon fill="#0000ff" stroke="#0000ff" points="1184.6078,-36.0876 1193.2691,-29.9858 1182.6931,-29.3545 1184.6078,-36.0876"/>
<text text-anchor="middle" x="1136.5438" y="-57.8" font-family="Times,serif" font-size="14.00" fill="#000000">category</text>
</g>
<!-- named thing_category -->
<g id="node11" class="node">
<title>named thing_category</title>
<ellipse fill="none" stroke="#0000ff" cx="800.5438" cy="-105" rx="69.5877" ry="18"/>
<text text-anchor="middle" x="800.5438" y="-101.3" font-family="Times,serif" font-size="14.00" fill="#000000">named thing</text>
</g>
</g>
</svg>
