<?xml version="1.0" encoding="UTF-8" standalone="no"?>
<!DOCTYPE svg PUBLIC "-//W3C//DTD SVG 1.1//EN"
 "http://www.w3.org/Graphics/SVG/1.1/DTD/svg11.dtd">
<!-- Generated by graphviz version 2.40.1 (20161225.0304)
 -->
<!-- Title: %3 Pages: 1 -->
<svg width="1676pt" height="131pt"
 viewBox="0.00 0.00 1676.09 131.00" xmlns="http://www.w3.org/2000/svg" xmlns:xlink="http://www.w3.org/1999/xlink">
<g id="graph0" class="graph" transform="scale(1 1) rotate(0) translate(4 127)">
<title>%3</title>
<polygon fill="#ffffff" stroke="transparent" points="-4,4 -4,-127 1672.0854,-127 1672.0854,4 -4,4"/>
<!-- administrative operation -->
<g id="node1" class="node">
<title>administrative operation</title>
<ellipse fill="none" stroke="#000000" cx="781.5917" cy="-105" rx="126.1777" ry="18"/>
<text text-anchor="middle" x="781.5917" y="-101.3" font-family="Times,serif" font-size="14.00" fill="#000000">administrative operation</text>
</g>
<!-- operational entity -->
<g id="node2" class="node">
<title>operational entity</title>
<ellipse fill="none" stroke="#000000" cx="93.5917" cy="-18" rx="93.6835" ry="18"/>
<text text-anchor="middle" x="93.5917" y="-14.3" font-family="Times,serif" font-size="14.00" fill="#000000">operational entity</text>
</g>
<!-- administrative operation&#45;&gt;operational entity -->
<g id="edge1" class="edge">
<title>administrative operation&#45;&gt;operational entity</title>
<path fill="none" stroke="#000000" d="M662.8297,-98.8541C575.3712,-93.4292 453.7078,-84.0035 347.5917,-69 284.652,-60.1011 213.7932,-45.4843 162.9413,-34.175"/>
<polygon fill="#000000" stroke="#000000" points="163.5691,-30.7289 153.046,-31.9599 162.0399,-37.5599 163.5691,-30.7289"/>
<text text-anchor="middle" x="361.5917" y="-57.8" font-family="Times,serif" font-size="14.00" fill="#000000">is_a</text>
</g>
<!-- cluster -->
<g id="node3" class="node">
<title>cluster</title>
<ellipse fill="none" stroke="#000000" cx="248.5917" cy="-18" rx="43.5923" ry="18"/>
<text text-anchor="middle" x="248.5917" y="-14.3" font-family="Times,serif" font-size="14.00" fill="#000000">cluster</text>
</g>
<!-- administrative operation&#45;&gt;cluster -->
<g id="edge2" class="edge">
<title>administrative operation&#45;&gt;cluster</title>
<path fill="none" stroke="#000000" d="M669.9854,-96.5348C571.7221,-87.2973 425.4026,-69.1776 301.5917,-36 298.2038,-35.0921 294.7177,-34.0825 291.2283,-33.0177"/>
<polygon fill="#000000" stroke="#000000" points="292.0557,-29.6081 281.4651,-29.9102 289.9325,-36.2784 292.0557,-29.6081"/>
<text text-anchor="middle" x="462.0917" y="-57.8" font-family="Times,serif" font-size="14.00" fill="#000000">uses</text>
</g>
<!-- application -->
<g id="node4" class="node">
<title>application</title>
<ellipse fill="none" stroke="#000000" cx="372.5917" cy="-18" rx="62.2891" ry="18"/>
<text text-anchor="middle" x="372.5917" y="-14.3" font-family="Times,serif" font-size="14.00" fill="#000000">application</text>
</g>
<!-- administrative operation&#45;&gt;application -->
<g id="edge3" class="edge">
<title>administrative operation&#45;&gt;application</title>
<path fill="none" stroke="#000000" d="M691.5581,-92.3768C651.577,-86.2294 604.0545,-78.1786 561.5917,-69 515.2409,-58.981 463.2698,-44.7328 425.5745,-33.8421"/>
<polygon fill="#000000" stroke="#000000" points="426.4047,-30.4386 415.8252,-31.0083 424.4509,-37.1604 426.4047,-30.4386"/>
<text text-anchor="middle" x="578.0917" y="-57.8" font-family="Times,serif" font-size="14.00" fill="#000000">uses</text>
</g>
<!-- id -->
<g id="node5" class="node">
<title>id</title>
<ellipse fill="none" stroke="#0000ff" cx="491.5917" cy="-18" rx="38.1938" ry="18"/>
<text text-anchor="middle" x="491.5917" y="-14.3" font-family="Times,serif" font-size="14.00" fill="#000000">string</text>
</g>
<!-- administrative operation&#45;&gt;id -->
<g id="edge4" class="edge">
<title>administrative operation&#45;&gt;id</title>
<path fill="none" stroke="#0000ff" d="M720.2142,-89.1947C670.8055,-76.0831 599.7618,-56.3531 538.5917,-36 535.9995,-35.1375 533.3395,-34.2172 530.6668,-33.2661"/>
<polygon fill="#0000ff" stroke="#0000ff" points="531.6254,-29.8898 521.0317,-29.735 529.2167,-36.4623 531.6254,-29.8898"/>
<text text-anchor="middle" x="652.5917" y="-57.8" font-family="Times,serif" font-size="14.00" fill="#000000">id</text>
</g>
<!-- name -->
<g id="node6" class="node">
<title>name</title>
<ellipse fill="none" stroke="#0000ff" cx="604.5917" cy="-18" rx="56.59" ry="18"/>
<text text-anchor="middle" x="604.5917" y="-14.3" font-family="Times,serif" font-size="14.00" fill="#000000">label type</text>
</g>
<!-- administrative operation&#45;&gt;name -->
<g id="edge5" class="edge">
<title>administrative operation&#45;&gt;name</title>
<path fill="none" stroke="#0000ff" d="M745.2945,-87.7224C732.9873,-81.8255 719.1726,-75.1641 706.5917,-69 685.8123,-58.8189 662.7463,-47.304 643.8126,-37.7953"/>
<polygon fill="#0000ff" stroke="#0000ff" points="645.3845,-34.6682 634.8779,-33.3031 642.2401,-40.9222 645.3845,-34.6682"/>
<text text-anchor="middle" x="726.5917" y="-57.8" font-family="Times,serif" font-size="14.00" fill="#000000">name</text>
</g>
<!-- enabled -->
<g id="node7" class="node">
<title>enabled</title>
<ellipse fill="none" stroke="#0000ff" cx="725.5917" cy="-18" rx="46.5926" ry="18"/>
<text text-anchor="middle" x="725.5917" y="-14.3" font-family="Times,serif" font-size="14.00" fill="#000000">boolean</text>
</g>
<!-- administrative operation&#45;&gt;enabled -->
<g id="edge6" class="edge">
<title>administrative operation&#45;&gt;enabled</title>
<path fill="none" stroke="#0000ff" d="M769.9885,-86.9735C762.0519,-74.6435 751.4016,-58.0975 742.5218,-44.3021"/>
<polygon fill="#0000ff" stroke="#0000ff" points="745.344,-42.22 736.9885,-35.7057 739.4579,-46.0087 745.344,-42.22"/>
<text text-anchor="middle" x="786.0917" y="-57.8" font-family="Times,serif" font-size="14.00" fill="#000000">enabled</text>
</g>
<!-- archived -->
<g id="node8" class="node">
<title>archived</title>
<ellipse fill="none" stroke="#0000ff" cx="837.5917" cy="-18" rx="46.5926" ry="18"/>
<text text-anchor="middle" x="837.5917" y="-14.3" font-family="Times,serif" font-size="14.00" fill="#000000">boolean</text>
</g>
<!-- administrative operation&#45;&gt;archived -->
<g id="edge7" class="edge">
<title>administrative operation&#45;&gt;archived</title>
<path fill="none" stroke="#0000ff" d="M800.9279,-87.0019C806.1156,-81.5483 811.4329,-75.3195 815.5917,-69 820.288,-61.8637 824.3687,-53.5588 827.6973,-45.7487"/>
<polygon fill="#0000ff" stroke="#0000ff" points="831.0343,-46.8304 831.5011,-36.2458 824.5355,-44.229 831.0343,-46.8304"/>
<text text-anchor="middle" x="856.0917" y="-57.8" font-family="Times,serif" font-size="14.00" fill="#000000">archived</text>
</g>
<!-- description -->
<g id="node9" class="node">
<title>description</title>
<ellipse fill="none" stroke="#0000ff" cx="977.5917" cy="-18" rx="75.2868" ry="18"/>
<text text-anchor="middle" x="977.5917" y="-14.3" font-family="Times,serif" font-size="14.00" fill="#000000">narrative text</text>
</g>
<!-- administrative operation&#45;&gt;description -->
<g id="edge8" class="edge">
<title>administrative operation&#45;&gt;description</title>
<path fill="none" stroke="#0000ff" d="M838.7378,-88.9163C856.02,-83.3585 874.8473,-76.594 891.5917,-69 909.2999,-60.9689 927.9768,-50.2016 943.3842,-40.6302"/>
<polygon fill="#0000ff" stroke="#0000ff" points="945.4581,-43.4601 952.0461,-35.1626 941.7216,-37.5407 945.4581,-43.4601"/>
<text text-anchor="middle" x="959.5917" y="-57.8" font-family="Times,serif" font-size="14.00" fill="#000000">description</text>
</g>
<!-- note -->
<g id="node10" class="node">
<title>note</title>
<ellipse fill="none" stroke="#0000ff" cx="1146.5917" cy="-18" rx="75.2868" ry="18"/>
<text text-anchor="middle" x="1146.5917" y="-14.3" font-family="Times,serif" font-size="14.00" fill="#000000">narrative text</text>
</g>
<!-- administrative operation&#45;&gt;note -->
<g id="edge9" class="edge">
<title>administrative operation&#45;&gt;note</title>
<path fill="none" stroke="#0000ff" d="M871.0929,-92.2645C921.6872,-84.7274 979.6715,-75.4277 1004.5917,-69 1036.9239,-60.6605 1072.2646,-47.9812 1099.6014,-37.3517"/>
<polygon fill="#0000ff" stroke="#0000ff" points="1100.8934,-40.6046 1108.9189,-33.6878 1098.3317,-34.0901 1100.8934,-40.6046"/>
<text text-anchor="middle" x="1068.5917" y="-57.8" font-family="Times,serif" font-size="14.00" fill="#000000">note</text>
</g>
<!-- category -->
<g id="node11" class="node">
<title>category</title>
<ellipse fill="none" stroke="#000000" cx="1291.5917" cy="-18" rx="51.9908" ry="18"/>
<text text-anchor="middle" x="1291.5917" y="-14.3" font-family="Times,serif" font-size="14.00" fill="#000000">category</text>
</g>
<!-- administrative operation&#45;&gt;category -->
<g id="edge10" class="edge">
<title>administrative operation&#45;&gt;category</title>
<path fill="none" stroke="#0000ff" d="M872.683,-92.4975C887.3559,-90.5864 902.3867,-88.6899 916.5917,-87 992.9154,-77.9199 1012.7903,-81.7238 1088.5917,-69 1152.4907,-58.2741 1167.9373,-52.5092 1230.5917,-36 1234.4455,-34.9845 1238.4252,-33.8976 1242.4187,-32.7795"/>
<polygon fill="#0000ff" stroke="#0000ff" points="1243.653,-36.0672 1252.31,-29.9592 1241.7335,-29.3355 1243.653,-36.0672"/>
<text text-anchor="middle" x="1194.5917" y="-57.8" font-family="Times,serif" font-size="14.00" fill="#000000">category</text>
</g>
<!-- in taxon -->
<g id="node13" class="node">
<title>in taxon</title>
<ellipse fill="none" stroke="#0000ff" cx="1434.5917" cy="-18" rx="72.5877" ry="18"/>
<text text-anchor="middle" x="1434.5917" y="-14.3" font-family="Times,serif" font-size="14.00" fill="#000000">system taxon</text>
</g>
<!-- administrative operation&#45;&gt;in taxon -->
<g id="edge11" class="edge">
<title>administrative operation&#45;&gt;in taxon</title>
<path fill="none" stroke="#0000ff" d="M870.4393,-92.1866C885.8067,-90.2473 901.6447,-88.4228 916.5917,-87 1055.7473,-73.7534 1092.4002,-90.044 1230.5917,-69 1281.6042,-61.2317 1338.4747,-46.4944 1379.1834,-34.8518"/>
<polygon fill="#0000ff" stroke="#0000ff" points="1380.2758,-38.1794 1388.911,-32.0406 1378.3324,-31.4545 1380.2758,-38.1794"/>
<text text-anchor="middle" x="1333.5917" y="-57.8" font-family="Times,serif" font-size="14.00" fill="#000000">in taxon</text>
</g>
<!-- has control actor -->
<g id="node14" class="node">
<title>has control actor</title>
<ellipse fill="none" stroke="#0000ff" cx="1596.5917" cy="-18" rx="71.4873" ry="18"/>
<text text-anchor="middle" x="1596.5917" y="-14.3" font-family="Times,serif" font-size="14.00" fill="#000000">control actor</text>
</g>
<!-- administrative operation&#45;&gt;has control actor -->
<g id="edge12" class="edge">
<title>administrative operation&#45;&gt;has control actor</title>
<path fill="none" stroke="#0000ff" d="M869.6936,-92.058C885.2898,-90.1085 901.3974,-88.314 916.5917,-87 1116.0073,-69.7546 1168.076,-94.6031 1366.5917,-69 1425.7354,-61.3721 1492.1158,-45.8899 1538.3052,-33.9743"/>
<polygon fill="#0000ff" stroke="#0000ff" points="1539.341,-37.3214 1548.1357,-31.4135 1537.5763,-30.5475 1539.341,-37.3214"/>
<text text-anchor="middle" x="1511.0917" y="-57.8" font-family="Times,serif" font-size="14.00" fill="#000000">has control actor</text>
</g>
<!-- named thing_category -->
<g id="node12" class="node">
<title>named thing_category</title>
<ellipse fill="none" stroke="#0000ff" cx="995.5917" cy="-105" rx="69.5877" ry="18"/>
<text text-anchor="middle" x="995.5917" y="-101.3" font-family="Times,serif" font-size="14.00" fill="#000000">named thing</text>
</g>
</g>
</svg>
