<?xml version="1.0" encoding="UTF-8" standalone="no"?>
<!DOCTYPE svg PUBLIC "-//W3C//DTD SVG 1.1//EN"
 "http://www.w3.org/Graphics/SVG/1.1/DTD/svg11.dtd">
<!-- Generated by graphviz version 2.40.1 (20161225.0304)
 -->
<!-- Title: %3 Pages: 1 -->
<svg width="1600pt" height="131pt"
 viewBox="0.00 0.00 1600.04 131.00" xmlns="http://www.w3.org/2000/svg" xmlns:xlink="http://www.w3.org/1999/xlink">
<g id="graph0" class="graph" transform="scale(1 1) rotate(0) translate(4 127)">
<title>%3</title>
<polygon fill="#ffffff" stroke="transparent" points="-4,4 -4,-127 1596.0409,-127 1596.0409,4 -4,4"/>
<!-- apex inventory archive -->
<g id="node1" class="node">
<title>apex inventory archive</title>
<ellipse fill="none" stroke="#000000" cx="874.496" cy="-105" rx="117.7793" ry="18"/>
<text text-anchor="middle" x="874.496" y="-101.3" font-family="Times,serif" font-size="14.00" fill="#000000">apex inventory archive</text>
</g>
<!-- archive -->
<g id="node2" class="node">
<title>archive</title>
<ellipse fill="none" stroke="#000000" cx="45.496" cy="-18" rx="45.4919" ry="18"/>
<text text-anchor="middle" x="45.496" y="-14.3" font-family="Times,serif" font-size="14.00" fill="#000000">archive</text>
</g>
<!-- apex inventory archive&#45;&gt;archive -->
<g id="edge1" class="edge">
<title>apex inventory archive&#45;&gt;archive</title>
<path fill="none" stroke="#000000" d="M759.3729,-101.159C602.7363,-95.4819 330.7267,-83.8961 232.496,-69 182.5608,-61.4276 126.901,-45.2043 89.3932,-33.0767"/>
<polygon fill="#000000" stroke="#000000" points="90.3824,-29.7178 79.7897,-29.9327 88.2044,-36.3704 90.3824,-29.7178"/>
<text text-anchor="middle" x="246.496" y="-57.8" font-family="Times,serif" font-size="14.00" fill="#000000">is_a</text>
</g>
<!-- id -->
<g id="node3" class="node">
<title>id</title>
<ellipse fill="none" stroke="#0000ff" cx="147.496" cy="-18" rx="38.1938" ry="18"/>
<text text-anchor="middle" x="147.496" y="-14.3" font-family="Times,serif" font-size="14.00" fill="#000000">string</text>
</g>
<!-- apex inventory archive&#45;&gt;id -->
<g id="edge2" class="edge">
<title>apex inventory archive&#45;&gt;id</title>
<path fill="none" stroke="#0000ff" d="M759.3234,-101.2776C654.2611,-96.8637 494.9139,-87.6142 357.496,-69 284.2507,-59.0784 265.4751,-56.6219 194.496,-36 191.7034,-35.1887 188.8426,-34.2841 185.9785,-33.3242"/>
<polygon fill="#0000ff" stroke="#0000ff" points="186.9169,-29.9435 176.3222,-29.9027 184.579,-36.5416 186.9169,-29.9435"/>
<text text-anchor="middle" x="364.496" y="-57.8" font-family="Times,serif" font-size="14.00" fill="#000000">id</text>
</g>
<!-- name -->
<g id="node4" class="node">
<title>name</title>
<ellipse fill="none" stroke="#0000ff" cx="260.496" cy="-18" rx="56.59" ry="18"/>
<text text-anchor="middle" x="260.496" y="-14.3" font-family="Times,serif" font-size="14.00" fill="#000000">label type</text>
</g>
<!-- apex inventory archive&#45;&gt;name -->
<g id="edge3" class="edge">
<title>apex inventory archive&#45;&gt;name</title>
<path fill="none" stroke="#0000ff" d="M758.7521,-101.5581C670.6392,-97.4598 546.6671,-88.5092 439.496,-69 394.455,-60.8008 344.4424,-46.0562 308.7569,-34.5225"/>
<polygon fill="#0000ff" stroke="#0000ff" points="309.6802,-31.1421 299.0877,-31.3626 307.5057,-37.7959 309.6802,-31.1421"/>
<text text-anchor="middle" x="459.496" y="-57.8" font-family="Times,serif" font-size="14.00" fill="#000000">name</text>
</g>
<!-- enabled -->
<g id="node5" class="node">
<title>enabled</title>
<ellipse fill="none" stroke="#0000ff" cx="381.496" cy="-18" rx="46.5926" ry="18"/>
<text text-anchor="middle" x="381.496" y="-14.3" font-family="Times,serif" font-size="14.00" fill="#000000">boolean</text>
</g>
<!-- apex inventory archive&#45;&gt;enabled -->
<g id="edge4" class="edge">
<title>apex inventory archive&#45;&gt;enabled</title>
<path fill="none" stroke="#0000ff" d="M762.8986,-99.2822C696.0731,-94.352 609.762,-85.3275 534.496,-69 496.1019,-60.6712 453.8318,-46.1512 423.4689,-34.7289"/>
<polygon fill="#0000ff" stroke="#0000ff" points="424.6401,-31.4298 414.0492,-31.1411 422.1484,-37.9714 424.6401,-31.4298"/>
<text text-anchor="middle" x="562.996" y="-57.8" font-family="Times,serif" font-size="14.00" fill="#000000">enabled</text>
</g>
<!-- archived -->
<g id="node6" class="node">
<title>archived</title>
<ellipse fill="none" stroke="#0000ff" cx="493.496" cy="-18" rx="46.5926" ry="18"/>
<text text-anchor="middle" x="493.496" y="-14.3" font-family="Times,serif" font-size="14.00" fill="#000000">boolean</text>
</g>
<!-- apex inventory archive&#45;&gt;archived -->
<g id="edge5" class="edge">
<title>apex inventory archive&#45;&gt;archived</title>
<path fill="none" stroke="#0000ff" d="M781.7308,-93.8924C740.0692,-87.9991 690.4902,-79.7277 646.496,-69 608.5727,-59.7526 566.5792,-45.4523 536.1954,-34.3448"/>
<polygon fill="#0000ff" stroke="#0000ff" points="537.3517,-31.0409 526.7584,-30.8612 534.9275,-37.6077 537.3517,-31.0409"/>
<text text-anchor="middle" x="677.996" y="-57.8" font-family="Times,serif" font-size="14.00" fill="#000000">archived</text>
</g>
<!-- description -->
<g id="node7" class="node">
<title>description</title>
<ellipse fill="none" stroke="#0000ff" cx="633.496" cy="-18" rx="75.2868" ry="18"/>
<text text-anchor="middle" x="633.496" y="-14.3" font-family="Times,serif" font-size="14.00" fill="#000000">narrative text</text>
</g>
<!-- apex inventory archive&#45;&gt;description -->
<g id="edge6" class="edge">
<title>apex inventory archive&#45;&gt;description</title>
<path fill="none" stroke="#0000ff" d="M813.7053,-89.4729C792.8331,-83.6571 769.4559,-76.6002 748.496,-69 723.9926,-60.115 697.3435,-48.4308 675.8742,-38.488"/>
<polygon fill="#0000ff" stroke="#0000ff" points="677.2483,-35.2669 666.7069,-34.2031 674.2841,-41.6083 677.2483,-35.2669"/>
<text text-anchor="middle" x="789.496" y="-57.8" font-family="Times,serif" font-size="14.00" fill="#000000">description</text>
</g>
<!-- note -->
<g id="node8" class="node">
<title>note</title>
<ellipse fill="none" stroke="#0000ff" cx="802.496" cy="-18" rx="75.2868" ry="18"/>
<text text-anchor="middle" x="802.496" y="-14.3" font-family="Times,serif" font-size="14.00" fill="#000000">narrative text</text>
</g>
<!-- apex inventory archive&#45;&gt;note -->
<g id="edge7" class="edge">
<title>apex inventory archive&#45;&gt;note</title>
<path fill="none" stroke="#0000ff" d="M859.5775,-86.9735C849.179,-74.4087 835.1572,-57.4657 823.6134,-43.5168"/>
<polygon fill="#0000ff" stroke="#0000ff" points="826.2211,-41.1782 817.1489,-35.7057 820.8283,-45.6412 826.2211,-41.1782"/>
<text text-anchor="middle" x="859.496" y="-57.8" font-family="Times,serif" font-size="14.00" fill="#000000">note</text>
</g>
<!-- category -->
<g id="node9" class="node">
<title>category</title>
<ellipse fill="none" stroke="#000000" cx="947.496" cy="-18" rx="51.9908" ry="18"/>
<text text-anchor="middle" x="947.496" y="-14.3" font-family="Times,serif" font-size="14.00" fill="#000000">category</text>
</g>
<!-- apex inventory archive&#45;&gt;category -->
<g id="edge8" class="edge">
<title>apex inventory archive&#45;&gt;category</title>
<path fill="none" stroke="#0000ff" d="M889.6216,-86.9735C900.2344,-74.3254 914.5695,-57.2411 926.3175,-43.2401"/>
<polygon fill="#0000ff" stroke="#0000ff" points="929.1412,-45.32 932.8878,-35.4097 923.7788,-40.8205 929.1412,-45.32"/>
<text text-anchor="middle" x="947.496" y="-57.8" font-family="Times,serif" font-size="14.00" fill="#000000">category</text>
</g>
<!-- license -->
<g id="node11" class="node">
<title>license</title>
<ellipse fill="none" stroke="#0000ff" cx="1055.496" cy="-18" rx="38.1938" ry="18"/>
<text text-anchor="middle" x="1055.496" y="-14.3" font-family="Times,serif" font-size="14.00" fill="#000000">string</text>
</g>
<!-- apex inventory archive&#45;&gt;license -->
<g id="edge9" class="edge">
<title>apex inventory archive&#45;&gt;license</title>
<path fill="none" stroke="#0000ff" d="M932.6387,-89.3273C949.463,-83.859 967.5746,-77.0404 983.496,-69 999.3113,-61.0131 1015.5332,-49.8325 1028.5658,-39.9745"/>
<polygon fill="#0000ff" stroke="#0000ff" points="1030.8648,-42.6211 1036.6332,-33.7343 1026.5819,-37.0842 1030.8648,-42.6211"/>
<text text-anchor="middle" x="1034.996" y="-57.8" font-family="Times,serif" font-size="14.00" fill="#000000">license</text>
</g>
<!-- rights -->
<g id="node12" class="node">
<title>rights</title>
<ellipse fill="none" stroke="#0000ff" cx="1150.496" cy="-18" rx="38.1938" ry="18"/>
<text text-anchor="middle" x="1150.496" y="-14.3" font-family="Times,serif" font-size="14.00" fill="#000000">string</text>
</g>
<!-- apex inventory archive&#45;&gt;rights -->
<g id="edge10" class="edge">
<title>apex inventory archive&#45;&gt;rights</title>
<path fill="none" stroke="#0000ff" d="M957.4155,-92.1936C999.1077,-85.1735 1044.8673,-76.4166 1064.496,-69 1084.4992,-61.4419 1105.165,-49.3484 1121.2238,-38.8346"/>
<polygon fill="#0000ff" stroke="#0000ff" points="1123.2799,-41.6699 1129.6379,-33.1949 1119.3825,-35.8552 1123.2799,-41.6699"/>
<text text-anchor="middle" x="1115.996" y="-57.8" font-family="Times,serif" font-size="14.00" fill="#000000">rights</text>
</g>
<!-- format -->
<g id="node13" class="node">
<title>format</title>
<ellipse fill="none" stroke="#0000ff" cx="1245.496" cy="-18" rx="38.1938" ry="18"/>
<text text-anchor="middle" x="1245.496" y="-14.3" font-family="Times,serif" font-size="14.00" fill="#000000">string</text>
</g>
<!-- apex inventory archive&#45;&gt;format -->
<g id="edge11" class="edge">
<title>apex inventory archive&#45;&gt;format</title>
<path fill="none" stroke="#0000ff" d="M960.211,-92.5798C973.6877,-90.6776 987.4668,-88.7622 1000.496,-87 1063.1012,-78.5326 1080.9849,-87.1528 1141.496,-69 1166.6045,-61.4676 1193.1082,-48.3827 1213.0759,-37.3529"/>
<polygon fill="#0000ff" stroke="#0000ff" points="1215.0488,-40.2586 1222.0395,-32.2974 1211.6099,-34.1615 1215.0488,-40.2586"/>
<text text-anchor="middle" x="1204.996" y="-57.8" font-family="Times,serif" font-size="14.00" fill="#000000">format</text>
</g>
<!-- creation date -->
<g id="node14" class="node">
<title>creation date</title>
<ellipse fill="none" stroke="#0000ff" cx="1333.496" cy="-18" rx="31.3957" ry="18"/>
<text text-anchor="middle" x="1333.496" y="-14.3" font-family="Times,serif" font-size="14.00" fill="#000000">date</text>
</g>
<!-- apex inventory archive&#45;&gt;creation date -->
<g id="edge12" class="edge">
<title>apex inventory archive&#45;&gt;creation date</title>
<path fill="none" stroke="#0000ff" d="M958.1032,-92.2816C972.233,-90.3544 986.768,-88.5092 1000.496,-87 1103.738,-75.6497 1133.5164,-97.1398 1233.496,-69 1258.598,-61.9349 1284.7794,-48.3221 1304.0537,-36.9366"/>
<polygon fill="#0000ff" stroke="#0000ff" points="1305.9157,-39.9008 1312.6598,-31.7297 1302.2921,-33.9117 1305.9157,-39.9008"/>
<text text-anchor="middle" x="1319.496" y="-57.8" font-family="Times,serif" font-size="14.00" fill="#000000">creation date</text>
</g>
<!-- release date -->
<g id="node15" class="node">
<title>release date</title>
<ellipse fill="none" stroke="#0000ff" cx="1424.496" cy="-18" rx="31.3957" ry="18"/>
<text text-anchor="middle" x="1424.496" y="-14.3" font-family="Times,serif" font-size="14.00" fill="#000000">date</text>
</g>
<!-- apex inventory archive&#45;&gt;release date -->
<g id="edge13" class="edge">
<title>apex inventory archive&#45;&gt;release date</title>
<path fill="none" stroke="#0000ff" d="M957.0516,-92.0807C971.5038,-90.1412 986.4178,-88.3441 1000.496,-87 1041.5798,-83.0774 1333.6019,-85.3496 1371.496,-69 1384.7258,-63.2919 1396.5896,-52.7077 1405.7214,-42.6548"/>
<polygon fill="#0000ff" stroke="#0000ff" points="1408.5918,-44.6837 1412.4332,-34.8097 1403.2727,-40.133 1408.5918,-44.6837"/>
<text text-anchor="middle" x="1437.496" y="-57.8" font-family="Times,serif" font-size="14.00" fill="#000000">release date</text>
</g>
<!-- tag name -->
<g id="node16" class="node">
<title>tag name</title>
<ellipse fill="none" stroke="#0000ff" cx="1535.496" cy="-18" rx="56.59" ry="18"/>
<text text-anchor="middle" x="1535.496" y="-14.3" font-family="Times,serif" font-size="14.00" fill="#000000">label type</text>
</g>
<!-- apex inventory archive&#45;&gt;tag name -->
<g id="edge14" class="edge">
<title>apex inventory archive&#45;&gt;tag name</title>
<path fill="none" stroke="#0000ff" d="M956.362,-92.0358C971.0263,-90.076 986.1903,-88.2837 1000.496,-87 1054.2061,-82.1802 1436.1735,-90.8015 1485.496,-69 1497.8116,-63.5562 1508.6758,-53.5539 1517.1039,-43.84"/>
<polygon fill="#0000ff" stroke="#0000ff" points="1520.0018,-45.8237 1523.5889,-35.8546 1514.5679,-41.4108 1520.0018,-45.8237"/>
<text text-anchor="middle" x="1538.996" y="-57.8" font-family="Times,serif" font-size="14.00" fill="#000000">tag name</text>
</g>
<!-- named thing_category -->
<g id="node10" class="node">
<title>named thing_category</title>
<ellipse fill="none" stroke="#0000ff" cx="1079.496" cy="-105" rx="69.5877" ry="18"/>
<text text-anchor="middle" x="1079.496" y="-101.3" font-family="Times,serif" font-size="14.00" fill="#000000">named thing</text>
</g>
</g>
</svg>
