<?xml version="1.0" encoding="UTF-8" standalone="no"?>
<!DOCTYPE svg PUBLIC "-//W3C//DTD SVG 1.1//EN"
 "http://www.w3.org/Graphics/SVG/1.1/DTD/svg11.dtd">
<!-- Generated by graphviz version 2.40.1 (20161225.0304)
 -->
<!-- Title: %3 Pages: 1 -->
<svg width="1632pt" height="131pt"
 viewBox="0.00 0.00 1632.19 131.00" xmlns="http://www.w3.org/2000/svg" xmlns:xlink="http://www.w3.org/1999/xlink">
<g id="graph0" class="graph" transform="scale(1 1) rotate(0) translate(4 127)">
<title>%3</title>
<polygon fill="#ffffff" stroke="transparent" points="-4,4 -4,-127 1628.1892,-127 1628.1892,4 -4,4"/>
<!-- application instance -->
<g id="node1" class="node">
<title>application instance</title>
<ellipse fill="none" stroke="#000000" cx="709.8426" cy="-105" rx="104.7816" ry="18"/>
<text text-anchor="middle" x="709.8426" y="-101.3" font-family="Times,serif" font-size="14.00" fill="#000000">application instance</text>
</g>
<!-- workload entity -->
<g id="node2" class="node">
<title>workload entity</title>
<ellipse fill="none" stroke="#000000" cx="83.8426" cy="-18" rx="83.6854" ry="18"/>
<text text-anchor="middle" x="83.8426" y="-14.3" font-family="Times,serif" font-size="14.00" fill="#000000">workload entity</text>
</g>
<!-- application instance&#45;&gt;workload entity -->
<g id="edge1" class="edge">
<title>application instance&#45;&gt;workload entity</title>
<path fill="none" stroke="#000000" d="M609.5292,-99.6577C528.3548,-94.4505 411.2684,-84.9367 309.8426,-69 254.2458,-60.2643 191.9113,-45.8428 146.812,-34.5603"/>
<polygon fill="#000000" stroke="#000000" points="147.4377,-31.1087 136.8855,-32.0581 145.7267,-37.8963 147.4377,-31.1087"/>
<text text-anchor="middle" x="323.8426" y="-57.8" font-family="Times,serif" font-size="14.00" fill="#000000">is_a</text>
</g>
<!-- id -->
<g id="node3" class="node">
<title>id</title>
<ellipse fill="none" stroke="#0000ff" cx="223.8426" cy="-18" rx="38.1938" ry="18"/>
<text text-anchor="middle" x="223.8426" y="-14.3" font-family="Times,serif" font-size="14.00" fill="#000000">string</text>
</g>
<!-- application instance&#45;&gt;id -->
<g id="edge2" class="edge">
<title>application instance&#45;&gt;id</title>
<path fill="none" stroke="#0000ff" d="M613.9354,-97.6453C523.8323,-88.9384 386.0073,-70.9646 270.8426,-36 268.0992,-35.1671 265.2869,-34.252 262.4685,-33.2894"/>
<polygon fill="#0000ff" stroke="#0000ff" points="263.548,-29.9585 252.9534,-29.8845 261.1895,-36.5492 263.548,-29.9585"/>
<text text-anchor="middle" x="408.8426" y="-57.8" font-family="Times,serif" font-size="14.00" fill="#000000">id</text>
</g>
<!-- name -->
<g id="node4" class="node">
<title>name</title>
<ellipse fill="none" stroke="#0000ff" cx="336.8426" cy="-18" rx="56.59" ry="18"/>
<text text-anchor="middle" x="336.8426" y="-14.3" font-family="Times,serif" font-size="14.00" fill="#000000">label type</text>
</g>
<!-- application instance&#45;&gt;name -->
<g id="edge3" class="edge">
<title>application instance&#45;&gt;name</title>
<path fill="none" stroke="#0000ff" d="M622.4783,-94.99C579.7132,-89.1335 527.6897,-80.5801 481.8426,-69 447.4737,-60.3191 409.7307,-46.9152 381.3692,-36.0272"/>
<polygon fill="#0000ff" stroke="#0000ff" points="382.3385,-32.649 371.7496,-32.2927 379.8051,-39.1745 382.3385,-32.649"/>
<text text-anchor="middle" x="501.8426" y="-57.8" font-family="Times,serif" font-size="14.00" fill="#000000">name</text>
</g>
<!-- enabled -->
<g id="node5" class="node">
<title>enabled</title>
<ellipse fill="none" stroke="#0000ff" cx="457.8426" cy="-18" rx="46.5926" ry="18"/>
<text text-anchor="middle" x="457.8426" y="-14.3" font-family="Times,serif" font-size="14.00" fill="#000000">boolean</text>
</g>
<!-- application instance&#45;&gt;enabled -->
<g id="edge4" class="edge">
<title>application instance&#45;&gt;enabled</title>
<path fill="none" stroke="#0000ff" d="M639.4125,-91.5783C613.9641,-85.8226 585.2554,-78.2648 559.8426,-69 536.8239,-60.6081 512.2249,-48.4121 492.9522,-38.0507"/>
<polygon fill="#0000ff" stroke="#0000ff" points="494.4037,-34.8555 483.9492,-33.1363 491.0497,-40.9998 494.4037,-34.8555"/>
<text text-anchor="middle" x="588.3426" y="-57.8" font-family="Times,serif" font-size="14.00" fill="#000000">enabled</text>
</g>
<!-- archived -->
<g id="node6" class="node">
<title>archived</title>
<ellipse fill="none" stroke="#0000ff" cx="569.8426" cy="-18" rx="46.5926" ry="18"/>
<text text-anchor="middle" x="569.8426" y="-14.3" font-family="Times,serif" font-size="14.00" fill="#000000">boolean</text>
</g>
<!-- application instance&#45;&gt;archived -->
<g id="edge5" class="edge">
<title>application instance&#45;&gt;archived</title>
<path fill="none" stroke="#0000ff" d="M676.0103,-87.8091C665.2569,-82.084 653.4152,-75.5029 642.8426,-69 628.2594,-60.0303 612.6326,-49.2772 599.5941,-39.9622"/>
<polygon fill="#0000ff" stroke="#0000ff" points="601.5954,-37.0903 591.4366,-34.0818 597.502,-42.7688 601.5954,-37.0903"/>
<text text-anchor="middle" x="674.3426" y="-57.8" font-family="Times,serif" font-size="14.00" fill="#000000">archived</text>
</g>
<!-- description -->
<g id="node7" class="node">
<title>description</title>
<ellipse fill="none" stroke="#0000ff" cx="709.8426" cy="-18" rx="75.2868" ry="18"/>
<text text-anchor="middle" x="709.8426" y="-14.3" font-family="Times,serif" font-size="14.00" fill="#000000">narrative text</text>
</g>
<!-- application instance&#45;&gt;description -->
<g id="edge6" class="edge">
<title>application instance&#45;&gt;description</title>
<path fill="none" stroke="#0000ff" d="M709.8426,-86.9735C709.8426,-75.1918 709.8426,-59.5607 709.8426,-46.1581"/>
<polygon fill="#0000ff" stroke="#0000ff" points="713.3427,-46.0033 709.8426,-36.0034 706.3427,-46.0034 713.3427,-46.0033"/>
<text text-anchor="middle" x="750.8426" y="-57.8" font-family="Times,serif" font-size="14.00" fill="#000000">description</text>
</g>
<!-- note -->
<g id="node8" class="node">
<title>note</title>
<ellipse fill="none" stroke="#0000ff" cx="878.8426" cy="-18" rx="75.2868" ry="18"/>
<text text-anchor="middle" x="878.8426" y="-14.3" font-family="Times,serif" font-size="14.00" fill="#000000">narrative text</text>
</g>
<!-- application instance&#45;&gt;note -->
<g id="edge7" class="edge">
<title>application instance&#45;&gt;note</title>
<path fill="none" stroke="#0000ff" d="M752.8668,-88.5167C766.7883,-82.7808 782.1592,-76.0147 795.8426,-69 812.2943,-60.5661 829.8297,-50.0359 844.5235,-40.7374"/>
<polygon fill="#0000ff" stroke="#0000ff" points="846.7361,-43.4768 853.2703,-35.1368 842.9614,-37.5817 846.7361,-43.4768"/>
<text text-anchor="middle" x="837.8426" y="-57.8" font-family="Times,serif" font-size="14.00" fill="#000000">note</text>
</g>
<!-- category -->
<g id="node9" class="node">
<title>category</title>
<ellipse fill="none" stroke="#000000" cx="1023.8426" cy="-18" rx="51.9908" ry="18"/>
<text text-anchor="middle" x="1023.8426" y="-14.3" font-family="Times,serif" font-size="14.00" fill="#000000">category</text>
</g>
<!-- application instance&#45;&gt;category -->
<g id="edge8" class="edge">
<title>application instance&#45;&gt;category</title>
<path fill="none" stroke="#0000ff" d="M772.7067,-90.581C799.0943,-84.3029 830.0505,-76.6421 857.8426,-69 897.8864,-57.989 942.8992,-44.0613 975.9394,-33.544"/>
<polygon fill="#0000ff" stroke="#0000ff" points="977.3299,-36.7741 985.7901,-30.3964 975.1993,-30.1062 977.3299,-36.7741"/>
<text text-anchor="middle" x="940.8426" y="-57.8" font-family="Times,serif" font-size="14.00" fill="#000000">category</text>
</g>
<!-- in taxon -->
<g id="node11" class="node">
<title>in taxon</title>
<ellipse fill="none" stroke="#0000ff" cx="1166.8426" cy="-18" rx="72.5877" ry="18"/>
<text text-anchor="middle" x="1166.8426" y="-14.3" font-family="Times,serif" font-size="14.00" fill="#000000">system taxon</text>
</g>
<!-- application instance&#45;&gt;in taxon -->
<g id="edge9" class="edge">
<title>application instance&#45;&gt;in taxon</title>
<path fill="none" stroke="#0000ff" d="M785.4532,-92.5102C797.931,-90.5771 810.7401,-88.6705 822.8426,-87 891.1058,-77.5779 909.1631,-81.9668 976.8426,-69 1022.8767,-60.1803 1074.1573,-46.1603 1111.83,-35.0501"/>
<polygon fill="#0000ff" stroke="#0000ff" points="1113.0029,-38.3529 1121.5901,-32.1471 1111.0072,-31.6434 1113.0029,-38.3529"/>
<text text-anchor="middle" x="1069.8426" y="-57.8" font-family="Times,serif" font-size="14.00" fill="#000000">in taxon</text>
</g>
<!-- has computational sequence -->
<g id="node12" class="node">
<title>has computational sequence</title>
<ellipse fill="none" stroke="#0000ff" cx="1381.8426" cy="-18" rx="124.2781" ry="18"/>
<text text-anchor="middle" x="1381.8426" y="-14.3" font-family="Times,serif" font-size="14.00" fill="#000000">computational sequence</text>
</g>
<!-- application instance&#45;&gt;has computational sequence -->
<g id="edge10" class="edge">
<title>application instance&#45;&gt;has computational sequence</title>
<path fill="none" stroke="#0000ff" d="M783.8639,-92.1908C796.8268,-90.239 810.2071,-88.4094 822.8426,-87 946.7753,-73.1765 979.0757,-84.2375 1102.8426,-69 1170.5887,-60.6594 1246.7735,-46.3977 1302.3939,-35.0728"/>
<polygon fill="#0000ff" stroke="#0000ff" points="1303.44,-38.4313 1312.5335,-32.9945 1302.0344,-31.5738 1303.44,-38.4313"/>
<text text-anchor="middle" x="1298.3426" y="-57.8" font-family="Times,serif" font-size="14.00" fill="#000000">has computational sequence</text>
</g>
<!-- internal version -->
<g id="node13" class="node">
<title>internal version</title>
<ellipse fill="none" stroke="#0000ff" cx="1585.8426" cy="-18" rx="38.1938" ry="18"/>
<text text-anchor="middle" x="1585.8426" y="-14.3" font-family="Times,serif" font-size="14.00" fill="#000000">string</text>
</g>
<!-- application instance&#45;&gt;internal version -->
<g id="edge11" class="edge">
<title>application instance&#45;&gt;internal version</title>
<path fill="none" stroke="#0000ff" d="M782.6129,-92.0155C795.9566,-90.0317 809.7898,-88.2364 822.8426,-87 1080.4797,-62.5958 1149.0668,-108.385 1404.8426,-69 1454.245,-61.3929 1509.2964,-44.643 1545.5694,-32.4072"/>
<polygon fill="#0000ff" stroke="#0000ff" points="1546.9517,-35.6336 1555.282,-29.0872 1544.6874,-29.0099 1546.9517,-35.6336"/>
<text text-anchor="middle" x="1526.8426" y="-57.8" font-family="Times,serif" font-size="14.00" fill="#000000">internal version</text>
</g>
<!-- named thing_category -->
<g id="node10" class="node">
<title>named thing_category</title>
<ellipse fill="none" stroke="#0000ff" cx="901.8426" cy="-105" rx="69.5877" ry="18"/>
<text text-anchor="middle" x="901.8426" y="-101.3" font-family="Times,serif" font-size="14.00" fill="#000000">named thing</text>
</g>
</g>
</svg>
