<?xml version="1.0" encoding="UTF-8" standalone="no"?>
<!DOCTYPE svg PUBLIC "-//W3C//DTD SVG 1.1//EN"
 "http://www.w3.org/Graphics/SVG/1.1/DTD/svg11.dtd">
<!-- Generated by graphviz version 2.40.1 (20161225.0304)
 -->
<!-- Title: %3 Pages: 1 -->
<svg width="1396pt" height="131pt"
 viewBox="0.00 0.00 1396.09 131.00" xmlns="http://www.w3.org/2000/svg" xmlns:xlink="http://www.w3.org/1999/xlink">
<g id="graph0" class="graph" transform="scale(1 1) rotate(0) translate(4 127)">
<title>%3</title>
<polygon fill="#ffffff" stroke="transparent" points="-4,4 -4,-127 1392.0854,-127 1392.0854,4 -4,4"/>
<!-- application user login -->
<g id="node1" class="node">
<title>application user login</title>
<ellipse fill="none" stroke="#000000" cx="689.5404" cy="-105" rx="111.5806" ry="18"/>
<text text-anchor="middle" x="689.5404" y="-101.3" font-family="Times,serif" font-size="14.00" fill="#000000">application user login</text>
</g>
<!-- administrative entity -->
<g id="node2" class="node">
<title>administrative entity</title>
<ellipse fill="none" stroke="#000000" cx="108.5404" cy="-18" rx="108.5808" ry="18"/>
<text text-anchor="middle" x="108.5404" y="-14.3" font-family="Times,serif" font-size="14.00" fill="#000000">administrative entity</text>
</g>
<!-- application user login&#45;&gt;administrative entity -->
<g id="edge1" class="edge">
<title>application user login&#45;&gt;administrative entity</title>
<path fill="none" stroke="#000000" d="M590.3728,-96.6405C524.451,-90.4879 436.0714,-81.0976 358.5404,-69 298.759,-59.672 231.6008,-45.7793 181.9562,-34.8484"/>
<polygon fill="#000000" stroke="#000000" points="182.4733,-31.3782 171.9532,-32.6339 180.9602,-38.2128 182.4733,-31.3782"/>
<text text-anchor="middle" x="372.5404" y="-57.8" font-family="Times,serif" font-size="14.00" fill="#000000">is_a</text>
</g>
<!-- id -->
<g id="node3" class="node">
<title>id</title>
<ellipse fill="none" stroke="#0000ff" cx="273.5404" cy="-18" rx="38.1938" ry="18"/>
<text text-anchor="middle" x="273.5404" y="-14.3" font-family="Times,serif" font-size="14.00" fill="#000000">string</text>
</g>
<!-- application user login&#45;&gt;id -->
<g id="edge2" class="edge">
<title>application user login&#45;&gt;id</title>
<path fill="none" stroke="#0000ff" d="M600.171,-94.1775C524.562,-83.6319 413.9266,-64.9118 320.5404,-36 317.8016,-35.1521 314.9927,-34.2258 312.1768,-33.2552"/>
<polygon fill="#0000ff" stroke="#0000ff" points="313.2612,-29.9258 302.6668,-29.8338 310.8915,-36.5125 313.2612,-29.9258"/>
<text text-anchor="middle" x="457.5404" y="-57.8" font-family="Times,serif" font-size="14.00" fill="#000000">id</text>
</g>
<!-- name -->
<g id="node4" class="node">
<title>name</title>
<ellipse fill="none" stroke="#0000ff" cx="386.5404" cy="-18" rx="56.59" ry="18"/>
<text text-anchor="middle" x="386.5404" y="-14.3" font-family="Times,serif" font-size="14.00" fill="#000000">label type</text>
</g>
<!-- application user login&#45;&gt;name -->
<g id="edge3" class="edge">
<title>application user login&#45;&gt;name</title>
<path fill="none" stroke="#0000ff" d="M614.4641,-91.5847C584.9344,-85.6397 550.8964,-77.9521 520.5404,-69 489.737,-59.916 455.9472,-47.0347 430.0048,-36.4908"/>
<polygon fill="#0000ff" stroke="#0000ff" points="431.049,-33.1361 420.4689,-32.577 428.3911,-39.6119 431.049,-33.1361"/>
<text text-anchor="middle" x="540.5404" y="-57.8" font-family="Times,serif" font-size="14.00" fill="#000000">name</text>
</g>
<!-- enabled -->
<g id="node5" class="node">
<title>enabled</title>
<ellipse fill="none" stroke="#0000ff" cx="507.5404" cy="-18" rx="46.5926" ry="18"/>
<text text-anchor="middle" x="507.5404" y="-14.3" font-family="Times,serif" font-size="14.00" fill="#000000">boolean</text>
</g>
<!-- application user login&#45;&gt;enabled -->
<g id="edge4" class="edge">
<title>application user login&#45;&gt;enabled</title>
<path fill="none" stroke="#0000ff" d="M638.3278,-88.8977C622.4054,-83.2754 604.9849,-76.4792 589.5404,-69 572.0079,-60.5097 553.4978,-49.2199 538.5095,-39.4211"/>
<polygon fill="#0000ff" stroke="#0000ff" points="540.3929,-36.4704 530.1256,-33.8565 536.5219,-42.3027 540.3929,-36.4704"/>
<text text-anchor="middle" x="618.0404" y="-57.8" font-family="Times,serif" font-size="14.00" fill="#000000">enabled</text>
</g>
<!-- archived -->
<g id="node6" class="node">
<title>archived</title>
<ellipse fill="none" stroke="#0000ff" cx="619.5404" cy="-18" rx="46.5926" ry="18"/>
<text text-anchor="middle" x="619.5404" y="-14.3" font-family="Times,serif" font-size="14.00" fill="#000000">boolean</text>
</g>
<!-- application user login&#45;&gt;archived -->
<g id="edge5" class="edge">
<title>application user login&#45;&gt;archived</title>
<path fill="none" stroke="#0000ff" d="M675.0363,-86.9735C664.8597,-74.3254 651.1137,-57.2411 639.8485,-43.2401"/>
<polygon fill="#0000ff" stroke="#0000ff" points="642.5439,-41.0068 633.5482,-35.4097 637.0901,-45.395 642.5439,-41.0068"/>
<text text-anchor="middle" x="691.0404" y="-57.8" font-family="Times,serif" font-size="14.00" fill="#000000">archived</text>
</g>
<!-- description -->
<g id="node7" class="node">
<title>description</title>
<ellipse fill="none" stroke="#0000ff" cx="759.5404" cy="-18" rx="75.2868" ry="18"/>
<text text-anchor="middle" x="759.5404" y="-14.3" font-family="Times,serif" font-size="14.00" fill="#000000">narrative text</text>
</g>
<!-- application user login&#45;&gt;description -->
<g id="edge6" class="edge">
<title>application user login&#45;&gt;description</title>
<path fill="none" stroke="#0000ff" d="M709.5859,-87.0885C715.3353,-81.5393 721.4265,-75.2379 726.5404,-69 732.6613,-61.5337 738.6245,-52.8854 743.7601,-44.8553"/>
<polygon fill="#0000ff" stroke="#0000ff" points="746.8658,-46.4887 749.171,-36.1477 740.9202,-42.7941 746.8658,-46.4887"/>
<text text-anchor="middle" x="778.5404" y="-57.8" font-family="Times,serif" font-size="14.00" fill="#000000">description</text>
</g>
<!-- note -->
<g id="node8" class="node">
<title>note</title>
<ellipse fill="none" stroke="#0000ff" cx="928.5404" cy="-18" rx="75.2868" ry="18"/>
<text text-anchor="middle" x="928.5404" y="-14.3" font-family="Times,serif" font-size="14.00" fill="#000000">narrative text</text>
</g>
<!-- application user login&#45;&gt;note -->
<g id="edge7" class="edge">
<title>application user login&#45;&gt;note</title>
<path fill="none" stroke="#0000ff" d="M754.3904,-90.2231C776.6038,-84.4674 801.4243,-77.2566 823.5404,-69 845.8931,-60.655 869.8942,-49.1988 889.2996,-39.2582"/>
<polygon fill="#0000ff" stroke="#0000ff" points="891.1656,-42.2331 898.4294,-34.5202 887.9412,-36.0199 891.1656,-42.2331"/>
<text text-anchor="middle" x="875.5404" y="-57.8" font-family="Times,serif" font-size="14.00" fill="#000000">note</text>
</g>
<!-- category -->
<g id="node9" class="node">
<title>category</title>
<ellipse fill="none" stroke="#000000" cx="1073.5404" cy="-18" rx="51.9908" ry="18"/>
<text text-anchor="middle" x="1073.5404" y="-14.3" font-family="Times,serif" font-size="14.00" fill="#000000">category</text>
</g>
<!-- application user login&#45;&gt;category -->
<g id="edge8" class="edge">
<title>application user login&#45;&gt;category</title>
<path fill="none" stroke="#0000ff" d="M771.6254,-92.6249C809.5239,-86.4078 855.0083,-78.2324 895.5404,-69 948.2198,-57.0006 960.6295,-50.9792 1012.5404,-36 1016.3115,-34.9118 1020.2115,-33.7788 1024.1318,-32.6343"/>
<polygon fill="#0000ff" stroke="#0000ff" points="1025.2443,-35.9556 1033.8568,-29.7851 1023.2761,-29.238 1025.2443,-35.9556"/>
<text text-anchor="middle" x="984.5404" y="-57.8" font-family="Times,serif" font-size="14.00" fill="#000000">category</text>
</g>
<!-- user name -->
<g id="node11" class="node">
<title>user name</title>
<ellipse fill="none" stroke="#0000ff" cx="1200.5404" cy="-18" rx="56.59" ry="18"/>
<text text-anchor="middle" x="1200.5404" y="-14.3" font-family="Times,serif" font-size="14.00" fill="#000000">label type</text>
</g>
<!-- application user login&#45;&gt;user name -->
<g id="edge9" class="edge">
<title>application user login&#45;&gt;user name</title>
<path fill="none" stroke="#0000ff" d="M769.1624,-92.329C782.6198,-90.3963 796.4639,-88.5369 809.5404,-87 903.0153,-76.0136 927.9527,-85.9055 1020.5404,-69 1065.9557,-60.7077 1116.4287,-45.9017 1152.3428,-34.3714"/>
<polygon fill="#0000ff" stroke="#0000ff" points="1153.6391,-37.6305 1162.0701,-31.2142 1151.478,-30.9724 1153.6391,-37.6305"/>
<text text-anchor="middle" x="1124.5404" y="-57.8" font-family="Times,serif" font-size="14.00" fill="#000000">user name</text>
</g>
<!-- domain name -->
<g id="node12" class="node">
<title>domain name</title>
<ellipse fill="none" stroke="#0000ff" cx="1331.5404" cy="-18" rx="56.59" ry="18"/>
<text text-anchor="middle" x="1331.5404" y="-14.3" font-family="Times,serif" font-size="14.00" fill="#000000">label type</text>
</g>
<!-- application user login&#45;&gt;domain name -->
<g id="edge10" class="edge">
<title>application user login&#45;&gt;domain name</title>
<path fill="none" stroke="#0000ff" d="M767.8289,-92.1211C781.6949,-90.1647 796.0199,-88.3516 809.5404,-87 967.6207,-71.1975 1010.1007,-96.6723 1166.5404,-69 1207.7457,-61.7113 1253.0625,-47.2122 1285.7615,-35.5307"/>
<polygon fill="#0000ff" stroke="#0000ff" points="1287.2765,-38.7045 1295.4858,-32.0069 1284.8916,-32.1232 1287.2765,-38.7045"/>
<text text-anchor="middle" x="1275.0404" y="-57.8" font-family="Times,serif" font-size="14.00" fill="#000000">domain name</text>
</g>
<!-- named thing_category -->
<g id="node10" class="node">
<title>named thing_category</title>
<ellipse fill="none" stroke="#0000ff" cx="888.5404" cy="-105" rx="69.5877" ry="18"/>
<text text-anchor="middle" x="888.5404" y="-101.3" font-family="Times,serif" font-size="14.00" fill="#000000">named thing</text>
</g>
</g>
</svg>
