<?xml version="1.0" encoding="UTF-8" standalone="no"?>
<!DOCTYPE svg PUBLIC "-//W3C//DTD SVG 1.1//EN"
 "http://www.w3.org/Graphics/SVG/1.1/DTD/svg11.dtd">
<!-- Generated by graphviz version 2.40.1 (20161225.0304)
 -->
<!-- Title: %3 Pages: 1 -->
<svg width="1242pt" height="131pt"
 viewBox="0.00 0.00 1242.04 131.00" xmlns="http://www.w3.org/2000/svg" xmlns:xlink="http://www.w3.org/1999/xlink">
<g id="graph0" class="graph" transform="scale(1 1) rotate(0) translate(4 127)">
<title>%3</title>
<polygon fill="#ffffff" stroke="transparent" points="-4,4 -4,-127 1238.0363,-127 1238.0363,4 -4,4"/>
<!-- application type -->
<g id="node1" class="node">
<title>application type</title>
<ellipse fill="none" stroke="#000000" cx="567.5427" cy="-105" rx="85.5853" ry="18"/>
<text text-anchor="middle" x="567.5427" y="-101.3" font-family="Times,serif" font-size="14.00" fill="#000000">application type</text>
</g>
<!-- systemic entity -->
<g id="node2" class="node">
<title>systemic entity</title>
<ellipse fill="none" stroke="#000000" cx="82.5427" cy="-18" rx="82.5854" ry="18"/>
<text text-anchor="middle" x="82.5427" y="-14.3" font-family="Times,serif" font-size="14.00" fill="#000000">systemic entity</text>
</g>
<!-- application type&#45;&gt;systemic entity -->
<g id="edge1" class="edge">
<title>application type&#45;&gt;systemic entity</title>
<path fill="none" stroke="#000000" d="M491.2798,-96.6136C437.9363,-90.2757 365.1384,-80.6816 301.5427,-69 248.6453,-59.2836 189.2567,-45.2547 145.6833,-34.3691"/>
<polygon fill="#000000" stroke="#000000" points="146.3508,-30.928 135.7993,-31.886 144.6452,-37.7171 146.3508,-30.928"/>
<text text-anchor="middle" x="315.5427" y="-57.8" font-family="Times,serif" font-size="14.00" fill="#000000">is_a</text>
</g>
<!-- id -->
<g id="node3" class="node">
<title>id</title>
<ellipse fill="none" stroke="#0000ff" cx="221.5427" cy="-18" rx="38.1938" ry="18"/>
<text text-anchor="middle" x="221.5427" y="-14.3" font-family="Times,serif" font-size="14.00" fill="#000000">string</text>
</g>
<!-- application type&#45;&gt;id -->
<g id="edge2" class="edge">
<title>application type&#45;&gt;id</title>
<path fill="none" stroke="#0000ff" d="M502.2398,-93.2229C441.0863,-81.4235 347.5378,-61.387 268.5427,-36 265.8131,-35.1228 263.0111,-34.1747 260.2002,-33.1884"/>
<polygon fill="#0000ff" stroke="#0000ff" points="261.2944,-29.8622 250.7003,-29.7349 258.9027,-36.4409 261.2944,-29.8622"/>
<text text-anchor="middle" x="389.5427" y="-57.8" font-family="Times,serif" font-size="14.00" fill="#000000">id</text>
</g>
<!-- name -->
<g id="node4" class="node">
<title>name</title>
<ellipse fill="none" stroke="#0000ff" cx="334.5427" cy="-18" rx="56.59" ry="18"/>
<text text-anchor="middle" x="334.5427" y="-14.3" font-family="Times,serif" font-size="14.00" fill="#000000">label type</text>
</g>
<!-- application type&#45;&gt;name -->
<g id="edge3" class="edge">
<title>application type&#45;&gt;name</title>
<path fill="none" stroke="#0000ff" d="M514.3079,-90.8808C493.0155,-84.7894 468.4024,-77.1842 446.5427,-69 421.9667,-59.7989 395.1916,-47.6871 373.9847,-37.5756"/>
<polygon fill="#0000ff" stroke="#0000ff" points="375.4897,-34.4157 364.9609,-33.234 372.4547,-40.7236 375.4897,-34.4157"/>
<text text-anchor="middle" x="466.5427" y="-57.8" font-family="Times,serif" font-size="14.00" fill="#000000">name</text>
</g>
<!-- enabled -->
<g id="node5" class="node">
<title>enabled</title>
<ellipse fill="none" stroke="#0000ff" cx="455.5427" cy="-18" rx="46.5926" ry="18"/>
<text text-anchor="middle" x="455.5427" y="-14.3" font-family="Times,serif" font-size="14.00" fill="#000000">boolean</text>
</g>
<!-- application type&#45;&gt;enabled -->
<g id="edge4" class="edge">
<title>application type&#45;&gt;enabled</title>
<path fill="none" stroke="#0000ff" d="M535.5246,-88.1386C525.8783,-82.5283 515.4851,-75.9299 506.5427,-69 496.4379,-61.1693 486.2815,-51.4732 477.7217,-42.6449"/>
<polygon fill="#0000ff" stroke="#0000ff" points="480.0692,-40.0335 470.652,-35.1788 474.9863,-44.8466 480.0692,-40.0335"/>
<text text-anchor="middle" x="535.0427" y="-57.8" font-family="Times,serif" font-size="14.00" fill="#000000">enabled</text>
</g>
<!-- archived -->
<g id="node6" class="node">
<title>archived</title>
<ellipse fill="none" stroke="#0000ff" cx="567.5427" cy="-18" rx="46.5926" ry="18"/>
<text text-anchor="middle" x="567.5427" y="-14.3" font-family="Times,serif" font-size="14.00" fill="#000000">boolean</text>
</g>
<!-- application type&#45;&gt;archived -->
<g id="edge5" class="edge">
<title>application type&#45;&gt;archived</title>
<path fill="none" stroke="#0000ff" d="M567.5427,-86.9735C567.5427,-75.1918 567.5427,-59.5607 567.5427,-46.1581"/>
<polygon fill="#0000ff" stroke="#0000ff" points="571.0428,-46.0033 567.5427,-36.0034 564.0428,-46.0034 571.0428,-46.0033"/>
<text text-anchor="middle" x="599.0427" y="-57.8" font-family="Times,serif" font-size="14.00" fill="#000000">archived</text>
</g>
<!-- description -->
<g id="node7" class="node">
<title>description</title>
<ellipse fill="none" stroke="#0000ff" cx="707.5427" cy="-18" rx="75.2868" ry="18"/>
<text text-anchor="middle" x="707.5427" y="-14.3" font-family="Times,serif" font-size="14.00" fill="#000000">narrative text</text>
</g>
<!-- application type&#45;&gt;description -->
<g id="edge6" class="edge">
<title>application type&#45;&gt;description</title>
<path fill="none" stroke="#0000ff" d="M600.3488,-88.3546C611.3712,-82.5042 623.6326,-75.7105 634.5427,-69 648.452,-60.4447 663.3107,-50.2672 675.9675,-41.2624"/>
<polygon fill="#0000ff" stroke="#0000ff" points="678.2586,-43.9262 684.3394,-35.2501 674.1753,-38.2405 678.2586,-43.9262"/>
<text text-anchor="middle" x="698.5427" y="-57.8" font-family="Times,serif" font-size="14.00" fill="#000000">description</text>
</g>
<!-- note -->
<g id="node8" class="node">
<title>note</title>
<ellipse fill="none" stroke="#0000ff" cx="876.5427" cy="-18" rx="75.2868" ry="18"/>
<text text-anchor="middle" x="876.5427" y="-14.3" font-family="Times,serif" font-size="14.00" fill="#000000">narrative text</text>
</g>
<!-- application type&#45;&gt;note -->
<g id="edge7" class="edge">
<title>application type&#45;&gt;note</title>
<path fill="none" stroke="#0000ff" d="M630.5789,-92.6317C676.5244,-83.5272 732.5774,-72.2002 743.5427,-69 773.1181,-60.3684 805.4063,-48.0595 830.7625,-37.6967"/>
<polygon fill="#0000ff" stroke="#0000ff" points="832.214,-40.8841 840.121,-33.8321 829.5421,-34.414 832.214,-40.8841"/>
<text text-anchor="middle" x="804.5427" y="-57.8" font-family="Times,serif" font-size="14.00" fill="#000000">note</text>
</g>
<!-- category -->
<g id="node9" class="node">
<title>category</title>
<ellipse fill="none" stroke="#000000" cx="1021.5427" cy="-18" rx="51.9908" ry="18"/>
<text text-anchor="middle" x="1021.5427" y="-14.3" font-family="Times,serif" font-size="14.00" fill="#000000">category</text>
</g>
<!-- application type&#45;&gt;category -->
<g id="edge8" class="edge">
<title>application type&#45;&gt;category</title>
<path fill="none" stroke="#0000ff" d="M629.3632,-92.4404C640.0684,-90.4724 651.1094,-88.5725 661.5427,-87 733.6135,-76.1377 752.7586,-81.6191 824.5427,-69 885.8017,-58.2311 900.4748,-52.1398 960.5427,-36 964.3915,-34.9658 968.3677,-33.8655 972.3587,-32.7382"/>
<polygon fill="#0000ff" stroke="#0000ff" points="973.5983,-36.0238 982.2459,-29.9027 971.6685,-29.2951 973.5983,-36.0238"/>
<text text-anchor="middle" x="925.5427" y="-57.8" font-family="Times,serif" font-size="14.00" fill="#000000">category</text>
</g>
<!-- has attribute -->
<g id="node11" class="node">
<title>has attribute</title>
<ellipse fill="none" stroke="#000000" cx="1162.5427" cy="-18" rx="71.4873" ry="18"/>
<text text-anchor="middle" x="1162.5427" y="-14.3" font-family="Times,serif" font-size="14.00" fill="#000000">has attribute</text>
</g>
<!-- application type&#45;&gt;has attribute -->
<g id="edge9" class="edge">
<title>application type&#45;&gt;has attribute</title>
<path fill="none" stroke="#0000ff" d="M628.0384,-92.2239C639.1424,-90.2189 650.6611,-88.3625 661.5427,-87 794.0809,-70.4046 829.5546,-89.5165 961.5427,-69 1011.7192,-61.2005 1067.6207,-46.5138 1107.707,-34.8968"/>
<polygon fill="#0000ff" stroke="#0000ff" points="1108.9315,-38.1853 1117.5445,-32.0155 1106.9639,-31.4675 1108.9315,-38.1853"/>
<text text-anchor="middle" x="1081.5427" y="-57.8" font-family="Times,serif" font-size="14.00" fill="#000000">has attribute</text>
</g>
<!-- named thing_category -->
<g id="node10" class="node">
<title>named thing_category</title>
<ellipse fill="none" stroke="#0000ff" cx="740.5427" cy="-105" rx="69.5877" ry="18"/>
<text text-anchor="middle" x="740.5427" y="-101.3" font-family="Times,serif" font-size="14.00" fill="#000000">named thing</text>
</g>
<!-- systemic entity_has attribute -->
<g id="node12" class="node">
<title>systemic entity_has attribute</title>
<ellipse fill="none" stroke="#0000ff" cx="880.5427" cy="-105" rx="51.9908" ry="18"/>
<text text-anchor="middle" x="880.5427" y="-101.3" font-family="Times,serif" font-size="14.00" fill="#000000">attribute</text>
</g>
</g>
</svg>
