<?xml version="1.0" encoding="UTF-8" standalone="no"?>
<!DOCTYPE svg PUBLIC "-//W3C//DTD SVG 1.1//EN"
 "http://www.w3.org/Graphics/SVG/1.1/DTD/svg11.dtd">
<!-- Generated by graphviz version 2.40.1 (20161225.0304)
 -->
<!-- Title: %3 Pages: 1 -->
<svg width="1878pt" height="131pt"
 viewBox="0.00 0.00 1877.79 131.00" xmlns="http://www.w3.org/2000/svg" xmlns:xlink="http://www.w3.org/1999/xlink">
<g id="graph0" class="graph" transform="scale(1 1) rotate(0) translate(4 127)">
<title>%3</title>
<polygon fill="#ffffff" stroke="transparent" points="-4,4 -4,-127 1873.7901,-127 1873.7901,4 -4,4"/>
<!-- application configuration -->
<g id="node1" class="node">
<title>application configuration</title>
<ellipse fill="none" stroke="#000000" cx="1003.4435" cy="-105" rx="128.0773" ry="18"/>
<text text-anchor="middle" x="1003.4435" y="-101.3" font-family="Times,serif" font-size="14.00" fill="#000000">application configuration</text>
</g>
<!-- configuration -->
<g id="node2" class="node">
<title>configuration</title>
<ellipse fill="none" stroke="#000000" cx="73.4435" cy="-18" rx="73.387" ry="18"/>
<text text-anchor="middle" x="73.4435" y="-14.3" font-family="Times,serif" font-size="14.00" fill="#000000">configuration</text>
</g>
<!-- application configuration&#45;&gt;configuration -->
<g id="edge1" class="edge">
<title>application configuration&#45;&gt;configuration</title>
<path fill="none" stroke="#000000" d="M877.6369,-101.4063C703.8301,-95.9678 399.2692,-84.6024 289.4435,-69 234.9409,-61.2571 173.9967,-46.2719 130.7765,-34.5399"/>
<polygon fill="#000000" stroke="#000000" points="131.5802,-31.1311 121.0106,-31.8625 129.7293,-37.882 131.5802,-31.1311"/>
<text text-anchor="middle" x="303.4435" y="-57.8" font-family="Times,serif" font-size="14.00" fill="#000000">is_a</text>
</g>
<!-- id -->
<g id="node3" class="node">
<title>id</title>
<ellipse fill="none" stroke="#0000ff" cx="203.4435" cy="-18" rx="38.1938" ry="18"/>
<text text-anchor="middle" x="203.4435" y="-14.3" font-family="Times,serif" font-size="14.00" fill="#000000">string</text>
</g>
<!-- application configuration&#45;&gt;id -->
<g id="edge2" class="edge">
<title>application configuration&#45;&gt;id</title>
<path fill="none" stroke="#0000ff" d="M876.7336,-102.1639C757.5309,-98.3301 574.2766,-89.4332 416.4435,-69 341.8445,-59.3424 322.7148,-56.8596 250.4435,-36 247.6495,-35.1936 244.7877,-34.2926 241.9228,-33.3353"/>
<polygon fill="#0000ff" stroke="#0000ff" points="242.8597,-29.9543 232.265,-29.9191 240.5253,-36.5536 242.8597,-29.9543"/>
<text text-anchor="middle" x="423.4435" y="-57.8" font-family="Times,serif" font-size="14.00" fill="#000000">id</text>
</g>
<!-- name -->
<g id="node4" class="node">
<title>name</title>
<ellipse fill="none" stroke="#0000ff" cx="316.4435" cy="-18" rx="56.59" ry="18"/>
<text text-anchor="middle" x="316.4435" y="-14.3" font-family="Times,serif" font-size="14.00" fill="#000000">label type</text>
</g>
<!-- application configuration&#45;&gt;name -->
<g id="edge3" class="edge">
<title>application configuration&#45;&gt;name</title>
<path fill="none" stroke="#0000ff" d="M882.3718,-99.1095C757.4384,-92.5335 571.1343,-81.2013 500.4435,-69 453.8641,-60.9603 402.0876,-46.0539 365.3551,-34.4247"/>
<polygon fill="#0000ff" stroke="#0000ff" points="366.0015,-30.9566 355.4105,-31.24 363.8666,-37.6232 366.0015,-30.9566"/>
<text text-anchor="middle" x="520.4435" y="-57.8" font-family="Times,serif" font-size="14.00" fill="#000000">name</text>
</g>
<!-- enabled -->
<g id="node5" class="node">
<title>enabled</title>
<ellipse fill="none" stroke="#0000ff" cx="437.4435" cy="-18" rx="46.5926" ry="18"/>
<text text-anchor="middle" x="437.4435" y="-14.3" font-family="Times,serif" font-size="14.00" fill="#000000">boolean</text>
</g>
<!-- application configuration&#45;&gt;enabled -->
<g id="edge4" class="edge">
<title>application configuration&#45;&gt;enabled</title>
<path fill="none" stroke="#0000ff" d="M879.8803,-100.1988C800.6137,-95.5608 695.8046,-86.5212 604.4435,-69 561.494,-60.7632 513.9192,-45.6145 480.5705,-33.9594"/>
<polygon fill="#0000ff" stroke="#0000ff" points="481.7235,-30.6548 471.1287,-30.6201 479.3893,-37.2542 481.7235,-30.6548"/>
<text text-anchor="middle" x="632.9435" y="-57.8" font-family="Times,serif" font-size="14.00" fill="#000000">enabled</text>
</g>
<!-- archived -->
<g id="node6" class="node">
<title>archived</title>
<ellipse fill="none" stroke="#0000ff" cx="549.4435" cy="-18" rx="46.5926" ry="18"/>
<text text-anchor="middle" x="549.4435" y="-14.3" font-family="Times,serif" font-size="14.00" fill="#000000">boolean</text>
</g>
<!-- application configuration&#45;&gt;archived -->
<g id="edge5" class="edge">
<title>application configuration&#45;&gt;archived</title>
<path fill="none" stroke="#0000ff" d="M897.5973,-94.8083C845.474,-88.8985 781.8612,-80.3526 725.4435,-69 671.2172,-58.0883 658.4521,-51.8001 605.4435,-36 602.0625,-34.9922 598.5742,-33.9287 595.0692,-32.8427"/>
<polygon fill="#0000ff" stroke="#0000ff" points="595.8112,-29.4073 585.2219,-29.7507 593.7141,-36.0858 595.8112,-29.4073"/>
<text text-anchor="middle" x="756.9435" y="-57.8" font-family="Times,serif" font-size="14.00" fill="#000000">archived</text>
</g>
<!-- description -->
<g id="node7" class="node">
<title>description</title>
<ellipse fill="none" stroke="#0000ff" cx="689.4435" cy="-18" rx="75.2868" ry="18"/>
<text text-anchor="middle" x="689.4435" y="-14.3" font-family="Times,serif" font-size="14.00" fill="#000000">narrative text</text>
</g>
<!-- application configuration&#45;&gt;description -->
<g id="edge6" class="edge">
<title>application configuration&#45;&gt;description</title>
<path fill="none" stroke="#0000ff" d="M926.8958,-90.5373C898.3212,-84.6055 865.7171,-77.2005 836.4435,-69 803.5188,-59.7767 767.2156,-47.2062 738.9239,-36.8532"/>
<polygon fill="#0000ff" stroke="#0000ff" points="739.8629,-33.4692 729.2695,-33.2929 737.4408,-40.0368 739.8629,-33.4692"/>
<text text-anchor="middle" x="877.4435" y="-57.8" font-family="Times,serif" font-size="14.00" fill="#000000">description</text>
</g>
<!-- note -->
<g id="node8" class="node">
<title>note</title>
<ellipse fill="none" stroke="#0000ff" cx="858.4435" cy="-18" rx="75.2868" ry="18"/>
<text text-anchor="middle" x="858.4435" y="-14.3" font-family="Times,serif" font-size="14.00" fill="#000000">narrative text</text>
</g>
<!-- application configuration&#45;&gt;note -->
<g id="edge7" class="edge">
<title>application configuration&#45;&gt;note</title>
<path fill="none" stroke="#0000ff" d="M974.1006,-87.3943C951.4004,-73.7742 919.8254,-54.8291 895.4011,-40.1746"/>
<polygon fill="#0000ff" stroke="#0000ff" points="897.1316,-37.1312 886.7559,-34.9875 893.5301,-43.1337 897.1316,-37.1312"/>
<text text-anchor="middle" x="956.4435" y="-57.8" font-family="Times,serif" font-size="14.00" fill="#000000">note</text>
</g>
<!-- category -->
<g id="node9" class="node">
<title>category</title>
<ellipse fill="none" stroke="#000000" cx="1003.4435" cy="-18" rx="51.9908" ry="18"/>
<text text-anchor="middle" x="1003.4435" y="-14.3" font-family="Times,serif" font-size="14.00" fill="#000000">category</text>
</g>
<!-- application configuration&#45;&gt;category -->
<g id="edge8" class="edge">
<title>application configuration&#45;&gt;category</title>
<path fill="none" stroke="#0000ff" d="M1003.4435,-86.9735C1003.4435,-75.1918 1003.4435,-59.5607 1003.4435,-46.1581"/>
<polygon fill="#0000ff" stroke="#0000ff" points="1006.9436,-46.0033 1003.4435,-36.0034 999.9436,-46.0034 1006.9436,-46.0033"/>
<text text-anchor="middle" x="1035.4435" y="-57.8" font-family="Times,serif" font-size="14.00" fill="#000000">category</text>
</g>
<!-- license -->
<g id="node11" class="node">
<title>license</title>
<ellipse fill="none" stroke="#0000ff" cx="1111.4435" cy="-18" rx="38.1938" ry="18"/>
<text text-anchor="middle" x="1111.4435" y="-14.3" font-family="Times,serif" font-size="14.00" fill="#000000">string</text>
</g>
<!-- application configuration&#45;&gt;license -->
<g id="edge9" class="edge">
<title>application configuration&#45;&gt;license</title>
<path fill="none" stroke="#0000ff" d="M1042.6259,-87.8304C1052.5542,-82.5465 1062.8348,-76.1967 1071.4435,-69 1079.9904,-61.855 1087.9089,-52.609 1094.4068,-43.9557"/>
<polygon fill="#0000ff" stroke="#0000ff" points="1097.4162,-45.7651 1100.4018,-35.5996 1091.7286,-41.6845 1097.4162,-45.7651"/>
<text text-anchor="middle" x="1110.9435" y="-57.8" font-family="Times,serif" font-size="14.00" fill="#000000">license</text>
</g>
<!-- rights -->
<g id="node12" class="node">
<title>rights</title>
<ellipse fill="none" stroke="#0000ff" cx="1206.4435" cy="-18" rx="38.1938" ry="18"/>
<text text-anchor="middle" x="1206.4435" y="-14.3" font-family="Times,serif" font-size="14.00" fill="#000000">string</text>
</g>
<!-- application configuration&#45;&gt;rights -->
<g id="edge10" class="edge">
<title>application configuration&#45;&gt;rights</title>
<path fill="none" stroke="#0000ff" d="M1080.4161,-90.5339C1100.5371,-85.2186 1121.7995,-78.1775 1140.4435,-69 1155.3274,-61.6734 1170.1074,-50.6908 1181.8958,-40.7916"/>
<polygon fill="#0000ff" stroke="#0000ff" points="1184.2747,-43.3615 1189.5435,-34.1696 1179.6925,-38.0695 1184.2747,-43.3615"/>
<text text-anchor="middle" x="1185.9435" y="-57.8" font-family="Times,serif" font-size="14.00" fill="#000000">rights</text>
</g>
<!-- format -->
<g id="node13" class="node">
<title>format</title>
<ellipse fill="none" stroke="#0000ff" cx="1301.4435" cy="-18" rx="38.1938" ry="18"/>
<text text-anchor="middle" x="1301.4435" y="-14.3" font-family="Times,serif" font-size="14.00" fill="#000000">string</text>
</g>
<!-- application configuration&#45;&gt;format -->
<g id="edge11" class="edge">
<title>application configuration&#45;&gt;format</title>
<path fill="none" stroke="#0000ff" d="M1094.7042,-92.3431C1140.1801,-85.407 1189.9626,-76.6824 1211.4435,-69 1232.4176,-61.4988 1254.1943,-49.2946 1271.0725,-38.7054"/>
<polygon fill="#0000ff" stroke="#0000ff" points="1273.3872,-41.3785 1279.9091,-33.0288 1269.6038,-35.489 1273.3872,-41.3785"/>
<text text-anchor="middle" x="1267.9435" y="-57.8" font-family="Times,serif" font-size="14.00" fill="#000000">format</text>
</g>
<!-- creation date -->
<g id="node14" class="node">
<title>creation date</title>
<ellipse fill="none" stroke="#0000ff" cx="1389.4435" cy="-18" rx="31.3957" ry="18"/>
<text text-anchor="middle" x="1389.4435" y="-14.3" font-family="Times,serif" font-size="14.00" fill="#000000">date</text>
</g>
<!-- application configuration&#45;&gt;creation date -->
<g id="edge12" class="edge">
<title>application configuration&#45;&gt;creation date</title>
<path fill="none" stroke="#0000ff" d="M1096.2731,-92.6022C1111.0437,-90.6876 1126.1583,-88.7625 1140.4435,-87 1209.7116,-78.4538 1229.9396,-90.1741 1296.4435,-69 1319.3045,-61.7213 1342.9846,-48.6414 1360.7287,-37.5505"/>
<polygon fill="#0000ff" stroke="#0000ff" points="1362.9001,-40.316 1369.4308,-31.9733 1359.1229,-34.4226 1362.9001,-40.316"/>
<text text-anchor="middle" x="1379.4435" y="-57.8" font-family="Times,serif" font-size="14.00" fill="#000000">creation date</text>
</g>
<!-- has part -->
<g id="node15" class="node">
<title>has part</title>
<ellipse fill="none" stroke="#0000ff" cx="1508.4435" cy="-18" rx="69.5877" ry="18"/>
<text text-anchor="middle" x="1508.4435" y="-14.3" font-family="Times,serif" font-size="14.00" fill="#000000">named thing</text>
</g>
<!-- application configuration&#45;&gt;has part -->
<g id="edge13" class="edge">
<title>application configuration&#45;&gt;has part</title>
<path fill="none" stroke="#0000ff" d="M1093.9855,-92.2092C1109.464,-90.2791 1125.4002,-88.4518 1140.4435,-87 1204.9341,-80.7763 1370.0117,-89.5891 1431.4435,-69 1449.1956,-63.0503 1466.7729,-51.918 1480.6416,-41.5686"/>
<polygon fill="#0000ff" stroke="#0000ff" points="1483.0011,-44.1682 1488.7661,-35.2791 1478.7161,-38.633 1483.0011,-44.1682"/>
<text text-anchor="middle" x="1491.4435" y="-57.8" font-family="Times,serif" font-size="14.00" fill="#000000">has part</text>
</g>
<!-- has quantitative value -->
<g id="node16" class="node">
<title>has quantitative value</title>
<ellipse fill="none" stroke="#0000ff" cx="1673.4435" cy="-18" rx="77.1866" ry="18"/>
<text text-anchor="middle" x="1673.4435" y="-14.3" font-family="Times,serif" font-size="14.00" fill="#000000">quantity value</text>
</g>
<!-- application configuration&#45;&gt;has quantitative value -->
<g id="edge14" class="edge">
<title>application configuration&#45;&gt;has quantitative value</title>
<path fill="none" stroke="#0000ff" d="M1093.2308,-92.107C1108.9419,-90.1646 1125.1508,-88.3597 1140.4435,-87 1311.0684,-71.8294 1357.205,-101.2309 1525.4435,-69 1560.5755,-62.2694 1598.7047,-48.9783 1627.4621,-37.6519"/>
<polygon fill="#0000ff" stroke="#0000ff" points="1628.8547,-40.8645 1636.8375,-33.8984 1626.253,-34.3659 1628.8547,-40.8645"/>
<text text-anchor="middle" x="1659.4435" y="-57.8" font-family="Times,serif" font-size="14.00" fill="#000000">has quantitative value</text>
</g>
<!-- version -->
<g id="node17" class="node">
<title>version</title>
<ellipse fill="none" stroke="#0000ff" cx="1831.4435" cy="-18" rx="38.1938" ry="18"/>
<text text-anchor="middle" x="1831.4435" y="-14.3" font-family="Times,serif" font-size="14.00" fill="#000000">string</text>
</g>
<!-- application configuration&#45;&gt;version -->
<g id="edge15" class="edge">
<title>application configuration&#45;&gt;version</title>
<path fill="none" stroke="#0000ff" d="M1092.4761,-91.9792C1108.4186,-90.0254 1124.9007,-88.2498 1140.4435,-87 1207.2577,-81.6273 1678.9788,-87.3657 1743.4435,-69 1764.7934,-62.9175 1786.3967,-50.5095 1802.8556,-39.4557"/>
<polygon fill="#0000ff" stroke="#0000ff" points="1805.2148,-42.0788 1811.4359,-33.5028 1801.2246,-36.3275 1805.2148,-42.0788"/>
<text text-anchor="middle" x="1802.9435" y="-57.8" font-family="Times,serif" font-size="14.00" fill="#000000">version</text>
</g>
<!-- named thing_category -->
<g id="node10" class="node">
<title>named thing_category</title>
<ellipse fill="none" stroke="#0000ff" cx="1219.4435" cy="-105" rx="69.5877" ry="18"/>
<text text-anchor="middle" x="1219.4435" y="-101.3" font-family="Times,serif" font-size="14.00" fill="#000000">named thing</text>
</g>
</g>
</svg>
