<?xml version="1.0" encoding="UTF-8" standalone="no"?>
<!DOCTYPE svg PUBLIC "-//W3C//DTD SVG 1.1//EN"
 "http://www.w3.org/Graphics/SVG/1.1/DTD/svg11.dtd">
<!-- Generated by graphviz version 2.40.1 (20161225.0304)
 -->
<!-- Title: %3 Pages: 1 -->
<svg width="1373pt" height="131pt"
 viewBox="0.00 0.00 1372.69 131.00" xmlns="http://www.w3.org/2000/svg" xmlns:xlink="http://www.w3.org/1999/xlink">
<g id="graph0" class="graph" transform="scale(1 1) rotate(0) translate(4 127)">
<title>%3</title>
<polygon fill="#ffffff" stroke="transparent" points="-4,4 -4,-127 1368.6932,-127 1368.6932,4 -4,4"/>
<!-- archive -->
<g id="node1" class="node">
<title>archive</title>
<ellipse fill="none" stroke="#000000" cx="717.496" cy="-105" rx="45.4919" ry="18"/>
<text text-anchor="middle" x="717.496" y="-101.3" font-family="Times,serif" font-size="14.00" fill="#000000">archive</text>
</g>
<!-- dataset -->
<g id="node2" class="node">
<title>dataset</title>
<ellipse fill="none" stroke="#000000" cx="45.496" cy="-18" rx="45.4919" ry="18"/>
<text text-anchor="middle" x="45.496" y="-14.3" font-family="Times,serif" font-size="14.00" fill="#000000">dataset</text>
</g>
<!-- archive&#45;&gt;dataset -->
<g id="edge1" class="edge">
<title>archive&#45;&gt;dataset</title>
<path fill="none" stroke="#000000" d="M671.7246,-104.2037C585.3349,-102.1264 392.5488,-94.7528 232.496,-69 182.7837,-61.0012 127.2998,-44.9299 89.7742,-32.9552"/>
<polygon fill="#000000" stroke="#000000" points="90.7529,-29.5934 80.1612,-29.8518 88.6023,-36.2548 90.7529,-29.5934"/>
<text text-anchor="middle" x="246.496" y="-57.8" font-family="Times,serif" font-size="14.00" fill="#000000">is_a</text>
</g>
<!-- id -->
<g id="node3" class="node">
<title>id</title>
<ellipse fill="none" stroke="#0000ff" cx="147.496" cy="-18" rx="38.1938" ry="18"/>
<text text-anchor="middle" x="147.496" y="-14.3" font-family="Times,serif" font-size="14.00" fill="#000000">string</text>
</g>
<!-- archive&#45;&gt;id -->
<g id="edge2" class="edge">
<title>archive&#45;&gt;id</title>
<path fill="none" stroke="#0000ff" d="M672.3803,-102.1891C602.9398,-97.4993 465.8092,-86.7964 350.496,-69 280.4575,-58.1909 262.4628,-56.0682 194.496,-36 191.7463,-35.1881 188.9293,-34.2886 186.1075,-33.3374"/>
<polygon fill="#0000ff" stroke="#0000ff" points="187.1803,-30.0042 176.5856,-29.9556 184.8375,-36.6006 187.1803,-30.0042"/>
<text text-anchor="middle" x="357.496" y="-57.8" font-family="Times,serif" font-size="14.00" fill="#000000">id</text>
</g>
<!-- name -->
<g id="node4" class="node">
<title>name</title>
<ellipse fill="none" stroke="#0000ff" cx="260.496" cy="-18" rx="56.59" ry="18"/>
<text text-anchor="middle" x="260.496" y="-14.3" font-family="Times,serif" font-size="14.00" fill="#000000">label type</text>
</g>
<!-- archive&#45;&gt;name -->
<g id="edge3" class="edge">
<title>archive&#45;&gt;name</title>
<path fill="none" stroke="#0000ff" d="M672.5899,-102.0951C614.387,-97.7444 509.9866,-87.9421 422.496,-69 382.799,-60.4055 338.9179,-46.2938 306.8492,-35.0908"/>
<polygon fill="#0000ff" stroke="#0000ff" points="307.8886,-31.746 297.2938,-31.7167 305.5578,-38.3466 307.8886,-31.746"/>
<text text-anchor="middle" x="442.496" y="-57.8" font-family="Times,serif" font-size="14.00" fill="#000000">name</text>
</g>
<!-- enabled -->
<g id="node5" class="node">
<title>enabled</title>
<ellipse fill="none" stroke="#0000ff" cx="381.496" cy="-18" rx="46.5926" ry="18"/>
<text text-anchor="middle" x="381.496" y="-14.3" font-family="Times,serif" font-size="14.00" fill="#000000">boolean</text>
</g>
<!-- archive&#45;&gt;enabled -->
<g id="edge4" class="edge">
<title>archive&#45;&gt;enabled</title>
<path fill="none" stroke="#0000ff" d="M673.4831,-100.0804C630.9723,-94.6995 565.0435,-84.6888 509.496,-69 479.0116,-60.39 445.8156,-47.0413 420.87,-36.1601"/>
<polygon fill="#0000ff" stroke="#0000ff" points="421.9591,-32.8149 411.3977,-31.9742 419.1297,-39.2176 421.9591,-32.8149"/>
<text text-anchor="middle" x="537.996" y="-57.8" font-family="Times,serif" font-size="14.00" fill="#000000">enabled</text>
</g>
<!-- archived -->
<g id="node6" class="node">
<title>archived</title>
<ellipse fill="none" stroke="#0000ff" cx="493.496" cy="-18" rx="46.5926" ry="18"/>
<text text-anchor="middle" x="493.496" y="-14.3" font-family="Times,serif" font-size="14.00" fill="#000000">boolean</text>
</g>
<!-- archive&#45;&gt;archived -->
<g id="edge5" class="edge">
<title>archive&#45;&gt;archived</title>
<path fill="none" stroke="#0000ff" d="M680.3723,-94.5891C657.8793,-87.9584 628.7483,-78.7947 603.496,-69 578.9888,-59.4944 552.2168,-47.1272 531.2209,-36.9521"/>
<polygon fill="#0000ff" stroke="#0000ff" points="532.5306,-33.6965 522.0094,-32.4494 529.4565,-39.9854 532.5306,-33.6965"/>
<text text-anchor="middle" x="634.996" y="-57.8" font-family="Times,serif" font-size="14.00" fill="#000000">archived</text>
</g>
<!-- description -->
<g id="node7" class="node">
<title>description</title>
<ellipse fill="none" stroke="#0000ff" cx="633.496" cy="-18" rx="75.2868" ry="18"/>
<text text-anchor="middle" x="633.496" y="-14.3" font-family="Times,serif" font-size="14.00" fill="#000000">narrative text</text>
</g>
<!-- archive&#45;&gt;description -->
<g id="edge6" class="edge">
<title>archive&#45;&gt;description</title>
<path fill="none" stroke="#0000ff" d="M700.9003,-87.8116C688.6363,-75.1096 671.7433,-57.6133 657.9373,-43.3142"/>
<polygon fill="#0000ff" stroke="#0000ff" points="660.0978,-40.5129 650.6339,-35.75 655.0619,-45.3751 660.0978,-40.5129"/>
<text text-anchor="middle" x="722.496" y="-57.8" font-family="Times,serif" font-size="14.00" fill="#000000">description</text>
</g>
<!-- note -->
<g id="node8" class="node">
<title>note</title>
<ellipse fill="none" stroke="#0000ff" cx="802.496" cy="-18" rx="75.2868" ry="18"/>
<text text-anchor="middle" x="802.496" y="-14.3" font-family="Times,serif" font-size="14.00" fill="#000000">narrative text</text>
</g>
<!-- archive&#45;&gt;note -->
<g id="edge7" class="edge">
<title>archive&#45;&gt;note</title>
<path fill="none" stroke="#0000ff" d="M742.238,-89.7084C750.7531,-83.8147 760.0182,-76.6484 767.496,-69 774.5527,-61.7821 781.1461,-52.9887 786.665,-44.75"/>
<polygon fill="#0000ff" stroke="#0000ff" points="789.7432,-46.4339 792.2029,-36.1286 783.8535,-42.6507 789.7432,-46.4339"/>
<text text-anchor="middle" x="796.496" y="-57.8" font-family="Times,serif" font-size="14.00" fill="#000000">note</text>
</g>
<!-- category -->
<g id="node9" class="node">
<title>category</title>
<ellipse fill="none" stroke="#000000" cx="947.496" cy="-18" rx="51.9908" ry="18"/>
<text text-anchor="middle" x="947.496" y="-14.3" font-family="Times,serif" font-size="14.00" fill="#000000">category</text>
</g>
<!-- archive&#45;&gt;category -->
<g id="edge8" class="edge">
<title>archive&#45;&gt;category</title>
<path fill="none" stroke="#0000ff" d="M751.4719,-92.8584C770.6101,-85.9658 794.9296,-77.118 816.496,-69 845.6613,-58.0216 878.3228,-45.307 903.737,-35.3193"/>
<polygon fill="#0000ff" stroke="#0000ff" points="905.0766,-38.5535 913.1,-31.6343 902.513,-32.0398 905.0766,-38.5535"/>
<text text-anchor="middle" x="885.496" y="-57.8" font-family="Times,serif" font-size="14.00" fill="#000000">category</text>
</g>
<!-- license -->
<g id="node11" class="node">
<title>license</title>
<ellipse fill="none" stroke="#0000ff" cx="1055.496" cy="-18" rx="38.1938" ry="18"/>
<text text-anchor="middle" x="1055.496" y="-14.3" font-family="Times,serif" font-size="14.00" fill="#000000">string</text>
</g>
<!-- archive&#45;&gt;license -->
<g id="edge9" class="edge">
<title>archive&#45;&gt;license</title>
<path fill="none" stroke="#0000ff" d="M750.9019,-92.6985C757.6501,-90.5452 764.7461,-88.5136 771.496,-87 837.0139,-72.3083 856.2913,-85.0249 921.496,-69 961.6558,-59.1302 969.8528,-50.7286 1008.496,-36 1011.0117,-35.0411 1013.6028,-34.0523 1016.2145,-33.0547"/>
<polygon fill="#0000ff" stroke="#0000ff" points="1017.575,-36.2817 1025.6654,-29.4409 1015.0749,-29.7433 1017.575,-36.2817"/>
<text text-anchor="middle" x="991.996" y="-57.8" font-family="Times,serif" font-size="14.00" fill="#000000">license</text>
</g>
<!-- rights -->
<g id="node12" class="node">
<title>rights</title>
<ellipse fill="none" stroke="#0000ff" cx="1150.496" cy="-18" rx="38.1938" ry="18"/>
<text text-anchor="middle" x="1150.496" y="-14.3" font-family="Times,serif" font-size="14.00" fill="#000000">string</text>
</g>
<!-- archive&#45;&gt;rights -->
<g id="edge10" class="edge">
<title>archive&#45;&gt;rights</title>
<path fill="none" stroke="#0000ff" d="M750.5588,-92.5352C757.3973,-90.3675 764.6151,-88.372 771.496,-87 880.7441,-65.2165 912.8849,-93.7651 1021.496,-69 1054.1835,-61.5467 1089.4683,-47.1177 1114.859,-35.5039"/>
<polygon fill="#0000ff" stroke="#0000ff" points="1116.4913,-38.6048 1124.0798,-31.2111 1113.5369,-32.2588 1116.4913,-38.6048"/>
<text text-anchor="middle" x="1090.996" y="-57.8" font-family="Times,serif" font-size="14.00" fill="#000000">rights</text>
</g>
<!-- format -->
<g id="node13" class="node">
<title>format</title>
<ellipse fill="none" stroke="#0000ff" cx="1245.496" cy="-18" rx="38.1938" ry="18"/>
<text text-anchor="middle" x="1245.496" y="-14.3" font-family="Times,serif" font-size="14.00" fill="#000000">string</text>
</g>
<!-- archive&#45;&gt;format -->
<g id="edge11" class="edge">
<title>archive&#45;&gt;format</title>
<path fill="none" stroke="#0000ff" d="M750.5381,-92.4286C757.3782,-90.2692 764.6019,-88.304 771.496,-87 922.3628,-58.464 966.4665,-101.654 1116.496,-69 1149.2555,-61.8699 1184.534,-47.4125 1209.904,-35.7057"/>
<polygon fill="#0000ff" stroke="#0000ff" points="1211.5556,-38.7968 1219.1162,-31.3746 1208.5773,-32.4619 1211.5556,-38.7968"/>
<text text-anchor="middle" x="1188.996" y="-57.8" font-family="Times,serif" font-size="14.00" fill="#000000">format</text>
</g>
<!-- creation date -->
<g id="node14" class="node">
<title>creation date</title>
<ellipse fill="none" stroke="#0000ff" cx="1333.496" cy="-18" rx="31.3957" ry="18"/>
<text text-anchor="middle" x="1333.496" y="-14.3" font-family="Times,serif" font-size="14.00" fill="#000000">date</text>
</g>
<!-- archive&#45;&gt;creation date -->
<g id="edge12" class="edge">
<title>archive&#45;&gt;creation date</title>
<path fill="none" stroke="#0000ff" d="M750.2374,-92.4561C757.1637,-90.2654 764.4971,-88.2811 771.496,-87 966.6372,-51.2798 1024.2141,-113.7009 1217.496,-69 1247.637,-62.0292 1279.6669,-47.3276 1302.4155,-35.4919"/>
<polygon fill="#0000ff" stroke="#0000ff" points="1304.073,-38.5747 1311.2605,-30.7907 1300.7876,-32.3935 1304.073,-38.5747"/>
<text text-anchor="middle" x="1308.496" y="-57.8" font-family="Times,serif" font-size="14.00" fill="#000000">creation date</text>
</g>
<!-- named thing_category -->
<g id="node10" class="node">
<title>named thing_category</title>
<ellipse fill="none" stroke="#0000ff" cx="850.496" cy="-105" rx="69.5877" ry="18"/>
<text text-anchor="middle" x="850.496" y="-101.3" font-family="Times,serif" font-size="14.00" fill="#000000">named thing</text>
</g>
</g>
</svg>
