<?xml version="1.0" encoding="UTF-8" standalone="no"?>
<!DOCTYPE svg PUBLIC "-//W3C//DTD SVG 1.1//EN"
 "http://www.w3.org/Graphics/SVG/1.1/DTD/svg11.dtd">
<!-- Generated by graphviz version 2.40.1 (20161225.0304)
 -->
<!-- Title: %3 Pages: 1 -->
<svg width="1952pt" height="291pt"
 viewBox="0.00 0.00 1952.34 291.00" xmlns="http://www.w3.org/2000/svg" xmlns:xlink="http://www.w3.org/1999/xlink">
<g id="graph0" class="graph" transform="scale(1 1) rotate(0) translate(4 287)">
<title>%3</title>
<polygon fill="#ffffff" stroke="transparent" points="-4,4 -4,-287 1948.342,-287 1948.342,4 -4,4"/>
<!-- association -->
<g id="node1" class="node">
<title>association</title>
<ellipse fill="none" stroke="#000000" cx="1075.3466" cy="-265" rx="63.0888" ry="18"/>
<text text-anchor="middle" x="1075.3466" y="-261.3" font-family="Times,serif" font-size="14.00" fill="#000000">association</text>
</g>
<!-- entity -->
<g id="node2" class="node">
<title>entity</title>
<ellipse fill="none" stroke="#000000" cx="38.3466" cy="-178" rx="38.1938" ry="18"/>
<text text-anchor="middle" x="38.3466" y="-174.3" font-family="Times,serif" font-size="14.00" fill="#000000">entity</text>
</g>
<!-- association&#45;&gt;entity -->
<g id="edge1" class="edge">
<title>association&#45;&gt;entity</title>
<path fill="none" stroke="#000000" d="M1012.3436,-263.9586C841.8578,-260.883 374.0559,-250.6659 221.3466,-229 160.1924,-220.3236 145.368,-214.2094 86.3466,-196 83.4219,-195.0977 80.4167,-194.1129 77.4055,-193.0842"/>
<polygon fill="#000000" stroke="#000000" points="78.4529,-189.7421 67.8582,-189.6957 76.1116,-196.3389 78.4529,-189.7421"/>
<text text-anchor="middle" x="235.3466" y="-217.8" font-family="Times,serif" font-size="14.00" fill="#000000">is_a</text>
</g>
<!-- id -->
<g id="node3" class="node">
<title>id</title>
<ellipse fill="none" stroke="#0000ff" cx="133.3466" cy="-178" rx="38.1938" ry="18"/>
<text text-anchor="middle" x="133.3466" y="-174.3" font-family="Times,serif" font-size="14.00" fill="#000000">string</text>
</g>
<!-- association&#45;&gt;id -->
<g id="edge2" class="edge">
<title>association&#45;&gt;id</title>
<path fill="none" stroke="#0000ff" d="M1012.4993,-262.9337C861.8496,-257.8053 483.3138,-243.8327 357.3466,-229 277.8734,-219.642 257.3612,-217.7325 180.3466,-196 177.5479,-195.2102 174.6825,-194.3216 171.8151,-193.3731"/>
<polygon fill="#0000ff" stroke="#0000ff" points="172.747,-189.9908 162.1522,-189.9747 170.4245,-196.5943 172.747,-189.9908"/>
<text text-anchor="middle" x="364.3466" y="-217.8" font-family="Times,serif" font-size="14.00" fill="#000000">id</text>
</g>
<!-- name -->
<g id="node4" class="node">
<title>name</title>
<ellipse fill="none" stroke="#0000ff" cx="246.3466" cy="-178" rx="56.59" ry="18"/>
<text text-anchor="middle" x="246.3466" y="-174.3" font-family="Times,serif" font-size="14.00" fill="#000000">label type</text>
</g>
<!-- association&#45;&gt;name -->
<g id="edge3" class="edge">
<title>association&#45;&gt;name</title>
<path fill="none" stroke="#0000ff" d="M1012.5681,-262.846C875.8917,-257.9208 555.0275,-245.0161 447.3466,-229 395.0397,-221.22 336.5837,-205.5775 296.256,-193.6566"/>
<polygon fill="#0000ff" stroke="#0000ff" points="297.2475,-190.3 286.664,-190.7903 295.2432,-197.0069 297.2475,-190.3"/>
<text text-anchor="middle" x="467.3466" y="-217.8" font-family="Times,serif" font-size="14.00" fill="#000000">name</text>
</g>
<!-- enabled -->
<g id="node5" class="node">
<title>enabled</title>
<ellipse fill="none" stroke="#0000ff" cx="367.3466" cy="-178" rx="46.5926" ry="18"/>
<text text-anchor="middle" x="367.3466" y="-174.3" font-family="Times,serif" font-size="14.00" fill="#000000">boolean</text>
</g>
<!-- association&#45;&gt;enabled -->
<g id="edge4" class="edge">
<title>association&#45;&gt;enabled</title>
<path fill="none" stroke="#0000ff" d="M1012.0709,-263.9173C914.6993,-261.4987 722.4901,-253.7376 561.3466,-229 509.6838,-221.0691 451.9161,-204.9077 412.9597,-192.8926"/>
<polygon fill="#0000ff" stroke="#0000ff" points="413.5732,-189.4176 402.9845,-189.7797 411.4879,-196.0998 413.5732,-189.4176"/>
<text text-anchor="middle" x="589.8466" y="-217.8" font-family="Times,serif" font-size="14.00" fill="#000000">enabled</text>
</g>
<!-- archived -->
<g id="node6" class="node">
<title>archived</title>
<ellipse fill="none" stroke="#0000ff" cx="479.3466" cy="-178" rx="46.5926" ry="18"/>
<text text-anchor="middle" x="479.3466" y="-174.3" font-family="Times,serif" font-size="14.00" fill="#000000">boolean</text>
</g>
<!-- association&#45;&gt;archived -->
<g id="edge5" class="edge">
<title>association&#45;&gt;archived</title>
<path fill="none" stroke="#0000ff" d="M1012.8218,-262.1907C911.2068,-256.4779 704.5498,-240.0678 535.3466,-196 531.7241,-195.0565 527.9908,-194.0142 524.2527,-192.9207"/>
<polygon fill="#0000ff" stroke="#0000ff" points="525.0049,-189.4915 514.4196,-189.9391 522.9737,-196.1903 525.0049,-189.4915"/>
<text text-anchor="middle" x="713.8466" y="-217.8" font-family="Times,serif" font-size="14.00" fill="#000000">archived</text>
</g>
<!-- description -->
<g id="node7" class="node">
<title>description</title>
<ellipse fill="none" stroke="#0000ff" cx="619.3466" cy="-178" rx="75.2868" ry="18"/>
<text text-anchor="middle" x="619.3466" y="-174.3" font-family="Times,serif" font-size="14.00" fill="#000000">narrative text</text>
</g>
<!-- association&#45;&gt;description -->
<g id="edge6" class="edge">
<title>association&#45;&gt;description</title>
<path fill="none" stroke="#0000ff" d="M1016.935,-258.0057C966.9282,-251.6474 893.1163,-241.3818 829.3466,-229 778.3719,-219.1026 721.1337,-205.0001 679.3041,-194.1324"/>
<polygon fill="#0000ff" stroke="#0000ff" points="680.1121,-190.7261 669.5521,-191.5848 678.3428,-197.4988 680.1121,-190.7261"/>
<text text-anchor="middle" x="870.3466" y="-217.8" font-family="Times,serif" font-size="14.00" fill="#000000">description</text>
</g>
<!-- note -->
<g id="node8" class="node">
<title>note</title>
<ellipse fill="none" stroke="#0000ff" cx="788.3466" cy="-178" rx="75.2868" ry="18"/>
<text text-anchor="middle" x="788.3466" y="-174.3" font-family="Times,serif" font-size="14.00" fill="#000000">narrative text</text>
</g>
<!-- association&#45;&gt;note -->
<g id="edge7" class="edge">
<title>association&#45;&gt;note</title>
<path fill="none" stroke="#0000ff" d="M1032.0691,-251.881C982.1382,-236.7452 899.8734,-211.8078 844.9125,-195.1472"/>
<polygon fill="#0000ff" stroke="#0000ff" points="845.9063,-191.7912 835.3209,-192.2396 843.8755,-198.4902 845.9063,-191.7912"/>
<text text-anchor="middle" x="965.3466" y="-217.8" font-family="Times,serif" font-size="14.00" fill="#000000">note</text>
</g>
<!-- subject -->
<g id="node9" class="node">
<title>subject</title>
<ellipse fill="none" stroke="#0000ff" cx="951.3466" cy="-178" rx="69.5877" ry="18"/>
<text text-anchor="middle" x="951.3466" y="-174.3" font-family="Times,serif" font-size="14.00" fill="#000000">named thing</text>
</g>
<!-- association&#45;&gt;subject -->
<g id="edge8" class="edge">
<title>association&#45;&gt;subject</title>
<path fill="none" stroke="#0000ff" d="M1051.4382,-248.2255C1032.2632,-234.7721 1005.1518,-215.7505 983.9808,-200.8966"/>
<polygon fill="#0000ff" stroke="#0000ff" points="985.8011,-197.8982 975.6047,-195.0198 981.7806,-203.6285 985.8011,-197.8982"/>
<text text-anchor="middle" x="1047.8466" y="-217.8" font-family="Times,serif" font-size="14.00" fill="#000000">subject</text>
</g>
<!-- predicate -->
<g id="node10" class="node">
<title>predicate</title>
<ellipse fill="none" stroke="#0000ff" cx="1117.3466" cy="-178" rx="78.7863" ry="18"/>
<text text-anchor="middle" x="1117.3466" y="-174.3" font-family="Times,serif" font-size="14.00" fill="#000000">predicate type</text>
</g>
<!-- association&#45;&gt;predicate -->
<g id="edge9" class="edge">
<title>association&#45;&gt;predicate</title>
<path fill="none" stroke="#0000ff" d="M1084.049,-246.9735C1089.8494,-234.9585 1097.5824,-218.9401 1104.1361,-205.3646"/>
<polygon fill="#0000ff" stroke="#0000ff" points="1107.4597,-206.5305 1108.6553,-196.0034 1101.1558,-203.4872 1107.4597,-206.5305"/>
<text text-anchor="middle" x="1133.8466" y="-217.8" font-family="Times,serif" font-size="14.00" fill="#000000">predicate</text>
</g>
<!-- negated -->
<g id="node11" class="node">
<title>negated</title>
<ellipse fill="none" stroke="#0000ff" cx="1260.3466" cy="-178" rx="46.5926" ry="18"/>
<text text-anchor="middle" x="1260.3466" y="-174.3" font-family="Times,serif" font-size="14.00" fill="#000000">boolean</text>
</g>
<!-- association&#45;&gt;negated -->
<g id="edge10" class="edge">
<title>association&#45;&gt;negated</title>
<path fill="none" stroke="#0000ff" d="M1117.0459,-251.2764C1134.4206,-245.1103 1154.6348,-237.3451 1172.3466,-229 1191.0809,-220.1732 1211.1194,-208.73 1227.3351,-198.9203"/>
<polygon fill="#0000ff" stroke="#0000ff" points="1229.217,-201.872 1235.918,-193.6655 1225.5619,-195.9021 1229.217,-201.872"/>
<text text-anchor="middle" x="1229.3466" y="-217.8" font-family="Times,serif" font-size="14.00" fill="#000000">negated</text>
</g>
<!-- object -->
<g id="node12" class="node">
<title>object</title>
<ellipse fill="none" stroke="#0000ff" cx="1251.3466" cy="-91" rx="69.5877" ry="18"/>
<text text-anchor="middle" x="1251.3466" y="-87.3" font-family="Times,serif" font-size="14.00" fill="#000000">named thing</text>
</g>
<!-- association&#45;&gt;object -->
<g id="edge11" class="edge">
<title>association&#45;&gt;object</title>
<path fill="none" stroke="#0000ff" d="M1121.6848,-252.7659C1130.1899,-250.7057 1139.0124,-248.6905 1147.3466,-247 1224.2375,-231.4038 1277.9689,-264.4296 1316.3466,-196 1332.27,-167.6077 1306.4392,-135.9581 1282.7822,-114.9029"/>
<polygon fill="#0000ff" stroke="#0000ff" points="1284.7869,-112.0127 1274.9062,-108.1886 1280.2456,-117.3397 1284.7869,-112.0127"/>
<text text-anchor="middle" x="1343.8466" y="-174.3" font-family="Times,serif" font-size="14.00" fill="#000000">object</text>
</g>
<!-- relation -->
<g id="node13" class="node">
<title>relation</title>
<ellipse fill="none" stroke="#0000ff" cx="1251.3466" cy="-18" rx="57.6901" ry="18"/>
<text text-anchor="middle" x="1251.3466" y="-14.3" font-family="Times,serif" font-size="14.00" fill="#000000">uriorcurie</text>
</g>
<!-- association&#45;&gt;relation -->
<g id="edge12" class="edge">
<title>association&#45;&gt;relation</title>
<path fill="none" stroke="#0000ff" d="M1121.2384,-252.5457C1129.8683,-250.4834 1138.8495,-248.5241 1147.3466,-247 1219.0865,-234.1321 1240.8566,-250.9851 1310.3466,-229 1339.3629,-219.8199 1354.8569,-222.1972 1370.3466,-196 1394.0606,-155.8932 1333.4054,-76.6553 1330.3466,-73 1319.1558,-59.6269 1303.9632,-48.018 1289.8901,-38.957"/>
<polygon fill="#0000ff" stroke="#0000ff" points="1291.6632,-35.9383 1281.3181,-33.6515 1287.9791,-41.8905 1291.6632,-35.9383"/>
<text text-anchor="middle" x="1397.3466" y="-130.8" font-family="Times,serif" font-size="14.00" fill="#000000">relation</text>
</g>
<!-- qualifiers -->
<g id="node14" class="node">
<title>qualifiers</title>
<ellipse fill="none" stroke="#0000ff" cx="1521.3466" cy="-178" rx="77.1866" ry="18"/>
<text text-anchor="middle" x="1521.3466" y="-174.3" font-family="Times,serif" font-size="14.00" fill="#000000">ontology class</text>
</g>
<!-- association&#45;&gt;qualifiers -->
<g id="edge13" class="edge">
<title>association&#45;&gt;qualifiers</title>
<path fill="none" stroke="#0000ff" d="M1120.412,-252.4045C1129.2818,-250.3032 1138.5617,-248.3659 1147.3466,-247 1271.8822,-227.6367 1309.4758,-264.6973 1430.3466,-229 1451.0102,-222.8973 1472.1211,-211.4525 1488.8009,-200.9487"/>
<polygon fill="#0000ff" stroke="#0000ff" points="1491.0982,-203.6302 1497.5806,-195.2499 1487.287,-197.7586 1491.0982,-203.6302"/>
<text text-anchor="middle" x="1499.3466" y="-217.8" font-family="Times,serif" font-size="14.00" fill="#000000">qualifiers</text>
</g>
<!-- publications -->
<g id="node15" class="node">
<title>publications</title>
<ellipse fill="none" stroke="#0000ff" cx="1679.3466" cy="-178" rx="63.0888" ry="18"/>
<text text-anchor="middle" x="1679.3466" y="-174.3" font-family="Times,serif" font-size="14.00" fill="#000000">publication</text>
</g>
<!-- association&#45;&gt;publications -->
<g id="edge14" class="edge">
<title>association&#45;&gt;publications</title>
<path fill="none" stroke="#0000ff" d="M1120.3935,-252.2821C1129.265,-250.1914 1138.5502,-248.2894 1147.3466,-247 1319.0297,-221.8336 1367.1329,-262.701 1537.3466,-229 1571.5952,-222.219 1608.6732,-208.6744 1636.3506,-197.2471"/>
<polygon fill="#0000ff" stroke="#0000ff" points="1637.8641,-200.4077 1645.7283,-193.308 1635.1532,-193.9539 1637.8641,-200.4077"/>
<text text-anchor="middle" x="1633.3466" y="-217.8" font-family="Times,serif" font-size="14.00" fill="#000000">publications</text>
</g>
<!-- type -->
<g id="node16" class="node">
<title>type</title>
<ellipse fill="none" stroke="#000000" cx="1791.3466" cy="-178" rx="31.3957" ry="18"/>
<text text-anchor="middle" x="1791.3466" y="-174.3" font-family="Times,serif" font-size="14.00" fill="#000000">type</text>
</g>
<!-- association&#45;&gt;type -->
<g id="edge15" class="edge">
<title>association&#45;&gt;type</title>
<path fill="none" stroke="#0000ff" d="M1119.9955,-252.2853C1128.9842,-250.1661 1138.4147,-248.2527 1147.3466,-247 1264.9299,-230.5094 1565.8461,-256.5211 1681.3466,-229 1709.5292,-222.2847 1739.2031,-208.0488 1760.6188,-196.3199"/>
<polygon fill="#0000ff" stroke="#0000ff" points="1762.542,-199.2543 1769.5521,-191.3101 1759.118,-193.1488 1762.542,-199.2543"/>
<text text-anchor="middle" x="1738.3466" y="-217.8" font-family="Times,serif" font-size="14.00" fill="#000000">type</text>
</g>
<!-- category -->
<g id="node18" class="node">
<title>category</title>
<ellipse fill="none" stroke="#000000" cx="1892.3466" cy="-178" rx="51.9908" ry="18"/>
<text text-anchor="middle" x="1892.3466" y="-174.3" font-family="Times,serif" font-size="14.00" fill="#000000">category</text>
</g>
<!-- association&#45;&gt;category -->
<g id="edge16" class="edge">
<title>association&#45;&gt;category</title>
<path fill="none" stroke="#0000ff" d="M1119.9913,-252.2553C1128.9803,-250.1385 1138.4121,-248.2337 1147.3466,-247 1281.9065,-228.4196 1625.1256,-255.5285 1758.3466,-229 1791.3951,-222.419 1826.9625,-208.5366 1853.1431,-196.9152"/>
<polygon fill="#0000ff" stroke="#0000ff" points="1854.6735,-200.0644 1862.3419,-192.7537 1851.7882,-193.6867 1854.6735,-200.0644"/>
<text text-anchor="middle" x="1840.3466" y="-217.8" font-family="Times,serif" font-size="14.00" fill="#000000">category</text>
</g>
<!-- subject&#45;&gt;object -->
<g id="edge17" class="edge">
<title>subject&#45;&gt;object</title>
<path fill="none" stroke="#000000" d="M997.8924,-164.5017C1050.9904,-149.1033 1137.8096,-123.9257 1194.7686,-107.4076"/>
<polygon fill="#000000" stroke="#000000" points="1196.0621,-110.6768 1204.6916,-104.53 1194.1124,-103.9538 1196.0621,-110.6768"/>
<text text-anchor="middle" x="1147.3466" y="-130.8" font-family="Times,serif" font-size="14.00" fill="#000000">relation</text>
</g>
<!-- subject&#45;&gt;relation -->
<g id="edge18" class="edge">
<title>subject&#45;&gt;relation</title>
<path fill="none" stroke="#000000" stroke-dasharray="1,5" d="M981.7631,-161.7778C1036.7669,-132.4425 1152.647,-70.6398 1212.9896,-38.4571"/>
<polygon fill="#000000" stroke="#000000" points="1215.0031,-41.3499 1222.1795,-33.5558 1211.7089,-35.1735 1215.0031,-41.3499"/>
</g>
<!-- object&#45;&gt;relation -->
<g id="edge19" class="edge">
<title>object&#45;&gt;relation</title>
<path fill="none" stroke="#000000" stroke-dasharray="1,5" d="M1251.3466,-72.9551C1251.3466,-64.8828 1251.3466,-55.1764 1251.3466,-46.1817"/>
<polygon fill="#000000" stroke="#000000" points="1254.8467,-46.0903 1251.3466,-36.0904 1247.8467,-46.0904 1254.8467,-46.0903"/>
</g>
<!-- association_type -->
<g id="node17" class="node">
<title>association_type</title>
<ellipse fill="none" stroke="#0000ff" cx="1194.3466" cy="-265" rx="38.1938" ry="18"/>
<text text-anchor="middle" x="1194.3466" y="-261.3" font-family="Times,serif" font-size="14.00" fill="#000000">string</text>
</g>
<!-- association_category -->
<g id="node19" class="node">
<title>association_category</title>
<ellipse fill="none" stroke="#0000ff" cx="1313.3466" cy="-265" rx="63.0888" ry="18"/>
<text text-anchor="middle" x="1313.3466" y="-261.3" font-family="Times,serif" font-size="14.00" fill="#000000">association</text>
</g>
</g>
</svg>
