<?xml version="1.0" encoding="UTF-8" standalone="no"?>
<!DOCTYPE svg PUBLIC "-//W3C//DTD SVG 1.1//EN"
 "http://www.w3.org/Graphics/SVG/1.1/DTD/svg11.dtd">
<!-- Generated by graphviz version 2.40.1 (20161225.0304)
 -->
<!-- Title: %3 Pages: 1 -->
<svg width="1897pt" height="291pt"
 viewBox="0.00 0.00 1897.04 291.00" xmlns="http://www.w3.org/2000/svg" xmlns:xlink="http://www.w3.org/1999/xlink">
<g id="graph0" class="graph" transform="scale(1 1) rotate(0) translate(4 287)">
<title>%3</title>
<polygon fill="#ffffff" stroke="transparent" points="-4,4 -4,-287 1893.0444,-287 1893.0444,4 -4,4"/>
<!-- build to vcs root association -->
<g id="node1" class="node">
<title>build to vcs root association</title>
<ellipse fill="none" stroke="#000000" cx="1014.0444" cy="-265" rx="141.8751" ry="18"/>
<text text-anchor="middle" x="1014.0444" y="-261.3" font-family="Times,serif" font-size="14.00" fill="#000000">build to vcs root association</text>
</g>
<!-- association -->
<g id="node2" class="node">
<title>association</title>
<ellipse fill="none" stroke="#000000" cx="63.0444" cy="-178" rx="63.0888" ry="18"/>
<text text-anchor="middle" x="63.0444" y="-174.3" font-family="Times,serif" font-size="14.00" fill="#000000">association</text>
</g>
<!-- build to vcs root association&#45;&gt;association -->
<g id="edge1" class="edge">
<title>build to vcs root association&#45;&gt;association</title>
<path fill="none" stroke="#000000" d="M875.0661,-261.492C692.528,-256.3283 381.9631,-245.4744 269.0444,-229 216.1659,-221.2852 157.0802,-205.9414 115.7949,-194.0897"/>
<polygon fill="#000000" stroke="#000000" points="116.5384,-190.6612 105.9591,-191.2356 114.5875,-197.3839 116.5384,-190.6612"/>
<text text-anchor="middle" x="283.0444" y="-217.8" font-family="Times,serif" font-size="14.00" fill="#000000">is_a</text>
</g>
<!-- id -->
<g id="node3" class="node">
<title>id</title>
<ellipse fill="none" stroke="#0000ff" cx="182.0444" cy="-178" rx="38.1938" ry="18"/>
<text text-anchor="middle" x="182.0444" y="-174.3" font-family="Times,serif" font-size="14.00" fill="#000000">string</text>
</g>
<!-- build to vcs root association&#45;&gt;id -->
<g id="edge2" class="edge">
<title>build to vcs root association&#45;&gt;id</title>
<path fill="none" stroke="#0000ff" d="M873.8702,-262.235C748.4883,-258.4759 559.9098,-249.6502 397.0444,-229 321.5553,-219.4285 302.1776,-217.0181 229.0444,-196 226.2495,-195.1968 223.387,-194.2982 220.5216,-193.3426"/>
<polygon fill="#0000ff" stroke="#0000ff" points="221.4576,-189.9613 210.8628,-189.9297 219.1255,-196.5614 221.4576,-189.9613"/>
<text text-anchor="middle" x="404.0444" y="-217.8" font-family="Times,serif" font-size="14.00" fill="#000000">id</text>
</g>
<!-- name -->
<g id="node4" class="node">
<title>name</title>
<ellipse fill="none" stroke="#0000ff" cx="295.0444" cy="-178" rx="56.59" ry="18"/>
<text text-anchor="middle" x="295.0444" y="-174.3" font-family="Times,serif" font-size="14.00" fill="#000000">label type</text>
</g>
<!-- build to vcs root association&#45;&gt;name -->
<g id="edge3" class="edge">
<title>build to vcs root association&#45;&gt;name</title>
<path fill="none" stroke="#0000ff" d="M880.5312,-258.9656C748.5003,-252.4566 555.8277,-241.3518 482.0444,-229 434.2118,-220.9925 380.9686,-205.8372 343.5669,-194.1199"/>
<polygon fill="#0000ff" stroke="#0000ff" points="344.5248,-190.752 333.9347,-191.0686 342.4108,-197.4252 344.5248,-190.752"/>
<text text-anchor="middle" x="502.0444" y="-217.8" font-family="Times,serif" font-size="14.00" fill="#000000">name</text>
</g>
<!-- enabled -->
<g id="node5" class="node">
<title>enabled</title>
<ellipse fill="none" stroke="#0000ff" cx="416.0444" cy="-178" rx="46.5926" ry="18"/>
<text text-anchor="middle" x="416.0444" y="-174.3" font-family="Times,serif" font-size="14.00" fill="#000000">boolean</text>
</g>
<!-- build to vcs root association&#45;&gt;enabled -->
<g id="edge4" class="edge">
<title>build to vcs root association&#45;&gt;enabled</title>
<path fill="none" stroke="#0000ff" d="M877.4237,-260.16C793.4177,-255.5289 683.874,-246.5107 588.0444,-229 543.566,-220.8726 494.2226,-205.5628 459.8346,-193.83"/>
<polygon fill="#0000ff" stroke="#0000ff" points="460.702,-190.4268 450.1073,-190.4704 458.4168,-197.0432 460.702,-190.4268"/>
<text text-anchor="middle" x="616.5444" y="-217.8" font-family="Times,serif" font-size="14.00" fill="#000000">enabled</text>
</g>
<!-- archived -->
<g id="node6" class="node">
<title>archived</title>
<ellipse fill="none" stroke="#0000ff" cx="528.0444" cy="-178" rx="46.5926" ry="18"/>
<text text-anchor="middle" x="528.0444" y="-174.3" font-family="Times,serif" font-size="14.00" fill="#000000">boolean</text>
</g>
<!-- build to vcs root association&#45;&gt;archived -->
<g id="edge5" class="edge">
<title>build to vcs root association&#45;&gt;archived</title>
<path fill="none" stroke="#0000ff" d="M897.726,-254.6894C841.6468,-248.8026 773.573,-240.311 713.0444,-229 654.8718,-218.1293 640.9075,-212.3956 584.0444,-196 580.4997,-194.9779 576.8403,-193.8859 573.1691,-192.764"/>
<polygon fill="#0000ff" stroke="#0000ff" points="574.0829,-189.3828 563.4945,-189.7519 572.0021,-196.0664 574.0829,-189.3828"/>
<text text-anchor="middle" x="744.5444" y="-217.8" font-family="Times,serif" font-size="14.00" fill="#000000">archived</text>
</g>
<!-- description -->
<g id="node7" class="node">
<title>description</title>
<ellipse fill="none" stroke="#0000ff" cx="668.0444" cy="-178" rx="75.2868" ry="18"/>
<text text-anchor="middle" x="668.0444" y="-174.3" font-family="Times,serif" font-size="14.00" fill="#000000">narrative text</text>
</g>
<!-- build to vcs root association&#45;&gt;description -->
<g id="edge6" class="edge">
<title>build to vcs root association&#45;&gt;description</title>
<path fill="none" stroke="#0000ff" d="M928.8596,-250.537C897.3247,-244.6292 861.3861,-237.2403 829.0444,-229 792.3823,-219.6589 751.7751,-206.7774 720.5143,-196.2977"/>
<polygon fill="#0000ff" stroke="#0000ff" points="721.3041,-192.8703 710.7099,-192.9871 719.0646,-199.5024 721.3041,-192.8703"/>
<text text-anchor="middle" x="870.0444" y="-217.8" font-family="Times,serif" font-size="14.00" fill="#000000">description</text>
</g>
<!-- note -->
<g id="node8" class="node">
<title>note</title>
<ellipse fill="none" stroke="#0000ff" cx="837.0444" cy="-178" rx="75.2868" ry="18"/>
<text text-anchor="middle" x="837.0444" y="-174.3" font-family="Times,serif" font-size="14.00" fill="#000000">narrative text</text>
</g>
<!-- build to vcs root association&#45;&gt;note -->
<g id="edge7" class="edge">
<title>build to vcs root association&#45;&gt;note</title>
<path fill="none" stroke="#0000ff" d="M978.2258,-247.3943C949.5721,-233.3102 909.3343,-213.5323 879.1427,-198.6924"/>
<polygon fill="#0000ff" stroke="#0000ff" points="880.6378,-195.5274 870.1194,-194.2572 877.55,-201.8095 880.6378,-195.5274"/>
<text text-anchor="middle" x="953.0444" y="-217.8" font-family="Times,serif" font-size="14.00" fill="#000000">note</text>
</g>
<!-- negated -->
<g id="node9" class="node">
<title>negated</title>
<ellipse fill="none" stroke="#0000ff" cx="977.0444" cy="-178" rx="46.5926" ry="18"/>
<text text-anchor="middle" x="977.0444" y="-174.3" font-family="Times,serif" font-size="14.00" fill="#000000">boolean</text>
</g>
<!-- build to vcs root association&#45;&gt;negated -->
<g id="edge8" class="edge">
<title>build to vcs root association&#45;&gt;negated</title>
<path fill="none" stroke="#0000ff" d="M992.5024,-247.0618C987.5534,-241.7839 982.9083,-235.6292 980.0444,-229 976.9974,-221.9469 975.6689,-213.8275 975.2449,-206.171"/>
<polygon fill="#0000ff" stroke="#0000ff" points="978.7448,-206.1276 975.1508,-196.1609 971.7451,-206.1934 978.7448,-206.1276"/>
<text text-anchor="middle" x="1009.0444" y="-217.8" font-family="Times,serif" font-size="14.00" fill="#000000">negated</text>
</g>
<!-- relation -->
<g id="node10" class="node">
<title>relation</title>
<ellipse fill="none" stroke="#0000ff" cx="1725.0444" cy="-18" rx="57.6901" ry="18"/>
<text text-anchor="middle" x="1725.0444" y="-14.3" font-family="Times,serif" font-size="14.00" fill="#000000">uriorcurie</text>
</g>
<!-- build to vcs root association&#45;&gt;relation -->
<g id="edge9" class="edge">
<title>build to vcs root association&#45;&gt;relation</title>
<path fill="none" stroke="#0000ff" d="M1026.7675,-247.0026C1030.5679,-241.3462 1034.6283,-235.0073 1038.0444,-229 1054.8481,-199.4502 1044.3837,-181.0894 1071.0444,-160 1162.5357,-87.6274 1512.8884,-41.4229 1659.7095,-24.8635"/>
<polygon fill="#0000ff" stroke="#0000ff" points="1660.373,-28.3112 1669.9225,-23.7225 1659.5957,-21.3545 1660.373,-28.3112"/>
<text text-anchor="middle" x="1160.0444" y="-130.8" font-family="Times,serif" font-size="14.00" fill="#000000">relation</text>
</g>
<!-- qualifiers -->
<g id="node11" class="node">
<title>qualifiers</title>
<ellipse fill="none" stroke="#0000ff" cx="1157.0444" cy="-178" rx="77.1866" ry="18"/>
<text text-anchor="middle" x="1157.0444" y="-174.3" font-family="Times,serif" font-size="14.00" fill="#000000">ontology class</text>
</g>
<!-- build to vcs root association&#45;&gt;qualifiers -->
<g id="edge10" class="edge">
<title>build to vcs root association&#45;&gt;qualifiers</title>
<path fill="none" stroke="#0000ff" d="M1043.3277,-247.1843C1065.644,-233.6073 1096.5087,-214.8294 1120.4524,-200.2623"/>
<polygon fill="#0000ff" stroke="#0000ff" points="1122.5339,-203.0928 1129.2579,-194.9051 1118.8956,-197.1126 1122.5339,-203.0928"/>
<text text-anchor="middle" x="1129.0444" y="-217.8" font-family="Times,serif" font-size="14.00" fill="#000000">qualifiers</text>
</g>
<!-- publications -->
<g id="node12" class="node">
<title>publications</title>
<ellipse fill="none" stroke="#0000ff" cx="1315.0444" cy="-178" rx="63.0888" ry="18"/>
<text text-anchor="middle" x="1315.0444" y="-174.3" font-family="Times,serif" font-size="14.00" fill="#000000">publication</text>
</g>
<!-- build to vcs root association&#45;&gt;publications -->
<g id="edge11" class="edge">
<title>build to vcs root association&#45;&gt;publications</title>
<path fill="none" stroke="#0000ff" d="M1086.815,-249.4545C1112.3314,-243.5879 1141.0925,-236.5039 1167.0444,-229 1200.9386,-219.1996 1238.5177,-206.2233 1267.3274,-195.8126"/>
<polygon fill="#0000ff" stroke="#0000ff" points="1268.5416,-199.0954 1276.7435,-192.3887 1266.1495,-192.5168 1268.5416,-199.0954"/>
<text text-anchor="middle" x="1257.0444" y="-217.8" font-family="Times,serif" font-size="14.00" fill="#000000">publications</text>
</g>
<!-- type -->
<g id="node13" class="node">
<title>type</title>
<ellipse fill="none" stroke="#000000" cx="1427.0444" cy="-178" rx="31.3957" ry="18"/>
<text text-anchor="middle" x="1427.0444" y="-174.3" font-family="Times,serif" font-size="14.00" fill="#000000">type</text>
</g>
<!-- build to vcs root association&#45;&gt;type -->
<g id="edge12" class="edge">
<title>build to vcs root association&#45;&gt;type</title>
<path fill="none" stroke="#0000ff" d="M1116.7838,-252.6022C1198.6512,-242.6744 1300.3621,-230.2098 1305.0444,-229 1336.4398,-220.8882 1370.3312,-206.2016 1394.4062,-194.6652"/>
<polygon fill="#0000ff" stroke="#0000ff" points="1395.9896,-197.7871 1403.4459,-190.2603 1392.9232,-191.4944 1395.9896,-197.7871"/>
<text text-anchor="middle" x="1366.0444" y="-217.8" font-family="Times,serif" font-size="14.00" fill="#000000">type</text>
</g>
<!-- category -->
<g id="node15" class="node">
<title>category</title>
<ellipse fill="none" stroke="#000000" cx="1528.0444" cy="-178" rx="51.9908" ry="18"/>
<text text-anchor="middle" x="1528.0444" y="-174.3" font-family="Times,serif" font-size="14.00" fill="#000000">category</text>
</g>
<!-- build to vcs root association&#45;&gt;category -->
<g id="edge13" class="edge">
<title>build to vcs root association&#45;&gt;category</title>
<path fill="none" stroke="#0000ff" d="M1115.5174,-252.3763C1132.0591,-250.4703 1149.0203,-248.6071 1165.0444,-247 1263.1,-237.1659 1289.7248,-249.8359 1386.0444,-229 1420.8557,-221.4696 1458.7462,-207.5515 1486.6249,-196.1553"/>
<polygon fill="#0000ff" stroke="#0000ff" points="1488.153,-199.3107 1496.047,-192.2442 1485.4692,-192.8456 1488.153,-199.3107"/>
<text text-anchor="middle" x="1470.0444" y="-217.8" font-family="Times,serif" font-size="14.00" fill="#000000">category</text>
</g>
<!-- predicate -->
<g id="node17" class="node">
<title>predicate</title>
<ellipse fill="none" stroke="#000000" cx="1653.0444" cy="-178" rx="55.4913" ry="18"/>
<text text-anchor="middle" x="1653.0444" y="-174.3" font-family="Times,serif" font-size="14.00" fill="#000000">predicate</text>
</g>
<!-- build to vcs root association&#45;&gt;predicate -->
<g id="edge14" class="edge">
<title>build to vcs root association&#45;&gt;predicate</title>
<path fill="none" stroke="#0000ff" d="M1113.8543,-252.1611C1130.9128,-250.2365 1148.4729,-248.4235 1165.0444,-247 1316.2541,-234.0109 1357.1056,-258.1602 1506.0444,-229 1542.2469,-221.912 1581.6563,-207.8733 1610.5493,-196.3166"/>
<polygon fill="#0000ff" stroke="#0000ff" points="1611.9785,-199.5138 1619.9247,-192.5061 1609.3428,-193.0289 1611.9785,-199.5138"/>
<text text-anchor="middle" x="1594.5444" y="-217.8" font-family="Times,serif" font-size="14.00" fill="#000000">predicate</text>
</g>
<!-- subject -->
<g id="node19" class="node">
<title>subject</title>
<ellipse fill="none" stroke="#000000" cx="1771.0444" cy="-178" rx="44.6926" ry="18"/>
<text text-anchor="middle" x="1771.0444" y="-174.3" font-family="Times,serif" font-size="14.00" fill="#000000">subject</text>
</g>
<!-- build to vcs root association&#45;&gt;subject -->
<g id="edge15" class="edge">
<title>build to vcs root association&#45;&gt;subject</title>
<path fill="none" stroke="#0000ff" d="M1113.0256,-252.0497C1130.3402,-250.1136 1148.1999,-248.3258 1165.0444,-247 1268.8004,-238.8338 1530.9647,-249.2912 1633.0444,-229 1667.8916,-222.0732 1705.6126,-207.6167 1732.7962,-195.8582"/>
<polygon fill="#0000ff" stroke="#0000ff" points="1734.2078,-199.061 1741.9499,-191.8284 1731.3873,-192.6544 1734.2078,-199.061"/>
<text text-anchor="middle" x="1709.5444" y="-217.8" font-family="Times,serif" font-size="14.00" fill="#000000">subject</text>
</g>
<!-- object -->
<g id="node21" class="node">
<title>object</title>
<ellipse fill="none" stroke="#000000" cx="1793.0444" cy="-91" rx="39.7935" ry="18"/>
<text text-anchor="middle" x="1793.0444" y="-87.3" font-family="Times,serif" font-size="14.00" fill="#000000">object</text>
</g>
<!-- build to vcs root association&#45;&gt;object -->
<g id="edge16" class="edge">
<title>build to vcs root association&#45;&gt;object</title>
<path fill="none" stroke="#0000ff" d="M1112.6121,-251.9933C1130.0541,-250.0508 1148.0637,-248.2754 1165.0444,-247 1292.5257,-237.4248 1614.7729,-254.4993 1740.0444,-229 1779.755,-220.9168 1798.3729,-226.5107 1825.0444,-196 1845.5828,-172.5053 1851.5626,-155.1263 1838.0444,-127 1835.2571,-121.2007 1831.0302,-116.0431 1826.263,-111.5709"/>
<polygon fill="#0000ff" stroke="#0000ff" points="1828.3925,-108.7902 1818.456,-105.1136 1823.931,-114.1842 1828.3925,-108.7902"/>
<text text-anchor="middle" x="1866.5444" y="-174.3" font-family="Times,serif" font-size="14.00" fill="#000000">object</text>
</g>
<!-- association_type -->
<g id="node14" class="node">
<title>association_type</title>
<ellipse fill="none" stroke="#0000ff" cx="1212.0444" cy="-265" rx="38.1938" ry="18"/>
<text text-anchor="middle" x="1212.0444" y="-261.3" font-family="Times,serif" font-size="14.00" fill="#000000">string</text>
</g>
<!-- association_category -->
<g id="node16" class="node">
<title>association_category</title>
<ellipse fill="none" stroke="#0000ff" cx="1331.0444" cy="-265" rx="63.0888" ry="18"/>
<text text-anchor="middle" x="1331.0444" y="-261.3" font-family="Times,serif" font-size="14.00" fill="#000000">association</text>
</g>
<!-- build to vcs root association_predicate -->
<g id="node18" class="node">
<title>build to vcs root association_predicate</title>
<ellipse fill="none" stroke="#0000ff" cx="1491.0444" cy="-265" rx="78.7863" ry="18"/>
<text text-anchor="middle" x="1491.0444" y="-261.3" font-family="Times,serif" font-size="14.00" fill="#000000">predicate type</text>
</g>
<!-- subject&#45;&gt;relation -->
<g id="edge18" class="edge">
<title>subject&#45;&gt;relation</title>
<path fill="none" stroke="#000000" stroke-dasharray="1,5" d="M1763.098,-160.1293C1757.213,-146.3661 1749.3308,-126.7533 1744.0444,-109 1737.8454,-88.1821 1732.913,-64.1019 1729.6287,-45.9434"/>
<polygon fill="#000000" stroke="#000000" points="1733.061,-45.252 1727.8884,-36.0057 1726.1659,-46.4595 1733.061,-45.252"/>
</g>
<!-- subject&#45;&gt;object -->
<g id="edge17" class="edge">
<title>subject&#45;&gt;object</title>
<path fill="none" stroke="#000000" d="M1774.5468,-159.975C1776.5477,-150.1752 1779.2168,-137.8699 1782.0444,-127 1782.7452,-124.306 1783.5173,-121.512 1784.3176,-118.7256"/>
<polygon fill="#000000" stroke="#000000" points="1787.7556,-119.4442 1787.2625,-108.8608 1781.0481,-117.4417 1787.7556,-119.4442"/>
<text text-anchor="middle" x="1810.0444" y="-130.8" font-family="Times,serif" font-size="14.00" fill="#000000">relation</text>
</g>
<!-- build to vcs root association_subject -->
<g id="node20" class="node">
<title>build to vcs root association_subject</title>
<ellipse fill="none" stroke="#0000ff" cx="1622.0444" cy="-265" rx="34.394" ry="18"/>
<text text-anchor="middle" x="1622.0444" y="-261.3" font-family="Times,serif" font-size="14.00" fill="#000000">build</text>
</g>
<!-- object&#45;&gt;relation -->
<g id="edge19" class="edge">
<title>object&#45;&gt;relation</title>
<path fill="none" stroke="#000000" stroke-dasharray="1,5" d="M1777.2729,-74.0688C1768.6439,-64.8053 1757.7907,-53.1542 1748.2166,-42.8761"/>
<polygon fill="#000000" stroke="#000000" points="1750.5797,-40.2779 1741.2026,-35.3463 1745.4576,-45.0491 1750.5797,-40.2779"/>
</g>
<!-- build to vcs root association_object -->
<g id="node22" class="node">
<title>build to vcs root association_object</title>
<ellipse fill="none" stroke="#0000ff" cx="1723.0444" cy="-265" rx="48.1917" ry="18"/>
<text text-anchor="middle" x="1723.0444" y="-261.3" font-family="Times,serif" font-size="14.00" fill="#000000">vcs root</text>
</g>
</g>
</svg>
