<?xml version="1.0" encoding="UTF-8" standalone="no"?>
<!DOCTYPE svg PUBLIC "-//W3C//DTD SVG 1.1//EN"
 "http://www.w3.org/Graphics/SVG/1.1/DTD/svg11.dtd">
<!-- Generated by graphviz version 2.40.1 (20161225.0304)
 -->
<!-- Title: %3 Pages: 1 -->
<svg width="1892pt" height="131pt"
 viewBox="0.00 0.00 1892.50 131.00" xmlns="http://www.w3.org/2000/svg" xmlns:xlink="http://www.w3.org/1999/xlink">
<g id="graph0" class="graph" transform="scale(1 1) rotate(0) translate(4 127)">
<title>%3</title>
<polygon fill="#ffffff" stroke="transparent" points="-4,4 -4,-127 1888.496,-127 1888.496,4 -4,4"/>
<!-- build -->
<g id="node1" class="node">
<title>build</title>
<ellipse fill="none" stroke="#000000" cx="1055.496" cy="-105" rx="34.394" ry="18"/>
<text text-anchor="middle" x="1055.496" y="-101.3" font-family="Times,serif" font-size="14.00" fill="#000000">build</text>
</g>
<!-- dataset -->
<g id="node2" class="node">
<title>dataset</title>
<ellipse fill="none" stroke="#000000" cx="45.496" cy="-18" rx="45.4919" ry="18"/>
<text text-anchor="middle" x="45.496" y="-14.3" font-family="Times,serif" font-size="14.00" fill="#000000">dataset</text>
</g>
<!-- build&#45;&gt;dataset -->
<g id="edge1" class="edge">
<title>build&#45;&gt;dataset</title>
<path fill="none" stroke="#000000" d="M1020.9045,-104.4249C885.0035,-102.0207 387.5264,-91.819 231.496,-69 181.7702,-61.7277 126.418,-45.4527 89.1288,-33.2308"/>
<polygon fill="#000000" stroke="#000000" points="90.1752,-29.8904 79.5818,-30.0607 87.9693,-36.5337 90.1752,-29.8904"/>
<text text-anchor="middle" x="245.496" y="-57.8" font-family="Times,serif" font-size="14.00" fill="#000000">is_a</text>
</g>
<!-- id -->
<g id="node3" class="node">
<title>id</title>
<ellipse fill="none" stroke="#0000ff" cx="147.496" cy="-18" rx="38.1938" ry="18"/>
<text text-anchor="middle" x="147.496" y="-14.3" font-family="Times,serif" font-size="14.00" fill="#000000">string</text>
</g>
<!-- build&#45;&gt;id -->
<g id="edge2" class="edge">
<title>build&#45;&gt;id</title>
<path fill="none" stroke="#0000ff" d="M1020.7581,-103.8498C899.0187,-99.7165 492.0752,-85.0099 362.496,-69 286.9767,-59.6693 267.6291,-57.0181 194.496,-36 191.7011,-35.1968 188.8386,-34.2982 185.9732,-33.3426"/>
<polygon fill="#0000ff" stroke="#0000ff" points="186.9092,-29.9613 176.3144,-29.9297 184.577,-36.5614 186.9092,-29.9613"/>
<text text-anchor="middle" x="369.496" y="-57.8" font-family="Times,serif" font-size="14.00" fill="#000000">id</text>
</g>
<!-- name -->
<g id="node4" class="node">
<title>name</title>
<ellipse fill="none" stroke="#0000ff" cx="260.496" cy="-18" rx="56.59" ry="18"/>
<text text-anchor="middle" x="260.496" y="-14.3" font-family="Times,serif" font-size="14.00" fill="#000000">label type</text>
</g>
<!-- build&#45;&gt;name -->
<g id="edge3" class="edge">
<title>build&#45;&gt;name</title>
<path fill="none" stroke="#0000ff" d="M1020.8457,-103.8703C909.2489,-100.0863 559.9978,-87.0718 448.496,-69 400.3841,-61.2022 346.8592,-46.0204 309.2645,-34.2401"/>
<polygon fill="#0000ff" stroke="#0000ff" points="310.1729,-30.8565 299.5827,-31.1711 308.0577,-37.5293 310.1729,-30.8565"/>
<text text-anchor="middle" x="468.496" y="-57.8" font-family="Times,serif" font-size="14.00" fill="#000000">name</text>
</g>
<!-- enabled -->
<g id="node5" class="node">
<title>enabled</title>
<ellipse fill="none" stroke="#0000ff" cx="381.496" cy="-18" rx="46.5926" ry="18"/>
<text text-anchor="middle" x="381.496" y="-14.3" font-family="Times,serif" font-size="14.00" fill="#000000">boolean</text>
</g>
<!-- build&#45;&gt;enabled -->
<g id="edge4" class="edge">
<title>build&#45;&gt;enabled</title>
<path fill="none" stroke="#0000ff" d="M1021.1683,-103.4439C923.373,-98.866 644.5803,-84.7718 554.496,-69 509.5801,-61.1362 459.7842,-45.7161 425.1944,-33.881"/>
<polygon fill="#0000ff" stroke="#0000ff" points="426.0097,-30.4594 415.4149,-30.4917 423.7174,-37.0734 426.0097,-30.4594"/>
<text text-anchor="middle" x="582.996" y="-57.8" font-family="Times,serif" font-size="14.00" fill="#000000">enabled</text>
</g>
<!-- archived -->
<g id="node6" class="node">
<title>archived</title>
<ellipse fill="none" stroke="#0000ff" cx="493.496" cy="-18" rx="46.5926" ry="18"/>
<text text-anchor="middle" x="493.496" y="-14.3" font-family="Times,serif" font-size="14.00" fill="#000000">boolean</text>
</g>
<!-- build&#45;&gt;archived -->
<g id="edge5" class="edge">
<title>build&#45;&gt;archived</title>
<path fill="none" stroke="#0000ff" d="M1021.1055,-103.2775C955.4775,-99.6322 807.9952,-89.7151 685.496,-69 624.1682,-58.6292 609.3653,-52.8612 549.496,-36 545.945,-34.9999 542.281,-33.9237 538.6068,-32.8126"/>
<polygon fill="#0000ff" stroke="#0000ff" points="539.5147,-29.4299 528.927,-29.8189 537.4464,-36.1174 539.5147,-29.4299"/>
<text text-anchor="middle" x="716.996" y="-57.8" font-family="Times,serif" font-size="14.00" fill="#000000">archived</text>
</g>
<!-- description -->
<g id="node7" class="node">
<title>description</title>
<ellipse fill="none" stroke="#0000ff" cx="633.496" cy="-18" rx="75.2868" ry="18"/>
<text text-anchor="middle" x="633.496" y="-14.3" font-family="Times,serif" font-size="14.00" fill="#000000">narrative text</text>
</g>
<!-- build&#45;&gt;description -->
<g id="edge6" class="edge">
<title>build&#45;&gt;description</title>
<path fill="none" stroke="#0000ff" d="M1021.694,-101.4482C974.3596,-96.1496 885.7871,-85.0493 811.496,-69 769.4196,-59.9101 722.6581,-46.3752 687.6259,-35.5328"/>
<polygon fill="#0000ff" stroke="#0000ff" points="688.6583,-32.1885 678.0697,-32.552 686.5738,-38.871 688.6583,-32.1885"/>
<text text-anchor="middle" x="852.496" y="-57.8" font-family="Times,serif" font-size="14.00" fill="#000000">description</text>
</g>
<!-- note -->
<g id="node8" class="node">
<title>note</title>
<ellipse fill="none" stroke="#0000ff" cx="802.496" cy="-18" rx="75.2868" ry="18"/>
<text text-anchor="middle" x="802.496" y="-14.3" font-family="Times,serif" font-size="14.00" fill="#000000">narrative text</text>
</g>
<!-- build&#45;&gt;note -->
<g id="edge7" class="edge">
<title>build&#45;&gt;note</title>
<path fill="none" stroke="#0000ff" d="M1025.0321,-96.1744C1001.3244,-89.1743 967.6626,-78.9458 938.496,-69 909.3962,-59.077 877.1662,-47.0377 851.3882,-37.1488"/>
<polygon fill="#0000ff" stroke="#0000ff" points="852.4342,-33.801 841.8444,-33.4729 849.9182,-40.3333 852.4342,-33.801"/>
<text text-anchor="middle" x="954.496" y="-57.8" font-family="Times,serif" font-size="14.00" fill="#000000">note</text>
</g>
<!-- category -->
<g id="node9" class="node">
<title>category</title>
<ellipse fill="none" stroke="#000000" cx="947.496" cy="-18" rx="51.9908" ry="18"/>
<text text-anchor="middle" x="947.496" y="-14.3" font-family="Times,serif" font-size="14.00" fill="#000000">category</text>
</g>
<!-- build&#45;&gt;category -->
<g id="edge8" class="edge">
<title>build&#45;&gt;category</title>
<path fill="none" stroke="#0000ff" d="M1028.3942,-93.8643C1015.2426,-87.6911 999.6917,-79.1953 987.496,-69 978.949,-61.855 971.0306,-52.609 964.5327,-43.9557"/>
<polygon fill="#0000ff" stroke="#0000ff" points="967.2109,-41.6845 958.5377,-35.5996 961.5232,-45.7651 967.2109,-41.6845"/>
<text text-anchor="middle" x="1019.496" y="-57.8" font-family="Times,serif" font-size="14.00" fill="#000000">category</text>
</g>
<!-- license -->
<g id="node11" class="node">
<title>license</title>
<ellipse fill="none" stroke="#0000ff" cx="1055.496" cy="-18" rx="38.1938" ry="18"/>
<text text-anchor="middle" x="1055.496" y="-14.3" font-family="Times,serif" font-size="14.00" fill="#000000">string</text>
</g>
<!-- build&#45;&gt;license -->
<g id="edge9" class="edge">
<title>build&#45;&gt;license</title>
<path fill="none" stroke="#0000ff" d="M1055.496,-86.9735C1055.496,-75.1918 1055.496,-59.5607 1055.496,-46.1581"/>
<polygon fill="#0000ff" stroke="#0000ff" points="1058.9961,-46.0033 1055.496,-36.0034 1051.9961,-46.0034 1058.9961,-46.0033"/>
<text text-anchor="middle" x="1080.996" y="-57.8" font-family="Times,serif" font-size="14.00" fill="#000000">license</text>
</g>
<!-- rights -->
<g id="node12" class="node">
<title>rights</title>
<ellipse fill="none" stroke="#0000ff" cx="1150.496" cy="-18" rx="38.1938" ry="18"/>
<text text-anchor="middle" x="1150.496" y="-14.3" font-family="Times,serif" font-size="14.00" fill="#000000">string</text>
</g>
<!-- build&#45;&gt;rights -->
<g id="edge10" class="edge">
<title>build&#45;&gt;rights</title>
<path fill="none" stroke="#0000ff" d="M1079.1873,-91.847C1089.3754,-85.6143 1101.0798,-77.6433 1110.496,-69 1118.7028,-61.4668 1126.5442,-52.1329 1133.0755,-43.5177"/>
<polygon fill="#0000ff" stroke="#0000ff" points="1136.0551,-45.3726 1139.1351,-35.2353 1130.4057,-41.2393 1136.0551,-45.3726"/>
<text text-anchor="middle" x="1145.996" y="-57.8" font-family="Times,serif" font-size="14.00" fill="#000000">rights</text>
</g>
<!-- format -->
<g id="node13" class="node">
<title>format</title>
<ellipse fill="none" stroke="#0000ff" cx="1245.496" cy="-18" rx="38.1938" ry="18"/>
<text text-anchor="middle" x="1245.496" y="-14.3" font-family="Times,serif" font-size="14.00" fill="#000000">string</text>
</g>
<!-- build&#45;&gt;format -->
<g id="edge11" class="edge">
<title>build&#45;&gt;format</title>
<path fill="none" stroke="#0000ff" d="M1082.0903,-93.116C1087.4644,-90.9283 1093.1169,-88.7772 1098.496,-87 1130.2253,-76.517 1141.0194,-82.7049 1171.496,-69 1188.0719,-61.546 1204.8842,-50.3163 1218.2858,-40.2903"/>
<polygon fill="#0000ff" stroke="#0000ff" points="1220.7682,-42.7967 1226.5633,-33.9273 1216.502,-37.2469 1220.7682,-42.7967"/>
<text text-anchor="middle" x="1221.996" y="-57.8" font-family="Times,serif" font-size="14.00" fill="#000000">format</text>
</g>
<!-- creation date -->
<g id="node14" class="node">
<title>creation date</title>
<ellipse fill="none" stroke="#0000ff" cx="1333.496" cy="-18" rx="31.3957" ry="18"/>
<text text-anchor="middle" x="1333.496" y="-14.3" font-family="Times,serif" font-size="14.00" fill="#000000">date</text>
</g>
<!-- build&#45;&gt;creation date -->
<g id="edge12" class="edge">
<title>build&#45;&gt;creation date</title>
<path fill="none" stroke="#0000ff" d="M1081.4715,-92.7674C1086.9938,-90.5542 1092.8606,-88.482 1098.496,-87 1164.2866,-69.6984 1186.2372,-91.3286 1250.496,-69 1270.5279,-62.0393 1290.8489,-49.662 1306.3699,-38.8441"/>
<polygon fill="#0000ff" stroke="#0000ff" points="1308.8341,-41.3835 1314.9153,-32.7077 1304.7511,-35.6977 1308.8341,-41.3835"/>
<text text-anchor="middle" x="1330.496" y="-57.8" font-family="Times,serif" font-size="14.00" fill="#000000">creation date</text>
</g>
<!-- created -->
<g id="node15" class="node">
<title>created</title>
<ellipse fill="none" stroke="#0000ff" cx="1413.496" cy="-18" rx="31.3957" ry="18"/>
<text text-anchor="middle" x="1413.496" y="-14.3" font-family="Times,serif" font-size="14.00" fill="#000000">date</text>
</g>
<!-- build&#45;&gt;created -->
<g id="edge13" class="edge">
<title>build&#45;&gt;created</title>
<path fill="none" stroke="#0000ff" d="M1080.9523,-92.7116C1086.6117,-90.4442 1092.6647,-88.3645 1098.496,-87 1160.0703,-72.5913 1328.3857,-101.7275 1382.496,-69 1391.5767,-63.5077 1398.3534,-54.2467 1403.2162,-45.1117"/>
<polygon fill="#0000ff" stroke="#0000ff" points="1406.5072,-46.3386 1407.6072,-35.801 1400.176,-43.3527 1406.5072,-46.3386"/>
<text text-anchor="middle" x="1424.996" y="-57.8" font-family="Times,serif" font-size="14.00" fill="#000000">created</text>
</g>
<!-- updated -->
<g id="node16" class="node">
<title>updated</title>
<ellipse fill="none" stroke="#0000ff" cx="1493.496" cy="-18" rx="31.3957" ry="18"/>
<text text-anchor="middle" x="1493.496" y="-14.3" font-family="Times,serif" font-size="14.00" fill="#000000">date</text>
</g>
<!-- build&#45;&gt;updated -->
<g id="edge14" class="edge">
<title>build&#45;&gt;updated</title>
<path fill="none" stroke="#0000ff" d="M1080.939,-92.6538C1086.5992,-90.3901 1092.6559,-88.3264 1098.496,-87 1176.1736,-69.3572 1386.4656,-106.9584 1456.496,-69 1466.6261,-63.5092 1474.6841,-53.9023 1480.6602,-44.4963"/>
<polygon fill="#0000ff" stroke="#0000ff" points="1483.7811,-46.0907 1485.7515,-35.6806 1477.7194,-42.5898 1483.7811,-46.0907"/>
<text text-anchor="middle" x="1502.996" y="-57.8" font-family="Times,serif" font-size="14.00" fill="#000000">updated</text>
</g>
<!-- vcs location -->
<g id="node17" class="node">
<title>vcs location</title>
<ellipse fill="none" stroke="#0000ff" cx="1581.496" cy="-18" rx="38.1938" ry="18"/>
<text text-anchor="middle" x="1581.496" y="-14.3" font-family="Times,serif" font-size="14.00" fill="#000000">string</text>
</g>
<!-- build&#45;&gt;vcs location -->
<g id="edge15" class="edge">
<title>build&#45;&gt;vcs location</title>
<path fill="none" stroke="#0000ff" d="M1080.9299,-92.6132C1086.5906,-90.352 1092.6499,-88.2997 1098.496,-87 1146.0429,-76.4296 1492.5202,-89.9422 1536.496,-69 1548.0398,-63.5026 1557.8689,-53.5315 1565.3687,-43.8547"/>
<polygon fill="#0000ff" stroke="#0000ff" points="1568.3467,-45.7084 1571.3443,-35.5464 1562.6638,-41.6211 1568.3467,-45.7084"/>
<text text-anchor="middle" x="1599.496" y="-57.8" font-family="Times,serif" font-size="14.00" fill="#000000">vcs location</text>
</g>
<!-- vcs revision -->
<g id="node18" class="node">
<title>vcs revision</title>
<ellipse fill="none" stroke="#0000ff" cx="1683.496" cy="-18" rx="38.1938" ry="18"/>
<text text-anchor="middle" x="1683.496" y="-14.3" font-family="Times,serif" font-size="14.00" fill="#000000">string</text>
</g>
<!-- build&#45;&gt;vcs revision -->
<g id="edge16" class="edge">
<title>build&#45;&gt;vcs revision</title>
<path fill="none" stroke="#0000ff" d="M1080.9219,-92.5767C1086.5831,-90.3177 1092.6446,-88.2756 1098.496,-87 1158.0198,-74.024 1592.6855,-97.5638 1646.496,-69 1656.6735,-63.5975 1664.7399,-54.0063 1670.7094,-44.5881"/>
<polygon fill="#0000ff" stroke="#0000ff" points="1673.8388,-46.1672 1675.7907,-35.7537 1667.7709,-42.6771 1673.8388,-46.1672"/>
<text text-anchor="middle" x="1706.496" y="-57.8" font-family="Times,serif" font-size="14.00" fill="#000000">vcs revision</text>
</g>
<!-- internal version -->
<g id="node19" class="node">
<title>internal version</title>
<ellipse fill="none" stroke="#0000ff" cx="1792.496" cy="-18" rx="38.1938" ry="18"/>
<text text-anchor="middle" x="1792.496" y="-14.3" font-family="Times,serif" font-size="14.00" fill="#000000">string</text>
</g>
<!-- build&#45;&gt;internal version -->
<g id="edge17" class="edge">
<title>build&#45;&gt;internal version</title>
<path fill="none" stroke="#0000ff" d="M1080.9167,-92.5529C1086.5783,-90.2954 1092.6412,-88.2599 1098.496,-87 1169.6719,-71.6837 1688.6748,-102.1484 1753.496,-69 1764.0572,-63.5991 1772.5775,-53.8751 1778.9284,-44.3556"/>
<polygon fill="#0000ff" stroke="#0000ff" points="1781.9274,-46.1602 1784.1474,-35.8006 1775.9516,-42.5147 1781.9274,-46.1602"/>
<text text-anchor="middle" x="1827.496" y="-57.8" font-family="Times,serif" font-size="14.00" fill="#000000">internal version</text>
</g>
<!-- named thing_category -->
<g id="node10" class="node">
<title>named thing_category</title>
<ellipse fill="none" stroke="#0000ff" cx="1177.496" cy="-105" rx="69.5877" ry="18"/>
<text text-anchor="middle" x="1177.496" y="-101.3" font-family="Times,serif" font-size="14.00" fill="#000000">named thing</text>
</g>
</g>
</svg>
