<?xml version="1.0" encoding="UTF-8" standalone="no"?>
<!DOCTYPE svg PUBLIC "-//W3C//DTD SVG 1.1//EN"
 "http://www.w3.org/Graphics/SVG/1.1/DTD/svg11.dtd">
<!-- Generated by graphviz version 2.40.1 (20161225.0304)
 -->
<!-- Title: %3 Pages: 1 -->
<svg width="1878pt" height="131pt"
 viewBox="0.00 0.00 1877.79 131.00" xmlns="http://www.w3.org/2000/svg" xmlns:xlink="http://www.w3.org/1999/xlink">
<g id="graph0" class="graph" transform="scale(1 1) rotate(0) translate(4 127)">
<title>%3</title>
<polygon fill="#ffffff" stroke="transparent" points="-4,4 -4,-127 1873.7901,-127 1873.7901,4 -4,4"/>
<!-- build configuration -->
<g id="node1" class="node">
<title>build configuration</title>
<ellipse fill="none" stroke="#000000" cx="1003.4435" cy="-105" rx="99.3824" ry="18"/>
<text text-anchor="middle" x="1003.4435" y="-101.3" font-family="Times,serif" font-size="14.00" fill="#000000">build configuration</text>
</g>
<!-- configuration -->
<g id="node2" class="node">
<title>configuration</title>
<ellipse fill="none" stroke="#000000" cx="73.4435" cy="-18" rx="73.387" ry="18"/>
<text text-anchor="middle" x="73.4435" y="-14.3" font-family="Times,serif" font-size="14.00" fill="#000000">configuration</text>
</g>
<!-- build configuration&#45;&gt;configuration -->
<g id="edge1" class="edge">
<title>build configuration&#45;&gt;configuration</title>
<path fill="none" stroke="#000000" d="M904.8581,-102.2431C737.6343,-97.1951 405.2597,-85.4535 289.4435,-69 234.9409,-61.2571 173.9967,-46.2719 130.7765,-34.5399"/>
<polygon fill="#000000" stroke="#000000" points="131.5802,-31.1311 121.0106,-31.8625 129.7293,-37.882 131.5802,-31.1311"/>
<text text-anchor="middle" x="303.4435" y="-57.8" font-family="Times,serif" font-size="14.00" fill="#000000">is_a</text>
</g>
<!-- id -->
<g id="node3" class="node">
<title>id</title>
<ellipse fill="none" stroke="#0000ff" cx="203.4435" cy="-18" rx="38.1938" ry="18"/>
<text text-anchor="middle" x="203.4435" y="-14.3" font-family="Times,serif" font-size="14.00" fill="#000000">string</text>
</g>
<!-- build configuration&#45;&gt;id -->
<g id="edge2" class="edge">
<title>build configuration&#45;&gt;id</title>
<path fill="none" stroke="#0000ff" d="M904.3898,-102.9992C787.3828,-99.6956 587.0602,-91.0881 416.4435,-69 341.8445,-59.3424 322.7148,-56.8596 250.4435,-36 247.6495,-35.1936 244.7877,-34.2926 241.9228,-33.3353"/>
<polygon fill="#0000ff" stroke="#0000ff" points="242.8597,-29.9543 232.265,-29.9191 240.5253,-36.5536 242.8597,-29.9543"/>
<text text-anchor="middle" x="423.4435" y="-57.8" font-family="Times,serif" font-size="14.00" fill="#000000">id</text>
</g>
<!-- name -->
<g id="node4" class="node">
<title>name</title>
<ellipse fill="none" stroke="#0000ff" cx="316.4435" cy="-18" rx="56.59" ry="18"/>
<text text-anchor="middle" x="316.4435" y="-14.3" font-family="Times,serif" font-size="14.00" fill="#000000">label type</text>
</g>
<!-- build configuration&#45;&gt;name -->
<g id="edge3" class="edge">
<title>build configuration&#45;&gt;name</title>
<path fill="none" stroke="#0000ff" d="M907.1769,-100.3953C783.5628,-94.0853 575.9872,-82.039 500.4435,-69 453.8641,-60.9603 402.0876,-46.0539 365.3551,-34.4247"/>
<polygon fill="#0000ff" stroke="#0000ff" points="366.0015,-30.9566 355.4105,-31.24 363.8666,-37.6232 366.0015,-30.9566"/>
<text text-anchor="middle" x="520.4435" y="-57.8" font-family="Times,serif" font-size="14.00" fill="#000000">name</text>
</g>
<!-- enabled -->
<g id="node5" class="node">
<title>enabled</title>
<ellipse fill="none" stroke="#0000ff" cx="437.4435" cy="-18" rx="46.5926" ry="18"/>
<text text-anchor="middle" x="437.4435" y="-14.3" font-family="Times,serif" font-size="14.00" fill="#000000">boolean</text>
</g>
<!-- build configuration&#45;&gt;enabled -->
<g id="edge4" class="edge">
<title>build configuration&#45;&gt;enabled</title>
<path fill="none" stroke="#0000ff" d="M905.5306,-101.599C824.2915,-97.4818 706.0508,-88.4862 604.4435,-69 561.494,-60.7632 513.9192,-45.6145 480.5705,-33.9594"/>
<polygon fill="#0000ff" stroke="#0000ff" points="481.7235,-30.6548 471.1287,-30.6201 479.3893,-37.2542 481.7235,-30.6548"/>
<text text-anchor="middle" x="632.9435" y="-57.8" font-family="Times,serif" font-size="14.00" fill="#000000">enabled</text>
</g>
<!-- archived -->
<g id="node6" class="node">
<title>archived</title>
<ellipse fill="none" stroke="#0000ff" cx="549.4435" cy="-18" rx="46.5926" ry="18"/>
<text text-anchor="middle" x="549.4435" y="-14.3" font-family="Times,serif" font-size="14.00" fill="#000000">boolean</text>
</g>
<!-- build configuration&#45;&gt;archived -->
<g id="edge5" class="edge">
<title>build configuration&#45;&gt;archived</title>
<path fill="none" stroke="#0000ff" d="M914.9722,-96.7296C860.0925,-90.8132 788.3021,-81.6487 725.4435,-69 671.2172,-58.0883 658.4521,-51.8001 605.4435,-36 602.0625,-34.9922 598.5742,-33.9287 595.0692,-32.8427"/>
<polygon fill="#0000ff" stroke="#0000ff" points="595.8112,-29.4073 585.2219,-29.7507 593.7141,-36.0858 595.8112,-29.4073"/>
<text text-anchor="middle" x="756.9435" y="-57.8" font-family="Times,serif" font-size="14.00" fill="#000000">archived</text>
</g>
<!-- description -->
<g id="node7" class="node">
<title>description</title>
<ellipse fill="none" stroke="#0000ff" cx="689.4435" cy="-18" rx="75.2868" ry="18"/>
<text text-anchor="middle" x="689.4435" y="-14.3" font-family="Times,serif" font-size="14.00" fill="#000000">narrative text</text>
</g>
<!-- build configuration&#45;&gt;description -->
<g id="edge6" class="edge">
<title>build configuration&#45;&gt;description</title>
<path fill="none" stroke="#0000ff" d="M933.9173,-91.9822C903.7516,-85.8281 868.1447,-77.8806 836.4435,-69 803.5188,-59.7767 767.2156,-47.2062 738.9239,-36.8532"/>
<polygon fill="#0000ff" stroke="#0000ff" points="739.8629,-33.4692 729.2695,-33.2929 737.4408,-40.0368 739.8629,-33.4692"/>
<text text-anchor="middle" x="877.4435" y="-57.8" font-family="Times,serif" font-size="14.00" fill="#000000">description</text>
</g>
<!-- note -->
<g id="node8" class="node">
<title>note</title>
<ellipse fill="none" stroke="#0000ff" cx="858.4435" cy="-18" rx="75.2868" ry="18"/>
<text text-anchor="middle" x="858.4435" y="-14.3" font-family="Times,serif" font-size="14.00" fill="#000000">narrative text</text>
</g>
<!-- build configuration&#45;&gt;note -->
<g id="edge7" class="edge">
<title>build configuration&#45;&gt;note</title>
<path fill="none" stroke="#0000ff" d="M974.4491,-87.6033C951.6311,-73.9125 919.6893,-54.7475 895.0988,-39.9932"/>
<polygon fill="#0000ff" stroke="#0000ff" points="896.778,-36.9191 886.4023,-34.7753 893.1765,-42.9215 896.778,-36.9191"/>
<text text-anchor="middle" x="956.4435" y="-57.8" font-family="Times,serif" font-size="14.00" fill="#000000">note</text>
</g>
<!-- category -->
<g id="node9" class="node">
<title>category</title>
<ellipse fill="none" stroke="#000000" cx="1003.4435" cy="-18" rx="51.9908" ry="18"/>
<text text-anchor="middle" x="1003.4435" y="-14.3" font-family="Times,serif" font-size="14.00" fill="#000000">category</text>
</g>
<!-- build configuration&#45;&gt;category -->
<g id="edge8" class="edge">
<title>build configuration&#45;&gt;category</title>
<path fill="none" stroke="#0000ff" d="M1003.4435,-86.9735C1003.4435,-75.1918 1003.4435,-59.5607 1003.4435,-46.1581"/>
<polygon fill="#0000ff" stroke="#0000ff" points="1006.9436,-46.0033 1003.4435,-36.0034 999.9436,-46.0034 1006.9436,-46.0033"/>
<text text-anchor="middle" x="1035.4435" y="-57.8" font-family="Times,serif" font-size="14.00" fill="#000000">category</text>
</g>
<!-- license -->
<g id="node11" class="node">
<title>license</title>
<ellipse fill="none" stroke="#0000ff" cx="1111.4435" cy="-18" rx="38.1938" ry="18"/>
<text text-anchor="middle" x="1111.4435" y="-14.3" font-family="Times,serif" font-size="14.00" fill="#000000">string</text>
</g>
<!-- build configuration&#45;&gt;license -->
<g id="edge9" class="edge">
<title>build configuration&#45;&gt;license</title>
<path fill="none" stroke="#0000ff" d="M1041.9173,-88.206C1052.0637,-82.8484 1062.6298,-76.3681 1071.4435,-69 1079.9904,-61.855 1087.9089,-52.609 1094.4068,-43.9557"/>
<polygon fill="#0000ff" stroke="#0000ff" points="1097.4162,-45.7651 1100.4018,-35.5996 1091.7286,-41.6845 1097.4162,-45.7651"/>
<text text-anchor="middle" x="1110.9435" y="-57.8" font-family="Times,serif" font-size="14.00" fill="#000000">license</text>
</g>
<!-- rights -->
<g id="node12" class="node">
<title>rights</title>
<ellipse fill="none" stroke="#0000ff" cx="1206.4435" cy="-18" rx="38.1938" ry="18"/>
<text text-anchor="middle" x="1206.4435" y="-14.3" font-family="Times,serif" font-size="14.00" fill="#000000">string</text>
</g>
<!-- build configuration&#45;&gt;rights -->
<g id="edge10" class="edge">
<title>build configuration&#45;&gt;rights</title>
<path fill="none" stroke="#0000ff" d="M1074.0303,-92.174C1095.9781,-86.6943 1119.8137,-79.1549 1140.4435,-69 1155.3274,-61.6734 1170.1074,-50.6908 1181.8958,-40.7916"/>
<polygon fill="#0000ff" stroke="#0000ff" points="1184.2747,-43.3615 1189.5435,-34.1696 1179.6925,-38.0695 1184.2747,-43.3615"/>
<text text-anchor="middle" x="1185.9435" y="-57.8" font-family="Times,serif" font-size="14.00" fill="#000000">rights</text>
</g>
<!-- format -->
<g id="node13" class="node">
<title>format</title>
<ellipse fill="none" stroke="#0000ff" cx="1301.4435" cy="-18" rx="38.1938" ry="18"/>
<text text-anchor="middle" x="1301.4435" y="-14.3" font-family="Times,serif" font-size="14.00" fill="#000000">string</text>
</g>
<!-- build configuration&#45;&gt;format -->
<g id="edge11" class="edge">
<title>build configuration&#45;&gt;format</title>
<path fill="none" stroke="#0000ff" d="M1076.3359,-92.6817C1134.9727,-82.7262 1208.1545,-70.1763 1211.4435,-69 1232.4176,-61.4988 1254.1943,-49.2946 1271.0725,-38.7054"/>
<polygon fill="#0000ff" stroke="#0000ff" points="1273.3872,-41.3785 1279.9091,-33.0288 1269.6038,-35.489 1273.3872,-41.3785"/>
<text text-anchor="middle" x="1267.9435" y="-57.8" font-family="Times,serif" font-size="14.00" fill="#000000">format</text>
</g>
<!-- creation date -->
<g id="node14" class="node">
<title>creation date</title>
<ellipse fill="none" stroke="#0000ff" cx="1389.4435" cy="-18" rx="31.3957" ry="18"/>
<text text-anchor="middle" x="1389.4435" y="-14.3" font-family="Times,serif" font-size="14.00" fill="#000000">date</text>
</g>
<!-- build configuration&#45;&gt;creation date -->
<g id="edge12" class="edge">
<title>build configuration&#45;&gt;creation date</title>
<path fill="none" stroke="#0000ff" d="M1074.7961,-92.4026C1087.0009,-90.45 1099.5708,-88.5651 1111.4435,-87 1193.3454,-76.2032 1217.5055,-93.3577 1296.4435,-69 1319.3686,-61.926 1343.0477,-48.8425 1360.7751,-37.6986"/>
<polygon fill="#0000ff" stroke="#0000ff" points="1362.9623,-40.4528 1369.4674,-32.0901 1359.1671,-34.5709 1362.9623,-40.4528"/>
<text text-anchor="middle" x="1379.4435" y="-57.8" font-family="Times,serif" font-size="14.00" fill="#000000">creation date</text>
</g>
<!-- has part -->
<g id="node15" class="node">
<title>has part</title>
<ellipse fill="none" stroke="#0000ff" cx="1508.4435" cy="-18" rx="69.5877" ry="18"/>
<text text-anchor="middle" x="1508.4435" y="-14.3" font-family="Times,serif" font-size="14.00" fill="#000000">named thing</text>
</g>
<!-- build configuration&#45;&gt;has part -->
<g id="edge13" class="edge">
<title>build configuration&#45;&gt;has part</title>
<path fill="none" stroke="#0000ff" d="M1073.5842,-92.1709C1086.1568,-90.1967 1099.1635,-88.3646 1111.4435,-87 1182.2313,-79.1338 1363.8489,-91.4448 1431.4435,-69 1449.2122,-63.0999 1466.7909,-51.9719 1480.6563,-41.6126"/>
<polygon fill="#0000ff" stroke="#0000ff" points="1483.0199,-44.2088 1488.7782,-35.3154 1478.7307,-38.6768 1483.0199,-44.2088"/>
<text text-anchor="middle" x="1491.4435" y="-57.8" font-family="Times,serif" font-size="14.00" fill="#000000">has part</text>
</g>
<!-- has quantitative value -->
<g id="node16" class="node">
<title>has quantitative value</title>
<ellipse fill="none" stroke="#0000ff" cx="1673.4435" cy="-18" rx="77.1866" ry="18"/>
<text text-anchor="middle" x="1673.4435" y="-14.3" font-family="Times,serif" font-size="14.00" fill="#000000">quantity value</text>
</g>
<!-- build configuration&#45;&gt;has quantitative value -->
<g id="edge14" class="edge">
<title>build configuration&#45;&gt;has quantitative value</title>
<path fill="none" stroke="#0000ff" d="M1072.99,-92.1308C1085.7437,-90.1352 1098.966,-88.3061 1111.4435,-87 1294.6165,-67.8255 1344.5028,-103.3579 1525.4435,-69 1560.5865,-62.3269 1598.7153,-49.0341 1627.4699,-37.6925"/>
<polygon fill="#0000ff" stroke="#0000ff" points="1628.8653,-40.904 1636.8442,-33.9335 1626.2599,-34.4068 1628.8653,-40.904"/>
<text text-anchor="middle" x="1660.4435" y="-57.8" font-family="Times,serif" font-size="14.00" fill="#000000">has quantitative value</text>
</g>
<!-- version -->
<g id="node17" class="node">
<title>version</title>
<ellipse fill="none" stroke="#0000ff" cx="1831.4435" cy="-18" rx="38.1938" ry="18"/>
<text text-anchor="middle" x="1831.4435" y="-14.3" font-family="Times,serif" font-size="14.00" fill="#000000">string</text>
</g>
<!-- build configuration&#45;&gt;version -->
<g id="edge15" class="edge">
<title>build configuration&#45;&gt;version</title>
<path fill="none" stroke="#0000ff" d="M1072.6846,-92.0209C1085.5292,-90.0231 1098.8619,-88.2216 1111.4435,-87 1181.4759,-80.2004 1676.8088,-88.399 1744.4435,-69 1765.6013,-62.9315 1786.96,-50.5238 1803.2197,-39.4666"/>
<polygon fill="#0000ff" stroke="#0000ff" points="1805.5249,-42.1245 1811.6947,-33.5115 1801.5003,-36.3971 1805.5249,-42.1245"/>
<text text-anchor="middle" x="1802.9435" y="-57.8" font-family="Times,serif" font-size="14.00" fill="#000000">version</text>
</g>
<!-- named thing_category -->
<g id="node10" class="node">
<title>named thing_category</title>
<ellipse fill="none" stroke="#0000ff" cx="1190.4435" cy="-105" rx="69.5877" ry="18"/>
<text text-anchor="middle" x="1190.4435" y="-101.3" font-family="Times,serif" font-size="14.00" fill="#000000">named thing</text>
</g>
</g>
</svg>
