<?xml version="1.0" encoding="UTF-8" standalone="no"?>
<!DOCTYPE svg PUBLIC "-//W3C//DTD SVG 1.1//EN"
 "http://www.w3.org/Graphics/SVG/1.1/DTD/svg11.dtd">
<!-- Generated by graphviz version 2.40.1 (20161225.0304)
 -->
<!-- Title: %3 Pages: 1 -->
<svg width="1056pt" height="131pt"
 viewBox="0.00 0.00 1055.54 131.00" xmlns="http://www.w3.org/2000/svg" xmlns:xlink="http://www.w3.org/1999/xlink">
<g id="graph0" class="graph" transform="scale(1 1) rotate(0) translate(4 127)">
<title>%3</title>
<polygon fill="#ffffff" stroke="transparent" points="-4,4 -4,-127 1051.5392,-127 1051.5392,4 -4,4"/>
<!-- computational entity -->
<g id="node1" class="node">
<title>computational entity</title>
<ellipse fill="none" stroke="#000000" cx="485.5438" cy="-105" rx="107.781" ry="18"/>
<text text-anchor="middle" x="485.5438" y="-101.3" font-family="Times,serif" font-size="14.00" fill="#000000">computational entity</text>
</g>
<!-- named thing -->
<g id="node2" class="node">
<title>named thing</title>
<ellipse fill="none" stroke="#000000" cx="69.5438" cy="-18" rx="69.5877" ry="18"/>
<text text-anchor="middle" x="69.5438" y="-14.3" font-family="Times,serif" font-size="14.00" fill="#000000">named thing</text>
</g>
<!-- computational entity&#45;&gt;named thing -->
<g id="edge1" class="edge">
<title>computational entity&#45;&gt;named thing</title>
<path fill="none" stroke="#000000" d="M404.5916,-93.0648C364.1734,-86.6951 314.6173,-78.2648 270.5438,-69 221.8251,-58.7588 167.0918,-44.7009 127.0563,-33.9377"/>
<polygon fill="#000000" stroke="#000000" points="127.7739,-30.5061 117.2071,-31.2766 125.948,-37.2638 127.7739,-30.5061"/>
<text text-anchor="middle" x="284.5438" y="-57.8" font-family="Times,serif" font-size="14.00" fill="#000000">is_a</text>
</g>
<!-- id -->
<g id="node3" class="node">
<title>id</title>
<ellipse fill="none" stroke="#0000ff" cx="195.5438" cy="-18" rx="38.1938" ry="18"/>
<text text-anchor="middle" x="195.5438" y="-14.3" font-family="Times,serif" font-size="14.00" fill="#000000">string</text>
</g>
<!-- computational entity&#45;&gt;id -->
<g id="edge2" class="edge">
<title>computational entity&#45;&gt;id</title>
<path fill="none" stroke="#0000ff" d="M426.6683,-89.8578C377.177,-76.7541 304.7542,-56.6993 242.5438,-36 239.9517,-35.1375 237.2916,-34.2172 234.6189,-33.2661"/>
<polygon fill="#0000ff" stroke="#0000ff" points="235.5776,-29.8898 224.9838,-29.735 233.1688,-36.4623 235.5776,-29.8898"/>
<text text-anchor="middle" x="356.5438" y="-57.8" font-family="Times,serif" font-size="14.00" fill="#000000">id</text>
</g>
<!-- name -->
<g id="node4" class="node">
<title>name</title>
<ellipse fill="none" stroke="#0000ff" cx="308.5438" cy="-18" rx="56.59" ry="18"/>
<text text-anchor="middle" x="308.5438" y="-14.3" font-family="Times,serif" font-size="14.00" fill="#000000">label type</text>
</g>
<!-- computational entity&#45;&gt;name -->
<g id="edge3" class="edge">
<title>computational entity&#45;&gt;name</title>
<path fill="none" stroke="#0000ff" d="M449.6268,-87.9045C437.2244,-81.9629 423.2544,-75.2277 410.5438,-69 389.7644,-58.8189 366.6984,-47.304 347.7647,-37.7953"/>
<polygon fill="#0000ff" stroke="#0000ff" points="349.3366,-34.6682 338.8301,-33.3031 346.1922,-40.9222 349.3366,-34.6682"/>
<text text-anchor="middle" x="430.5438" y="-57.8" font-family="Times,serif" font-size="14.00" fill="#000000">name</text>
</g>
<!-- enabled -->
<g id="node5" class="node">
<title>enabled</title>
<ellipse fill="none" stroke="#0000ff" cx="429.5438" cy="-18" rx="46.5926" ry="18"/>
<text text-anchor="middle" x="429.5438" y="-14.3" font-family="Times,serif" font-size="14.00" fill="#000000">boolean</text>
</g>
<!-- computational entity&#45;&gt;enabled -->
<g id="edge4" class="edge">
<title>computational entity&#45;&gt;enabled</title>
<path fill="none" stroke="#0000ff" d="M473.9406,-86.9735C466.004,-74.6435 455.3537,-58.0975 446.4739,-44.3021"/>
<polygon fill="#0000ff" stroke="#0000ff" points="449.2961,-42.22 440.9406,-35.7057 443.4101,-46.0087 449.2961,-42.22"/>
<text text-anchor="middle" x="490.0438" y="-57.8" font-family="Times,serif" font-size="14.00" fill="#000000">enabled</text>
</g>
<!-- archived -->
<g id="node6" class="node">
<title>archived</title>
<ellipse fill="none" stroke="#0000ff" cx="541.5438" cy="-18" rx="46.5926" ry="18"/>
<text text-anchor="middle" x="541.5438" y="-14.3" font-family="Times,serif" font-size="14.00" fill="#000000">boolean</text>
</g>
<!-- computational entity&#45;&gt;archived -->
<g id="edge5" class="edge">
<title>computational entity&#45;&gt;archived</title>
<path fill="none" stroke="#0000ff" d="M504.88,-87.0019C510.0678,-81.5483 515.385,-75.3195 519.5438,-69 524.2402,-61.8637 528.3208,-53.5588 531.6494,-45.7487"/>
<polygon fill="#0000ff" stroke="#0000ff" points="534.9864,-46.8304 535.4532,-36.2458 528.4877,-44.229 534.9864,-46.8304"/>
<text text-anchor="middle" x="560.0438" y="-57.8" font-family="Times,serif" font-size="14.00" fill="#000000">archived</text>
</g>
<!-- description -->
<g id="node7" class="node">
<title>description</title>
<ellipse fill="none" stroke="#0000ff" cx="681.5438" cy="-18" rx="75.2868" ry="18"/>
<text text-anchor="middle" x="681.5438" y="-14.3" font-family="Times,serif" font-size="14.00" fill="#000000">narrative text</text>
</g>
<!-- computational entity&#45;&gt;description -->
<g id="edge6" class="edge">
<title>computational entity&#45;&gt;description</title>
<path fill="none" stroke="#0000ff" d="M540.9952,-89.459C558.7353,-83.8011 578.2504,-76.843 595.5438,-69 613.252,-60.9689 631.9289,-50.2016 647.3364,-40.6302"/>
<polygon fill="#0000ff" stroke="#0000ff" points="649.4102,-43.4601 655.9982,-35.1626 645.6737,-37.5407 649.4102,-43.4601"/>
<text text-anchor="middle" x="663.5438" y="-57.8" font-family="Times,serif" font-size="14.00" fill="#000000">description</text>
</g>
<!-- note -->
<g id="node8" class="node">
<title>note</title>
<ellipse fill="none" stroke="#0000ff" cx="850.5438" cy="-18" rx="75.2868" ry="18"/>
<text text-anchor="middle" x="850.5438" y="-14.3" font-family="Times,serif" font-size="14.00" fill="#000000">narrative text</text>
</g>
<!-- computational entity&#45;&gt;note -->
<g id="edge7" class="edge">
<title>computational entity&#45;&gt;note</title>
<path fill="none" stroke="#0000ff" d="M564.3074,-92.636C625.5835,-82.9609 701.4,-70.8426 708.5438,-69 740.876,-60.6605 776.2167,-47.9812 803.5536,-37.3517"/>
<polygon fill="#0000ff" stroke="#0000ff" points="804.8455,-40.6046 812.8711,-33.6878 802.2839,-34.0901 804.8455,-40.6046"/>
<text text-anchor="middle" x="772.5438" y="-57.8" font-family="Times,serif" font-size="14.00" fill="#000000">note</text>
</g>
<!-- category -->
<g id="node9" class="node">
<title>category</title>
<ellipse fill="none" stroke="#000000" cx="995.5438" cy="-18" rx="51.9908" ry="18"/>
<text text-anchor="middle" x="995.5438" y="-14.3" font-family="Times,serif" font-size="14.00" fill="#000000">category</text>
</g>
<!-- computational entity&#45;&gt;category -->
<g id="edge8" class="edge">
<title>computational entity&#45;&gt;category</title>
<path fill="none" stroke="#0000ff" d="M562.8256,-92.3474C575.7361,-90.4235 589.0052,-88.5622 601.5438,-87 686.1547,-76.4581 708.3836,-82.6813 792.5438,-69 856.4972,-58.6036 871.8895,-52.5092 934.5438,-36 938.3977,-34.9845 942.3774,-33.8976 946.3708,-32.7795"/>
<polygon fill="#0000ff" stroke="#0000ff" points="947.6051,-36.0672 956.2621,-29.9592 945.6856,-29.3355 947.6051,-36.0672"/>
<text text-anchor="middle" x="898.5438" y="-57.8" font-family="Times,serif" font-size="14.00" fill="#000000">category</text>
</g>
<!-- named thing_category -->
<g id="node10" class="node">
<title>named thing_category</title>
<ellipse fill="none" stroke="#0000ff" cx="680.5438" cy="-105" rx="69.5877" ry="18"/>
<text text-anchor="middle" x="680.5438" y="-101.3" font-family="Times,serif" font-size="14.00" fill="#000000">named thing</text>
</g>
</g>
</svg>
