<?xml version="1.0" encoding="UTF-8" standalone="no"?>
<!DOCTYPE svg PUBLIC "-//W3C//DTD SVG 1.1//EN"
 "http://www.w3.org/Graphics/SVG/1.1/DTD/svg11.dtd">
<!-- Generated by graphviz version 2.40.1 (20161225.0304)
 -->
<!-- Title: %3 Pages: 1 -->
<svg width="1830pt" height="131pt"
 viewBox="0.00 0.00 1830.04 131.00" xmlns="http://www.w3.org/2000/svg" xmlns:xlink="http://www.w3.org/1999/xlink">
<g id="graph0" class="graph" transform="scale(1 1) rotate(0) translate(4 127)">
<title>%3</title>
<polygon fill="#ffffff" stroke="transparent" points="-4,4 -4,-127 1826.0352,-127 1826.0352,4 -4,4"/>
<!-- component -->
<g id="node1" class="node">
<title>component</title>
<ellipse fill="none" stroke="#000000" cx="876.5415" cy="-105" rx="62.2891" ry="18"/>
<text text-anchor="middle" x="876.5415" y="-101.3" font-family="Times,serif" font-size="14.00" fill="#000000">component</text>
</g>
<!-- deployment entity -->
<g id="node2" class="node">
<title>deployment entity</title>
<ellipse fill="none" stroke="#000000" cx="95.5415" cy="-18" rx="95.5831" ry="18"/>
<text text-anchor="middle" x="95.5415" y="-14.3" font-family="Times,serif" font-size="14.00" fill="#000000">deployment entity</text>
</g>
<!-- component&#45;&gt;deployment entity -->
<g id="edge1" class="edge">
<title>component&#45;&gt;deployment entity</title>
<path fill="none" stroke="#000000" d="M814.3752,-102.7518C719.1572,-98.8122 531.61,-89.0937 373.5415,-69 303.398,-60.0833 224.1388,-45.046 168.2502,-33.6036"/>
<polygon fill="#000000" stroke="#000000" points="168.9437,-30.1731 158.4431,-31.5836 167.5314,-37.0291 168.9437,-30.1731"/>
<text text-anchor="middle" x="387.5415" y="-57.8" font-family="Times,serif" font-size="14.00" fill="#000000">is_a</text>
</g>
<!-- application -->
<g id="node3" class="node">
<title>application</title>
<ellipse fill="none" stroke="#000000" cx="271.5415" cy="-18" rx="62.2891" ry="18"/>
<text text-anchor="middle" x="271.5415" y="-14.3" font-family="Times,serif" font-size="14.00" fill="#000000">application</text>
</g>
<!-- component&#45;&gt;application -->
<g id="edge2" class="edge">
<title>component&#45;&gt;application</title>
<path fill="none" stroke="#000000" d="M814.3904,-102.5849C734.554,-98.7726 591.9185,-89.5604 471.5415,-69 421.0699,-60.3795 364.6315,-45.4933 324.6116,-34.0217"/>
<polygon fill="#000000" stroke="#000000" points="325.3832,-30.6015 314.8044,-31.1847 323.4379,-37.3258 325.3832,-30.6015"/>
<text text-anchor="middle" x="488.0415" y="-57.8" font-family="Times,serif" font-size="14.00" fill="#000000">uses</text>
</g>
<!-- id -->
<g id="node4" class="node">
<title>id</title>
<ellipse fill="none" stroke="#0000ff" cx="390.5415" cy="-18" rx="38.1938" ry="18"/>
<text text-anchor="middle" x="390.5415" y="-14.3" font-family="Times,serif" font-size="14.00" fill="#000000">string</text>
</g>
<!-- component&#45;&gt;id -->
<g id="edge3" class="edge">
<title>component&#45;&gt;id</title>
<path fill="none" stroke="#0000ff" d="M815.7102,-100.7977C729.8557,-93.67 568.9474,-75.8955 437.5415,-36 434.7981,-35.1671 431.9859,-34.252 429.1674,-33.2894"/>
<polygon fill="#0000ff" stroke="#0000ff" points="430.247,-29.9585 419.6524,-29.8845 427.8885,-36.5492 430.247,-29.9585"/>
<text text-anchor="middle" x="575.5415" y="-57.8" font-family="Times,serif" font-size="14.00" fill="#000000">id</text>
</g>
<!-- name -->
<g id="node5" class="node">
<title>name</title>
<ellipse fill="none" stroke="#0000ff" cx="503.5415" cy="-18" rx="56.59" ry="18"/>
<text text-anchor="middle" x="503.5415" y="-14.3" font-family="Times,serif" font-size="14.00" fill="#000000">label type</text>
</g>
<!-- component&#45;&gt;name -->
<g id="edge4" class="edge">
<title>component&#45;&gt;name</title>
<path fill="none" stroke="#0000ff" d="M817.8501,-98.708C771.449,-93.0223 705.2676,-83.3279 648.5415,-69 614.1727,-60.3191 576.4297,-46.9152 548.0682,-36.0272"/>
<polygon fill="#0000ff" stroke="#0000ff" points="549.0374,-32.649 538.4486,-32.2927 546.5041,-39.1745 549.0374,-32.649"/>
<text text-anchor="middle" x="668.5415" y="-57.8" font-family="Times,serif" font-size="14.00" fill="#000000">name</text>
</g>
<!-- enabled -->
<g id="node6" class="node">
<title>enabled</title>
<ellipse fill="none" stroke="#0000ff" cx="624.5415" cy="-18" rx="46.5926" ry="18"/>
<text text-anchor="middle" x="624.5415" y="-14.3" font-family="Times,serif" font-size="14.00" fill="#000000">boolean</text>
</g>
<!-- component&#45;&gt;enabled -->
<g id="edge5" class="edge">
<title>component&#45;&gt;enabled</title>
<path fill="none" stroke="#0000ff" d="M823.6126,-95.3749C794.493,-89.3181 757.993,-80.4663 726.5415,-69 703.5229,-60.6081 678.9238,-48.4121 659.6512,-38.0507"/>
<polygon fill="#0000ff" stroke="#0000ff" points="661.1026,-34.8555 650.6482,-33.1363 657.7487,-40.9998 661.1026,-34.8555"/>
<text text-anchor="middle" x="755.0415" y="-57.8" font-family="Times,serif" font-size="14.00" fill="#000000">enabled</text>
</g>
<!-- archived -->
<g id="node7" class="node">
<title>archived</title>
<ellipse fill="none" stroke="#0000ff" cx="736.5415" cy="-18" rx="46.5926" ry="18"/>
<text text-anchor="middle" x="736.5415" y="-14.3" font-family="Times,serif" font-size="14.00" fill="#000000">boolean</text>
</g>
<!-- component&#45;&gt;archived -->
<g id="edge6" class="edge">
<title>component&#45;&gt;archived</title>
<path fill="none" stroke="#0000ff" d="M845.4297,-89.2517C833.9807,-83.2048 821.0139,-76.0564 809.5415,-69 794.9583,-60.0303 779.3315,-49.2772 766.293,-39.9622"/>
<polygon fill="#0000ff" stroke="#0000ff" points="768.2943,-37.0903 758.1356,-34.0818 764.2009,-42.7688 768.2943,-37.0903"/>
<text text-anchor="middle" x="841.0415" y="-57.8" font-family="Times,serif" font-size="14.00" fill="#000000">archived</text>
</g>
<!-- description -->
<g id="node8" class="node">
<title>description</title>
<ellipse fill="none" stroke="#0000ff" cx="876.5415" cy="-18" rx="75.2868" ry="18"/>
<text text-anchor="middle" x="876.5415" y="-14.3" font-family="Times,serif" font-size="14.00" fill="#000000">narrative text</text>
</g>
<!-- component&#45;&gt;description -->
<g id="edge7" class="edge">
<title>component&#45;&gt;description</title>
<path fill="none" stroke="#0000ff" d="M876.5415,-86.9735C876.5415,-75.1918 876.5415,-59.5607 876.5415,-46.1581"/>
<polygon fill="#0000ff" stroke="#0000ff" points="880.0416,-46.0033 876.5415,-36.0034 873.0416,-46.0034 880.0416,-46.0033"/>
<text text-anchor="middle" x="917.5415" y="-57.8" font-family="Times,serif" font-size="14.00" fill="#000000">description</text>
</g>
<!-- note -->
<g id="node9" class="node">
<title>note</title>
<ellipse fill="none" stroke="#0000ff" cx="1045.5415" cy="-18" rx="75.2868" ry="18"/>
<text text-anchor="middle" x="1045.5415" y="-14.3" font-family="Times,serif" font-size="14.00" fill="#000000">narrative text</text>
</g>
<!-- component&#45;&gt;note -->
<g id="edge8" class="edge">
<title>component&#45;&gt;note</title>
<path fill="none" stroke="#0000ff" d="M914.3659,-90.6395C929.5772,-84.4861 947.1297,-76.9008 962.5415,-69 978.9933,-60.5661 996.5286,-50.0359 1011.2225,-40.7374"/>
<polygon fill="#0000ff" stroke="#0000ff" points="1013.4351,-43.4768 1019.9692,-35.1368 1009.6603,-37.5817 1013.4351,-43.4768"/>
<text text-anchor="middle" x="1004.5415" y="-57.8" font-family="Times,serif" font-size="14.00" fill="#000000">note</text>
</g>
<!-- category -->
<g id="node10" class="node">
<title>category</title>
<ellipse fill="none" stroke="#000000" cx="1190.5415" cy="-18" rx="51.9908" ry="18"/>
<text text-anchor="middle" x="1190.5415" y="-14.3" font-family="Times,serif" font-size="14.00" fill="#000000">category</text>
</g>
<!-- component&#45;&gt;category -->
<g id="edge9" class="edge">
<title>component&#45;&gt;category</title>
<path fill="none" stroke="#0000ff" d="M923.4861,-92.9672C931.5053,-90.9493 939.7579,-88.8963 947.5415,-87 981.6877,-78.6813 990.613,-78.1661 1024.5415,-69 1064.6343,-58.1686 1109.6434,-44.2273 1142.6697,-33.659"/>
<polygon fill="#0000ff" stroke="#0000ff" points="1144.0664,-36.8865 1152.5159,-30.4946 1141.9245,-30.2222 1144.0664,-36.8865"/>
<text text-anchor="middle" x="1107.5415" y="-57.8" font-family="Times,serif" font-size="14.00" fill="#000000">category</text>
</g>
<!-- has attribute -->
<g id="node12" class="node">
<title>has attribute</title>
<ellipse fill="none" stroke="#000000" cx="1331.5415" cy="-18" rx="71.4873" ry="18"/>
<text text-anchor="middle" x="1331.5415" y="-14.3" font-family="Times,serif" font-size="14.00" fill="#000000">has attribute</text>
</g>
<!-- component&#45;&gt;has attribute -->
<g id="edge10" class="edge">
<title>component&#45;&gt;has attribute</title>
<path fill="none" stroke="#0000ff" d="M921.7664,-92.4095C930.2792,-90.3605 939.1443,-88.4409 947.5415,-87 1033.7592,-72.2059 1057.4497,-84.5096 1143.5415,-69 1189.5231,-60.7163 1240.6282,-46.5203 1277.9352,-35.2058"/>
<polygon fill="#0000ff" stroke="#0000ff" points="1279.0561,-38.5231 1287.5927,-32.2479 1277.0061,-31.83 1279.0561,-38.5231"/>
<text text-anchor="middle" x="1253.5415" y="-57.8" font-family="Times,serif" font-size="14.00" fill="#000000">has attribute</text>
</g>
<!-- in taxon -->
<g id="node14" class="node">
<title>in taxon</title>
<ellipse fill="none" stroke="#0000ff" cx="1493.5415" cy="-18" rx="72.5877" ry="18"/>
<text text-anchor="middle" x="1493.5415" y="-14.3" font-family="Times,serif" font-size="14.00" fill="#000000">system taxon</text>
</g>
<!-- component&#45;&gt;in taxon -->
<g id="edge11" class="edge">
<title>component&#45;&gt;in taxon</title>
<path fill="none" stroke="#0000ff" d="M920.959,-92.3077C929.7076,-90.2148 938.8649,-88.3054 947.5415,-87 1104.6416,-63.3637 1147.6265,-93.8354 1304.5415,-69 1351.2257,-61.6112 1402.9654,-47.1991 1440.4903,-35.5752"/>
<polygon fill="#0000ff" stroke="#0000ff" points="1441.7007,-38.8638 1450.1959,-32.5328 1439.6068,-32.1843 1441.7007,-38.8638"/>
<text text-anchor="middle" x="1402.5415" y="-57.8" font-family="Times,serif" font-size="14.00" fill="#000000">in taxon</text>
</g>
<!-- vcs location -->
<g id="node15" class="node">
<title>vcs location</title>
<ellipse fill="none" stroke="#0000ff" cx="1622.5415" cy="-18" rx="38.1938" ry="18"/>
<text text-anchor="middle" x="1622.5415" y="-14.3" font-family="Times,serif" font-size="14.00" fill="#000000">string</text>
</g>
<!-- component&#45;&gt;vcs location -->
<g id="edge12" class="edge">
<title>component&#45;&gt;vcs location</title>
<path fill="none" stroke="#0000ff" d="M920.9452,-92.2139C929.695,-90.1291 938.8563,-88.2468 947.5415,-87 1162.3756,-56.1599 1220.456,-98.0343 1435.5415,-69 1498.8943,-60.448 1514.4433,-54.8074 1575.5415,-36 1578.2817,-35.1565 1581.0916,-34.2335 1583.9082,-33.2653"/>
<polygon fill="#0000ff" stroke="#0000ff" points="1585.1916,-36.5233 1593.4197,-29.8488 1582.8252,-29.9354 1585.1916,-36.5233"/>
<text text-anchor="middle" x="1556.5415" y="-57.8" font-family="Times,serif" font-size="14.00" fill="#000000">vcs location</text>
</g>
<!-- has control actor -->
<g id="node16" class="node">
<title>has control actor</title>
<ellipse fill="none" stroke="#0000ff" cx="1750.5415" cy="-18" rx="71.4873" ry="18"/>
<text text-anchor="middle" x="1750.5415" y="-14.3" font-family="Times,serif" font-size="14.00" fill="#000000">control actor</text>
</g>
<!-- component&#45;&gt;has control actor -->
<g id="edge13" class="edge">
<title>component&#45;&gt;has control actor</title>
<path fill="none" stroke="#0000ff" d="M920.5557,-92.2388C929.4208,-90.1234 938.7245,-88.2233 947.5415,-87 1091.9905,-66.959 1460.083,-95.2071 1603.5415,-69 1638.8758,-62.5451 1677.1627,-49.0366 1705.8023,-37.5433"/>
<polygon fill="#0000ff" stroke="#0000ff" points="1707.1919,-40.7565 1715.1268,-33.736 1704.5457,-34.2759 1707.1919,-40.7565"/>
<text text-anchor="middle" x="1718.0415" y="-57.8" font-family="Times,serif" font-size="14.00" fill="#000000">has control actor</text>
</g>
<!-- named thing_category -->
<g id="node11" class="node">
<title>named thing_category</title>
<ellipse fill="none" stroke="#0000ff" cx="1026.5415" cy="-105" rx="69.5877" ry="18"/>
<text text-anchor="middle" x="1026.5415" y="-101.3" font-family="Times,serif" font-size="14.00" fill="#000000">named thing</text>
</g>
<!-- systemic entity_has attribute -->
<g id="node13" class="node">
<title>systemic entity_has attribute</title>
<ellipse fill="none" stroke="#0000ff" cx="1166.5415" cy="-105" rx="51.9908" ry="18"/>
<text text-anchor="middle" x="1166.5415" y="-101.3" font-family="Times,serif" font-size="14.00" fill="#000000">attribute</text>
</g>
</g>
</svg>
