<?xml version="1.0" encoding="UTF-8" standalone="no"?>
<!DOCTYPE svg PUBLIC "-//W3C//DTD SVG 1.1//EN"
 "http://www.w3.org/Graphics/SVG/1.1/DTD/svg11.dtd">
<!-- Generated by graphviz version 2.40.1 (20161225.0304)
 -->
<!-- Title: %3 Pages: 1 -->
<svg width="1134pt" height="131pt"
 viewBox="0.00 0.00 1133.54 131.00" xmlns="http://www.w3.org/2000/svg" xmlns:xlink="http://www.w3.org/1999/xlink">
<g id="graph0" class="graph" transform="scale(1 1) rotate(0) translate(4 127)">
<title>%3</title>
<polygon fill="#ffffff" stroke="transparent" points="-4,4 -4,-127 1129.5358,-127 1129.5358,4 -4,4"/>
<!-- component owner -->
<g id="node1" class="node">
<title>component owner</title>
<ellipse fill="none" stroke="#000000" cx="563.5404" cy="-105" rx="94.4839" ry="18"/>
<text text-anchor="middle" x="563.5404" y="-101.3" font-family="Times,serif" font-size="14.00" fill="#000000">component owner</text>
</g>
<!-- administrative entity -->
<g id="node2" class="node">
<title>administrative entity</title>
<ellipse fill="none" stroke="#000000" cx="108.5404" cy="-18" rx="108.5808" ry="18"/>
<text text-anchor="middle" x="108.5404" y="-14.3" font-family="Times,serif" font-size="14.00" fill="#000000">administrative entity</text>
</g>
<!-- component owner&#45;&gt;administrative entity -->
<g id="edge1" class="edge">
<title>component owner&#45;&gt;administrative entity</title>
<path fill="none" stroke="#000000" d="M490.2586,-93.5397C448.624,-86.8258 395.5752,-77.9309 348.5404,-69 292.8653,-58.4285 230.241,-45.0713 182.926,-34.6787"/>
<polygon fill="#000000" stroke="#000000" points="183.5887,-31.2408 173.0699,-32.5081 182.0831,-38.077 183.5887,-31.2408"/>
<text text-anchor="middle" x="362.5404" y="-57.8" font-family="Times,serif" font-size="14.00" fill="#000000">is_a</text>
</g>
<!-- id -->
<g id="node3" class="node">
<title>id</title>
<ellipse fill="none" stroke="#0000ff" cx="273.5404" cy="-18" rx="38.1938" ry="18"/>
<text text-anchor="middle" x="273.5404" y="-14.3" font-family="Times,serif" font-size="14.00" fill="#000000">string</text>
</g>
<!-- component owner&#45;&gt;id -->
<g id="edge2" class="edge">
<title>component owner&#45;&gt;id</title>
<path fill="none" stroke="#0000ff" d="M507.1283,-90.5094C457.5985,-77.4246 383.7911,-57.0454 320.5404,-36 317.9482,-35.1375 315.2882,-34.2172 312.6155,-33.2661"/>
<polygon fill="#0000ff" stroke="#0000ff" points="313.5741,-29.8898 302.9804,-29.735 311.1654,-36.4623 313.5741,-29.8898"/>
<text text-anchor="middle" x="434.5404" y="-57.8" font-family="Times,serif" font-size="14.00" fill="#000000">id</text>
</g>
<!-- name -->
<g id="node4" class="node">
<title>name</title>
<ellipse fill="none" stroke="#0000ff" cx="386.5404" cy="-18" rx="56.59" ry="18"/>
<text text-anchor="middle" x="386.5404" y="-14.3" font-family="Times,serif" font-size="14.00" fill="#000000">label type</text>
</g>
<!-- component owner&#45;&gt;name -->
<g id="edge3" class="edge">
<title>component owner&#45;&gt;name</title>
<path fill="none" stroke="#0000ff" d="M528.3807,-88.2673C515.7917,-82.2381 501.5104,-75.3548 488.5404,-69 467.761,-58.8189 444.6949,-47.304 425.7613,-37.7953"/>
<polygon fill="#0000ff" stroke="#0000ff" points="427.3332,-34.6682 416.8266,-33.3031 424.1887,-40.9222 427.3332,-34.6682"/>
<text text-anchor="middle" x="508.5404" y="-57.8" font-family="Times,serif" font-size="14.00" fill="#000000">name</text>
</g>
<!-- enabled -->
<g id="node5" class="node">
<title>enabled</title>
<ellipse fill="none" stroke="#0000ff" cx="507.5404" cy="-18" rx="46.5926" ry="18"/>
<text text-anchor="middle" x="507.5404" y="-14.3" font-family="Times,serif" font-size="14.00" fill="#000000">boolean</text>
</g>
<!-- component owner&#45;&gt;enabled -->
<g id="edge4" class="edge">
<title>component owner&#45;&gt;enabled</title>
<path fill="none" stroke="#0000ff" d="M551.9371,-86.9735C544.0006,-74.6435 533.3503,-58.0975 524.4705,-44.3021"/>
<polygon fill="#0000ff" stroke="#0000ff" points="527.2927,-42.22 518.9371,-35.7057 521.4066,-46.0087 527.2927,-42.22"/>
<text text-anchor="middle" x="568.0404" y="-57.8" font-family="Times,serif" font-size="14.00" fill="#000000">enabled</text>
</g>
<!-- archived -->
<g id="node6" class="node">
<title>archived</title>
<ellipse fill="none" stroke="#0000ff" cx="619.5404" cy="-18" rx="46.5926" ry="18"/>
<text text-anchor="middle" x="619.5404" y="-14.3" font-family="Times,serif" font-size="14.00" fill="#000000">boolean</text>
</g>
<!-- component owner&#45;&gt;archived -->
<g id="edge5" class="edge">
<title>component owner&#45;&gt;archived</title>
<path fill="none" stroke="#0000ff" d="M582.8765,-87.0019C588.0643,-81.5483 593.3815,-75.3195 597.5404,-69 602.2367,-61.8637 606.3174,-53.5588 609.646,-45.7487"/>
<polygon fill="#0000ff" stroke="#0000ff" points="612.9829,-46.8304 613.4498,-36.2458 606.4842,-44.229 612.9829,-46.8304"/>
<text text-anchor="middle" x="638.0404" y="-57.8" font-family="Times,serif" font-size="14.00" fill="#000000">archived</text>
</g>
<!-- description -->
<g id="node7" class="node">
<title>description</title>
<ellipse fill="none" stroke="#0000ff" cx="759.5404" cy="-18" rx="75.2868" ry="18"/>
<text text-anchor="middle" x="759.5404" y="-14.3" font-family="Times,serif" font-size="14.00" fill="#000000">narrative text</text>
</g>
<!-- component owner&#45;&gt;description -->
<g id="edge6" class="edge">
<title>component owner&#45;&gt;description</title>
<path fill="none" stroke="#0000ff" d="M617.0281,-90.0823C635.2832,-84.3153 655.6065,-77.1334 673.5404,-69 691.2486,-60.9689 709.9255,-50.2016 725.3329,-40.6302"/>
<polygon fill="#0000ff" stroke="#0000ff" points="727.4068,-43.4601 733.9948,-35.1626 723.6703,-37.5407 727.4068,-43.4601"/>
<text text-anchor="middle" x="741.5404" y="-57.8" font-family="Times,serif" font-size="14.00" fill="#000000">description</text>
</g>
<!-- note -->
<g id="node8" class="node">
<title>note</title>
<ellipse fill="none" stroke="#0000ff" cx="928.5404" cy="-18" rx="75.2868" ry="18"/>
<text text-anchor="middle" x="928.5404" y="-14.3" font-family="Times,serif" font-size="14.00" fill="#000000">narrative text</text>
</g>
<!-- component owner&#45;&gt;note -->
<g id="edge7" class="edge">
<title>component owner&#45;&gt;note</title>
<path fill="none" stroke="#0000ff" d="M632.48,-92.7156C643.8511,-90.7574 655.5206,-88.7891 666.5404,-87 719.7733,-78.3574 734.2451,-82.1778 786.5404,-69 819.0322,-60.8124 854.5076,-48.0735 881.8723,-37.376"/>
<polygon fill="#0000ff" stroke="#0000ff" points="883.1836,-40.6212 891.195,-33.6881 880.6087,-34.112 883.1836,-40.6212"/>
<text text-anchor="middle" x="850.5404" y="-57.8" font-family="Times,serif" font-size="14.00" fill="#000000">note</text>
</g>
<!-- category -->
<g id="node9" class="node">
<title>category</title>
<ellipse fill="none" stroke="#000000" cx="1073.5404" cy="-18" rx="51.9908" ry="18"/>
<text text-anchor="middle" x="1073.5404" y="-14.3" font-family="Times,serif" font-size="14.00" fill="#000000">category</text>
</g>
<!-- component owner&#45;&gt;category -->
<g id="edge8" class="edge">
<title>component owner&#45;&gt;category</title>
<path fill="none" stroke="#0000ff" d="M631.0082,-92.3639C642.8242,-90.3929 655.0213,-88.5119 666.5404,-87 756.7853,-75.1549 780.6577,-83.3369 870.5404,-69 934.5245,-58.7941 949.886,-52.5092 1012.5404,-36 1016.3942,-34.9845 1020.3739,-33.8976 1024.3674,-32.7795"/>
<polygon fill="#0000ff" stroke="#0000ff" points="1025.6017,-36.0672 1034.2586,-29.9592 1023.6822,-29.3355 1025.6017,-36.0672"/>
<text text-anchor="middle" x="976.5404" y="-57.8" font-family="Times,serif" font-size="14.00" fill="#000000">category</text>
</g>
<!-- named thing_category -->
<g id="node10" class="node">
<title>named thing_category</title>
<ellipse fill="none" stroke="#0000ff" cx="745.5404" cy="-105" rx="69.5877" ry="18"/>
<text text-anchor="middle" x="745.5404" y="-101.3" font-family="Times,serif" font-size="14.00" fill="#000000">named thing</text>
</g>
</g>
</svg>
