<?xml version="1.0" encoding="UTF-8" standalone="no"?>
<!DOCTYPE svg PUBLIC "-//W3C//DTD SVG 1.1//EN"
 "http://www.w3.org/Graphics/SVG/1.1/DTD/svg11.dtd">
<!-- Generated by graphviz version 2.40.1 (20161225.0304)
 -->
<!-- Title: %3 Pages: 1 -->
<svg width="1730pt" height="131pt"
 viewBox="0.00 0.00 1730.48 131.00" xmlns="http://www.w3.org/2000/svg" xmlns:xlink="http://www.w3.org/1999/xlink">
<g id="graph0" class="graph" transform="scale(1 1) rotate(0) translate(4 127)">
<title>%3</title>
<polygon fill="#ffffff" stroke="transparent" points="-4,4 -4,-127 1726.4844,-127 1726.4844,4 -4,4"/>
<!-- computational process or activity -->
<g id="node1" class="node">
<title>computational process or activity</title>
<ellipse fill="none" stroke="#000000" cx="818.8904" cy="-105" rx="167.0704" ry="18"/>
<text text-anchor="middle" x="818.8904" y="-101.3" font-family="Times,serif" font-size="14.00" fill="#000000">computational process or activity</text>
</g>
<!-- computational entity -->
<g id="node2" class="node">
<title>computational entity</title>
<ellipse fill="none" stroke="#000000" cx="107.8904" cy="-18" rx="107.781" ry="18"/>
<text text-anchor="middle" x="107.8904" y="-14.3" font-family="Times,serif" font-size="14.00" fill="#000000">computational entity</text>
</g>
<!-- computational process or activity&#45;&gt;computational entity -->
<g id="edge1" class="edge">
<title>computational process or activity&#45;&gt;computational entity</title>
<path fill="none" stroke="#000000" d="M672.3835,-96.2975C588.8155,-90.45 482.2383,-81.5028 387.8904,-69 318.9246,-59.8608 241.1236,-45.3477 185.0669,-34.1364"/>
<polygon fill="#000000" stroke="#000000" points="185.7053,-30.6948 175.2115,-32.1545 184.3252,-37.5574 185.7053,-30.6948"/>
<text text-anchor="middle" x="401.8904" y="-57.8" font-family="Times,serif" font-size="14.00" fill="#000000">is_a</text>
</g>
<!-- occurrent -->
<g id="node3" class="node">
<title>occurrent</title>
<ellipse fill="none" stroke="#000000" cx="289.8904" cy="-18" rx="56.59" ry="18"/>
<text text-anchor="middle" x="289.8904" y="-14.3" font-family="Times,serif" font-size="14.00" fill="#000000">occurrent</text>
</g>
<!-- computational process or activity&#45;&gt;occurrent -->
<g id="edge2" class="edge">
<title>computational process or activity&#45;&gt;occurrent</title>
<path fill="none" stroke="#000000" d="M680.912,-94.8381C619.923,-89.1594 547.5305,-80.7944 482.8904,-69 425.5188,-58.5318 412.2456,-51.006 355.8904,-36 351.5776,-34.8516 347.1088,-33.6525 342.6228,-32.4423"/>
<polygon fill="#000000" stroke="#000000" points="343.3956,-29.0256 332.8284,-29.7908 341.5663,-35.7824 343.3956,-29.0256"/>
<text text-anchor="middle" x="499.3904" y="-57.8" font-family="Times,serif" font-size="14.00" fill="#000000">uses</text>
</g>
<!-- id -->
<g id="node4" class="node">
<title>id</title>
<ellipse fill="none" stroke="#0000ff" cx="402.8904" cy="-18" rx="38.1938" ry="18"/>
<text text-anchor="middle" x="402.8904" y="-14.3" font-family="Times,serif" font-size="14.00" fill="#000000">string</text>
</g>
<!-- computational process or activity&#45;&gt;id -->
<g id="edge3" class="edge">
<title>computational process or activity&#45;&gt;id</title>
<path fill="none" stroke="#0000ff" d="M709.5136,-91.31C635.2286,-80.3758 535.3389,-62.4543 449.8904,-36 447.1516,-35.1521 444.3428,-34.2258 441.5268,-33.2552"/>
<polygon fill="#0000ff" stroke="#0000ff" points="442.6113,-29.9258 432.0168,-29.8338 440.2416,-36.5125 442.6113,-29.9258"/>
<text text-anchor="middle" x="586.8904" y="-57.8" font-family="Times,serif" font-size="14.00" fill="#000000">id</text>
</g>
<!-- name -->
<g id="node5" class="node">
<title>name</title>
<ellipse fill="none" stroke="#0000ff" cx="515.8904" cy="-18" rx="56.59" ry="18"/>
<text text-anchor="middle" x="515.8904" y="-14.3" font-family="Times,serif" font-size="14.00" fill="#000000">label type</text>
</g>
<!-- computational process or activity&#45;&gt;name -->
<g id="edge4" class="edge">
<title>computational process or activity&#45;&gt;name</title>
<path fill="none" stroke="#0000ff" d="M733.5747,-89.4892C706.5888,-83.8745 676.7936,-76.9338 649.8904,-69 619.0871,-59.916 585.2972,-47.0347 559.3548,-36.4908"/>
<polygon fill="#0000ff" stroke="#0000ff" points="560.3991,-33.1361 549.819,-32.577 557.7412,-39.6119 560.3991,-33.1361"/>
<text text-anchor="middle" x="669.8904" y="-57.8" font-family="Times,serif" font-size="14.00" fill="#000000">name</text>
</g>
<!-- enabled -->
<g id="node6" class="node">
<title>enabled</title>
<ellipse fill="none" stroke="#0000ff" cx="636.8904" cy="-18" rx="46.5926" ry="18"/>
<text text-anchor="middle" x="636.8904" y="-14.3" font-family="Times,serif" font-size="14.00" fill="#000000">boolean</text>
</g>
<!-- computational process or activity&#45;&gt;enabled -->
<g id="edge5" class="edge">
<title>computational process or activity&#45;&gt;enabled</title>
<path fill="none" stroke="#0000ff" d="M764.8379,-87.888C749.7018,-82.4691 733.4216,-76.0369 718.8904,-69 701.358,-60.5097 682.8479,-49.2199 667.8596,-39.4211"/>
<polygon fill="#0000ff" stroke="#0000ff" points="669.743,-36.4704 659.4757,-33.8565 665.8719,-42.3027 669.743,-36.4704"/>
<text text-anchor="middle" x="747.3904" y="-57.8" font-family="Times,serif" font-size="14.00" fill="#000000">enabled</text>
</g>
<!-- archived -->
<g id="node7" class="node">
<title>archived</title>
<ellipse fill="none" stroke="#0000ff" cx="748.8904" cy="-18" rx="46.5926" ry="18"/>
<text text-anchor="middle" x="748.8904" y="-14.3" font-family="Times,serif" font-size="14.00" fill="#000000">boolean</text>
</g>
<!-- computational process or activity&#45;&gt;archived -->
<g id="edge6" class="edge">
<title>computational process or activity&#45;&gt;archived</title>
<path fill="none" stroke="#0000ff" d="M804.3864,-86.9735C794.2098,-74.3254 780.4637,-57.2411 769.1986,-43.2401"/>
<polygon fill="#0000ff" stroke="#0000ff" points="771.894,-41.0068 762.8982,-35.4097 766.4401,-45.395 771.894,-41.0068"/>
<text text-anchor="middle" x="820.3904" y="-57.8" font-family="Times,serif" font-size="14.00" fill="#000000">archived</text>
</g>
<!-- description -->
<g id="node8" class="node">
<title>description</title>
<ellipse fill="none" stroke="#0000ff" cx="888.8904" cy="-18" rx="75.2868" ry="18"/>
<text text-anchor="middle" x="888.8904" y="-14.3" font-family="Times,serif" font-size="14.00" fill="#000000">narrative text</text>
</g>
<!-- computational process or activity&#45;&gt;description -->
<g id="edge7" class="edge">
<title>computational process or activity&#45;&gt;description</title>
<path fill="none" stroke="#0000ff" d="M838.936,-87.0885C844.6853,-81.5393 850.7765,-75.2379 855.8904,-69 862.0113,-61.5337 867.9746,-52.8854 873.1102,-44.8553"/>
<polygon fill="#0000ff" stroke="#0000ff" points="876.2159,-46.4887 878.5211,-36.1477 870.2703,-42.7941 876.2159,-46.4887"/>
<text text-anchor="middle" x="907.8904" y="-57.8" font-family="Times,serif" font-size="14.00" fill="#000000">description</text>
</g>
<!-- note -->
<g id="node9" class="node">
<title>note</title>
<ellipse fill="none" stroke="#0000ff" cx="1057.8904" cy="-18" rx="75.2868" ry="18"/>
<text text-anchor="middle" x="1057.8904" y="-14.3" font-family="Times,serif" font-size="14.00" fill="#000000">narrative text</text>
</g>
<!-- computational process or activity&#45;&gt;note -->
<g id="edge8" class="edge">
<title>computational process or activity&#45;&gt;note</title>
<path fill="none" stroke="#0000ff" d="M889.9223,-88.6008C910.4899,-83.1341 932.8054,-76.4984 952.8904,-69 975.2432,-60.655 999.2442,-49.1988 1018.6497,-39.2582"/>
<polygon fill="#0000ff" stroke="#0000ff" points="1020.5157,-42.2331 1027.7794,-34.5202 1017.2913,-36.0199 1020.5157,-42.2331"/>
<text text-anchor="middle" x="1004.8904" y="-57.8" font-family="Times,serif" font-size="14.00" fill="#000000">note</text>
</g>
<!-- category -->
<g id="node10" class="node">
<title>category</title>
<ellipse fill="none" stroke="#000000" cx="1202.8904" cy="-18" rx="51.9908" ry="18"/>
<text text-anchor="middle" x="1202.8904" y="-14.3" font-family="Times,serif" font-size="14.00" fill="#000000">category</text>
</g>
<!-- computational process or activity&#45;&gt;category -->
<g id="edge9" class="edge">
<title>computational process or activity&#45;&gt;category</title>
<path fill="none" stroke="#0000ff" d="M915.1944,-90.2582C949.9227,-84.3928 989.3143,-77.1036 1024.8904,-69 1077.5699,-57.0006 1089.9796,-50.9792 1141.8904,-36 1145.6616,-34.9118 1149.5615,-33.7788 1153.4818,-32.6343"/>
<polygon fill="#0000ff" stroke="#0000ff" points="1154.5944,-35.9556 1163.2068,-29.7851 1152.6261,-29.238 1154.5944,-35.9556"/>
<text text-anchor="middle" x="1113.8904" y="-57.8" font-family="Times,serif" font-size="14.00" fill="#000000">category</text>
</g>
<!-- has input -->
<g id="node12" class="node">
<title>has input</title>
<ellipse fill="none" stroke="#0000ff" cx="1342.8904" cy="-18" rx="69.5877" ry="18"/>
<text text-anchor="middle" x="1342.8904" y="-14.3" font-family="Times,serif" font-size="14.00" fill="#000000">named thing</text>
</g>
<!-- computational process or activity&#45;&gt;has input -->
<g id="edge10" class="edge">
<title>computational process or activity&#45;&gt;has input</title>
<path fill="none" stroke="#0000ff" d="M940.882,-92.6278C1026.5463,-83.7862 1129.3586,-72.807 1149.8904,-69 1197.1246,-60.2418 1249.7913,-46.0159 1288.1595,-34.8112"/>
<polygon fill="#0000ff" stroke="#0000ff" points="1289.4857,-38.0693 1298.0888,-31.8858 1287.5073,-31.3546 1289.4857,-38.0693"/>
<text text-anchor="middle" x="1248.3904" y="-57.8" font-family="Times,serif" font-size="14.00" fill="#000000">has input</text>
</g>
<!-- has output -->
<g id="node13" class="node">
<title>has output</title>
<ellipse fill="none" stroke="#0000ff" cx="1499.8904" cy="-18" rx="69.5877" ry="18"/>
<text text-anchor="middle" x="1499.8904" y="-14.3" font-family="Times,serif" font-size="14.00" fill="#000000">named thing</text>
</g>
<!-- computational process or activity&#45;&gt;has output -->
<g id="edge11" class="edge">
<title>computational process or activity&#45;&gt;has output</title>
<path fill="none" stroke="#0000ff" d="M937.1701,-92.2453C956.4498,-90.3556 976.217,-88.5318 994.8904,-87 1124.0372,-76.406 1157.7239,-88.0907 1285.8904,-69 1340.2126,-60.9086 1401.0296,-45.8156 1443.905,-34.1399"/>
<polygon fill="#0000ff" stroke="#0000ff" points="1444.8716,-37.5041 1453.5862,-31.4786 1443.0162,-30.7545 1444.8716,-37.5041"/>
<text text-anchor="middle" x="1402.3904" y="-57.8" font-family="Times,serif" font-size="14.00" fill="#000000">has output</text>
</g>
<!-- enabled by -->
<g id="node14" class="node">
<title>enabled by</title>
<ellipse fill="none" stroke="#0000ff" cx="1654.8904" cy="-18" rx="67.6881" ry="18"/>
<text text-anchor="middle" x="1654.8904" y="-14.3" font-family="Times,serif" font-size="14.00" fill="#000000">cyber entity</text>
</g>
<!-- computational process or activity&#45;&gt;enabled by -->
<g id="edge12" class="edge">
<title>computational process or activity&#45;&gt;enabled by</title>
<path fill="none" stroke="#0000ff" d="M935.248,-92.0728C955.1281,-90.1584 975.5887,-88.3717 994.8904,-87 1194.5468,-72.8109 1246.6641,-96.7549 1444.8904,-69 1498.5513,-61.4866 1558.502,-46.2191 1600.5676,-34.3377"/>
<polygon fill="#0000ff" stroke="#0000ff" points="1601.6724,-37.6622 1610.3273,-31.5512 1599.7506,-30.9312 1601.6724,-37.6622"/>
<text text-anchor="middle" x="1560.3904" y="-57.8" font-family="Times,serif" font-size="14.00" fill="#000000">enabled by</text>
</g>
<!-- named thing_category -->
<g id="node11" class="node">
<title>named thing_category</title>
<ellipse fill="none" stroke="#0000ff" cx="1073.8904" cy="-105" rx="69.5877" ry="18"/>
<text text-anchor="middle" x="1073.8904" y="-101.3" font-family="Times,serif" font-size="14.00" fill="#000000">named thing</text>
</g>
</g>
</svg>
