<?xml version="1.0" encoding="UTF-8" standalone="no"?>
<!DOCTYPE svg PUBLIC "-//W3C//DTD SVG 1.1//EN"
 "http://www.w3.org/Graphics/SVG/1.1/DTD/svg11.dtd">
<!-- Generated by graphviz version 2.40.1 (20161225.0304)
 -->
<!-- Title: %3 Pages: 1 -->
<svg width="1998pt" height="131pt"
 viewBox="0.00 0.00 1998.23 131.00" xmlns="http://www.w3.org/2000/svg" xmlns:xlink="http://www.w3.org/1999/xlink">
<g id="graph0" class="graph" transform="scale(1 1) rotate(0) translate(4 127)">
<title>%3</title>
<polygon fill="#ffffff" stroke="transparent" points="-4,4 -4,-127 1994.2347,-127 1994.2347,4 -4,4"/>
<!-- configuration -->
<g id="node1" class="node">
<title>configuration</title>
<ellipse fill="none" stroke="#000000" cx="1123.8881" cy="-105" rx="73.387" ry="18"/>
<text text-anchor="middle" x="1123.8881" y="-101.3" font-family="Times,serif" font-size="14.00" fill="#000000">configuration</text>
</g>
<!-- information content entity -->
<g id="node2" class="node">
<title>information content entity</title>
<ellipse fill="none" stroke="#000000" cx="133.8881" cy="-18" rx="133.7763" ry="18"/>
<text text-anchor="middle" x="133.8881" y="-14.3" font-family="Times,serif" font-size="14.00" fill="#000000">information content entity</text>
</g>
<!-- configuration&#45;&gt;information content entity -->
<g id="edge1" class="edge">
<title>configuration&#45;&gt;information content entity</title>
<path fill="none" stroke="#000000" d="M1051.1141,-102.5559C895.0403,-97.1139 532.3914,-83.3427 409.8881,-69 343.1405,-61.1852 268.2066,-46.9886 213.2793,-35.5546"/>
<polygon fill="#000000" stroke="#000000" points="213.768,-32.081 203.2625,-33.4539 212.3312,-38.9319 213.768,-32.081"/>
<text text-anchor="middle" x="423.8881" y="-57.8" font-family="Times,serif" font-size="14.00" fill="#000000">is_a</text>
</g>
<!-- id -->
<g id="node3" class="node">
<title>id</title>
<ellipse fill="none" stroke="#0000ff" cx="323.8881" cy="-18" rx="38.1938" ry="18"/>
<text text-anchor="middle" x="323.8881" y="-14.3" font-family="Times,serif" font-size="14.00" fill="#000000">string</text>
</g>
<!-- configuration&#45;&gt;id -->
<g id="edge2" class="edge">
<title>configuration&#45;&gt;id</title>
<path fill="none" stroke="#0000ff" d="M1050.3765,-103.6729C938.9146,-100.9436 720.6681,-92.7923 536.8881,-69 462.2892,-59.3424 443.1595,-56.8596 370.8881,-36 368.0942,-35.1936 365.2323,-34.2926 362.3674,-33.3353"/>
<polygon fill="#0000ff" stroke="#0000ff" points="363.3044,-29.9543 352.7096,-29.9191 360.97,-36.5536 363.3044,-29.9543"/>
<text text-anchor="middle" x="543.8881" y="-57.8" font-family="Times,serif" font-size="14.00" fill="#000000">id</text>
</g>
<!-- name -->
<g id="node4" class="node">
<title>name</title>
<ellipse fill="none" stroke="#0000ff" cx="436.8881" cy="-18" rx="56.59" ry="18"/>
<text text-anchor="middle" x="436.8881" y="-14.3" font-family="Times,serif" font-size="14.00" fill="#000000">label type</text>
</g>
<!-- configuration&#45;&gt;name -->
<g id="edge3" class="edge">
<title>configuration&#45;&gt;name</title>
<path fill="none" stroke="#0000ff" d="M1051.5423,-101.5983C932.7653,-95.7145 701.5544,-82.9231 620.8881,-69 574.3087,-60.9603 522.5322,-46.0539 485.7998,-34.4247"/>
<polygon fill="#0000ff" stroke="#0000ff" points="486.4462,-30.9566 475.8551,-31.24 484.3112,-37.6232 486.4462,-30.9566"/>
<text text-anchor="middle" x="640.8881" y="-57.8" font-family="Times,serif" font-size="14.00" fill="#000000">name</text>
</g>
<!-- enabled -->
<g id="node5" class="node">
<title>enabled</title>
<ellipse fill="none" stroke="#0000ff" cx="557.8881" cy="-18" rx="46.5926" ry="18"/>
<text text-anchor="middle" x="557.8881" y="-14.3" font-family="Times,serif" font-size="14.00" fill="#000000">boolean</text>
</g>
<!-- configuration&#45;&gt;enabled -->
<g id="edge4" class="edge">
<title>configuration&#45;&gt;enabled</title>
<path fill="none" stroke="#0000ff" d="M1050.8392,-102.7652C970.3652,-99.2956 837.4246,-90.5822 724.8881,-69 681.9386,-60.7632 634.3638,-45.6145 601.0151,-33.9594"/>
<polygon fill="#0000ff" stroke="#0000ff" points="602.1681,-30.6548 591.5733,-30.6201 599.834,-37.2542 602.1681,-30.6548"/>
<text text-anchor="middle" x="753.3881" y="-57.8" font-family="Times,serif" font-size="14.00" fill="#000000">enabled</text>
</g>
<!-- archived -->
<g id="node6" class="node">
<title>archived</title>
<ellipse fill="none" stroke="#0000ff" cx="669.8881" cy="-18" rx="46.5926" ry="18"/>
<text text-anchor="middle" x="669.8881" y="-14.3" font-family="Times,serif" font-size="14.00" fill="#000000">boolean</text>
</g>
<!-- configuration&#45;&gt;archived -->
<g id="edge5" class="edge">
<title>configuration&#45;&gt;archived</title>
<path fill="none" stroke="#0000ff" d="M1054.9032,-98.771C998.3822,-93.0209 916.4997,-83.2088 845.8881,-69 791.6618,-58.0883 778.8967,-51.8001 725.8881,-36 722.5071,-34.9922 719.0189,-33.9287 715.5138,-32.8427"/>
<polygon fill="#0000ff" stroke="#0000ff" points="716.2558,-29.4073 705.6666,-29.7507 714.1587,-36.0858 716.2558,-29.4073"/>
<text text-anchor="middle" x="877.3881" y="-57.8" font-family="Times,serif" font-size="14.00" fill="#000000">archived</text>
</g>
<!-- description -->
<g id="node7" class="node">
<title>description</title>
<ellipse fill="none" stroke="#0000ff" cx="809.8881" cy="-18" rx="75.2868" ry="18"/>
<text text-anchor="middle" x="809.8881" y="-14.3" font-family="Times,serif" font-size="14.00" fill="#000000">narrative text</text>
</g>
<!-- configuration&#45;&gt;description -->
<g id="edge6" class="edge">
<title>configuration&#45;&gt;description</title>
<path fill="none" stroke="#0000ff" d="M1065.11,-94.1465C1032.9151,-87.7475 992.4448,-78.9606 956.8881,-69 923.9634,-59.7767 887.6602,-47.2062 859.3685,-36.8532"/>
<polygon fill="#0000ff" stroke="#0000ff" points="860.3075,-33.4692 849.7142,-33.2929 857.8855,-40.0368 860.3075,-33.4692"/>
<text text-anchor="middle" x="997.8881" y="-57.8" font-family="Times,serif" font-size="14.00" fill="#000000">description</text>
</g>
<!-- note -->
<g id="node8" class="node">
<title>note</title>
<ellipse fill="none" stroke="#0000ff" cx="978.8881" cy="-18" rx="75.2868" ry="18"/>
<text text-anchor="middle" x="978.8881" y="-14.3" font-family="Times,serif" font-size="14.00" fill="#000000">narrative text</text>
</g>
<!-- configuration&#45;&gt;note -->
<g id="edge7" class="edge">
<title>configuration&#45;&gt;note</title>
<path fill="none" stroke="#0000ff" d="M1095.9307,-88.2255C1073.2094,-74.5928 1040.9585,-55.2422 1016.0626,-40.3047"/>
<polygon fill="#0000ff" stroke="#0000ff" points="1017.6302,-37.1636 1007.2545,-35.0198 1014.0287,-43.1661 1017.6302,-37.1636"/>
<text text-anchor="middle" x="1076.8881" y="-57.8" font-family="Times,serif" font-size="14.00" fill="#000000">note</text>
</g>
<!-- category -->
<g id="node9" class="node">
<title>category</title>
<ellipse fill="none" stroke="#000000" cx="1123.8881" cy="-18" rx="51.9908" ry="18"/>
<text text-anchor="middle" x="1123.8881" y="-14.3" font-family="Times,serif" font-size="14.00" fill="#000000">category</text>
</g>
<!-- configuration&#45;&gt;category -->
<g id="edge8" class="edge">
<title>configuration&#45;&gt;category</title>
<path fill="none" stroke="#0000ff" d="M1123.8881,-86.9735C1123.8881,-75.1918 1123.8881,-59.5607 1123.8881,-46.1581"/>
<polygon fill="#0000ff" stroke="#0000ff" points="1127.3882,-46.0033 1123.8881,-36.0034 1120.3882,-46.0034 1127.3882,-46.0033"/>
<text text-anchor="middle" x="1155.8881" y="-57.8" font-family="Times,serif" font-size="14.00" fill="#000000">category</text>
</g>
<!-- license -->
<g id="node11" class="node">
<title>license</title>
<ellipse fill="none" stroke="#0000ff" cx="1231.8881" cy="-18" rx="38.1938" ry="18"/>
<text text-anchor="middle" x="1231.8881" y="-14.3" font-family="Times,serif" font-size="14.00" fill="#000000">string</text>
</g>
<!-- configuration&#45;&gt;license -->
<g id="edge9" class="edge">
<title>configuration&#45;&gt;license</title>
<path fill="none" stroke="#0000ff" d="M1160.2451,-89.3109C1171.0255,-83.7484 1182.4595,-76.8821 1191.8881,-69 1200.4351,-61.855 1208.3535,-52.609 1214.8514,-43.9557"/>
<polygon fill="#0000ff" stroke="#0000ff" points="1217.8608,-45.7651 1220.8464,-35.5996 1212.1732,-41.6845 1217.8608,-45.7651"/>
<text text-anchor="middle" x="1231.3881" y="-57.8" font-family="Times,serif" font-size="14.00" fill="#000000">license</text>
</g>
<!-- rights -->
<g id="node12" class="node">
<title>rights</title>
<ellipse fill="none" stroke="#0000ff" cx="1326.8881" cy="-18" rx="38.1938" ry="18"/>
<text text-anchor="middle" x="1326.8881" y="-14.3" font-family="Times,serif" font-size="14.00" fill="#000000">string</text>
</g>
<!-- configuration&#45;&gt;rights -->
<g id="edge10" class="edge">
<title>configuration&#45;&gt;rights</title>
<path fill="none" stroke="#0000ff" d="M1178.5716,-92.9726C1210.0841,-85.5863 1246.2708,-76.1954 1260.8881,-69 1275.772,-61.6734 1290.552,-50.6908 1302.3404,-40.7916"/>
<polygon fill="#0000ff" stroke="#0000ff" points="1304.7193,-43.3615 1309.9881,-34.1696 1300.1372,-38.0695 1304.7193,-43.3615"/>
<text text-anchor="middle" x="1306.3881" y="-57.8" font-family="Times,serif" font-size="14.00" fill="#000000">rights</text>
</g>
<!-- format -->
<g id="node13" class="node">
<title>format</title>
<ellipse fill="none" stroke="#0000ff" cx="1421.8881" cy="-18" rx="38.1938" ry="18"/>
<text text-anchor="middle" x="1421.8881" y="-14.3" font-family="Times,serif" font-size="14.00" fill="#000000">string</text>
</g>
<!-- configuration&#45;&gt;format -->
<g id="edge11" class="edge">
<title>configuration&#45;&gt;format</title>
<path fill="none" stroke="#0000ff" d="M1177.586,-92.615C1186.9946,-90.6161 1196.7091,-88.6607 1205.8881,-87 1261.5529,-76.9287 1278.3485,-87.2623 1331.8881,-69 1352.9706,-61.8088 1374.7506,-49.6142 1391.6034,-38.9526"/>
<polygon fill="#0000ff" stroke="#0000ff" points="1393.9404,-41.6084 1400.4235,-33.2286 1390.1298,-35.7365 1393.9404,-41.6084"/>
<text text-anchor="middle" x="1390.3881" y="-57.8" font-family="Times,serif" font-size="14.00" fill="#000000">format</text>
</g>
<!-- creation date -->
<g id="node14" class="node">
<title>creation date</title>
<ellipse fill="none" stroke="#0000ff" cx="1509.8881" cy="-18" rx="31.3957" ry="18"/>
<text text-anchor="middle" x="1509.8881" y="-14.3" font-family="Times,serif" font-size="14.00" fill="#000000">date</text>
</g>
<!-- configuration&#45;&gt;creation date -->
<g id="edge12" class="edge">
<title>configuration&#45;&gt;creation date</title>
<path fill="none" stroke="#0000ff" d="M1176.6299,-92.351C1186.3196,-90.333 1196.3769,-88.4394 1205.8881,-87 1299.8226,-72.7844 1328.0591,-96.8545 1418.8881,-69 1441.4472,-62.0818 1464.6148,-48.9954 1481.9281,-37.8113"/>
<polygon fill="#0000ff" stroke="#0000ff" points="1484.0178,-40.6251 1490.414,-32.1789 1480.1467,-34.7929 1484.0178,-40.6251"/>
<text text-anchor="middle" x="1501.8881" y="-57.8" font-family="Times,serif" font-size="14.00" fill="#000000">creation date</text>
</g>
<!-- has part -->
<g id="node15" class="node">
<title>has part</title>
<ellipse fill="none" stroke="#0000ff" cx="1628.8881" cy="-18" rx="69.5877" ry="18"/>
<text text-anchor="middle" x="1628.8881" y="-14.3" font-family="Times,serif" font-size="14.00" fill="#000000">named thing</text>
</g>
<!-- configuration&#45;&gt;has part -->
<g id="edge13" class="edge">
<title>configuration&#45;&gt;has part</title>
<path fill="none" stroke="#0000ff" d="M1176.1528,-92.1849C1185.9814,-90.1576 1196.2102,-88.3035 1205.8881,-87 1282.6319,-76.6636 1480.491,-93.6842 1553.8881,-69 1571.315,-63.1392 1588.4476,-52.0147 1601.9289,-41.6475"/>
<polygon fill="#0000ff" stroke="#0000ff" points="1604.1916,-44.3196 1609.8211,-35.3441 1599.8231,-38.85 1604.1916,-44.3196"/>
<text text-anchor="middle" x="1612.8881" y="-57.8" font-family="Times,serif" font-size="14.00" fill="#000000">has part</text>
</g>
<!-- has quantitative value -->
<g id="node16" class="node">
<title>has quantitative value</title>
<ellipse fill="none" stroke="#0000ff" cx="1793.8881" cy="-18" rx="77.1866" ry="18"/>
<text text-anchor="middle" x="1793.8881" y="-14.3" font-family="Times,serif" font-size="14.00" fill="#000000">quantity value</text>
</g>
<!-- configuration&#45;&gt;has quantitative value -->
<g id="edge14" class="edge">
<title>configuration&#45;&gt;has quantitative value</title>
<path fill="none" stroke="#0000ff" d="M1175.7016,-92.1893C1185.6655,-90.1346 1196.0587,-88.2695 1205.8881,-87 1400.4355,-61.8741 1454.1582,-105.5403 1646.8881,-69 1681.8208,-62.377 1719.6913,-49.0828 1748.2444,-37.728"/>
<polygon fill="#0000ff" stroke="#0000ff" points="1749.594,-40.9577 1757.5527,-33.9641 1746.9698,-34.4681 1749.594,-40.9577"/>
<text text-anchor="middle" x="1780.8881" y="-57.8" font-family="Times,serif" font-size="14.00" fill="#000000">has quantitative value</text>
</g>
<!-- version -->
<g id="node17" class="node">
<title>version</title>
<ellipse fill="none" stroke="#0000ff" cx="1951.8881" cy="-18" rx="38.1938" ry="18"/>
<text text-anchor="middle" x="1951.8881" y="-14.3" font-family="Times,serif" font-size="14.00" fill="#000000">string</text>
</g>
<!-- configuration&#45;&gt;version -->
<g id="edge15" class="edge">
<title>configuration&#45;&gt;version</title>
<path fill="none" stroke="#0000ff" d="M1175.6881,-92.082C1185.6533,-90.0372 1196.0504,-88.2032 1205.8881,-87 1278.5959,-78.1078 1794.4662,-89.1557 1864.8881,-69 1886.0493,-62.9434 1907.4081,-50.5358 1923.667,-39.4758"/>
<polygon fill="#0000ff" stroke="#0000ff" points="1925.9731,-42.133 1932.1414,-33.5188 1921.9476,-36.4063 1925.9731,-42.133"/>
<text text-anchor="middle" x="1923.3881" y="-57.8" font-family="Times,serif" font-size="14.00" fill="#000000">version</text>
</g>
<!-- named thing_category -->
<g id="node10" class="node">
<title>named thing_category</title>
<ellipse fill="none" stroke="#0000ff" cx="1284.8881" cy="-105" rx="69.5877" ry="18"/>
<text text-anchor="middle" x="1284.8881" y="-101.3" font-family="Times,serif" font-size="14.00" fill="#000000">named thing</text>
</g>
</g>
</svg>
