<?xml version="1.0" encoding="UTF-8" standalone="no"?>
<!DOCTYPE svg PUBLIC "-//W3C//DTD SVG 1.1//EN"
 "http://www.w3.org/Graphics/SVG/1.1/DTD/svg11.dtd">
<!-- Generated by graphviz version 2.40.1 (20161225.0304)
 -->
<!-- Title: %3 Pages: 1 -->
<svg width="1632pt" height="131pt"
 viewBox="0.00 0.00 1631.99 131.00" xmlns="http://www.w3.org/2000/svg" xmlns:xlink="http://www.w3.org/1999/xlink">
<g id="graph0" class="graph" transform="scale(1 1) rotate(0) translate(4 127)">
<title>%3</title>
<polygon fill="#ffffff" stroke="transparent" points="-4,4 -4,-127 1627.9873,-127 1627.9873,4 -4,4"/>
<!-- consumed resource -->
<g id="node1" class="node">
<title>consumed resource</title>
<ellipse fill="none" stroke="#000000" cx="737.4937" cy="-105" rx="102.0819" ry="18"/>
<text text-anchor="middle" x="737.4937" y="-101.3" font-family="Times,serif" font-size="14.00" fill="#000000">consumed resource</text>
</g>
<!-- control actor -->
<g id="node2" class="node">
<title>control actor</title>
<ellipse fill="none" stroke="#000000" cx="71.4937" cy="-18" rx="71.4873" ry="18"/>
<text text-anchor="middle" x="71.4937" y="-14.3" font-family="Times,serif" font-size="14.00" fill="#000000">control actor</text>
</g>
<!-- consumed resource&#45;&gt;control actor -->
<g id="edge1" class="edge">
<title>consumed resource&#45;&gt;control actor</title>
<path fill="none" stroke="#000000" d="M638.3878,-100.4815C550.1445,-95.5792 417.7146,-86.0612 303.4937,-69 235.1228,-58.7875 218.9935,-50.9208 151.4937,-36 146.1072,-34.8093 140.5184,-33.5667 134.912,-32.3151"/>
<polygon fill="#000000" stroke="#000000" points="135.3643,-28.8298 124.8414,-30.0619 133.8359,-35.6609 135.3643,-28.8298"/>
<text text-anchor="middle" x="317.4937" y="-57.8" font-family="Times,serif" font-size="14.00" fill="#000000">is_a</text>
</g>
<!-- cluster -->
<g id="node3" class="node">
<title>cluster</title>
<ellipse fill="none" stroke="#000000" cx="204.4937" cy="-18" rx="43.5923" ry="18"/>
<text text-anchor="middle" x="204.4937" y="-14.3" font-family="Times,serif" font-size="14.00" fill="#000000">cluster</text>
</g>
<!-- consumed resource&#45;&gt;cluster -->
<g id="edge2" class="edge">
<title>consumed resource&#45;&gt;cluster</title>
<path fill="none" stroke="#000000" d="M642.795,-98.0812C545.0016,-89.3869 388.6235,-71.1388 257.4937,-36 254.1058,-35.0921 250.6196,-34.0825 247.1303,-33.0177"/>
<polygon fill="#000000" stroke="#000000" points="247.9576,-29.6081 237.3671,-29.9102 245.8345,-36.2784 247.9576,-29.6081"/>
<text text-anchor="middle" x="417.9937" y="-57.8" font-family="Times,serif" font-size="14.00" fill="#000000">uses</text>
</g>
<!-- application -->
<g id="node4" class="node">
<title>application</title>
<ellipse fill="none" stroke="#000000" cx="328.4937" cy="-18" rx="62.2891" ry="18"/>
<text text-anchor="middle" x="328.4937" y="-14.3" font-family="Times,serif" font-size="14.00" fill="#000000">application</text>
</g>
<!-- consumed resource&#45;&gt;application -->
<g id="edge3" class="edge">
<title>consumed resource&#45;&gt;application</title>
<path fill="none" stroke="#000000" d="M657.1833,-93.8573C615.3455,-87.5486 563.4556,-78.935 517.4937,-69 471.1429,-58.981 419.1717,-44.7328 381.4765,-33.8421"/>
<polygon fill="#000000" stroke="#000000" points="382.3067,-30.4386 371.7272,-31.0083 380.3528,-37.1604 382.3067,-30.4386"/>
<text text-anchor="middle" x="533.9937" y="-57.8" font-family="Times,serif" font-size="14.00" fill="#000000">uses</text>
</g>
<!-- id -->
<g id="node5" class="node">
<title>id</title>
<ellipse fill="none" stroke="#0000ff" cx="447.4937" cy="-18" rx="38.1938" ry="18"/>
<text text-anchor="middle" x="447.4937" y="-14.3" font-family="Times,serif" font-size="14.00" fill="#000000">string</text>
</g>
<!-- consumed resource&#45;&gt;id -->
<g id="edge4" class="edge">
<title>consumed resource&#45;&gt;id</title>
<path fill="none" stroke="#0000ff" d="M679.6082,-90.1199C630.0961,-77.0223 557.1202,-56.8377 494.4937,-36 491.9015,-35.1375 489.2414,-34.2172 486.5688,-33.2661"/>
<polygon fill="#0000ff" stroke="#0000ff" points="487.5274,-29.8898 476.9337,-29.735 485.1187,-36.4623 487.5274,-29.8898"/>
<text text-anchor="middle" x="608.4937" y="-57.8" font-family="Times,serif" font-size="14.00" fill="#000000">id</text>
</g>
<!-- name -->
<g id="node6" class="node">
<title>name</title>
<ellipse fill="none" stroke="#0000ff" cx="560.4937" cy="-18" rx="56.59" ry="18"/>
<text text-anchor="middle" x="560.4937" y="-14.3" font-family="Times,serif" font-size="14.00" fill="#000000">label type</text>
</g>
<!-- consumed resource&#45;&gt;name -->
<g id="edge5" class="edge">
<title>consumed resource&#45;&gt;name</title>
<path fill="none" stroke="#0000ff" d="M701.9558,-88.0862C689.4595,-82.1005 675.334,-75.2912 662.4937,-69 641.7143,-58.8189 618.6482,-47.304 599.7145,-37.7953"/>
<polygon fill="#0000ff" stroke="#0000ff" points="601.2864,-34.6682 590.7799,-33.3031 598.142,-40.9222 601.2864,-34.6682"/>
<text text-anchor="middle" x="682.4937" y="-57.8" font-family="Times,serif" font-size="14.00" fill="#000000">name</text>
</g>
<!-- enabled -->
<g id="node7" class="node">
<title>enabled</title>
<ellipse fill="none" stroke="#0000ff" cx="681.4937" cy="-18" rx="46.5926" ry="18"/>
<text text-anchor="middle" x="681.4937" y="-14.3" font-family="Times,serif" font-size="14.00" fill="#000000">boolean</text>
</g>
<!-- consumed resource&#45;&gt;enabled -->
<g id="edge6" class="edge">
<title>consumed resource&#45;&gt;enabled</title>
<path fill="none" stroke="#0000ff" d="M725.8904,-86.9735C717.9539,-74.6435 707.3036,-58.0975 698.4238,-44.3021"/>
<polygon fill="#0000ff" stroke="#0000ff" points="701.246,-42.22 692.8904,-35.7057 695.3599,-46.0087 701.246,-42.22"/>
<text text-anchor="middle" x="741.9937" y="-57.8" font-family="Times,serif" font-size="14.00" fill="#000000">enabled</text>
</g>
<!-- archived -->
<g id="node8" class="node">
<title>archived</title>
<ellipse fill="none" stroke="#0000ff" cx="793.4937" cy="-18" rx="46.5926" ry="18"/>
<text text-anchor="middle" x="793.4937" y="-14.3" font-family="Times,serif" font-size="14.00" fill="#000000">boolean</text>
</g>
<!-- consumed resource&#45;&gt;archived -->
<g id="edge7" class="edge">
<title>consumed resource&#45;&gt;archived</title>
<path fill="none" stroke="#0000ff" d="M756.8298,-87.0019C762.0176,-81.5483 767.3348,-75.3195 771.4937,-69 776.19,-61.8637 780.2706,-53.5588 783.5993,-45.7487"/>
<polygon fill="#0000ff" stroke="#0000ff" points="786.9362,-46.8304 787.4031,-36.2458 780.4375,-44.229 786.9362,-46.8304"/>
<text text-anchor="middle" x="811.9937" y="-57.8" font-family="Times,serif" font-size="14.00" fill="#000000">archived</text>
</g>
<!-- description -->
<g id="node9" class="node">
<title>description</title>
<ellipse fill="none" stroke="#0000ff" cx="933.4937" cy="-18" rx="75.2868" ry="18"/>
<text text-anchor="middle" x="933.4937" y="-14.3" font-family="Times,serif" font-size="14.00" fill="#000000">narrative text</text>
</g>
<!-- consumed resource&#45;&gt;description -->
<g id="edge8" class="edge">
<title>consumed resource&#45;&gt;description</title>
<path fill="none" stroke="#0000ff" d="M792.1016,-89.7275C810.065,-84.0218 829.9258,-76.9674 847.4937,-69 865.2019,-60.9689 883.8787,-50.2016 899.2862,-40.6302"/>
<polygon fill="#0000ff" stroke="#0000ff" points="901.36,-43.4601 907.948,-35.1626 897.6235,-37.5407 901.36,-43.4601"/>
<text text-anchor="middle" x="915.4937" y="-57.8" font-family="Times,serif" font-size="14.00" fill="#000000">description</text>
</g>
<!-- note -->
<g id="node10" class="node">
<title>note</title>
<ellipse fill="none" stroke="#0000ff" cx="1102.4937" cy="-18" rx="75.2868" ry="18"/>
<text text-anchor="middle" x="1102.4937" y="-14.3" font-family="Times,serif" font-size="14.00" fill="#000000">narrative text</text>
</g>
<!-- consumed resource&#45;&gt;note -->
<g id="edge9" class="edge">
<title>consumed resource&#45;&gt;note</title>
<path fill="none" stroke="#0000ff" d="M812.7241,-92.7857C824.6891,-90.8474 836.9298,-88.8668 848.4937,-87 898.2658,-78.9649 911.6705,-81.5748 960.4937,-69 992.8288,-60.6718 1028.1695,-47.9926 1055.5056,-37.3603"/>
<polygon fill="#0000ff" stroke="#0000ff" points="1056.7981,-40.613 1064.8228,-33.6953 1054.2357,-34.0988 1056.7981,-40.613"/>
<text text-anchor="middle" x="1024.4937" y="-57.8" font-family="Times,serif" font-size="14.00" fill="#000000">note</text>
</g>
<!-- category -->
<g id="node11" class="node">
<title>category</title>
<ellipse fill="none" stroke="#000000" cx="1247.4937" cy="-18" rx="51.9908" ry="18"/>
<text text-anchor="middle" x="1247.4937" y="-14.3" font-family="Times,serif" font-size="14.00" fill="#000000">category</text>
</g>
<!-- consumed resource&#45;&gt;category -->
<g id="edge10" class="edge">
<title>consumed resource&#45;&gt;category</title>
<path fill="none" stroke="#0000ff" d="M810.5316,-92.4192C823.1687,-90.4536 836.1954,-88.56 848.4937,-87 935.276,-75.9921 958.1327,-82.9334 1044.4937,-69 1108.4594,-58.6798 1123.8393,-52.5092 1186.4937,-36 1190.3475,-34.9845 1194.3272,-33.8976 1198.3207,-32.7795"/>
<polygon fill="#0000ff" stroke="#0000ff" points="1199.555,-36.0672 1208.2119,-29.9592 1197.6355,-29.3355 1199.555,-36.0672"/>
<text text-anchor="middle" x="1150.4937" y="-57.8" font-family="Times,serif" font-size="14.00" fill="#000000">category</text>
</g>
<!-- in taxon -->
<g id="node13" class="node">
<title>in taxon</title>
<ellipse fill="none" stroke="#0000ff" cx="1390.4937" cy="-18" rx="72.5877" ry="18"/>
<text text-anchor="middle" x="1390.4937" y="-14.3" font-family="Times,serif" font-size="14.00" fill="#000000">system taxon</text>
</g>
<!-- consumed resource&#45;&gt;in taxon -->
<g id="edge11" class="edge">
<title>consumed resource&#45;&gt;in taxon</title>
<path fill="none" stroke="#0000ff" d="M809.2913,-92.2004C822.3049,-90.2105 835.7795,-88.3654 848.4937,-87 998.0687,-70.9366 1037.7274,-91.3456 1186.4937,-69 1237.5218,-61.3353 1294.3907,-46.5871 1335.0948,-34.9141"/>
<polygon fill="#0000ff" stroke="#0000ff" points="1336.1908,-38.2405 1344.8212,-32.0951 1334.2421,-31.5172 1336.1908,-38.2405"/>
<text text-anchor="middle" x="1289.4937" y="-57.8" font-family="Times,serif" font-size="14.00" fill="#000000">in taxon</text>
</g>
<!-- has control actor -->
<g id="node14" class="node">
<title>has control actor</title>
<ellipse fill="none" stroke="#0000ff" cx="1552.4937" cy="-18" rx="71.4873" ry="18"/>
<text text-anchor="middle" x="1552.4937" y="-14.3" font-family="Times,serif" font-size="14.00" fill="#000000">control actor</text>
</g>
<!-- consumed resource&#45;&gt;has control actor -->
<g id="edge12" class="edge">
<title>consumed resource&#45;&gt;has control actor</title>
<path fill="none" stroke="#0000ff" d="M808.9766,-92.0845C822.0841,-90.0936 835.6723,-88.2781 848.4937,-87 1058.2724,-66.0876 1113.3798,-95.755 1322.4937,-69 1381.645,-61.4319 1448.0244,-45.9414 1494.2114,-34.0076"/>
<polygon fill="#0000ff" stroke="#0000ff" points="1495.2491,-37.3541 1504.0414,-31.4426 1493.4817,-30.5809 1495.2491,-37.3541"/>
<text text-anchor="middle" x="1466.9937" y="-57.8" font-family="Times,serif" font-size="14.00" fill="#000000">has control actor</text>
</g>
<!-- named thing_category -->
<g id="node12" class="node">
<title>named thing_category</title>
<ellipse fill="none" stroke="#0000ff" cx="927.4937" cy="-105" rx="69.5877" ry="18"/>
<text text-anchor="middle" x="927.4937" y="-101.3" font-family="Times,serif" font-size="14.00" fill="#000000">named thing</text>
</g>
</g>
</svg>
