<?xml version="1.0" encoding="UTF-8" standalone="no"?>
<!DOCTYPE svg PUBLIC "-//W3C//DTD SVG 1.1//EN"
 "http://www.w3.org/Graphics/SVG/1.1/DTD/svg11.dtd">
<!-- Generated by graphviz version 2.40.1 (20161225.0304)
 -->
<!-- Title: %3 Pages: 1 -->
<svg width="1267pt" height="131pt"
 viewBox="0.00 0.00 1267.39 131.00" xmlns="http://www.w3.org/2000/svg" xmlns:xlink="http://www.w3.org/1999/xlink">
<g id="graph0" class="graph" transform="scale(1 1) rotate(0) translate(4 127)">
<title>%3</title>
<polygon fill="#ffffff" stroke="transparent" points="-4,4 -4,-127 1263.3852,-127 1263.3852,4 -4,4"/>
<!-- control actor -->
<g id="node1" class="node">
<title>control actor</title>
<ellipse fill="none" stroke="#000000" cx="589.5917" cy="-105" rx="71.4873" ry="18"/>
<text text-anchor="middle" x="589.5917" y="-101.3" font-family="Times,serif" font-size="14.00" fill="#000000">control actor</text>
</g>
<!-- operational entity -->
<g id="node2" class="node">
<title>operational entity</title>
<ellipse fill="none" stroke="#000000" cx="93.5917" cy="-18" rx="93.6835" ry="18"/>
<text text-anchor="middle" x="93.5917" y="-14.3" font-family="Times,serif" font-size="14.00" fill="#000000">operational entity</text>
</g>
<!-- control actor&#45;&gt;operational entity -->
<g id="edge1" class="edge">
<title>control actor&#45;&gt;operational entity</title>
<path fill="none" stroke="#000000" d="M524.0377,-97.678C470.052,-91.2767 391.6068,-81.1214 323.5917,-69 268.6345,-59.2057 206.9015,-45.3585 161.2389,-34.564"/>
<polygon fill="#000000" stroke="#000000" points="161.9942,-31.1461 151.456,-32.2399 160.3762,-37.9565 161.9942,-31.1461"/>
<text text-anchor="middle" x="337.5917" y="-57.8" font-family="Times,serif" font-size="14.00" fill="#000000">is_a</text>
</g>
<!-- id -->
<g id="node3" class="node">
<title>id</title>
<ellipse fill="none" stroke="#0000ff" cx="243.5917" cy="-18" rx="38.1938" ry="18"/>
<text text-anchor="middle" x="243.5917" y="-14.3" font-family="Times,serif" font-size="14.00" fill="#000000">string</text>
</g>
<!-- control actor&#45;&gt;id -->
<g id="edge2" class="edge">
<title>control actor&#45;&gt;id</title>
<path fill="none" stroke="#0000ff" d="M531.2094,-94.5497C470.3646,-82.9592 372.63,-62.365 290.5917,-36 287.8621,-35.1228 285.0602,-34.1747 282.2492,-33.1884"/>
<polygon fill="#0000ff" stroke="#0000ff" points="283.3434,-29.8622 272.7493,-29.7349 280.9517,-36.4409 283.3434,-29.8622"/>
<text text-anchor="middle" x="411.5917" y="-57.8" font-family="Times,serif" font-size="14.00" fill="#000000">id</text>
</g>
<!-- name -->
<g id="node4" class="node">
<title>name</title>
<ellipse fill="none" stroke="#0000ff" cx="356.5917" cy="-18" rx="56.59" ry="18"/>
<text text-anchor="middle" x="356.5917" y="-14.3" font-family="Times,serif" font-size="14.00" fill="#000000">label type</text>
</g>
<!-- control actor&#45;&gt;name -->
<g id="edge3" class="edge">
<title>control actor&#45;&gt;name</title>
<path fill="none" stroke="#0000ff" d="M540.217,-91.9791C518.0792,-85.7155 491.7856,-77.6837 468.5917,-69 444.0157,-59.7989 417.2406,-47.6871 396.0337,-37.5756"/>
<polygon fill="#0000ff" stroke="#0000ff" points="397.5387,-34.4157 387.01,-33.234 394.5037,-40.7236 397.5387,-34.4157"/>
<text text-anchor="middle" x="488.5917" y="-57.8" font-family="Times,serif" font-size="14.00" fill="#000000">name</text>
</g>
<!-- enabled -->
<g id="node5" class="node">
<title>enabled</title>
<ellipse fill="none" stroke="#0000ff" cx="477.5917" cy="-18" rx="46.5926" ry="18"/>
<text text-anchor="middle" x="477.5917" y="-14.3" font-family="Times,serif" font-size="14.00" fill="#000000">boolean</text>
</g>
<!-- control actor&#45;&gt;enabled -->
<g id="edge4" class="edge">
<title>control actor&#45;&gt;enabled</title>
<path fill="none" stroke="#0000ff" d="M558.5149,-88.6842C548.6067,-82.9583 537.8257,-76.1559 528.5917,-69 518.4869,-61.1693 508.3305,-51.4732 499.7707,-42.6449"/>
<polygon fill="#0000ff" stroke="#0000ff" points="502.1182,-40.0335 492.701,-35.1788 497.0353,-44.8466 502.1182,-40.0335"/>
<text text-anchor="middle" x="557.0917" y="-57.8" font-family="Times,serif" font-size="14.00" fill="#000000">enabled</text>
</g>
<!-- archived -->
<g id="node6" class="node">
<title>archived</title>
<ellipse fill="none" stroke="#0000ff" cx="589.5917" cy="-18" rx="46.5926" ry="18"/>
<text text-anchor="middle" x="589.5917" y="-14.3" font-family="Times,serif" font-size="14.00" fill="#000000">boolean</text>
</g>
<!-- control actor&#45;&gt;archived -->
<g id="edge5" class="edge">
<title>control actor&#45;&gt;archived</title>
<path fill="none" stroke="#0000ff" d="M589.5917,-86.9735C589.5917,-75.1918 589.5917,-59.5607 589.5917,-46.1581"/>
<polygon fill="#0000ff" stroke="#0000ff" points="593.0918,-46.0033 589.5917,-36.0034 586.0918,-46.0034 593.0918,-46.0033"/>
<text text-anchor="middle" x="621.0917" y="-57.8" font-family="Times,serif" font-size="14.00" fill="#000000">archived</text>
</g>
<!-- description -->
<g id="node7" class="node">
<title>description</title>
<ellipse fill="none" stroke="#0000ff" cx="729.5917" cy="-18" rx="75.2868" ry="18"/>
<text text-anchor="middle" x="729.5917" y="-14.3" font-family="Times,serif" font-size="14.00" fill="#000000">narrative text</text>
</g>
<!-- control actor&#45;&gt;description -->
<g id="edge6" class="edge">
<title>control actor&#45;&gt;description</title>
<path fill="none" stroke="#0000ff" d="M621.7176,-88.7153C632.914,-82.7844 645.4567,-75.8488 656.5917,-69 670.501,-60.4447 685.3598,-50.2672 698.0165,-41.2624"/>
<polygon fill="#0000ff" stroke="#0000ff" points="700.3076,-43.9262 706.3884,-35.2501 696.2243,-38.2405 700.3076,-43.9262"/>
<text text-anchor="middle" x="720.5917" y="-57.8" font-family="Times,serif" font-size="14.00" fill="#000000">description</text>
</g>
<!-- note -->
<g id="node8" class="node">
<title>note</title>
<ellipse fill="none" stroke="#0000ff" cx="898.5917" cy="-18" rx="75.2868" ry="18"/>
<text text-anchor="middle" x="898.5917" y="-14.3" font-family="Times,serif" font-size="14.00" fill="#000000">narrative text</text>
</g>
<!-- control actor&#45;&gt;note -->
<g id="edge7" class="edge">
<title>control actor&#45;&gt;note</title>
<path fill="none" stroke="#0000ff" d="M642.4636,-92.8219C651.5021,-90.8209 660.8077,-88.8111 669.5917,-87 712.1076,-78.234 723.8216,-80.8195 765.5917,-69 795.3424,-60.5816 827.7569,-48.2214 853.137,-37.7777"/>
<polygon fill="#0000ff" stroke="#0000ff" points="854.6121,-40.9548 862.4995,-33.881 851.9223,-34.4922 854.6121,-40.9548"/>
<text text-anchor="middle" x="826.5917" y="-57.8" font-family="Times,serif" font-size="14.00" fill="#000000">note</text>
</g>
<!-- category -->
<g id="node9" class="node">
<title>category</title>
<ellipse fill="none" stroke="#000000" cx="1043.5917" cy="-18" rx="51.9908" ry="18"/>
<text text-anchor="middle" x="1043.5917" y="-14.3" font-family="Times,serif" font-size="14.00" fill="#000000">category</text>
</g>
<!-- control actor&#45;&gt;category -->
<g id="edge8" class="edge">
<title>control actor&#45;&gt;category</title>
<path fill="none" stroke="#0000ff" d="M641.0561,-92.4664C650.5085,-90.4367 660.3179,-88.5093 669.5917,-87 747.6373,-74.2985 768.6551,-82.354 846.5917,-69 907.8967,-58.4957 922.5238,-52.1398 982.5917,-36 986.4406,-34.9658 990.4167,-33.8655 994.4077,-32.7382"/>
<polygon fill="#0000ff" stroke="#0000ff" points="995.6473,-36.0238 1004.2949,-29.9027 993.7175,-29.2951 995.6473,-36.0238"/>
<text text-anchor="middle" x="949.5917" y="-57.8" font-family="Times,serif" font-size="14.00" fill="#000000">category</text>
</g>
<!-- in taxon -->
<g id="node11" class="node">
<title>in taxon</title>
<ellipse fill="none" stroke="#0000ff" cx="1186.5917" cy="-18" rx="72.5877" ry="18"/>
<text text-anchor="middle" x="1186.5917" y="-14.3" font-family="Times,serif" font-size="14.00" fill="#000000">system taxon</text>
</g>
<!-- control actor&#45;&gt;in taxon -->
<g id="edge9" class="edge">
<title>control actor&#45;&gt;in taxon</title>
<path fill="none" stroke="#0000ff" d="M640.5748,-92.2161C650.1643,-90.1858 660.1456,-88.3226 669.5917,-87 808.9049,-67.4945 846.5563,-90.3964 985.5917,-69 1035.616,-61.3017 1091.315,-46.678 1131.3696,-35.057"/>
<polygon fill="#0000ff" stroke="#0000ff" points="1132.5921,-38.3459 1141.203,-32.1732 1130.6221,-31.6288 1132.5921,-38.3459"/>
<text text-anchor="middle" x="1087.5917" y="-57.8" font-family="Times,serif" font-size="14.00" fill="#000000">in taxon</text>
</g>
<!-- named thing_category -->
<g id="node10" class="node">
<title>named thing_category</title>
<ellipse fill="none" stroke="#0000ff" cx="748.5917" cy="-105" rx="69.5877" ry="18"/>
<text text-anchor="middle" x="748.5917" y="-101.3" font-family="Times,serif" font-size="14.00" fill="#000000">named thing</text>
</g>
</g>
</svg>
