<?xml version="1.0" encoding="UTF-8" standalone="no"?>
<!DOCTYPE svg PUBLIC "-//W3C//DTD SVG 1.1//EN"
 "http://www.w3.org/Graphics/SVG/1.1/DTD/svg11.dtd">
<!-- Generated by graphviz version 2.40.1 (20161225.0304)
 -->
<!-- Title: %3 Pages: 1 -->
<svg width="1229pt" height="131pt"
 viewBox="0.00 0.00 1228.54 131.00" xmlns="http://www.w3.org/2000/svg" xmlns:xlink="http://www.w3.org/1999/xlink">
<g id="graph0" class="graph" transform="scale(1 1) rotate(0) translate(4 127)">
<title>%3</title>
<polygon fill="#ffffff" stroke="transparent" points="-4,4 -4,-127 1224.5392,-127 1224.5392,4 -4,4"/>
<!-- cyber entity -->
<g id="node1" class="node">
<title>cyber entity</title>
<ellipse fill="none" stroke="#000000" cx="602.5438" cy="-105" rx="67.6881" ry="18"/>
<text text-anchor="middle" x="602.5438" y="-101.3" font-family="Times,serif" font-size="14.00" fill="#000000">cyber entity</text>
</g>
<!-- named thing -->
<g id="node2" class="node">
<title>named thing</title>
<ellipse fill="none" stroke="#000000" cx="69.5438" cy="-18" rx="69.5877" ry="18"/>
<text text-anchor="middle" x="69.5438" y="-14.3" font-family="Times,serif" font-size="14.00" fill="#000000">named thing</text>
</g>
<!-- cyber entity&#45;&gt;named thing -->
<g id="edge1" class="edge">
<title>cyber entity&#45;&gt;named thing</title>
<path fill="none" stroke="#000000" d="M540.9092,-97.4906C453.2926,-86.3947 287.8888,-63.8921 148.5438,-36 142.8886,-34.868 137.0185,-33.6369 131.1474,-32.3675"/>
<polygon fill="#000000" stroke="#000000" points="131.8215,-28.9322 121.3034,-30.2057 130.3199,-35.7693 131.8215,-28.9322"/>
<text text-anchor="middle" x="349.5438" y="-57.8" font-family="Times,serif" font-size="14.00" fill="#000000">is_a</text>
</g>
<!-- cyber essence -->
<g id="node3" class="node">
<title>cyber essence</title>
<ellipse fill="none" stroke="#000000" cx="234.5438" cy="-18" rx="77.1866" ry="18"/>
<text text-anchor="middle" x="234.5438" y="-14.3" font-family="Times,serif" font-size="14.00" fill="#000000">cyber essence</text>
</g>
<!-- cyber entity&#45;&gt;cyber essence -->
<g id="edge2" class="edge">
<title>cyber entity&#45;&gt;cyber essence</title>
<path fill="none" stroke="#000000" d="M547.7835,-94.2399C513.9173,-87.4117 469.6016,-78.1633 430.5438,-69 384.8228,-58.2734 333.4576,-44.8571 294.7833,-34.4776"/>
<polygon fill="#000000" stroke="#000000" points="295.2985,-30.9917 284.7324,-31.7718 293.4788,-37.7511 295.2985,-30.9917"/>
<text text-anchor="middle" x="447.0438" y="-57.8" font-family="Times,serif" font-size="14.00" fill="#000000">uses</text>
</g>
<!-- id -->
<g id="node4" class="node">
<title>id</title>
<ellipse fill="none" stroke="#0000ff" cx="368.5438" cy="-18" rx="38.1938" ry="18"/>
<text text-anchor="middle" x="368.5438" y="-14.3" font-family="Times,serif" font-size="14.00" fill="#000000">string</text>
</g>
<!-- cyber entity&#45;&gt;id -->
<g id="edge3" class="edge">
<title>cyber entity&#45;&gt;id</title>
<path fill="none" stroke="#0000ff" d="M562.3651,-90.3362C524.4608,-76.4642 466.0741,-54.9976 415.5438,-36 413.0238,-35.0525 410.4294,-34.0724 407.8153,-33.0812"/>
<polygon fill="#0000ff" stroke="#0000ff" points="408.9499,-29.7681 398.3589,-29.4817 406.4597,-36.3102 408.9499,-29.7681"/>
<text text-anchor="middle" x="509.5438" y="-57.8" font-family="Times,serif" font-size="14.00" fill="#000000">id</text>
</g>
<!-- name -->
<g id="node5" class="node">
<title>name</title>
<ellipse fill="none" stroke="#0000ff" cx="481.5438" cy="-18" rx="56.59" ry="18"/>
<text text-anchor="middle" x="481.5438" y="-14.3" font-family="Times,serif" font-size="14.00" fill="#000000">label type</text>
</g>
<!-- cyber entity&#45;&gt;name -->
<g id="edge4" class="edge">
<title>cyber entity&#45;&gt;name</title>
<path fill="none" stroke="#0000ff" d="M578.9266,-88.019C560.067,-74.4588 533.4749,-55.3389 512.8431,-40.5044"/>
<polygon fill="#0000ff" stroke="#0000ff" points="514.8529,-37.6387 504.6905,-34.6426 510.7664,-43.3221 514.8529,-37.6387"/>
<text text-anchor="middle" x="569.5438" y="-57.8" font-family="Times,serif" font-size="14.00" fill="#000000">name</text>
</g>
<!-- enabled -->
<g id="node6" class="node">
<title>enabled</title>
<ellipse fill="none" stroke="#0000ff" cx="602.5438" cy="-18" rx="46.5926" ry="18"/>
<text text-anchor="middle" x="602.5438" y="-14.3" font-family="Times,serif" font-size="14.00" fill="#000000">boolean</text>
</g>
<!-- cyber entity&#45;&gt;enabled -->
<g id="edge5" class="edge">
<title>cyber entity&#45;&gt;enabled</title>
<path fill="none" stroke="#0000ff" d="M602.5438,-86.9735C602.5438,-75.1918 602.5438,-59.5607 602.5438,-46.1581"/>
<polygon fill="#0000ff" stroke="#0000ff" points="606.0439,-46.0033 602.5438,-36.0034 599.0439,-46.0034 606.0439,-46.0033"/>
<text text-anchor="middle" x="631.0438" y="-57.8" font-family="Times,serif" font-size="14.00" fill="#000000">enabled</text>
</g>
<!-- archived -->
<g id="node7" class="node">
<title>archived</title>
<ellipse fill="none" stroke="#0000ff" cx="714.5438" cy="-18" rx="46.5926" ry="18"/>
<text text-anchor="middle" x="714.5438" y="-14.3" font-family="Times,serif" font-size="14.00" fill="#000000">boolean</text>
</g>
<!-- cyber entity&#45;&gt;archived -->
<g id="edge6" class="edge">
<title>cyber entity&#45;&gt;archived</title>
<path fill="none" stroke="#0000ff" d="M633.3081,-88.8647C643.3017,-83.1015 654.2126,-76.2312 663.5438,-69 673.6486,-61.1693 683.805,-51.4732 692.3648,-42.6449"/>
<polygon fill="#0000ff" stroke="#0000ff" points="695.1002,-44.8466 699.4345,-35.1788 690.0173,-40.0335 695.1002,-44.8466"/>
<text text-anchor="middle" x="712.0438" y="-57.8" font-family="Times,serif" font-size="14.00" fill="#000000">archived</text>
</g>
<!-- description -->
<g id="node8" class="node">
<title>description</title>
<ellipse fill="none" stroke="#0000ff" cx="854.5438" cy="-18" rx="75.2868" ry="18"/>
<text text-anchor="middle" x="854.5438" y="-14.3" font-family="Times,serif" font-size="14.00" fill="#000000">narrative text</text>
</g>
<!-- cyber entity&#45;&gt;description -->
<g id="edge7" class="edge">
<title>cyber entity&#45;&gt;description</title>
<path fill="none" stroke="#0000ff" d="M652.9803,-93.0056C691.1395,-83.8416 738.4788,-72.2482 747.5438,-69 770.4556,-60.7902 795.0349,-49.2809 814.8507,-39.2731"/>
<polygon fill="#0000ff" stroke="#0000ff" points="816.5749,-42.3225 823.8816,-34.6503 813.3852,-36.0914 816.5749,-42.3225"/>
<text text-anchor="middle" x="825.5438" y="-57.8" font-family="Times,serif" font-size="14.00" fill="#000000">description</text>
</g>
<!-- note -->
<g id="node9" class="node">
<title>note</title>
<ellipse fill="none" stroke="#0000ff" cx="1023.5438" cy="-18" rx="75.2868" ry="18"/>
<text text-anchor="middle" x="1023.5438" y="-14.3" font-family="Times,serif" font-size="14.00" fill="#000000">narrative text</text>
</g>
<!-- cyber entity&#45;&gt;note -->
<g id="edge8" class="edge">
<title>cyber entity&#45;&gt;note</title>
<path fill="none" stroke="#0000ff" d="M651.4012,-92.3725C660.3844,-90.3524 669.7132,-88.4524 678.5438,-87 763.115,-73.09 786.6768,-86.6665 870.5438,-69 906.3593,-61.4555 945.492,-48.3178 975.2153,-37.2663"/>
<polygon fill="#0000ff" stroke="#0000ff" points="976.7936,-40.4118 984.9163,-33.6095 974.3244,-33.8618 976.7936,-40.4118"/>
<text text-anchor="middle" x="942.5438" y="-57.8" font-family="Times,serif" font-size="14.00" fill="#000000">note</text>
</g>
<!-- category -->
<g id="node10" class="node">
<title>category</title>
<ellipse fill="none" stroke="#000000" cx="1168.5438" cy="-18" rx="51.9908" ry="18"/>
<text text-anchor="middle" x="1168.5438" y="-14.3" font-family="Times,serif" font-size="14.00" fill="#000000">category</text>
</g>
<!-- cyber entity&#45;&gt;category -->
<g id="edge9" class="edge">
<title>cyber entity&#45;&gt;category</title>
<path fill="none" stroke="#0000ff" d="M650.9584,-92.2429C660.0702,-90.21 669.5582,-88.339 678.5438,-87 803.6381,-68.3591 837.369,-87.0914 962.5438,-69 1027.9565,-59.546 1043.5946,-52.6943 1107.5438,-36 1111.4,-34.9933 1115.3813,-33.9127 1119.376,-32.799"/>
<polygon fill="#0000ff" stroke="#0000ff" points="1120.6078,-36.0876 1129.2691,-29.9858 1118.6931,-29.3545 1120.6078,-36.0876"/>
<text text-anchor="middle" x="1072.5438" y="-57.8" font-family="Times,serif" font-size="14.00" fill="#000000">category</text>
</g>
<!-- named thing_category -->
<g id="node11" class="node">
<title>named thing_category</title>
<ellipse fill="none" stroke="#0000ff" cx="757.5438" cy="-105" rx="69.5877" ry="18"/>
<text text-anchor="middle" x="757.5438" y="-101.3" font-family="Times,serif" font-size="14.00" fill="#000000">named thing</text>
</g>
</g>
</svg>
