<?xml version="1.0" encoding="UTF-8" standalone="no"?>
<!DOCTYPE svg PUBLIC "-//W3C//DTD SVG 1.1//EN"
 "http://www.w3.org/Graphics/SVG/1.1/DTD/svg11.dtd">
<!-- Generated by graphviz version 2.40.1 (20161225.0304)
 -->
<!-- Title: %3 Pages: 1 -->
<svg width="1804pt" height="131pt"
 viewBox="0.00 0.00 1804.19 131.00" xmlns="http://www.w3.org/2000/svg" xmlns:xlink="http://www.w3.org/1999/xlink">
<g id="graph0" class="graph" transform="scale(1 1) rotate(0) translate(4 127)">
<title>%3</title>
<polygon fill="#ffffff" stroke="transparent" points="-4,4 -4,-127 1800.1869,-127 1800.1869,4 -4,4"/>
<!-- dataset version -->
<g id="node1" class="node">
<title>dataset version</title>
<ellipse fill="none" stroke="#000000" cx="947.496" cy="-105" rx="82.5854" ry="18"/>
<text text-anchor="middle" x="947.496" y="-101.3" font-family="Times,serif" font-size="14.00" fill="#000000">dataset version</text>
</g>
<!-- dataset -->
<g id="node2" class="node">
<title>dataset</title>
<ellipse fill="none" stroke="#000000" cx="45.496" cy="-18" rx="45.4919" ry="18"/>
<text text-anchor="middle" x="45.496" y="-14.3" font-family="Times,serif" font-size="14.00" fill="#000000">dataset</text>
</g>
<!-- dataset version&#45;&gt;dataset -->
<g id="edge1" class="edge">
<title>dataset version&#45;&gt;dataset</title>
<path fill="none" stroke="#000000" d="M865.2787,-102.8483C704.3691,-98.3081 353.1307,-86.6888 233.496,-69 183.2843,-61.5759 127.3286,-45.327 89.6231,-33.1528"/>
<polygon fill="#000000" stroke="#000000" points="90.5617,-29.7774 79.9691,-29.9959 88.386,-36.4307 90.5617,-29.7774"/>
<text text-anchor="middle" x="247.496" y="-57.8" font-family="Times,serif" font-size="14.00" fill="#000000">is_a</text>
</g>
<!-- id -->
<g id="node3" class="node">
<title>id</title>
<ellipse fill="none" stroke="#0000ff" cx="147.496" cy="-18" rx="38.1938" ry="18"/>
<text text-anchor="middle" x="147.496" y="-14.3" font-family="Times,serif" font-size="14.00" fill="#000000">string</text>
</g>
<!-- dataset version&#45;&gt;id -->
<g id="edge2" class="edge">
<title>dataset version&#45;&gt;id</title>
<path fill="none" stroke="#0000ff" d="M865.0163,-103.4473C751.1226,-100.5062 539.4663,-92.1696 360.496,-69 285.897,-59.3424 266.7673,-56.8596 194.496,-36 191.702,-35.1936 188.8402,-34.2926 185.9753,-33.3353"/>
<polygon fill="#0000ff" stroke="#0000ff" points="186.9122,-29.9543 176.3174,-29.9191 184.5778,-36.5536 186.9122,-29.9543"/>
<text text-anchor="middle" x="367.496" y="-57.8" font-family="Times,serif" font-size="14.00" fill="#000000">id</text>
</g>
<!-- name -->
<g id="node4" class="node">
<title>name</title>
<ellipse fill="none" stroke="#0000ff" cx="260.496" cy="-18" rx="56.59" ry="18"/>
<text text-anchor="middle" x="260.496" y="-14.3" font-family="Times,serif" font-size="14.00" fill="#000000">label type</text>
</g>
<!-- dataset version&#45;&gt;name -->
<g id="edge3" class="edge">
<title>dataset version&#45;&gt;name</title>
<path fill="none" stroke="#0000ff" d="M866.3837,-101.1617C745.3326,-95.0982 523.2211,-82.5881 444.496,-69 397.9166,-60.9603 346.14,-46.0539 309.4076,-34.4247"/>
<polygon fill="#0000ff" stroke="#0000ff" points="310.054,-30.9566 299.4629,-31.24 307.9191,-37.6232 310.054,-30.9566"/>
<text text-anchor="middle" x="464.496" y="-57.8" font-family="Times,serif" font-size="14.00" fill="#000000">name</text>
</g>
<!-- enabled -->
<g id="node5" class="node">
<title>enabled</title>
<ellipse fill="none" stroke="#0000ff" cx="381.496" cy="-18" rx="46.5926" ry="18"/>
<text text-anchor="middle" x="381.496" y="-14.3" font-family="Times,serif" font-size="14.00" fill="#000000">boolean</text>
</g>
<!-- dataset version&#45;&gt;enabled -->
<g id="edge4" class="edge">
<title>dataset version&#45;&gt;enabled</title>
<path fill="none" stroke="#0000ff" d="M865.4495,-102.3649C784.317,-98.6438 656.934,-89.7962 548.496,-69 505.5464,-60.7632 457.9716,-45.6145 424.623,-33.9594"/>
<polygon fill="#0000ff" stroke="#0000ff" points="425.7759,-30.6548 415.1812,-30.6201 423.4418,-37.2542 425.7759,-30.6548"/>
<text text-anchor="middle" x="576.996" y="-57.8" font-family="Times,serif" font-size="14.00" fill="#000000">enabled</text>
</g>
<!-- archived -->
<g id="node6" class="node">
<title>archived</title>
<ellipse fill="none" stroke="#0000ff" cx="493.496" cy="-18" rx="46.5926" ry="18"/>
<text text-anchor="middle" x="493.496" y="-14.3" font-family="Times,serif" font-size="14.00" fill="#000000">boolean</text>
</g>
<!-- dataset version&#45;&gt;archived -->
<g id="edge5" class="edge">
<title>dataset version&#45;&gt;archived</title>
<path fill="none" stroke="#0000ff" d="M871.2175,-98.0208C815.0944,-92.1843 737.1256,-82.6088 669.496,-69 615.2697,-58.0883 602.5046,-51.8001 549.496,-36 546.115,-34.9922 542.6267,-33.9287 539.1217,-32.8427"/>
<polygon fill="#0000ff" stroke="#0000ff" points="539.8637,-29.4073 529.2744,-29.7507 537.7666,-36.0858 539.8637,-29.4073"/>
<text text-anchor="middle" x="700.996" y="-57.8" font-family="Times,serif" font-size="14.00" fill="#000000">archived</text>
</g>
<!-- description -->
<g id="node7" class="node">
<title>description</title>
<ellipse fill="none" stroke="#0000ff" cx="633.496" cy="-18" rx="75.2868" ry="18"/>
<text text-anchor="middle" x="633.496" y="-14.3" font-family="Times,serif" font-size="14.00" fill="#000000">narrative text</text>
</g>
<!-- dataset version&#45;&gt;description -->
<g id="edge6" class="edge">
<title>dataset version&#45;&gt;description</title>
<path fill="none" stroke="#0000ff" d="M884.4038,-93.2846C852.9569,-86.9689 814.4819,-78.5206 780.496,-69 747.5713,-59.7767 711.2681,-47.2062 682.9763,-36.8532"/>
<polygon fill="#0000ff" stroke="#0000ff" points="683.9154,-33.4692 673.322,-33.2929 681.4933,-40.0368 683.9154,-33.4692"/>
<text text-anchor="middle" x="821.496" y="-57.8" font-family="Times,serif" font-size="14.00" fill="#000000">description</text>
</g>
<!-- note -->
<g id="node8" class="node">
<title>note</title>
<ellipse fill="none" stroke="#0000ff" cx="802.496" cy="-18" rx="75.2868" ry="18"/>
<text text-anchor="middle" x="802.496" y="-14.3" font-family="Times,serif" font-size="14.00" fill="#000000">narrative text</text>
</g>
<!-- dataset version&#45;&gt;note -->
<g id="edge7" class="edge">
<title>dataset version&#45;&gt;note</title>
<path fill="none" stroke="#0000ff" d="M919.1943,-88.019C896.4394,-74.3661 864.2912,-55.0772 839.4972,-40.2007"/>
<polygon fill="#0000ff" stroke="#0000ff" points="841.102,-37.082 830.7263,-34.9382 837.5004,-43.0844 841.102,-37.082"/>
<text text-anchor="middle" x="900.496" y="-57.8" font-family="Times,serif" font-size="14.00" fill="#000000">note</text>
</g>
<!-- category -->
<g id="node9" class="node">
<title>category</title>
<ellipse fill="none" stroke="#000000" cx="947.496" cy="-18" rx="51.9908" ry="18"/>
<text text-anchor="middle" x="947.496" y="-14.3" font-family="Times,serif" font-size="14.00" fill="#000000">category</text>
</g>
<!-- dataset version&#45;&gt;category -->
<g id="edge8" class="edge">
<title>dataset version&#45;&gt;category</title>
<path fill="none" stroke="#0000ff" d="M947.496,-86.9735C947.496,-75.1918 947.496,-59.5607 947.496,-46.1581"/>
<polygon fill="#0000ff" stroke="#0000ff" points="950.9961,-46.0033 947.496,-36.0034 943.9961,-46.0034 950.9961,-46.0033"/>
<text text-anchor="middle" x="979.496" y="-57.8" font-family="Times,serif" font-size="14.00" fill="#000000">category</text>
</g>
<!-- license -->
<g id="node11" class="node">
<title>license</title>
<ellipse fill="none" stroke="#0000ff" cx="1055.496" cy="-18" rx="38.1938" ry="18"/>
<text text-anchor="middle" x="1055.496" y="-14.3" font-family="Times,serif" font-size="14.00" fill="#000000">string</text>
</g>
<!-- dataset version&#45;&gt;license -->
<g id="edge9" class="edge">
<title>dataset version&#45;&gt;license</title>
<path fill="none" stroke="#0000ff" d="M984.9096,-88.7626C995.3769,-83.2995 1006.3748,-76.6251 1015.496,-69 1024.0429,-61.855 1031.9614,-52.609 1038.4593,-43.9557"/>
<polygon fill="#0000ff" stroke="#0000ff" points="1041.4687,-45.7651 1044.4543,-35.5996 1035.781,-41.6845 1041.4687,-45.7651"/>
<text text-anchor="middle" x="1054.996" y="-57.8" font-family="Times,serif" font-size="14.00" fill="#000000">license</text>
</g>
<!-- rights -->
<g id="node12" class="node">
<title>rights</title>
<ellipse fill="none" stroke="#0000ff" cx="1150.496" cy="-18" rx="38.1938" ry="18"/>
<text text-anchor="middle" x="1150.496" y="-14.3" font-family="Times,serif" font-size="14.00" fill="#000000">string</text>
</g>
<!-- dataset version&#45;&gt;rights -->
<g id="edge10" class="edge">
<title>dataset version&#45;&gt;rights</title>
<path fill="none" stroke="#0000ff" d="M1011.8019,-93.6996C1035.4122,-88.1215 1061.8805,-80.1324 1084.496,-69 1099.3799,-61.6734 1114.1599,-50.6908 1125.9482,-40.7916"/>
<polygon fill="#0000ff" stroke="#0000ff" points="1128.3272,-43.3615 1133.596,-34.1696 1123.745,-38.0695 1128.3272,-43.3615"/>
<text text-anchor="middle" x="1129.996" y="-57.8" font-family="Times,serif" font-size="14.00" fill="#000000">rights</text>
</g>
<!-- format -->
<g id="node13" class="node">
<title>format</title>
<ellipse fill="none" stroke="#0000ff" cx="1245.496" cy="-18" rx="38.1938" ry="18"/>
<text text-anchor="middle" x="1245.496" y="-14.3" font-family="Times,serif" font-size="14.00" fill="#000000">string</text>
</g>
<!-- dataset version&#45;&gt;format -->
<g id="edge11" class="edge">
<title>dataset version&#45;&gt;format</title>
<path fill="none" stroke="#0000ff" d="M1008.1258,-92.6335C1018.2534,-90.6752 1028.6618,-88.7283 1038.496,-87 1090.3136,-77.8935 1105.7933,-86.2524 1155.496,-69 1176.5394,-61.6956 1198.3183,-49.4975 1215.1802,-38.8623"/>
<polygon fill="#0000ff" stroke="#0000ff" points="1217.509,-41.5245 1224.0062,-33.1556 1213.7083,-35.6462 1217.509,-41.5245"/>
<text text-anchor="middle" x="1213.996" y="-57.8" font-family="Times,serif" font-size="14.00" fill="#000000">format</text>
</g>
<!-- creation date -->
<g id="node14" class="node">
<title>creation date</title>
<ellipse fill="none" stroke="#0000ff" cx="1333.496" cy="-18" rx="31.3957" ry="18"/>
<text text-anchor="middle" x="1333.496" y="-14.3" font-family="Times,serif" font-size="14.00" fill="#000000">date</text>
</g>
<!-- dataset version&#45;&gt;creation date -->
<g id="edge12" class="edge">
<title>dataset version&#45;&gt;creation date</title>
<path fill="none" stroke="#0000ff" d="M1006.569,-92.3599C1017.1655,-90.3656 1028.1327,-88.4778 1038.496,-87 1128.6033,-74.1507 1155.5265,-95.8471 1242.496,-69 1265.0422,-62.0401 1288.21,-48.9544 1305.5267,-37.7811"/>
<polygon fill="#0000ff" stroke="#0000ff" points="1307.613,-40.5973 1314.0146,-32.1551 1303.7456,-34.7626 1307.613,-40.5973"/>
<text text-anchor="middle" x="1325.496" y="-57.8" font-family="Times,serif" font-size="14.00" fill="#000000">creation date</text>
</g>
<!-- has dataset -->
<g id="node15" class="node">
<title>has dataset</title>
<ellipse fill="none" stroke="#0000ff" cx="1428.496" cy="-18" rx="45.4919" ry="18"/>
<text text-anchor="middle" x="1428.496" y="-14.3" font-family="Times,serif" font-size="14.00" fill="#000000">dataset</text>
</g>
<!-- dataset version&#45;&gt;has dataset -->
<g id="edge13" class="edge">
<title>dataset version&#45;&gt;has dataset</title>
<path fill="none" stroke="#0000ff" d="M1006.0395,-92.1477C1016.7913,-90.1504 1027.9487,-88.3164 1038.496,-87 1113.3546,-77.6572 1308.5891,-99.7077 1377.496,-69 1390.1307,-63.3695 1401.3578,-53.1017 1410.0394,-43.2472"/>
<polygon fill="#0000ff" stroke="#0000ff" points="1412.7492,-45.4625 1416.4345,-35.5292 1407.3591,-40.9963 1412.7492,-45.4625"/>
<text text-anchor="middle" x="1440.996" y="-57.8" font-family="Times,serif" font-size="14.00" fill="#000000">has dataset</text>
</g>
<!-- ingest date -->
<g id="node16" class="node">
<title>ingest date</title>
<ellipse fill="none" stroke="#0000ff" cx="1534.496" cy="-18" rx="38.1938" ry="18"/>
<text text-anchor="middle" x="1534.496" y="-14.3" font-family="Times,serif" font-size="14.00" fill="#000000">string</text>
</g>
<!-- dataset version&#45;&gt;ingest date -->
<g id="edge14" class="edge">
<title>dataset version&#45;&gt;ingest date</title>
<path fill="none" stroke="#0000ff" d="M1005.5373,-92.1257C1016.4407,-90.1042 1027.7805,-88.2673 1038.496,-87 1087.9691,-81.149 1441.1702,-89.6736 1486.496,-69 1498.6821,-63.4418 1509.2684,-53.224 1517.3753,-43.3857"/>
<polygon fill="#0000ff" stroke="#0000ff" points="1520.2565,-45.3807 1523.5827,-35.3215 1514.7095,-41.1109 1520.2565,-45.3807"/>
<text text-anchor="middle" x="1547.996" y="-57.8" font-family="Times,serif" font-size="14.00" fill="#000000">ingest date</text>
</g>
<!-- has distribution -->
<g id="node17" class="node">
<title>has distribution</title>
<ellipse fill="none" stroke="#0000ff" cx="1693.496" cy="-18" rx="102.8821" ry="18"/>
<text text-anchor="middle" x="1693.496" y="-14.3" font-family="Times,serif" font-size="14.00" fill="#000000">dataset distribution</text>
</g>
<!-- dataset version&#45;&gt;has distribution -->
<g id="edge15" class="edge">
<title>dataset version&#45;&gt;has distribution</title>
<path fill="none" stroke="#0000ff" d="M1005.5295,-92.0584C1016.4336,-90.0434 1027.7757,-88.2261 1038.496,-87 1160.8742,-73.003 1473.1503,-99.479 1592.496,-69 1615.558,-63.1103 1639.4162,-51.3701 1658.1501,-40.6374"/>
<polygon fill="#0000ff" stroke="#0000ff" points="1660.0681,-43.5697 1666.9091,-35.4796 1656.5161,-37.5378 1660.0681,-43.5697"/>
<text text-anchor="middle" x="1686.496" y="-57.8" font-family="Times,serif" font-size="14.00" fill="#000000">has distribution</text>
</g>
<!-- named thing_category -->
<g id="node10" class="node">
<title>named thing_category</title>
<ellipse fill="none" stroke="#0000ff" cx="1117.496" cy="-105" rx="69.5877" ry="18"/>
<text text-anchor="middle" x="1117.496" y="-101.3" font-family="Times,serif" font-size="14.00" fill="#000000">named thing</text>
</g>
</g>
</svg>
