<?xml version="1.0" encoding="UTF-8" standalone="no"?>
<!DOCTYPE svg PUBLIC "-//W3C//DTD SVG 1.1//EN"
 "http://www.w3.org/Graphics/SVG/1.1/DTD/svg11.dtd">
<!-- Generated by graphviz version 2.40.1 (20161225.0304)
 -->
<!-- Title: %3 Pages: 1 -->
<svg width="1317pt" height="131pt"
 viewBox="0.00 0.00 1317.08 131.00" xmlns="http://www.w3.org/2000/svg" xmlns:xlink="http://www.w3.org/1999/xlink">
<g id="graph0" class="graph" transform="scale(1 1) rotate(0) translate(4 127)">
<title>%3</title>
<polygon fill="#ffffff" stroke="transparent" points="-4,4 -4,-127 1313.083,-127 1313.083,4 -4,4"/>
<!-- data -->
<g id="node1" class="node">
<title>data</title>
<ellipse fill="none" stroke="#000000" cx="639.2895" cy="-105" rx="31.3957" ry="18"/>
<text text-anchor="middle" x="639.2895" y="-101.3" font-family="Times,serif" font-size="14.00" fill="#000000">data</text>
</g>
<!-- notification component -->
<g id="node2" class="node">
<title>notification component</title>
<ellipse fill="none" stroke="#000000" cx="118.2895" cy="-18" rx="118.0794" ry="18"/>
<text text-anchor="middle" x="118.2895" y="-14.3" font-family="Times,serif" font-size="14.00" fill="#000000">notification component</text>
</g>
<!-- data&#45;&gt;notification component -->
<g id="edge1" class="edge">
<title>data&#45;&gt;notification component</title>
<path fill="none" stroke="#000000" d="M608.4754,-101.4679C558.8213,-95.6329 458.0881,-83.2037 373.2895,-69 313.5951,-59.0013 246.4906,-45.4885 196.1078,-34.8842"/>
<polygon fill="#000000" stroke="#000000" points="196.7689,-31.4467 186.2614,-32.804 195.3219,-38.2955 196.7689,-31.4467"/>
<text text-anchor="middle" x="387.2895" y="-57.8" font-family="Times,serif" font-size="14.00" fill="#000000">is_a</text>
</g>
<!-- id -->
<g id="node3" class="node">
<title>id</title>
<ellipse fill="none" stroke="#0000ff" cx="293.2895" cy="-18" rx="38.1938" ry="18"/>
<text text-anchor="middle" x="293.2895" y="-14.3" font-family="Times,serif" font-size="14.00" fill="#000000">string</text>
</g>
<!-- data&#45;&gt;id -->
<g id="edge2" class="edge">
<title>data&#45;&gt;id</title>
<path fill="none" stroke="#0000ff" d="M609.1314,-99.7815C554.6803,-89.9769 436.6559,-66.9697 340.2895,-36 337.56,-35.1228 334.758,-34.1747 331.947,-33.1884"/>
<polygon fill="#0000ff" stroke="#0000ff" points="333.0412,-29.8622 322.4471,-29.7349 330.6495,-36.4409 333.0412,-29.8622"/>
<text text-anchor="middle" x="461.2895" y="-57.8" font-family="Times,serif" font-size="14.00" fill="#000000">id</text>
</g>
<!-- name -->
<g id="node4" class="node">
<title>name</title>
<ellipse fill="none" stroke="#0000ff" cx="406.2895" cy="-18" rx="56.59" ry="18"/>
<text text-anchor="middle" x="406.2895" y="-14.3" font-family="Times,serif" font-size="14.00" fill="#000000">label type</text>
</g>
<!-- data&#45;&gt;name -->
<g id="edge3" class="edge">
<title>data&#45;&gt;name</title>
<path fill="none" stroke="#0000ff" d="M610.5627,-97.6556C585.8118,-91.0438 549.2831,-80.6039 518.2895,-69 493.7135,-59.7989 466.9384,-47.6871 445.7315,-37.5756"/>
<polygon fill="#0000ff" stroke="#0000ff" points="447.2365,-34.4157 436.7078,-33.234 444.2015,-40.7236 447.2365,-34.4157"/>
<text text-anchor="middle" x="538.2895" y="-57.8" font-family="Times,serif" font-size="14.00" fill="#000000">name</text>
</g>
<!-- enabled -->
<g id="node5" class="node">
<title>enabled</title>
<ellipse fill="none" stroke="#0000ff" cx="527.2895" cy="-18" rx="46.5926" ry="18"/>
<text text-anchor="middle" x="527.2895" y="-14.3" font-family="Times,serif" font-size="14.00" fill="#000000">boolean</text>
</g>
<!-- data&#45;&gt;enabled -->
<g id="edge4" class="edge">
<title>data&#45;&gt;enabled</title>
<path fill="none" stroke="#0000ff" d="M615.8095,-92.9678C604.0858,-86.5141 589.9535,-78.039 578.2895,-69 568.1847,-61.1693 558.0283,-51.4732 549.4686,-42.6449"/>
<polygon fill="#0000ff" stroke="#0000ff" points="551.816,-40.0335 542.3988,-35.1788 546.7332,-44.8466 551.816,-40.0335"/>
<text text-anchor="middle" x="606.7895" y="-57.8" font-family="Times,serif" font-size="14.00" fill="#000000">enabled</text>
</g>
<!-- archived -->
<g id="node6" class="node">
<title>archived</title>
<ellipse fill="none" stroke="#0000ff" cx="639.2895" cy="-18" rx="46.5926" ry="18"/>
<text text-anchor="middle" x="639.2895" y="-14.3" font-family="Times,serif" font-size="14.00" fill="#000000">boolean</text>
</g>
<!-- data&#45;&gt;archived -->
<g id="edge5" class="edge">
<title>data&#45;&gt;archived</title>
<path fill="none" stroke="#0000ff" d="M639.2895,-86.9735C639.2895,-75.1918 639.2895,-59.5607 639.2895,-46.1581"/>
<polygon fill="#0000ff" stroke="#0000ff" points="642.7896,-46.0033 639.2895,-36.0034 635.7896,-46.0034 642.7896,-46.0033"/>
<text text-anchor="middle" x="670.7895" y="-57.8" font-family="Times,serif" font-size="14.00" fill="#000000">archived</text>
</g>
<!-- description -->
<g id="node7" class="node">
<title>description</title>
<ellipse fill="none" stroke="#0000ff" cx="779.2895" cy="-18" rx="75.2868" ry="18"/>
<text text-anchor="middle" x="779.2895" y="-14.3" font-family="Times,serif" font-size="14.00" fill="#000000">narrative text</text>
</g>
<!-- data&#45;&gt;description -->
<g id="edge6" class="edge">
<title>data&#45;&gt;description</title>
<path fill="none" stroke="#0000ff" d="M662.9224,-93.1605C675.9266,-86.4333 692.2302,-77.6475 706.2895,-69 720.1989,-60.4447 735.0576,-50.2672 747.7143,-41.2624"/>
<polygon fill="#0000ff" stroke="#0000ff" points="750.0054,-43.9262 756.0862,-35.2501 745.9221,-38.2405 750.0054,-43.9262"/>
<text text-anchor="middle" x="770.2895" y="-57.8" font-family="Times,serif" font-size="14.00" fill="#000000">description</text>
</g>
<!-- note -->
<g id="node8" class="node">
<title>note</title>
<ellipse fill="none" stroke="#0000ff" cx="948.2895" cy="-18" rx="75.2868" ry="18"/>
<text text-anchor="middle" x="948.2895" y="-14.3" font-family="Times,serif" font-size="14.00" fill="#000000">narrative text</text>
</g>
<!-- data&#45;&gt;note -->
<g id="edge7" class="edge">
<title>data&#45;&gt;note</title>
<path fill="none" stroke="#0000ff" d="M662.9765,-92.9811C668.2405,-90.6969 673.8694,-88.5423 679.2895,-87 737.9332,-70.3131 756.1965,-84.0183 815.2895,-69 845.5745,-61.3032 878.3653,-48.7795 903.81,-38.0691"/>
<polygon fill="#0000ff" stroke="#0000ff" points="905.3598,-41.2131 913.1817,-34.0668 902.6106,-34.7756 905.3598,-41.2131"/>
<text text-anchor="middle" x="876.2895" y="-57.8" font-family="Times,serif" font-size="14.00" fill="#000000">note</text>
</g>
<!-- category -->
<g id="node9" class="node">
<title>category</title>
<ellipse fill="none" stroke="#000000" cx="1093.2895" cy="-18" rx="51.9908" ry="18"/>
<text text-anchor="middle" x="1093.2895" y="-14.3" font-family="Times,serif" font-size="14.00" fill="#000000">category</text>
</g>
<!-- data&#45;&gt;category -->
<g id="edge8" class="edge">
<title>data&#45;&gt;category</title>
<path fill="none" stroke="#0000ff" d="M662.4956,-92.9643C667.8841,-90.6221 673.6859,-88.4476 679.2895,-87 772.9891,-62.7942 800.7561,-84.4566 896.2895,-69 957.6895,-59.0659 972.2216,-52.1398 1032.2895,-36 1036.1384,-34.9658 1040.1145,-33.8655 1044.1055,-32.7382"/>
<polygon fill="#0000ff" stroke="#0000ff" points="1045.3451,-36.0238 1053.9927,-29.9027 1043.4154,-29.2951 1045.3451,-36.0238"/>
<text text-anchor="middle" x="999.2895" y="-57.8" font-family="Times,serif" font-size="14.00" fill="#000000">category</text>
</g>
<!-- in taxon -->
<g id="node11" class="node">
<title>in taxon</title>
<ellipse fill="none" stroke="#0000ff" cx="1236.2895" cy="-18" rx="72.5877" ry="18"/>
<text text-anchor="middle" x="1236.2895" y="-14.3" font-family="Times,serif" font-size="14.00" fill="#000000">system taxon</text>
</g>
<!-- data&#45;&gt;in taxon -->
<g id="edge9" class="edge">
<title>data&#45;&gt;in taxon</title>
<path fill="none" stroke="#0000ff" d="M662.462,-92.8301C667.8523,-90.4948 673.6633,-88.3571 679.2895,-87 833.297,-49.8522 878.6324,-92.5968 1035.2895,-69 1085.3381,-61.4613 1141.0347,-46.822 1181.0823,-35.1543"/>
<polygon fill="#0000ff" stroke="#0000ff" points="1182.3103,-38.4413 1190.9137,-32.2581 1180.3322,-31.7266 1182.3103,-38.4413"/>
<text text-anchor="middle" x="1137.2895" y="-57.8" font-family="Times,serif" font-size="14.00" fill="#000000">in taxon</text>
</g>
<!-- named thing_category -->
<g id="node10" class="node">
<title>named thing_category</title>
<ellipse fill="none" stroke="#0000ff" cx="758.2895" cy="-105" rx="69.5877" ry="18"/>
<text text-anchor="middle" x="758.2895" y="-101.3" font-family="Times,serif" font-size="14.00" fill="#000000">named thing</text>
</g>
</g>
</svg>
