<?xml version="1.0" encoding="UTF-8" standalone="no"?>
<!DOCTYPE svg PUBLIC "-//W3C//DTD SVG 1.1//EN"
 "http://www.w3.org/Graphics/SVG/1.1/DTD/svg11.dtd">
<!-- Generated by graphviz version 2.40.1 (20161225.0304)
 -->
<!-- Title: %3 Pages: 1 -->
<svg width="1549pt" height="131pt"
 viewBox="0.00 0.00 1549.09 131.00" xmlns="http://www.w3.org/2000/svg" xmlns:xlink="http://www.w3.org/1999/xlink">
<g id="graph0" class="graph" transform="scale(1 1) rotate(0) translate(4 127)">
<title>%3</title>
<polygon fill="#ffffff" stroke="transparent" points="-4,4 -4,-127 1545.0854,-127 1545.0854,4 -4,4"/>
<!-- dataset -->
<g id="node1" class="node">
<title>dataset</title>
<ellipse fill="none" stroke="#000000" cx="893.8881" cy="-105" rx="45.4919" ry="18"/>
<text text-anchor="middle" x="893.8881" y="-101.3" font-family="Times,serif" font-size="14.00" fill="#000000">dataset</text>
</g>
<!-- information content entity -->
<g id="node2" class="node">
<title>information content entity</title>
<ellipse fill="none" stroke="#000000" cx="133.8881" cy="-18" rx="133.7763" ry="18"/>
<text text-anchor="middle" x="133.8881" y="-14.3" font-family="Times,serif" font-size="14.00" fill="#000000">information content entity</text>
</g>
<!-- dataset&#45;&gt;information content entity -->
<g id="edge1" class="edge">
<title>dataset&#45;&gt;information content entity</title>
<path fill="none" stroke="#000000" d="M848.5873,-103.2912C762.5868,-99.6812 569.8675,-89.8383 408.8881,-69 343.1542,-60.4909 269.3328,-46.5558 214.7384,-35.4005"/>
<polygon fill="#000000" stroke="#000000" points="215.2744,-31.9376 204.7744,-33.3519 213.8646,-38.7942 215.2744,-31.9376"/>
<text text-anchor="middle" x="422.8881" y="-57.8" font-family="Times,serif" font-size="14.00" fill="#000000">is_a</text>
</g>
<!-- id -->
<g id="node3" class="node">
<title>id</title>
<ellipse fill="none" stroke="#0000ff" cx="323.8881" cy="-18" rx="38.1938" ry="18"/>
<text text-anchor="middle" x="323.8881" y="-14.3" font-family="Times,serif" font-size="14.00" fill="#000000">string</text>
</g>
<!-- dataset&#45;&gt;id -->
<g id="edge2" class="edge">
<title>dataset&#45;&gt;id</title>
<path fill="none" stroke="#0000ff" d="M848.7724,-102.1891C779.3319,-97.4993 642.2014,-86.7964 526.8881,-69 456.8497,-58.1909 438.855,-56.0682 370.8881,-36 368.1384,-35.1881 365.3215,-34.2886 362.4997,-33.3374"/>
<polygon fill="#0000ff" stroke="#0000ff" points="363.5725,-30.0042 352.9777,-29.9556 361.2297,-36.6006 363.5725,-30.0042"/>
<text text-anchor="middle" x="533.8881" y="-57.8" font-family="Times,serif" font-size="14.00" fill="#000000">id</text>
</g>
<!-- name -->
<g id="node4" class="node">
<title>name</title>
<ellipse fill="none" stroke="#0000ff" cx="436.8881" cy="-18" rx="56.59" ry="18"/>
<text text-anchor="middle" x="436.8881" y="-14.3" font-family="Times,serif" font-size="14.00" fill="#000000">label type</text>
</g>
<!-- dataset&#45;&gt;name -->
<g id="edge3" class="edge">
<title>dataset&#45;&gt;name</title>
<path fill="none" stroke="#0000ff" d="M848.9821,-102.0951C790.7791,-97.7444 686.3788,-87.9421 598.8881,-69 559.1912,-60.4055 515.31,-46.2938 483.2414,-35.0908"/>
<polygon fill="#0000ff" stroke="#0000ff" points="484.2808,-31.746 473.686,-31.7167 481.95,-38.3466 484.2808,-31.746"/>
<text text-anchor="middle" x="618.8881" y="-57.8" font-family="Times,serif" font-size="14.00" fill="#000000">name</text>
</g>
<!-- enabled -->
<g id="node5" class="node">
<title>enabled</title>
<ellipse fill="none" stroke="#0000ff" cx="557.8881" cy="-18" rx="46.5926" ry="18"/>
<text text-anchor="middle" x="557.8881" y="-14.3" font-family="Times,serif" font-size="14.00" fill="#000000">boolean</text>
</g>
<!-- dataset&#45;&gt;enabled -->
<g id="edge4" class="edge">
<title>dataset&#45;&gt;enabled</title>
<path fill="none" stroke="#0000ff" d="M849.8752,-100.0804C807.3644,-94.6995 741.4356,-84.6888 685.8881,-69 655.4038,-60.39 622.2078,-47.0413 597.2622,-36.1601"/>
<polygon fill="#0000ff" stroke="#0000ff" points="598.3513,-32.8149 587.7899,-31.9742 595.5218,-39.2176 598.3513,-32.8149"/>
<text text-anchor="middle" x="714.3881" y="-57.8" font-family="Times,serif" font-size="14.00" fill="#000000">enabled</text>
</g>
<!-- archived -->
<g id="node6" class="node">
<title>archived</title>
<ellipse fill="none" stroke="#0000ff" cx="669.8881" cy="-18" rx="46.5926" ry="18"/>
<text text-anchor="middle" x="669.8881" y="-14.3" font-family="Times,serif" font-size="14.00" fill="#000000">boolean</text>
</g>
<!-- dataset&#45;&gt;archived -->
<g id="edge5" class="edge">
<title>dataset&#45;&gt;archived</title>
<path fill="none" stroke="#0000ff" d="M856.7645,-94.5891C834.2714,-87.9584 805.1405,-78.7947 779.8881,-69 755.3809,-59.4944 728.609,-47.1272 707.613,-36.9521"/>
<polygon fill="#0000ff" stroke="#0000ff" points="708.9228,-33.6965 698.4016,-32.4494 705.8486,-39.9854 708.9228,-33.6965"/>
<text text-anchor="middle" x="811.3881" y="-57.8" font-family="Times,serif" font-size="14.00" fill="#000000">archived</text>
</g>
<!-- description -->
<g id="node7" class="node">
<title>description</title>
<ellipse fill="none" stroke="#0000ff" cx="809.8881" cy="-18" rx="75.2868" ry="18"/>
<text text-anchor="middle" x="809.8881" y="-14.3" font-family="Times,serif" font-size="14.00" fill="#000000">narrative text</text>
</g>
<!-- dataset&#45;&gt;description -->
<g id="edge6" class="edge">
<title>dataset&#45;&gt;description</title>
<path fill="none" stroke="#0000ff" d="M877.2924,-87.8116C865.0284,-75.1096 848.1354,-57.6133 834.3294,-43.3142"/>
<polygon fill="#0000ff" stroke="#0000ff" points="836.4899,-40.5129 827.026,-35.75 831.4541,-45.3751 836.4899,-40.5129"/>
<text text-anchor="middle" x="898.8881" y="-57.8" font-family="Times,serif" font-size="14.00" fill="#000000">description</text>
</g>
<!-- note -->
<g id="node8" class="node">
<title>note</title>
<ellipse fill="none" stroke="#0000ff" cx="978.8881" cy="-18" rx="75.2868" ry="18"/>
<text text-anchor="middle" x="978.8881" y="-14.3" font-family="Times,serif" font-size="14.00" fill="#000000">narrative text</text>
</g>
<!-- dataset&#45;&gt;note -->
<g id="edge7" class="edge">
<title>dataset&#45;&gt;note</title>
<path fill="none" stroke="#0000ff" d="M918.6301,-89.7084C927.1453,-83.8147 936.4104,-76.6484 943.8881,-69 950.9449,-61.7821 957.5383,-52.9887 963.0571,-44.75"/>
<polygon fill="#0000ff" stroke="#0000ff" points="966.1353,-46.4339 968.595,-36.1286 960.2457,-42.6507 966.1353,-46.4339"/>
<text text-anchor="middle" x="972.8881" y="-57.8" font-family="Times,serif" font-size="14.00" fill="#000000">note</text>
</g>
<!-- category -->
<g id="node9" class="node">
<title>category</title>
<ellipse fill="none" stroke="#000000" cx="1123.8881" cy="-18" rx="51.9908" ry="18"/>
<text text-anchor="middle" x="1123.8881" y="-14.3" font-family="Times,serif" font-size="14.00" fill="#000000">category</text>
</g>
<!-- dataset&#45;&gt;category -->
<g id="edge8" class="edge">
<title>dataset&#45;&gt;category</title>
<path fill="none" stroke="#0000ff" d="M927.864,-92.8584C947.0022,-85.9658 971.3218,-77.118 992.8881,-69 1022.0534,-58.0216 1054.7149,-45.307 1080.1292,-35.3193"/>
<polygon fill="#0000ff" stroke="#0000ff" points="1081.4688,-38.5535 1089.4922,-31.6343 1078.9051,-32.0398 1081.4688,-38.5535"/>
<text text-anchor="middle" x="1061.8881" y="-57.8" font-family="Times,serif" font-size="14.00" fill="#000000">category</text>
</g>
<!-- license -->
<g id="node11" class="node">
<title>license</title>
<ellipse fill="none" stroke="#0000ff" cx="1231.8881" cy="-18" rx="38.1938" ry="18"/>
<text text-anchor="middle" x="1231.8881" y="-14.3" font-family="Times,serif" font-size="14.00" fill="#000000">string</text>
</g>
<!-- dataset&#45;&gt;license -->
<g id="edge9" class="edge">
<title>dataset&#45;&gt;license</title>
<path fill="none" stroke="#0000ff" d="M927.2941,-92.6985C934.0423,-90.5452 941.1383,-88.5136 947.8881,-87 1013.4061,-72.3083 1032.6835,-85.0249 1097.8881,-69 1138.0479,-59.1302 1146.245,-50.7286 1184.8881,-36 1187.4039,-35.0411 1189.9949,-34.0523 1192.6067,-33.0547"/>
<polygon fill="#0000ff" stroke="#0000ff" points="1193.9672,-36.2817 1202.0576,-29.4409 1191.4671,-29.7433 1193.9672,-36.2817"/>
<text text-anchor="middle" x="1168.3881" y="-57.8" font-family="Times,serif" font-size="14.00" fill="#000000">license</text>
</g>
<!-- rights -->
<g id="node12" class="node">
<title>rights</title>
<ellipse fill="none" stroke="#0000ff" cx="1326.8881" cy="-18" rx="38.1938" ry="18"/>
<text text-anchor="middle" x="1326.8881" y="-14.3" font-family="Times,serif" font-size="14.00" fill="#000000">string</text>
</g>
<!-- dataset&#45;&gt;rights -->
<g id="edge10" class="edge">
<title>dataset&#45;&gt;rights</title>
<path fill="none" stroke="#0000ff" d="M926.9509,-92.5352C933.7895,-90.3675 941.0073,-88.372 947.8881,-87 1057.1363,-65.2165 1089.277,-93.7651 1197.8881,-69 1230.5756,-61.5467 1265.8605,-47.1177 1291.2512,-35.5039"/>
<polygon fill="#0000ff" stroke="#0000ff" points="1292.8835,-38.6048 1300.4719,-31.2111 1289.929,-32.2588 1292.8835,-38.6048"/>
<text text-anchor="middle" x="1267.3881" y="-57.8" font-family="Times,serif" font-size="14.00" fill="#000000">rights</text>
</g>
<!-- format -->
<g id="node13" class="node">
<title>format</title>
<ellipse fill="none" stroke="#0000ff" cx="1421.8881" cy="-18" rx="38.1938" ry="18"/>
<text text-anchor="middle" x="1421.8881" y="-14.3" font-family="Times,serif" font-size="14.00" fill="#000000">string</text>
</g>
<!-- dataset&#45;&gt;format -->
<g id="edge11" class="edge">
<title>dataset&#45;&gt;format</title>
<path fill="none" stroke="#0000ff" d="M926.9302,-92.4286C933.7704,-90.2692 940.9941,-88.304 947.8881,-87 1098.755,-58.464 1142.8587,-101.654 1292.8881,-69 1325.6477,-61.8699 1360.9262,-47.4125 1386.2961,-35.7057"/>
<polygon fill="#0000ff" stroke="#0000ff" points="1387.9478,-38.7968 1395.5084,-31.3746 1384.9695,-32.4619 1387.9478,-38.7968"/>
<text text-anchor="middle" x="1365.3881" y="-57.8" font-family="Times,serif" font-size="14.00" fill="#000000">format</text>
</g>
<!-- creation date -->
<g id="node14" class="node">
<title>creation date</title>
<ellipse fill="none" stroke="#0000ff" cx="1509.8881" cy="-18" rx="31.3957" ry="18"/>
<text text-anchor="middle" x="1509.8881" y="-14.3" font-family="Times,serif" font-size="14.00" fill="#000000">date</text>
</g>
<!-- dataset&#45;&gt;creation date -->
<g id="edge12" class="edge">
<title>dataset&#45;&gt;creation date</title>
<path fill="none" stroke="#0000ff" d="M926.6295,-92.4561C933.5558,-90.2654 940.8893,-88.2811 947.8881,-87 1143.0294,-51.2798 1200.6063,-113.7009 1393.8881,-69 1424.0291,-62.0292 1456.0591,-47.3276 1478.8077,-35.4919"/>
<polygon fill="#0000ff" stroke="#0000ff" points="1480.4651,-38.5747 1487.6527,-30.7907 1477.1798,-32.3935 1480.4651,-38.5747"/>
<text text-anchor="middle" x="1484.8881" y="-57.8" font-family="Times,serif" font-size="14.00" fill="#000000">creation date</text>
</g>
<!-- named thing_category -->
<g id="node10" class="node">
<title>named thing_category</title>
<ellipse fill="none" stroke="#0000ff" cx="1026.8881" cy="-105" rx="69.5877" ry="18"/>
<text text-anchor="middle" x="1026.8881" y="-101.3" font-family="Times,serif" font-size="14.00" fill="#000000">named thing</text>
</g>
</g>
</svg>
