<?xml version="1.0" encoding="UTF-8" standalone="no"?>
<!DOCTYPE svg PUBLIC "-//W3C//DTD SVG 1.1//EN"
 "http://www.w3.org/Graphics/SVG/1.1/DTD/svg11.dtd">
<!-- Generated by graphviz version 2.40.1 (20161225.0304)
 -->
<!-- Title: %3 Pages: 1 -->
<svg width="1761pt" height="131pt"
 viewBox="0.00 0.00 1760.89 131.00" xmlns="http://www.w3.org/2000/svg" xmlns:xlink="http://www.w3.org/1999/xlink">
<g id="graph0" class="graph" transform="scale(1 1) rotate(0) translate(4 127)">
<title>%3</title>
<polygon fill="#ffffff" stroke="transparent" points="-4,4 -4,-127 1756.8881,-127 1756.8881,4 -4,4"/>
<!-- dataset distribution -->
<g id="node1" class="node">
<title>dataset distribution</title>
<ellipse fill="none" stroke="#000000" cx="978.8881" cy="-105" rx="102.8821" ry="18"/>
<text text-anchor="middle" x="978.8881" y="-101.3" font-family="Times,serif" font-size="14.00" fill="#000000">dataset distribution</text>
</g>
<!-- information content entity -->
<g id="node2" class="node">
<title>information content entity</title>
<ellipse fill="none" stroke="#000000" cx="133.8881" cy="-18" rx="133.7763" ry="18"/>
<text text-anchor="middle" x="133.8881" y="-14.3" font-family="Times,serif" font-size="14.00" fill="#000000">information content entity</text>
</g>
<!-- dataset distribution&#45;&gt;information content entity -->
<g id="edge1" class="edge">
<title>dataset distribution&#45;&gt;information content entity</title>
<path fill="none" stroke="#000000" d="M877.1254,-102.2638C762.8365,-98.3343 571.9922,-89.2005 408.8881,-69 342.7681,-60.811 268.5261,-46.7494 213.863,-35.4629"/>
<polygon fill="#000000" stroke="#000000" points="214.3934,-31.9984 203.8904,-33.3897 212.9687,-38.8519 214.3934,-31.9984"/>
<text text-anchor="middle" x="422.8881" y="-57.8" font-family="Times,serif" font-size="14.00" fill="#000000">is_a</text>
</g>
<!-- id -->
<g id="node3" class="node">
<title>id</title>
<ellipse fill="none" stroke="#0000ff" cx="323.8881" cy="-18" rx="38.1938" ry="18"/>
<text text-anchor="middle" x="323.8881" y="-14.3" font-family="Times,serif" font-size="14.00" fill="#000000">string</text>
</g>
<!-- dataset distribution&#45;&gt;id -->
<g id="edge2" class="edge">
<title>dataset distribution&#45;&gt;id</title>
<path fill="none" stroke="#0000ff" d="M879.3106,-100.4017C788.6736,-95.401 651.336,-85.7823 532.8881,-69 460.1361,-58.6921 441.4367,-56.5427 370.8881,-36 368.0961,-35.187 365.2356,-34.2812 362.3718,-33.3204"/>
<polygon fill="#0000ff" stroke="#0000ff" points="363.3107,-29.9399 352.716,-29.8971 360.9716,-36.5375 363.3107,-29.9399"/>
<text text-anchor="middle" x="539.8881" y="-57.8" font-family="Times,serif" font-size="14.00" fill="#000000">id</text>
</g>
<!-- name -->
<g id="node4" class="node">
<title>name</title>
<ellipse fill="none" stroke="#0000ff" cx="436.8881" cy="-18" rx="56.59" ry="18"/>
<text text-anchor="middle" x="436.8881" y="-14.3" font-family="Times,serif" font-size="14.00" fill="#000000">label type</text>
</g>
<!-- dataset distribution&#45;&gt;name -->
<g id="edge3" class="edge">
<title>dataset distribution&#45;&gt;name</title>
<path fill="none" stroke="#0000ff" d="M879.0464,-100.6274C803.707,-96.0536 698.093,-86.9158 606.8881,-69 564.6463,-60.7022 517.8793,-46.2719 484.1071,-34.874"/>
<polygon fill="#0000ff" stroke="#0000ff" points="485.0972,-31.5137 474.5027,-31.596 482.8361,-38.1385 485.0972,-31.5137"/>
<text text-anchor="middle" x="626.8881" y="-57.8" font-family="Times,serif" font-size="14.00" fill="#000000">name</text>
</g>
<!-- enabled -->
<g id="node5" class="node">
<title>enabled</title>
<ellipse fill="none" stroke="#0000ff" cx="557.8881" cy="-18" rx="46.5926" ry="18"/>
<text text-anchor="middle" x="557.8881" y="-14.3" font-family="Times,serif" font-size="14.00" fill="#000000">boolean</text>
</g>
<!-- dataset distribution&#45;&gt;enabled -->
<g id="edge4" class="edge">
<title>dataset distribution&#45;&gt;enabled</title>
<path fill="none" stroke="#0000ff" d="M883.5959,-98.2003C828.4876,-92.9397 758.143,-83.9456 696.8881,-69 662.71,-60.6609 625.3476,-46.6615 597.9744,-35.4375"/>
<polygon fill="#0000ff" stroke="#0000ff" points="599.308,-32.2015 588.7304,-31.597 596.6223,-38.6658 599.308,-32.2015"/>
<text text-anchor="middle" x="725.3881" y="-57.8" font-family="Times,serif" font-size="14.00" fill="#000000">enabled</text>
</g>
<!-- archived -->
<g id="node6" class="node">
<title>archived</title>
<ellipse fill="none" stroke="#0000ff" cx="669.8881" cy="-18" rx="46.5926" ry="18"/>
<text text-anchor="middle" x="669.8881" y="-14.3" font-family="Times,serif" font-size="14.00" fill="#000000">boolean</text>
</g>
<!-- dataset distribution&#45;&gt;archived -->
<g id="edge5" class="edge">
<title>dataset distribution&#45;&gt;archived</title>
<path fill="none" stroke="#0000ff" d="M903.2737,-92.6745C871.3694,-86.7114 834.0152,-78.7201 800.8881,-69 769.7397,-59.8605 735.5956,-46.4509 709.9771,-35.6755"/>
<polygon fill="#0000ff" stroke="#0000ff" points="711.1722,-32.3805 700.6,-31.6891 708.4335,-38.8225 711.1722,-32.3805"/>
<text text-anchor="middle" x="832.3881" y="-57.8" font-family="Times,serif" font-size="14.00" fill="#000000">archived</text>
</g>
<!-- description -->
<g id="node7" class="node">
<title>description</title>
<ellipse fill="none" stroke="#0000ff" cx="809.8881" cy="-18" rx="75.2868" ry="18"/>
<text text-anchor="middle" x="809.8881" y="-14.3" font-family="Times,serif" font-size="14.00" fill="#000000">narrative text</text>
</g>
<!-- dataset distribution&#45;&gt;description -->
<g id="edge6" class="edge">
<title>dataset distribution&#45;&gt;description</title>
<path fill="none" stroke="#0000ff" d="M935.8639,-88.5167C921.9423,-82.7808 906.5715,-76.0147 892.8881,-69 876.4364,-60.5661 858.901,-50.0359 844.2071,-40.7374"/>
<polygon fill="#0000ff" stroke="#0000ff" points="845.7693,-37.5817 835.4604,-35.1368 841.9946,-43.4768 845.7693,-37.5817"/>
<text text-anchor="middle" x="933.8881" y="-57.8" font-family="Times,serif" font-size="14.00" fill="#000000">description</text>
</g>
<!-- note -->
<g id="node8" class="node">
<title>note</title>
<ellipse fill="none" stroke="#0000ff" cx="978.8881" cy="-18" rx="75.2868" ry="18"/>
<text text-anchor="middle" x="978.8881" y="-14.3" font-family="Times,serif" font-size="14.00" fill="#000000">narrative text</text>
</g>
<!-- dataset distribution&#45;&gt;note -->
<g id="edge7" class="edge">
<title>dataset distribution&#45;&gt;note</title>
<path fill="none" stroke="#0000ff" d="M978.8881,-86.9735C978.8881,-75.1918 978.8881,-59.5607 978.8881,-46.1581"/>
<polygon fill="#0000ff" stroke="#0000ff" points="982.3882,-46.0033 978.8881,-36.0034 975.3882,-46.0034 982.3882,-46.0033"/>
<text text-anchor="middle" x="994.8881" y="-57.8" font-family="Times,serif" font-size="14.00" fill="#000000">note</text>
</g>
<!-- category -->
<g id="node9" class="node">
<title>category</title>
<ellipse fill="none" stroke="#000000" cx="1123.8881" cy="-18" rx="51.9908" ry="18"/>
<text text-anchor="middle" x="1123.8881" y="-14.3" font-family="Times,serif" font-size="14.00" fill="#000000">category</text>
</g>
<!-- dataset distribution&#45;&gt;category -->
<g id="edge8" class="edge">
<title>dataset distribution&#45;&gt;category</title>
<path fill="none" stroke="#0000ff" d="M1007.8825,-87.6033C1031.2894,-73.5592 1064.297,-53.7547 1089.1216,-38.8599"/>
<polygon fill="#0000ff" stroke="#0000ff" points="1091.0901,-41.7605 1097.8643,-33.6143 1087.4886,-35.758 1091.0901,-41.7605"/>
<text text-anchor="middle" x="1092.8881" y="-57.8" font-family="Times,serif" font-size="14.00" fill="#000000">category</text>
</g>
<!-- license -->
<g id="node11" class="node">
<title>license</title>
<ellipse fill="none" stroke="#0000ff" cx="1231.8881" cy="-18" rx="38.1938" ry="18"/>
<text text-anchor="middle" x="1231.8881" y="-14.3" font-family="Times,serif" font-size="14.00" fill="#000000">string</text>
</g>
<!-- dataset distribution&#45;&gt;license -->
<g id="edge9" class="edge">
<title>dataset distribution&#45;&gt;license</title>
<path fill="none" stroke="#0000ff" d="M1048.5436,-91.6946C1074.1759,-85.912 1103.2055,-78.3066 1128.8881,-69 1153.0192,-60.2557 1178.9043,-47.423 1198.6886,-36.8181"/>
<polygon fill="#0000ff" stroke="#0000ff" points="1200.4857,-39.8249 1207.5981,-31.9723 1197.1411,-33.6756 1200.4857,-39.8249"/>
<text text-anchor="middle" x="1189.3881" y="-57.8" font-family="Times,serif" font-size="14.00" fill="#000000">license</text>
</g>
<!-- rights -->
<g id="node12" class="node">
<title>rights</title>
<ellipse fill="none" stroke="#0000ff" cx="1326.8881" cy="-18" rx="38.1938" ry="18"/>
<text text-anchor="middle" x="1326.8881" y="-14.3" font-family="Times,serif" font-size="14.00" fill="#000000">string</text>
</g>
<!-- dataset distribution&#45;&gt;rights -->
<g id="edge10" class="edge">
<title>dataset distribution&#45;&gt;rights</title>
<path fill="none" stroke="#0000ff" d="M1053.7865,-92.6228C1065.8507,-90.6958 1078.2091,-88.7615 1089.8881,-87 1147.1295,-78.3663 1163.4151,-85.5484 1218.8881,-69 1244.9072,-61.2381 1272.5653,-48.0732 1293.3782,-37.0634"/>
<polygon fill="#0000ff" stroke="#0000ff" points="1295.2876,-40.0103 1302.4287,-32.1837 1291.9655,-33.8488 1295.2876,-40.0103"/>
<text text-anchor="middle" x="1277.3881" y="-57.8" font-family="Times,serif" font-size="14.00" fill="#000000">rights</text>
</g>
<!-- format -->
<g id="node13" class="node">
<title>format</title>
<ellipse fill="none" stroke="#0000ff" cx="1421.8881" cy="-18" rx="38.1938" ry="18"/>
<text text-anchor="middle" x="1421.8881" y="-14.3" font-family="Times,serif" font-size="14.00" fill="#000000">string</text>
</g>
<!-- dataset distribution&#45;&gt;format -->
<g id="edge11" class="edge">
<title>dataset distribution&#45;&gt;format</title>
<path fill="none" stroke="#0000ff" d="M1051.9166,-92.3434C1064.5547,-90.3863 1077.5842,-88.5152 1089.8881,-87 1184.1799,-75.3878 1210.7119,-92.0069 1302.8881,-69 1332.5973,-61.5847 1364.3859,-47.6191 1387.6276,-36.1746"/>
<polygon fill="#0000ff" stroke="#0000ff" points="1389.352,-39.2253 1396.7196,-31.6115 1386.2121,-32.969 1389.352,-39.2253"/>
<text text-anchor="middle" x="1371.3881" y="-57.8" font-family="Times,serif" font-size="14.00" fill="#000000">format</text>
</g>
<!-- creation date -->
<g id="node14" class="node">
<title>creation date</title>
<ellipse fill="none" stroke="#0000ff" cx="1509.8881" cy="-18" rx="31.3957" ry="18"/>
<text text-anchor="middle" x="1509.8881" y="-14.3" font-family="Times,serif" font-size="14.00" fill="#000000">date</text>
</g>
<!-- dataset distribution&#45;&gt;creation date -->
<g id="edge12" class="edge">
<title>dataset distribution&#45;&gt;creation date</title>
<path fill="none" stroke="#0000ff" d="M1051.2876,-92.1597C1064.1155,-90.1992 1077.3713,-88.3746 1089.8881,-87 1227.0732,-71.9344 1266.0354,-102.6181 1399.8881,-69 1427.9871,-61.9427 1457.6673,-47.7326 1479.1067,-36.1006"/>
<polygon fill="#0000ff" stroke="#0000ff" points="1481.0054,-39.0498 1488.0514,-31.1375 1477.6091,-32.9289 1481.0054,-39.0498"/>
<text text-anchor="middle" x="1488.8881" y="-57.8" font-family="Times,serif" font-size="14.00" fill="#000000">creation date</text>
</g>
<!-- distribution download url -->
<g id="node15" class="node">
<title>distribution download url</title>
<ellipse fill="none" stroke="#0000ff" cx="1620.8881" cy="-18" rx="38.1938" ry="18"/>
<text text-anchor="middle" x="1620.8881" y="-14.3" font-family="Times,serif" font-size="14.00" fill="#000000">string</text>
</g>
<!-- dataset distribution&#45;&gt;distribution download url -->
<g id="edge13" class="edge">
<title>dataset distribution&#45;&gt;distribution download url</title>
<path fill="none" stroke="#0000ff" d="M1050.6711,-92.0597C1063.6862,-90.0845 1077.1651,-88.2808 1089.8881,-87 1189.6858,-76.9539 1445.1767,-98.9969 1540.8881,-69 1560.2019,-62.9469 1579.4069,-50.9539 1594.1574,-40.1182"/>
<polygon fill="#0000ff" stroke="#0000ff" points="1596.4565,-42.7669 1602.2947,-33.9257 1592.2173,-37.1964 1596.4565,-42.7669"/>
<text text-anchor="middle" x="1661.8881" y="-57.8" font-family="Times,serif" font-size="14.00" fill="#000000">distribution download url</text>
</g>
<!-- named thing_category -->
<g id="node10" class="node">
<title>named thing_category</title>
<ellipse fill="none" stroke="#0000ff" cx="1168.8881" cy="-105" rx="69.5877" ry="18"/>
<text text-anchor="middle" x="1168.8881" y="-101.3" font-family="Times,serif" font-size="14.00" fill="#000000">named thing</text>
</g>
</g>
</svg>
