<?xml version="1.0" encoding="UTF-8" standalone="no"?>
<!DOCTYPE svg PUBLIC "-//W3C//DTD SVG 1.1//EN"
 "http://www.w3.org/Graphics/SVG/1.1/DTD/svg11.dtd">
<!-- Generated by graphviz version 2.40.1 (20161225.0304)
 -->
<!-- Title: %3 Pages: 1 -->
<svg width="1897pt" height="291pt"
 viewBox="0.00 0.00 1897.04 291.00" xmlns="http://www.w3.org/2000/svg" xmlns:xlink="http://www.w3.org/1999/xlink">
<g id="graph0" class="graph" transform="scale(1 1) rotate(0) translate(4 287)">
<title>%3</title>
<polygon fill="#ffffff" stroke="transparent" points="-4,4 -4,-287 1893.0444,-287 1893.0444,4 -4,4"/>
<!-- deployment to build association -->
<g id="node1" class="node">
<title>deployment to build association</title>
<ellipse fill="none" stroke="#000000" cx="1014.0444" cy="-265" rx="159.4721" ry="18"/>
<text text-anchor="middle" x="1014.0444" y="-261.3" font-family="Times,serif" font-size="14.00" fill="#000000">deployment to build association</text>
</g>
<!-- association -->
<g id="node2" class="node">
<title>association</title>
<ellipse fill="none" stroke="#000000" cx="63.0444" cy="-178" rx="63.0888" ry="18"/>
<text text-anchor="middle" x="63.0444" y="-174.3" font-family="Times,serif" font-size="14.00" fill="#000000">association</text>
</g>
<!-- deployment to build association&#45;&gt;association -->
<g id="edge1" class="edge">
<title>deployment to build association&#45;&gt;association</title>
<path fill="none" stroke="#000000" d="M858.422,-261.0155C674.2016,-255.6767 378.5995,-244.9837 269.0444,-229 216.1659,-221.2852 157.0802,-205.9414 115.7949,-194.0897"/>
<polygon fill="#000000" stroke="#000000" points="116.5384,-190.6612 105.9591,-191.2356 114.5875,-197.3839 116.5384,-190.6612"/>
<text text-anchor="middle" x="283.0444" y="-217.8" font-family="Times,serif" font-size="14.00" fill="#000000">is_a</text>
</g>
<!-- id -->
<g id="node3" class="node">
<title>id</title>
<ellipse fill="none" stroke="#0000ff" cx="182.0444" cy="-178" rx="38.1938" ry="18"/>
<text text-anchor="middle" x="182.0444" y="-174.3" font-family="Times,serif" font-size="14.00" fill="#000000">string</text>
</g>
<!-- deployment to build association&#45;&gt;id -->
<g id="edge2" class="edge">
<title>deployment to build association&#45;&gt;id</title>
<path fill="none" stroke="#0000ff" d="M857.2346,-261.7176C732.2053,-257.6894 552.8577,-248.756 397.0444,-229 321.5553,-219.4285 302.1776,-217.0181 229.0444,-196 226.2495,-195.1968 223.387,-194.2982 220.5216,-193.3426"/>
<polygon fill="#0000ff" stroke="#0000ff" points="221.4576,-189.9613 210.8628,-189.9297 219.1255,-196.5614 221.4576,-189.9613"/>
<text text-anchor="middle" x="404.0444" y="-217.8" font-family="Times,serif" font-size="14.00" fill="#000000">id</text>
</g>
<!-- name -->
<g id="node4" class="node">
<title>name</title>
<ellipse fill="none" stroke="#0000ff" cx="295.0444" cy="-178" rx="56.59" ry="18"/>
<text text-anchor="middle" x="295.0444" y="-174.3" font-family="Times,serif" font-size="14.00" fill="#000000">label type</text>
</g>
<!-- deployment to build association&#45;&gt;name -->
<g id="edge3" class="edge">
<title>deployment to build association&#45;&gt;name</title>
<path fill="none" stroke="#0000ff" d="M866.2176,-258.2536C734.9417,-251.6649 553.2028,-240.9124 482.0444,-229 434.2118,-220.9925 380.9686,-205.8372 343.5669,-194.1199"/>
<polygon fill="#0000ff" stroke="#0000ff" points="344.5248,-190.752 333.9347,-191.0686 342.4108,-197.4252 344.5248,-190.752"/>
<text text-anchor="middle" x="502.0444" y="-217.8" font-family="Times,serif" font-size="14.00" fill="#000000">name</text>
</g>
<!-- enabled -->
<g id="node5" class="node">
<title>enabled</title>
<ellipse fill="none" stroke="#0000ff" cx="416.0444" cy="-178" rx="46.5926" ry="18"/>
<text text-anchor="middle" x="416.0444" y="-174.3" font-family="Times,serif" font-size="14.00" fill="#000000">boolean</text>
</g>
<!-- deployment to build association&#45;&gt;enabled -->
<g id="edge4" class="edge">
<title>deployment to build association&#45;&gt;enabled</title>
<path fill="none" stroke="#0000ff" d="M862.7799,-259.3224C780.9432,-254.4706 678.398,-245.5101 588.0444,-229 543.566,-220.8726 494.2226,-205.5628 459.8346,-193.83"/>
<polygon fill="#0000ff" stroke="#0000ff" points="460.702,-190.4268 450.1073,-190.4704 458.4168,-197.0432 460.702,-190.4268"/>
<text text-anchor="middle" x="616.5444" y="-217.8" font-family="Times,serif" font-size="14.00" fill="#000000">enabled</text>
</g>
<!-- archived -->
<g id="node6" class="node">
<title>archived</title>
<ellipse fill="none" stroke="#0000ff" cx="528.0444" cy="-178" rx="46.5926" ry="18"/>
<text text-anchor="middle" x="528.0444" y="-174.3" font-family="Times,serif" font-size="14.00" fill="#000000">boolean</text>
</g>
<!-- deployment to build association&#45;&gt;archived -->
<g id="edge5" class="edge">
<title>deployment to build association&#45;&gt;archived</title>
<path fill="none" stroke="#0000ff" d="M889.0064,-253.7631C834.6847,-247.9243 770.469,-239.7309 713.0444,-229 654.8718,-218.1293 640.9075,-212.3956 584.0444,-196 580.4997,-194.9779 576.8403,-193.8859 573.1691,-192.764"/>
<polygon fill="#0000ff" stroke="#0000ff" points="574.0829,-189.3828 563.4945,-189.7519 572.0021,-196.0664 574.0829,-189.3828"/>
<text text-anchor="middle" x="744.5444" y="-217.8" font-family="Times,serif" font-size="14.00" fill="#000000">archived</text>
</g>
<!-- description -->
<g id="node7" class="node">
<title>description</title>
<ellipse fill="none" stroke="#0000ff" cx="668.0444" cy="-178" rx="75.2868" ry="18"/>
<text text-anchor="middle" x="668.0444" y="-174.3" font-family="Times,serif" font-size="14.00" fill="#000000">narrative text</text>
</g>
<!-- deployment to build association&#45;&gt;description -->
<g id="edge6" class="edge">
<title>deployment to build association&#45;&gt;description</title>
<path fill="none" stroke="#0000ff" d="M925.5981,-249.9237C894.8625,-244.1211 860.2763,-236.9576 829.0444,-229 792.3823,-219.6589 751.7751,-206.7774 720.5143,-196.2977"/>
<polygon fill="#0000ff" stroke="#0000ff" points="721.3041,-192.8703 710.7099,-192.9871 719.0646,-199.5024 721.3041,-192.8703"/>
<text text-anchor="middle" x="870.0444" y="-217.8" font-family="Times,serif" font-size="14.00" fill="#000000">description</text>
</g>
<!-- note -->
<g id="node8" class="node">
<title>note</title>
<ellipse fill="none" stroke="#0000ff" cx="837.0444" cy="-178" rx="75.2868" ry="18"/>
<text text-anchor="middle" x="837.0444" y="-174.3" font-family="Times,serif" font-size="14.00" fill="#000000">narrative text</text>
</g>
<!-- deployment to build association&#45;&gt;note -->
<g id="edge7" class="edge">
<title>deployment to build association&#45;&gt;note</title>
<path fill="none" stroke="#0000ff" d="M978.2258,-247.3943C949.5721,-233.3102 909.3343,-213.5323 879.1427,-198.6924"/>
<polygon fill="#0000ff" stroke="#0000ff" points="880.6378,-195.5274 870.1194,-194.2572 877.55,-201.8095 880.6378,-195.5274"/>
<text text-anchor="middle" x="953.0444" y="-217.8" font-family="Times,serif" font-size="14.00" fill="#000000">note</text>
</g>
<!-- negated -->
<g id="node9" class="node">
<title>negated</title>
<ellipse fill="none" stroke="#0000ff" cx="977.0444" cy="-178" rx="46.5926" ry="18"/>
<text text-anchor="middle" x="977.0444" y="-174.3" font-family="Times,serif" font-size="14.00" fill="#000000">boolean</text>
</g>
<!-- deployment to build association&#45;&gt;negated -->
<g id="edge8" class="edge">
<title>deployment to build association&#45;&gt;negated</title>
<path fill="none" stroke="#0000ff" d="M992.5024,-247.0618C987.5534,-241.7839 982.9083,-235.6292 980.0444,-229 976.9974,-221.9469 975.6689,-213.8275 975.2449,-206.171"/>
<polygon fill="#0000ff" stroke="#0000ff" points="978.7448,-206.1276 975.1508,-196.1609 971.7451,-206.1934 978.7448,-206.1276"/>
<text text-anchor="middle" x="1009.0444" y="-217.8" font-family="Times,serif" font-size="14.00" fill="#000000">negated</text>
</g>
<!-- relation -->
<g id="node10" class="node">
<title>relation</title>
<ellipse fill="none" stroke="#0000ff" cx="1725.0444" cy="-18" rx="57.6901" ry="18"/>
<text text-anchor="middle" x="1725.0444" y="-14.3" font-family="Times,serif" font-size="14.00" fill="#000000">uriorcurie</text>
</g>
<!-- deployment to build association&#45;&gt;relation -->
<g id="edge9" class="edge">
<title>deployment to build association&#45;&gt;relation</title>
<path fill="none" stroke="#0000ff" d="M1026.7675,-247.0026C1030.5679,-241.3462 1034.6283,-235.0073 1038.0444,-229 1054.8481,-199.4502 1044.3837,-181.0894 1071.0444,-160 1162.5357,-87.6274 1512.8884,-41.4229 1659.7095,-24.8635"/>
<polygon fill="#0000ff" stroke="#0000ff" points="1660.373,-28.3112 1669.9225,-23.7225 1659.5957,-21.3545 1660.373,-28.3112"/>
<text text-anchor="middle" x="1160.0444" y="-130.8" font-family="Times,serif" font-size="14.00" fill="#000000">relation</text>
</g>
<!-- qualifiers -->
<g id="node11" class="node">
<title>qualifiers</title>
<ellipse fill="none" stroke="#0000ff" cx="1157.0444" cy="-178" rx="77.1866" ry="18"/>
<text text-anchor="middle" x="1157.0444" y="-174.3" font-family="Times,serif" font-size="14.00" fill="#000000">ontology class</text>
</g>
<!-- deployment to build association&#45;&gt;qualifiers -->
<g id="edge10" class="edge">
<title>deployment to build association&#45;&gt;qualifiers</title>
<path fill="none" stroke="#0000ff" d="M1043.3277,-247.1843C1065.644,-233.6073 1096.5087,-214.8294 1120.4524,-200.2623"/>
<polygon fill="#0000ff" stroke="#0000ff" points="1122.5339,-203.0928 1129.2579,-194.9051 1118.8956,-197.1126 1122.5339,-203.0928"/>
<text text-anchor="middle" x="1129.0444" y="-217.8" font-family="Times,serif" font-size="14.00" fill="#000000">qualifiers</text>
</g>
<!-- publications -->
<g id="node12" class="node">
<title>publications</title>
<ellipse fill="none" stroke="#0000ff" cx="1315.0444" cy="-178" rx="63.0888" ry="18"/>
<text text-anchor="middle" x="1315.0444" y="-174.3" font-family="Times,serif" font-size="14.00" fill="#000000">publication</text>
</g>
<!-- deployment to build association&#45;&gt;publications -->
<g id="edge11" class="edge">
<title>deployment to build association&#45;&gt;publications</title>
<path fill="none" stroke="#0000ff" d="M1088.7542,-249.0077C1113.7822,-243.2298 1141.7478,-236.3144 1167.0444,-229 1200.9386,-219.1996 1238.5177,-206.2233 1267.3274,-195.8126"/>
<polygon fill="#0000ff" stroke="#0000ff" points="1268.5416,-199.0954 1276.7435,-192.3887 1266.1495,-192.5168 1268.5416,-199.0954"/>
<text text-anchor="middle" x="1257.0444" y="-217.8" font-family="Times,serif" font-size="14.00" fill="#000000">publications</text>
</g>
<!-- type -->
<g id="node13" class="node">
<title>type</title>
<ellipse fill="none" stroke="#000000" cx="1427.0444" cy="-178" rx="31.3957" ry="18"/>
<text text-anchor="middle" x="1427.0444" y="-174.3" font-family="Times,serif" font-size="14.00" fill="#000000">type</text>
</g>
<!-- deployment to build association&#45;&gt;type -->
<g id="edge12" class="edge">
<title>deployment to build association&#45;&gt;type</title>
<path fill="none" stroke="#0000ff" d="M1127.7267,-252.3599C1201.7701,-243.8799 1287.7322,-233.4731 1305.0444,-229 1336.4398,-220.8882 1370.3312,-206.2016 1394.4062,-194.6652"/>
<polygon fill="#0000ff" stroke="#0000ff" points="1395.9896,-197.7871 1403.4459,-190.2603 1392.9232,-191.4944 1395.9896,-197.7871"/>
<text text-anchor="middle" x="1366.0444" y="-217.8" font-family="Times,serif" font-size="14.00" fill="#000000">type</text>
</g>
<!-- category -->
<g id="node15" class="node">
<title>category</title>
<ellipse fill="none" stroke="#000000" cx="1528.0444" cy="-178" rx="51.9908" ry="18"/>
<text text-anchor="middle" x="1528.0444" y="-174.3" font-family="Times,serif" font-size="14.00" fill="#000000">category</text>
</g>
<!-- deployment to build association&#45;&gt;category -->
<g id="edge13" class="edge">
<title>deployment to build association&#45;&gt;category</title>
<path fill="none" stroke="#0000ff" d="M1129.0156,-252.4788C1147.0909,-250.5899 1165.5712,-248.7051 1183.0444,-247 1273.1924,-238.2032 1297.5851,-248.4678 1386.0444,-229 1420.714,-221.37 1458.4714,-207.5259 1486.3314,-196.1853"/>
<polygon fill="#0000ff" stroke="#0000ff" points="1487.8464,-199.3463 1495.7518,-192.2926 1485.1731,-192.8769 1487.8464,-199.3463"/>
<text text-anchor="middle" x="1470.0444" y="-217.8" font-family="Times,serif" font-size="14.00" fill="#000000">category</text>
</g>
<!-- predicate -->
<g id="node17" class="node">
<title>predicate</title>
<ellipse fill="none" stroke="#000000" cx="1653.0444" cy="-178" rx="55.4913" ry="18"/>
<text text-anchor="middle" x="1653.0444" y="-174.3" font-family="Times,serif" font-size="14.00" fill="#000000">predicate</text>
</g>
<!-- deployment to build association&#45;&gt;predicate -->
<g id="edge14" class="edge">
<title>deployment to build association&#45;&gt;predicate</title>
<path fill="none" stroke="#0000ff" d="M1126.6935,-252.2026C1145.4958,-250.2961 1164.8104,-248.4782 1183.0444,-247 1326.3526,-235.3825 1364.9857,-256.8323 1506.0444,-229 1542.2364,-221.859 1581.6466,-207.8238 1610.5424,-196.2819"/>
<polygon fill="#0000ff" stroke="#0000ff" points="1611.969,-199.4803 1619.919,-192.4768 1609.3368,-192.994 1611.969,-199.4803"/>
<text text-anchor="middle" x="1594.5444" y="-217.8" font-family="Times,serif" font-size="14.00" fill="#000000">predicate</text>
</g>
<!-- subject -->
<g id="node19" class="node">
<title>subject</title>
<ellipse fill="none" stroke="#000000" cx="1771.0444" cy="-178" rx="44.6926" ry="18"/>
<text text-anchor="middle" x="1771.0444" y="-174.3" font-family="Times,serif" font-size="14.00" fill="#000000">subject</text>
</g>
<!-- deployment to build association&#45;&gt;subject -->
<g id="edge15" class="edge">
<title>deployment to build association&#45;&gt;subject</title>
<path fill="none" stroke="#0000ff" d="M1125.3106,-252.0925C1144.5436,-250.1639 1164.3579,-248.3674 1183.0444,-247 1282.8575,-239.6963 1534.8999,-248.5873 1633.0444,-229 1667.8862,-222.0464 1705.6077,-207.5923 1732.7929,-195.8415"/>
<polygon fill="#0000ff" stroke="#0000ff" points="1734.203,-199.0449 1741.9472,-191.8146 1731.3843,-192.6375 1734.203,-199.0449"/>
<text text-anchor="middle" x="1709.5444" y="-217.8" font-family="Times,serif" font-size="14.00" fill="#000000">subject</text>
</g>
<!-- object -->
<g id="node21" class="node">
<title>object</title>
<ellipse fill="none" stroke="#000000" cx="1793.0444" cy="-91" rx="39.7935" ry="18"/>
<text text-anchor="middle" x="1793.0444" y="-87.3" font-family="Times,serif" font-size="14.00" fill="#000000">object</text>
</g>
<!-- deployment to build association&#45;&gt;object -->
<g id="edge16" class="edge">
<title>deployment to build association&#45;&gt;object</title>
<path fill="none" stroke="#0000ff" d="M1124.8477,-252.0161C1144.2237,-250.0838 1164.2056,-248.3059 1183.0444,-247 1306.5903,-238.4361 1618.7031,-253.7632 1740.0444,-229 1779.7509,-220.8968 1798.3729,-226.5107 1825.0444,-196 1845.5828,-172.5053 1851.5626,-155.1263 1838.0444,-127 1835.2571,-121.2007 1831.0302,-116.0431 1826.263,-111.5709"/>
<polygon fill="#0000ff" stroke="#0000ff" points="1828.3925,-108.7902 1818.456,-105.1136 1823.931,-114.1842 1828.3925,-108.7902"/>
<text text-anchor="middle" x="1866.5444" y="-174.3" font-family="Times,serif" font-size="14.00" fill="#000000">object</text>
</g>
<!-- association_type -->
<g id="node14" class="node">
<title>association_type</title>
<ellipse fill="none" stroke="#0000ff" cx="1230.0444" cy="-265" rx="38.1938" ry="18"/>
<text text-anchor="middle" x="1230.0444" y="-261.3" font-family="Times,serif" font-size="14.00" fill="#000000">string</text>
</g>
<!-- association_category -->
<g id="node16" class="node">
<title>association_category</title>
<ellipse fill="none" stroke="#0000ff" cx="1349.0444" cy="-265" rx="63.0888" ry="18"/>
<text text-anchor="middle" x="1349.0444" y="-261.3" font-family="Times,serif" font-size="14.00" fill="#000000">association</text>
</g>
<!-- deployment to build association_predicate -->
<g id="node18" class="node">
<title>deployment to build association_predicate</title>
<ellipse fill="none" stroke="#0000ff" cx="1509.0444" cy="-265" rx="78.7863" ry="18"/>
<text text-anchor="middle" x="1509.0444" y="-261.3" font-family="Times,serif" font-size="14.00" fill="#000000">predicate type</text>
</g>
<!-- subject&#45;&gt;relation -->
<g id="edge18" class="edge">
<title>subject&#45;&gt;relation</title>
<path fill="none" stroke="#000000" stroke-dasharray="1,5" d="M1763.098,-160.1293C1757.213,-146.3661 1749.3308,-126.7533 1744.0444,-109 1737.8454,-88.1821 1732.913,-64.1019 1729.6287,-45.9434"/>
<polygon fill="#000000" stroke="#000000" points="1733.061,-45.252 1727.8884,-36.0057 1726.1659,-46.4595 1733.061,-45.252"/>
</g>
<!-- subject&#45;&gt;object -->
<g id="edge17" class="edge">
<title>subject&#45;&gt;object</title>
<path fill="none" stroke="#000000" d="M1774.5468,-159.975C1776.5477,-150.1752 1779.2168,-137.8699 1782.0444,-127 1782.7452,-124.306 1783.5173,-121.512 1784.3176,-118.7256"/>
<polygon fill="#000000" stroke="#000000" points="1787.7556,-119.4442 1787.2625,-108.8608 1781.0481,-117.4417 1787.7556,-119.4442"/>
<text text-anchor="middle" x="1810.0444" y="-130.8" font-family="Times,serif" font-size="14.00" fill="#000000">relation</text>
</g>
<!-- deployment to build association_subject -->
<g id="node20" class="node">
<title>deployment to build association_subject</title>
<ellipse fill="none" stroke="#0000ff" cx="1671.0444" cy="-265" rx="65.7887" ry="18"/>
<text text-anchor="middle" x="1671.0444" y="-261.3" font-family="Times,serif" font-size="14.00" fill="#000000">deployment</text>
</g>
<!-- object&#45;&gt;relation -->
<g id="edge19" class="edge">
<title>object&#45;&gt;relation</title>
<path fill="none" stroke="#000000" stroke-dasharray="1,5" d="M1777.2729,-74.0688C1768.6439,-64.8053 1757.7907,-53.1542 1748.2166,-42.8761"/>
<polygon fill="#000000" stroke="#000000" points="1750.5797,-40.2779 1741.2026,-35.3463 1745.4576,-45.0491 1750.5797,-40.2779"/>
</g>
<!-- deployment to build association_object -->
<g id="node22" class="node">
<title>deployment to build association_object</title>
<ellipse fill="none" stroke="#0000ff" cx="1789.0444" cy="-265" rx="34.394" ry="18"/>
<text text-anchor="middle" x="1789.0444" y="-261.3" font-family="Times,serif" font-size="14.00" fill="#000000">build</text>
</g>
</g>
</svg>
