<?xml version="1.0" encoding="UTF-8" standalone="no"?>
<!DOCTYPE svg PUBLIC "-//W3C//DTD SVG 1.1//EN"
 "http://www.w3.org/Graphics/SVG/1.1/DTD/svg11.dtd">
<!-- Generated by graphviz version 2.40.1 (20161225.0304)
 -->
<!-- Title: %3 Pages: 1 -->
<svg width="2040pt" height="131pt"
 viewBox="0.00 0.00 2040.04 131.00" xmlns="http://www.w3.org/2000/svg" xmlns:xlink="http://www.w3.org/1999/xlink">
<g id="graph0" class="graph" transform="scale(1 1) rotate(0) translate(4 127)">
<title>%3</title>
<polygon fill="#ffffff" stroke="transparent" points="-4,4 -4,-127 2036.0352,-127 2036.0352,4 -4,4"/>
<!-- deployment -->
<g id="node1" class="node">
<title>deployment</title>
<ellipse fill="none" stroke="#000000" cx="989.5415" cy="-105" rx="65.7887" ry="18"/>
<text text-anchor="middle" x="989.5415" y="-101.3" font-family="Times,serif" font-size="14.00" fill="#000000">deployment</text>
</g>
<!-- deployment entity -->
<g id="node2" class="node">
<title>deployment entity</title>
<ellipse fill="none" stroke="#000000" cx="95.5415" cy="-18" rx="95.5831" ry="18"/>
<text text-anchor="middle" x="95.5415" y="-14.3" font-family="Times,serif" font-size="14.00" fill="#000000">deployment entity</text>
</g>
<!-- deployment&#45;&gt;deployment entity -->
<g id="edge1" class="edge">
<title>deployment&#45;&gt;deployment entity</title>
<path fill="none" stroke="#000000" d="M923.9563,-102.8008C817.1734,-98.7905 599.1957,-88.8132 415.5415,-69 319.4247,-58.6306 295.9653,-51.5012 200.5415,-36 192.5596,-34.7034 184.2414,-33.3246 175.9345,-31.9296"/>
<polygon fill="#000000" stroke="#000000" points="176.274,-28.4374 165.8309,-30.2243 175.109,-35.3398 176.274,-28.4374"/>
<text text-anchor="middle" x="429.5415" y="-57.8" font-family="Times,serif" font-size="14.00" fill="#000000">is_a</text>
</g>
<!-- application -->
<g id="node3" class="node">
<title>application</title>
<ellipse fill="none" stroke="#000000" cx="271.5415" cy="-18" rx="62.2891" ry="18"/>
<text text-anchor="middle" x="271.5415" y="-14.3" font-family="Times,serif" font-size="14.00" fill="#000000">application</text>
</g>
<!-- deployment&#45;&gt;application -->
<g id="edge2" class="edge">
<title>deployment&#45;&gt;application</title>
<path fill="none" stroke="#000000" d="M924.6032,-102.323C807.2854,-96.5489 552.6728,-79.7154 342.5415,-36 337.6102,-34.9741 332.5052,-33.8348 327.3983,-32.6416"/>
<polygon fill="#000000" stroke="#000000" points="328.1607,-29.2253 317.6202,-30.2966 326.5281,-36.0323 328.1607,-29.2253"/>
<text text-anchor="middle" x="553.0415" y="-57.8" font-family="Times,serif" font-size="14.00" fill="#000000">uses</text>
</g>
<!-- systemic entity -->
<g id="node4" class="node">
<title>systemic entity</title>
<ellipse fill="none" stroke="#000000" cx="434.5415" cy="-18" rx="82.5854" ry="18"/>
<text text-anchor="middle" x="434.5415" y="-14.3" font-family="Times,serif" font-size="14.00" fill="#000000">systemic entity</text>
</g>
<!-- deployment&#45;&gt;systemic entity -->
<g id="edge3" class="edge">
<title>deployment&#45;&gt;systemic entity</title>
<path fill="none" stroke="#000000" d="M925.7475,-100.4963C857.9247,-95.1652 747.6818,-84.9435 653.5415,-69 600.1572,-59.9589 540.3356,-45.7445 496.7217,-34.6162"/>
<polygon fill="#000000" stroke="#000000" points="497.392,-31.1748 486.8355,-32.0757 495.6498,-37.9545 497.392,-31.1748"/>
<text text-anchor="middle" x="670.0415" y="-57.8" font-family="Times,serif" font-size="14.00" fill="#000000">uses</text>
</g>
<!-- id -->
<g id="node5" class="node">
<title>id</title>
<ellipse fill="none" stroke="#0000ff" cx="573.5415" cy="-18" rx="38.1938" ry="18"/>
<text text-anchor="middle" x="573.5415" y="-14.3" font-family="Times,serif" font-size="14.00" fill="#000000">string</text>
</g>
<!-- deployment&#45;&gt;id -->
<g id="edge4" class="edge">
<title>deployment&#45;&gt;id</title>
<path fill="none" stroke="#0000ff" d="M928.7501,-98.0066C854.749,-88.5005 726.5349,-68.8149 620.5415,-36 617.8027,-35.1521 614.9939,-34.2258 612.1779,-33.2552"/>
<polygon fill="#0000ff" stroke="#0000ff" points="613.2624,-29.9258 602.6679,-29.8338 610.8927,-36.5125 613.2624,-29.9258"/>
<text text-anchor="middle" x="757.5415" y="-57.8" font-family="Times,serif" font-size="14.00" fill="#000000">id</text>
</g>
<!-- name -->
<g id="node6" class="node">
<title>name</title>
<ellipse fill="none" stroke="#0000ff" cx="686.5415" cy="-18" rx="56.59" ry="18"/>
<text text-anchor="middle" x="686.5415" y="-14.3" font-family="Times,serif" font-size="14.00" fill="#000000">label type</text>
</g>
<!-- deployment&#45;&gt;name -->
<g id="edge5" class="edge">
<title>deployment&#45;&gt;name</title>
<path fill="none" stroke="#0000ff" d="M933.8219,-95.3658C900.6125,-89.072 857.8032,-79.9886 820.5415,-69 789.7382,-59.916 755.9483,-47.0347 730.0059,-36.4908"/>
<polygon fill="#0000ff" stroke="#0000ff" points="731.0502,-33.1361 720.4701,-32.577 728.3923,-39.6119 731.0502,-33.1361"/>
<text text-anchor="middle" x="840.5415" y="-57.8" font-family="Times,serif" font-size="14.00" fill="#000000">name</text>
</g>
<!-- enabled -->
<g id="node7" class="node">
<title>enabled</title>
<ellipse fill="none" stroke="#0000ff" cx="807.5415" cy="-18" rx="46.5926" ry="18"/>
<text text-anchor="middle" x="807.5415" y="-14.3" font-family="Times,serif" font-size="14.00" fill="#000000">boolean</text>
</g>
<!-- deployment&#45;&gt;enabled -->
<g id="edge6" class="edge">
<title>deployment&#45;&gt;enabled</title>
<path fill="none" stroke="#0000ff" d="M945.9019,-91.5245C928.0774,-85.4499 907.4771,-77.6856 889.5415,-69 872.0091,-60.5097 853.499,-49.2199 838.5107,-39.4211"/>
<polygon fill="#0000ff" stroke="#0000ff" points="840.3941,-36.4704 830.1267,-33.8565 836.523,-42.3027 840.3941,-36.4704"/>
<text text-anchor="middle" x="918.0415" y="-57.8" font-family="Times,serif" font-size="14.00" fill="#000000">enabled</text>
</g>
<!-- archived -->
<g id="node8" class="node">
<title>archived</title>
<ellipse fill="none" stroke="#0000ff" cx="919.5415" cy="-18" rx="46.5926" ry="18"/>
<text text-anchor="middle" x="919.5415" y="-14.3" font-family="Times,serif" font-size="14.00" fill="#000000">boolean</text>
</g>
<!-- deployment&#45;&gt;archived -->
<g id="edge7" class="edge">
<title>deployment&#45;&gt;archived</title>
<path fill="none" stroke="#0000ff" d="M975.376,-87.3943C965.157,-74.6935 951.2124,-57.3624 939.8156,-43.1977"/>
<polygon fill="#0000ff" stroke="#0000ff" points="942.4428,-40.8798 933.4471,-35.2827 936.989,-45.2679 942.4428,-40.8798"/>
<text text-anchor="middle" x="991.0415" y="-57.8" font-family="Times,serif" font-size="14.00" fill="#000000">archived</text>
</g>
<!-- description -->
<g id="node9" class="node">
<title>description</title>
<ellipse fill="none" stroke="#0000ff" cx="1059.5415" cy="-18" rx="75.2868" ry="18"/>
<text text-anchor="middle" x="1059.5415" y="-14.3" font-family="Times,serif" font-size="14.00" fill="#000000">narrative text</text>
</g>
<!-- deployment&#45;&gt;description -->
<g id="edge8" class="edge">
<title>deployment&#45;&gt;description</title>
<path fill="none" stroke="#0000ff" d="M1009.2043,-87.4573C1015.0652,-81.8194 1021.314,-75.3765 1026.5415,-69 1032.6624,-61.5337 1038.6257,-52.8854 1043.7613,-44.8553"/>
<polygon fill="#0000ff" stroke="#0000ff" points="1046.867,-46.4887 1049.1722,-36.1477 1040.9214,-42.7941 1046.867,-46.4887"/>
<text text-anchor="middle" x="1078.5415" y="-57.8" font-family="Times,serif" font-size="14.00" fill="#000000">description</text>
</g>
<!-- note -->
<g id="node10" class="node">
<title>note</title>
<ellipse fill="none" stroke="#0000ff" cx="1228.5415" cy="-18" rx="75.2868" ry="18"/>
<text text-anchor="middle" x="1228.5415" y="-14.3" font-family="Times,serif" font-size="14.00" fill="#000000">narrative text</text>
</g>
<!-- deployment&#45;&gt;note -->
<g id="edge9" class="edge">
<title>deployment&#45;&gt;note</title>
<path fill="none" stroke="#0000ff" d="M1038.439,-92.8972C1069.974,-84.8929 1107.9136,-74.8344 1123.5415,-69 1145.8943,-60.655 1169.8953,-49.1988 1189.3008,-39.2582"/>
<polygon fill="#0000ff" stroke="#0000ff" points="1191.1668,-42.2331 1198.4305,-34.5202 1187.9424,-36.0199 1191.1668,-42.2331"/>
<text text-anchor="middle" x="1175.5415" y="-57.8" font-family="Times,serif" font-size="14.00" fill="#000000">note</text>
</g>
<!-- category -->
<g id="node11" class="node">
<title>category</title>
<ellipse fill="none" stroke="#000000" cx="1373.5415" cy="-18" rx="51.9908" ry="18"/>
<text text-anchor="middle" x="1373.5415" y="-14.3" font-family="Times,serif" font-size="14.00" fill="#000000">category</text>
</g>
<!-- deployment&#45;&gt;category -->
<g id="edge10" class="edge">
<title>deployment&#45;&gt;category</title>
<path fill="none" stroke="#0000ff" d="M1037.5505,-92.5612C1046.1705,-90.5455 1055.0973,-88.5983 1063.5415,-87 1121.7181,-75.9882 1137.5743,-81.0658 1195.5415,-69 1248.4366,-57.9899 1260.6307,-50.9792 1312.5415,-36 1316.3126,-34.9118 1320.2126,-33.7788 1324.1329,-32.6343"/>
<polygon fill="#0000ff" stroke="#0000ff" points="1325.2454,-35.9556 1333.8579,-29.7851 1323.2772,-29.238 1325.2454,-35.9556"/>
<text text-anchor="middle" x="1284.5415" y="-57.8" font-family="Times,serif" font-size="14.00" fill="#000000">category</text>
</g>
<!-- has attribute -->
<g id="node13" class="node">
<title>has attribute</title>
<ellipse fill="none" stroke="#000000" cx="1514.5415" cy="-18" rx="71.4873" ry="18"/>
<text text-anchor="middle" x="1514.5415" y="-14.3" font-family="Times,serif" font-size="14.00" fill="#000000">has attribute</text>
</g>
<!-- deployment&#45;&gt;has attribute -->
<g id="edge11" class="edge">
<title>deployment&#45;&gt;has attribute</title>
<path fill="none" stroke="#0000ff" d="M1036.675,-92.2792C1045.5478,-90.2428 1054.7881,-88.3612 1063.5415,-87 1176.6838,-69.4061 1207.5665,-87.6375 1320.5415,-69 1368.3275,-61.1168 1421.4475,-46.7475 1460.0034,-35.2658"/>
<polygon fill="#0000ff" stroke="#0000ff" points="1461.41,-38.4976 1469.9766,-32.2635 1459.3922,-31.7947 1461.41,-38.4976"/>
<text text-anchor="middle" x="1438.5415" y="-57.8" font-family="Times,serif" font-size="14.00" fill="#000000">has attribute</text>
</g>
<!-- in taxon -->
<g id="node15" class="node">
<title>in taxon</title>
<ellipse fill="none" stroke="#0000ff" cx="1676.5415" cy="-18" rx="72.5877" ry="18"/>
<text text-anchor="middle" x="1676.5415" y="-14.3" font-family="Times,serif" font-size="14.00" fill="#000000">system taxon</text>
</g>
<!-- deployment&#45;&gt;in taxon -->
<g id="edge12" class="edge">
<title>deployment&#45;&gt;in taxon</title>
<path fill="none" stroke="#0000ff" d="M1036.2484,-92.1713C1045.245,-90.1182 1054.6392,-88.2583 1063.5415,-87 1251.1786,-60.4777 1302.2889,-98.1131 1489.5415,-69 1535.7852,-61.8103 1586.9728,-47.381 1624.0852,-35.6998"/>
<polygon fill="#0000ff" stroke="#0000ff" points="1625.2184,-39.0122 1633.6837,-32.6412 1623.0931,-32.3426 1625.2184,-39.0122"/>
<text text-anchor="middle" x="1586.5415" y="-57.8" font-family="Times,serif" font-size="14.00" fill="#000000">in taxon</text>
</g>
<!-- application user login -->
<g id="node16" class="node">
<title>application user login</title>
<ellipse fill="none" stroke="#0000ff" cx="1805.5415" cy="-18" rx="38.1938" ry="18"/>
<text text-anchor="middle" x="1805.5415" y="-14.3" font-family="Times,serif" font-size="14.00" fill="#000000">string</text>
</g>
<!-- deployment&#45;&gt;application user login -->
<g id="edge13" class="edge">
<title>deployment&#45;&gt;application user login</title>
<path fill="none" stroke="#0000ff" d="M1035.8419,-92.1906C1044.9596,-90.1079 1054.5021,-88.2323 1063.5415,-87 1308.5163,-53.6047 1374.4756,-101.7197 1619.5415,-69 1682.478,-60.5971 1697.8717,-54.7289 1758.5415,-36 1761.281,-35.1543 1764.0904,-34.2297 1766.9067,-33.2603"/>
<polygon fill="#0000ff" stroke="#0000ff" points="1768.191,-36.518 1776.4174,-29.8414 1765.823,-29.9307 1768.191,-36.518"/>
<text text-anchor="middle" x="1775.5415" y="-57.8" font-family="Times,serif" font-size="14.00" fill="#000000">application user login</text>
</g>
<!-- has control actor -->
<g id="node17" class="node">
<title>has control actor</title>
<ellipse fill="none" stroke="#0000ff" cx="1960.5415" cy="-18" rx="71.4873" ry="18"/>
<text text-anchor="middle" x="1960.5415" y="-14.3" font-family="Times,serif" font-size="14.00" fill="#000000">control actor</text>
</g>
<!-- deployment&#45;&gt;has control actor -->
<g id="edge14" class="edge">
<title>deployment&#45;&gt;has control actor</title>
<path fill="none" stroke="#0000ff" d="M1035.8325,-92.1204C1044.951,-90.0439 1054.4962,-88.1884 1063.5415,-87 1151.0345,-75.5046 1771.8514,-90.0799 1857.5415,-69 1881.6287,-63.0745 1906.6103,-50.8779 1925.9379,-39.8978"/>
<polygon fill="#0000ff" stroke="#0000ff" points="1927.7965,-42.8656 1934.6692,-34.8023 1924.2682,-36.8198 1927.7965,-42.8656"/>
<text text-anchor="middle" x="1957.0415" y="-57.8" font-family="Times,serif" font-size="14.00" fill="#000000">has control actor</text>
</g>
<!-- named thing_category -->
<g id="node12" class="node">
<title>named thing_category</title>
<ellipse fill="none" stroke="#0000ff" cx="1142.5415" cy="-105" rx="69.5877" ry="18"/>
<text text-anchor="middle" x="1142.5415" y="-101.3" font-family="Times,serif" font-size="14.00" fill="#000000">named thing</text>
</g>
<!-- systemic entity_has attribute -->
<g id="node14" class="node">
<title>systemic entity_has attribute</title>
<ellipse fill="none" stroke="#0000ff" cx="1282.5415" cy="-105" rx="51.9908" ry="18"/>
<text text-anchor="middle" x="1282.5415" y="-101.3" font-family="Times,serif" font-size="14.00" fill="#000000">attribute</text>
</g>
</g>
</svg>
