<?xml version="1.0" encoding="UTF-8" standalone="no"?>
<!DOCTYPE svg PUBLIC "-//W3C//DTD SVG 1.1//EN"
 "http://www.w3.org/Graphics/SVG/1.1/DTD/svg11.dtd">
<!-- Generated by graphviz version 2.40.1 (20161225.0304)
 -->
<!-- Title: %3 Pages: 1 -->
<svg width="1878pt" height="131pt"
 viewBox="0.00 0.00 1877.79 131.00" xmlns="http://www.w3.org/2000/svg" xmlns:xlink="http://www.w3.org/1999/xlink">
<g id="graph0" class="graph" transform="scale(1 1) rotate(0) translate(4 127)">
<title>%3</title>
<polygon fill="#ffffff" stroke="transparent" points="-4,4 -4,-127 1873.7901,-127 1873.7901,4 -4,4"/>
<!-- deployment configuration -->
<g id="node1" class="node">
<title>deployment configuration</title>
<ellipse fill="none" stroke="#000000" cx="1003.4435" cy="-105" rx="130.777" ry="18"/>
<text text-anchor="middle" x="1003.4435" y="-101.3" font-family="Times,serif" font-size="14.00" fill="#000000">deployment configuration</text>
</g>
<!-- configuration -->
<g id="node2" class="node">
<title>configuration</title>
<ellipse fill="none" stroke="#000000" cx="73.4435" cy="-18" rx="73.387" ry="18"/>
<text text-anchor="middle" x="73.4435" y="-14.3" font-family="Times,serif" font-size="14.00" fill="#000000">configuration</text>
</g>
<!-- deployment configuration&#45;&gt;configuration -->
<g id="edge1" class="edge">
<title>deployment configuration&#45;&gt;configuration</title>
<path fill="none" stroke="#000000" d="M875.4423,-101.3375C701.2778,-95.8724 398.8084,-84.537 289.4435,-69 234.9409,-61.2571 173.9967,-46.2719 130.7765,-34.5399"/>
<polygon fill="#000000" stroke="#000000" points="131.5802,-31.1311 121.0106,-31.8625 129.7293,-37.882 131.5802,-31.1311"/>
<text text-anchor="middle" x="303.4435" y="-57.8" font-family="Times,serif" font-size="14.00" fill="#000000">is_a</text>
</g>
<!-- id -->
<g id="node3" class="node">
<title>id</title>
<ellipse fill="none" stroke="#0000ff" cx="203.4435" cy="-18" rx="38.1938" ry="18"/>
<text text-anchor="middle" x="203.4435" y="-14.3" font-family="Times,serif" font-size="14.00" fill="#000000">string</text>
</g>
<!-- deployment configuration&#45;&gt;id -->
<g id="edge2" class="edge">
<title>deployment configuration&#45;&gt;id</title>
<path fill="none" stroke="#0000ff" d="M874.4315,-102.0895C755.1806,-98.2155 573.264,-89.3021 416.4435,-69 341.8445,-59.3424 322.7148,-56.8596 250.4435,-36 247.6495,-35.1936 244.7877,-34.2926 241.9228,-33.3353"/>
<polygon fill="#0000ff" stroke="#0000ff" points="242.8597,-29.9543 232.265,-29.9191 240.5253,-36.5536 242.8597,-29.9543"/>
<text text-anchor="middle" x="423.4435" y="-57.8" font-family="Times,serif" font-size="14.00" fill="#000000">id</text>
</g>
<!-- name -->
<g id="node4" class="node">
<title>name</title>
<ellipse fill="none" stroke="#0000ff" cx="316.4435" cy="-18" rx="56.59" ry="18"/>
<text text-anchor="middle" x="316.4435" y="-14.3" font-family="Times,serif" font-size="14.00" fill="#000000">label type</text>
</g>
<!-- deployment configuration&#45;&gt;name -->
<g id="edge3" class="edge">
<title>deployment configuration&#45;&gt;name</title>
<path fill="none" stroke="#0000ff" d="M880.0779,-98.9886C755.169,-92.3952 570.7029,-81.1269 500.4435,-69 453.8641,-60.9603 402.0876,-46.0539 365.3551,-34.4247"/>
<polygon fill="#0000ff" stroke="#0000ff" points="366.0015,-30.9566 355.4105,-31.24 363.8666,-37.6232 366.0015,-30.9566"/>
<text text-anchor="middle" x="520.4435" y="-57.8" font-family="Times,serif" font-size="14.00" fill="#000000">name</text>
</g>
<!-- enabled -->
<g id="node5" class="node">
<title>enabled</title>
<ellipse fill="none" stroke="#0000ff" cx="437.4435" cy="-18" rx="46.5926" ry="18"/>
<text text-anchor="middle" x="437.4435" y="-14.3" font-family="Times,serif" font-size="14.00" fill="#000000">boolean</text>
</g>
<!-- deployment configuration&#45;&gt;enabled -->
<g id="edge4" class="edge">
<title>deployment configuration&#45;&gt;enabled</title>
<path fill="none" stroke="#0000ff" d="M877.6512,-100.0677C798.6559,-95.3911 694.9508,-86.3574 604.4435,-69 561.494,-60.7632 513.9192,-45.6145 480.5705,-33.9594"/>
<polygon fill="#0000ff" stroke="#0000ff" points="481.7235,-30.6548 471.1287,-30.6201 479.3893,-37.2542 481.7235,-30.6548"/>
<text text-anchor="middle" x="632.9435" y="-57.8" font-family="Times,serif" font-size="14.00" fill="#000000">enabled</text>
</g>
<!-- archived -->
<g id="node6" class="node">
<title>archived</title>
<ellipse fill="none" stroke="#0000ff" cx="549.4435" cy="-18" rx="46.5926" ry="18"/>
<text text-anchor="middle" x="549.4435" y="-14.3" font-family="Times,serif" font-size="14.00" fill="#000000">boolean</text>
</g>
<!-- deployment configuration&#45;&gt;archived -->
<g id="edge5" class="edge">
<title>deployment configuration&#45;&gt;archived</title>
<path fill="none" stroke="#0000ff" d="M896.2725,-94.6579C844.3986,-88.7538 781.3841,-80.2566 725.4435,-69 671.2172,-58.0883 658.4521,-51.8001 605.4435,-36 602.0625,-34.9922 598.5742,-33.9287 595.0692,-32.8427"/>
<polygon fill="#0000ff" stroke="#0000ff" points="595.8112,-29.4073 585.2219,-29.7507 593.7141,-36.0858 595.8112,-29.4073"/>
<text text-anchor="middle" x="756.9435" y="-57.8" font-family="Times,serif" font-size="14.00" fill="#000000">archived</text>
</g>
<!-- description -->
<g id="node7" class="node">
<title>description</title>
<ellipse fill="none" stroke="#0000ff" cx="689.4435" cy="-18" rx="75.2868" ry="18"/>
<text text-anchor="middle" x="689.4435" y="-14.3" font-family="Times,serif" font-size="14.00" fill="#000000">narrative text</text>
</g>
<!-- deployment configuration&#45;&gt;description -->
<g id="edge6" class="edge">
<title>deployment configuration&#45;&gt;description</title>
<path fill="none" stroke="#0000ff" d="M926.4773,-90.4504C898.0031,-84.5332 865.5743,-77.1605 836.4435,-69 803.5188,-59.7767 767.2156,-47.2062 738.9239,-36.8532"/>
<polygon fill="#0000ff" stroke="#0000ff" points="739.8629,-33.4692 729.2695,-33.2929 737.4408,-40.0368 739.8629,-33.4692"/>
<text text-anchor="middle" x="877.4435" y="-57.8" font-family="Times,serif" font-size="14.00" fill="#000000">description</text>
</g>
<!-- note -->
<g id="node8" class="node">
<title>note</title>
<ellipse fill="none" stroke="#0000ff" cx="858.4435" cy="-18" rx="75.2868" ry="18"/>
<text text-anchor="middle" x="858.4435" y="-14.3" font-family="Times,serif" font-size="14.00" fill="#000000">narrative text</text>
</g>
<!-- deployment configuration&#45;&gt;note -->
<g id="edge7" class="edge">
<title>deployment configuration&#45;&gt;note</title>
<path fill="none" stroke="#0000ff" d="M974.1006,-87.3943C951.4004,-73.7742 919.8254,-54.8291 895.4011,-40.1746"/>
<polygon fill="#0000ff" stroke="#0000ff" points="897.1316,-37.1312 886.7559,-34.9875 893.5301,-43.1337 897.1316,-37.1312"/>
<text text-anchor="middle" x="956.4435" y="-57.8" font-family="Times,serif" font-size="14.00" fill="#000000">note</text>
</g>
<!-- category -->
<g id="node9" class="node">
<title>category</title>
<ellipse fill="none" stroke="#000000" cx="1003.4435" cy="-18" rx="51.9908" ry="18"/>
<text text-anchor="middle" x="1003.4435" y="-14.3" font-family="Times,serif" font-size="14.00" fill="#000000">category</text>
</g>
<!-- deployment configuration&#45;&gt;category -->
<g id="edge8" class="edge">
<title>deployment configuration&#45;&gt;category</title>
<path fill="none" stroke="#0000ff" d="M1003.4435,-86.9735C1003.4435,-75.1918 1003.4435,-59.5607 1003.4435,-46.1581"/>
<polygon fill="#0000ff" stroke="#0000ff" points="1006.9436,-46.0033 1003.4435,-36.0034 999.9436,-46.0034 1006.9436,-46.0033"/>
<text text-anchor="middle" x="1035.4435" y="-57.8" font-family="Times,serif" font-size="14.00" fill="#000000">category</text>
</g>
<!-- license -->
<g id="node11" class="node">
<title>license</title>
<ellipse fill="none" stroke="#0000ff" cx="1111.4435" cy="-18" rx="38.1938" ry="18"/>
<text text-anchor="middle" x="1111.4435" y="-14.3" font-family="Times,serif" font-size="14.00" fill="#000000">string</text>
</g>
<!-- deployment configuration&#45;&gt;license -->
<g id="edge9" class="edge">
<title>deployment configuration&#45;&gt;license</title>
<path fill="none" stroke="#0000ff" d="M1042.9806,-87.6413C1052.7987,-82.3952 1062.9372,-76.111 1071.4435,-69 1079.9904,-61.855 1087.9089,-52.609 1094.4068,-43.9557"/>
<polygon fill="#0000ff" stroke="#0000ff" points="1097.4162,-45.7651 1100.4018,-35.5996 1091.7286,-41.6845 1097.4162,-45.7651"/>
<text text-anchor="middle" x="1110.9435" y="-57.8" font-family="Times,serif" font-size="14.00" fill="#000000">license</text>
</g>
<!-- rights -->
<g id="node12" class="node">
<title>rights</title>
<ellipse fill="none" stroke="#0000ff" cx="1206.4435" cy="-18" rx="38.1938" ry="18"/>
<text text-anchor="middle" x="1206.4435" y="-14.3" font-family="Times,serif" font-size="14.00" fill="#000000">string</text>
</g>
<!-- deployment configuration&#45;&gt;rights -->
<g id="edge10" class="edge">
<title>deployment configuration&#45;&gt;rights</title>
<path fill="none" stroke="#0000ff" d="M1080.7734,-90.4393C1100.7886,-85.1352 1121.9098,-78.1232 1140.4435,-69 1155.3274,-61.6734 1170.1074,-50.6908 1181.8958,-40.7916"/>
<polygon fill="#0000ff" stroke="#0000ff" points="1184.2747,-43.3615 1189.5435,-34.1696 1179.6925,-38.0695 1184.2747,-43.3615"/>
<text text-anchor="middle" x="1185.9435" y="-57.8" font-family="Times,serif" font-size="14.00" fill="#000000">rights</text>
</g>
<!-- format -->
<g id="node13" class="node">
<title>format</title>
<ellipse fill="none" stroke="#0000ff" cx="1301.4435" cy="-18" rx="38.1938" ry="18"/>
<text text-anchor="middle" x="1301.4435" y="-14.3" font-family="Times,serif" font-size="14.00" fill="#000000">string</text>
</g>
<!-- deployment configuration&#45;&gt;format -->
<g id="edge11" class="edge">
<title>deployment configuration&#45;&gt;format</title>
<path fill="none" stroke="#0000ff" d="M1095.5266,-92.2176C1140.7788,-85.302 1190.092,-76.6361 1211.4435,-69 1232.4176,-61.4988 1254.1943,-49.2946 1271.0725,-38.7054"/>
<polygon fill="#0000ff" stroke="#0000ff" points="1273.3872,-41.3785 1279.9091,-33.0288 1269.6038,-35.489 1273.3872,-41.3785"/>
<text text-anchor="middle" x="1267.9435" y="-57.8" font-family="Times,serif" font-size="14.00" fill="#000000">format</text>
</g>
<!-- creation date -->
<g id="node14" class="node">
<title>creation date</title>
<ellipse fill="none" stroke="#0000ff" cx="1389.4435" cy="-18" rx="31.3957" ry="18"/>
<text text-anchor="middle" x="1389.4435" y="-14.3" font-family="Times,serif" font-size="14.00" fill="#000000">date</text>
</g>
<!-- deployment configuration&#45;&gt;creation date -->
<g id="edge12" class="edge">
<title>deployment configuration&#45;&gt;creation date</title>
<path fill="none" stroke="#0000ff" d="M1098.3834,-92.5459C1113.1302,-90.6575 1128.1945,-88.7553 1142.4435,-87 1210.8369,-78.575 1230.7964,-89.9547 1296.4435,-69 1319.2991,-61.7044 1342.9794,-48.6248 1360.7248,-37.5383"/>
<polygon fill="#0000ff" stroke="#0000ff" points="1362.8949,-40.3047 1369.4277,-31.9637 1359.1192,-34.4103 1362.8949,-40.3047"/>
<text text-anchor="middle" x="1379.4435" y="-57.8" font-family="Times,serif" font-size="14.00" fill="#000000">creation date</text>
</g>
<!-- has part -->
<g id="node15" class="node">
<title>has part</title>
<ellipse fill="none" stroke="#0000ff" cx="1508.4435" cy="-18" rx="69.5877" ry="18"/>
<text text-anchor="middle" x="1508.4435" y="-14.3" font-family="Times,serif" font-size="14.00" fill="#000000">named thing</text>
</g>
<!-- deployment configuration&#45;&gt;has part -->
<g id="edge13" class="edge">
<title>deployment configuration&#45;&gt;has part</title>
<path fill="none" stroke="#0000ff" d="M1095.6858,-92.1802C1111.2724,-90.265 1127.3044,-88.4501 1142.4435,-87 1206.497,-80.8648 1370.4366,-89.4612 1431.4435,-69 1449.1943,-63.0465 1466.7715,-51.9139 1480.6405,-41.5652"/>
<polygon fill="#0000ff" stroke="#0000ff" points="1482.9997,-44.1652 1488.7651,-35.2764 1478.715,-38.6297 1482.9997,-44.1652"/>
<text text-anchor="middle" x="1491.4435" y="-57.8" font-family="Times,serif" font-size="14.00" fill="#000000">has part</text>
</g>
<!-- has quantitative value -->
<g id="node16" class="node">
<title>has quantitative value</title>
<ellipse fill="none" stroke="#0000ff" cx="1673.4435" cy="-18" rx="77.1866" ry="18"/>
<text text-anchor="middle" x="1673.4435" y="-14.3" font-family="Times,serif" font-size="14.00" fill="#000000">quantity value</text>
</g>
<!-- deployment configuration&#45;&gt;has quantitative value -->
<g id="edge14" class="edge">
<title>deployment configuration&#45;&gt;has quantitative value</title>
<path fill="none" stroke="#0000ff" d="M1094.9197,-92.0733C1110.7429,-90.1468 1127.0514,-88.356 1142.4435,-87 1312.1961,-72.0451 1358.081,-101.0842 1525.4435,-69 1560.5747,-62.2652 1598.7039,-48.9741 1627.4615,-37.6488"/>
<polygon fill="#0000ff" stroke="#0000ff" points="1628.8539,-40.8615 1636.837,-33.8958 1626.2524,-34.3629 1628.8539,-40.8615"/>
<text text-anchor="middle" x="1659.4435" y="-57.8" font-family="Times,serif" font-size="14.00" fill="#000000">has quantitative value</text>
</g>
<!-- version -->
<g id="node17" class="node">
<title>version</title>
<ellipse fill="none" stroke="#0000ff" cx="1831.4435" cy="-18" rx="38.1938" ry="18"/>
<text text-anchor="middle" x="1831.4435" y="-14.3" font-family="Times,serif" font-size="14.00" fill="#000000">string</text>
</g>
<!-- deployment configuration&#45;&gt;version -->
<g id="edge15" class="edge">
<title>deployment configuration&#45;&gt;version</title>
<path fill="none" stroke="#0000ff" d="M1093.7804,-91.986C1109.9551,-90.0315 1126.6765,-88.2539 1142.4435,-87 1209.0409,-81.7037 1679.1933,-87.3081 1743.4435,-69 1764.7931,-62.9164 1786.3964,-50.5084 1802.8554,-39.4549"/>
<polygon fill="#0000ff" stroke="#0000ff" points="1805.2145,-42.0781 1811.4357,-33.5021 1801.2243,-36.3266 1805.2145,-42.0781"/>
<text text-anchor="middle" x="1802.9435" y="-57.8" font-family="Times,serif" font-size="14.00" fill="#000000">version</text>
</g>
<!-- named thing_category -->
<g id="node10" class="node">
<title>named thing_category</title>
<ellipse fill="none" stroke="#0000ff" cx="1221.4435" cy="-105" rx="69.5877" ry="18"/>
<text text-anchor="middle" x="1221.4435" y="-101.3" font-family="Times,serif" font-size="14.00" fill="#000000">named thing</text>
</g>
</g>
</svg>
