<?xml version="1.0" encoding="UTF-8" standalone="no"?>
<!DOCTYPE svg PUBLIC "-//W3C//DTD SVG 1.1//EN"
 "http://www.w3.org/Graphics/SVG/1.1/DTD/svg11.dtd">
<!-- Generated by graphviz version 2.40.1 (20161225.0304)
 -->
<!-- Title: %3 Pages: 1 -->
<svg width="1770pt" height="131pt"
 viewBox="0.00 0.00 1770.34 131.00" xmlns="http://www.w3.org/2000/svg" xmlns:xlink="http://www.w3.org/1999/xlink">
<g id="graph0" class="graph" transform="scale(1 1) rotate(0) translate(4 127)">
<title>%3</title>
<polygon fill="#ffffff" stroke="transparent" points="-4,4 -4,-127 1766.3362,-127 1766.3362,4 -4,4"/>
<!-- deployment entity -->
<g id="node1" class="node">
<title>deployment entity</title>
<ellipse fill="none" stroke="#000000" cx="876.5427" cy="-105" rx="95.5831" ry="18"/>
<text text-anchor="middle" x="876.5427" y="-101.3" font-family="Times,serif" font-size="14.00" fill="#000000">deployment entity</text>
</g>
<!-- systemic entity -->
<g id="node2" class="node">
<title>systemic entity</title>
<ellipse fill="none" stroke="#000000" cx="82.5427" cy="-18" rx="82.5854" ry="18"/>
<text text-anchor="middle" x="82.5427" y="-14.3" font-family="Times,serif" font-size="14.00" fill="#000000">systemic entity</text>
</g>
<!-- deployment entity&#45;&gt;systemic entity -->
<g id="edge1" class="edge">
<title>deployment entity&#45;&gt;systemic entity</title>
<path fill="none" stroke="#000000" d="M785.2056,-99.6508C650.8113,-90.9606 392.1603,-71.1125 174.5427,-36 167.4731,-34.8593 160.1159,-33.579 152.7788,-32.2408"/>
<polygon fill="#000000" stroke="#000000" points="153.2865,-28.7752 142.815,-30.3877 152.0064,-35.6572 153.2865,-28.7752"/>
<text text-anchor="middle" x="438.5427" y="-57.8" font-family="Times,serif" font-size="14.00" fill="#000000">is_a</text>
</g>
<!-- thing with taxon -->
<g id="node3" class="node">
<title>thing with taxon</title>
<ellipse fill="none" stroke="#000000" cx="270.5427" cy="-18" rx="87.1846" ry="18"/>
<text text-anchor="middle" x="270.5427" y="-14.3" font-family="Times,serif" font-size="14.00" fill="#000000">thing with taxon</text>
</g>
<!-- deployment entity&#45;&gt;thing with taxon -->
<g id="edge2" class="edge">
<title>deployment entity&#45;&gt;thing with taxon</title>
<path fill="none" stroke="#000000" d="M791.407,-96.7645C727.0487,-90.2064 636.5804,-80.2777 557.5427,-69 472.2599,-56.8311 451.3248,-51.2716 366.5427,-36 359.4866,-34.729 352.1425,-33.3868 344.7982,-32.0317"/>
<polygon fill="#000000" stroke="#000000" points="345.2802,-28.5615 334.8099,-30.1811 344.005,-35.4444 345.2802,-28.5615"/>
<text text-anchor="middle" x="574.0427" y="-57.8" font-family="Times,serif" font-size="14.00" fill="#000000">uses</text>
</g>
<!-- cyber essence -->
<g id="node4" class="node">
<title>cyber essence</title>
<ellipse fill="none" stroke="#000000" cx="452.5427" cy="-18" rx="77.1866" ry="18"/>
<text text-anchor="middle" x="452.5427" y="-14.3" font-family="Times,serif" font-size="14.00" fill="#000000">cyber essence</text>
</g>
<!-- deployment entity&#45;&gt;cyber essence -->
<g id="edge3" class="edge">
<title>deployment entity&#45;&gt;cyber essence</title>
<path fill="none" stroke="#000000" d="M800.1499,-94.0899C757.6984,-87.6289 704.0163,-78.8009 656.5427,-69 607.6592,-58.9081 552.8009,-45.0483 512.2939,-34.3242"/>
<polygon fill="#000000" stroke="#000000" points="513.142,-30.9282 502.5783,-31.7393 511.3422,-37.6928 513.142,-30.9282"/>
<text text-anchor="middle" x="673.0427" y="-57.8" font-family="Times,serif" font-size="14.00" fill="#000000">uses</text>
</g>
<!-- id -->
<g id="node5" class="node">
<title>id</title>
<ellipse fill="none" stroke="#0000ff" cx="586.5427" cy="-18" rx="38.1938" ry="18"/>
<text text-anchor="middle" x="586.5427" y="-14.3" font-family="Times,serif" font-size="14.00" fill="#000000">string</text>
</g>
<!-- deployment entity&#45;&gt;id -->
<g id="edge4" class="edge">
<title>deployment entity&#45;&gt;id</title>
<path fill="none" stroke="#0000ff" d="M819.641,-90.38C770.1154,-77.2905 696.5853,-56.9762 633.5427,-36 630.9505,-35.1375 628.2905,-34.2172 625.6178,-33.2661"/>
<polygon fill="#0000ff" stroke="#0000ff" points="626.5764,-29.8898 615.9827,-29.735 624.1677,-36.4623 626.5764,-29.8898"/>
<text text-anchor="middle" x="747.5427" y="-57.8" font-family="Times,serif" font-size="14.00" fill="#000000">id</text>
</g>
<!-- name -->
<g id="node6" class="node">
<title>name</title>
<ellipse fill="none" stroke="#0000ff" cx="699.5427" cy="-18" rx="56.59" ry="18"/>
<text text-anchor="middle" x="699.5427" y="-14.3" font-family="Times,serif" font-size="14.00" fill="#000000">label type</text>
</g>
<!-- deployment entity&#45;&gt;name -->
<g id="edge5" class="edge">
<title>deployment entity&#45;&gt;name</title>
<path fill="none" stroke="#0000ff" d="M841.0048,-88.0862C828.5085,-82.1005 814.383,-75.2912 801.5427,-69 780.7633,-58.8189 757.6973,-47.304 738.7636,-37.7953"/>
<polygon fill="#0000ff" stroke="#0000ff" points="740.3355,-34.6682 729.8289,-33.3031 737.191,-40.9222 740.3355,-34.6682"/>
<text text-anchor="middle" x="821.5427" y="-57.8" font-family="Times,serif" font-size="14.00" fill="#000000">name</text>
</g>
<!-- enabled -->
<g id="node7" class="node">
<title>enabled</title>
<ellipse fill="none" stroke="#0000ff" cx="820.5427" cy="-18" rx="46.5926" ry="18"/>
<text text-anchor="middle" x="820.5427" y="-14.3" font-family="Times,serif" font-size="14.00" fill="#000000">boolean</text>
</g>
<!-- deployment entity&#45;&gt;enabled -->
<g id="edge6" class="edge">
<title>deployment entity&#45;&gt;enabled</title>
<path fill="none" stroke="#0000ff" d="M864.9394,-86.9735C857.0029,-74.6435 846.3526,-58.0975 837.4728,-44.3021"/>
<polygon fill="#0000ff" stroke="#0000ff" points="840.295,-42.22 831.9394,-35.7057 834.4089,-46.0087 840.295,-42.22"/>
<text text-anchor="middle" x="881.0427" y="-57.8" font-family="Times,serif" font-size="14.00" fill="#000000">enabled</text>
</g>
<!-- archived -->
<g id="node8" class="node">
<title>archived</title>
<ellipse fill="none" stroke="#0000ff" cx="932.5427" cy="-18" rx="46.5926" ry="18"/>
<text text-anchor="middle" x="932.5427" y="-14.3" font-family="Times,serif" font-size="14.00" fill="#000000">boolean</text>
</g>
<!-- deployment entity&#45;&gt;archived -->
<g id="edge7" class="edge">
<title>deployment entity&#45;&gt;archived</title>
<path fill="none" stroke="#0000ff" d="M895.8788,-87.0019C901.0666,-81.5483 906.3838,-75.3195 910.5427,-69 915.239,-61.8637 919.3197,-53.5588 922.6483,-45.7487"/>
<polygon fill="#0000ff" stroke="#0000ff" points="925.9852,-46.8304 926.4521,-36.2458 919.4865,-44.229 925.9852,-46.8304"/>
<text text-anchor="middle" x="951.0427" y="-57.8" font-family="Times,serif" font-size="14.00" fill="#000000">archived</text>
</g>
<!-- description -->
<g id="node9" class="node">
<title>description</title>
<ellipse fill="none" stroke="#0000ff" cx="1072.5427" cy="-18" rx="75.2868" ry="18"/>
<text text-anchor="middle" x="1072.5427" y="-14.3" font-family="Times,serif" font-size="14.00" fill="#000000">narrative text</text>
</g>
<!-- deployment entity&#45;&gt;description -->
<g id="edge8" class="edge">
<title>deployment entity&#45;&gt;description</title>
<path fill="none" stroke="#0000ff" d="M930.0304,-90.0823C948.2855,-84.3153 968.6088,-77.1334 986.5427,-69 1004.2509,-60.9689 1022.9278,-50.2016 1038.3352,-40.6302"/>
<polygon fill="#0000ff" stroke="#0000ff" points="1040.4091,-43.4601 1046.9971,-35.1626 1036.6726,-37.5407 1040.4091,-43.4601"/>
<text text-anchor="middle" x="1054.5427" y="-57.8" font-family="Times,serif" font-size="14.00" fill="#000000">description</text>
</g>
<!-- note -->
<g id="node10" class="node">
<title>note</title>
<ellipse fill="none" stroke="#0000ff" cx="1241.5427" cy="-18" rx="75.2868" ry="18"/>
<text text-anchor="middle" x="1241.5427" y="-14.3" font-family="Times,serif" font-size="14.00" fill="#000000">narrative text</text>
</g>
<!-- deployment entity&#45;&gt;note -->
<g id="edge9" class="edge">
<title>deployment entity&#45;&gt;note</title>
<path fill="none" stroke="#0000ff" d="M946.4365,-92.6931C957.8289,-90.7476 969.5091,-88.7891 980.5427,-87 1033.3436,-78.4383 1047.6817,-82.1023 1099.5427,-69 1132.0295,-60.7924 1167.5048,-48.0535 1194.8708,-37.3609"/>
<polygon fill="#0000ff" stroke="#0000ff" points="1196.1813,-40.6065 1204.194,-33.675 1193.6076,-34.0968 1196.1813,-40.6065"/>
<text text-anchor="middle" x="1163.5427" y="-57.8" font-family="Times,serif" font-size="14.00" fill="#000000">note</text>
</g>
<!-- category -->
<g id="node11" class="node">
<title>category</title>
<ellipse fill="none" stroke="#000000" cx="1386.5427" cy="-18" rx="51.9908" ry="18"/>
<text text-anchor="middle" x="1386.5427" y="-14.3" font-family="Times,serif" font-size="14.00" fill="#000000">category</text>
</g>
<!-- deployment entity&#45;&gt;category -->
<g id="edge10" class="edge">
<title>deployment entity&#45;&gt;category</title>
<path fill="none" stroke="#0000ff" d="M944.6695,-92.3762C956.5999,-90.4038 968.9141,-88.5192 980.5427,-87 1070.3557,-75.2664 1094.1003,-83.2865 1183.5427,-69 1247.5246,-58.7803 1262.8883,-52.5092 1325.5427,-36 1329.3965,-34.9845 1333.3762,-33.8976 1337.3697,-32.7795"/>
<polygon fill="#0000ff" stroke="#0000ff" points="1338.604,-36.0672 1347.2609,-29.9592 1336.6845,-29.3355 1338.604,-36.0672"/>
<text text-anchor="middle" x="1289.5427" y="-57.8" font-family="Times,serif" font-size="14.00" fill="#000000">category</text>
</g>
<!-- has attribute -->
<g id="node13" class="node">
<title>has attribute</title>
<ellipse fill="none" stroke="#000000" cx="1527.5427" cy="-18" rx="71.4873" ry="18"/>
<text text-anchor="middle" x="1527.5427" y="-14.3" font-family="Times,serif" font-size="14.00" fill="#000000">has attribute</text>
</g>
<!-- deployment entity&#45;&gt;has attribute -->
<g id="edge11" class="edge">
<title>deployment entity&#45;&gt;has attribute</title>
<path fill="none" stroke="#0000ff" d="M943.7877,-92.1556C955.9832,-90.1704 968.6153,-88.3385 980.5427,-87 1133.1268,-69.8769 1173.7184,-91.902 1325.5427,-69 1376.0954,-61.3744 1432.4042,-46.6221 1472.7018,-34.9376"/>
<polygon fill="#0000ff" stroke="#0000ff" points="1473.719,-38.2868 1482.331,-32.1156 1471.7503,-31.5693 1473.719,-38.2868"/>
<text text-anchor="middle" x="1445.5427" y="-57.8" font-family="Times,serif" font-size="14.00" fill="#000000">has attribute</text>
</g>
<!-- in taxon -->
<g id="node15" class="node">
<title>in taxon</title>
<ellipse fill="none" stroke="#0000ff" cx="1689.5427" cy="-18" rx="72.5877" ry="18"/>
<text text-anchor="middle" x="1689.5427" y="-14.3" font-family="Times,serif" font-size="14.00" fill="#000000">system taxon</text>
</g>
<!-- deployment entity&#45;&gt;in taxon -->
<g id="edge12" class="edge">
<title>deployment entity&#45;&gt;in taxon</title>
<path fill="none" stroke="#0000ff" d="M943.2109,-92.0748C955.5806,-90.0717 968.422,-88.2544 980.5427,-87 1208.7964,-63.3777 1269.5315,-102.5218 1496.5427,-69 1544.5387,-61.9126 1597.7556,-47.326 1636.1312,-35.5611"/>
<polygon fill="#0000ff" stroke="#0000ff" points="1637.5366,-38.7897 1646.0493,-32.4821 1635.4612,-32.1044 1637.5366,-38.7897"/>
<text text-anchor="middle" x="1595.5427" y="-57.8" font-family="Times,serif" font-size="14.00" fill="#000000">in taxon</text>
</g>
<!-- named thing_category -->
<g id="node12" class="node">
<title>named thing_category</title>
<ellipse fill="none" stroke="#0000ff" cx="1059.5427" cy="-105" rx="69.5877" ry="18"/>
<text text-anchor="middle" x="1059.5427" y="-101.3" font-family="Times,serif" font-size="14.00" fill="#000000">named thing</text>
</g>
<!-- systemic entity_has attribute -->
<g id="node14" class="node">
<title>systemic entity_has attribute</title>
<ellipse fill="none" stroke="#0000ff" cx="1199.5427" cy="-105" rx="51.9908" ry="18"/>
<text text-anchor="middle" x="1199.5427" y="-101.3" font-family="Times,serif" font-size="14.00" fill="#000000">attribute</text>
</g>
</g>
</svg>
