<?xml version="1.0" encoding="UTF-8" standalone="no"?>
<!DOCTYPE svg PUBLIC "-//W3C//DTD SVG 1.1//EN"
 "http://www.w3.org/Graphics/SVG/1.1/DTD/svg11.dtd">
<!-- Generated by graphviz version 2.40.1 (20161225.0304)
 -->
<!-- Title: %3 Pages: 1 -->
<svg width="1971pt" height="131pt"
 viewBox="0.00 0.00 1970.89 131.00" xmlns="http://www.w3.org/2000/svg" xmlns:xlink="http://www.w3.org/1999/xlink">
<g id="graph0" class="graph" transform="scale(1 1) rotate(0) translate(4 127)">
<title>%3</title>
<polygon fill="#ffffff" stroke="transparent" points="-4,4 -4,-127 1966.8893,-127 1966.8893,4 -4,4"/>
<!-- distribution level -->
<g id="node1" class="node">
<title>distribution level</title>
<ellipse fill="none" stroke="#000000" cx="1075.5427" cy="-105" rx="90.1842" ry="18"/>
<text text-anchor="middle" x="1075.5427" y="-101.3" font-family="Times,serif" font-size="14.00" fill="#000000">distribution level</text>
</g>
<!-- dataset version -->
<g id="node2" class="node">
<title>dataset version</title>
<ellipse fill="none" stroke="#000000" cx="82.5427" cy="-18" rx="82.5854" ry="18"/>
<text text-anchor="middle" x="82.5427" y="-14.3" font-family="Times,serif" font-size="14.00" fill="#000000">dataset version</text>
</g>
<!-- distribution level&#45;&gt;dataset version -->
<g id="edge1" class="edge">
<title>distribution level&#45;&gt;dataset version</title>
<path fill="none" stroke="#000000" d="M985.5884,-102.7555C812.0487,-98.0984 436.8484,-86.352 308.5427,-69 252.0304,-61.3573 188.7957,-46.5375 143.6178,-34.8344"/>
<polygon fill="#000000" stroke="#000000" points="144.2481,-31.3815 133.6879,-32.2369 142.4766,-38.1537 144.2481,-31.3815"/>
<text text-anchor="middle" x="322.5427" y="-57.8" font-family="Times,serif" font-size="14.00" fill="#000000">is_a</text>
</g>
<!-- id -->
<g id="node3" class="node">
<title>id</title>
<ellipse fill="none" stroke="#0000ff" cx="221.5427" cy="-18" rx="38.1938" ry="18"/>
<text text-anchor="middle" x="221.5427" y="-14.3" font-family="Times,serif" font-size="14.00" fill="#000000">string</text>
</g>
<!-- distribution level&#45;&gt;id -->
<g id="edge2" class="edge">
<title>distribution level&#45;&gt;id</title>
<path fill="none" stroke="#0000ff" d="M985.2393,-103.8216C861.1423,-101.3129 631.1248,-93.4737 436.5427,-69 361.044,-59.5041 341.6758,-57.0181 268.5427,-36 265.7478,-35.1968 262.8853,-34.2982 260.0199,-33.3426"/>
<polygon fill="#0000ff" stroke="#0000ff" points="260.9559,-29.9613 250.3611,-29.9297 258.6237,-36.5614 260.9559,-29.9613"/>
<text text-anchor="middle" x="443.5427" y="-57.8" font-family="Times,serif" font-size="14.00" fill="#000000">id</text>
</g>
<!-- name -->
<g id="node4" class="node">
<title>name</title>
<ellipse fill="none" stroke="#0000ff" cx="334.5427" cy="-18" rx="56.59" ry="18"/>
<text text-anchor="middle" x="334.5427" y="-14.3" font-family="Times,serif" font-size="14.00" fill="#000000">label type</text>
</g>
<!-- distribution level&#45;&gt;name -->
<g id="edge3" class="edge">
<title>distribution level&#45;&gt;name</title>
<path fill="none" stroke="#0000ff" d="M986.9309,-101.3606C853.9926,-95.5379 609.2814,-83.3152 522.5427,-69 474.4535,-61.0635 420.9257,-45.8992 383.3242,-34.1606"/>
<polygon fill="#0000ff" stroke="#0000ff" points="384.2303,-30.7764 373.6406,-31.1033 382.1228,-37.4517 384.2303,-30.7764"/>
<text text-anchor="middle" x="542.5427" y="-57.8" font-family="Times,serif" font-size="14.00" fill="#000000">name</text>
</g>
<!-- enabled -->
<g id="node5" class="node">
<title>enabled</title>
<ellipse fill="none" stroke="#0000ff" cx="455.5427" cy="-18" rx="46.5926" ry="18"/>
<text text-anchor="middle" x="455.5427" y="-14.3" font-family="Times,serif" font-size="14.00" fill="#000000">boolean</text>
</g>
<!-- distribution level&#45;&gt;enabled -->
<g id="edge4" class="edge">
<title>distribution level&#45;&gt;enabled</title>
<path fill="none" stroke="#0000ff" d="M985.4089,-102.88C894.6586,-99.5446 750.9596,-90.9774 628.5427,-69 583.6612,-60.9425 533.8605,-45.549 499.2603,-33.7729"/>
<polygon fill="#0000ff" stroke="#0000ff" points="500.0722,-30.3508 489.4775,-30.4019 497.7917,-36.9689 500.0722,-30.3508"/>
<text text-anchor="middle" x="657.0427" y="-57.8" font-family="Times,serif" font-size="14.00" fill="#000000">enabled</text>
</g>
<!-- archived -->
<g id="node6" class="node">
<title>archived</title>
<ellipse fill="none" stroke="#0000ff" cx="567.5427" cy="-18" rx="46.5926" ry="18"/>
<text text-anchor="middle" x="567.5427" y="-14.3" font-family="Times,serif" font-size="14.00" fill="#000000">boolean</text>
</g>
<!-- distribution level&#45;&gt;archived -->
<g id="edge5" class="edge">
<title>distribution level&#45;&gt;archived</title>
<path fill="none" stroke="#0000ff" d="M991.6336,-98.3098C927.7144,-92.5209 837.6931,-82.8774 759.5427,-69 698.3023,-58.1254 683.4121,-52.8612 623.5427,-36 619.9917,-34.9999 616.3278,-33.9237 612.6535,-32.8126"/>
<polygon fill="#0000ff" stroke="#0000ff" points="613.5614,-29.4299 602.9737,-29.8189 611.4931,-36.1174 613.5614,-29.4299"/>
<text text-anchor="middle" x="791.0427" y="-57.8" font-family="Times,serif" font-size="14.00" fill="#000000">archived</text>
</g>
<!-- description -->
<g id="node7" class="node">
<title>description</title>
<ellipse fill="none" stroke="#0000ff" cx="707.5427" cy="-18" rx="75.2868" ry="18"/>
<text text-anchor="middle" x="707.5427" y="-14.3" font-family="Times,serif" font-size="14.00" fill="#000000">narrative text</text>
</g>
<!-- distribution level&#45;&gt;description -->
<g id="edge6" class="edge">
<title>distribution level&#45;&gt;description</title>
<path fill="none" stroke="#0000ff" d="M1004.0261,-93.8634C966.4651,-87.5282 919.7906,-78.8887 878.5427,-69 838.9216,-59.5013 794.8785,-46.302 761.4141,-35.7113"/>
<polygon fill="#0000ff" stroke="#0000ff" points="762.4183,-32.3579 751.8277,-32.6573 760.2935,-39.0277 762.4183,-32.3579"/>
<text text-anchor="middle" x="919.5427" y="-57.8" font-family="Times,serif" font-size="14.00" fill="#000000">description</text>
</g>
<!-- note -->
<g id="node8" class="node">
<title>note</title>
<ellipse fill="none" stroke="#0000ff" cx="876.5427" cy="-18" rx="75.2868" ry="18"/>
<text text-anchor="middle" x="876.5427" y="-14.3" font-family="Times,serif" font-size="14.00" fill="#000000">narrative text</text>
</g>
<!-- distribution level&#45;&gt;note -->
<g id="edge7" class="edge">
<title>distribution level&#45;&gt;note</title>
<path fill="none" stroke="#0000ff" d="M1037.6439,-88.4312C1004.8649,-74.1007 957.3808,-53.3413 922.4531,-38.0714"/>
<polygon fill="#0000ff" stroke="#0000ff" points="923.522,-34.7189 912.9573,-33.92 920.7179,-41.1327 923.522,-34.7189"/>
<text text-anchor="middle" x="1004.5427" y="-57.8" font-family="Times,serif" font-size="14.00" fill="#000000">note</text>
</g>
<!-- category -->
<g id="node9" class="node">
<title>category</title>
<ellipse fill="none" stroke="#000000" cx="1021.5427" cy="-18" rx="51.9908" ry="18"/>
<text text-anchor="middle" x="1021.5427" y="-14.3" font-family="Times,serif" font-size="14.00" fill="#000000">category</text>
</g>
<!-- distribution level&#45;&gt;category -->
<g id="edge8" class="edge">
<title>distribution level&#45;&gt;category</title>
<path fill="none" stroke="#0000ff" d="M1057.7255,-87.228C1052.7396,-81.6827 1047.5846,-75.3485 1043.5427,-69 1038.9546,-61.7936 1034.9073,-53.4671 1031.576,-45.6588"/>
<polygon fill="#0000ff" stroke="#0000ff" points="1034.736,-44.1362 1027.7524,-36.1687 1028.2431,-46.7522 1034.736,-44.1362"/>
<text text-anchor="middle" x="1075.5427" y="-57.8" font-family="Times,serif" font-size="14.00" fill="#000000">category</text>
</g>
<!-- license -->
<g id="node11" class="node">
<title>license</title>
<ellipse fill="none" stroke="#0000ff" cx="1129.5427" cy="-18" rx="38.1938" ry="18"/>
<text text-anchor="middle" x="1129.5427" y="-14.3" font-family="Times,serif" font-size="14.00" fill="#000000">string</text>
</g>
<!-- distribution level&#45;&gt;license -->
<g id="edge9" class="edge">
<title>distribution level&#45;&gt;license</title>
<path fill="none" stroke="#0000ff" d="M1093.3598,-87.228C1098.3457,-81.6827 1103.5008,-75.3485 1107.5427,-69 1112.1308,-61.7936 1116.1781,-53.4671 1119.5094,-45.6588"/>
<polygon fill="#0000ff" stroke="#0000ff" points="1122.8422,-46.7522 1123.333,-36.1687 1116.3494,-44.1362 1122.8422,-46.7522"/>
<text text-anchor="middle" x="1142.0427" y="-57.8" font-family="Times,serif" font-size="14.00" fill="#000000">license</text>
</g>
<!-- rights -->
<g id="node12" class="node">
<title>rights</title>
<ellipse fill="none" stroke="#0000ff" cx="1224.5427" cy="-18" rx="38.1938" ry="18"/>
<text text-anchor="middle" x="1224.5427" y="-14.3" font-family="Times,serif" font-size="14.00" fill="#000000">string</text>
</g>
<!-- distribution level&#45;&gt;rights -->
<g id="edge10" class="edge">
<title>distribution level&#45;&gt;rights</title>
<path fill="none" stroke="#0000ff" d="M1127.1951,-89.9963C1142.1022,-84.5288 1157.9907,-77.5431 1171.5427,-69 1183.0201,-61.7647 1194.1,-51.7501 1203.1353,-42.5096"/>
<polygon fill="#0000ff" stroke="#0000ff" points="1205.8948,-44.6849 1210.2079,-35.0077 1200.8014,-39.883 1205.8948,-44.6849"/>
<text text-anchor="middle" x="1213.0427" y="-57.8" font-family="Times,serif" font-size="14.00" fill="#000000">rights</text>
</g>
<!-- format -->
<g id="node13" class="node">
<title>format</title>
<ellipse fill="none" stroke="#0000ff" cx="1319.5427" cy="-18" rx="38.1938" ry="18"/>
<text text-anchor="middle" x="1319.5427" y="-14.3" font-family="Times,serif" font-size="14.00" fill="#000000">string</text>
</g>
<!-- distribution level&#45;&gt;format -->
<g id="edge11" class="edge">
<title>distribution level&#45;&gt;format</title>
<path fill="none" stroke="#0000ff" d="M1142.0434,-92.7062C1179.0346,-85.3978 1221.0503,-76.1831 1238.5427,-69 1257.0469,-61.4014 1276.0585,-49.6726 1291.0089,-39.3777"/>
<polygon fill="#0000ff" stroke="#0000ff" points="1293.1535,-42.1482 1299.3077,-33.5241 1289.1186,-36.428 1293.1535,-42.1482"/>
<text text-anchor="middle" x="1292.0427" y="-57.8" font-family="Times,serif" font-size="14.00" fill="#000000">format</text>
</g>
<!-- creation date -->
<g id="node14" class="node">
<title>creation date</title>
<ellipse fill="none" stroke="#0000ff" cx="1407.5427" cy="-18" rx="31.3957" ry="18"/>
<text text-anchor="middle" x="1407.5427" y="-14.3" font-family="Times,serif" font-size="14.00" fill="#000000">date</text>
</g>
<!-- distribution level&#45;&gt;creation date -->
<g id="edge12" class="edge">
<title>distribution level&#45;&gt;creation date</title>
<path fill="none" stroke="#0000ff" d="M1140.955,-92.5616C1152.1421,-90.5907 1163.6627,-88.6584 1174.5427,-87 1239.1763,-77.1482 1258.6153,-89.9658 1320.5427,-69 1341.671,-61.8469 1363.3177,-49.1817 1379.7336,-38.2627"/>
<polygon fill="#0000ff" stroke="#0000ff" points="1381.9979,-40.9546 1388.2789,-32.4223 1378.048,-35.1754 1381.9979,-40.9546"/>
<text text-anchor="middle" x="1401.5427" y="-57.8" font-family="Times,serif" font-size="14.00" fill="#000000">creation date</text>
</g>
<!-- has dataset -->
<g id="node15" class="node">
<title>has dataset</title>
<ellipse fill="none" stroke="#0000ff" cx="1502.5427" cy="-18" rx="45.4919" ry="18"/>
<text text-anchor="middle" x="1502.5427" y="-14.3" font-family="Times,serif" font-size="14.00" fill="#000000">dataset</text>
</g>
<!-- distribution level&#45;&gt;has dataset -->
<g id="edge13" class="edge">
<title>distribution level&#45;&gt;has dataset</title>
<path fill="none" stroke="#0000ff" d="M1139.5494,-92.248C1151.1591,-90.2532 1163.1855,-88.3941 1174.5427,-87 1236.2087,-79.4304 1397.1975,-95.1768 1453.5427,-69 1465.7222,-63.3417 1476.4388,-53.2088 1484.7194,-43.4578"/>
<polygon fill="#0000ff" stroke="#0000ff" points="1487.5929,-45.4676 1491.0807,-35.4633 1482.1154,-41.1091 1487.5929,-45.4676"/>
<text text-anchor="middle" x="1516.0427" y="-57.8" font-family="Times,serif" font-size="14.00" fill="#000000">has dataset</text>
</g>
<!-- ingest date -->
<g id="node16" class="node">
<title>ingest date</title>
<ellipse fill="none" stroke="#0000ff" cx="1606.5427" cy="-18" rx="38.1938" ry="18"/>
<text text-anchor="middle" x="1606.5427" y="-14.3" font-family="Times,serif" font-size="14.00" fill="#000000">string</text>
</g>
<!-- distribution level&#45;&gt;ingest date -->
<g id="edge14" class="edge">
<title>distribution level&#45;&gt;ingest date</title>
<path fill="none" stroke="#0000ff" d="M1138.9978,-92.1693C1150.7736,-90.1568 1162.9999,-88.3119 1174.5427,-87 1217.3138,-82.139 1522.7283,-87.6131 1561.5427,-69 1573.0716,-63.4714 1582.8984,-53.4955 1590.4005,-43.8235"/>
<polygon fill="#0000ff" stroke="#0000ff" points="1593.3754,-45.6817 1596.3791,-35.5216 1587.6951,-41.591 1593.3754,-45.6817"/>
<text text-anchor="middle" x="1622.0427" y="-57.8" font-family="Times,serif" font-size="14.00" fill="#000000">ingest date</text>
</g>
<!-- has distribution -->
<g id="node17" class="node">
<title>has distribution</title>
<ellipse fill="none" stroke="#0000ff" cx="1765.5427" cy="-18" rx="102.8821" ry="18"/>
<text text-anchor="middle" x="1765.5427" y="-14.3" font-family="Times,serif" font-size="14.00" fill="#000000">dataset distribution</text>
</g>
<!-- distribution level&#45;&gt;has distribution -->
<g id="edge15" class="edge">
<title>distribution level&#45;&gt;has distribution</title>
<path fill="none" stroke="#0000ff" d="M1138.7218,-92.1204C1150.5803,-90.0994 1162.9067,-88.2641 1174.5427,-87 1283.3092,-75.1841 1560.7054,-96.7171 1666.5427,-69 1689.2059,-63.0649 1712.5947,-51.3223 1730.9448,-40.5996"/>
<polygon fill="#0000ff" stroke="#0000ff" points="1732.7524,-43.5967 1739.523,-35.4475 1729.1482,-37.5959 1732.7524,-43.5967"/>
<text text-anchor="middle" x="1761.5427" y="-57.8" font-family="Times,serif" font-size="14.00" fill="#000000">has distribution</text>
</g>
<!-- download url -->
<g id="node18" class="node">
<title>download url</title>
<ellipse fill="none" stroke="#0000ff" cx="1924.5427" cy="-18" rx="38.1938" ry="18"/>
<text text-anchor="middle" x="1924.5427" y="-14.3" font-family="Times,serif" font-size="14.00" fill="#000000">string</text>
</g>
<!-- distribution level&#45;&gt;download url -->
<g id="edge16" class="edge">
<title>distribution level&#45;&gt;download url</title>
<path fill="none" stroke="#0000ff" d="M1138.7129,-92.0367C1150.5722,-90.0238 1162.9013,-88.2129 1174.5427,-87 1317.8227,-72.0721 1682.8138,-104.0407 1822.5427,-69 1847.7418,-62.6807 1873.9067,-49.4403 1893.4267,-38.0342"/>
<polygon fill="#0000ff" stroke="#0000ff" points="1895.3965,-40.9341 1902.1707,-32.7878 1891.795,-34.9316 1895.3965,-40.9341"/>
<text text-anchor="middle" x="1907.5427" y="-57.8" font-family="Times,serif" font-size="14.00" fill="#000000">download url</text>
</g>
<!-- named thing_category -->
<g id="node10" class="node">
<title>named thing_category</title>
<ellipse fill="none" stroke="#0000ff" cx="1253.5427" cy="-105" rx="69.5877" ry="18"/>
<text text-anchor="middle" x="1253.5427" y="-101.3" font-family="Times,serif" font-size="14.00" fill="#000000">named thing</text>
</g>
</g>
</svg>
