<?xml version="1.0" encoding="UTF-8" standalone="no"?>
<!DOCTYPE svg PUBLIC "-//W3C//DTD SVG 1.1//EN"
 "http://www.w3.org/Graphics/SVG/1.1/DTD/svg11.dtd">
<!-- Generated by graphviz version 2.40.1 (20161225.0304)
 -->
<!-- Title: %3 Pages: 1 -->
<svg width="1265pt" height="131pt"
 viewBox="0.00 0.00 1265.09 131.00" xmlns="http://www.w3.org/2000/svg" xmlns:xlink="http://www.w3.org/1999/xlink">
<g id="graph0" class="graph" transform="scale(1 1) rotate(0) translate(4 127)">
<title>%3</title>
<polygon fill="#ffffff" stroke="transparent" points="-4,4 -4,-127 1261.0854,-127 1261.0854,4 -4,4"/>
<!-- domain -->
<g id="node1" class="node">
<title>domain</title>
<ellipse fill="none" stroke="#000000" cx="619.5404" cy="-105" rx="44.6926" ry="18"/>
<text text-anchor="middle" x="619.5404" y="-101.3" font-family="Times,serif" font-size="14.00" fill="#000000">domain</text>
</g>
<!-- administrative entity -->
<g id="node2" class="node">
<title>administrative entity</title>
<ellipse fill="none" stroke="#000000" cx="108.5404" cy="-18" rx="108.5808" ry="18"/>
<text text-anchor="middle" x="108.5404" y="-14.3" font-family="Times,serif" font-size="14.00" fill="#000000">administrative entity</text>
</g>
<!-- domain&#45;&gt;administrative entity -->
<g id="edge1" class="edge">
<title>domain&#45;&gt;administrative entity</title>
<path fill="none" stroke="#000000" d="M576.0877,-100.0759C523.3023,-93.874 431.6227,-82.3934 353.5404,-69 295.7521,-59.0876 230.8064,-45.4533 182.3087,-34.7758"/>
<polygon fill="#000000" stroke="#000000" points="183.0468,-31.3545 172.527,-32.6132 181.5357,-38.1895 183.0468,-31.3545"/>
<text text-anchor="middle" x="367.5404" y="-57.8" font-family="Times,serif" font-size="14.00" fill="#000000">is_a</text>
</g>
<!-- id -->
<g id="node3" class="node">
<title>id</title>
<ellipse fill="none" stroke="#0000ff" cx="273.5404" cy="-18" rx="38.1938" ry="18"/>
<text text-anchor="middle" x="273.5404" y="-14.3" font-family="Times,serif" font-size="14.00" fill="#000000">string</text>
</g>
<!-- domain&#45;&gt;id -->
<g id="edge2" class="edge">
<title>domain&#45;&gt;id</title>
<path fill="none" stroke="#0000ff" d="M578.3259,-97.7671C520.1092,-87.039 410.8205,-65.0137 320.5404,-36 317.8108,-35.1228 315.0088,-34.1747 312.1978,-33.1884"/>
<polygon fill="#0000ff" stroke="#0000ff" points="313.2921,-29.8622 302.698,-29.7349 310.9004,-36.4409 313.2921,-29.8622"/>
<text text-anchor="middle" x="441.5404" y="-57.8" font-family="Times,serif" font-size="14.00" fill="#000000">id</text>
</g>
<!-- name -->
<g id="node4" class="node">
<title>name</title>
<ellipse fill="none" stroke="#0000ff" cx="386.5404" cy="-18" rx="56.59" ry="18"/>
<text text-anchor="middle" x="386.5404" y="-14.3" font-family="Times,serif" font-size="14.00" fill="#000000">label type</text>
</g>
<!-- domain&#45;&gt;name -->
<g id="edge3" class="edge">
<title>domain&#45;&gt;name</title>
<path fill="none" stroke="#0000ff" d="M581.7605,-95.2067C557.6701,-88.6083 525.942,-79.2591 498.5404,-69 473.9644,-59.7989 447.1893,-47.6871 425.9824,-37.5756"/>
<polygon fill="#0000ff" stroke="#0000ff" points="427.4874,-34.4157 416.9586,-33.234 424.4524,-40.7236 427.4874,-34.4157"/>
<text text-anchor="middle" x="518.5404" y="-57.8" font-family="Times,serif" font-size="14.00" fill="#000000">name</text>
</g>
<!-- enabled -->
<g id="node5" class="node">
<title>enabled</title>
<ellipse fill="none" stroke="#0000ff" cx="507.5404" cy="-18" rx="46.5926" ry="18"/>
<text text-anchor="middle" x="507.5404" y="-14.3" font-family="Times,serif" font-size="14.00" fill="#000000">boolean</text>
</g>
<!-- domain&#45;&gt;enabled -->
<g id="edge4" class="edge">
<title>domain&#45;&gt;enabled</title>
<path fill="none" stroke="#0000ff" d="M591.8665,-90.6288C581.0727,-84.5289 568.8436,-76.9844 558.5404,-69 548.4356,-61.1693 538.2792,-51.4732 529.7194,-42.6449"/>
<polygon fill="#0000ff" stroke="#0000ff" points="532.0669,-40.0335 522.6497,-35.1788 526.984,-44.8466 532.0669,-40.0335"/>
<text text-anchor="middle" x="587.0404" y="-57.8" font-family="Times,serif" font-size="14.00" fill="#000000">enabled</text>
</g>
<!-- archived -->
<g id="node6" class="node">
<title>archived</title>
<ellipse fill="none" stroke="#0000ff" cx="619.5404" cy="-18" rx="46.5926" ry="18"/>
<text text-anchor="middle" x="619.5404" y="-14.3" font-family="Times,serif" font-size="14.00" fill="#000000">boolean</text>
</g>
<!-- domain&#45;&gt;archived -->
<g id="edge5" class="edge">
<title>domain&#45;&gt;archived</title>
<path fill="none" stroke="#0000ff" d="M619.5404,-86.9735C619.5404,-75.1918 619.5404,-59.5607 619.5404,-46.1581"/>
<polygon fill="#0000ff" stroke="#0000ff" points="623.0405,-46.0033 619.5404,-36.0034 616.0405,-46.0034 623.0405,-46.0033"/>
<text text-anchor="middle" x="651.0404" y="-57.8" font-family="Times,serif" font-size="14.00" fill="#000000">archived</text>
</g>
<!-- description -->
<g id="node7" class="node">
<title>description</title>
<ellipse fill="none" stroke="#0000ff" cx="759.5404" cy="-18" rx="75.2868" ry="18"/>
<text text-anchor="middle" x="759.5404" y="-14.3" font-family="Times,serif" font-size="14.00" fill="#000000">narrative text</text>
</g>
<!-- domain&#45;&gt;description -->
<g id="edge6" class="edge">
<title>domain&#45;&gt;description</title>
<path fill="none" stroke="#0000ff" d="M647.6591,-90.8258C659.8013,-84.467 674.0557,-76.679 686.5404,-69 700.4497,-60.4447 715.3084,-50.2672 727.9652,-41.2624"/>
<polygon fill="#0000ff" stroke="#0000ff" points="730.2563,-43.9262 736.3371,-35.2501 726.173,-38.2405 730.2563,-43.9262"/>
<text text-anchor="middle" x="750.5404" y="-57.8" font-family="Times,serif" font-size="14.00" fill="#000000">description</text>
</g>
<!-- note -->
<g id="node8" class="node">
<title>note</title>
<ellipse fill="none" stroke="#0000ff" cx="928.5404" cy="-18" rx="75.2868" ry="18"/>
<text text-anchor="middle" x="928.5404" y="-14.3" font-family="Times,serif" font-size="14.00" fill="#000000">narrative text</text>
</g>
<!-- domain&#45;&gt;note -->
<g id="edge7" class="edge">
<title>domain&#45;&gt;note</title>
<path fill="none" stroke="#0000ff" d="M652.6302,-92.7313C659.1666,-90.6014 666.0217,-88.5701 672.5404,-87 726.2533,-74.0629 742.0883,-82.9757 795.5404,-69 825.7719,-61.0956 858.5619,-48.5693 884.0197,-37.9094"/>
<polygon fill="#0000ff" stroke="#0000ff" points="885.5596,-41.058 893.397,-33.9288 882.8244,-34.6145 885.5596,-41.058"/>
<text text-anchor="middle" x="856.5404" y="-57.8" font-family="Times,serif" font-size="14.00" fill="#000000">note</text>
</g>
<!-- category -->
<g id="node9" class="node">
<title>category</title>
<ellipse fill="none" stroke="#000000" cx="1073.5404" cy="-18" rx="51.9908" ry="18"/>
<text text-anchor="middle" x="1073.5404" y="-14.3" font-family="Times,serif" font-size="14.00" fill="#000000">category</text>
</g>
<!-- domain&#45;&gt;category -->
<g id="edge8" class="edge">
<title>domain&#45;&gt;category</title>
<path fill="none" stroke="#0000ff" d="M652.2782,-92.5229C658.9055,-90.3842 665.8843,-88.4027 672.5404,-87 761.603,-68.2307 786.7283,-83.7729 876.5404,-69 937.9141,-58.9048 952.4725,-52.1398 1012.5404,-36 1016.3892,-34.9658 1020.3654,-33.8655 1024.3564,-32.7382"/>
<polygon fill="#0000ff" stroke="#0000ff" points="1025.5959,-36.0238 1034.2436,-29.9027 1023.6662,-29.2951 1025.5959,-36.0238"/>
<text text-anchor="middle" x="979.5404" y="-57.8" font-family="Times,serif" font-size="14.00" fill="#000000">category</text>
</g>
<!-- fqdn -->
<g id="node11" class="node">
<title>fqdn</title>
<ellipse fill="none" stroke="#0000ff" cx="1200.5404" cy="-18" rx="56.59" ry="18"/>
<text text-anchor="middle" x="1200.5404" y="-14.3" font-family="Times,serif" font-size="14.00" fill="#000000">label type</text>
</g>
<!-- domain&#45;&gt;fqdn -->
<g id="edge9" class="edge">
<title>domain&#45;&gt;fqdn</title>
<path fill="none" stroke="#0000ff" d="M651.9564,-92.4262C658.671,-90.267 665.7649,-88.3025 672.5404,-87 822.4499,-58.1826 864.8533,-93.4279 1015.5404,-69 1062.9372,-61.3165 1115.6014,-46.1203 1152.5803,-34.3056"/>
<polygon fill="#0000ff" stroke="#0000ff" points="1153.6646,-37.6334 1162.1031,-31.227 1151.5113,-30.9729 1153.6646,-37.6334"/>
<text text-anchor="middle" x="1099.0404" y="-57.8" font-family="Times,serif" font-size="14.00" fill="#000000">fqdn</text>
</g>
<!-- named thing_category -->
<g id="node10" class="node">
<title>named thing_category</title>
<ellipse fill="none" stroke="#0000ff" cx="751.5404" cy="-105" rx="69.5877" ry="18"/>
<text text-anchor="middle" x="751.5404" y="-101.3" font-family="Times,serif" font-size="14.00" fill="#000000">named thing</text>
</g>
</g>
</svg>
