<?xml version="1.0" encoding="UTF-8" standalone="no"?>
<!DOCTYPE svg PUBLIC "-//W3C//DTD SVG 1.1//EN"
 "http://www.w3.org/Graphics/SVG/1.1/DTD/svg11.dtd">
<!-- Generated by graphviz version 2.40.1 (20161225.0304)
 -->
<!-- Title: %3 Pages: 1 -->
<svg width="1878pt" height="131pt"
 viewBox="0.00 0.00 1877.79 131.00" xmlns="http://www.w3.org/2000/svg" xmlns:xlink="http://www.w3.org/1999/xlink">
<g id="graph0" class="graph" transform="scale(1 1) rotate(0) translate(4 127)">
<title>%3</title>
<polygon fill="#ffffff" stroke="transparent" points="-4,4 -4,-127 1873.7901,-127 1873.7901,4 -4,4"/>
<!-- domain configuration -->
<g id="node1" class="node">
<title>domain configuration</title>
<ellipse fill="none" stroke="#000000" cx="1003.4435" cy="-105" rx="110.4804" ry="18"/>
<text text-anchor="middle" x="1003.4435" y="-101.3" font-family="Times,serif" font-size="14.00" fill="#000000">domain configuration</text>
</g>
<!-- configuration -->
<g id="node2" class="node">
<title>configuration</title>
<ellipse fill="none" stroke="#000000" cx="73.4435" cy="-18" rx="73.387" ry="18"/>
<text text-anchor="middle" x="73.4435" y="-14.3" font-family="Times,serif" font-size="14.00" fill="#000000">configuration</text>
</g>
<!-- domain configuration&#45;&gt;configuration -->
<g id="edge1" class="edge">
<title>domain configuration&#45;&gt;configuration</title>
<path fill="none" stroke="#000000" d="M894.3392,-101.9233C724.0606,-96.7104 402.8789,-85.1152 289.4435,-69 234.9409,-61.2571 173.9967,-46.2719 130.7765,-34.5399"/>
<polygon fill="#000000" stroke="#000000" points="131.5802,-31.1311 121.0106,-31.8625 129.7293,-37.882 131.5802,-31.1311"/>
<text text-anchor="middle" x="303.4435" y="-57.8" font-family="Times,serif" font-size="14.00" fill="#000000">is_a</text>
</g>
<!-- id -->
<g id="node3" class="node">
<title>id</title>
<ellipse fill="none" stroke="#0000ff" cx="203.4435" cy="-18" rx="38.1938" ry="18"/>
<text text-anchor="middle" x="203.4435" y="-14.3" font-family="Times,serif" font-size="14.00" fill="#000000">string</text>
</g>
<!-- domain configuration&#45;&gt;id -->
<g id="edge2" class="edge">
<title>domain configuration&#45;&gt;id</title>
<path fill="none" stroke="#0000ff" d="M893.7566,-102.6909C775.5204,-99.1729 581.9974,-90.4327 416.4435,-69 341.8445,-59.3424 322.7148,-56.8596 250.4435,-36 247.6495,-35.1936 244.7877,-34.2926 241.9228,-33.3353"/>
<polygon fill="#0000ff" stroke="#0000ff" points="242.8597,-29.9543 232.265,-29.9191 240.5253,-36.5536 242.8597,-29.9543"/>
<text text-anchor="middle" x="423.4435" y="-57.8" font-family="Times,serif" font-size="14.00" fill="#000000">id</text>
</g>
<!-- name -->
<g id="node4" class="node">
<title>name</title>
<ellipse fill="none" stroke="#0000ff" cx="316.4435" cy="-18" rx="56.59" ry="18"/>
<text text-anchor="middle" x="316.4435" y="-14.3" font-family="Times,serif" font-size="14.00" fill="#000000">label type</text>
</g>
<!-- domain configuration&#45;&gt;name -->
<g id="edge3" class="edge">
<title>domain configuration&#45;&gt;name</title>
<path fill="none" stroke="#0000ff" d="M897.4851,-99.8976C772.9822,-93.4656 574.0461,-81.7039 500.4435,-69 453.8641,-60.9603 402.0876,-46.0539 365.3551,-34.4247"/>
<polygon fill="#0000ff" stroke="#0000ff" points="366.0015,-30.9566 355.4105,-31.24 363.8666,-37.6232 366.0015,-30.9566"/>
<text text-anchor="middle" x="520.4435" y="-57.8" font-family="Times,serif" font-size="14.00" fill="#000000">name</text>
</g>
<!-- enabled -->
<g id="node5" class="node">
<title>enabled</title>
<ellipse fill="none" stroke="#0000ff" cx="437.4435" cy="-18" rx="46.5926" ry="18"/>
<text text-anchor="middle" x="437.4435" y="-14.3" font-family="Times,serif" font-size="14.00" fill="#000000">boolean</text>
</g>
<!-- domain configuration&#45;&gt;enabled -->
<g id="edge4" class="edge">
<title>domain configuration&#45;&gt;enabled</title>
<path fill="none" stroke="#0000ff" d="M895.5229,-101.0766C814.7798,-96.739 701.9523,-87.7002 604.4435,-69 561.494,-60.7632 513.9192,-45.6145 480.5705,-33.9594"/>
<polygon fill="#0000ff" stroke="#0000ff" points="481.7235,-30.6548 471.1287,-30.6201 479.3893,-37.2542 481.7235,-30.6548"/>
<text text-anchor="middle" x="632.9435" y="-57.8" font-family="Times,serif" font-size="14.00" fill="#000000">enabled</text>
</g>
<!-- archived -->
<g id="node6" class="node">
<title>archived</title>
<ellipse fill="none" stroke="#0000ff" cx="549.4435" cy="-18" rx="46.5926" ry="18"/>
<text text-anchor="middle" x="549.4435" y="-14.3" font-family="Times,serif" font-size="14.00" fill="#000000">boolean</text>
</g>
<!-- domain configuration&#45;&gt;archived -->
<g id="edge5" class="edge">
<title>domain configuration&#45;&gt;archived</title>
<path fill="none" stroke="#0000ff" d="M907.6923,-95.9364C853.8431,-90.0066 785.5588,-81.0967 725.4435,-69 671.2172,-58.0883 658.4521,-51.8001 605.4435,-36 602.0625,-34.9922 598.5742,-33.9287 595.0692,-32.8427"/>
<polygon fill="#0000ff" stroke="#0000ff" points="595.8112,-29.4073 585.2219,-29.7507 593.7141,-36.0858 595.8112,-29.4073"/>
<text text-anchor="middle" x="756.9435" y="-57.8" font-family="Times,serif" font-size="14.00" fill="#000000">archived</text>
</g>
<!-- description -->
<g id="node7" class="node">
<title>description</title>
<ellipse fill="none" stroke="#0000ff" cx="689.4435" cy="-18" rx="75.2868" ry="18"/>
<text text-anchor="middle" x="689.4435" y="-14.3" font-family="Times,serif" font-size="14.00" fill="#000000">narrative text</text>
</g>
<!-- domain configuration&#45;&gt;description -->
<g id="edge6" class="edge">
<title>domain configuration&#45;&gt;description</title>
<path fill="none" stroke="#0000ff" d="M931.0478,-91.3948C901.51,-85.326 867.1451,-77.6005 836.4435,-69 803.5188,-59.7767 767.2156,-47.2062 738.9239,-36.8532"/>
<polygon fill="#0000ff" stroke="#0000ff" points="739.8629,-33.4692 729.2695,-33.2929 737.4408,-40.0368 739.8629,-33.4692"/>
<text text-anchor="middle" x="877.4435" y="-57.8" font-family="Times,serif" font-size="14.00" fill="#000000">description</text>
</g>
<!-- note -->
<g id="node8" class="node">
<title>note</title>
<ellipse fill="none" stroke="#0000ff" cx="858.4435" cy="-18" rx="75.2868" ry="18"/>
<text text-anchor="middle" x="858.4435" y="-14.3" font-family="Times,serif" font-size="14.00" fill="#000000">narrative text</text>
</g>
<!-- domain configuration&#45;&gt;note -->
<g id="edge7" class="edge">
<title>domain configuration&#45;&gt;note</title>
<path fill="none" stroke="#0000ff" d="M974.4491,-87.6033C951.6311,-73.9125 919.6893,-54.7475 895.0988,-39.9932"/>
<polygon fill="#0000ff" stroke="#0000ff" points="896.778,-36.9191 886.4023,-34.7753 893.1765,-42.9215 896.778,-36.9191"/>
<text text-anchor="middle" x="956.4435" y="-57.8" font-family="Times,serif" font-size="14.00" fill="#000000">note</text>
</g>
<!-- category -->
<g id="node9" class="node">
<title>category</title>
<ellipse fill="none" stroke="#000000" cx="1003.4435" cy="-18" rx="51.9908" ry="18"/>
<text text-anchor="middle" x="1003.4435" y="-14.3" font-family="Times,serif" font-size="14.00" fill="#000000">category</text>
</g>
<!-- domain configuration&#45;&gt;category -->
<g id="edge8" class="edge">
<title>domain configuration&#45;&gt;category</title>
<path fill="none" stroke="#0000ff" d="M1003.4435,-86.9735C1003.4435,-75.1918 1003.4435,-59.5607 1003.4435,-46.1581"/>
<polygon fill="#0000ff" stroke="#0000ff" points="1006.9436,-46.0033 1003.4435,-36.0034 999.9436,-46.0034 1006.9436,-46.0033"/>
<text text-anchor="middle" x="1035.4435" y="-57.8" font-family="Times,serif" font-size="14.00" fill="#000000">category</text>
</g>
<!-- license -->
<g id="node11" class="node">
<title>license</title>
<ellipse fill="none" stroke="#0000ff" cx="1111.4435" cy="-18" rx="38.1938" ry="18"/>
<text text-anchor="middle" x="1111.4435" y="-14.3" font-family="Times,serif" font-size="14.00" fill="#000000">string</text>
</g>
<!-- domain configuration&#45;&gt;license -->
<g id="edge9" class="edge">
<title>domain configuration&#45;&gt;license</title>
<path fill="none" stroke="#0000ff" d="M1042.2714,-88.0187C1052.3092,-82.6976 1062.7323,-76.2824 1071.4435,-69 1079.9904,-61.855 1087.9089,-52.609 1094.4068,-43.9557"/>
<polygon fill="#0000ff" stroke="#0000ff" points="1097.4162,-45.7651 1100.4018,-35.5996 1091.7286,-41.6845 1097.4162,-45.7651"/>
<text text-anchor="middle" x="1110.9435" y="-57.8" font-family="Times,serif" font-size="14.00" fill="#000000">license</text>
</g>
<!-- rights -->
<g id="node12" class="node">
<title>rights</title>
<ellipse fill="none" stroke="#0000ff" cx="1206.4435" cy="-18" rx="38.1938" ry="18"/>
<text text-anchor="middle" x="1206.4435" y="-14.3" font-family="Times,serif" font-size="14.00" fill="#000000">string</text>
</g>
<!-- domain configuration&#45;&gt;rights -->
<g id="edge10" class="edge">
<title>domain configuration&#45;&gt;rights</title>
<path fill="none" stroke="#0000ff" d="M1076.8571,-91.4594C1098.0116,-86.0444 1120.6963,-78.7205 1140.4435,-69 1155.3274,-61.6734 1170.1074,-50.6908 1181.8958,-40.7916"/>
<polygon fill="#0000ff" stroke="#0000ff" points="1184.2747,-43.3615 1189.5435,-34.1696 1179.6925,-38.0695 1184.2747,-43.3615"/>
<text text-anchor="middle" x="1185.9435" y="-57.8" font-family="Times,serif" font-size="14.00" fill="#000000">rights</text>
</g>
<!-- format -->
<g id="node13" class="node">
<title>format</title>
<ellipse fill="none" stroke="#0000ff" cx="1301.4435" cy="-18" rx="38.1938" ry="18"/>
<text text-anchor="middle" x="1301.4435" y="-14.3" font-family="Times,serif" font-size="14.00" fill="#000000">string</text>
</g>
<!-- domain configuration&#45;&gt;format -->
<g id="edge11" class="edge">
<title>domain configuration&#45;&gt;format</title>
<path fill="none" stroke="#0000ff" d="M1083.4433,-92.5025C1136.7566,-83.9411 1199.2149,-73.3734 1211.4435,-69 1232.4176,-61.4988 1254.1943,-49.2946 1271.0725,-38.7054"/>
<polygon fill="#0000ff" stroke="#0000ff" points="1273.3872,-41.3785 1279.9091,-33.0288 1269.6038,-35.489 1273.3872,-41.3785"/>
<text text-anchor="middle" x="1267.9435" y="-57.8" font-family="Times,serif" font-size="14.00" fill="#000000">format</text>
</g>
<!-- creation date -->
<g id="node14" class="node">
<title>creation date</title>
<ellipse fill="none" stroke="#0000ff" cx="1389.4435" cy="-18" rx="31.3957" ry="18"/>
<text text-anchor="middle" x="1389.4435" y="-14.3" font-family="Times,serif" font-size="14.00" fill="#000000">date</text>
</g>
<!-- domain configuration&#45;&gt;creation date -->
<g id="edge12" class="edge">
<title>domain configuration&#45;&gt;creation date</title>
<path fill="none" stroke="#0000ff" d="M1083.0648,-92.4271C1096.2056,-90.5043 1109.6961,-88.6225 1122.4435,-87 1199.5673,-77.1835 1222.2239,-92.1495 1296.4435,-69 1319.347,-61.8563 1343.0264,-48.7739 1360.7595,-37.6482"/>
<polygon fill="#0000ff" stroke="#0000ff" points="1362.9413,-40.4062 1369.4551,-32.0503 1359.1522,-34.5203 1362.9413,-40.4062"/>
<text text-anchor="middle" x="1379.4435" y="-57.8" font-family="Times,serif" font-size="14.00" fill="#000000">creation date</text>
</g>
<!-- has part -->
<g id="node15" class="node">
<title>has part</title>
<ellipse fill="none" stroke="#0000ff" cx="1508.4435" cy="-18" rx="69.5877" ry="18"/>
<text text-anchor="middle" x="1508.4435" y="-14.3" font-family="Times,serif" font-size="14.00" fill="#000000">named thing</text>
</g>
<!-- domain configuration&#45;&gt;has part -->
<g id="edge13" class="edge">
<title>domain configuration&#45;&gt;has part</title>
<path fill="none" stroke="#0000ff" d="M1081.4057,-92.1586C1095.0557,-90.2105 1109.1433,-88.3903 1122.4435,-87 1190.8538,-79.8489 1366.1867,-90.7408 1431.4435,-69 1449.2063,-63.0822 1466.7845,-51.9527 1480.6511,-41.5969"/>
<polygon fill="#0000ff" stroke="#0000ff" points="1483.0132,-44.1943 1488.7739,-35.3024 1478.7255,-38.6612 1483.0132,-44.1943"/>
<text text-anchor="middle" x="1491.4435" y="-57.8" font-family="Times,serif" font-size="14.00" fill="#000000">has part</text>
</g>
<!-- has quantitative value -->
<g id="node16" class="node">
<title>has quantitative value</title>
<ellipse fill="none" stroke="#0000ff" cx="1673.4435" cy="-18" rx="77.1866" ry="18"/>
<text text-anchor="middle" x="1673.4435" y="-14.3" font-family="Times,serif" font-size="14.00" fill="#000000">quantity value</text>
</g>
<!-- domain configuration&#45;&gt;has quantitative value -->
<g id="edge14" class="edge">
<title>domain configuration&#45;&gt;has quantitative value</title>
<path fill="none" stroke="#0000ff" d="M1080.7507,-92.0972C1094.6015,-90.1308 1108.9263,-88.3205 1122.4435,-87 1300.8838,-69.5685 1349.321,-102.5511 1525.4435,-69 1560.5825,-62.3061 1598.7115,-49.0138 1627.4671,-37.6778"/>
<polygon fill="#0000ff" stroke="#0000ff" points="1628.8615,-40.8896 1636.8417,-33.9207 1626.2574,-34.392 1628.8615,-40.8896"/>
<text text-anchor="middle" x="1660.4435" y="-57.8" font-family="Times,serif" font-size="14.00" fill="#000000">has quantitative value</text>
</g>
<!-- version -->
<g id="node17" class="node">
<title>version</title>
<ellipse fill="none" stroke="#0000ff" cx="1831.4435" cy="-18" rx="38.1938" ry="18"/>
<text text-anchor="middle" x="1831.4435" y="-14.3" font-family="Times,serif" font-size="14.00" fill="#000000">string</text>
</g>
<!-- domain configuration&#45;&gt;version -->
<g id="edge15" class="edge">
<title>domain configuration&#45;&gt;version</title>
<path fill="none" stroke="#0000ff" d="M1080.0951,-92.0099C1094.1456,-90.0266 1108.7082,-88.233 1122.4435,-87 1191.3066,-80.8184 1677.9879,-88.0789 1744.4435,-69 1765.5998,-62.9262 1786.9585,-50.5184 1803.2185,-39.4624"/>
<polygon fill="#0000ff" stroke="#0000ff" points="1805.5233,-42.1207 1811.6937,-33.5082 1801.4992,-36.393 1805.5233,-42.1207"/>
<text text-anchor="middle" x="1802.9435" y="-57.8" font-family="Times,serif" font-size="14.00" fill="#000000">version</text>
</g>
<!-- named thing_category -->
<g id="node10" class="node">
<title>named thing_category</title>
<ellipse fill="none" stroke="#0000ff" cx="1201.4435" cy="-105" rx="69.5877" ry="18"/>
<text text-anchor="middle" x="1201.4435" y="-101.3" font-family="Times,serif" font-size="14.00" fill="#000000">named thing</text>
</g>
</g>
</svg>
