<?xml version="1.0" encoding="UTF-8" standalone="no"?>
<!DOCTYPE svg PUBLIC "-//W3C//DTD SVG 1.1//EN"
 "http://www.w3.org/Graphics/SVG/1.1/DTD/svg11.dtd">
<!-- Generated by graphviz version 2.40.1 (20161225.0304)
 -->
<!-- Title: %3 Pages: 1 -->
<svg width="2060pt" height="291pt"
 viewBox="0.00 0.00 2059.59 291.00" xmlns="http://www.w3.org/2000/svg" xmlns:xlink="http://www.w3.org/1999/xlink">
<g id="graph0" class="graph" transform="scale(1 1) rotate(0) translate(4 287)">
<title>%3</title>
<polygon fill="#ffffff" stroke="transparent" points="-4,4 -4,-287 2055.5882,-287 2055.5882,4 -4,4"/>
<!-- domain environment to environment association -->
<g id="node1" class="node">
<title>domain environment to environment association</title>
<ellipse fill="none" stroke="#000000" cx="1014.0444" cy="-265" rx="235.8582" ry="18"/>
<text text-anchor="middle" x="1014.0444" y="-261.3" font-family="Times,serif" font-size="14.00" fill="#000000">domain environment to environment association</text>
</g>
<!-- association -->
<g id="node2" class="node">
<title>association</title>
<ellipse fill="none" stroke="#000000" cx="63.0444" cy="-178" rx="63.0888" ry="18"/>
<text text-anchor="middle" x="63.0444" y="-174.3" font-family="Times,serif" font-size="14.00" fill="#000000">association</text>
</g>
<!-- domain environment to environment association&#45;&gt;association -->
<g id="edge1" class="edge">
<title>domain environment to environment association&#45;&gt;association</title>
<path fill="none" stroke="#000000" d="M791.4951,-258.9803C609.203,-253.1692 366.1064,-243.161 269.0444,-229 216.1659,-221.2852 157.0802,-205.9414 115.7949,-194.0897"/>
<polygon fill="#000000" stroke="#000000" points="116.5384,-190.6612 105.9591,-191.2356 114.5875,-197.3839 116.5384,-190.6612"/>
<text text-anchor="middle" x="283.0444" y="-217.8" font-family="Times,serif" font-size="14.00" fill="#000000">is_a</text>
</g>
<!-- id -->
<g id="node3" class="node">
<title>id</title>
<ellipse fill="none" stroke="#0000ff" cx="182.0444" cy="-178" rx="38.1938" ry="18"/>
<text text-anchor="middle" x="182.0444" y="-174.3" font-family="Times,serif" font-size="14.00" fill="#000000">string</text>
</g>
<!-- domain environment to environment association&#45;&gt;id -->
<g id="edge2" class="edge">
<title>domain environment to environment association&#45;&gt;id</title>
<path fill="none" stroke="#0000ff" d="M790.2528,-259.2549C672.8268,-254.3957 526.7779,-245.4493 397.0444,-229 321.5553,-219.4285 302.1776,-217.0181 229.0444,-196 226.2495,-195.1968 223.387,-194.2982 220.5216,-193.3426"/>
<polygon fill="#0000ff" stroke="#0000ff" points="221.4576,-189.9613 210.8628,-189.9297 219.1255,-196.5614 221.4576,-189.9613"/>
<text text-anchor="middle" x="404.0444" y="-217.8" font-family="Times,serif" font-size="14.00" fill="#000000">id</text>
</g>
<!-- name -->
<g id="node4" class="node">
<title>name</title>
<ellipse fill="none" stroke="#0000ff" cx="295.0444" cy="-178" rx="56.59" ry="18"/>
<text text-anchor="middle" x="295.0444" y="-174.3" font-family="Times,serif" font-size="14.00" fill="#000000">label type</text>
</g>
<!-- domain environment to environment association&#45;&gt;name -->
<g id="edge3" class="edge">
<title>domain environment to environment association&#45;&gt;name</title>
<path fill="none" stroke="#0000ff" d="M813.1936,-255.4999C689.8564,-248.8691 544.0155,-239.3743 482.0444,-229 434.2118,-220.9925 380.9686,-205.8372 343.5669,-194.1199"/>
<polygon fill="#0000ff" stroke="#0000ff" points="344.5248,-190.752 333.9347,-191.0686 342.4108,-197.4252 344.5248,-190.752"/>
<text text-anchor="middle" x="502.0444" y="-217.8" font-family="Times,serif" font-size="14.00" fill="#000000">name</text>
</g>
<!-- enabled -->
<g id="node5" class="node">
<title>enabled</title>
<ellipse fill="none" stroke="#0000ff" cx="416.0444" cy="-178" rx="46.5926" ry="18"/>
<text text-anchor="middle" x="416.0444" y="-174.3" font-family="Times,serif" font-size="14.00" fill="#000000">boolean</text>
</g>
<!-- domain environment to environment association&#45;&gt;enabled -->
<g id="edge4" class="edge">
<title>domain environment to environment association&#45;&gt;enabled</title>
<path fill="none" stroke="#0000ff" d="M810.6483,-255.8303C739.8062,-250.5209 660.0535,-242.1581 588.0444,-229 543.566,-220.8726 494.2226,-205.5628 459.8346,-193.83"/>
<polygon fill="#0000ff" stroke="#0000ff" points="460.702,-190.4268 450.1073,-190.4704 458.4168,-197.0432 460.702,-190.4268"/>
<text text-anchor="middle" x="616.5444" y="-217.8" font-family="Times,serif" font-size="14.00" fill="#000000">enabled</text>
</g>
<!-- archived -->
<g id="node6" class="node">
<title>archived</title>
<ellipse fill="none" stroke="#0000ff" cx="528.0444" cy="-178" rx="46.5926" ry="18"/>
<text text-anchor="middle" x="528.0444" y="-174.3" font-family="Times,serif" font-size="14.00" fill="#000000">boolean</text>
</g>
<!-- domain environment to environment association&#45;&gt;archived -->
<g id="edge5" class="edge">
<title>domain environment to environment association&#45;&gt;archived</title>
<path fill="none" stroke="#0000ff" d="M864.5651,-251.0468C816.0284,-245.4709 762.0622,-238.16 713.0444,-229 654.8718,-218.1293 640.9075,-212.3956 584.0444,-196 580.4997,-194.9779 576.8403,-193.8859 573.1691,-192.764"/>
<polygon fill="#0000ff" stroke="#0000ff" points="574.0829,-189.3828 563.4945,-189.7519 572.0021,-196.0664 574.0829,-189.3828"/>
<text text-anchor="middle" x="744.5444" y="-217.8" font-family="Times,serif" font-size="14.00" fill="#000000">archived</text>
</g>
<!-- description -->
<g id="node7" class="node">
<title>description</title>
<ellipse fill="none" stroke="#0000ff" cx="668.0444" cy="-178" rx="75.2868" ry="18"/>
<text text-anchor="middle" x="668.0444" y="-174.3" font-family="Times,serif" font-size="14.00" fill="#000000">narrative text</text>
</g>
<!-- domain environment to environment association&#45;&gt;description -->
<g id="edge6" class="edge">
<title>domain environment to environment association&#45;&gt;description</title>
<path fill="none" stroke="#0000ff" d="M918.0369,-248.4832C889.2666,-242.9523 857.7397,-236.3113 829.0444,-229 792.3823,-219.6589 751.7751,-206.7774 720.5143,-196.2977"/>
<polygon fill="#0000ff" stroke="#0000ff" points="721.3041,-192.8703 710.7099,-192.9871 719.0646,-199.5024 721.3041,-192.8703"/>
<text text-anchor="middle" x="870.0444" y="-217.8" font-family="Times,serif" font-size="14.00" fill="#000000">description</text>
</g>
<!-- note -->
<g id="node8" class="node">
<title>note</title>
<ellipse fill="none" stroke="#0000ff" cx="837.0444" cy="-178" rx="75.2868" ry="18"/>
<text text-anchor="middle" x="837.0444" y="-174.3" font-family="Times,serif" font-size="14.00" fill="#000000">narrative text</text>
</g>
<!-- domain environment to environment association&#45;&gt;note -->
<g id="edge7" class="edge">
<title>domain environment to environment association&#45;&gt;note</title>
<path fill="none" stroke="#0000ff" d="M977.7987,-247.1843C949.2014,-233.128 909.2629,-213.4972 879.231,-198.7358"/>
<polygon fill="#0000ff" stroke="#0000ff" points="880.7708,-195.5927 870.2523,-194.3225 877.6829,-201.8749 880.7708,-195.5927"/>
<text text-anchor="middle" x="953.0444" y="-217.8" font-family="Times,serif" font-size="14.00" fill="#000000">note</text>
</g>
<!-- negated -->
<g id="node9" class="node">
<title>negated</title>
<ellipse fill="none" stroke="#0000ff" cx="977.0444" cy="-178" rx="46.5926" ry="18"/>
<text text-anchor="middle" x="977.0444" y="-174.3" font-family="Times,serif" font-size="14.00" fill="#000000">boolean</text>
</g>
<!-- domain environment to environment association&#45;&gt;negated -->
<g id="edge8" class="edge">
<title>domain environment to environment association&#45;&gt;negated</title>
<path fill="none" stroke="#0000ff" d="M992.5024,-247.0618C987.5534,-241.7839 982.9083,-235.6292 980.0444,-229 976.9974,-221.9469 975.6689,-213.8275 975.2449,-206.171"/>
<polygon fill="#0000ff" stroke="#0000ff" points="978.7448,-206.1276 975.1508,-196.1609 971.7451,-206.1934 978.7448,-206.1276"/>
<text text-anchor="middle" x="1009.0444" y="-217.8" font-family="Times,serif" font-size="14.00" fill="#000000">negated</text>
</g>
<!-- relation -->
<g id="node10" class="node">
<title>relation</title>
<ellipse fill="none" stroke="#0000ff" cx="1725.0444" cy="-18" rx="57.6901" ry="18"/>
<text text-anchor="middle" x="1725.0444" y="-14.3" font-family="Times,serif" font-size="14.00" fill="#000000">uriorcurie</text>
</g>
<!-- domain environment to environment association&#45;&gt;relation -->
<g id="edge9" class="edge">
<title>domain environment to environment association&#45;&gt;relation</title>
<path fill="none" stroke="#0000ff" d="M1026.7675,-247.0026C1030.5679,-241.3462 1034.6283,-235.0073 1038.0444,-229 1054.8481,-199.4502 1044.3837,-181.0894 1071.0444,-160 1162.5357,-87.6274 1512.8884,-41.4229 1659.7095,-24.8635"/>
<polygon fill="#0000ff" stroke="#0000ff" points="1660.373,-28.3112 1669.9225,-23.7225 1659.5957,-21.3545 1660.373,-28.3112"/>
<text text-anchor="middle" x="1160.0444" y="-130.8" font-family="Times,serif" font-size="14.00" fill="#000000">relation</text>
</g>
<!-- qualifiers -->
<g id="node11" class="node">
<title>qualifiers</title>
<ellipse fill="none" stroke="#0000ff" cx="1157.0444" cy="-178" rx="77.1866" ry="18"/>
<text text-anchor="middle" x="1157.0444" y="-174.3" font-family="Times,serif" font-size="14.00" fill="#000000">ontology class</text>
</g>
<!-- domain environment to environment association&#45;&gt;qualifiers -->
<g id="edge10" class="edge">
<title>domain environment to environment association&#45;&gt;qualifiers</title>
<path fill="none" stroke="#0000ff" d="M1043.6741,-246.9735C1066.0166,-233.3806 1096.781,-214.6638 1120.6254,-200.157"/>
<polygon fill="#0000ff" stroke="#0000ff" points="1122.6691,-203.0105 1129.3931,-194.8228 1119.0308,-197.0303 1122.6691,-203.0105"/>
<text text-anchor="middle" x="1129.0444" y="-217.8" font-family="Times,serif" font-size="14.00" fill="#000000">qualifiers</text>
</g>
<!-- publications -->
<g id="node12" class="node">
<title>publications</title>
<ellipse fill="none" stroke="#0000ff" cx="1315.0444" cy="-178" rx="63.0888" ry="18"/>
<text text-anchor="middle" x="1315.0444" y="-174.3" font-family="Times,serif" font-size="14.00" fill="#000000">publication</text>
</g>
<!-- domain environment to environment association&#45;&gt;publications -->
<g id="edge11" class="edge">
<title>domain environment to environment association&#45;&gt;publications</title>
<path fill="none" stroke="#0000ff" d="M1093.0612,-248.0088C1116.9613,-242.4403 1143.1896,-235.8976 1167.0444,-229 1200.9386,-219.1996 1238.5177,-206.2233 1267.3274,-195.8126"/>
<polygon fill="#0000ff" stroke="#0000ff" points="1268.5416,-199.0954 1276.7435,-192.3887 1266.1495,-192.5168 1268.5416,-199.0954"/>
<text text-anchor="middle" x="1257.0444" y="-217.8" font-family="Times,serif" font-size="14.00" fill="#000000">publications</text>
</g>
<!-- type -->
<g id="node13" class="node">
<title>type</title>
<ellipse fill="none" stroke="#000000" cx="1427.0444" cy="-178" rx="31.3957" ry="18"/>
<text text-anchor="middle" x="1427.0444" y="-174.3" font-family="Times,serif" font-size="14.00" fill="#000000">type</text>
</g>
<!-- domain environment to environment association&#45;&gt;type -->
<g id="edge12" class="edge">
<title>domain environment to environment association&#45;&gt;type</title>
<path fill="none" stroke="#0000ff" d="M1179.3507,-252.0899C1220.7888,-246.7979 1264.8752,-239.3788 1305.0444,-229 1336.4398,-220.8882 1370.3312,-206.2016 1394.4062,-194.6652"/>
<polygon fill="#0000ff" stroke="#0000ff" points="1395.9896,-197.7871 1403.4459,-190.2603 1392.9232,-191.4944 1395.9896,-197.7871"/>
<text text-anchor="middle" x="1366.0444" y="-217.8" font-family="Times,serif" font-size="14.00" fill="#000000">type</text>
</g>
<!-- category -->
<g id="node15" class="node">
<title>category</title>
<ellipse fill="none" stroke="#000000" cx="1528.0444" cy="-178" rx="51.9908" ry="18"/>
<text text-anchor="middle" x="1528.0444" y="-174.3" font-family="Times,serif" font-size="14.00" fill="#000000">category</text>
</g>
<!-- domain environment to environment association&#45;&gt;category -->
<g id="edge13" class="edge">
<title>domain environment to environment association&#45;&gt;category</title>
<path fill="none" stroke="#0000ff" d="M1184.8047,-252.5696C1263.594,-245.9981 1347.978,-237.538 1386.0444,-229 1420.6831,-221.2308 1458.4423,-207.3949 1486.3109,-196.0927"/>
<polygon fill="#0000ff" stroke="#0000ff" points="1487.8189,-199.257 1495.7345,-192.2148 1485.155,-192.7837 1487.8189,-199.257"/>
<text text-anchor="middle" x="1470.0444" y="-217.8" font-family="Times,serif" font-size="14.00" fill="#000000">category</text>
</g>
<!-- predicate -->
<g id="node17" class="node">
<title>predicate</title>
<ellipse fill="none" stroke="#000000" cx="1653.0444" cy="-178" rx="55.4913" ry="18"/>
<text text-anchor="middle" x="1653.0444" y="-174.3" font-family="Times,serif" font-size="14.00" fill="#000000">predicate</text>
</g>
<!-- domain environment to environment association&#45;&gt;predicate -->
<g id="edge14" class="edge">
<title>domain environment to environment association&#45;&gt;predicate</title>
<path fill="none" stroke="#0000ff" d="M1184.0633,-252.4957C1209.2044,-250.6505 1234.7991,-248.7741 1259.0444,-247 1368.8198,-238.9675 1398.2433,-251.2281 1506.0444,-229 1542.0553,-221.5747 1581.3292,-207.6278 1610.2161,-196.1934"/>
<polygon fill="#0000ff" stroke="#0000ff" points="1611.6206,-199.4011 1619.5946,-192.425 1609.0107,-192.9058 1611.6206,-199.4011"/>
<text text-anchor="middle" x="1594.5444" y="-217.8" font-family="Times,serif" font-size="14.00" fill="#000000">predicate</text>
</g>
<!-- subject -->
<g id="node19" class="node">
<title>subject</title>
<ellipse fill="none" stroke="#000000" cx="1771.0444" cy="-178" rx="44.6926" ry="18"/>
<text text-anchor="middle" x="1771.0444" y="-174.3" font-family="Times,serif" font-size="14.00" fill="#000000">subject</text>
</g>
<!-- domain environment to environment association&#45;&gt;subject -->
<g id="edge15" class="edge">
<title>domain environment to environment association&#45;&gt;subject</title>
<path fill="none" stroke="#0000ff" d="M1180.3908,-252.21C1206.6995,-250.3512 1233.6084,-248.5462 1259.0444,-247 1425.1524,-236.9024 1469.9816,-262.2318 1633.0444,-229 1667.7057,-221.9361 1705.2523,-207.5892 1732.4182,-195.9067"/>
<polygon fill="#0000ff" stroke="#0000ff" points="1734.1754,-198.9582 1741.9324,-191.7416 1731.3682,-192.5457 1734.1754,-198.9582"/>
<text text-anchor="middle" x="1709.5444" y="-217.8" font-family="Times,serif" font-size="14.00" fill="#000000">subject</text>
</g>
<!-- object -->
<g id="node21" class="node">
<title>object</title>
<ellipse fill="none" stroke="#000000" cx="1793.0444" cy="-91" rx="39.7935" ry="18"/>
<text text-anchor="middle" x="1793.0444" y="-87.3" font-family="Times,serif" font-size="14.00" fill="#000000">object</text>
</g>
<!-- domain environment to environment association&#45;&gt;object -->
<g id="edge16" class="edge">
<title>domain environment to environment association&#45;&gt;object</title>
<path fill="none" stroke="#0000ff" d="M1178.7264,-252.0852C1205.5606,-250.2155 1233.0682,-248.4398 1259.0444,-247 1365.8442,-241.0803 1635.2957,-250.6553 1740.0444,-229 1779.7301,-220.7955 1798.3729,-226.5107 1825.0444,-196 1845.5828,-172.5053 1851.5626,-155.1263 1838.0444,-127 1835.2571,-121.2007 1831.0302,-116.0431 1826.263,-111.5709"/>
<polygon fill="#0000ff" stroke="#0000ff" points="1828.3925,-108.7902 1818.456,-105.1136 1823.931,-114.1842 1828.3925,-108.7902"/>
<text text-anchor="middle" x="1866.5444" y="-174.3" font-family="Times,serif" font-size="14.00" fill="#000000">object</text>
</g>
<!-- association_type -->
<g id="node14" class="node">
<title>association_type</title>
<ellipse fill="none" stroke="#0000ff" cx="1306.0444" cy="-265" rx="38.1938" ry="18"/>
<text text-anchor="middle" x="1306.0444" y="-261.3" font-family="Times,serif" font-size="14.00" fill="#000000">string</text>
</g>
<!-- association_category -->
<g id="node16" class="node">
<title>association_category</title>
<ellipse fill="none" stroke="#0000ff" cx="1425.0444" cy="-265" rx="63.0888" ry="18"/>
<text text-anchor="middle" x="1425.0444" y="-261.3" font-family="Times,serif" font-size="14.00" fill="#000000">association</text>
</g>
<!-- domain environment to environment association_predicate -->
<g id="node18" class="node">
<title>domain environment to environment association_predicate</title>
<ellipse fill="none" stroke="#0000ff" cx="1585.0444" cy="-265" rx="78.7863" ry="18"/>
<text text-anchor="middle" x="1585.0444" y="-261.3" font-family="Times,serif" font-size="14.00" fill="#000000">predicate type</text>
</g>
<!-- subject&#45;&gt;relation -->
<g id="edge18" class="edge">
<title>subject&#45;&gt;relation</title>
<path fill="none" stroke="#000000" stroke-dasharray="1,5" d="M1763.098,-160.1293C1757.213,-146.3661 1749.3308,-126.7533 1744.0444,-109 1737.8454,-88.1821 1732.913,-64.1019 1729.6287,-45.9434"/>
<polygon fill="#000000" stroke="#000000" points="1733.061,-45.252 1727.8884,-36.0057 1726.1659,-46.4595 1733.061,-45.252"/>
</g>
<!-- subject&#45;&gt;object -->
<g id="edge17" class="edge">
<title>subject&#45;&gt;object</title>
<path fill="none" stroke="#000000" d="M1774.5468,-159.975C1776.5477,-150.1752 1779.2168,-137.8699 1782.0444,-127 1782.7452,-124.306 1783.5173,-121.512 1784.3176,-118.7256"/>
<polygon fill="#000000" stroke="#000000" points="1787.7556,-119.4442 1787.2625,-108.8608 1781.0481,-117.4417 1787.7556,-119.4442"/>
<text text-anchor="middle" x="1810.0444" y="-130.8" font-family="Times,serif" font-size="14.00" fill="#000000">relation</text>
</g>
<!-- domain environment to environment association_subject -->
<g id="node20" class="node">
<title>domain environment to environment association_subject</title>
<ellipse fill="none" stroke="#0000ff" cx="1788.0444" cy="-265" rx="106.6812" ry="18"/>
<text text-anchor="middle" x="1788.0444" y="-261.3" font-family="Times,serif" font-size="14.00" fill="#000000">domain environment</text>
</g>
<!-- object&#45;&gt;relation -->
<g id="edge19" class="edge">
<title>object&#45;&gt;relation</title>
<path fill="none" stroke="#000000" stroke-dasharray="1,5" d="M1777.2729,-74.0688C1768.6439,-64.8053 1757.7907,-53.1542 1748.2166,-42.8761"/>
<polygon fill="#000000" stroke="#000000" points="1750.5797,-40.2779 1741.2026,-35.3463 1745.4576,-45.0491 1750.5797,-40.2779"/>
</g>
<!-- domain environment to environment association_object -->
<g id="node22" class="node">
<title>domain environment to environment association_object</title>
<ellipse fill="none" stroke="#0000ff" cx="1982.0444" cy="-265" rx="69.5877" ry="18"/>
<text text-anchor="middle" x="1982.0444" y="-261.3" font-family="Times,serif" font-size="14.00" fill="#000000">environment</text>
</g>
</g>
</svg>
