<?xml version="1.0" encoding="UTF-8" standalone="no"?>
<!DOCTYPE svg PUBLIC "-//W3C//DTD SVG 1.1//EN"
 "http://www.w3.org/Graphics/SVG/1.1/DTD/svg11.dtd">
<!-- Generated by graphviz version 2.40.1 (20161225.0304)
 -->
<!-- Title: %3 Pages: 1 -->
<svg width="1055pt" height="131pt"
 viewBox="0.00 0.00 1055.34 131.00" xmlns="http://www.w3.org/2000/svg" xmlns:xlink="http://www.w3.org/1999/xlink">
<g id="graph0" class="graph" transform="scale(1 1) rotate(0) translate(4 127)">
<title>%3</title>
<polygon fill="#ffffff" stroke="transparent" points="-4,4 -4,-127 1051.3397,-127 1051.3397,4 -4,4"/>
<!-- domain environment -->
<g id="node1" class="node">
<title>domain environment</title>
<ellipse fill="none" stroke="#000000" cx="541.5438" cy="-105" rx="106.6812" ry="18"/>
<text text-anchor="middle" x="541.5438" y="-101.3" font-family="Times,serif" font-size="14.00" fill="#000000">domain environment</text>
</g>
<!-- environment -->
<g id="node2" class="node">
<title>environment</title>
<ellipse fill="none" stroke="#000000" cx="69.5438" cy="-18" rx="69.5877" ry="18"/>
<text text-anchor="middle" x="69.5438" y="-14.3" font-family="Times,serif" font-size="14.00" fill="#000000">environment</text>
</g>
<!-- domain environment&#45;&gt;environment -->
<g id="edge1" class="edge">
<title>domain environment&#45;&gt;environment</title>
<path fill="none" stroke="#000000" d="M450.1032,-95.7124C396.873,-89.6165 328.623,-80.6165 268.5438,-69 219.7996,-59.5751 165.2262,-45.3205 125.5754,-34.2753"/>
<polygon fill="#000000" stroke="#000000" points="126.4026,-30.8723 115.8289,-31.5412 124.5119,-37.6121 126.4026,-30.8723"/>
<text text-anchor="middle" x="282.5438" y="-57.8" font-family="Times,serif" font-size="14.00" fill="#000000">is_a</text>
</g>
<!-- description -->
<g id="node3" class="node">
<title>description</title>
<ellipse fill="none" stroke="#0000ff" cx="232.5438" cy="-18" rx="75.2868" ry="18"/>
<text text-anchor="middle" x="232.5438" y="-14.3" font-family="Times,serif" font-size="14.00" fill="#000000">narrative text</text>
</g>
<!-- domain environment&#45;&gt;description -->
<g id="edge2" class="edge">
<title>domain environment&#45;&gt;description</title>
<path fill="none" stroke="#0000ff" d="M451.7607,-95.2015C414.851,-89.6845 372.0514,-81.343 334.5438,-69 312.079,-61.6072 288.3707,-50.0095 269.4706,-39.7405"/>
<polygon fill="#0000ff" stroke="#0000ff" points="271.0488,-36.6137 260.6051,-34.8304 267.6572,-42.7372 271.0488,-36.6137"/>
<text text-anchor="middle" x="375.5438" y="-57.8" font-family="Times,serif" font-size="14.00" fill="#000000">description</text>
</g>
<!-- category -->
<g id="node4" class="node">
<title>category</title>
<ellipse fill="none" stroke="#000000" cx="377.5438" cy="-18" rx="51.9908" ry="18"/>
<text text-anchor="middle" x="377.5438" y="-14.3" font-family="Times,serif" font-size="14.00" fill="#000000">category</text>
</g>
<!-- domain environment&#45;&gt;category -->
<g id="edge3" class="edge">
<title>domain environment&#45;&gt;category</title>
<path fill="none" stroke="#0000ff" d="M488.7989,-89.3018C473.4405,-83.8148 456.9328,-76.9926 442.5438,-69 428.8213,-61.3776 414.9527,-50.9521 403.5706,-41.513"/>
<polygon fill="#0000ff" stroke="#0000ff" points="405.6445,-38.6821 395.7598,-34.8684 401.1088,-44.0139 405.6445,-38.6821"/>
<text text-anchor="middle" x="474.5438" y="-57.8" font-family="Times,serif" font-size="14.00" fill="#000000">category</text>
</g>
<!-- id -->
<g id="node6" class="node">
<title>id</title>
<ellipse fill="none" stroke="#0000ff" cx="485.5438" cy="-18" rx="38.1938" ry="18"/>
<text text-anchor="middle" x="485.5438" y="-14.3" font-family="Times,serif" font-size="14.00" fill="#000000">string</text>
</g>
<!-- domain environment&#45;&gt;id -->
<g id="edge4" class="edge">
<title>domain environment&#45;&gt;id</title>
<path fill="none" stroke="#0000ff" d="M529.9406,-86.9735C521.9515,-74.5619 511.2126,-57.8782 502.2977,-44.0284"/>
<polygon fill="#0000ff" stroke="#0000ff" points="505.1056,-41.924 496.7501,-35.4097 499.2195,-45.7127 505.1056,-41.924"/>
<text text-anchor="middle" x="524.5438" y="-57.8" font-family="Times,serif" font-size="14.00" fill="#000000">id</text>
</g>
<!-- name -->
<g id="node7" class="node">
<title>name</title>
<ellipse fill="none" stroke="#0000ff" cx="598.5438" cy="-18" rx="56.59" ry="18"/>
<text text-anchor="middle" x="598.5438" y="-14.3" font-family="Times,serif" font-size="14.00" fill="#000000">label type</text>
</g>
<!-- domain environment&#45;&gt;name -->
<g id="edge5" class="edge">
<title>domain environment&#45;&gt;name</title>
<path fill="none" stroke="#0000ff" d="M553.3543,-86.9735C561.4326,-74.6435 572.273,-58.0975 581.3114,-44.3021"/>
<polygon fill="#0000ff" stroke="#0000ff" points="584.3909,-45.9884 586.9435,-35.7057 578.5356,-42.1522 584.3909,-45.9884"/>
<text text-anchor="middle" x="593.5438" y="-57.8" font-family="Times,serif" font-size="14.00" fill="#000000">name</text>
</g>
<!-- note -->
<g id="node8" class="node">
<title>note</title>
<ellipse fill="none" stroke="#0000ff" cx="748.5438" cy="-18" rx="75.2868" ry="18"/>
<text text-anchor="middle" x="748.5438" y="-14.3" font-family="Times,serif" font-size="14.00" fill="#000000">narrative text</text>
</g>
<!-- domain environment&#45;&gt;note -->
<g id="edge6" class="edge">
<title>domain environment&#45;&gt;note</title>
<path fill="none" stroke="#0000ff" d="M581.4555,-88.2255C615.8586,-73.7663 665.5655,-52.8749 701.8169,-37.6388"/>
<polygon fill="#0000ff" stroke="#0000ff" points="703.3298,-40.7996 711.1925,-33.6984 700.6175,-34.3464 703.3298,-40.7996"/>
<text text-anchor="middle" x="673.5438" y="-57.8" font-family="Times,serif" font-size="14.00" fill="#000000">note</text>
</g>
<!-- enabled -->
<g id="node9" class="node">
<title>enabled</title>
<ellipse fill="none" stroke="#0000ff" cx="888.5438" cy="-18" rx="46.5926" ry="18"/>
<text text-anchor="middle" x="888.5438" y="-14.3" font-family="Times,serif" font-size="14.00" fill="#000000">boolean</text>
</g>
<!-- domain environment&#45;&gt;enabled -->
<g id="edge7" class="edge">
<title>domain environment&#45;&gt;enabled</title>
<path fill="none" stroke="#0000ff" d="M607.7983,-90.8453C667.0272,-77.823 756.0253,-57.3458 832.5438,-36 836.0973,-35.0087 839.763,-33.9388 843.4385,-32.8321"/>
<polygon fill="#0000ff" stroke="#0000ff" points="844.5962,-36.1378 853.1203,-29.8457 842.5329,-29.4488 844.5962,-36.1378"/>
<text text-anchor="middle" x="790.0438" y="-57.8" font-family="Times,serif" font-size="14.00" fill="#000000">enabled</text>
</g>
<!-- archived -->
<g id="node10" class="node">
<title>archived</title>
<ellipse fill="none" stroke="#0000ff" cx="1000.5438" cy="-18" rx="46.5926" ry="18"/>
<text text-anchor="middle" x="1000.5438" y="-14.3" font-family="Times,serif" font-size="14.00" fill="#000000">boolean</text>
</g>
<!-- domain environment&#45;&gt;archived -->
<g id="edge8" class="edge">
<title>domain environment&#45;&gt;archived</title>
<path fill="none" stroke="#0000ff" d="M618.4858,-92.4423C631.1853,-90.5176 644.2232,-88.6313 656.5438,-87 730.112,-77.2594 749.6148,-82.7303 822.5438,-69 877.7449,-58.6073 890.6798,-51.9321 944.5438,-36 947.9269,-34.9993 951.4167,-33.941 954.9229,-32.8586"/>
<polygon fill="#0000ff" stroke="#0000ff" points="956.2757,-36.1027 964.7721,-29.7732 954.183,-29.4228 956.2757,-36.1027"/>
<text text-anchor="middle" x="916.0438" y="-57.8" font-family="Times,serif" font-size="14.00" fill="#000000">archived</text>
</g>
<!-- named thing_category -->
<g id="node5" class="node">
<title>named thing_category</title>
<ellipse fill="none" stroke="#0000ff" cx="735.5438" cy="-105" rx="69.5877" ry="18"/>
<text text-anchor="middle" x="735.5438" y="-101.3" font-family="Times,serif" font-size="14.00" fill="#000000">named thing</text>
</g>
</g>
</svg>
