<?xml version="1.0" encoding="UTF-8" standalone="no"?>
<!DOCTYPE svg PUBLIC "-//W3C//DTD SVG 1.1//EN"
 "http://www.w3.org/Graphics/SVG/1.1/DTD/svg11.dtd">
<!-- Generated by graphviz version 2.40.1 (20161225.0304)
 -->
<!-- Title: %3 Pages: 1 -->
<svg width="1133pt" height="131pt"
 viewBox="0.00 0.00 1133.34 131.00" xmlns="http://www.w3.org/2000/svg" xmlns:xlink="http://www.w3.org/1999/xlink">
<g id="graph0" class="graph" transform="scale(1 1) rotate(0) translate(4 127)">
<title>%3</title>
<polygon fill="#ffffff" stroke="transparent" points="-4,4 -4,-127 1129.3362,-127 1129.3362,4 -4,4"/>
<!-- email -->
<g id="node1" class="node">
<title>email</title>
<ellipse fill="none" stroke="#000000" cx="600.5404" cy="-105" rx="36.2938" ry="18"/>
<text text-anchor="middle" x="600.5404" y="-101.3" font-family="Times,serif" font-size="14.00" fill="#000000">email</text>
</g>
<!-- administrative entity -->
<g id="node2" class="node">
<title>administrative entity</title>
<ellipse fill="none" stroke="#000000" cx="108.5404" cy="-18" rx="108.5808" ry="18"/>
<text text-anchor="middle" x="108.5404" y="-14.3" font-family="Times,serif" font-size="14.00" fill="#000000">administrative entity</text>
</g>
<!-- email&#45;&gt;administrative entity -->
<g id="edge1" class="edge">
<title>email&#45;&gt;administrative entity</title>
<path fill="none" stroke="#000000" d="M565.0904,-100.6658C516.3695,-94.5383 426.0463,-82.5662 349.5404,-69 293.0271,-58.9789 229.5341,-45.4487 181.9106,-34.8426"/>
<polygon fill="#000000" stroke="#000000" points="182.5201,-31.3925 171.9973,-32.6261 180.9926,-38.2239 182.5201,-31.3925"/>
<text text-anchor="middle" x="363.5404" y="-57.8" font-family="Times,serif" font-size="14.00" fill="#000000">is_a</text>
</g>
<!-- id -->
<g id="node3" class="node">
<title>id</title>
<ellipse fill="none" stroke="#0000ff" cx="273.5404" cy="-18" rx="38.1938" ry="18"/>
<text text-anchor="middle" x="273.5404" y="-14.3" font-family="Times,serif" font-size="14.00" fill="#000000">string</text>
</g>
<!-- email&#45;&gt;id -->
<g id="edge2" class="edge">
<title>email&#45;&gt;id</title>
<path fill="none" stroke="#0000ff" d="M566.4184,-98.4534C513.1772,-87.8246 407.4338,-65.0463 320.5404,-36 317.9494,-35.1339 315.2903,-34.2109 312.6182,-33.2577"/>
<polygon fill="#0000ff" stroke="#0000ff" points="313.5783,-29.8819 302.9846,-29.7223 311.1666,-36.4533 313.5783,-29.8819"/>
<text text-anchor="middle" x="442.5404" y="-57.8" font-family="Times,serif" font-size="14.00" fill="#000000">id</text>
</g>
<!-- archived -->
<g id="node4" class="node">
<title>archived</title>
<ellipse fill="none" stroke="#0000ff" cx="376.5404" cy="-18" rx="46.5926" ry="18"/>
<text text-anchor="middle" x="376.5404" y="-14.3" font-family="Times,serif" font-size="14.00" fill="#000000">boolean</text>
</g>
<!-- email&#45;&gt;archived -->
<g id="edge3" class="edge">
<title>email&#45;&gt;archived</title>
<path fill="none" stroke="#0000ff" d="M568.7117,-96.1395C545.6365,-89.4289 513.8245,-79.5827 486.5404,-69 462.0332,-59.4944 435.2612,-47.1272 414.2653,-36.9521"/>
<polygon fill="#0000ff" stroke="#0000ff" points="415.575,-33.6965 405.0538,-32.4494 412.5009,-39.9854 415.575,-33.6965"/>
<text text-anchor="middle" x="518.0404" y="-57.8" font-family="Times,serif" font-size="14.00" fill="#000000">archived</text>
</g>
<!-- description -->
<g id="node5" class="node">
<title>description</title>
<ellipse fill="none" stroke="#0000ff" cx="516.5404" cy="-18" rx="75.2868" ry="18"/>
<text text-anchor="middle" x="516.5404" y="-14.3" font-family="Times,serif" font-size="14.00" fill="#000000">narrative text</text>
</g>
<!-- email&#45;&gt;description -->
<g id="edge4" class="edge">
<title>email&#45;&gt;description</title>
<path fill="none" stroke="#0000ff" d="M584.7406,-88.636C572.3567,-75.8097 554.9128,-57.7429 540.7671,-43.092"/>
<polygon fill="#0000ff" stroke="#0000ff" points="543.1786,-40.5507 533.7148,-35.7878 538.1428,-45.4129 543.1786,-40.5507"/>
<text text-anchor="middle" x="605.5404" y="-57.8" font-family="Times,serif" font-size="14.00" fill="#000000">description</text>
</g>
<!-- note -->
<g id="node6" class="node">
<title>note</title>
<ellipse fill="none" stroke="#0000ff" cx="685.5404" cy="-18" rx="75.2868" ry="18"/>
<text text-anchor="middle" x="685.5404" y="-14.3" font-family="Times,serif" font-size="14.00" fill="#000000">narrative text</text>
</g>
<!-- email&#45;&gt;note -->
<g id="edge5" class="edge">
<title>email&#45;&gt;note</title>
<path fill="none" stroke="#0000ff" d="M623.5061,-90.9271C632.4916,-84.8156 642.5392,-77.1838 650.5404,-69 657.5971,-61.7821 664.1905,-52.9887 669.7094,-44.75"/>
<polygon fill="#0000ff" stroke="#0000ff" points="672.7876,-46.4339 675.2473,-36.1286 666.8979,-42.6507 672.7876,-46.4339"/>
<text text-anchor="middle" x="679.5404" y="-57.8" font-family="Times,serif" font-size="14.00" fill="#000000">note</text>
</g>
<!-- category -->
<g id="node7" class="node">
<title>category</title>
<ellipse fill="none" stroke="#000000" cx="830.5404" cy="-18" rx="51.9908" ry="18"/>
<text text-anchor="middle" x="830.5404" y="-14.3" font-family="Times,serif" font-size="14.00" fill="#000000">category</text>
</g>
<!-- email&#45;&gt;category -->
<g id="edge6" class="edge">
<title>email&#45;&gt;category</title>
<path fill="none" stroke="#0000ff" d="M629.0095,-93.3195C634.4743,-91.1606 640.1677,-88.968 645.5404,-87 669.295,-78.2985 675.7457,-77.5916 699.5404,-69 728.9531,-58.3799 761.7401,-45.6146 787.1553,-35.5121"/>
<polygon fill="#0000ff" stroke="#0000ff" points="788.5204,-38.7358 796.5126,-31.7805 785.9275,-32.2337 788.5204,-38.7358"/>
<text text-anchor="middle" x="771.5404" y="-57.8" font-family="Times,serif" font-size="14.00" fill="#000000">category</text>
</g>
<!-- name -->
<g id="node9" class="node">
<title>name</title>
<ellipse fill="none" stroke="#0000ff" cx="957.5404" cy="-18" rx="56.59" ry="18"/>
<text text-anchor="middle" x="957.5404" y="-14.3" font-family="Times,serif" font-size="14.00" fill="#000000">label type</text>
</g>
<!-- email&#45;&gt;name -->
<g id="edge7" class="edge">
<title>email&#45;&gt;name</title>
<path fill="none" stroke="#0000ff" d="M627.7564,-92.7533C633.5333,-90.5411 639.6638,-88.4729 645.5404,-87 715.8099,-69.3876 736.8307,-84.7525 807.5404,-69 843.8423,-60.9128 883.6427,-47.1408 913.1185,-35.9454"/>
<polygon fill="#0000ff" stroke="#0000ff" points="914.6226,-39.1168 922.6988,-32.2594 912.109,-32.5837 914.6226,-39.1168"/>
<text text-anchor="middle" x="878.5404" y="-57.8" font-family="Times,serif" font-size="14.00" fill="#000000">name</text>
</g>
<!-- enabled -->
<g id="node10" class="node">
<title>enabled</title>
<ellipse fill="none" stroke="#0000ff" cx="1078.5404" cy="-18" rx="46.5926" ry="18"/>
<text text-anchor="middle" x="1078.5404" y="-14.3" font-family="Times,serif" font-size="14.00" fill="#000000">boolean</text>
</g>
<!-- email&#45;&gt;enabled -->
<g id="edge8" class="edge">
<title>email&#45;&gt;enabled</title>
<path fill="none" stroke="#0000ff" d="M627.231,-92.751C633.1504,-90.4811 639.471,-88.3905 645.5404,-87 757.1508,-61.4298 789.6521,-88.156 902.5404,-69 957.4967,-59.6745 970.1463,-52.0073 1023.5404,-36 1026.8155,-35.0181 1030.1918,-33.9792 1033.5845,-32.9158"/>
<polygon fill="#0000ff" stroke="#0000ff" points="1034.6516,-36.2492 1043.1189,-29.8809 1032.5283,-29.579 1034.6516,-36.2492"/>
<text text-anchor="middle" x="995.0404" y="-57.8" font-family="Times,serif" font-size="14.00" fill="#000000">enabled</text>
</g>
<!-- named thing_category -->
<g id="node8" class="node">
<title>named thing_category</title>
<ellipse fill="none" stroke="#0000ff" cx="724.5404" cy="-105" rx="69.5877" ry="18"/>
<text text-anchor="middle" x="724.5404" y="-101.3" font-family="Times,serif" font-size="14.00" fill="#000000">named thing</text>
</g>
</g>
</svg>
