<?xml version="1.0" encoding="UTF-8" standalone="no"?>
<!DOCTYPE svg PUBLIC "-//W3C//DTD SVG 1.1//EN"
 "http://www.w3.org/Graphics/SVG/1.1/DTD/svg11.dtd">
<!-- Generated by graphviz version 2.40.1 (20161225.0304)
 -->
<!-- Title: %3 Pages: 1 -->
<svg width="777pt" height="131pt"
 viewBox="0.00 0.00 776.74 131.00" xmlns="http://www.w3.org/2000/svg" xmlns:xlink="http://www.w3.org/1999/xlink">
<g id="graph0" class="graph" transform="scale(1 1) rotate(0) translate(4 127)">
<title>%3</title>
<polygon fill="#ffffff" stroke="transparent" points="-4,4 -4,-127 772.7399,-127 772.7399,4 -4,4"/>
<!-- entity -->
<g id="node1" class="node">
<title>entity</title>
<ellipse fill="none" stroke="#000000" cx="328.3466" cy="-105" rx="38.1938" ry="18"/>
<text text-anchor="middle" x="328.3466" y="-101.3" font-family="Times,serif" font-size="14.00" fill="#000000">entity</text>
</g>
<!-- id -->
<g id="node2" class="node">
<title>id</title>
<ellipse fill="none" stroke="#0000ff" cx="38.3466" cy="-18" rx="38.1938" ry="18"/>
<text text-anchor="middle" x="38.3466" y="-14.3" font-family="Times,serif" font-size="14.00" fill="#000000">string</text>
</g>
<!-- entity&#45;&gt;id -->
<g id="edge1" class="edge">
<title>entity&#45;&gt;id</title>
<path fill="none" stroke="#0000ff" d="M294.2483,-96.3442C246.9691,-84.1103 159.0004,-60.5068 85.3466,-36 82.7544,-35.1375 80.0944,-34.2172 77.4217,-33.2661"/>
<polygon fill="#0000ff" stroke="#0000ff" points="78.3803,-29.8898 67.7866,-29.735 75.9716,-36.4623 78.3803,-29.8898"/>
<text text-anchor="middle" x="199.3466" y="-57.8" font-family="Times,serif" font-size="14.00" fill="#000000">id</text>
</g>
<!-- name -->
<g id="node3" class="node">
<title>name</title>
<ellipse fill="none" stroke="#0000ff" cx="151.3466" cy="-18" rx="56.59" ry="18"/>
<text text-anchor="middle" x="151.3466" y="-14.3" font-family="Times,serif" font-size="14.00" fill="#000000">label type</text>
</g>
<!-- entity&#45;&gt;name -->
<g id="edge2" class="edge">
<title>entity&#45;&gt;name</title>
<path fill="none" stroke="#0000ff" d="M301.218,-92.1078C286.9451,-85.2923 269.17,-76.7528 253.3466,-69 232.5672,-58.8189 209.5012,-47.304 190.5675,-37.7953"/>
<polygon fill="#0000ff" stroke="#0000ff" points="192.1394,-34.6682 181.6328,-33.3031 188.995,-40.9222 192.1394,-34.6682"/>
<text text-anchor="middle" x="273.3466" y="-57.8" font-family="Times,serif" font-size="14.00" fill="#000000">name</text>
</g>
<!-- enabled -->
<g id="node4" class="node">
<title>enabled</title>
<ellipse fill="none" stroke="#0000ff" cx="272.3466" cy="-18" rx="46.5926" ry="18"/>
<text text-anchor="middle" x="272.3466" y="-14.3" font-family="Times,serif" font-size="14.00" fill="#000000">boolean</text>
</g>
<!-- entity&#45;&gt;enabled -->
<g id="edge3" class="edge">
<title>entity&#45;&gt;enabled</title>
<path fill="none" stroke="#0000ff" d="M317.0142,-87.3943C309.0442,-75.0124 298.2416,-58.2297 289.2563,-44.2704"/>
<polygon fill="#0000ff" stroke="#0000ff" points="292.0177,-42.0938 283.6622,-35.5796 286.1317,-45.8826 292.0177,-42.0938"/>
<text text-anchor="middle" x="332.8466" y="-57.8" font-family="Times,serif" font-size="14.00" fill="#000000">enabled</text>
</g>
<!-- archived -->
<g id="node5" class="node">
<title>archived</title>
<ellipse fill="none" stroke="#0000ff" cx="384.3466" cy="-18" rx="46.5926" ry="18"/>
<text text-anchor="middle" x="384.3466" y="-14.3" font-family="Times,serif" font-size="14.00" fill="#000000">boolean</text>
</g>
<!-- entity&#45;&gt;archived -->
<g id="edge4" class="edge">
<title>entity&#45;&gt;archived</title>
<path fill="none" stroke="#0000ff" d="M345.9211,-88.8301C351.6471,-82.9627 357.7152,-76.0376 362.3466,-69 367.0429,-61.8637 371.1236,-53.5588 374.4522,-45.7487"/>
<polygon fill="#0000ff" stroke="#0000ff" points="377.7892,-46.8304 378.256,-36.2458 371.2904,-44.229 377.7892,-46.8304"/>
<text text-anchor="middle" x="402.8466" y="-57.8" font-family="Times,serif" font-size="14.00" fill="#000000">archived</text>
</g>
<!-- description -->
<g id="node6" class="node">
<title>description</title>
<ellipse fill="none" stroke="#0000ff" cx="524.3466" cy="-18" rx="75.2868" ry="18"/>
<text text-anchor="middle" x="524.3466" y="-14.3" font-family="Times,serif" font-size="14.00" fill="#000000">narrative text</text>
</g>
<!-- entity&#45;&gt;description -->
<g id="edge5" class="edge">
<title>entity&#45;&gt;description</title>
<path fill="none" stroke="#0000ff" d="M361.7915,-96.1256C383.9693,-89.7419 413.4587,-80.2872 438.3466,-69 456.0548,-60.9689 474.7317,-50.2016 490.1391,-40.6302"/>
<polygon fill="#0000ff" stroke="#0000ff" points="492.213,-43.4601 498.801,-35.1626 488.4765,-37.5407 492.213,-43.4601"/>
<text text-anchor="middle" x="506.3466" y="-57.8" font-family="Times,serif" font-size="14.00" fill="#000000">description</text>
</g>
<!-- note -->
<g id="node7" class="node">
<title>note</title>
<ellipse fill="none" stroke="#0000ff" cx="693.3466" cy="-18" rx="75.2868" ry="18"/>
<text text-anchor="middle" x="693.3466" y="-14.3" font-family="Times,serif" font-size="14.00" fill="#000000">narrative text</text>
</g>
<!-- entity&#45;&gt;note -->
<g id="edge6" class="edge">
<title>entity&#45;&gt;note</title>
<path fill="none" stroke="#0000ff" d="M365.8709,-101.088C410.5425,-95.9399 487.1711,-85.553 551.3466,-69 583.6788,-60.6605 619.0195,-47.9812 646.3563,-37.3517"/>
<polygon fill="#0000ff" stroke="#0000ff" points="647.6483,-40.6046 655.6738,-33.6878 645.0866,-34.0901 647.6483,-40.6046"/>
<text text-anchor="middle" x="614.3466" y="-57.8" font-family="Times,serif" font-size="14.00" fill="#000000">note</text>
</g>
</g>
</svg>
