<?xml version="1.0" encoding="UTF-8" standalone="no"?>
<!DOCTYPE svg PUBLIC "-//W3C//DTD SVG 1.1//EN"
 "http://www.w3.org/Graphics/SVG/1.1/DTD/svg11.dtd">
<!-- Generated by graphviz version 2.40.1 (20161225.0304)
 -->
<!-- Title: %3 Pages: 1 -->
<svg width="1055pt" height="131pt"
 viewBox="0.00 0.00 1055.34 131.00" xmlns="http://www.w3.org/2000/svg" xmlns:xlink="http://www.w3.org/1999/xlink">
<g id="graph0" class="graph" transform="scale(1 1) rotate(0) translate(4 127)">
<title>%3</title>
<polygon fill="#ffffff" stroke="transparent" points="-4,4 -4,-127 1051.3397,-127 1051.3397,4 -4,4"/>
<!-- environment -->
<g id="node1" class="node">
<title>environment</title>
<ellipse fill="none" stroke="#000000" cx="541.5438" cy="-105" rx="69.5877" ry="18"/>
<text text-anchor="middle" x="541.5438" y="-101.3" font-family="Times,serif" font-size="14.00" fill="#000000">environment</text>
</g>
<!-- named thing -->
<g id="node2" class="node">
<title>named thing</title>
<ellipse fill="none" stroke="#000000" cx="69.5438" cy="-18" rx="69.5877" ry="18"/>
<text text-anchor="middle" x="69.5438" y="-14.3" font-family="Times,serif" font-size="14.00" fill="#000000">named thing</text>
</g>
<!-- environment&#45;&gt;named thing -->
<g id="edge1" class="edge">
<title>environment&#45;&gt;named thing</title>
<path fill="none" stroke="#000000" d="M476.3786,-98.6265C420.8474,-92.6664 339.0664,-82.6358 268.5438,-69 219.7996,-59.5751 165.2262,-45.3205 125.5754,-34.2753"/>
<polygon fill="#000000" stroke="#000000" points="126.4026,-30.8723 115.8289,-31.5412 124.5119,-37.6121 126.4026,-30.8723"/>
<text text-anchor="middle" x="282.5438" y="-57.8" font-family="Times,serif" font-size="14.00" fill="#000000">is_a</text>
</g>
<!-- description -->
<g id="node3" class="node">
<title>description</title>
<ellipse fill="none" stroke="#0000ff" cx="232.5438" cy="-18" rx="75.2868" ry="18"/>
<text text-anchor="middle" x="232.5438" y="-14.3" font-family="Times,serif" font-size="14.00" fill="#000000">narrative text</text>
</g>
<!-- environment&#45;&gt;description -->
<g id="edge2" class="edge">
<title>environment&#45;&gt;description</title>
<path fill="none" stroke="#0000ff" d="M476.4856,-98.616C435.1055,-93.3581 380.8002,-84.2221 334.5438,-69 312.079,-61.6072 288.3707,-50.0095 269.4706,-39.7405"/>
<polygon fill="#0000ff" stroke="#0000ff" points="271.0488,-36.6137 260.6051,-34.8304 267.6572,-42.7372 271.0488,-36.6137"/>
<text text-anchor="middle" x="375.5438" y="-57.8" font-family="Times,serif" font-size="14.00" fill="#000000">description</text>
</g>
<!-- category -->
<g id="node4" class="node">
<title>category</title>
<ellipse fill="none" stroke="#000000" cx="377.5438" cy="-18" rx="51.9908" ry="18"/>
<text text-anchor="middle" x="377.5438" y="-14.3" font-family="Times,serif" font-size="14.00" fill="#000000">category</text>
</g>
<!-- environment&#45;&gt;category -->
<g id="edge3" class="edge">
<title>environment&#45;&gt;category</title>
<path fill="none" stroke="#0000ff" d="M494.8731,-91.425C477.8802,-85.6133 458.8513,-78.0582 442.5438,-69 428.8213,-61.3776 414.9527,-50.9521 403.5706,-41.513"/>
<polygon fill="#0000ff" stroke="#0000ff" points="405.6445,-38.6821 395.7598,-34.8684 401.1088,-44.0139 405.6445,-38.6821"/>
<text text-anchor="middle" x="474.5438" y="-57.8" font-family="Times,serif" font-size="14.00" fill="#000000">category</text>
</g>
<!-- id -->
<g id="node6" class="node">
<title>id</title>
<ellipse fill="none" stroke="#0000ff" cx="485.5438" cy="-18" rx="38.1938" ry="18"/>
<text text-anchor="middle" x="485.5438" y="-14.3" font-family="Times,serif" font-size="14.00" fill="#000000">string</text>
</g>
<!-- environment&#45;&gt;id -->
<g id="edge4" class="edge">
<title>environment&#45;&gt;id</title>
<path fill="none" stroke="#0000ff" d="M529.9406,-86.9735C521.9515,-74.5619 511.2126,-57.8782 502.2977,-44.0284"/>
<polygon fill="#0000ff" stroke="#0000ff" points="505.1056,-41.924 496.7501,-35.4097 499.2195,-45.7127 505.1056,-41.924"/>
<text text-anchor="middle" x="524.5438" y="-57.8" font-family="Times,serif" font-size="14.00" fill="#000000">id</text>
</g>
<!-- name -->
<g id="node7" class="node">
<title>name</title>
<ellipse fill="none" stroke="#0000ff" cx="598.5438" cy="-18" rx="56.59" ry="18"/>
<text text-anchor="middle" x="598.5438" y="-14.3" font-family="Times,serif" font-size="14.00" fill="#000000">label type</text>
</g>
<!-- environment&#45;&gt;name -->
<g id="edge5" class="edge">
<title>environment&#45;&gt;name</title>
<path fill="none" stroke="#0000ff" d="M553.3543,-86.9735C561.4326,-74.6435 572.273,-58.0975 581.3114,-44.3021"/>
<polygon fill="#0000ff" stroke="#0000ff" points="584.3909,-45.9884 586.9435,-35.7057 578.5356,-42.1522 584.3909,-45.9884"/>
<text text-anchor="middle" x="593.5438" y="-57.8" font-family="Times,serif" font-size="14.00" fill="#000000">name</text>
</g>
<!-- note -->
<g id="node8" class="node">
<title>note</title>
<ellipse fill="none" stroke="#0000ff" cx="748.5438" cy="-18" rx="75.2868" ry="18"/>
<text text-anchor="middle" x="748.5438" y="-14.3" font-family="Times,serif" font-size="14.00" fill="#000000">narrative text</text>
</g>
<!-- environment&#45;&gt;note -->
<g id="edge6" class="edge">
<title>environment&#45;&gt;note</title>
<path fill="none" stroke="#0000ff" d="M578.0748,-89.6464C612.3821,-75.2274 663.8934,-53.5777 701.31,-37.8519"/>
<polygon fill="#0000ff" stroke="#0000ff" points="703.1181,-40.8886 710.9808,-33.7873 700.4058,-34.4354 703.1181,-40.8886"/>
<text text-anchor="middle" x="673.5438" y="-57.8" font-family="Times,serif" font-size="14.00" fill="#000000">note</text>
</g>
<!-- enabled -->
<g id="node9" class="node">
<title>enabled</title>
<ellipse fill="none" stroke="#0000ff" cx="888.5438" cy="-18" rx="46.5926" ry="18"/>
<text text-anchor="middle" x="888.5438" y="-14.3" font-family="Times,serif" font-size="14.00" fill="#000000">boolean</text>
</g>
<!-- environment&#45;&gt;enabled -->
<g id="edge7" class="edge">
<title>environment&#45;&gt;enabled</title>
<path fill="none" stroke="#0000ff" d="M593.4545,-92.9249C670.7933,-74.8993 809.6633,-42.3828 832.5438,-36 836.0973,-35.0087 839.763,-33.9388 843.4385,-32.8321"/>
<polygon fill="#0000ff" stroke="#0000ff" points="844.5962,-36.1378 853.1203,-29.8457 842.5329,-29.4488 844.5962,-36.1378"/>
<text text-anchor="middle" x="785.0438" y="-57.8" font-family="Times,serif" font-size="14.00" fill="#000000">enabled</text>
</g>
<!-- archived -->
<g id="node10" class="node">
<title>archived</title>
<ellipse fill="none" stroke="#0000ff" cx="1000.5438" cy="-18" rx="46.5926" ry="18"/>
<text text-anchor="middle" x="1000.5438" y="-14.3" font-family="Times,serif" font-size="14.00" fill="#000000">boolean</text>
</g>
<!-- environment&#45;&gt;archived -->
<g id="edge8" class="edge">
<title>environment&#45;&gt;archived</title>
<path fill="none" stroke="#0000ff" d="M591.6966,-92.3682C600.9153,-90.3485 610.4867,-88.4498 619.5438,-87 706.7959,-73.033 730.4915,-84.1619 817.5438,-69 874.9977,-58.9933 888.5384,-52.2629 944.5438,-36 947.9318,-35.0162 951.4253,-33.9701 954.9339,-32.8965"/>
<polygon fill="#0000ff" stroke="#0000ff" points="956.2814,-36.1427 964.7877,-29.8266 954.1992,-29.4595 956.2814,-36.1427"/>
<text text-anchor="middle" x="916.0438" y="-57.8" font-family="Times,serif" font-size="14.00" fill="#000000">archived</text>
</g>
<!-- named thing_category -->
<g id="node5" class="node">
<title>named thing_category</title>
<ellipse fill="none" stroke="#0000ff" cx="698.5438" cy="-105" rx="69.5877" ry="18"/>
<text text-anchor="middle" x="698.5438" y="-101.3" font-family="Times,serif" font-size="14.00" fill="#000000">named thing</text>
</g>
</g>
</svg>
