<?xml version="1.0" encoding="UTF-8" standalone="no"?>
<!DOCTYPE svg PUBLIC "-//W3C//DTD SVG 1.1//EN"
 "http://www.w3.org/Graphics/SVG/1.1/DTD/svg11.dtd">
<!-- Generated by graphviz version 2.40.1 (20161225.0304)
 -->
<!-- Title: %3 Pages: 1 -->
<svg width="984pt" height="131pt"
 viewBox="0.00 0.00 983.54 131.00" xmlns="http://www.w3.org/2000/svg" xmlns:xlink="http://www.w3.org/1999/xlink">
<g id="graph0" class="graph" transform="scale(1 1) rotate(0) translate(4 127)">
<title>%3</title>
<polygon fill="#ffffff" stroke="transparent" points="-4,4 -4,-127 979.5404,-127 979.5404,4 -4,4"/>
<!-- homogeneity -->
<g id="node1" class="node">
<title>homogeneity</title>
<ellipse fill="none" stroke="#000000" cx="444.9954" cy="-105" rx="70.6878" ry="18"/>
<text text-anchor="middle" x="444.9954" y="-101.3" font-family="Times,serif" font-size="14.00" fill="#000000">homogeneity</text>
</g>
<!-- attribute -->
<g id="node2" class="node">
<title>attribute</title>
<ellipse fill="none" stroke="#000000" cx="51.9954" cy="-18" rx="51.9908" ry="18"/>
<text text-anchor="middle" x="51.9954" y="-14.3" font-family="Times,serif" font-size="14.00" fill="#000000">attribute</text>
</g>
<!-- homogeneity&#45;&gt;attribute -->
<g id="edge1" class="edge">
<title>homogeneity&#45;&gt;attribute</title>
<path fill="none" stroke="#000000" d="M377.6691,-99.3613C326.0399,-94.1018 253.3037,-84.6596 190.9954,-69 157.6908,-60.6297 121.2927,-47.1068 94.0995,-36.0885"/>
<polygon fill="#000000" stroke="#000000" points="95.1003,-32.716 84.5202,-32.1566 92.4422,-39.1917 95.1003,-32.716"/>
<text text-anchor="middle" x="204.9954" y="-57.8" font-family="Times,serif" font-size="14.00" fill="#000000">is_a</text>
</g>
<!-- name -->
<g id="node3" class="node">
<title>name</title>
<ellipse fill="none" stroke="#000000" cx="157.9954" cy="-18" rx="36.2938" ry="18"/>
<text text-anchor="middle" x="157.9954" y="-14.3" font-family="Times,serif" font-size="14.00" fill="#000000">name</text>
</g>
<!-- homogeneity&#45;&gt;name -->
<g id="edge2" class="edge">
<title>homogeneity&#45;&gt;name</title>
<path fill="none" stroke="#0000ff" d="M380.3535,-97.4485C343.2683,-91.947 296.2296,-82.9627 255.9954,-69 232.7935,-60.9481 208.2841,-48.1918 189.5798,-37.4515"/>
<polygon fill="#0000ff" stroke="#0000ff" points="191.294,-34.3994 180.8952,-32.3705 187.7591,-40.4413 191.294,-34.3994"/>
<text text-anchor="middle" x="275.9954" y="-57.8" font-family="Times,serif" font-size="14.00" fill="#000000">name</text>
</g>
<!-- has attribute type -->
<g id="node5" class="node">
<title>has attribute type</title>
<ellipse fill="none" stroke="#0000ff" cx="289.9954" cy="-18" rx="77.1866" ry="18"/>
<text text-anchor="middle" x="289.9954" y="-14.3" font-family="Times,serif" font-size="14.00" fill="#000000">ontology class</text>
</g>
<!-- homogeneity&#45;&gt;has attribute type -->
<g id="edge3" class="edge">
<title>homogeneity&#45;&gt;has attribute type</title>
<path fill="none" stroke="#0000ff" d="M386.542,-94.8294C355.5897,-88.4094 321.6209,-79.3795 309.9954,-69 303.2645,-62.9905 298.7757,-54.4305 295.7915,-46.036"/>
<polygon fill="#0000ff" stroke="#0000ff" points="299.1379,-45.0096 292.9354,-36.4201 292.4276,-47.0028 299.1379,-45.0096"/>
<text text-anchor="middle" x="374.9954" y="-57.8" font-family="Times,serif" font-size="14.00" fill="#000000">has attribute type</text>
</g>
<!-- has quantitative value -->
<g id="node6" class="node">
<title>has quantitative value</title>
<ellipse fill="none" stroke="#0000ff" cx="462.9954" cy="-18" rx="77.1866" ry="18"/>
<text text-anchor="middle" x="462.9954" y="-14.3" font-family="Times,serif" font-size="14.00" fill="#000000">quantity value</text>
</g>
<!-- homogeneity&#45;&gt;has quantitative value -->
<g id="edge4" class="edge">
<title>homogeneity&#45;&gt;has quantitative value</title>
<path fill="none" stroke="#0000ff" d="M443.5187,-86.8324C443.1747,-76.9908 443.4877,-64.6911 445.9954,-54 446.6613,-51.1611 447.5694,-48.2803 448.6217,-45.4483"/>
<polygon fill="#0000ff" stroke="#0000ff" points="451.8886,-46.7107 452.6133,-36.1407 445.4552,-43.9517 451.8886,-46.7107"/>
<text text-anchor="middle" x="525.9954" y="-57.8" font-family="Times,serif" font-size="14.00" fill="#000000">has quantitative value</text>
</g>
<!-- has qualitative value -->
<g id="node7" class="node">
<title>has qualitative value</title>
<ellipse fill="none" stroke="#0000ff" cx="627.9954" cy="-18" rx="69.5877" ry="18"/>
<text text-anchor="middle" x="627.9954" y="-14.3" font-family="Times,serif" font-size="14.00" fill="#000000">named thing</text>
</g>
<!-- homogeneity&#45;&gt;has qualitative value -->
<g id="edge5" class="edge">
<title>homogeneity&#45;&gt;has qualitative value</title>
<path fill="none" stroke="#0000ff" d="M497.6754,-92.9358C506.462,-90.9411 515.4843,-88.9037 523.9954,-87 560.4078,-78.8554 577.2141,-92.7452 605.9954,-69 613.1593,-63.0897 618.0467,-54.4079 621.3565,-45.8765"/>
<polygon fill="#0000ff" stroke="#0000ff" points="624.7703,-46.6984 624.5592,-36.1057 618.1185,-44.518 624.7703,-46.6984"/>
<text text-anchor="middle" x="692.4954" y="-57.8" font-family="Times,serif" font-size="14.00" fill="#000000">has qualitative value</text>
</g>
<!-- iri -->
<g id="node8" class="node">
<title>iri</title>
<ellipse fill="none" stroke="#0000ff" cx="799.9954" cy="-18" rx="44.393" ry="18"/>
<text text-anchor="middle" x="799.9954" y="-14.3" font-family="Times,serif" font-size="14.00" fill="#000000">iri type</text>
</g>
<!-- homogeneity&#45;&gt;iri -->
<g id="edge6" class="edge">
<title>homogeneity&#45;&gt;iri</title>
<path fill="none" stroke="#0000ff" d="M495.3523,-92.3318C504.8208,-90.2903 514.6742,-88.3934 523.9954,-87 578.4251,-78.8637 724.4626,-98.3852 770.9954,-69 779.6882,-63.5105 786.0345,-54.4214 790.5333,-45.4245"/>
<polygon fill="#0000ff" stroke="#0000ff" points="793.7518,-46.7999 794.5736,-36.237 787.3441,-43.982 793.7518,-46.7999"/>
<text text-anchor="middle" x="793.9954" y="-57.8" font-family="Times,serif" font-size="14.00" fill="#000000">iri</text>
</g>
<!-- source -->
<g id="node9" class="node">
<title>source</title>
<ellipse fill="none" stroke="#0000ff" cx="918.9954" cy="-18" rx="56.59" ry="18"/>
<text text-anchor="middle" x="918.9954" y="-14.3" font-family="Times,serif" font-size="14.00" fill="#000000">label type</text>
</g>
<!-- homogeneity&#45;&gt;source -->
<g id="edge7" class="edge">
<title>homogeneity&#45;&gt;source</title>
<path fill="none" stroke="#0000ff" d="M495.3422,-92.2632C504.8117,-90.2284 514.668,-88.3514 523.9954,-87 648.286,-68.9922 684.1225,-99.3222 805.9954,-69 832.5592,-62.3909 860.6185,-49.7614 882.1313,-38.7246"/>
<polygon fill="#0000ff" stroke="#0000ff" points="883.9959,-41.6988 891.2257,-33.9541 880.7442,-35.4999 883.9959,-41.6988"/>
<text text-anchor="middle" x="872.4954" y="-57.8" font-family="Times,serif" font-size="14.00" fill="#000000">source</text>
</g>
<!-- attribute_name -->
<g id="node4" class="node">
<title>attribute_name</title>
<ellipse fill="none" stroke="#0000ff" cx="589.9954" cy="-105" rx="56.59" ry="18"/>
<text text-anchor="middle" x="589.9954" y="-101.3" font-family="Times,serif" font-size="14.00" fill="#000000">label type</text>
</g>
</g>
</svg>
