<?xml version="1.0" encoding="UTF-8" standalone="no"?>
<!DOCTYPE svg PUBLIC "-//W3C//DTD SVG 1.1//EN"
 "http://www.w3.org/Graphics/SVG/1.1/DTD/svg11.dtd">
<!-- Generated by graphviz version 2.40.1 (20161225.0304)
 -->
<!-- Title: %3 Pages: 1 -->
<svg width="1134pt" height="131pt"
 viewBox="0.00 0.00 1133.54 131.00" xmlns="http://www.w3.org/2000/svg" xmlns:xlink="http://www.w3.org/1999/xlink">
<g id="graph0" class="graph" transform="scale(1 1) rotate(0) translate(4 127)">
<title>%3</title>
<polygon fill="#ffffff" stroke="transparent" points="-4,4 -4,-127 1129.5358,-127 1129.5358,4 -4,4"/>
<!-- hub -->
<g id="node1" class="node">
<title>hub</title>
<ellipse fill="none" stroke="#000000" cx="563.5404" cy="-105" rx="28.6953" ry="18"/>
<text text-anchor="middle" x="563.5404" y="-101.3" font-family="Times,serif" font-size="14.00" fill="#000000">hub</text>
</g>
<!-- administrative entity -->
<g id="node2" class="node">
<title>administrative entity</title>
<ellipse fill="none" stroke="#000000" cx="108.5404" cy="-18" rx="108.5808" ry="18"/>
<text text-anchor="middle" x="108.5404" y="-14.3" font-family="Times,serif" font-size="14.00" fill="#000000">administrative entity</text>
</g>
<!-- hub&#45;&gt;administrative entity -->
<g id="edge1" class="edge">
<title>hub&#45;&gt;administrative entity</title>
<path fill="none" stroke="#000000" d="M535.6402,-100.7254C494.571,-94.3432 415.4674,-81.708 348.5404,-69 292.8653,-58.4285 230.241,-45.0713 182.926,-34.6787"/>
<polygon fill="#000000" stroke="#000000" points="183.5887,-31.2408 173.0699,-32.5081 182.0831,-38.077 183.5887,-31.2408"/>
<text text-anchor="middle" x="362.5404" y="-57.8" font-family="Times,serif" font-size="14.00" fill="#000000">is_a</text>
</g>
<!-- id -->
<g id="node3" class="node">
<title>id</title>
<ellipse fill="none" stroke="#0000ff" cx="273.5404" cy="-18" rx="38.1938" ry="18"/>
<text text-anchor="middle" x="273.5404" y="-14.3" font-family="Times,serif" font-size="14.00" fill="#000000">string</text>
</g>
<!-- hub&#45;&gt;id -->
<g id="edge2" class="edge">
<title>hub&#45;&gt;id</title>
<path fill="none" stroke="#0000ff" d="M536.6947,-98.2142C491.6471,-86.6414 398.1473,-61.8222 320.5404,-36 317.9482,-35.1375 315.2882,-34.2172 312.6155,-33.2661"/>
<polygon fill="#0000ff" stroke="#0000ff" points="313.5741,-29.8898 302.9804,-29.735 311.1654,-36.4623 313.5741,-29.8898"/>
<text text-anchor="middle" x="434.5404" y="-57.8" font-family="Times,serif" font-size="14.00" fill="#000000">id</text>
</g>
<!-- name -->
<g id="node4" class="node">
<title>name</title>
<ellipse fill="none" stroke="#0000ff" cx="386.5404" cy="-18" rx="56.59" ry="18"/>
<text text-anchor="middle" x="386.5404" y="-14.3" font-family="Times,serif" font-size="14.00" fill="#000000">label type</text>
</g>
<!-- hub&#45;&gt;name -->
<g id="edge3" class="edge">
<title>hub&#45;&gt;name</title>
<path fill="none" stroke="#0000ff" d="M540.5166,-94.0666C525.6545,-86.9798 505.9202,-77.5154 488.5404,-69 467.761,-58.8189 444.6949,-47.304 425.7613,-37.7953"/>
<polygon fill="#0000ff" stroke="#0000ff" points="427.3332,-34.6682 416.8266,-33.3031 424.1887,-40.9222 427.3332,-34.6682"/>
<text text-anchor="middle" x="508.5404" y="-57.8" font-family="Times,serif" font-size="14.00" fill="#000000">name</text>
</g>
<!-- enabled -->
<g id="node5" class="node">
<title>enabled</title>
<ellipse fill="none" stroke="#0000ff" cx="507.5404" cy="-18" rx="46.5926" ry="18"/>
<text text-anchor="middle" x="507.5404" y="-14.3" font-family="Times,serif" font-size="14.00" fill="#000000">boolean</text>
</g>
<!-- hub&#45;&gt;enabled -->
<g id="edge4" class="edge">
<title>hub&#45;&gt;enabled</title>
<path fill="none" stroke="#0000ff" d="M552.743,-88.2255C544.689,-75.713 533.5345,-58.3838 524.3216,-44.0709"/>
<polygon fill="#0000ff" stroke="#0000ff" points="527.2368,-42.1331 518.8812,-35.6188 521.3507,-45.9219 527.2368,-42.1331"/>
<text text-anchor="middle" x="568.0404" y="-57.8" font-family="Times,serif" font-size="14.00" fill="#000000">enabled</text>
</g>
<!-- archived -->
<g id="node6" class="node">
<title>archived</title>
<ellipse fill="none" stroke="#0000ff" cx="619.5404" cy="-18" rx="46.5926" ry="18"/>
<text text-anchor="middle" x="619.5404" y="-14.3" font-family="Times,serif" font-size="14.00" fill="#000000">boolean</text>
</g>
<!-- hub&#45;&gt;archived -->
<g id="edge5" class="edge">
<title>hub&#45;&gt;archived</title>
<path fill="none" stroke="#0000ff" d="M580.0674,-89.8957C586.0925,-83.8103 592.6254,-76.4685 597.5404,-69 602.2367,-61.8637 606.3174,-53.5588 609.646,-45.7487"/>
<polygon fill="#0000ff" stroke="#0000ff" points="612.9829,-46.8304 613.4498,-36.2458 606.4842,-44.229 612.9829,-46.8304"/>
<text text-anchor="middle" x="638.0404" y="-57.8" font-family="Times,serif" font-size="14.00" fill="#000000">archived</text>
</g>
<!-- description -->
<g id="node7" class="node">
<title>description</title>
<ellipse fill="none" stroke="#0000ff" cx="759.5404" cy="-18" rx="75.2868" ry="18"/>
<text text-anchor="middle" x="759.5404" y="-14.3" font-family="Times,serif" font-size="14.00" fill="#000000">narrative text</text>
</g>
<!-- hub&#45;&gt;description -->
<g id="edge6" class="edge">
<title>hub&#45;&gt;description</title>
<path fill="none" stroke="#0000ff" d="M585.516,-93.3704C590.3812,-91.062 595.5698,-88.799 600.5404,-87 631.9618,-75.6275 642.6146,-81.6585 673.5404,-69 691.8041,-61.5243 710.807,-50.6303 726.2906,-40.8284"/>
<polygon fill="#0000ff" stroke="#0000ff" points="728.4712,-43.5865 734.9682,-35.2175 724.6703,-37.7082 728.4712,-43.5865"/>
<text text-anchor="middle" x="744.5404" y="-57.8" font-family="Times,serif" font-size="14.00" fill="#000000">description</text>
</g>
<!-- note -->
<g id="node8" class="node">
<title>note</title>
<ellipse fill="none" stroke="#0000ff" cx="928.5404" cy="-18" rx="75.2868" ry="18"/>
<text text-anchor="middle" x="928.5404" y="-14.3" font-family="Times,serif" font-size="14.00" fill="#000000">narrative text</text>
</g>
<!-- hub&#45;&gt;note -->
<g id="edge7" class="edge">
<title>hub&#45;&gt;note</title>
<path fill="none" stroke="#0000ff" d="M584.9417,-92.995C589.9294,-90.6512 595.3137,-88.4683 600.5404,-87 681.7758,-64.179 707.2553,-87.6862 789.5404,-69 821.8001,-61.6741 856.7535,-48.825 883.5393,-37.8573"/>
<polygon fill="#0000ff" stroke="#0000ff" points="885.1287,-40.987 893.0182,-33.9154 882.4408,-34.5236 885.1287,-40.987"/>
<text text-anchor="middle" x="856.5404" y="-57.8" font-family="Times,serif" font-size="14.00" fill="#000000">note</text>
</g>
<!-- category -->
<g id="node9" class="node">
<title>category</title>
<ellipse fill="none" stroke="#000000" cx="1073.5404" cy="-18" rx="51.9908" ry="18"/>
<text text-anchor="middle" x="1073.5404" y="-14.3" font-family="Times,serif" font-size="14.00" fill="#000000">category</text>
</g>
<!-- hub&#45;&gt;category -->
<g id="edge8" class="edge">
<title>hub&#45;&gt;category</title>
<path fill="none" stroke="#0000ff" d="M584.91,-92.8792C589.8994,-90.5414 595.2924,-88.3902 600.5404,-87 719.3691,-55.5223 755.0227,-87.5627 876.5404,-69 938.0255,-59.6077 952.4725,-52.1398 1012.5404,-36 1016.3892,-34.9658 1020.3654,-33.8655 1024.3564,-32.7382"/>
<polygon fill="#0000ff" stroke="#0000ff" points="1025.5959,-36.0238 1034.2436,-29.9027 1023.6662,-29.2951 1025.5959,-36.0238"/>
<text text-anchor="middle" x="979.5404" y="-57.8" font-family="Times,serif" font-size="14.00" fill="#000000">category</text>
</g>
<!-- named thing_category -->
<g id="node10" class="node">
<title>named thing_category</title>
<ellipse fill="none" stroke="#0000ff" cx="679.5404" cy="-105" rx="69.5877" ry="18"/>
<text text-anchor="middle" x="679.5404" y="-101.3" font-family="Times,serif" font-size="14.00" fill="#000000">named thing</text>
</g>
</g>
</svg>
