<?xml version="1.0" encoding="UTF-8" standalone="no"?>
<!DOCTYPE svg PUBLIC "-//W3C//DTD SVG 1.1//EN"
 "http://www.w3.org/Graphics/SVG/1.1/DTD/svg11.dtd">
<!-- Generated by graphviz version 2.40.1 (20161225.0304)
 -->
<!-- Title: %3 Pages: 1 -->
<svg width="1421pt" height="131pt"
 viewBox="0.00 0.00 1420.74 131.00" xmlns="http://www.w3.org/2000/svg" xmlns:xlink="http://www.w3.org/1999/xlink">
<g id="graph0" class="graph" transform="scale(1 1) rotate(0) translate(4 127)">
<title>%3</title>
<polygon fill="#ffffff" stroke="transparent" points="-4,4 -4,-127 1416.7411,-127 1416.7411,4 -4,4"/>
<!-- information content entity -->
<g id="node1" class="node">
<title>information content entity</title>
<ellipse fill="none" stroke="#000000" cx="765.5438" cy="-105" rx="133.7763" ry="18"/>
<text text-anchor="middle" x="765.5438" y="-101.3" font-family="Times,serif" font-size="14.00" fill="#000000">information content entity</text>
</g>
<!-- named thing -->
<g id="node2" class="node">
<title>named thing</title>
<ellipse fill="none" stroke="#000000" cx="69.5438" cy="-18" rx="69.5877" ry="18"/>
<text text-anchor="middle" x="69.5438" y="-14.3" font-family="Times,serif" font-size="14.00" fill="#000000">named thing</text>
</g>
<!-- information content entity&#45;&gt;named thing -->
<g id="edge1" class="edge">
<title>information content entity&#45;&gt;named thing</title>
<path fill="none" stroke="#000000" d="M634.6826,-101.0656C536.6987,-96.7225 399.6154,-87.6815 280.5438,-69 227.463,-60.672 168.0626,-45.8021 125.8448,-34.2598"/>
<polygon fill="#000000" stroke="#000000" points="126.6053,-30.8389 116.0346,-31.5531 124.7434,-37.5868 126.6053,-30.8389"/>
<text text-anchor="middle" x="294.5438" y="-57.8" font-family="Times,serif" font-size="14.00" fill="#000000">is_a</text>
</g>
<!-- id -->
<g id="node3" class="node">
<title>id</title>
<ellipse fill="none" stroke="#0000ff" cx="195.5438" cy="-18" rx="38.1938" ry="18"/>
<text text-anchor="middle" x="195.5438" y="-14.3" font-family="Times,serif" font-size="14.00" fill="#000000">string</text>
</g>
<!-- information content entity&#45;&gt;id -->
<g id="edge2" class="edge">
<title>information content entity&#45;&gt;id</title>
<path fill="none" stroke="#0000ff" d="M646.5367,-96.6811C574.5109,-90.8143 480.9556,-81.7187 398.5438,-69 328.5054,-58.1909 310.5107,-56.0682 242.5438,-36 239.7941,-35.1881 236.9772,-34.2886 234.1554,-33.3374"/>
<polygon fill="#0000ff" stroke="#0000ff" points="235.2282,-30.0042 224.6334,-29.9556 232.8854,-36.6006 235.2282,-30.0042"/>
<text text-anchor="middle" x="405.5438" y="-57.8" font-family="Times,serif" font-size="14.00" fill="#000000">id</text>
</g>
<!-- name -->
<g id="node4" class="node">
<title>name</title>
<ellipse fill="none" stroke="#0000ff" cx="308.5438" cy="-18" rx="56.59" ry="18"/>
<text text-anchor="middle" x="308.5438" y="-14.3" font-family="Times,serif" font-size="14.00" fill="#000000">label type</text>
</g>
<!-- information content entity&#45;&gt;name -->
<g id="edge3" class="edge">
<title>information content entity&#45;&gt;name</title>
<path fill="none" stroke="#0000ff" d="M649.8453,-95.8389C595.093,-90.2433 529.039,-81.6644 470.5438,-69 430.8469,-60.4055 386.9658,-46.2938 354.8971,-35.0908"/>
<polygon fill="#0000ff" stroke="#0000ff" points="355.9365,-31.746 345.3417,-31.7167 353.6057,-38.3466 355.9365,-31.746"/>
<text text-anchor="middle" x="490.5438" y="-57.8" font-family="Times,serif" font-size="14.00" fill="#000000">name</text>
</g>
<!-- enabled -->
<g id="node5" class="node">
<title>enabled</title>
<ellipse fill="none" stroke="#0000ff" cx="429.5438" cy="-18" rx="46.5926" ry="18"/>
<text text-anchor="middle" x="429.5438" y="-14.3" font-family="Times,serif" font-size="14.00" fill="#000000">boolean</text>
</g>
<!-- information content entity&#45;&gt;enabled -->
<g id="edge4" class="edge">
<title>information content entity&#45;&gt;enabled</title>
<path fill="none" stroke="#0000ff" d="M668.8239,-92.5377C633.4498,-86.8629 593.3411,-79.1105 557.5438,-69 527.0595,-60.39 493.8635,-47.0413 468.9179,-36.1601"/>
<polygon fill="#0000ff" stroke="#0000ff" points="470.007,-32.8149 459.4456,-31.9742 467.1775,-39.2176 470.007,-32.8149"/>
<text text-anchor="middle" x="586.0438" y="-57.8" font-family="Times,serif" font-size="14.00" fill="#000000">enabled</text>
</g>
<!-- archived -->
<g id="node6" class="node">
<title>archived</title>
<ellipse fill="none" stroke="#0000ff" cx="541.5438" cy="-18" rx="46.5926" ry="18"/>
<text text-anchor="middle" x="541.5438" y="-14.3" font-family="Times,serif" font-size="14.00" fill="#000000">boolean</text>
</g>
<!-- information content entity&#45;&gt;archived -->
<g id="edge5" class="edge">
<title>information content entity&#45;&gt;archived</title>
<path fill="none" stroke="#0000ff" d="M708.8019,-88.6538C690.3651,-82.9261 669.9268,-76.1302 651.5438,-69 627.0366,-59.4944 600.2647,-47.1272 579.2688,-36.9521"/>
<polygon fill="#0000ff" stroke="#0000ff" points="580.5785,-33.6965 570.0573,-32.4494 577.5044,-39.9854 580.5785,-33.6965"/>
<text text-anchor="middle" x="683.0438" y="-57.8" font-family="Times,serif" font-size="14.00" fill="#000000">archived</text>
</g>
<!-- description -->
<g id="node7" class="node">
<title>description</title>
<ellipse fill="none" stroke="#0000ff" cx="681.5438" cy="-18" rx="75.2868" ry="18"/>
<text text-anchor="middle" x="681.5438" y="-14.3" font-family="Times,serif" font-size="14.00" fill="#000000">narrative text</text>
</g>
<!-- information content entity&#45;&gt;description -->
<g id="edge6" class="edge">
<title>information content entity&#45;&gt;description</title>
<path fill="none" stroke="#0000ff" d="M748.139,-86.9735C735.894,-74.2912 719.3425,-57.1486 705.8039,-43.1265"/>
<polygon fill="#0000ff" stroke="#0000ff" points="708.1029,-40.4686 698.639,-35.7057 703.067,-45.3308 708.1029,-40.4686"/>
<text text-anchor="middle" x="770.5438" y="-57.8" font-family="Times,serif" font-size="14.00" fill="#000000">description</text>
</g>
<!-- note -->
<g id="node8" class="node">
<title>note</title>
<ellipse fill="none" stroke="#0000ff" cx="850.5438" cy="-18" rx="75.2868" ry="18"/>
<text text-anchor="middle" x="850.5438" y="-14.3" font-family="Times,serif" font-size="14.00" fill="#000000">narrative text</text>
</g>
<!-- information content entity&#45;&gt;note -->
<g id="edge7" class="edge">
<title>information content entity&#45;&gt;note</title>
<path fill="none" stroke="#0000ff" d="M793.6392,-87.3471C801.1797,-81.9433 809.0382,-75.6541 815.5438,-69 822.6006,-61.7821 829.194,-52.9887 834.7129,-44.75"/>
<polygon fill="#0000ff" stroke="#0000ff" points="837.791,-46.4339 840.2508,-36.1286 831.9014,-42.6507 837.791,-46.4339"/>
<text text-anchor="middle" x="844.5438" y="-57.8" font-family="Times,serif" font-size="14.00" fill="#000000">note</text>
</g>
<!-- category -->
<g id="node9" class="node">
<title>category</title>
<ellipse fill="none" stroke="#000000" cx="995.5438" cy="-18" rx="51.9908" ry="18"/>
<text text-anchor="middle" x="995.5438" y="-14.3" font-family="Times,serif" font-size="14.00" fill="#000000">category</text>
</g>
<!-- information content entity&#45;&gt;category -->
<g id="edge8" class="edge">
<title>information content entity&#45;&gt;category</title>
<path fill="none" stroke="#0000ff" d="M812.7086,-88.0939C829.1425,-82.1384 847.6844,-75.3462 864.5438,-69 893.7092,-58.0216 926.3706,-45.307 951.7849,-35.3193"/>
<polygon fill="#0000ff" stroke="#0000ff" points="953.1245,-38.5535 961.1479,-31.6343 950.5608,-32.0398 953.1245,-38.5535"/>
<text text-anchor="middle" x="933.5438" y="-57.8" font-family="Times,serif" font-size="14.00" fill="#000000">category</text>
</g>
<!-- license -->
<g id="node11" class="node">
<title>license</title>
<ellipse fill="none" stroke="#0000ff" cx="1103.5438" cy="-18" rx="38.1938" ry="18"/>
<text text-anchor="middle" x="1103.5438" y="-14.3" font-family="Times,serif" font-size="14.00" fill="#000000">string</text>
</g>
<!-- information content entity&#45;&gt;license -->
<g id="edge9" class="edge">
<title>information content entity&#45;&gt;license</title>
<path fill="none" stroke="#0000ff" d="M859.7981,-92.1601C894.6065,-86.4279 934.1761,-78.7353 969.5438,-69 1009.4157,-58.0248 1017.9007,-50.7286 1056.5438,-36 1059.0596,-35.0411 1061.6506,-34.0523 1064.2624,-33.0547"/>
<polygon fill="#0000ff" stroke="#0000ff" points="1065.6229,-36.2817 1073.7133,-29.4409 1063.1228,-29.7433 1065.6229,-36.2817"/>
<text text-anchor="middle" x="1038.0438" y="-57.8" font-family="Times,serif" font-size="14.00" fill="#000000">license</text>
</g>
<!-- rights -->
<g id="node12" class="node">
<title>rights</title>
<ellipse fill="none" stroke="#0000ff" cx="1198.5438" cy="-18" rx="38.1938" ry="18"/>
<text text-anchor="middle" x="1198.5438" y="-14.3" font-family="Times,serif" font-size="14.00" fill="#000000">string</text>
</g>
<!-- information content entity&#45;&gt;rights -->
<g id="edge10" class="edge">
<title>information content entity&#45;&gt;rights</title>
<path fill="none" stroke="#0000ff" d="M862.5307,-92.5213C877.5961,-90.6363 892.9861,-88.7415 907.5438,-87 978.5969,-78.5003 998.0632,-86.1242 1067.5438,-69 1100.5332,-60.8694 1136.383,-46.4997 1162.2264,-35.0811"/>
<polygon fill="#0000ff" stroke="#0000ff" points="1163.9237,-38.1557 1171.6144,-30.8684 1161.0579,-31.7692 1163.9237,-38.1557"/>
<text text-anchor="middle" x="1137.0438" y="-57.8" font-family="Times,serif" font-size="14.00" fill="#000000">rights</text>
</g>
<!-- format -->
<g id="node13" class="node">
<title>format</title>
<ellipse fill="none" stroke="#0000ff" cx="1293.5438" cy="-18" rx="38.1938" ry="18"/>
<text text-anchor="middle" x="1293.5438" y="-14.3" font-family="Times,serif" font-size="14.00" fill="#000000">string</text>
</g>
<!-- information content entity&#45;&gt;format -->
<g id="edge11" class="edge">
<title>information content entity&#45;&gt;format</title>
<path fill="none" stroke="#0000ff" d="M860.1755,-92.2605C875.9762,-90.3471 892.2111,-88.5118 907.5438,-87 1020.6109,-75.8519 1051.6884,-93.8902 1162.5438,-69 1195.695,-61.5566 1231.5307,-47.1267 1257.3274,-35.5101"/>
<polygon fill="#0000ff" stroke="#0000ff" points="1259.0639,-38.5644 1266.6962,-31.2161 1256.1473,-32.201 1259.0639,-38.5644"/>
<text text-anchor="middle" x="1236.0438" y="-57.8" font-family="Times,serif" font-size="14.00" fill="#000000">format</text>
</g>
<!-- creation date -->
<g id="node14" class="node">
<title>creation date</title>
<ellipse fill="none" stroke="#0000ff" cx="1381.5438" cy="-18" rx="31.3957" ry="18"/>
<text text-anchor="middle" x="1381.5438" y="-14.3" font-family="Times,serif" font-size="14.00" fill="#000000">date</text>
</g>
<!-- information content entity&#45;&gt;creation date -->
<g id="edge12" class="edge">
<title>information content entity&#45;&gt;creation date</title>
<path fill="none" stroke="#0000ff" d="M859.3863,-92.0861C875.4302,-90.1702 891.9492,-88.3795 907.5438,-87 1065.7941,-73.0008 1109.8596,-105.2202 1264.5438,-69 1294.8834,-61.8958 1327.1955,-47.2073 1350.1581,-35.4106"/>
<polygon fill="#0000ff" stroke="#0000ff" points="1351.8576,-38.4715 1359.0873,-30.7267 1348.6058,-32.2726 1351.8576,-38.4715"/>
<text text-anchor="middle" x="1356.5438" y="-57.8" font-family="Times,serif" font-size="14.00" fill="#000000">creation date</text>
</g>
<!-- named thing_category -->
<g id="node10" class="node">
<title>named thing_category</title>
<ellipse fill="none" stroke="#0000ff" cx="986.5438" cy="-105" rx="69.5877" ry="18"/>
<text text-anchor="middle" x="986.5438" y="-101.3" font-family="Times,serif" font-size="14.00" fill="#000000">named thing</text>
</g>
</g>
</svg>
