<?xml version="1.0" encoding="UTF-8" standalone="no"?>
<!DOCTYPE svg PUBLIC "-//W3C//DTD SVG 1.1//EN"
 "http://www.w3.org/Graphics/SVG/1.1/DTD/svg11.dtd">
<!-- Generated by graphviz version 2.40.1 (20161225.0304)
 -->
<!-- Title: %3 Pages: 1 -->
<svg width="2048pt" height="131pt"
 viewBox="0.00 0.00 2047.69 131.00" xmlns="http://www.w3.org/2000/svg" xmlns:xlink="http://www.w3.org/1999/xlink">
<g id="graph0" class="graph" transform="scale(1 1) rotate(0) translate(4 127)">
<title>%3</title>
<polygon fill="#ffffff" stroke="transparent" points="-4,4 -4,-127 2043.692,-127 2043.692,4 -4,4"/>
<!-- inventory -->
<g id="node1" class="node">
<title>inventory</title>
<ellipse fill="none" stroke="#000000" cx="1102.496" cy="-105" rx="55.4913" ry="18"/>
<text text-anchor="middle" x="1102.496" y="-101.3" font-family="Times,serif" font-size="14.00" fill="#000000">inventory</text>
</g>
<!-- dataset -->
<g id="node2" class="node">
<title>dataset</title>
<ellipse fill="none" stroke="#000000" cx="45.496" cy="-18" rx="45.4919" ry="18"/>
<text text-anchor="middle" x="45.496" y="-14.3" font-family="Times,serif" font-size="14.00" fill="#000000">dataset</text>
</g>
<!-- inventory&#45;&gt;dataset -->
<g id="edge1" class="edge">
<title>inventory&#45;&gt;dataset</title>
<path fill="none" stroke="#000000" d="M1047.114,-104.1824C881.332,-101.5019 390.7237,-91.8091 232.496,-69 182.5066,-61.7939 126.8562,-45.5074 89.3653,-33.2647"/>
<polygon fill="#000000" stroke="#000000" points="90.3599,-29.9073 79.7666,-30.0889 88.1611,-36.553 90.3599,-29.9073"/>
<text text-anchor="middle" x="246.496" y="-57.8" font-family="Times,serif" font-size="14.00" fill="#000000">is_a</text>
</g>
<!-- id -->
<g id="node3" class="node">
<title>id</title>
<ellipse fill="none" stroke="#0000ff" cx="147.496" cy="-18" rx="38.1938" ry="18"/>
<text text-anchor="middle" x="147.496" y="-14.3" font-family="Times,serif" font-size="14.00" fill="#000000">string</text>
</g>
<!-- inventory&#45;&gt;id -->
<g id="edge2" class="edge">
<title>inventory&#45;&gt;id</title>
<path fill="none" stroke="#0000ff" d="M1047.2181,-103.3419C899.137,-98.7345 495.7931,-85.054 363.496,-69 287.5236,-59.7809 268.0601,-57.0974 194.496,-36 191.7006,-35.1983 188.8378,-34.3009 185.9722,-33.3461"/>
<polygon fill="#0000ff" stroke="#0000ff" points="186.9077,-29.9647 176.3129,-29.9349 184.5767,-36.5652 186.9077,-29.9647"/>
<text text-anchor="middle" x="370.496" y="-57.8" font-family="Times,serif" font-size="14.00" fill="#000000">id</text>
</g>
<!-- name -->
<g id="node4" class="node">
<title>name</title>
<ellipse fill="none" stroke="#0000ff" cx="260.496" cy="-18" rx="56.59" ry="18"/>
<text text-anchor="middle" x="260.496" y="-14.3" font-family="Times,serif" font-size="14.00" fill="#000000">label type</text>
</g>
<!-- inventory&#45;&gt;name -->
<g id="edge3" class="edge">
<title>inventory&#45;&gt;name</title>
<path fill="none" stroke="#0000ff" d="M1047.2705,-103.4123C911.4728,-99.2735 564.0121,-87.1972 449.496,-69 400.9677,-61.2886 346.9701,-46.0205 309.1596,-34.1908"/>
<polygon fill="#0000ff" stroke="#0000ff" points="310.0164,-30.791 299.4264,-31.1097 307.9038,-37.4646 310.0164,-30.791"/>
<text text-anchor="middle" x="469.496" y="-57.8" font-family="Times,serif" font-size="14.00" fill="#000000">name</text>
</g>
<!-- enabled -->
<g id="node5" class="node">
<title>enabled</title>
<ellipse fill="none" stroke="#0000ff" cx="381.496" cy="-18" rx="46.5926" ry="18"/>
<text text-anchor="middle" x="381.496" y="-14.3" font-family="Times,serif" font-size="14.00" fill="#000000">boolean</text>
</g>
<!-- inventory&#45;&gt;enabled -->
<g id="edge4" class="edge">
<title>inventory&#45;&gt;enabled</title>
<path fill="none" stroke="#0000ff" d="M1047.6532,-102.8125C928.6213,-97.8316 649.802,-84.8415 556.496,-69 510.9199,-61.2621 460.3752,-45.7488 425.3726,-33.8534"/>
<polygon fill="#0000ff" stroke="#0000ff" points="426.0757,-30.3939 415.481,-30.4474 423.7967,-37.0125 426.0757,-30.3939"/>
<text text-anchor="middle" x="584.996" y="-57.8" font-family="Times,serif" font-size="14.00" fill="#000000">enabled</text>
</g>
<!-- archived -->
<g id="node6" class="node">
<title>archived</title>
<ellipse fill="none" stroke="#0000ff" cx="493.496" cy="-18" rx="46.5926" ry="18"/>
<text text-anchor="middle" x="493.496" y="-14.3" font-family="Times,serif" font-size="14.00" fill="#000000">boolean</text>
</g>
<!-- inventory&#45;&gt;archived -->
<g id="edge5" class="edge">
<title>inventory&#45;&gt;archived</title>
<path fill="none" stroke="#0000ff" d="M1047.4049,-102.7323C967.9348,-98.8881 816.6986,-89.4258 689.496,-69 626.3771,-58.8646 611.0861,-53.1281 549.496,-36 545.9417,-35.0116 542.2754,-33.9437 538.5995,-32.8384"/>
<polygon fill="#0000ff" stroke="#0000ff" points="539.5044,-29.4549 528.9171,-29.8544 537.4427,-36.1444 539.5044,-29.4549"/>
<text text-anchor="middle" x="720.996" y="-57.8" font-family="Times,serif" font-size="14.00" fill="#000000">archived</text>
</g>
<!-- description -->
<g id="node7" class="node">
<title>description</title>
<ellipse fill="none" stroke="#0000ff" cx="633.496" cy="-18" rx="75.2868" ry="18"/>
<text text-anchor="middle" x="633.496" y="-14.3" font-family="Times,serif" font-size="14.00" fill="#000000">narrative text</text>
</g>
<!-- inventory&#45;&gt;description -->
<g id="edge6" class="edge">
<title>inventory&#45;&gt;description</title>
<path fill="none" stroke="#0000ff" d="M1048.8074,-100.5549C991.2351,-95.2455 897.3215,-85.0168 817.496,-69 773.6767,-60.2078 724.9772,-46.5308 688.692,-35.5529"/>
<polygon fill="#0000ff" stroke="#0000ff" points="689.3874,-32.1058 678.8013,-32.5344 687.3442,-38.801 689.3874,-32.1058"/>
<text text-anchor="middle" x="858.496" y="-57.8" font-family="Times,serif" font-size="14.00" fill="#000000">description</text>
</g>
<!-- note -->
<g id="node8" class="node">
<title>note</title>
<ellipse fill="none" stroke="#0000ff" cx="802.496" cy="-18" rx="75.2868" ry="18"/>
<text text-anchor="middle" x="802.496" y="-14.3" font-family="Times,serif" font-size="14.00" fill="#000000">narrative text</text>
</g>
<!-- inventory&#45;&gt;note -->
<g id="edge7" class="edge">
<title>inventory&#45;&gt;note</title>
<path fill="none" stroke="#0000ff" d="M1055.3469,-95.4599C1024.4512,-88.8631 983.3053,-79.4217 947.496,-69 915.2935,-59.628 879.7615,-47.1659 851.9308,-36.9068"/>
<polygon fill="#0000ff" stroke="#0000ff" points="853.019,-33.5774 842.426,-33.3785 850.5829,-40.1399 853.019,-33.5774"/>
<text text-anchor="middle" x="963.496" y="-57.8" font-family="Times,serif" font-size="14.00" fill="#000000">note</text>
</g>
<!-- category -->
<g id="node9" class="node">
<title>category</title>
<ellipse fill="none" stroke="#000000" cx="947.496" cy="-18" rx="51.9908" ry="18"/>
<text text-anchor="middle" x="947.496" y="-14.3" font-family="Times,serif" font-size="14.00" fill="#000000">category</text>
</g>
<!-- inventory&#45;&gt;category -->
<g id="edge8" class="edge">
<title>inventory&#45;&gt;category</title>
<path fill="none" stroke="#0000ff" d="M1059.4337,-93.6817C1041.1173,-87.8284 1019.9931,-79.6463 1002.496,-69 990.7335,-61.843 979.305,-51.898 969.9411,-42.6889"/>
<polygon fill="#0000ff" stroke="#0000ff" points="972.4119,-40.2096 962.9072,-35.5285 967.4182,-45.115 972.4119,-40.2096"/>
<text text-anchor="middle" x="1034.496" y="-57.8" font-family="Times,serif" font-size="14.00" fill="#000000">category</text>
</g>
<!-- license -->
<g id="node11" class="node">
<title>license</title>
<ellipse fill="none" stroke="#0000ff" cx="1055.496" cy="-18" rx="38.1938" ry="18"/>
<text text-anchor="middle" x="1055.496" y="-14.3" font-family="Times,serif" font-size="14.00" fill="#000000">string</text>
</g>
<!-- inventory&#45;&gt;license -->
<g id="edge9" class="edge">
<title>inventory&#45;&gt;license</title>
<path fill="none" stroke="#0000ff" d="M1089.3059,-87.5083C1085.2632,-81.7671 1080.9698,-75.2525 1077.496,-69 1073.347,-61.5322 1069.4348,-53.1252 1066.0925,-45.3234"/>
<polygon fill="#0000ff" stroke="#0000ff" points="1069.244,-43.7852 1062.1888,-35.8811 1062.775,-46.4597 1069.244,-43.7852"/>
<text text-anchor="middle" x="1102.996" y="-57.8" font-family="Times,serif" font-size="14.00" fill="#000000">license</text>
</g>
<!-- rights -->
<g id="node12" class="node">
<title>rights</title>
<ellipse fill="none" stroke="#0000ff" cx="1150.496" cy="-18" rx="38.1938" ry="18"/>
<text text-anchor="middle" x="1150.496" y="-14.3" font-family="Times,serif" font-size="14.00" fill="#000000">string</text>
</g>
<!-- inventory&#45;&gt;rights -->
<g id="edge10" class="edge">
<title>inventory&#45;&gt;rights</title>
<path fill="none" stroke="#0000ff" d="M1116.5242,-87.2006C1120.6512,-81.5522 1124.994,-75.168 1128.496,-69 1132.7139,-61.5709 1136.6472,-53.1758 1139.9878,-45.3731"/>
<polygon fill="#0000ff" stroke="#0000ff" points="1143.3075,-46.5031 1143.8789,-35.9237 1136.8348,-43.8376 1143.3075,-46.5031"/>
<text text-anchor="middle" x="1157.996" y="-57.8" font-family="Times,serif" font-size="14.00" fill="#000000">rights</text>
</g>
<!-- format -->
<g id="node13" class="node">
<title>format</title>
<ellipse fill="none" stroke="#0000ff" cx="1245.496" cy="-18" rx="38.1938" ry="18"/>
<text text-anchor="middle" x="1245.496" y="-14.3" font-family="Times,serif" font-size="14.00" fill="#000000">string</text>
</g>
<!-- inventory&#45;&gt;format -->
<g id="edge11" class="edge">
<title>inventory&#45;&gt;format</title>
<path fill="none" stroke="#0000ff" d="M1139.0403,-91.2338C1153.345,-85.2173 1169.6176,-77.5719 1183.496,-69 1196.4417,-61.0042 1209.6214,-50.553 1220.4812,-41.1949"/>
<polygon fill="#0000ff" stroke="#0000ff" points="1223.1039,-43.5487 1228.2912,-34.3105 1218.4751,-38.2975 1223.1039,-43.5487"/>
<text text-anchor="middle" x="1227.996" y="-57.8" font-family="Times,serif" font-size="14.00" fill="#000000">format</text>
</g>
<!-- creation date -->
<g id="node14" class="node">
<title>creation date</title>
<ellipse fill="none" stroke="#0000ff" cx="1333.496" cy="-18" rx="31.3957" ry="18"/>
<text text-anchor="middle" x="1333.496" y="-14.3" font-family="Times,serif" font-size="14.00" fill="#000000">date</text>
</g>
<!-- inventory&#45;&gt;creation date -->
<g id="edge12" class="edge">
<title>inventory&#45;&gt;creation date</title>
<path fill="none" stroke="#0000ff" d="M1143.6873,-92.9131C1151.2472,-90.8379 1159.0889,-88.7796 1166.496,-87 1206.1595,-77.4708 1218.7855,-84.5539 1256.496,-69 1274.5407,-61.5574 1292.8355,-49.6607 1307.0623,-39.229"/>
<polygon fill="#0000ff" stroke="#0000ff" points="1309.4782,-41.7909 1315.3561,-32.976 1305.2641,-36.2014 1309.4782,-41.7909"/>
<text text-anchor="middle" x="1331.496" y="-57.8" font-family="Times,serif" font-size="14.00" fill="#000000">creation date</text>
</g>
<!-- created -->
<g id="node15" class="node">
<title>created</title>
<ellipse fill="none" stroke="#0000ff" cx="1413.496" cy="-18" rx="31.3957" ry="18"/>
<text text-anchor="middle" x="1413.496" y="-14.3" font-family="Times,serif" font-size="14.00" fill="#000000">date</text>
</g>
<!-- inventory&#45;&gt;created -->
<g id="edge13" class="edge">
<title>inventory&#45;&gt;created</title>
<path fill="none" stroke="#0000ff" d="M1142.5079,-92.4811C1150.3963,-90.3731 1158.6583,-88.4138 1166.496,-87 1214.1153,-78.4103 1342.5227,-94.7405 1383.496,-69 1392.405,-63.4031 1398.9873,-54.1212 1403.6787,-44.9988"/>
<polygon fill="#0000ff" stroke="#0000ff" points="1406.9486,-46.2631 1407.9013,-35.7112 1400.5762,-43.3659 1406.9486,-46.2631"/>
<text text-anchor="middle" x="1425.996" y="-57.8" font-family="Times,serif" font-size="14.00" fill="#000000">created</text>
</g>
<!-- component fixed -->
<g id="node16" class="node">
<title>component fixed</title>
<ellipse fill="none" stroke="#0000ff" cx="1519.496" cy="-18" rx="56.59" ry="18"/>
<text text-anchor="middle" x="1519.496" y="-14.3" font-family="Times,serif" font-size="14.00" fill="#000000">label type</text>
</g>
<!-- inventory&#45;&gt;component fixed -->
<g id="edge14" class="edge">
<title>inventory&#45;&gt;component fixed</title>
<path fill="none" stroke="#0000ff" d="M1142.1421,-92.4407C1150.1355,-90.3087 1158.5301,-88.3508 1166.496,-87 1230.3744,-76.1681 1397.2097,-92.735 1457.496,-69 1472.106,-63.2479 1485.8641,-52.682 1496.6906,-42.6529"/>
<polygon fill="#0000ff" stroke="#0000ff" points="1499.2957,-45.0017 1504.0262,-35.5215 1494.4163,-39.9825 1499.2957,-45.0017"/>
<text text-anchor="middle" x="1542.496" y="-57.8" font-family="Times,serif" font-size="14.00" fill="#000000">component fixed</text>
</g>
<!-- tag -->
<g id="node17" class="node">
<title>tag</title>
<ellipse fill="none" stroke="#0000ff" cx="1650.496" cy="-18" rx="56.59" ry="18"/>
<text text-anchor="middle" x="1650.496" y="-14.3" font-family="Times,serif" font-size="14.00" fill="#000000">label type</text>
</g>
<!-- inventory&#45;&gt;tag -->
<g id="edge15" class="edge">
<title>inventory&#45;&gt;tag</title>
<path fill="none" stroke="#0000ff" d="M1142.1204,-92.3088C1150.1156,-90.1876 1158.5165,-88.2675 1166.496,-87 1214.8199,-79.3241 1562.4355,-90.2791 1606.496,-69 1617.8168,-63.5326 1627.389,-53.6629 1634.6848,-44.0527"/>
<polygon fill="#0000ff" stroke="#0000ff" points="1637.6055,-45.984 1640.4969,-35.7913 1631.8803,-41.9561 1637.6055,-45.984"/>
<text text-anchor="middle" x="1637.496" y="-57.8" font-family="Times,serif" font-size="14.00" fill="#000000">tag</text>
</g>
<!-- tag name -->
<g id="node18" class="node">
<title>tag name</title>
<ellipse fill="none" stroke="#0000ff" cx="1781.496" cy="-18" rx="56.59" ry="18"/>
<text text-anchor="middle" x="1781.496" y="-14.3" font-family="Times,serif" font-size="14.00" fill="#000000">label type</text>
</g>
<!-- inventory&#45;&gt;tag name -->
<g id="edge16" class="edge">
<title>inventory&#45;&gt;tag name</title>
<path fill="none" stroke="#0000ff" d="M1142.1165,-92.2839C1150.112,-90.1648 1158.514,-88.2518 1166.496,-87 1380.473,-53.4435 1441.5745,-113.7379 1653.496,-69 1684.5231,-62.45 1717.7396,-49.008 1742.5582,-37.5682"/>
<polygon fill="#0000ff" stroke="#0000ff" points="1744.076,-40.7222 1751.6369,-33.3003 1741.0979,-34.3872 1744.076,-40.7222"/>
<text text-anchor="middle" x="1734.996" y="-57.8" font-family="Times,serif" font-size="14.00" fill="#000000">tag name</text>
</g>
<!-- user login -->
<g id="node19" class="node">
<title>user login</title>
<ellipse fill="none" stroke="#0000ff" cx="1894.496" cy="-18" rx="38.1938" ry="18"/>
<text text-anchor="middle" x="1894.496" y="-14.3" font-family="Times,serif" font-size="14.00" fill="#000000">string</text>
</g>
<!-- inventory&#45;&gt;user login -->
<g id="edge17" class="edge">
<title>inventory&#45;&gt;user login</title>
<path fill="none" stroke="#0000ff" d="M1141.7669,-92.3288C1149.8653,-90.1771 1158.3954,-88.2403 1166.496,-87 1299.6701,-66.6096 1640.8096,-97.457 1772.496,-69 1803.3984,-62.3221 1836.3595,-48.0695 1860.2209,-36.3246"/>
<polygon fill="#0000ff" stroke="#0000ff" points="1861.8529,-39.4216 1869.2161,-31.8036 1858.7094,-33.1671 1861.8529,-39.4216"/>
<text text-anchor="middle" x="1853.496" y="-57.8" font-family="Times,serif" font-size="14.00" fill="#000000">user login</text>
</g>
<!-- svn tag url -->
<g id="node20" class="node">
<title>svn tag url</title>
<ellipse fill="none" stroke="#0000ff" cx="1995.496" cy="-18" rx="44.393" ry="18"/>
<text text-anchor="middle" x="1995.496" y="-14.3" font-family="Times,serif" font-size="14.00" fill="#000000">iri type</text>
</g>
<!-- inventory&#45;&gt;svn tag url -->
<g id="edge18" class="edge">
<title>inventory&#45;&gt;svn tag url</title>
<path fill="none" stroke="#0000ff" d="M1141.7622,-92.2975C1149.8609,-90.1482 1158.3924,-88.2203 1166.496,-87 1326.2994,-62.9362 1736.6856,-108.073 1893.496,-69 1918.207,-62.8427 1943.8368,-49.9973 1963.2234,-38.7393"/>
<polygon fill="#0000ff" stroke="#0000ff" points="1965.1405,-41.6712 1971.9361,-33.5428 1961.5548,-35.6593 1965.1405,-41.6712"/>
<text text-anchor="middle" x="1970.496" y="-57.8" font-family="Times,serif" font-size="14.00" fill="#000000">svn tag url</text>
</g>
<!-- named thing_category -->
<g id="node10" class="node">
<title>named thing_category</title>
<ellipse fill="none" stroke="#0000ff" cx="1245.496" cy="-105" rx="69.5877" ry="18"/>
<text text-anchor="middle" x="1245.496" y="-101.3" font-family="Times,serif" font-size="14.00" fill="#000000">named thing</text>
</g>
</g>
</svg>
