<?xml version="1.0" encoding="UTF-8" standalone="no"?>
<!DOCTYPE svg PUBLIC "-//W3C//DTD SVG 1.1//EN"
 "http://www.w3.org/Graphics/SVG/1.1/DTD/svg11.dtd">
<!-- Generated by graphviz version 2.40.1 (20161225.0304)
 -->
<!-- Title: %3 Pages: 1 -->
<svg width="993pt" height="131pt"
 viewBox="0.00 0.00 993.34 131.00" xmlns="http://www.w3.org/2000/svg" xmlns:xlink="http://www.w3.org/1999/xlink">
<g id="graph0" class="graph" transform="scale(1 1) rotate(0) translate(4 127)">
<title>%3</title>
<polygon fill="#ffffff" stroke="transparent" points="-4,4 -4,-127 989.342,-127 989.342,4 -4,4"/>
<!-- named thing -->
<g id="node1" class="node">
<title>named thing</title>
<ellipse fill="none" stroke="#000000" cx="423.3466" cy="-105" rx="69.5877" ry="18"/>
<text text-anchor="middle" x="423.3466" y="-101.3" font-family="Times,serif" font-size="14.00" fill="#000000">named thing</text>
</g>
<!-- entity -->
<g id="node2" class="node">
<title>entity</title>
<ellipse fill="none" stroke="#000000" cx="38.3466" cy="-18" rx="38.1938" ry="18"/>
<text text-anchor="middle" x="38.3466" y="-14.3" font-family="Times,serif" font-size="14.00" fill="#000000">entity</text>
</g>
<!-- named thing&#45;&gt;entity -->
<g id="edge1" class="edge">
<title>named thing&#45;&gt;entity</title>
<path fill="none" stroke="#000000" d="M361.8753,-96.3487C318.7095,-89.8739 259.741,-80.2252 208.3466,-69 153.4695,-57.0141 139.8147,-53.214 86.3466,-36 83.4331,-35.062 80.4361,-34.0512 77.4307,-33.004"/>
<polygon fill="#000000" stroke="#000000" points="78.4891,-29.6653 67.8946,-29.5804 76.1237,-36.2536 78.4891,-29.6653"/>
<text text-anchor="middle" x="222.3466" y="-57.8" font-family="Times,serif" font-size="14.00" fill="#000000">is_a</text>
</g>
<!-- id -->
<g id="node3" class="node">
<title>id</title>
<ellipse fill="none" stroke="#0000ff" cx="133.3466" cy="-18" rx="38.1938" ry="18"/>
<text text-anchor="middle" x="133.3466" y="-14.3" font-family="Times,serif" font-size="14.00" fill="#000000">string</text>
</g>
<!-- named thing&#45;&gt;id -->
<g id="edge2" class="edge">
<title>named thing&#45;&gt;id</title>
<path fill="none" stroke="#0000ff" d="M373.6196,-92.2701C324.2252,-79.3002 246.5101,-58.0146 180.3466,-36 177.7544,-35.1375 175.0944,-34.2172 172.4217,-33.2661"/>
<polygon fill="#0000ff" stroke="#0000ff" points="173.3803,-29.8898 162.7866,-29.735 170.9716,-36.4623 173.3803,-29.8898"/>
<text text-anchor="middle" x="294.3466" y="-57.8" font-family="Times,serif" font-size="14.00" fill="#000000">id</text>
</g>
<!-- name -->
<g id="node4" class="node">
<title>name</title>
<ellipse fill="none" stroke="#0000ff" cx="246.3466" cy="-18" rx="56.59" ry="18"/>
<text text-anchor="middle" x="246.3466" y="-14.3" font-family="Times,serif" font-size="14.00" fill="#000000">label type</text>
</g>
<!-- named thing&#45;&gt;name -->
<g id="edge3" class="edge">
<title>named thing&#45;&gt;name</title>
<path fill="none" stroke="#0000ff" d="M390.0622,-89.1651C377.0293,-82.9277 361.9651,-75.6725 348.3466,-69 327.5672,-58.8189 304.5012,-47.304 285.5675,-37.7953"/>
<polygon fill="#0000ff" stroke="#0000ff" points="287.1394,-34.6682 276.6328,-33.3031 283.995,-40.9222 287.1394,-34.6682"/>
<text text-anchor="middle" x="368.3466" y="-57.8" font-family="Times,serif" font-size="14.00" fill="#000000">name</text>
</g>
<!-- enabled -->
<g id="node5" class="node">
<title>enabled</title>
<ellipse fill="none" stroke="#0000ff" cx="367.3466" cy="-18" rx="46.5926" ry="18"/>
<text text-anchor="middle" x="367.3466" y="-14.3" font-family="Times,serif" font-size="14.00" fill="#000000">boolean</text>
</g>
<!-- named thing&#45;&gt;enabled -->
<g id="edge4" class="edge">
<title>named thing&#45;&gt;enabled</title>
<path fill="none" stroke="#0000ff" d="M411.7434,-86.9735C403.8068,-74.6435 393.1565,-58.0975 384.2767,-44.3021"/>
<polygon fill="#0000ff" stroke="#0000ff" points="387.0989,-42.22 378.7434,-35.7057 381.2128,-46.0087 387.0989,-42.22"/>
<text text-anchor="middle" x="427.8466" y="-57.8" font-family="Times,serif" font-size="14.00" fill="#000000">enabled</text>
</g>
<!-- archived -->
<g id="node6" class="node">
<title>archived</title>
<ellipse fill="none" stroke="#0000ff" cx="479.3466" cy="-18" rx="46.5926" ry="18"/>
<text text-anchor="middle" x="479.3466" y="-14.3" font-family="Times,serif" font-size="14.00" fill="#000000">boolean</text>
</g>
<!-- named thing&#45;&gt;archived -->
<g id="edge5" class="edge">
<title>named thing&#45;&gt;archived</title>
<path fill="none" stroke="#0000ff" d="M442.3293,-87.3726C447.6282,-81.8313 453.0932,-75.4631 457.3466,-69 462.0429,-61.8637 466.1236,-53.5588 469.4522,-45.7487"/>
<polygon fill="#0000ff" stroke="#0000ff" points="472.7892,-46.8304 473.256,-36.2458 466.2904,-44.229 472.7892,-46.8304"/>
<text text-anchor="middle" x="497.8466" y="-57.8" font-family="Times,serif" font-size="14.00" fill="#000000">archived</text>
</g>
<!-- description -->
<g id="node7" class="node">
<title>description</title>
<ellipse fill="none" stroke="#0000ff" cx="619.3466" cy="-18" rx="75.2868" ry="18"/>
<text text-anchor="middle" x="619.3466" y="-14.3" font-family="Times,serif" font-size="14.00" fill="#000000">narrative text</text>
</g>
<!-- named thing&#45;&gt;description -->
<g id="edge6" class="edge">
<title>named thing&#45;&gt;description</title>
<path fill="none" stroke="#0000ff" d="M471.0433,-91.8867C490.707,-85.8434 513.4912,-78.0049 533.3466,-69 551.0548,-60.9689 569.7317,-50.2016 585.1391,-40.6302"/>
<polygon fill="#0000ff" stroke="#0000ff" points="587.213,-43.4601 593.801,-35.1626 583.4765,-37.5407 587.213,-43.4601"/>
<text text-anchor="middle" x="601.3466" y="-57.8" font-family="Times,serif" font-size="14.00" fill="#000000">description</text>
</g>
<!-- note -->
<g id="node8" class="node">
<title>note</title>
<ellipse fill="none" stroke="#0000ff" cx="788.3466" cy="-18" rx="75.2868" ry="18"/>
<text text-anchor="middle" x="788.3466" y="-14.3" font-family="Times,serif" font-size="14.00" fill="#000000">narrative text</text>
</g>
<!-- named thing&#45;&gt;note -->
<g id="edge7" class="edge">
<title>named thing&#45;&gt;note</title>
<path fill="none" stroke="#0000ff" d="M473.9598,-92.5208C483.0447,-90.5094 492.4514,-88.5741 501.3466,-87 565.2921,-75.6838 583.1797,-84.0673 646.3466,-69 679.0537,-61.1983 714.6633,-48.3977 742.041,-37.5729"/>
<polygon fill="#0000ff" stroke="#0000ff" points="743.3824,-40.8061 751.3633,-33.8379 740.7789,-34.3082 743.3824,-40.8061"/>
<text text-anchor="middle" x="710.3466" y="-57.8" font-family="Times,serif" font-size="14.00" fill="#000000">note</text>
</g>
<!-- category -->
<g id="node9" class="node">
<title>category</title>
<ellipse fill="none" stroke="#000000" cx="933.3466" cy="-18" rx="51.9908" ry="18"/>
<text text-anchor="middle" x="933.3466" y="-14.3" font-family="Times,serif" font-size="14.00" fill="#000000">category</text>
</g>
<!-- named thing&#45;&gt;category -->
<g id="edge8" class="edge">
<title>named thing&#45;&gt;category</title>
<path fill="none" stroke="#0000ff" d="M473.0662,-92.3682C482.4148,-90.3232 492.1435,-88.4156 501.3466,-87 602.2516,-71.4792 629.4536,-84.5986 730.3466,-69 794.3788,-59.1003 809.6922,-52.5092 872.3466,-36 876.2004,-34.9845 880.1801,-33.8976 884.1736,-32.7795"/>
<polygon fill="#0000ff" stroke="#0000ff" points="885.4079,-36.0672 894.0649,-29.9592 883.4884,-29.3355 885.4079,-36.0672"/>
<text text-anchor="middle" x="836.3466" y="-57.8" font-family="Times,serif" font-size="14.00" fill="#000000">category</text>
</g>
<!-- named thing_category -->
<g id="node10" class="node">
<title>named thing_category</title>
<ellipse fill="none" stroke="#0000ff" cx="580.3466" cy="-105" rx="69.5877" ry="18"/>
<text text-anchor="middle" x="580.3466" y="-101.3" font-family="Times,serif" font-size="14.00" fill="#000000">named thing</text>
</g>
</g>
</svg>
