<?xml version="1.0" encoding="UTF-8" standalone="no"?>
<!DOCTYPE svg PUBLIC "-//W3C//DTD SVG 1.1//EN"
 "http://www.w3.org/Graphics/SVG/1.1/DTD/svg11.dtd">
<!-- Generated by graphviz version 2.40.1 (20161225.0304)
 -->
<!-- Title: %3 Pages: 1 -->
<svg width="1652pt" height="131pt"
 viewBox="0.00 0.00 1652.09 131.00" xmlns="http://www.w3.org/2000/svg" xmlns:xlink="http://www.w3.org/1999/xlink">
<g id="graph0" class="graph" transform="scale(1 1) rotate(0) translate(4 127)">
<title>%3</title>
<polygon fill="#ffffff" stroke="transparent" points="-4,4 -4,-127 1648.0854,-127 1648.0854,4 -4,4"/>
<!-- notification -->
<g id="node1" class="node">
<title>notification</title>
<ellipse fill="none" stroke="#000000" cx="802.5917" cy="-105" rx="63.8893" ry="18"/>
<text text-anchor="middle" x="802.5917" y="-101.3" font-family="Times,serif" font-size="14.00" fill="#000000">notification</text>
</g>
<!-- operational entity -->
<g id="node2" class="node">
<title>operational entity</title>
<ellipse fill="none" stroke="#000000" cx="93.5917" cy="-18" rx="93.6835" ry="18"/>
<text text-anchor="middle" x="93.5917" y="-14.3" font-family="Times,serif" font-size="14.00" fill="#000000">operational entity</text>
</g>
<!-- notification&#45;&gt;operational entity -->
<g id="edge1" class="edge">
<title>notification&#45;&gt;operational entity</title>
<path fill="none" stroke="#000000" d="M739.851,-101.7818C655.2716,-96.9905 500.1072,-86.6042 368.5917,-69 299.4972,-59.7512 221.4127,-44.8366 166.1513,-33.5196"/>
<polygon fill="#000000" stroke="#000000" points="166.6062,-30.0399 156.1057,-31.4505 165.194,-36.896 166.6062,-30.0399"/>
<text text-anchor="middle" x="382.5917" y="-57.8" font-family="Times,serif" font-size="14.00" fill="#000000">is_a</text>
</g>
<!-- application -->
<g id="node3" class="node">
<title>application</title>
<ellipse fill="none" stroke="#000000" cx="267.5917" cy="-18" rx="62.2891" ry="18"/>
<text text-anchor="middle" x="267.5917" y="-14.3" font-family="Times,serif" font-size="14.00" fill="#000000">application</text>
</g>
<!-- notification&#45;&gt;application -->
<g id="edge2" class="edge">
<title>notification&#45;&gt;application</title>
<path fill="none" stroke="#000000" d="M740.2819,-101.0237C672.5376,-96.074 561.2719,-86.1124 466.5917,-69 416.6038,-59.9652 360.64,-45.197 320.8232,-33.8718"/>
<polygon fill="#000000" stroke="#000000" points="321.6391,-30.4648 311.0617,-31.0723 319.7093,-37.1935 321.6391,-30.4648"/>
<text text-anchor="middle" x="483.0917" y="-57.8" font-family="Times,serif" font-size="14.00" fill="#000000">uses</text>
</g>
<!-- id -->
<g id="node4" class="node">
<title>id</title>
<ellipse fill="none" stroke="#0000ff" cx="386.5917" cy="-18" rx="38.1938" ry="18"/>
<text text-anchor="middle" x="386.5917" y="-14.3" font-family="Times,serif" font-size="14.00" fill="#000000">string</text>
</g>
<!-- notification&#45;&gt;id -->
<g id="edge3" class="edge">
<title>notification&#45;&gt;id</title>
<path fill="none" stroke="#0000ff" d="M743.4215,-98.2143C669.6831,-88.7889 540.3633,-69.0558 433.5917,-36 430.8529,-35.1521 428.0441,-34.2258 425.2281,-33.2552"/>
<polygon fill="#0000ff" stroke="#0000ff" points="426.3126,-29.9258 415.7181,-29.8338 423.9428,-36.5125 426.3126,-29.9258"/>
<text text-anchor="middle" x="570.5917" y="-57.8" font-family="Times,serif" font-size="14.00" fill="#000000">id</text>
</g>
<!-- name -->
<g id="node5" class="node">
<title>name</title>
<ellipse fill="none" stroke="#0000ff" cx="499.5917" cy="-18" rx="56.59" ry="18"/>
<text text-anchor="middle" x="499.5917" y="-14.3" font-family="Times,serif" font-size="14.00" fill="#000000">label type</text>
</g>
<!-- notification&#45;&gt;name -->
<g id="edge4" class="edge">
<title>notification&#45;&gt;name</title>
<path fill="none" stroke="#0000ff" d="M748.0222,-95.5834C714.6552,-89.2822 671.2849,-80.1159 633.5917,-69 602.7884,-59.916 568.9985,-47.0347 543.0561,-36.4908"/>
<polygon fill="#0000ff" stroke="#0000ff" points="544.1003,-33.1361 533.5203,-32.577 541.4424,-39.6119 544.1003,-33.1361"/>
<text text-anchor="middle" x="653.5917" y="-57.8" font-family="Times,serif" font-size="14.00" fill="#000000">name</text>
</g>
<!-- enabled -->
<g id="node6" class="node">
<title>enabled</title>
<ellipse fill="none" stroke="#0000ff" cx="620.5917" cy="-18" rx="46.5926" ry="18"/>
<text text-anchor="middle" x="620.5917" y="-14.3" font-family="Times,serif" font-size="14.00" fill="#000000">boolean</text>
</g>
<!-- notification&#45;&gt;enabled -->
<g id="edge5" class="edge">
<title>notification&#45;&gt;enabled</title>
<path fill="none" stroke="#0000ff" d="M759.4465,-91.6928C741.5093,-85.5936 720.6934,-77.766 702.5917,-69 685.0592,-60.5097 666.5491,-49.2199 651.5608,-39.4211"/>
<polygon fill="#0000ff" stroke="#0000ff" points="653.4443,-36.4704 643.1769,-33.8565 649.5732,-42.3027 653.4443,-36.4704"/>
<text text-anchor="middle" x="731.0917" y="-57.8" font-family="Times,serif" font-size="14.00" fill="#000000">enabled</text>
</g>
<!-- archived -->
<g id="node7" class="node">
<title>archived</title>
<ellipse fill="none" stroke="#0000ff" cx="732.5917" cy="-18" rx="46.5926" ry="18"/>
<text text-anchor="middle" x="732.5917" y="-14.3" font-family="Times,serif" font-size="14.00" fill="#000000">boolean</text>
</g>
<!-- notification&#45;&gt;archived -->
<g id="edge6" class="edge">
<title>notification&#45;&gt;archived</title>
<path fill="none" stroke="#0000ff" d="M788.4262,-87.3943C778.2072,-74.6935 764.2626,-57.3624 752.8657,-43.1977"/>
<polygon fill="#0000ff" stroke="#0000ff" points="755.493,-40.8798 746.4973,-35.2827 750.0392,-45.2679 755.493,-40.8798"/>
<text text-anchor="middle" x="804.0917" y="-57.8" font-family="Times,serif" font-size="14.00" fill="#000000">archived</text>
</g>
<!-- description -->
<g id="node8" class="node">
<title>description</title>
<ellipse fill="none" stroke="#0000ff" cx="872.5917" cy="-18" rx="75.2868" ry="18"/>
<text text-anchor="middle" x="872.5917" y="-14.3" font-family="Times,serif" font-size="14.00" fill="#000000">narrative text</text>
</g>
<!-- notification&#45;&gt;description -->
<g id="edge7" class="edge">
<title>notification&#45;&gt;description</title>
<path fill="none" stroke="#0000ff" d="M821.8728,-87.8238C827.8432,-82.0995 834.2505,-75.5152 839.5917,-69 845.7126,-61.5337 851.6759,-52.8854 856.8115,-44.8553"/>
<polygon fill="#0000ff" stroke="#0000ff" points="859.9171,-46.4887 862.2224,-36.1477 853.9715,-42.7941 859.9171,-46.4887"/>
<text text-anchor="middle" x="891.5917" y="-57.8" font-family="Times,serif" font-size="14.00" fill="#000000">description</text>
</g>
<!-- note -->
<g id="node9" class="node">
<title>note</title>
<ellipse fill="none" stroke="#0000ff" cx="1041.5917" cy="-18" rx="75.2868" ry="18"/>
<text text-anchor="middle" x="1041.5917" y="-14.3" font-family="Times,serif" font-size="14.00" fill="#000000">narrative text</text>
</g>
<!-- notification&#45;&gt;note -->
<g id="edge8" class="edge">
<title>notification&#45;&gt;note</title>
<path fill="none" stroke="#0000ff" d="M850.8071,-93.0703C882.4752,-85.0384 920.8509,-74.8765 936.5917,-69 958.9445,-60.655 982.9455,-49.1988 1002.3509,-39.2582"/>
<polygon fill="#0000ff" stroke="#0000ff" points="1004.2169,-42.2331 1011.4807,-34.5202 1000.9925,-36.0199 1004.2169,-42.2331"/>
<text text-anchor="middle" x="988.5917" y="-57.8" font-family="Times,serif" font-size="14.00" fill="#000000">note</text>
</g>
<!-- category -->
<g id="node10" class="node">
<title>category</title>
<ellipse fill="none" stroke="#000000" cx="1186.5917" cy="-18" rx="51.9908" ry="18"/>
<text text-anchor="middle" x="1186.5917" y="-14.3" font-family="Times,serif" font-size="14.00" fill="#000000">category</text>
</g>
<!-- notification&#45;&gt;category -->
<g id="edge9" class="edge">
<title>notification&#45;&gt;category</title>
<path fill="none" stroke="#0000ff" d="M848.9003,-92.6161C857.4085,-90.5711 866.2396,-88.5998 874.5917,-87 933.6092,-75.6954 949.7499,-81.1865 1008.5917,-69 1061.4978,-58.0428 1073.6808,-50.9792 1125.5917,-36 1129.3628,-34.9118 1133.2628,-33.7788 1137.1831,-32.6343"/>
<polygon fill="#0000ff" stroke="#0000ff" points="1138.2956,-35.9556 1146.9081,-29.7851 1136.3274,-29.238 1138.2956,-35.9556"/>
<text text-anchor="middle" x="1099.5917" y="-57.8" font-family="Times,serif" font-size="14.00" fill="#000000">category</text>
</g>
<!-- in taxon -->
<g id="node12" class="node">
<title>in taxon</title>
<ellipse fill="none" stroke="#0000ff" cx="1329.5917" cy="-18" rx="72.5877" ry="18"/>
<text text-anchor="middle" x="1329.5917" y="-14.3" font-family="Times,serif" font-size="14.00" fill="#000000">system taxon</text>
</g>
<!-- notification&#45;&gt;in taxon -->
<g id="edge10" class="edge">
<title>notification&#45;&gt;in taxon</title>
<path fill="none" stroke="#0000ff" d="M848.0489,-92.3506C856.8011,-90.2811 865.9377,-88.3692 874.5917,-87 989.4386,-68.8291 1020.8567,-87.8649 1135.5917,-69 1183.3818,-61.1423 1236.5015,-46.7708 1275.0562,-35.2817"/>
<polygon fill="#0000ff" stroke="#0000ff" points="1276.4637,-38.5132 1285.0291,-32.2774 1274.4445,-31.8107 1276.4637,-38.5132"/>
<text text-anchor="middle" x="1235.5917" y="-57.8" font-family="Times,serif" font-size="14.00" fill="#000000">in taxon</text>
</g>
<!-- has data -->
<g id="node13" class="node">
<title>has data</title>
<ellipse fill="none" stroke="#0000ff" cx="1451.5917" cy="-18" rx="31.3957" ry="18"/>
<text text-anchor="middle" x="1451.5917" y="-14.3" font-family="Times,serif" font-size="14.00" fill="#000000">data</text>
</g>
<!-- notification&#45;&gt;has data -->
<g id="edge11" class="edge">
<title>notification&#45;&gt;has data</title>
<path fill="none" stroke="#0000ff" d="M848.0241,-92.1881C856.7787,-90.1335 865.9224,-88.2687 874.5917,-87 1048.0379,-61.6166 1094.9219,-92.8058 1268.5917,-69 1333.2133,-60.142 1349.7767,-56.8165 1411.5917,-36 1413.7027,-35.2891 1415.8534,-34.5057 1418.0073,-33.6756"/>
<polygon fill="#0000ff" stroke="#0000ff" points="1419.4483,-36.8673 1427.3572,-29.8175 1416.7782,-30.3966 1419.4483,-36.8673"/>
<text text-anchor="middle" x="1384.0917" y="-57.8" font-family="Times,serif" font-size="14.00" fill="#000000">has data</text>
</g>
<!-- has control actor -->
<g id="node14" class="node">
<title>has control actor</title>
<ellipse fill="none" stroke="#0000ff" cx="1572.5917" cy="-18" rx="71.4873" ry="18"/>
<text text-anchor="middle" x="1572.5917" y="-14.3" font-family="Times,serif" font-size="14.00" fill="#000000">control actor</text>
</g>
<!-- notification&#45;&gt;has control actor -->
<g id="edge12" class="edge">
<title>notification&#45;&gt;has control actor</title>
<path fill="none" stroke="#0000ff" d="M847.6254,-92.1902C856.498,-90.1076 865.787,-88.232 874.5917,-87 1114.1677,-53.4761 1180.4372,-111.4612 1418.5917,-69 1455.7451,-62.3758 1496.1969,-48.7133 1526.3148,-37.1955"/>
<polygon fill="#0000ff" stroke="#0000ff" points="1527.66,-40.4278 1535.713,-33.5429 1525.1242,-33.9032 1527.66,-40.4278"/>
<text text-anchor="middle" x="1537.0917" y="-57.8" font-family="Times,serif" font-size="14.00" fill="#000000">has control actor</text>
</g>
<!-- named thing_category -->
<g id="node11" class="node">
<title>named thing_category</title>
<ellipse fill="none" stroke="#0000ff" cx="953.5917" cy="-105" rx="69.5877" ry="18"/>
<text text-anchor="middle" x="953.5917" y="-101.3" font-family="Times,serif" font-size="14.00" fill="#000000">named thing</text>
</g>
</g>
</svg>
