<?xml version="1.0" encoding="UTF-8" standalone="no"?>
<!DOCTYPE svg PUBLIC "-//W3C//DTD SVG 1.1//EN"
 "http://www.w3.org/Graphics/SVG/1.1/DTD/svg11.dtd">
<!-- Generated by graphviz version 2.40.1 (20161225.0304)
 -->
<!-- Title: %3 Pages: 1 -->
<svg width="1223pt" height="131pt"
 viewBox="0.00 0.00 1223.29 131.00" xmlns="http://www.w3.org/2000/svg" xmlns:xlink="http://www.w3.org/1999/xlink">
<g id="graph0" class="graph" transform="scale(1 1) rotate(0) translate(4 127)">
<title>%3</title>
<polygon fill="#ffffff" stroke="transparent" points="-4,4 -4,-127 1219.2872,-127 1219.2872,4 -4,4"/>
<!-- notification component -->
<g id="node1" class="node">
<title>notification component</title>
<ellipse fill="none" stroke="#000000" cx="545.4937" cy="-105" rx="118.0794" ry="18"/>
<text text-anchor="middle" x="545.4937" y="-101.3" font-family="Times,serif" font-size="14.00" fill="#000000">notification component</text>
</g>
<!-- control actor -->
<g id="node2" class="node">
<title>control actor</title>
<ellipse fill="none" stroke="#000000" cx="71.4937" cy="-18" rx="71.4873" ry="18"/>
<text text-anchor="middle" x="71.4937" y="-14.3" font-family="Times,serif" font-size="14.00" fill="#000000">control actor</text>
</g>
<!-- notification component&#45;&gt;control actor -->
<g id="edge1" class="edge">
<title>notification component&#45;&gt;control actor</title>
<path fill="none" stroke="#000000" d="M449.3731,-94.4835C398.6397,-88.3052 335.4657,-79.6186 279.4937,-69 228.4284,-59.3123 171.11,-44.9972 129.5948,-33.9973"/>
<polygon fill="#000000" stroke="#000000" points="130.4903,-30.6138 119.9262,-31.4197 128.6871,-37.3776 130.4903,-30.6138"/>
<text text-anchor="middle" x="293.4937" y="-57.8" font-family="Times,serif" font-size="14.00" fill="#000000">is_a</text>
</g>
<!-- id -->
<g id="node3" class="node">
<title>id</title>
<ellipse fill="none" stroke="#0000ff" cx="199.4937" cy="-18" rx="38.1938" ry="18"/>
<text text-anchor="middle" x="199.4937" y="-14.3" font-family="Times,serif" font-size="14.00" fill="#000000">string</text>
</g>
<!-- notification component&#45;&gt;id -->
<g id="edge2" class="edge">
<title>notification component&#45;&gt;id</title>
<path fill="none" stroke="#0000ff" d="M469.5856,-91.1568C408.5722,-79.1553 321.0508,-59.9608 246.4937,-36 243.7641,-35.1228 240.9621,-34.1747 238.1511,-33.1884"/>
<polygon fill="#0000ff" stroke="#0000ff" points="239.2454,-29.8622 228.6513,-29.7349 236.8537,-36.4409 239.2454,-29.8622"/>
<text text-anchor="middle" x="367.4937" y="-57.8" font-family="Times,serif" font-size="14.00" fill="#000000">id</text>
</g>
<!-- name -->
<g id="node4" class="node">
<title>name</title>
<ellipse fill="none" stroke="#0000ff" cx="312.4937" cy="-18" rx="56.59" ry="18"/>
<text text-anchor="middle" x="312.4937" y="-14.3" font-family="Times,serif" font-size="14.00" fill="#000000">label type</text>
</g>
<!-- notification component&#45;&gt;name -->
<g id="edge3" class="edge">
<title>notification component&#45;&gt;name</title>
<path fill="none" stroke="#0000ff" d="M486.7933,-89.3047C466.8262,-83.4998 444.5061,-76.4926 424.4937,-69 399.9177,-59.7989 373.1425,-47.6871 351.9357,-37.5756"/>
<polygon fill="#0000ff" stroke="#0000ff" points="353.4407,-34.4157 342.9119,-33.234 350.4057,-40.7236 353.4407,-34.4157"/>
<text text-anchor="middle" x="444.4937" y="-57.8" font-family="Times,serif" font-size="14.00" fill="#000000">name</text>
</g>
<!-- enabled -->
<g id="node5" class="node">
<title>enabled</title>
<ellipse fill="none" stroke="#0000ff" cx="433.4937" cy="-18" rx="46.5926" ry="18"/>
<text text-anchor="middle" x="433.4937" y="-14.3" font-family="Times,serif" font-size="14.00" fill="#000000">boolean</text>
</g>
<!-- notification component&#45;&gt;enabled -->
<g id="edge4" class="edge">
<title>notification component&#45;&gt;enabled</title>
<path fill="none" stroke="#0000ff" d="M512.5297,-87.5866C503.153,-82.0976 493.1444,-75.7039 484.4937,-69 474.3888,-61.1693 464.2324,-51.4732 455.6727,-42.6449"/>
<polygon fill="#0000ff" stroke="#0000ff" points="458.0201,-40.0335 448.603,-35.1788 452.9373,-44.8466 458.0201,-40.0335"/>
<text text-anchor="middle" x="512.9937" y="-57.8" font-family="Times,serif" font-size="14.00" fill="#000000">enabled</text>
</g>
<!-- archived -->
<g id="node6" class="node">
<title>archived</title>
<ellipse fill="none" stroke="#0000ff" cx="545.4937" cy="-18" rx="46.5926" ry="18"/>
<text text-anchor="middle" x="545.4937" y="-14.3" font-family="Times,serif" font-size="14.00" fill="#000000">boolean</text>
</g>
<!-- notification component&#45;&gt;archived -->
<g id="edge5" class="edge">
<title>notification component&#45;&gt;archived</title>
<path fill="none" stroke="#0000ff" d="M545.4937,-86.9735C545.4937,-75.1918 545.4937,-59.5607 545.4937,-46.1581"/>
<polygon fill="#0000ff" stroke="#0000ff" points="548.9938,-46.0033 545.4937,-36.0034 541.9938,-46.0034 548.9938,-46.0033"/>
<text text-anchor="middle" x="576.9937" y="-57.8" font-family="Times,serif" font-size="14.00" fill="#000000">archived</text>
</g>
<!-- description -->
<g id="node7" class="node">
<title>description</title>
<ellipse fill="none" stroke="#0000ff" cx="685.4937" cy="-18" rx="75.2868" ry="18"/>
<text text-anchor="middle" x="685.4937" y="-14.3" font-family="Times,serif" font-size="14.00" fill="#000000">narrative text</text>
</g>
<!-- notification component&#45;&gt;description -->
<g id="edge6" class="edge">
<title>notification component&#45;&gt;description</title>
<path fill="none" stroke="#0000ff" d="M579.6695,-87.6261C590.3311,-81.944 602.0335,-75.4338 612.4937,-69 626.403,-60.4447 641.2617,-50.2672 653.9185,-41.2624"/>
<polygon fill="#0000ff" stroke="#0000ff" points="656.2095,-43.9262 662.2904,-35.2501 652.1263,-38.2405 656.2095,-43.9262"/>
<text text-anchor="middle" x="676.4937" y="-57.8" font-family="Times,serif" font-size="14.00" fill="#000000">description</text>
</g>
<!-- note -->
<g id="node8" class="node">
<title>note</title>
<ellipse fill="none" stroke="#0000ff" cx="854.4937" cy="-18" rx="75.2868" ry="18"/>
<text text-anchor="middle" x="854.4937" y="-14.3" font-family="Times,serif" font-size="14.00" fill="#000000">narrative text</text>
</g>
<!-- notification component&#45;&gt;note -->
<g id="edge7" class="edge">
<title>notification component&#45;&gt;note</title>
<path fill="none" stroke="#0000ff" d="M625.0228,-91.6077C655.4719,-85.7326 690.3569,-78.0873 721.4937,-69 751.069,-60.3684 783.3573,-48.0595 808.7135,-37.6967"/>
<polygon fill="#0000ff" stroke="#0000ff" points="810.165,-40.8841 818.072,-33.8321 807.4931,-34.414 810.165,-40.8841"/>
<text text-anchor="middle" x="782.4937" y="-57.8" font-family="Times,serif" font-size="14.00" fill="#000000">note</text>
</g>
<!-- category -->
<g id="node9" class="node">
<title>category</title>
<ellipse fill="none" stroke="#000000" cx="999.4937" cy="-18" rx="51.9908" ry="18"/>
<text text-anchor="middle" x="999.4937" y="-14.3" font-family="Times,serif" font-size="14.00" fill="#000000">category</text>
</g>
<!-- notification component&#45;&gt;category -->
<g id="edge8" class="edge">
<title>notification component&#45;&gt;category</title>
<path fill="none" stroke="#0000ff" d="M632.2503,-92.666C645.7222,-90.7616 659.482,-88.8229 672.4937,-87 730.2585,-78.9073 745.1904,-79.8909 802.4937,-69 863.5983,-57.3867 878.4258,-52.1398 938.4937,-36 942.3425,-34.9658 946.3187,-33.8655 950.3097,-32.7382"/>
<polygon fill="#0000ff" stroke="#0000ff" points="951.5492,-36.0238 960.1969,-29.9027 949.6195,-29.2951 951.5492,-36.0238"/>
<text text-anchor="middle" x="903.4937" y="-57.8" font-family="Times,serif" font-size="14.00" fill="#000000">category</text>
</g>
<!-- in taxon -->
<g id="node11" class="node">
<title>in taxon</title>
<ellipse fill="none" stroke="#0000ff" cx="1142.4937" cy="-18" rx="72.5877" ry="18"/>
<text text-anchor="middle" x="1142.4937" y="-14.3" font-family="Times,serif" font-size="14.00" fill="#000000">system taxon</text>
</g>
<!-- notification component&#45;&gt;in taxon -->
<g id="edge9" class="edge">
<title>notification component&#45;&gt;in taxon</title>
<path fill="none" stroke="#0000ff" d="M629.4125,-92.2185C643.7629,-90.2873 658.5401,-88.4572 672.4937,-87 790.7864,-74.6465 822.0154,-87.5641 939.4937,-69 990.0609,-61.0093 1046.4517,-46.3677 1086.9415,-34.8157"/>
<polygon fill="#0000ff" stroke="#0000ff" points="1087.9806,-38.1587 1096.6205,-32.0266 1086.0423,-31.4324 1087.9806,-38.1587"/>
<text text-anchor="middle" x="1042.4937" y="-57.8" font-family="Times,serif" font-size="14.00" fill="#000000">in taxon</text>
</g>
<!-- named thing_category -->
<g id="node10" class="node">
<title>named thing_category</title>
<ellipse fill="none" stroke="#0000ff" cx="751.4937" cy="-105" rx="69.5877" ry="18"/>
<text text-anchor="middle" x="751.4937" y="-101.3" font-family="Times,serif" font-size="14.00" fill="#000000">named thing</text>
</g>
</g>
</svg>
