<?xml version="1.0" encoding="UTF-8" standalone="no"?>
<!DOCTYPE svg PUBLIC "-//W3C//DTD SVG 1.1//EN"
 "http://www.w3.org/Graphics/SVG/1.1/DTD/svg11.dtd">
<!-- Generated by graphviz version 2.40.1 (20161225.0304)
 -->
<!-- Title: %3 Pages: 1 -->
<svg width="1056pt" height="131pt"
 viewBox="0.00 0.00 1055.54 131.00" xmlns="http://www.w3.org/2000/svg" xmlns:xlink="http://www.w3.org/1999/xlink">
<g id="graph0" class="graph" transform="scale(1 1) rotate(0) translate(4 127)">
<title>%3</title>
<polygon fill="#ffffff" stroke="transparent" points="-4,4 -4,-127 1051.5392,-127 1051.5392,4 -4,4"/>
<!-- ontology class -->
<g id="node1" class="node">
<title>ontology class</title>
<ellipse fill="none" stroke="#000000" cx="485.5438" cy="-105" rx="77.1866" ry="18"/>
<text text-anchor="middle" x="485.5438" y="-101.3" font-family="Times,serif" font-size="14.00" fill="#000000">ontology class</text>
</g>
<!-- named thing -->
<g id="node2" class="node">
<title>named thing</title>
<ellipse fill="none" stroke="#000000" cx="69.5438" cy="-18" rx="69.5877" ry="18"/>
<text text-anchor="middle" x="69.5438" y="-14.3" font-family="Times,serif" font-size="14.00" fill="#000000">named thing</text>
</g>
<!-- ontology class&#45;&gt;named thing -->
<g id="edge1" class="edge">
<title>ontology class&#45;&gt;named thing</title>
<path fill="none" stroke="#000000" d="M419.8878,-95.4462C377.176,-88.877 320.358,-79.4715 270.5438,-69 221.8251,-58.7588 167.0918,-44.7009 127.0563,-33.9377"/>
<polygon fill="#000000" stroke="#000000" points="127.7739,-30.5061 117.2071,-31.2766 125.948,-37.2638 127.7739,-30.5061"/>
<text text-anchor="middle" x="284.5438" y="-57.8" font-family="Times,serif" font-size="14.00" fill="#000000">is_a</text>
</g>
<!-- id -->
<g id="node3" class="node">
<title>id</title>
<ellipse fill="none" stroke="#0000ff" cx="195.5438" cy="-18" rx="38.1938" ry="18"/>
<text text-anchor="middle" x="195.5438" y="-14.3" font-family="Times,serif" font-size="14.00" fill="#000000">string</text>
</g>
<!-- ontology class&#45;&gt;id -->
<g id="edge2" class="edge">
<title>ontology class&#45;&gt;id</title>
<path fill="none" stroke="#0000ff" d="M433.466,-91.6522C383.9814,-78.6307 307.6671,-57.6685 242.5438,-36 239.9517,-35.1375 237.2916,-34.2172 234.6189,-33.2661"/>
<polygon fill="#0000ff" stroke="#0000ff" points="235.5776,-29.8898 224.9838,-29.735 233.1688,-36.4623 235.5776,-29.8898"/>
<text text-anchor="middle" x="356.5438" y="-57.8" font-family="Times,serif" font-size="14.00" fill="#000000">id</text>
</g>
<!-- name -->
<g id="node4" class="node">
<title>name</title>
<ellipse fill="none" stroke="#0000ff" cx="308.5438" cy="-18" rx="56.59" ry="18"/>
<text text-anchor="middle" x="308.5438" y="-14.3" font-family="Times,serif" font-size="14.00" fill="#000000">label type</text>
</g>
<!-- ontology class&#45;&gt;name -->
<g id="edge3" class="edge">
<title>ontology class&#45;&gt;name</title>
<path fill="none" stroke="#0000ff" d="M451.5125,-88.8076C438.6532,-82.6515 423.9029,-75.5454 410.5438,-69 389.7644,-58.8189 366.6984,-47.304 347.7647,-37.7953"/>
<polygon fill="#0000ff" stroke="#0000ff" points="349.3366,-34.6682 338.8301,-33.3031 346.1922,-40.9222 349.3366,-34.6682"/>
<text text-anchor="middle" x="430.5438" y="-57.8" font-family="Times,serif" font-size="14.00" fill="#000000">name</text>
</g>
<!-- enabled -->
<g id="node5" class="node">
<title>enabled</title>
<ellipse fill="none" stroke="#0000ff" cx="429.5438" cy="-18" rx="46.5926" ry="18"/>
<text text-anchor="middle" x="429.5438" y="-14.3" font-family="Times,serif" font-size="14.00" fill="#000000">boolean</text>
</g>
<!-- ontology class&#45;&gt;enabled -->
<g id="edge4" class="edge">
<title>ontology class&#45;&gt;enabled</title>
<path fill="none" stroke="#0000ff" d="M473.9406,-86.9735C466.004,-74.6435 455.3537,-58.0975 446.4739,-44.3021"/>
<polygon fill="#0000ff" stroke="#0000ff" points="449.2961,-42.22 440.9406,-35.7057 443.4101,-46.0087 449.2961,-42.22"/>
<text text-anchor="middle" x="490.0438" y="-57.8" font-family="Times,serif" font-size="14.00" fill="#000000">enabled</text>
</g>
<!-- archived -->
<g id="node6" class="node">
<title>archived</title>
<ellipse fill="none" stroke="#0000ff" cx="541.5438" cy="-18" rx="46.5926" ry="18"/>
<text text-anchor="middle" x="541.5438" y="-14.3" font-family="Times,serif" font-size="14.00" fill="#000000">boolean</text>
</g>
<!-- ontology class&#45;&gt;archived -->
<g id="edge5" class="edge">
<title>ontology class&#45;&gt;archived</title>
<path fill="none" stroke="#0000ff" d="M504.5265,-87.3726C509.8255,-81.8313 515.2905,-75.4631 519.5438,-69 524.2402,-61.8637 528.3208,-53.5588 531.6494,-45.7487"/>
<polygon fill="#0000ff" stroke="#0000ff" points="534.9864,-46.8304 535.4532,-36.2458 528.4877,-44.229 534.9864,-46.8304"/>
<text text-anchor="middle" x="560.0438" y="-57.8" font-family="Times,serif" font-size="14.00" fill="#000000">archived</text>
</g>
<!-- description -->
<g id="node7" class="node">
<title>description</title>
<ellipse fill="none" stroke="#0000ff" cx="681.5438" cy="-18" rx="75.2868" ry="18"/>
<text text-anchor="middle" x="681.5438" y="-14.3" font-family="Times,serif" font-size="14.00" fill="#000000">narrative text</text>
</g>
<!-- ontology class&#45;&gt;description -->
<g id="edge6" class="edge">
<title>ontology class&#45;&gt;description</title>
<path fill="none" stroke="#0000ff" d="M535.4278,-91.211C554.5802,-85.2639 576.4204,-77.6729 595.5438,-69 613.252,-60.9689 631.9289,-50.2016 647.3364,-40.6302"/>
<polygon fill="#0000ff" stroke="#0000ff" points="649.4102,-43.4601 655.9982,-35.1626 645.6737,-37.5407 649.4102,-43.4601"/>
<text text-anchor="middle" x="663.5438" y="-57.8" font-family="Times,serif" font-size="14.00" fill="#000000">description</text>
</g>
<!-- note -->
<g id="node8" class="node">
<title>note</title>
<ellipse fill="none" stroke="#0000ff" cx="850.5438" cy="-18" rx="75.2868" ry="18"/>
<text text-anchor="middle" x="850.5438" y="-14.3" font-family="Times,serif" font-size="14.00" fill="#000000">narrative text</text>
</g>
<!-- ontology class&#45;&gt;note -->
<g id="edge7" class="edge">
<title>ontology class&#45;&gt;note</title>
<path fill="none" stroke="#0000ff" d="M541.8652,-92.575C551.7323,-90.5806 561.9194,-88.637 571.5438,-87 632.0865,-76.7021 648.8588,-83.462 708.5438,-69 741.2229,-61.0817 776.8326,-48.2814 804.2174,-37.486"/>
<polygon fill="#0000ff" stroke="#0000ff" points="805.5534,-40.7213 813.5424,-33.7624 802.9575,-34.2204 805.5534,-40.7213"/>
<text text-anchor="middle" x="772.5438" y="-57.8" font-family="Times,serif" font-size="14.00" fill="#000000">note</text>
</g>
<!-- category -->
<g id="node9" class="node">
<title>category</title>
<ellipse fill="none" stroke="#000000" cx="995.5438" cy="-18" rx="51.9908" ry="18"/>
<text text-anchor="middle" x="995.5438" y="-14.3" font-family="Times,serif" font-size="14.00" fill="#000000">category</text>
</g>
<!-- ontology class&#45;&gt;category -->
<g id="edge8" class="edge">
<title>ontology class&#45;&gt;category</title>
<path fill="none" stroke="#0000ff" d="M540.8772,-92.3565C551.0376,-90.3379 561.58,-88.4427 571.5438,-87 669.0742,-72.878 695.1748,-84.1948 792.5438,-69 856.5619,-59.0097 871.8895,-52.5092 934.5438,-36 938.3977,-34.9845 942.3774,-33.8976 946.3708,-32.7795"/>
<polygon fill="#0000ff" stroke="#0000ff" points="947.6051,-36.0672 956.2621,-29.9592 945.6856,-29.3355 947.6051,-36.0672"/>
<text text-anchor="middle" x="898.5438" y="-57.8" font-family="Times,serif" font-size="14.00" fill="#000000">category</text>
</g>
<!-- named thing_category -->
<g id="node10" class="node">
<title>named thing_category</title>
<ellipse fill="none" stroke="#0000ff" cx="650.5438" cy="-105" rx="69.5877" ry="18"/>
<text text-anchor="middle" x="650.5438" y="-101.3" font-family="Times,serif" font-size="14.00" fill="#000000">named thing</text>
</g>
</g>
</svg>
