<?xml version="1.0" encoding="UTF-8" standalone="no"?>
<!DOCTYPE svg PUBLIC "-//W3C//DTD SVG 1.1//EN"
 "http://www.w3.org/Graphics/SVG/1.1/DTD/svg11.dtd">
<!-- Generated by graphviz version 2.40.1 (20161225.0304)
 -->
<!-- Title: %3 Pages: 1 -->
<svg width="1661pt" height="131pt"
 viewBox="0.00 0.00 1660.68 131.00" xmlns="http://www.w3.org/2000/svg" xmlns:xlink="http://www.w3.org/1999/xlink">
<g id="graph0" class="graph" transform="scale(1 1) rotate(0) translate(4 127)">
<title>%3</title>
<polygon fill="#ffffff" stroke="transparent" points="-4,4 -4,-127 1656.684,-127 1656.684,4 -4,4"/>
<!-- operational entity -->
<g id="node1" class="node">
<title>operational entity</title>
<ellipse fill="none" stroke="#000000" cx="870.8904" cy="-105" rx="93.6835" ry="18"/>
<text text-anchor="middle" x="870.8904" y="-101.3" font-family="Times,serif" font-size="14.00" fill="#000000">operational entity</text>
</g>
<!-- computational entity -->
<g id="node2" class="node">
<title>computational entity</title>
<ellipse fill="none" stroke="#000000" cx="107.8904" cy="-18" rx="107.781" ry="18"/>
<text text-anchor="middle" x="107.8904" y="-14.3" font-family="Times,serif" font-size="14.00" fill="#000000">computational entity</text>
</g>
<!-- operational entity&#45;&gt;computational entity -->
<g id="edge1" class="edge">
<title>operational entity&#45;&gt;computational entity</title>
<path fill="none" stroke="#000000" d="M784.9538,-97.8094C706.6748,-91.0637 587.9175,-80.3395 484.8904,-69 369.107,-56.2565 340.2423,-52.1908 224.8904,-36 215.6764,-34.7067 206.0621,-33.3079 196.4773,-31.8813"/>
<polygon fill="#000000" stroke="#000000" points="196.926,-28.4096 186.5176,-30.3879 195.888,-35.3322 196.926,-28.4096"/>
<text text-anchor="middle" x="498.8904" y="-57.8" font-family="Times,serif" font-size="14.00" fill="#000000">is_a</text>
</g>
<!-- thing with taxon -->
<g id="node3" class="node">
<title>thing with taxon</title>
<ellipse fill="none" stroke="#000000" cx="320.8904" cy="-18" rx="87.1846" ry="18"/>
<text text-anchor="middle" x="320.8904" y="-14.3" font-family="Times,serif" font-size="14.00" fill="#000000">thing with taxon</text>
</g>
<!-- operational entity&#45;&gt;thing with taxon -->
<g id="edge2" class="edge">
<title>operational entity&#45;&gt;thing with taxon</title>
<path fill="none" stroke="#000000" d="M791.9019,-95.2764C738.4604,-88.48 666.3234,-78.8831 602.8904,-69 519.9336,-56.0751 499.4846,-51.0697 416.8904,-36 409.8945,-34.7236 402.6145,-33.3823 395.331,-32.0316"/>
<polygon fill="#000000" stroke="#000000" points="395.8948,-28.5766 385.4234,-30.1893 394.615,-35.4586 395.8948,-28.5766"/>
<text text-anchor="middle" x="619.3904" y="-57.8" font-family="Times,serif" font-size="14.00" fill="#000000">uses</text>
</g>
<!-- cyber essence -->
<g id="node4" class="node">
<title>cyber essence</title>
<ellipse fill="none" stroke="#000000" cx="502.8904" cy="-18" rx="77.1866" ry="18"/>
<text text-anchor="middle" x="502.8904" y="-14.3" font-family="Times,serif" font-size="14.00" fill="#000000">cyber essence</text>
</g>
<!-- operational entity&#45;&gt;cyber essence -->
<g id="edge3" class="edge">
<title>operational entity&#45;&gt;cyber essence</title>
<path fill="none" stroke="#000000" d="M805.3864,-92.0631C773.2203,-85.5137 733.9384,-77.2226 698.8904,-69 653.1694,-58.2734 601.8042,-44.8571 563.1299,-34.4776"/>
<polygon fill="#000000" stroke="#000000" points="563.6451,-30.9917 553.079,-31.7718 561.8254,-37.7511 563.6451,-30.9917"/>
<text text-anchor="middle" x="715.3904" y="-57.8" font-family="Times,serif" font-size="14.00" fill="#000000">uses</text>
</g>
<!-- id -->
<g id="node5" class="node">
<title>id</title>
<ellipse fill="none" stroke="#0000ff" cx="636.8904" cy="-18" rx="38.1938" ry="18"/>
<text text-anchor="middle" x="636.8904" y="-14.3" font-family="Times,serif" font-size="14.00" fill="#000000">string</text>
</g>
<!-- operational entity&#45;&gt;id -->
<g id="edge4" class="edge">
<title>operational entity&#45;&gt;id</title>
<path fill="none" stroke="#0000ff" d="M827.0049,-88.9793C789.0728,-75.0907 732.8012,-54.3887 683.8904,-36 681.3704,-35.0525 678.776,-34.0724 676.1619,-33.0812"/>
<polygon fill="#0000ff" stroke="#0000ff" points="677.2965,-29.7681 666.7055,-29.4817 674.8063,-36.3102 677.2965,-29.7681"/>
<text text-anchor="middle" x="777.8904" y="-57.8" font-family="Times,serif" font-size="14.00" fill="#000000">id</text>
</g>
<!-- name -->
<g id="node6" class="node">
<title>name</title>
<ellipse fill="none" stroke="#0000ff" cx="749.8904" cy="-18" rx="56.59" ry="18"/>
<text text-anchor="middle" x="749.8904" y="-14.3" font-family="Times,serif" font-size="14.00" fill="#000000">label type</text>
</g>
<!-- operational entity&#45;&gt;name -->
<g id="edge5" class="edge">
<title>operational entity&#45;&gt;name</title>
<path fill="none" stroke="#0000ff" d="M846.6951,-87.6033C827.8672,-74.066 801.5954,-55.1763 781.1708,-40.4908"/>
<polygon fill="#0000ff" stroke="#0000ff" points="782.9765,-37.4784 772.8141,-34.4823 778.8901,-43.1618 782.9765,-37.4784"/>
<text text-anchor="middle" x="837.8904" y="-57.8" font-family="Times,serif" font-size="14.00" fill="#000000">name</text>
</g>
<!-- enabled -->
<g id="node7" class="node">
<title>enabled</title>
<ellipse fill="none" stroke="#0000ff" cx="870.8904" cy="-18" rx="46.5926" ry="18"/>
<text text-anchor="middle" x="870.8904" y="-14.3" font-family="Times,serif" font-size="14.00" fill="#000000">boolean</text>
</g>
<!-- operational entity&#45;&gt;enabled -->
<g id="edge6" class="edge">
<title>operational entity&#45;&gt;enabled</title>
<path fill="none" stroke="#0000ff" d="M870.8904,-86.9735C870.8904,-75.1918 870.8904,-59.5607 870.8904,-46.1581"/>
<polygon fill="#0000ff" stroke="#0000ff" points="874.3905,-46.0033 870.8904,-36.0034 867.3905,-46.0034 874.3905,-46.0033"/>
<text text-anchor="middle" x="899.3904" y="-57.8" font-family="Times,serif" font-size="14.00" fill="#000000">enabled</text>
</g>
<!-- archived -->
<g id="node8" class="node">
<title>archived</title>
<ellipse fill="none" stroke="#0000ff" cx="982.8904" cy="-18" rx="46.5926" ry="18"/>
<text text-anchor="middle" x="982.8904" y="-14.3" font-family="Times,serif" font-size="14.00" fill="#000000">boolean</text>
</g>
<!-- operational entity&#45;&gt;archived -->
<g id="edge7" class="edge">
<title>operational entity&#45;&gt;archived</title>
<path fill="none" stroke="#0000ff" d="M903.2233,-87.9553C912.7806,-82.3848 923.0452,-75.8546 931.8904,-69 941.9952,-61.1693 952.1516,-51.4732 960.7114,-42.6449"/>
<polygon fill="#0000ff" stroke="#0000ff" points="963.4468,-44.8466 967.7811,-35.1788 958.3639,-40.0335 963.4468,-44.8466"/>
<text text-anchor="middle" x="980.3904" y="-57.8" font-family="Times,serif" font-size="14.00" fill="#000000">archived</text>
</g>
<!-- description -->
<g id="node9" class="node">
<title>description</title>
<ellipse fill="none" stroke="#0000ff" cx="1122.8904" cy="-18" rx="75.2868" ry="18"/>
<text text-anchor="middle" x="1122.8904" y="-14.3" font-family="Times,serif" font-size="14.00" fill="#000000">narrative text</text>
</g>
<!-- operational entity&#45;&gt;description -->
<g id="edge8" class="edge">
<title>operational entity&#45;&gt;description</title>
<path fill="none" stroke="#0000ff" d="M935.5999,-91.8735C960.9756,-85.9672 990.1298,-78.2306 1015.8904,-69 1038.8022,-60.7902 1063.3815,-49.2809 1083.1973,-39.2731"/>
<polygon fill="#0000ff" stroke="#0000ff" points="1084.9215,-42.3225 1092.2282,-34.6503 1081.7318,-36.0914 1084.9215,-42.3225"/>
<text text-anchor="middle" x="1093.8904" y="-57.8" font-family="Times,serif" font-size="14.00" fill="#000000">description</text>
</g>
<!-- note -->
<g id="node10" class="node">
<title>note</title>
<ellipse fill="none" stroke="#0000ff" cx="1291.8904" cy="-18" rx="75.2868" ry="18"/>
<text text-anchor="middle" x="1291.8904" y="-14.3" font-family="Times,serif" font-size="14.00" fill="#000000">narrative text</text>
</g>
<!-- operational entity&#45;&gt;note -->
<g id="edge9" class="edge">
<title>operational entity&#45;&gt;note</title>
<path fill="none" stroke="#0000ff" d="M938.2747,-92.455C949.802,-90.4964 961.6748,-88.5959 972.8904,-87 1046.3606,-76.5459 1066.3869,-84.8239 1138.8904,-69 1174.5272,-61.2222 1213.5151,-48.1534 1243.2149,-37.1928"/>
<polygon fill="#0000ff" stroke="#0000ff" points="1244.7716,-40.3475 1252.9127,-33.5672 1242.3202,-33.7907 1244.7716,-40.3475"/>
<text text-anchor="middle" x="1206.8904" y="-57.8" font-family="Times,serif" font-size="14.00" fill="#000000">note</text>
</g>
<!-- category -->
<g id="node11" class="node">
<title>category</title>
<ellipse fill="none" stroke="#000000" cx="1436.8904" cy="-18" rx="51.9908" ry="18"/>
<text text-anchor="middle" x="1436.8904" y="-14.3" font-family="Times,serif" font-size="14.00" fill="#000000">category</text>
</g>
<!-- operational entity&#45;&gt;category -->
<g id="edge10" class="edge">
<title>operational entity&#45;&gt;category</title>
<path fill="none" stroke="#0000ff" d="M937.1301,-92.2812C949.0047,-90.2953 961.29,-88.4307 972.8904,-87 1085.2114,-73.1475 1114.8955,-85.28 1226.8904,-69 1294.0119,-59.2429 1310.2133,-52.9415 1375.8904,-36 1379.7495,-35.0046 1383.7329,-33.932 1387.729,-32.8238"/>
<polygon fill="#0000ff" stroke="#0000ff" points="1388.9576,-36.1136 1397.6245,-30.0197 1387.049,-29.3788 1388.9576,-36.1136"/>
<text text-anchor="middle" x="1336.8904" y="-57.8" font-family="Times,serif" font-size="14.00" fill="#000000">category</text>
</g>
<!-- in taxon -->
<g id="node13" class="node">
<title>in taxon</title>
<ellipse fill="none" stroke="#0000ff" cx="1579.8904" cy="-18" rx="72.5877" ry="18"/>
<text text-anchor="middle" x="1579.8904" y="-14.3" font-family="Times,serif" font-size="14.00" fill="#000000">system taxon</text>
</g>
<!-- operational entity&#45;&gt;in taxon -->
<g id="edge11" class="edge">
<title>operational entity&#45;&gt;in taxon</title>
<path fill="none" stroke="#0000ff" d="M936.553,-92.1219C948.6002,-90.1272 961.0938,-88.3007 972.8904,-87 1149.7761,-67.4958 1196.756,-94.4085 1372.8904,-69 1424.8388,-61.5061 1482.7519,-46.6654 1524.0816,-34.9167"/>
<polygon fill="#0000ff" stroke="#0000ff" points="1525.3097,-38.2055 1533.9539,-32.0794 1523.3761,-31.4778 1525.3097,-38.2055"/>
<text text-anchor="middle" x="1476.8904" y="-57.8" font-family="Times,serif" font-size="14.00" fill="#000000">in taxon</text>
</g>
<!-- named thing_category -->
<g id="node12" class="node">
<title>named thing_category</title>
<ellipse fill="none" stroke="#0000ff" cx="1051.8904" cy="-105" rx="69.5877" ry="18"/>
<text text-anchor="middle" x="1051.8904" y="-101.3" font-family="Times,serif" font-size="14.00" fill="#000000">named thing</text>
</g>
</g>
</svg>
