<?xml version="1.0" encoding="UTF-8" standalone="no"?>
<!DOCTYPE svg PUBLIC "-//W3C//DTD SVG 1.1//EN"
 "http://www.w3.org/Graphics/SVG/1.1/DTD/svg11.dtd">
<!-- Generated by graphviz version 2.40.1 (20161225.0304)
 -->
<!-- Title: %3 Pages: 1 -->
<svg width="1872pt" height="131pt"
 viewBox="0.00 0.00 1871.82 131.00" xmlns="http://www.w3.org/2000/svg" xmlns:xlink="http://www.w3.org/1999/xlink">
<g id="graph0" class="graph" transform="scale(1 1) rotate(0) translate(4 127)">
<title>%3</title>
<polygon fill="#ffffff" stroke="transparent" points="-4,4 -4,-127 1867.8206,-127 1867.8206,4 -4,4"/>
<!-- operational activity -->
<g id="node1" class="node">
<title>operational activity</title>
<ellipse fill="none" stroke="#000000" cx="938.0352" cy="-105" rx="101.2821" ry="18"/>
<text text-anchor="middle" x="938.0352" y="-101.3" font-family="Times,serif" font-size="14.00" fill="#000000">operational activity</text>
</g>
<!-- computational process or activity -->
<g id="node2" class="node">
<title>computational process or activity</title>
<ellipse fill="none" stroke="#000000" cx="167.0352" cy="-18" rx="167.0704" ry="18"/>
<text text-anchor="middle" x="167.0352" y="-14.3" font-family="Times,serif" font-size="14.00" fill="#000000">computational process or activity</text>
</g>
<!-- operational activity&#45;&gt;computational process or activity -->
<g id="edge1" class="edge">
<title>operational activity&#45;&gt;computational process or activity</title>
<path fill="none" stroke="#000000" d="M842.4186,-98.8186C754.9604,-92.7362 622.0769,-82.418 507.0352,-69 426.2545,-59.578 335.1467,-45.7381 267.5891,-34.8521"/>
<polygon fill="#000000" stroke="#000000" points="267.8064,-31.3418 257.3758,-33.2 266.6885,-38.252 267.8064,-31.3418"/>
<text text-anchor="middle" x="521.0352" y="-57.8" font-family="Times,serif" font-size="14.00" fill="#000000">is_a</text>
</g>
<!-- occurrent -->
<g id="node3" class="node">
<title>occurrent</title>
<ellipse fill="none" stroke="#000000" cx="409.0352" cy="-18" rx="56.59" ry="18"/>
<text text-anchor="middle" x="409.0352" y="-14.3" font-family="Times,serif" font-size="14.00" fill="#000000">occurrent</text>
</g>
<!-- operational activity&#45;&gt;occurrent -->
<g id="edge2" class="edge">
<title>operational activity&#45;&gt;occurrent</title>
<path fill="none" stroke="#000000" d="M842.9987,-98.5757C775.4167,-93.094 682.6909,-83.7167 602.0352,-69 544.6636,-58.5318 531.3904,-51.006 475.0352,-36 470.7224,-34.8516 466.2536,-33.6525 461.7676,-32.4423"/>
<polygon fill="#000000" stroke="#000000" points="462.5403,-29.0256 451.9732,-29.7908 460.7111,-35.7824 462.5403,-29.0256"/>
<text text-anchor="middle" x="618.5352" y="-57.8" font-family="Times,serif" font-size="14.00" fill="#000000">uses</text>
</g>
<!-- id -->
<g id="node4" class="node">
<title>id</title>
<ellipse fill="none" stroke="#0000ff" cx="522.0352" cy="-18" rx="38.1938" ry="18"/>
<text text-anchor="middle" x="522.0352" y="-14.3" font-family="Times,serif" font-size="14.00" fill="#000000">string</text>
</g>
<!-- operational activity&#45;&gt;id -->
<g id="edge3" class="edge">
<title>operational activity&#45;&gt;id</title>
<path fill="none" stroke="#0000ff" d="M853.9005,-94.9024C778.2291,-84.4999 664.6004,-65.5864 569.0352,-36 566.2964,-35.1521 563.4875,-34.2258 560.6716,-33.2552"/>
<polygon fill="#0000ff" stroke="#0000ff" points="561.756,-29.9258 551.1616,-29.8338 559.3863,-36.5125 561.756,-29.9258"/>
<text text-anchor="middle" x="706.0352" y="-57.8" font-family="Times,serif" font-size="14.00" fill="#000000">id</text>
</g>
<!-- name -->
<g id="node5" class="node">
<title>name</title>
<ellipse fill="none" stroke="#0000ff" cx="635.0352" cy="-18" rx="56.59" ry="18"/>
<text text-anchor="middle" x="635.0352" y="-14.3" font-family="Times,serif" font-size="14.00" fill="#000000">label type</text>
</g>
<!-- operational activity&#45;&gt;name -->
<g id="edge4" class="edge">
<title>operational activity&#45;&gt;name</title>
<path fill="none" stroke="#0000ff" d="M866.2978,-92.2534C836.0155,-86.2209 800.5421,-78.2915 769.0352,-69 738.2318,-59.916 704.442,-47.0347 678.4996,-36.4908"/>
<polygon fill="#0000ff" stroke="#0000ff" points="679.5438,-33.1361 668.9637,-32.577 676.8859,-39.6119 679.5438,-33.1361"/>
<text text-anchor="middle" x="789.0352" y="-57.8" font-family="Times,serif" font-size="14.00" fill="#000000">name</text>
</g>
<!-- enabled -->
<g id="node6" class="node">
<title>enabled</title>
<ellipse fill="none" stroke="#0000ff" cx="756.0352" cy="-18" rx="46.5926" ry="18"/>
<text text-anchor="middle" x="756.0352" y="-14.3" font-family="Times,serif" font-size="14.00" fill="#000000">boolean</text>
</g>
<!-- operational activity&#45;&gt;enabled -->
<g id="edge5" class="edge">
<title>operational activity&#45;&gt;enabled</title>
<path fill="none" stroke="#0000ff" d="M887.8478,-89.2588C871.6504,-83.5674 853.8119,-76.6401 838.0352,-69 820.5027,-60.5097 801.9926,-49.2199 787.0043,-39.4211"/>
<polygon fill="#0000ff" stroke="#0000ff" points="788.8877,-36.4704 778.6204,-33.8565 785.0167,-42.3027 788.8877,-36.4704"/>
<text text-anchor="middle" x="866.5352" y="-57.8" font-family="Times,serif" font-size="14.00" fill="#000000">enabled</text>
</g>
<!-- archived -->
<g id="node7" class="node">
<title>archived</title>
<ellipse fill="none" stroke="#0000ff" cx="868.0352" cy="-18" rx="46.5926" ry="18"/>
<text text-anchor="middle" x="868.0352" y="-14.3" font-family="Times,serif" font-size="14.00" fill="#000000">boolean</text>
</g>
<!-- operational activity&#45;&gt;archived -->
<g id="edge6" class="edge">
<title>operational activity&#45;&gt;archived</title>
<path fill="none" stroke="#0000ff" d="M923.5311,-86.9735C913.3545,-74.3254 899.6085,-57.2411 888.3433,-43.2401"/>
<polygon fill="#0000ff" stroke="#0000ff" points="891.0387,-41.0068 882.043,-35.4097 885.5849,-45.395 891.0387,-41.0068"/>
<text text-anchor="middle" x="939.5352" y="-57.8" font-family="Times,serif" font-size="14.00" fill="#000000">archived</text>
</g>
<!-- description -->
<g id="node8" class="node">
<title>description</title>
<ellipse fill="none" stroke="#0000ff" cx="1008.0352" cy="-18" rx="75.2868" ry="18"/>
<text text-anchor="middle" x="1008.0352" y="-14.3" font-family="Times,serif" font-size="14.00" fill="#000000">narrative text</text>
</g>
<!-- operational activity&#45;&gt;description -->
<g id="edge7" class="edge">
<title>operational activity&#45;&gt;description</title>
<path fill="none" stroke="#0000ff" d="M958.0807,-87.0885C963.8301,-81.5393 969.9213,-75.2379 975.0352,-69 981.1561,-61.5337 987.1193,-52.8854 992.255,-44.8553"/>
<polygon fill="#0000ff" stroke="#0000ff" points="995.3606,-46.4887 997.6658,-36.1477 989.415,-42.7941 995.3606,-46.4887"/>
<text text-anchor="middle" x="1027.0352" y="-57.8" font-family="Times,serif" font-size="14.00" fill="#000000">description</text>
</g>
<!-- note -->
<g id="node9" class="node">
<title>note</title>
<ellipse fill="none" stroke="#0000ff" cx="1177.0352" cy="-18" rx="75.2868" ry="18"/>
<text text-anchor="middle" x="1177.0352" y="-14.3" font-family="Times,serif" font-size="14.00" fill="#000000">narrative text</text>
</g>
<!-- operational activity&#45;&gt;note -->
<g id="edge8" class="edge">
<title>operational activity&#45;&gt;note</title>
<path fill="none" stroke="#0000ff" d="M1000.8527,-90.7476C1023.5764,-84.9079 1049.2421,-77.5094 1072.0352,-69 1094.388,-60.655 1118.389,-49.1988 1137.7944,-39.2582"/>
<polygon fill="#0000ff" stroke="#0000ff" points="1139.6604,-42.2331 1146.9242,-34.5202 1136.436,-36.0199 1139.6604,-42.2331"/>
<text text-anchor="middle" x="1124.0352" y="-57.8" font-family="Times,serif" font-size="14.00" fill="#000000">note</text>
</g>
<!-- category -->
<g id="node10" class="node">
<title>category</title>
<ellipse fill="none" stroke="#000000" cx="1322.0352" cy="-18" rx="51.9908" ry="18"/>
<text text-anchor="middle" x="1322.0352" y="-14.3" font-family="Times,serif" font-size="14.00" fill="#000000">category</text>
</g>
<!-- operational activity&#45;&gt;category -->
<g id="edge9" class="edge">
<title>operational activity&#45;&gt;category</title>
<path fill="none" stroke="#0000ff" d="M1012.6353,-92.7826C1061.0259,-84.6993 1119.477,-74.5939 1144.0352,-69 1196.7146,-57.0006 1209.1243,-50.9792 1261.0352,-36 1264.8063,-34.9118 1268.7063,-33.7788 1272.6266,-32.6343"/>
<polygon fill="#0000ff" stroke="#0000ff" points="1273.7391,-35.9556 1282.3516,-29.7851 1271.7709,-29.238 1273.7391,-35.9556"/>
<text text-anchor="middle" x="1233.0352" y="-57.8" font-family="Times,serif" font-size="14.00" fill="#000000">category</text>
</g>
<!-- has input -->
<g id="node12" class="node">
<title>has input</title>
<ellipse fill="none" stroke="#000000" cx="1446.0352" cy="-18" rx="53.8905" ry="18"/>
<text text-anchor="middle" x="1446.0352" y="-14.3" font-family="Times,serif" font-size="14.00" fill="#000000">has input</text>
</g>
<!-- operational activity&#45;&gt;has input -->
<g id="edge10" class="edge">
<title>operational activity&#45;&gt;has input</title>
<path fill="none" stroke="#0000ff" d="M1010.3988,-92.3042C1022.9239,-90.3516 1035.8381,-88.4922 1048.0352,-87 1145.8534,-75.0331 1172.0958,-86.7304 1269.0352,-69 1313.8916,-60.7957 1363.6928,-45.908 1399.0132,-34.3277"/>
<polygon fill="#0000ff" stroke="#0000ff" points="1400.1847,-37.6267 1408.5752,-31.1575 1397.9818,-30.9824 1400.1847,-37.6267"/>
<text text-anchor="middle" x="1367.5352" y="-57.8" font-family="Times,serif" font-size="14.00" fill="#000000">has input</text>
</g>
<!-- has output -->
<g id="node14" class="node">
<title>has output</title>
<ellipse fill="none" stroke="#000000" cx="1578.0352" cy="-18" rx="60.3893" ry="18"/>
<text text-anchor="middle" x="1578.0352" y="-14.3" font-family="Times,serif" font-size="14.00" fill="#000000">has output</text>
</g>
<!-- operational activity&#45;&gt;has output -->
<g id="edge11" class="edge">
<title>operational activity&#45;&gt;has output</title>
<path fill="none" stroke="#0000ff" d="M1009.1795,-92.1659C1022.0766,-90.1796 1035.4317,-88.3447 1048.0352,-87 1206.0069,-70.146 1248.4177,-95.6471 1405.0352,-69 1448.162,-61.6624 1495.7415,-47.1442 1530.0693,-35.4683"/>
<polygon fill="#0000ff" stroke="#0000ff" points="1531.5172,-38.6714 1539.8306,-32.1034 1529.2359,-32.0536 1531.5172,-38.6714"/>
<text text-anchor="middle" x="1506.5352" y="-57.8" font-family="Times,serif" font-size="14.00" fill="#000000">has output</text>
</g>
<!-- enabled by -->
<g id="node16" class="node">
<title>enabled by</title>
<ellipse fill="none" stroke="#000000" cx="1718.0352" cy="-18" rx="61.99" ry="18"/>
<text text-anchor="middle" x="1718.0352" y="-14.3" font-family="Times,serif" font-size="14.00" fill="#000000">enabled by</text>
</g>
<!-- operational activity&#45;&gt;enabled by -->
<g id="edge12" class="edge">
<title>operational activity&#45;&gt;enabled by</title>
<path fill="none" stroke="#0000ff" d="M1008.8686,-92.0596C1021.8586,-90.0713 1035.326,-88.2631 1048.0352,-87 1269.7533,-64.9654 1329.2327,-105.4869 1549.0352,-69 1591.1364,-62.0113 1637.4408,-47.5352 1670.9181,-35.7853"/>
<polygon fill="#0000ff" stroke="#0000ff" points="1672.1937,-39.0464 1680.4406,-32.3952 1669.846,-32.4519 1672.1937,-39.0464"/>
<text text-anchor="middle" x="1650.5352" y="-57.8" font-family="Times,serif" font-size="14.00" fill="#000000">enabled by</text>
</g>
<!-- named thing_category -->
<g id="node11" class="node">
<title>named thing_category</title>
<ellipse fill="none" stroke="#0000ff" cx="1127.0352" cy="-105" rx="69.5877" ry="18"/>
<text text-anchor="middle" x="1127.0352" y="-101.3" font-family="Times,serif" font-size="14.00" fill="#000000">named thing</text>
</g>
<!-- operational activity_has input -->
<g id="node13" class="node">
<title>operational activity_has input</title>
<ellipse fill="none" stroke="#0000ff" cx="1286.0352" cy="-105" rx="71.4873" ry="18"/>
<text text-anchor="middle" x="1286.0352" y="-101.3" font-family="Times,serif" font-size="14.00" fill="#000000">control actor</text>
</g>
<!-- operational activity_has output -->
<g id="node15" class="node">
<title>operational activity_has output</title>
<ellipse fill="none" stroke="#0000ff" cx="1447.0352" cy="-105" rx="71.4873" ry="18"/>
<text text-anchor="middle" x="1447.0352" y="-101.3" font-family="Times,serif" font-size="14.00" fill="#000000">control actor</text>
</g>
<!-- operational activity_enabled by -->
<g id="node17" class="node">
<title>operational activity_enabled by</title>
<ellipse fill="none" stroke="#0000ff" cx="1700.0352" cy="-105" rx="163.5712" ry="18"/>
<text text-anchor="middle" x="1700.0352" y="-101.3" font-family="Times,serif" font-size="14.00" fill="#000000">macrooperational machine mixin</text>
</g>
</g>
</svg>
