<?xml version="1.0" encoding="UTF-8" standalone="no"?>
<!DOCTYPE svg PUBLIC "-//W3C//DTD SVG 1.1//EN"
 "http://www.w3.org/Graphics/SVG/1.1/DTD/svg11.dtd">
<!-- Generated by graphviz version 2.40.1 (20161225.0304)
 -->
<!-- Title: %3 Pages: 1 -->
<svg width="1533pt" height="131pt"
 viewBox="0.00 0.00 1532.74 131.00" xmlns="http://www.w3.org/2000/svg" xmlns:xlink="http://www.w3.org/1999/xlink">
<g id="graph0" class="graph" transform="scale(1 1) rotate(0) translate(4 127)">
<title>%3</title>
<polygon fill="#ffffff" stroke="transparent" points="-4,4 -4,-127 1528.7388,-127 1528.7388,4 -4,4"/>
<!-- orchestration exposure -->
<g id="node1" class="node">
<title>orchestration exposure</title>
<ellipse fill="none" stroke="#000000" cx="726.4937" cy="-105" rx="118.8789" ry="18"/>
<text text-anchor="middle" x="726.4937" y="-101.3" font-family="Times,serif" font-size="14.00" fill="#000000">orchestration exposure</text>
</g>
<!-- control actor -->
<g id="node2" class="node">
<title>control actor</title>
<ellipse fill="none" stroke="#000000" cx="71.4937" cy="-18" rx="71.4873" ry="18"/>
<text text-anchor="middle" x="71.4937" y="-14.3" font-family="Times,serif" font-size="14.00" fill="#000000">control actor</text>
</g>
<!-- orchestration exposure&#45;&gt;control actor -->
<g id="edge1" class="edge">
<title>orchestration exposure&#45;&gt;control actor</title>
<path fill="none" stroke="#000000" d="M620.9762,-96.6771C546.1669,-90.3222 443.4944,-80.6819 353.4937,-69 263.2825,-57.2908 240.7965,-53.3253 151.4937,-36 145.7637,-34.8884 139.8171,-33.6711 133.8702,-32.4105"/>
<polygon fill="#000000" stroke="#000000" points="134.4134,-28.9472 123.9001,-30.2593 132.9369,-35.7898 134.4134,-28.9472"/>
<text text-anchor="middle" x="367.4937" y="-57.8" font-family="Times,serif" font-size="14.00" fill="#000000">is_a</text>
</g>
<!-- exposure event -->
<g id="node3" class="node">
<title>exposure event</title>
<ellipse fill="none" stroke="#000000" cx="242.4937" cy="-18" rx="81.7856" ry="18"/>
<text text-anchor="middle" x="242.4937" y="-14.3" font-family="Times,serif" font-size="14.00" fill="#000000">exposure event</text>
</g>
<!-- orchestration exposure&#45;&gt;exposure event -->
<g id="edge2" class="edge">
<title>orchestration exposure&#45;&gt;exposure event</title>
<path fill="none" stroke="#000000" d="M629.5353,-94.5734C577.6938,-88.3815 512.8913,-79.6547 455.4937,-69 404.0963,-59.4591 346.4739,-45.4574 304.1353,-34.5376"/>
<polygon fill="#000000" stroke="#000000" points="304.8169,-31.0986 294.2583,-31.9746 303.0586,-37.8742 304.8169,-31.0986"/>
<text text-anchor="middle" x="471.9937" y="-57.8" font-family="Times,serif" font-size="14.00" fill="#000000">uses</text>
</g>
<!-- id -->
<g id="node4" class="node">
<title>id</title>
<ellipse fill="none" stroke="#0000ff" cx="380.4937" cy="-18" rx="38.1938" ry="18"/>
<text text-anchor="middle" x="380.4937" y="-14.3" font-family="Times,serif" font-size="14.00" fill="#000000">string</text>
</g>
<!-- orchestration exposure&#45;&gt;id -->
<g id="edge3" class="edge">
<title>orchestration exposure&#45;&gt;id</title>
<path fill="none" stroke="#0000ff" d="M650.2741,-91.0955C589.2745,-79.09 501.924,-59.92 427.4937,-36 424.7641,-35.1228 421.9621,-34.1747 419.1511,-33.1884"/>
<polygon fill="#0000ff" stroke="#0000ff" points="420.2454,-29.8622 409.6513,-29.7349 417.8537,-36.4409 420.2454,-29.8622"/>
<text text-anchor="middle" x="548.4937" y="-57.8" font-family="Times,serif" font-size="14.00" fill="#000000">id</text>
</g>
<!-- name -->
<g id="node5" class="node">
<title>name</title>
<ellipse fill="none" stroke="#0000ff" cx="493.4937" cy="-18" rx="56.59" ry="18"/>
<text text-anchor="middle" x="493.4937" y="-14.3" font-family="Times,serif" font-size="14.00" fill="#000000">label type</text>
</g>
<!-- orchestration exposure&#45;&gt;name -->
<g id="edge4" class="edge">
<title>orchestration exposure&#45;&gt;name</title>
<path fill="none" stroke="#0000ff" d="M667.7933,-89.3047C647.8262,-83.4998 625.5061,-76.4926 605.4937,-69 580.9177,-59.7989 554.1425,-47.6871 532.9357,-37.5756"/>
<polygon fill="#0000ff" stroke="#0000ff" points="534.4407,-34.4157 523.9119,-33.234 531.4057,-40.7236 534.4407,-34.4157"/>
<text text-anchor="middle" x="625.4937" y="-57.8" font-family="Times,serif" font-size="14.00" fill="#000000">name</text>
</g>
<!-- enabled -->
<g id="node6" class="node">
<title>enabled</title>
<ellipse fill="none" stroke="#0000ff" cx="614.4937" cy="-18" rx="46.5926" ry="18"/>
<text text-anchor="middle" x="614.4937" y="-14.3" font-family="Times,serif" font-size="14.00" fill="#000000">boolean</text>
</g>
<!-- orchestration exposure&#45;&gt;enabled -->
<g id="edge5" class="edge">
<title>orchestration exposure&#45;&gt;enabled</title>
<path fill="none" stroke="#0000ff" d="M693.5297,-87.5866C684.153,-82.0976 674.1444,-75.7039 665.4937,-69 655.3888,-61.1693 645.2324,-51.4732 636.6727,-42.6449"/>
<polygon fill="#0000ff" stroke="#0000ff" points="639.0201,-40.0335 629.603,-35.1788 633.9373,-44.8466 639.0201,-40.0335"/>
<text text-anchor="middle" x="693.9937" y="-57.8" font-family="Times,serif" font-size="14.00" fill="#000000">enabled</text>
</g>
<!-- archived -->
<g id="node7" class="node">
<title>archived</title>
<ellipse fill="none" stroke="#0000ff" cx="726.4937" cy="-18" rx="46.5926" ry="18"/>
<text text-anchor="middle" x="726.4937" y="-14.3" font-family="Times,serif" font-size="14.00" fill="#000000">boolean</text>
</g>
<!-- orchestration exposure&#45;&gt;archived -->
<g id="edge6" class="edge">
<title>orchestration exposure&#45;&gt;archived</title>
<path fill="none" stroke="#0000ff" d="M726.4937,-86.9735C726.4937,-75.1918 726.4937,-59.5607 726.4937,-46.1581"/>
<polygon fill="#0000ff" stroke="#0000ff" points="729.9938,-46.0033 726.4937,-36.0034 722.9938,-46.0034 729.9938,-46.0033"/>
<text text-anchor="middle" x="757.9937" y="-57.8" font-family="Times,serif" font-size="14.00" fill="#000000">archived</text>
</g>
<!-- description -->
<g id="node8" class="node">
<title>description</title>
<ellipse fill="none" stroke="#0000ff" cx="866.4937" cy="-18" rx="75.2868" ry="18"/>
<text text-anchor="middle" x="866.4937" y="-14.3" font-family="Times,serif" font-size="14.00" fill="#000000">narrative text</text>
</g>
<!-- orchestration exposure&#45;&gt;description -->
<g id="edge7" class="edge">
<title>orchestration exposure&#45;&gt;description</title>
<path fill="none" stroke="#0000ff" d="M760.6695,-87.6261C771.3311,-81.944 783.0335,-75.4338 793.4937,-69 807.403,-60.4447 822.2617,-50.2672 834.9185,-41.2624"/>
<polygon fill="#0000ff" stroke="#0000ff" points="837.2095,-43.9262 843.2904,-35.2501 833.1263,-38.2405 837.2095,-43.9262"/>
<text text-anchor="middle" x="857.4937" y="-57.8" font-family="Times,serif" font-size="14.00" fill="#000000">description</text>
</g>
<!-- note -->
<g id="node9" class="node">
<title>note</title>
<ellipse fill="none" stroke="#0000ff" cx="1035.4937" cy="-18" rx="75.2868" ry="18"/>
<text text-anchor="middle" x="1035.4937" y="-14.3" font-family="Times,serif" font-size="14.00" fill="#000000">narrative text</text>
</g>
<!-- orchestration exposure&#45;&gt;note -->
<g id="edge8" class="edge">
<title>orchestration exposure&#45;&gt;note</title>
<path fill="none" stroke="#0000ff" d="M806.0228,-91.6077C836.4719,-85.7326 871.3569,-78.0873 902.4937,-69 932.069,-60.3684 964.3573,-48.0595 989.7135,-37.6967"/>
<polygon fill="#0000ff" stroke="#0000ff" points="991.165,-40.8841 999.072,-33.8321 988.4931,-34.414 991.165,-40.8841"/>
<text text-anchor="middle" x="963.4937" y="-57.8" font-family="Times,serif" font-size="14.00" fill="#000000">note</text>
</g>
<!-- category -->
<g id="node10" class="node">
<title>category</title>
<ellipse fill="none" stroke="#000000" cx="1180.4937" cy="-18" rx="51.9908" ry="18"/>
<text text-anchor="middle" x="1180.4937" y="-14.3" font-family="Times,serif" font-size="14.00" fill="#000000">category</text>
</g>
<!-- orchestration exposure&#45;&gt;category -->
<g id="edge9" class="edge">
<title>orchestration exposure&#45;&gt;category</title>
<path fill="none" stroke="#0000ff" d="M813.2503,-92.666C826.7222,-90.7616 840.482,-88.8229 853.4937,-87 911.2585,-78.9073 926.1904,-79.8909 983.4937,-69 1044.5983,-57.3867 1059.4258,-52.1398 1119.4937,-36 1123.3425,-34.9658 1127.3187,-33.8655 1131.3097,-32.7382"/>
<polygon fill="#0000ff" stroke="#0000ff" points="1132.5492,-36.0238 1141.1969,-29.9027 1130.6195,-29.2951 1132.5492,-36.0238"/>
<text text-anchor="middle" x="1084.4937" y="-57.8" font-family="Times,serif" font-size="14.00" fill="#000000">category</text>
</g>
<!-- in taxon -->
<g id="node12" class="node">
<title>in taxon</title>
<ellipse fill="none" stroke="#0000ff" cx="1323.4937" cy="-18" rx="72.5877" ry="18"/>
<text text-anchor="middle" x="1323.4937" y="-14.3" font-family="Times,serif" font-size="14.00" fill="#000000">system taxon</text>
</g>
<!-- orchestration exposure&#45;&gt;in taxon -->
<g id="edge10" class="edge">
<title>orchestration exposure&#45;&gt;in taxon</title>
<path fill="none" stroke="#0000ff" d="M810.4125,-92.2185C824.7629,-90.2873 839.5401,-88.4572 853.4937,-87 971.7864,-74.6465 1003.0154,-87.5641 1120.4937,-69 1171.0609,-61.0093 1227.4517,-46.3677 1267.9415,-34.8157"/>
<polygon fill="#0000ff" stroke="#0000ff" points="1268.9806,-38.1587 1277.6205,-32.0266 1267.0423,-31.4324 1268.9806,-38.1587"/>
<text text-anchor="middle" x="1223.4937" y="-57.8" font-family="Times,serif" font-size="14.00" fill="#000000">in taxon</text>
</g>
<!-- timepoint -->
<g id="node13" class="node">
<title>timepoint</title>
<ellipse fill="none" stroke="#0000ff" cx="1469.4937" cy="-18" rx="55.4913" ry="18"/>
<text text-anchor="middle" x="1469.4937" y="-14.3" font-family="Times,serif" font-size="14.00" fill="#000000">time type</text>
</g>
<!-- orchestration exposure&#45;&gt;timepoint -->
<g id="edge11" class="edge">
<title>orchestration exposure&#45;&gt;timepoint</title>
<path fill="none" stroke="#0000ff" d="M809.3614,-92.0845C824.0348,-90.1322 839.1919,-88.3298 853.4937,-87 1032.0133,-70.401 1078.7471,-92.4726 1256.4937,-69 1313.1498,-61.5182 1376.696,-45.2433 1419.5148,-33.0786"/>
<polygon fill="#0000ff" stroke="#0000ff" points="1420.4854,-36.4414 1429.1306,-30.3168 1418.5529,-29.7134 1420.4854,-36.4414"/>
<text text-anchor="middle" x="1368.4937" y="-57.8" font-family="Times,serif" font-size="14.00" fill="#000000">timepoint</text>
</g>
<!-- named thing_category -->
<g id="node11" class="node">
<title>named thing_category</title>
<ellipse fill="none" stroke="#0000ff" cx="932.4937" cy="-105" rx="69.5877" ry="18"/>
<text text-anchor="middle" x="932.4937" y="-101.3" font-family="Times,serif" font-size="14.00" fill="#000000">named thing</text>
</g>
</g>
</svg>
