<?xml version="1.0" encoding="UTF-8" standalone="no"?>
<!DOCTYPE svg PUBLIC "-//W3C//DTD SVG 1.1//EN"
 "http://www.w3.org/Graphics/SVG/1.1/DTD/svg11.dtd">
<!-- Generated by graphviz version 2.40.1 (20161225.0304)
 -->
<!-- Title: %3 Pages: 1 -->
<svg width="1134pt" height="131pt"
 viewBox="0.00 0.00 1133.54 131.00" xmlns="http://www.w3.org/2000/svg" xmlns:xlink="http://www.w3.org/1999/xlink">
<g id="graph0" class="graph" transform="scale(1 1) rotate(0) translate(4 127)">
<title>%3</title>
<polygon fill="#ffffff" stroke="transparent" points="-4,4 -4,-127 1129.5358,-127 1129.5358,4 -4,4"/>
<!-- project -->
<g id="node1" class="node">
<title>project</title>
<ellipse fill="none" stroke="#000000" cx="563.5404" cy="-105" rx="44.393" ry="18"/>
<text text-anchor="middle" x="563.5404" y="-101.3" font-family="Times,serif" font-size="14.00" fill="#000000">project</text>
</g>
<!-- administrative entity -->
<g id="node2" class="node">
<title>administrative entity</title>
<ellipse fill="none" stroke="#000000" cx="108.5404" cy="-18" rx="108.5808" ry="18"/>
<text text-anchor="middle" x="108.5404" y="-14.3" font-family="Times,serif" font-size="14.00" fill="#000000">administrative entity</text>
</g>
<!-- project&#45;&gt;administrative entity -->
<g id="edge1" class="edge">
<title>project&#45;&gt;administrative entity</title>
<path fill="none" stroke="#000000" d="M521.8264,-98.5661C478.4395,-91.7452 408.5888,-80.4019 348.5404,-69 292.8653,-58.4285 230.241,-45.0713 182.926,-34.6787"/>
<polygon fill="#000000" stroke="#000000" points="183.5887,-31.2408 173.0699,-32.5081 182.0831,-38.077 183.5887,-31.2408"/>
<text text-anchor="middle" x="362.5404" y="-57.8" font-family="Times,serif" font-size="14.00" fill="#000000">is_a</text>
</g>
<!-- id -->
<g id="node3" class="node">
<title>id</title>
<ellipse fill="none" stroke="#0000ff" cx="273.5404" cy="-18" rx="38.1938" ry="18"/>
<text text-anchor="middle" x="273.5404" y="-14.3" font-family="Times,serif" font-size="14.00" fill="#000000">string</text>
</g>
<!-- project&#45;&gt;id -->
<g id="edge2" class="edge">
<title>project&#45;&gt;id</title>
<path fill="none" stroke="#0000ff" d="M525.758,-95.3892C477.6992,-82.9095 392.3216,-59.8838 320.5404,-36 317.9482,-35.1375 315.2882,-34.2172 312.6155,-33.2661"/>
<polygon fill="#0000ff" stroke="#0000ff" points="313.5741,-29.8898 302.9804,-29.735 311.1654,-36.4623 313.5741,-29.8898"/>
<text text-anchor="middle" x="434.5404" y="-57.8" font-family="Times,serif" font-size="14.00" fill="#000000">id</text>
</g>
<!-- name -->
<g id="node4" class="node">
<title>name</title>
<ellipse fill="none" stroke="#0000ff" cx="386.5404" cy="-18" rx="56.59" ry="18"/>
<text text-anchor="middle" x="386.5404" y="-14.3" font-family="Times,serif" font-size="14.00" fill="#000000">label type</text>
</g>
<!-- project&#45;&gt;name -->
<g id="edge3" class="edge">
<title>project&#45;&gt;name</title>
<path fill="none" stroke="#0000ff" d="M534.6397,-91.2613C520.6852,-84.5937 503.7153,-76.4351 488.5404,-69 467.761,-58.8189 444.6949,-47.304 425.7613,-37.7953"/>
<polygon fill="#0000ff" stroke="#0000ff" points="427.3332,-34.6682 416.8266,-33.3031 424.1887,-40.9222 427.3332,-34.6682"/>
<text text-anchor="middle" x="508.5404" y="-57.8" font-family="Times,serif" font-size="14.00" fill="#000000">name</text>
</g>
<!-- enabled -->
<g id="node5" class="node">
<title>enabled</title>
<ellipse fill="none" stroke="#0000ff" cx="507.5404" cy="-18" rx="46.5926" ry="18"/>
<text text-anchor="middle" x="507.5404" y="-14.3" font-family="Times,serif" font-size="14.00" fill="#000000">boolean</text>
</g>
<!-- project&#45;&gt;enabled -->
<g id="edge4" class="edge">
<title>project&#45;&gt;enabled</title>
<path fill="none" stroke="#0000ff" d="M552.2079,-87.3943C544.238,-75.0124 533.4353,-58.2297 524.4501,-44.2704"/>
<polygon fill="#0000ff" stroke="#0000ff" points="527.2115,-42.0938 518.856,-35.5796 521.3254,-45.8826 527.2115,-42.0938"/>
<text text-anchor="middle" x="568.0404" y="-57.8" font-family="Times,serif" font-size="14.00" fill="#000000">enabled</text>
</g>
<!-- archived -->
<g id="node6" class="node">
<title>archived</title>
<ellipse fill="none" stroke="#0000ff" cx="619.5404" cy="-18" rx="46.5926" ry="18"/>
<text text-anchor="middle" x="619.5404" y="-14.3" font-family="Times,serif" font-size="14.00" fill="#000000">boolean</text>
</g>
<!-- project&#45;&gt;archived -->
<g id="edge5" class="edge">
<title>project&#45;&gt;archived</title>
<path fill="none" stroke="#0000ff" d="M581.4659,-88.4696C587.088,-82.68 593.0034,-75.894 597.5404,-69 602.2367,-61.8637 606.3174,-53.5588 609.646,-45.7487"/>
<polygon fill="#0000ff" stroke="#0000ff" points="612.9829,-46.8304 613.4498,-36.2458 606.4842,-44.229 612.9829,-46.8304"/>
<text text-anchor="middle" x="638.0404" y="-57.8" font-family="Times,serif" font-size="14.00" fill="#000000">archived</text>
</g>
<!-- description -->
<g id="node7" class="node">
<title>description</title>
<ellipse fill="none" stroke="#0000ff" cx="759.5404" cy="-18" rx="75.2868" ry="18"/>
<text text-anchor="middle" x="759.5404" y="-14.3" font-family="Times,serif" font-size="14.00" fill="#000000">narrative text</text>
</g>
<!-- project&#45;&gt;description -->
<g id="edge6" class="edge">
<title>project&#45;&gt;description</title>
<path fill="none" stroke="#0000ff" d="M597.4326,-93.3684C603.7744,-91.2264 610.3533,-89.0273 616.5404,-87 641.7862,-78.7279 649.2891,-79.8467 673.5404,-69 691.4226,-61.0019 710.2511,-50.1447 725.7166,-40.5033"/>
<polygon fill="#0000ff" stroke="#0000ff" points="727.8292,-43.3081 734.4012,-34.9978 724.0813,-37.3959 727.8292,-43.3081"/>
<text text-anchor="middle" x="744.5404" y="-57.8" font-family="Times,serif" font-size="14.00" fill="#000000">description</text>
</g>
<!-- note -->
<g id="node8" class="node">
<title>note</title>
<ellipse fill="none" stroke="#0000ff" cx="928.5404" cy="-18" rx="75.2868" ry="18"/>
<text text-anchor="middle" x="928.5404" y="-14.3" font-family="Times,serif" font-size="14.00" fill="#000000">narrative text</text>
</g>
<!-- project&#45;&gt;note -->
<g id="edge7" class="edge">
<title>project&#45;&gt;note</title>
<path fill="none" stroke="#0000ff" d="M596.0122,-92.6975C602.7225,-90.5173 609.8005,-88.4756 616.5404,-87 692.0556,-70.4669 714.2312,-86.4477 789.5404,-69 821.6564,-61.5593 856.4795,-48.774 883.237,-37.8666"/>
<polygon fill="#0000ff" stroke="#0000ff" points="884.8084,-41.0042 892.7101,-33.9464 882.1317,-34.5361 884.8084,-41.0042"/>
<text text-anchor="middle" x="856.5404" y="-57.8" font-family="Times,serif" font-size="14.00" fill="#000000">note</text>
</g>
<!-- category -->
<g id="node9" class="node">
<title>category</title>
<ellipse fill="none" stroke="#000000" cx="1073.5404" cy="-18" rx="51.9908" ry="18"/>
<text text-anchor="middle" x="1073.5404" y="-14.3" font-family="Times,serif" font-size="14.00" fill="#000000">category</text>
</g>
<!-- project&#45;&gt;category -->
<g id="edge8" class="edge">
<title>project&#45;&gt;category</title>
<path fill="none" stroke="#0000ff" d="M595.6904,-92.6063C602.4873,-90.4048 609.6808,-88.3781 616.5404,-87 730.1034,-64.1852 762.0717,-86.72 876.5404,-69 938.0067,-59.4849 952.4725,-52.1398 1012.5404,-36 1016.3892,-34.9658 1020.3654,-33.8655 1024.3564,-32.7382"/>
<polygon fill="#0000ff" stroke="#0000ff" points="1025.5959,-36.0238 1034.2436,-29.9027 1023.6662,-29.2951 1025.5959,-36.0238"/>
<text text-anchor="middle" x="979.5404" y="-57.8" font-family="Times,serif" font-size="14.00" fill="#000000">category</text>
</g>
<!-- named thing_category -->
<g id="node10" class="node">
<title>named thing_category</title>
<ellipse fill="none" stroke="#0000ff" cx="695.5404" cy="-105" rx="69.5877" ry="18"/>
<text text-anchor="middle" x="695.5404" y="-101.3" font-family="Times,serif" font-size="14.00" fill="#000000">named thing</text>
</g>
</g>
</svg>
