<?xml version="1.0" encoding="UTF-8" standalone="no"?>
<!DOCTYPE svg PUBLIC "-//W3C//DTD SVG 1.1//EN"
 "http://www.w3.org/Graphics/SVG/1.1/DTD/svg11.dtd">
<!-- Generated by graphviz version 2.40.1 (20161225.0304)
 -->
<!-- Title: %3 Pages: 1 -->
<svg width="2187pt" height="131pt"
 viewBox="0.00 0.00 2187.09 131.00" xmlns="http://www.w3.org/2000/svg" xmlns:xlink="http://www.w3.org/1999/xlink">
<g id="graph0" class="graph" transform="scale(1 1) rotate(0) translate(4 127)">
<title>%3</title>
<polygon fill="#ffffff" stroke="transparent" points="-4,4 -4,-127 2183.0854,-127 2183.0854,4 -4,4"/>
<!-- publication -->
<g id="node1" class="node">
<title>publication</title>
<ellipse fill="none" stroke="#000000" cx="1268.8881" cy="-105" rx="63.0888" ry="18"/>
<text text-anchor="middle" x="1268.8881" y="-101.3" font-family="Times,serif" font-size="14.00" fill="#000000">publication</text>
</g>
<!-- information content entity -->
<g id="node2" class="node">
<title>information content entity</title>
<ellipse fill="none" stroke="#000000" cx="133.8881" cy="-18" rx="133.7763" ry="18"/>
<text text-anchor="middle" x="133.8881" y="-14.3" font-family="Times,serif" font-size="14.00" fill="#000000">information content entity</text>
</g>
<!-- publication&#45;&gt;information content entity -->
<g id="edge1" class="edge">
<title>publication&#45;&gt;information content entity</title>
<path fill="none" stroke="#000000" d="M1205.8727,-103.4772C1035.3433,-99.1754 567.3546,-86.1244 413.8881,-69 345.675,-61.3885 269.0479,-47.0212 213.2222,-35.4708"/>
<polygon fill="#000000" stroke="#000000" points="213.9017,-32.0373 203.3979,-33.4228 212.4731,-38.89 213.9017,-32.0373"/>
<text text-anchor="middle" x="427.8881" y="-57.8" font-family="Times,serif" font-size="14.00" fill="#000000">is_a</text>
</g>
<!-- enabled -->
<g id="node3" class="node">
<title>enabled</title>
<ellipse fill="none" stroke="#0000ff" cx="332.8881" cy="-18" rx="46.5926" ry="18"/>
<text text-anchor="middle" x="332.8881" y="-14.3" font-family="Times,serif" font-size="14.00" fill="#000000">boolean</text>
</g>
<!-- publication&#45;&gt;enabled -->
<g id="edge2" class="edge">
<title>publication&#45;&gt;enabled</title>
<path fill="none" stroke="#0000ff" d="M1205.8484,-103.7853C1048.821,-100.4741 643.2829,-90.0927 509.8881,-69 463.4036,-61.6498 411.8711,-45.8966 376.4559,-33.8305"/>
<polygon fill="#0000ff" stroke="#0000ff" points="377.5068,-30.4906 366.912,-30.535 375.222,-37.1073 377.5068,-30.4906"/>
<text text-anchor="middle" x="538.3881" y="-57.8" font-family="Times,serif" font-size="14.00" fill="#000000">enabled</text>
</g>
<!-- archived -->
<g id="node4" class="node">
<title>archived</title>
<ellipse fill="none" stroke="#0000ff" cx="444.8881" cy="-18" rx="46.5926" ry="18"/>
<text text-anchor="middle" x="444.8881" y="-14.3" font-family="Times,serif" font-size="14.00" fill="#000000">boolean</text>
</g>
<!-- publication&#45;&gt;archived -->
<g id="edge3" class="edge">
<title>publication&#45;&gt;archived</title>
<path fill="none" stroke="#0000ff" d="M1206.219,-102.7787C1069.7791,-97.718 749.4616,-84.5578 641.8881,-69 589.0252,-61.3547 529.8918,-44.9519 490.3318,-32.802"/>
<polygon fill="#0000ff" stroke="#0000ff" points="491.2998,-29.4378 480.7116,-29.8126 489.2225,-36.1225 491.2998,-29.4378"/>
<text text-anchor="middle" x="673.3881" y="-57.8" font-family="Times,serif" font-size="14.00" fill="#000000">archived</text>
</g>
<!-- description -->
<g id="node5" class="node">
<title>description</title>
<ellipse fill="none" stroke="#0000ff" cx="584.8881" cy="-18" rx="75.2868" ry="18"/>
<text text-anchor="middle" x="584.8881" y="-14.3" font-family="Times,serif" font-size="14.00" fill="#000000">narrative text</text>
</g>
<!-- publication&#45;&gt;description -->
<g id="edge4" class="edge">
<title>publication&#45;&gt;description</title>
<path fill="none" stroke="#0000ff" d="M1205.796,-104.0601C1112.0627,-101.8317 930.7561,-94.3199 778.8881,-69 731.431,-61.0878 678.6955,-46.8623 640.2001,-35.442"/>
<polygon fill="#0000ff" stroke="#0000ff" points="640.8191,-31.9737 630.2352,-32.4541 638.8086,-38.6788 640.8191,-31.9737"/>
<text text-anchor="middle" x="819.8881" y="-57.8" font-family="Times,serif" font-size="14.00" fill="#000000">description</text>
</g>
<!-- note -->
<g id="node6" class="node">
<title>note</title>
<ellipse fill="none" stroke="#0000ff" cx="753.8881" cy="-18" rx="75.2868" ry="18"/>
<text text-anchor="middle" x="753.8881" y="-14.3" font-family="Times,serif" font-size="14.00" fill="#000000">narrative text</text>
</g>
<!-- publication&#45;&gt;note -->
<g id="edge5" class="edge">
<title>publication&#45;&gt;note</title>
<path fill="none" stroke="#0000ff" d="M1206.5534,-102.2445C1136.3047,-98.2915 1018.9774,-89.131 919.8881,-69 880.6621,-61.0308 837.4748,-47.6105 804.9853,-36.5365"/>
<polygon fill="#0000ff" stroke="#0000ff" points="805.8567,-33.1348 795.262,-33.1837 803.5748,-39.7524 805.8567,-33.1348"/>
<text text-anchor="middle" x="935.8881" y="-57.8" font-family="Times,serif" font-size="14.00" fill="#000000">note</text>
</g>
<!-- category -->
<g id="node7" class="node">
<title>category</title>
<ellipse fill="none" stroke="#000000" cx="898.8881" cy="-18" rx="51.9908" ry="18"/>
<text text-anchor="middle" x="898.8881" y="-14.3" font-family="Times,serif" font-size="14.00" fill="#000000">category</text>
</g>
<!-- publication&#45;&gt;category -->
<g id="edge6" class="edge">
<title>publication&#45;&gt;category</title>
<path fill="none" stroke="#0000ff" d="M1208.3128,-99.901C1138.7537,-93.5695 1029.1836,-82.0035 989.8881,-69 969.1429,-62.1351 947.7383,-50.4123 930.9041,-39.9357"/>
<polygon fill="#0000ff" stroke="#0000ff" points="932.3666,-36.7167 922.0552,-34.2823 928.5979,-42.6157 932.3666,-36.7167"/>
<text text-anchor="middle" x="1021.8881" y="-57.8" font-family="Times,serif" font-size="14.00" fill="#000000">category</text>
</g>
<!-- license -->
<g id="node9" class="node">
<title>license</title>
<ellipse fill="none" stroke="#0000ff" cx="1006.8881" cy="-18" rx="38.1938" ry="18"/>
<text text-anchor="middle" x="1006.8881" y="-14.3" font-family="Times,serif" font-size="14.00" fill="#000000">string</text>
</g>
<!-- publication&#45;&gt;license -->
<g id="edge7" class="edge">
<title>publication&#45;&gt;license</title>
<path fill="none" stroke="#0000ff" d="M1208.7953,-99.1763C1172.0056,-94.1787 1124.5398,-85.1205 1084.8881,-69 1067.0148,-61.7336 1048.8679,-50.1704 1034.5806,-39.8903"/>
<polygon fill="#0000ff" stroke="#0000ff" points="1036.3412,-36.8391 1026.2204,-33.7051 1032.1778,-42.4664 1036.3412,-36.8391"/>
<text text-anchor="middle" x="1110.3881" y="-57.8" font-family="Times,serif" font-size="14.00" fill="#000000">license</text>
</g>
<!-- rights -->
<g id="node10" class="node">
<title>rights</title>
<ellipse fill="none" stroke="#0000ff" cx="1101.8881" cy="-18" rx="38.1938" ry="18"/>
<text text-anchor="middle" x="1101.8881" y="-14.3" font-family="Times,serif" font-size="14.00" fill="#000000">string</text>
</g>
<!-- publication&#45;&gt;rights -->
<g id="edge8" class="edge">
<title>publication&#45;&gt;rights</title>
<path fill="none" stroke="#0000ff" d="M1220.6682,-93.319C1201.3567,-87.5375 1179.355,-79.5067 1160.8881,-69 1147.9469,-61.6371 1135.2368,-51.1891 1124.9473,-41.6651"/>
<polygon fill="#0000ff" stroke="#0000ff" points="1127.2339,-39.0089 1117.5869,-34.6285 1122.3966,-44.0687 1127.2339,-39.0089"/>
<text text-anchor="middle" x="1182.3881" y="-57.8" font-family="Times,serif" font-size="14.00" fill="#000000">rights</text>
</g>
<!-- format -->
<g id="node11" class="node">
<title>format</title>
<ellipse fill="none" stroke="#0000ff" cx="1196.8881" cy="-18" rx="38.1938" ry="18"/>
<text text-anchor="middle" x="1196.8881" y="-14.3" font-family="Times,serif" font-size="14.00" fill="#000000">string</text>
</g>
<!-- publication&#45;&gt;format -->
<g id="edge9" class="edge">
<title>publication&#45;&gt;format</title>
<path fill="none" stroke="#0000ff" d="M1238.73,-89.1541C1230.4539,-83.663 1222.0685,-76.8755 1215.8881,-69 1210.6382,-62.3102 1206.7314,-54.0208 1203.872,-46.0833"/>
<polygon fill="#0000ff" stroke="#0000ff" points="1207.1488,-44.8374 1200.7883,-36.3642 1200.4766,-46.9545 1207.1488,-44.8374"/>
<text text-anchor="middle" x="1240.3881" y="-57.8" font-family="Times,serif" font-size="14.00" fill="#000000">format</text>
</g>
<!-- creation date -->
<g id="node12" class="node">
<title>creation date</title>
<ellipse fill="none" stroke="#0000ff" cx="1284.8881" cy="-18" rx="31.3957" ry="18"/>
<text text-anchor="middle" x="1284.8881" y="-14.3" font-family="Times,serif" font-size="14.00" fill="#000000">date</text>
</g>
<!-- publication&#45;&gt;creation date -->
<g id="edge10" class="edge">
<title>publication&#45;&gt;creation date</title>
<path fill="none" stroke="#0000ff" d="M1267.6097,-86.8765C1267.3238,-77.0478 1267.6291,-64.7464 1269.8881,-54 1270.5223,-50.9831 1271.4054,-47.9006 1272.4288,-44.8712"/>
<polygon fill="#0000ff" stroke="#0000ff" points="1275.7023,-46.11 1276.0431,-35.5206 1269.1731,-43.5862 1275.7023,-46.11"/>
<text text-anchor="middle" x="1317.8881" y="-57.8" font-family="Times,serif" font-size="14.00" fill="#000000">creation date</text>
</g>
<!-- authors -->
<g id="node13" class="node">
<title>authors</title>
<ellipse fill="none" stroke="#0000ff" cx="1372.8881" cy="-18" rx="38.1938" ry="18"/>
<text text-anchor="middle" x="1372.8881" y="-14.3" font-family="Times,serif" font-size="14.00" fill="#000000">string</text>
</g>
<!-- publication&#45;&gt;authors -->
<g id="edge11" class="edge">
<title>publication&#45;&gt;authors</title>
<path fill="none" stroke="#0000ff" d="M1315.1613,-92.7615C1336.682,-86.1249 1359.0332,-77.5481 1365.8881,-69 1370.942,-62.6978 1373.2997,-54.4878 1374.235,-46.503"/>
<polygon fill="#0000ff" stroke="#0000ff" points="1377.7406,-46.48 1374.7525,-36.3152 1370.7496,-46.1248 1377.7406,-46.48"/>
<text text-anchor="middle" x="1400.3881" y="-57.8" font-family="Times,serif" font-size="14.00" fill="#000000">authors</text>
</g>
<!-- pages -->
<g id="node14" class="node">
<title>pages</title>
<ellipse fill="none" stroke="#000000" cx="1467.8881" cy="-18" rx="38.1938" ry="18"/>
<text text-anchor="middle" x="1467.8881" y="-14.3" font-family="Times,serif" font-size="14.00" fill="#000000">pages</text>
</g>
<!-- publication&#45;&gt;pages -->
<g id="edge12" class="edge">
<title>publication&#45;&gt;pages</title>
<path fill="none" stroke="#0000ff" d="M1316.0584,-92.851C1324.3173,-90.8259 1332.8409,-88.8006 1340.8881,-87 1381.1213,-77.9976 1397.3057,-91.4457 1431.8881,-69 1441.1608,-62.9816 1448.7594,-53.6627 1454.5459,-44.6289"/>
<polygon fill="#0000ff" stroke="#0000ff" points="1457.6721,-46.2173 1459.7232,-35.8228 1451.6378,-42.6694 1457.6721,-46.2173"/>
<text text-anchor="middle" x="1468.3881" y="-57.8" font-family="Times,serif" font-size="14.00" fill="#000000">pages</text>
</g>
<!-- summary -->
<g id="node16" class="node">
<title>summary</title>
<ellipse fill="none" stroke="#0000ff" cx="1562.8881" cy="-18" rx="38.1938" ry="18"/>
<text text-anchor="middle" x="1562.8881" y="-14.3" font-family="Times,serif" font-size="14.00" fill="#000000">string</text>
</g>
<!-- publication&#45;&gt;summary -->
<g id="edge13" class="edge">
<title>publication&#45;&gt;summary</title>
<path fill="none" stroke="#0000ff" d="M1314.7889,-92.5951C1323.4179,-90.5281 1332.3965,-88.5544 1340.8881,-87 1408.2381,-74.6717 1430.2227,-94.1935 1493.8881,-69 1510.1362,-62.5704 1525.9815,-51.3248 1538.3817,-41.0269"/>
<polygon fill="#0000ff" stroke="#0000ff" points="1540.714,-43.6373 1546.0024,-34.4566 1536.1432,-38.3356 1540.714,-43.6373"/>
<text text-anchor="middle" x="1554.3881" y="-57.8" font-family="Times,serif" font-size="14.00" fill="#000000">summary</text>
</g>
<!-- keywords -->
<g id="node17" class="node">
<title>keywords</title>
<ellipse fill="none" stroke="#0000ff" cx="1657.8881" cy="-18" rx="38.1938" ry="18"/>
<text text-anchor="middle" x="1657.8881" y="-14.3" font-family="Times,serif" font-size="14.00" fill="#000000">string</text>
</g>
<!-- publication&#45;&gt;keywords -->
<g id="edge14" class="edge">
<title>publication&#45;&gt;keywords</title>
<path fill="none" stroke="#0000ff" d="M1314.3483,-92.3698C1323.1003,-90.2984 1332.236,-88.381 1340.8881,-87 1396.1101,-78.1855 1539.6458,-88.9474 1591.8881,-69 1607.716,-62.9566 1622.8621,-51.7844 1634.6436,-41.4339"/>
<polygon fill="#0000ff" stroke="#0000ff" points="1637.228,-43.8126 1642.2294,-34.4726 1632.4951,-38.6551 1637.228,-43.8126"/>
<text text-anchor="middle" x="1652.8881" y="-57.8" font-family="Times,serif" font-size="14.00" fill="#000000">keywords</text>
</g>
<!-- lcsh terms -->
<g id="node18" class="node">
<title>lcsh terms</title>
<ellipse fill="none" stroke="#0000ff" cx="1771.8881" cy="-18" rx="57.6901" ry="18"/>
<text text-anchor="middle" x="1771.8881" y="-14.3" font-family="Times,serif" font-size="14.00" fill="#000000">uriorcurie</text>
</g>
<!-- publication&#45;&gt;lcsh terms -->
<g id="edge15" class="edge">
<title>publication&#45;&gt;lcsh terms</title>
<path fill="none" stroke="#0000ff" d="M1313.9404,-92.3181C1322.8113,-90.2243 1332.095,-88.3119 1340.8881,-87 1418.1356,-75.4746 1617.4939,-92.7803 1691.8881,-69 1710.5115,-63.047 1729.0644,-51.6495 1743.6081,-41.1364"/>
<polygon fill="#0000ff" stroke="#0000ff" points="1745.7693,-43.8906 1751.6781,-35.0965 1741.5749,-38.2864 1745.7693,-43.8906"/>
<text text-anchor="middle" x="1760.8881" y="-57.8" font-family="Times,serif" font-size="14.00" fill="#000000">lcsh terms</text>
</g>
<!-- xref -->
<g id="node19" class="node">
<title>xref</title>
<ellipse fill="none" stroke="#0000ff" cx="1891.8881" cy="-18" rx="44.393" ry="18"/>
<text text-anchor="middle" x="1891.8881" y="-14.3" font-family="Times,serif" font-size="14.00" fill="#000000">iri type</text>
</g>
<!-- publication&#45;&gt;xref -->
<g id="edge16" class="edge">
<title>publication&#45;&gt;xref</title>
<path fill="none" stroke="#0000ff" d="M1313.9277,-92.2316C1322.7998,-90.1453 1332.0871,-88.2579 1340.8881,-87 1442.5991,-72.4633 1704.1349,-97.3593 1802.8881,-69 1824.1181,-62.9033 1845.668,-50.7427 1862.2443,-39.8251"/>
<polygon fill="#0000ff" stroke="#0000ff" points="1864.6067,-42.4513 1870.9081,-33.9341 1860.6706,-36.6627 1864.6067,-42.4513"/>
<text text-anchor="middle" x="1851.3881" y="-57.8" font-family="Times,serif" font-size="14.00" fill="#000000">xref</text>
</g>
<!-- id -->
<g id="node20" class="node">
<title>id</title>
<ellipse fill="none" stroke="#000000" cx="1980.8881" cy="-18" rx="27" ry="18"/>
<text text-anchor="middle" x="1980.8881" y="-14.3" font-family="Times,serif" font-size="14.00" fill="#000000">id</text>
</g>
<!-- publication&#45;&gt;id -->
<g id="edge17" class="edge">
<title>publication&#45;&gt;id</title>
<path fill="none" stroke="#0000ff" d="M1313.5373,-92.2875C1322.526,-90.1682 1331.9564,-88.2541 1340.8881,-87 1457.3691,-70.6451 1755.21,-95.1577 1869.8881,-69 1899.378,-62.2735 1930.4621,-47.212 1952.2107,-35.1907"/>
<polygon fill="#0000ff" stroke="#0000ff" points="1953.9484,-38.229 1960.928,-30.2581 1950.5011,-32.1367 1953.9484,-38.229"/>
<text text-anchor="middle" x="1918.8881" y="-57.8" font-family="Times,serif" font-size="14.00" fill="#000000">id</text>
</g>
<!-- name -->
<g id="node22" class="node">
<title>name</title>
<ellipse fill="none" stroke="#000000" cx="2061.8881" cy="-18" rx="36.2938" ry="18"/>
<text text-anchor="middle" x="2061.8881" y="-14.3" font-family="Times,serif" font-size="14.00" fill="#000000">name</text>
</g>
<!-- publication&#45;&gt;name -->
<g id="edge18" class="edge">
<title>publication&#45;&gt;name</title>
<path fill="none" stroke="#0000ff" d="M1313.5339,-92.263C1322.5228,-90.1457 1331.9543,-88.2386 1340.8881,-87 1470.5974,-69.0167 1801.4594,-94.5725 1929.8881,-69 1964.223,-62.1633 2001.2335,-47.1355 2027.3024,-35.1539"/>
<polygon fill="#0000ff" stroke="#0000ff" points="2028.8156,-38.3101 2036.3864,-30.8983 2025.846,-31.9712 2028.8156,-38.3101"/>
<text text-anchor="middle" x="1998.8881" y="-57.8" font-family="Times,serif" font-size="14.00" fill="#000000">name</text>
</g>
<!-- type -->
<g id="node24" class="node">
<title>type</title>
<ellipse fill="none" stroke="#000000" cx="2147.8881" cy="-18" rx="31.3957" ry="18"/>
<text text-anchor="middle" x="2147.8881" y="-14.3" font-family="Times,serif" font-size="14.00" fill="#000000">type</text>
</g>
<!-- publication&#45;&gt;type -->
<g id="edge19" class="edge">
<title>publication&#45;&gt;type</title>
<path fill="none" stroke="#0000ff" d="M1313.5298,-92.2336C1322.5191,-90.1187 1331.9517,-88.22 1340.8881,-87 1491.1031,-66.4924 1874.3127,-99.1734 2022.8881,-69 2055.7378,-62.3287 2090.8961,-47.1945 2115.5313,-35.1351"/>
<polygon fill="#0000ff" stroke="#0000ff" points="2117.3771,-38.1254 2124.7556,-30.5222 2114.2461,-31.8646 2117.3771,-38.1254"/>
<text text-anchor="middle" x="2088.8881" y="-57.8" font-family="Times,serif" font-size="14.00" fill="#000000">type</text>
</g>
<!-- named thing_category -->
<g id="node8" class="node">
<title>named thing_category</title>
<ellipse fill="none" stroke="#0000ff" cx="1419.8881" cy="-105" rx="69.5877" ry="18"/>
<text text-anchor="middle" x="1419.8881" y="-101.3" font-family="Times,serif" font-size="14.00" fill="#000000">named thing</text>
</g>
<!-- publication_pages -->
<g id="node15" class="node">
<title>publication_pages</title>
<ellipse fill="none" stroke="#0000ff" cx="1545.8881" cy="-105" rx="38.1938" ry="18"/>
<text text-anchor="middle" x="1545.8881" y="-101.3" font-family="Times,serif" font-size="14.00" fill="#000000">string</text>
</g>
<!-- publication_id -->
<g id="node21" class="node">
<title>publication_id</title>
<ellipse fill="none" stroke="#0000ff" cx="1640.8881" cy="-105" rx="38.1938" ry="18"/>
<text text-anchor="middle" x="1640.8881" y="-101.3" font-family="Times,serif" font-size="14.00" fill="#000000">string</text>
</g>
<!-- publication_name -->
<g id="node23" class="node">
<title>publication_name</title>
<ellipse fill="none" stroke="#0000ff" cx="1753.8881" cy="-105" rx="56.59" ry="18"/>
<text text-anchor="middle" x="1753.8881" y="-101.3" font-family="Times,serif" font-size="14.00" fill="#000000">label type</text>
</g>
<!-- publication_type -->
<g id="node25" class="node">
<title>publication_type</title>
<ellipse fill="none" stroke="#0000ff" cx="1866.8881" cy="-105" rx="38.1938" ry="18"/>
<text text-anchor="middle" x="1866.8881" y="-101.3" font-family="Times,serif" font-size="14.00" fill="#000000">string</text>
</g>
</g>
</svg>
