<?xml version="1.0" encoding="UTF-8" standalone="no"?>
<!DOCTYPE svg PUBLIC "-//W3C//DTD SVG 1.1//EN"
 "http://www.w3.org/Graphics/SVG/1.1/DTD/svg11.dtd">
<!-- Generated by graphviz version 2.40.1 (20161225.0304)
 -->
<!-- Title: %3 Pages: 1 -->
<svg width="1134pt" height="131pt"
 viewBox="0.00 0.00 1133.54 131.00" xmlns="http://www.w3.org/2000/svg" xmlns:xlink="http://www.w3.org/1999/xlink">
<g id="graph0" class="graph" transform="scale(1 1) rotate(0) translate(4 127)">
<title>%3</title>
<polygon fill="#ffffff" stroke="transparent" points="-4,4 -4,-127 1129.5358,-127 1129.5358,4 -4,4"/>
<!-- realm -->
<g id="node1" class="node">
<title>realm</title>
<ellipse fill="none" stroke="#000000" cx="563.5404" cy="-105" rx="37.8943" ry="18"/>
<text text-anchor="middle" x="563.5404" y="-101.3" font-family="Times,serif" font-size="14.00" fill="#000000">realm</text>
</g>
<!-- administrative entity -->
<g id="node2" class="node">
<title>administrative entity</title>
<ellipse fill="none" stroke="#000000" cx="108.5404" cy="-18" rx="108.5808" ry="18"/>
<text text-anchor="middle" x="108.5404" y="-14.3" font-family="Times,serif" font-size="14.00" fill="#000000">administrative entity</text>
</g>
<!-- realm&#45;&gt;administrative entity -->
<g id="edge1" class="edge">
<title>realm&#45;&gt;administrative entity</title>
<path fill="none" stroke="#000000" d="M527.316,-99.4272C484.513,-92.7284 411.1915,-80.8961 348.5404,-69 292.8653,-58.4285 230.241,-45.0713 182.926,-34.6787"/>
<polygon fill="#000000" stroke="#000000" points="183.5887,-31.2408 173.0699,-32.5081 182.0831,-38.077 183.5887,-31.2408"/>
<text text-anchor="middle" x="362.5404" y="-57.8" font-family="Times,serif" font-size="14.00" fill="#000000">is_a</text>
</g>
<!-- id -->
<g id="node3" class="node">
<title>id</title>
<ellipse fill="none" stroke="#0000ff" cx="273.5404" cy="-18" rx="38.1938" ry="18"/>
<text text-anchor="middle" x="273.5404" y="-14.3" font-family="Times,serif" font-size="14.00" fill="#000000">string</text>
</g>
<!-- realm&#45;&gt;id -->
<g id="edge2" class="edge">
<title>realm&#45;&gt;id</title>
<path fill="none" stroke="#0000ff" d="M530.2395,-96.5505C483.1574,-84.3769 394.6102,-60.6453 320.5404,-36 317.9482,-35.1375 315.2882,-34.2172 312.6155,-33.2661"/>
<polygon fill="#0000ff" stroke="#0000ff" points="313.5741,-29.8898 302.9804,-29.735 311.1654,-36.4623 313.5741,-29.8898"/>
<text text-anchor="middle" x="434.5404" y="-57.8" font-family="Times,serif" font-size="14.00" fill="#000000">id</text>
</g>
<!-- name -->
<g id="node4" class="node">
<title>name</title>
<ellipse fill="none" stroke="#0000ff" cx="386.5404" cy="-18" rx="56.59" ry="18"/>
<text text-anchor="middle" x="386.5404" y="-14.3" font-family="Times,serif" font-size="14.00" fill="#000000">label type</text>
</g>
<!-- realm&#45;&gt;name -->
<g id="edge3" class="edge">
<title>realm&#45;&gt;name</title>
<path fill="none" stroke="#0000ff" d="M536.7621,-92.2751C522.4304,-85.4323 504.4935,-76.8164 488.5404,-69 467.761,-58.8189 444.6949,-47.304 425.7613,-37.7953"/>
<polygon fill="#0000ff" stroke="#0000ff" points="427.3332,-34.6682 416.8266,-33.3031 424.1887,-40.9222 427.3332,-34.6682"/>
<text text-anchor="middle" x="508.5404" y="-57.8" font-family="Times,serif" font-size="14.00" fill="#000000">name</text>
</g>
<!-- enabled -->
<g id="node5" class="node">
<title>enabled</title>
<ellipse fill="none" stroke="#0000ff" cx="507.5404" cy="-18" rx="46.5926" ry="18"/>
<text text-anchor="middle" x="507.5404" y="-14.3" font-family="Times,serif" font-size="14.00" fill="#000000">boolean</text>
</g>
<!-- realm&#45;&gt;enabled -->
<g id="edge4" class="edge">
<title>realm&#45;&gt;enabled</title>
<path fill="none" stroke="#0000ff" d="M552.2079,-87.3943C544.238,-75.0124 533.4353,-58.2297 524.4501,-44.2704"/>
<polygon fill="#0000ff" stroke="#0000ff" points="527.2115,-42.0938 518.856,-35.5796 521.3254,-45.8826 527.2115,-42.0938"/>
<text text-anchor="middle" x="568.0404" y="-57.8" font-family="Times,serif" font-size="14.00" fill="#000000">enabled</text>
</g>
<!-- archived -->
<g id="node6" class="node">
<title>archived</title>
<ellipse fill="none" stroke="#0000ff" cx="619.5404" cy="-18" rx="46.5926" ry="18"/>
<text text-anchor="middle" x="619.5404" y="-14.3" font-family="Times,serif" font-size="14.00" fill="#000000">boolean</text>
</g>
<!-- realm&#45;&gt;archived -->
<g id="edge5" class="edge">
<title>realm&#45;&gt;archived</title>
<path fill="none" stroke="#0000ff" d="M581.1149,-88.8301C586.8409,-82.9627 592.9089,-76.0376 597.5404,-69 602.2367,-61.8637 606.3174,-53.5588 609.646,-45.7487"/>
<polygon fill="#0000ff" stroke="#0000ff" points="612.9829,-46.8304 613.4498,-36.2458 606.4842,-44.229 612.9829,-46.8304"/>
<text text-anchor="middle" x="638.0404" y="-57.8" font-family="Times,serif" font-size="14.00" fill="#000000">archived</text>
</g>
<!-- description -->
<g id="node7" class="node">
<title>description</title>
<ellipse fill="none" stroke="#0000ff" cx="759.5404" cy="-18" rx="75.2868" ry="18"/>
<text text-anchor="middle" x="759.5404" y="-14.3" font-family="Times,serif" font-size="14.00" fill="#000000">narrative text</text>
</g>
<!-- realm&#45;&gt;description -->
<g id="edge6" class="edge">
<title>realm&#45;&gt;description</title>
<path fill="none" stroke="#0000ff" d="M592.5825,-93.1353C598.1742,-90.9934 604.0115,-88.8542 609.5404,-87 637.555,-77.6049 646.3794,-80.6349 673.5404,-69 691.5471,-61.2865 710.3904,-50.4629 725.8334,-40.7702"/>
<polygon fill="#0000ff" stroke="#0000ff" points="727.9629,-43.5628 734.5011,-35.226 724.191,-37.666 727.9629,-43.5628"/>
<text text-anchor="middle" x="744.5404" y="-57.8" font-family="Times,serif" font-size="14.00" fill="#000000">description</text>
</g>
<!-- note -->
<g id="node8" class="node">
<title>note</title>
<ellipse fill="none" stroke="#0000ff" cx="928.5404" cy="-18" rx="75.2868" ry="18"/>
<text text-anchor="middle" x="928.5404" y="-14.3" font-family="Times,serif" font-size="14.00" fill="#000000">narrative text</text>
</g>
<!-- realm&#45;&gt;note -->
<g id="edge7" class="edge">
<title>realm&#45;&gt;note</title>
<path fill="none" stroke="#0000ff" d="M591.3678,-92.7111C597.2725,-90.502 603.5375,-88.4457 609.5404,-87 687.7046,-68.1758 711.1798,-86.9894 789.5404,-69 821.6712,-61.6236 856.4943,-48.8382 883.2481,-37.9146"/>
<polygon fill="#0000ff" stroke="#0000ff" points="884.8225,-41.0508 892.7197,-33.9878 882.1416,-34.5845 884.8225,-41.0508"/>
<text text-anchor="middle" x="856.5404" y="-57.8" font-family="Times,serif" font-size="14.00" fill="#000000">note</text>
</g>
<!-- category -->
<g id="node9" class="node">
<title>category</title>
<ellipse fill="none" stroke="#000000" cx="1073.5404" cy="-18" rx="51.9908" ry="18"/>
<text text-anchor="middle" x="1073.5404" y="-14.3" font-family="Times,serif" font-size="14.00" fill="#000000">category</text>
</g>
<!-- realm&#45;&gt;category -->
<g id="edge8" class="edge">
<title>realm&#45;&gt;category</title>
<path fill="none" stroke="#0000ff" d="M591.3327,-92.5603C597.24,-90.3621 603.5149,-88.3484 609.5404,-87 725.6058,-61.0271 758.9879,-87.0887 876.5404,-69 938.0152,-59.5404 952.4725,-52.1398 1012.5404,-36 1016.3892,-34.9658 1020.3654,-33.8655 1024.3564,-32.7382"/>
<polygon fill="#0000ff" stroke="#0000ff" points="1025.5959,-36.0238 1034.2436,-29.9027 1023.6662,-29.2951 1025.5959,-36.0238"/>
<text text-anchor="middle" x="979.5404" y="-57.8" font-family="Times,serif" font-size="14.00" fill="#000000">category</text>
</g>
<!-- named thing_category -->
<g id="node10" class="node">
<title>named thing_category</title>
<ellipse fill="none" stroke="#0000ff" cx="688.5404" cy="-105" rx="69.5877" ry="18"/>
<text text-anchor="middle" x="688.5404" y="-101.3" font-family="Times,serif" font-size="14.00" fill="#000000">named thing</text>
</g>
</g>
</svg>
