<?xml version="1.0" encoding="UTF-8" standalone="no"?>
<!DOCTYPE svg PUBLIC "-//W3C//DTD SVG 1.1//EN"
 "http://www.w3.org/Graphics/SVG/1.1/DTD/svg11.dtd">
<!-- Generated by graphviz version 2.40.1 (20161225.0304)
 -->
<!-- Title: %3 Pages: 1 -->
<svg width="1878pt" height="131pt"
 viewBox="0.00 0.00 1877.79 131.00" xmlns="http://www.w3.org/2000/svg" xmlns:xlink="http://www.w3.org/1999/xlink">
<g id="graph0" class="graph" transform="scale(1 1) rotate(0) translate(4 127)">
<title>%3</title>
<polygon fill="#ffffff" stroke="transparent" points="-4,4 -4,-127 1873.7901,-127 1873.7901,4 -4,4"/>
<!-- realm configuration -->
<g id="node1" class="node">
<title>realm configuration</title>
<ellipse fill="none" stroke="#000000" cx="1003.4435" cy="-105" rx="102.8821" ry="18"/>
<text text-anchor="middle" x="1003.4435" y="-101.3" font-family="Times,serif" font-size="14.00" fill="#000000">realm configuration</text>
</g>
<!-- configuration -->
<g id="node2" class="node">
<title>configuration</title>
<ellipse fill="none" stroke="#000000" cx="73.4435" cy="-18" rx="73.387" ry="18"/>
<text text-anchor="middle" x="73.4435" y="-14.3" font-family="Times,serif" font-size="14.00" fill="#000000">configuration</text>
</g>
<!-- realm configuration&#45;&gt;configuration -->
<g id="edge1" class="edge">
<title>realm configuration&#45;&gt;configuration</title>
<path fill="none" stroke="#000000" d="M901.8465,-102.152C733.6747,-97.0548 404.5685,-85.3553 289.4435,-69 234.9409,-61.2571 173.9967,-46.2719 130.7765,-34.5399"/>
<polygon fill="#000000" stroke="#000000" points="131.5802,-31.1311 121.0106,-31.8625 129.7293,-37.882 131.5802,-31.1311"/>
<text text-anchor="middle" x="303.4435" y="-57.8" font-family="Times,serif" font-size="14.00" fill="#000000">is_a</text>
</g>
<!-- id -->
<g id="node3" class="node">
<title>id</title>
<ellipse fill="none" stroke="#0000ff" cx="203.4435" cy="-18" rx="38.1938" ry="18"/>
<text text-anchor="middle" x="203.4435" y="-14.3" font-family="Times,serif" font-size="14.00" fill="#000000">string</text>
</g>
<!-- realm configuration&#45;&gt;id -->
<g id="edge2" class="edge">
<title>realm configuration&#45;&gt;id</title>
<path fill="none" stroke="#0000ff" d="M901.2452,-102.9097C783.8186,-99.5413 585.5413,-90.8915 416.4435,-69 341.8445,-59.3424 322.7148,-56.8596 250.4435,-36 247.6495,-35.1936 244.7877,-34.2926 241.9228,-33.3353"/>
<polygon fill="#0000ff" stroke="#0000ff" points="242.8597,-29.9543 232.265,-29.9191 240.5253,-36.5536 242.8597,-29.9543"/>
<text text-anchor="middle" x="423.4435" y="-57.8" font-family="Times,serif" font-size="14.00" fill="#000000">id</text>
</g>
<!-- name -->
<g id="node4" class="node">
<title>name</title>
<ellipse fill="none" stroke="#0000ff" cx="316.4435" cy="-18" rx="56.59" ry="18"/>
<text text-anchor="middle" x="316.4435" y="-14.3" font-family="Times,serif" font-size="14.00" fill="#000000">label type</text>
</g>
<!-- realm configuration&#45;&gt;name -->
<g id="edge3" class="edge">
<title>realm configuration&#45;&gt;name</title>
<path fill="none" stroke="#0000ff" d="M904.2497,-100.2456C780.3113,-93.8961 575.3941,-81.9366 500.4435,-69 453.8641,-60.9603 402.0876,-46.0539 365.3551,-34.4247"/>
<polygon fill="#0000ff" stroke="#0000ff" points="366.0015,-30.9566 355.4105,-31.24 363.8666,-37.6232 366.0015,-30.9566"/>
<text text-anchor="middle" x="520.4435" y="-57.8" font-family="Times,serif" font-size="14.00" fill="#000000">name</text>
</g>
<!-- enabled -->
<g id="node5" class="node">
<title>enabled</title>
<ellipse fill="none" stroke="#0000ff" cx="437.4435" cy="-18" rx="46.5926" ry="18"/>
<text text-anchor="middle" x="437.4435" y="-14.3" font-family="Times,serif" font-size="14.00" fill="#000000">boolean</text>
</g>
<!-- realm configuration&#45;&gt;enabled -->
<g id="edge4" class="edge">
<title>realm configuration&#45;&gt;enabled</title>
<path fill="none" stroke="#0000ff" d="M902.6481,-101.4516C821.5116,-97.2686 704.8554,-88.2569 604.4435,-69 561.494,-60.7632 513.9192,-45.6145 480.5705,-33.9594"/>
<polygon fill="#0000ff" stroke="#0000ff" points="481.7235,-30.6548 471.1287,-30.6201 479.3893,-37.2542 481.7235,-30.6548"/>
<text text-anchor="middle" x="632.9435" y="-57.8" font-family="Times,serif" font-size="14.00" fill="#000000">enabled</text>
</g>
<!-- archived -->
<g id="node6" class="node">
<title>archived</title>
<ellipse fill="none" stroke="#0000ff" cx="549.4435" cy="-18" rx="46.5926" ry="18"/>
<text text-anchor="middle" x="549.4435" y="-14.3" font-family="Times,serif" font-size="14.00" fill="#000000">boolean</text>
</g>
<!-- realm configuration&#45;&gt;archived -->
<g id="edge5" class="edge">
<title>realm configuration&#45;&gt;archived</title>
<path fill="none" stroke="#0000ff" d="M912.7765,-96.4921C858.1869,-90.5691 787.4672,-81.4807 725.4435,-69 671.2172,-58.0883 658.4521,-51.8001 605.4435,-36 602.0625,-34.9922 598.5742,-33.9287 595.0692,-32.8427"/>
<polygon fill="#0000ff" stroke="#0000ff" points="595.8112,-29.4073 585.2219,-29.7507 593.7141,-36.0858 595.8112,-29.4073"/>
<text text-anchor="middle" x="756.9435" y="-57.8" font-family="Times,serif" font-size="14.00" fill="#000000">archived</text>
</g>
<!-- description -->
<g id="node7" class="node">
<title>description</title>
<ellipse fill="none" stroke="#0000ff" cx="689.4435" cy="-18" rx="75.2868" ry="18"/>
<text text-anchor="middle" x="689.4435" y="-14.3" font-family="Times,serif" font-size="14.00" fill="#000000">narrative text</text>
</g>
<!-- realm configuration&#45;&gt;description -->
<g id="edge6" class="edge">
<title>realm configuration&#45;&gt;description</title>
<path fill="none" stroke="#0000ff" d="M933.1007,-91.8155C903.1103,-85.6849 867.8591,-77.8006 836.4435,-69 803.5188,-59.7767 767.2156,-47.2062 738.9239,-36.8532"/>
<polygon fill="#0000ff" stroke="#0000ff" points="739.8629,-33.4692 729.2695,-33.2929 737.4408,-40.0368 739.8629,-33.4692"/>
<text text-anchor="middle" x="877.4435" y="-57.8" font-family="Times,serif" font-size="14.00" fill="#000000">description</text>
</g>
<!-- note -->
<g id="node8" class="node">
<title>note</title>
<ellipse fill="none" stroke="#0000ff" cx="858.4435" cy="-18" rx="75.2868" ry="18"/>
<text text-anchor="middle" x="858.4435" y="-14.3" font-family="Times,serif" font-size="14.00" fill="#000000">narrative text</text>
</g>
<!-- realm configuration&#45;&gt;note -->
<g id="edge7" class="edge">
<title>realm configuration&#45;&gt;note</title>
<path fill="none" stroke="#0000ff" d="M974.4491,-87.6033C951.6311,-73.9125 919.6893,-54.7475 895.0988,-39.9932"/>
<polygon fill="#0000ff" stroke="#0000ff" points="896.778,-36.9191 886.4023,-34.7753 893.1765,-42.9215 896.778,-36.9191"/>
<text text-anchor="middle" x="956.4435" y="-57.8" font-family="Times,serif" font-size="14.00" fill="#000000">note</text>
</g>
<!-- category -->
<g id="node9" class="node">
<title>category</title>
<ellipse fill="none" stroke="#000000" cx="1003.4435" cy="-18" rx="51.9908" ry="18"/>
<text text-anchor="middle" x="1003.4435" y="-14.3" font-family="Times,serif" font-size="14.00" fill="#000000">category</text>
</g>
<!-- realm configuration&#45;&gt;category -->
<g id="edge8" class="edge">
<title>realm configuration&#45;&gt;category</title>
<path fill="none" stroke="#0000ff" d="M1003.4435,-86.9735C1003.4435,-75.1918 1003.4435,-59.5607 1003.4435,-46.1581"/>
<polygon fill="#0000ff" stroke="#0000ff" points="1006.9436,-46.0033 1003.4435,-36.0034 999.9436,-46.0034 1006.9436,-46.0033"/>
<text text-anchor="middle" x="1035.4435" y="-57.8" font-family="Times,serif" font-size="14.00" fill="#000000">category</text>
</g>
<!-- license -->
<g id="node11" class="node">
<title>license</title>
<ellipse fill="none" stroke="#0000ff" cx="1111.4435" cy="-18" rx="38.1938" ry="18"/>
<text text-anchor="middle" x="1111.4435" y="-14.3" font-family="Times,serif" font-size="14.00" fill="#000000">string</text>
</g>
<!-- realm configuration&#45;&gt;license -->
<g id="edge9" class="edge">
<title>realm configuration&#45;&gt;license</title>
<path fill="none" stroke="#0000ff" d="M1041.9173,-88.206C1052.0637,-82.8484 1062.6298,-76.3681 1071.4435,-69 1079.9904,-61.855 1087.9089,-52.609 1094.4068,-43.9557"/>
<polygon fill="#0000ff" stroke="#0000ff" points="1097.4162,-45.7651 1100.4018,-35.5996 1091.7286,-41.6845 1097.4162,-45.7651"/>
<text text-anchor="middle" x="1110.9435" y="-57.8" font-family="Times,serif" font-size="14.00" fill="#000000">license</text>
</g>
<!-- rights -->
<g id="node12" class="node">
<title>rights</title>
<ellipse fill="none" stroke="#0000ff" cx="1206.4435" cy="-18" rx="38.1938" ry="18"/>
<text text-anchor="middle" x="1206.4435" y="-14.3" font-family="Times,serif" font-size="14.00" fill="#000000">string</text>
</g>
<!-- realm configuration&#45;&gt;rights -->
<g id="edge10" class="edge">
<title>realm configuration&#45;&gt;rights</title>
<path fill="none" stroke="#0000ff" d="M1074.7351,-91.9975C1096.4876,-86.5327 1120.0344,-79.0463 1140.4435,-69 1155.3274,-61.6734 1170.1074,-50.6908 1181.8958,-40.7916"/>
<polygon fill="#0000ff" stroke="#0000ff" points="1184.2747,-43.3615 1189.5435,-34.1696 1179.6925,-38.0695 1184.2747,-43.3615"/>
<text text-anchor="middle" x="1185.9435" y="-57.8" font-family="Times,serif" font-size="14.00" fill="#000000">rights</text>
</g>
<!-- format -->
<g id="node13" class="node">
<title>format</title>
<ellipse fill="none" stroke="#0000ff" cx="1301.4435" cy="-18" rx="38.1938" ry="18"/>
<text text-anchor="middle" x="1301.4435" y="-14.3" font-family="Times,serif" font-size="14.00" fill="#000000">string</text>
</g>
<!-- realm configuration&#45;&gt;format -->
<g id="edge11" class="edge">
<title>realm configuration&#45;&gt;format</title>
<path fill="none" stroke="#0000ff" d="M1078.4247,-92.6423C1135.3756,-83.1565 1205.0057,-71.3024 1211.4435,-69 1232.4176,-61.4988 1254.1943,-49.2946 1271.0725,-38.7054"/>
<polygon fill="#0000ff" stroke="#0000ff" points="1273.3872,-41.3785 1279.9091,-33.0288 1269.6038,-35.489 1273.3872,-41.3785"/>
<text text-anchor="middle" x="1267.9435" y="-57.8" font-family="Times,serif" font-size="14.00" fill="#000000">format</text>
</g>
<!-- creation date -->
<g id="node14" class="node">
<title>creation date</title>
<ellipse fill="none" stroke="#0000ff" cx="1389.4435" cy="-18" rx="31.3957" ry="18"/>
<text text-anchor="middle" x="1389.4435" y="-14.3" font-family="Times,serif" font-size="14.00" fill="#000000">date</text>
</g>
<!-- realm configuration&#45;&gt;creation date -->
<g id="edge12" class="edge">
<title>realm configuration&#45;&gt;creation date</title>
<path fill="none" stroke="#0000ff" d="M1077.0881,-92.399C1089.5368,-90.458 1102.3443,-88.5778 1114.4435,-87 1195.0446,-76.4893 1218.7926,-93.0281 1296.4435,-69 1319.363,-61.9078 1343.0421,-48.8246 1360.771,-37.6855"/>
<polygon fill="#0000ff" stroke="#0000ff" points="1362.9568,-40.4406 1369.4642,-32.0797 1359.1632,-34.5577 1362.9568,-40.4406"/>
<text text-anchor="middle" x="1379.4435" y="-57.8" font-family="Times,serif" font-size="14.00" fill="#000000">creation date</text>
</g>
<!-- has part -->
<g id="node15" class="node">
<title>has part</title>
<ellipse fill="none" stroke="#0000ff" cx="1508.4435" cy="-18" rx="69.5877" ry="18"/>
<text text-anchor="middle" x="1508.4435" y="-14.3" font-family="Times,serif" font-size="14.00" fill="#000000">named thing</text>
</g>
<!-- realm configuration&#45;&gt;has part -->
<g id="edge13" class="edge">
<title>realm configuration&#45;&gt;has part</title>
<path fill="none" stroke="#0000ff" d="M1075.8415,-92.1463C1088.6695,-90.1872 1101.9258,-88.3666 1114.4435,-87 1184.5846,-79.3425 1364.4865,-91.2528 1431.4435,-69 1449.2106,-63.0952 1466.7892,-51.9668 1480.6549,-41.6084"/>
<polygon fill="#0000ff" stroke="#0000ff" points="1483.0181,-44.205 1488.777,-35.3119 1478.7293,-38.6727 1483.0181,-44.205"/>
<text text-anchor="middle" x="1491.4435" y="-57.8" font-family="Times,serif" font-size="14.00" fill="#000000">has part</text>
</g>
<!-- has quantitative value -->
<g id="node16" class="node">
<title>has quantitative value</title>
<ellipse fill="none" stroke="#0000ff" cx="1673.4435" cy="-18" rx="77.1866" ry="18"/>
<text text-anchor="middle" x="1673.4435" y="-14.3" font-family="Times,serif" font-size="14.00" fill="#000000">quantity value</text>
</g>
<!-- realm configuration&#45;&gt;has quantitative value -->
<g id="edge14" class="edge">
<title>realm configuration&#45;&gt;has quantitative value</title>
<path fill="none" stroke="#0000ff" d="M1075.2307,-92.1007C1088.2453,-90.1212 1101.723,-88.3054 1114.4435,-87 1296.33,-68.3342 1345.8169,-103.1379 1525.4435,-69 1560.5854,-62.3213 1598.7143,-49.0286 1627.4691,-37.6886"/>
<polygon fill="#0000ff" stroke="#0000ff" points="1628.8643,-40.9001 1636.8435,-33.93 1626.2592,-34.4029 1628.8643,-40.9001"/>
<text text-anchor="middle" x="1660.4435" y="-57.8" font-family="Times,serif" font-size="14.00" fill="#000000">has quantitative value</text>
</g>
<!-- version -->
<g id="node17" class="node">
<title>version</title>
<ellipse fill="none" stroke="#0000ff" cx="1831.4435" cy="-18" rx="38.1938" ry="18"/>
<text text-anchor="middle" x="1831.4435" y="-14.3" font-family="Times,serif" font-size="14.00" fill="#000000">string</text>
</g>
<!-- realm configuration&#45;&gt;version -->
<g id="edge15" class="edge">
<title>realm configuration&#45;&gt;version</title>
<path fill="none" stroke="#0000ff" d="M1074.9168,-91.985C1088.0252,-90.0042 1101.6163,-88.2179 1114.4435,-87 1184.1585,-80.3808 1677.1304,-88.3117 1744.4435,-69 1765.6009,-62.9301 1786.9596,-50.5223 1803.2194,-39.4655"/>
<polygon fill="#0000ff" stroke="#0000ff" points="1805.5244,-42.1235 1811.6944,-33.5106 1801.5,-36.396 1805.5244,-42.1235"/>
<text text-anchor="middle" x="1802.9435" y="-57.8" font-family="Times,serif" font-size="14.00" fill="#000000">version</text>
</g>
<!-- named thing_category -->
<g id="node10" class="node">
<title>named thing_category</title>
<ellipse fill="none" stroke="#0000ff" cx="1193.4435" cy="-105" rx="69.5877" ry="18"/>
<text text-anchor="middle" x="1193.4435" y="-101.3" font-family="Times,serif" font-size="14.00" fill="#000000">named thing</text>
</g>
</g>
</svg>
