<?xml version="1.0" encoding="UTF-8" standalone="no"?>
<!DOCTYPE svg PUBLIC "-//W3C//DTD SVG 1.1//EN"
 "http://www.w3.org/Graphics/SVG/1.1/DTD/svg11.dtd">
<!-- Generated by graphviz version 2.40.1 (20161225.0304)
 -->
<!-- Title: %3 Pages: 1 -->
<svg width="1071pt" height="131pt"
 viewBox="0.00 0.00 1071.34 131.00" xmlns="http://www.w3.org/2000/svg" xmlns:xlink="http://www.w3.org/1999/xlink">
<g id="graph0" class="graph" transform="scale(1 1) rotate(0) translate(4 127)">
<title>%3</title>
<polygon fill="#ffffff" stroke="transparent" points="-4,4 -4,-127 1067.3385,-127 1067.3385,4 -4,4"/>
<!-- relationship type -->
<g id="node1" class="node">
<title>relationship type</title>
<ellipse fill="none" stroke="#000000" cx="501.3431" cy="-105" rx="89.8845" ry="18"/>
<text text-anchor="middle" x="501.3431" y="-101.3" font-family="Times,serif" font-size="14.00" fill="#000000">relationship type</text>
</g>
<!-- ontology class -->
<g id="node2" class="node">
<title>ontology class</title>
<ellipse fill="none" stroke="#000000" cx="77.3431" cy="-18" rx="77.1866" ry="18"/>
<text text-anchor="middle" x="77.3431" y="-14.3" font-family="Times,serif" font-size="14.00" fill="#000000">ontology class</text>
</g>
<!-- relationship type&#45;&gt;ontology class -->
<g id="edge1" class="edge">
<title>relationship type&#45;&gt;ontology class</title>
<path fill="none" stroke="#000000" d="M428.9406,-94.2344C387.1252,-87.6783 333.6097,-78.7105 286.3431,-69 236.2155,-58.7017 179.8766,-44.8177 138.3346,-34.1363"/>
<polygon fill="#000000" stroke="#000000" points="139.1972,-30.7443 128.6397,-31.6326 137.4468,-37.522 139.1972,-30.7443"/>
<text text-anchor="middle" x="300.3431" y="-57.8" font-family="Times,serif" font-size="14.00" fill="#000000">is_a</text>
</g>
<!-- id -->
<g id="node3" class="node">
<title>id</title>
<ellipse fill="none" stroke="#0000ff" cx="211.3431" cy="-18" rx="38.1938" ry="18"/>
<text text-anchor="middle" x="211.3431" y="-14.3" font-family="Times,serif" font-size="14.00" fill="#000000">string</text>
</g>
<!-- relationship type&#45;&gt;id -->
<g id="edge2" class="edge">
<title>relationship type&#45;&gt;id</title>
<path fill="none" stroke="#0000ff" d="M445.9055,-90.7667C396.3729,-77.6927 322.0099,-57.1839 258.3431,-36 255.751,-35.1375 253.0909,-34.2172 250.4182,-33.2661"/>
<polygon fill="#0000ff" stroke="#0000ff" points="251.3769,-29.8898 240.7832,-29.735 248.9681,-36.4623 251.3769,-29.8898"/>
<text text-anchor="middle" x="372.3431" y="-57.8" font-family="Times,serif" font-size="14.00" fill="#000000">id</text>
</g>
<!-- name -->
<g id="node4" class="node">
<title>name</title>
<ellipse fill="none" stroke="#0000ff" cx="324.3431" cy="-18" rx="56.59" ry="18"/>
<text text-anchor="middle" x="324.3431" y="-14.3" font-family="Times,serif" font-size="14.00" fill="#000000">label type</text>
</g>
<!-- relationship type&#45;&gt;name -->
<g id="edge3" class="edge">
<title>relationship type&#45;&gt;name</title>
<path fill="none" stroke="#0000ff" d="M466.1835,-88.2673C453.5944,-82.2381 439.3131,-75.3548 426.3431,-69 405.5637,-58.8189 382.4977,-47.304 363.564,-37.7953"/>
<polygon fill="#0000ff" stroke="#0000ff" points="365.1359,-34.6682 354.6294,-33.3031 361.9915,-40.9222 365.1359,-34.6682"/>
<text text-anchor="middle" x="446.3431" y="-57.8" font-family="Times,serif" font-size="14.00" fill="#000000">name</text>
</g>
<!-- enabled -->
<g id="node5" class="node">
<title>enabled</title>
<ellipse fill="none" stroke="#0000ff" cx="445.3431" cy="-18" rx="46.5926" ry="18"/>
<text text-anchor="middle" x="445.3431" y="-14.3" font-family="Times,serif" font-size="14.00" fill="#000000">boolean</text>
</g>
<!-- relationship type&#45;&gt;enabled -->
<g id="edge4" class="edge">
<title>relationship type&#45;&gt;enabled</title>
<path fill="none" stroke="#0000ff" d="M489.7399,-86.9735C481.8033,-74.6435 471.153,-58.0975 462.2732,-44.3021"/>
<polygon fill="#0000ff" stroke="#0000ff" points="465.0954,-42.22 456.7399,-35.7057 459.2094,-46.0087 465.0954,-42.22"/>
<text text-anchor="middle" x="505.8431" y="-57.8" font-family="Times,serif" font-size="14.00" fill="#000000">enabled</text>
</g>
<!-- archived -->
<g id="node6" class="node">
<title>archived</title>
<ellipse fill="none" stroke="#0000ff" cx="557.3431" cy="-18" rx="46.5926" ry="18"/>
<text text-anchor="middle" x="557.3431" y="-14.3" font-family="Times,serif" font-size="14.00" fill="#000000">boolean</text>
</g>
<!-- relationship type&#45;&gt;archived -->
<g id="edge5" class="edge">
<title>relationship type&#45;&gt;archived</title>
<path fill="none" stroke="#0000ff" d="M520.3258,-87.3726C525.6248,-81.8313 531.0898,-75.4631 535.3431,-69 540.0395,-61.8637 544.1201,-53.5588 547.4487,-45.7487"/>
<polygon fill="#0000ff" stroke="#0000ff" points="550.7857,-46.8304 551.2526,-36.2458 544.287,-44.229 550.7857,-46.8304"/>
<text text-anchor="middle" x="575.8431" y="-57.8" font-family="Times,serif" font-size="14.00" fill="#000000">archived</text>
</g>
<!-- description -->
<g id="node7" class="node">
<title>description</title>
<ellipse fill="none" stroke="#0000ff" cx="697.3431" cy="-18" rx="75.2868" ry="18"/>
<text text-anchor="middle" x="697.3431" y="-14.3" font-family="Times,serif" font-size="14.00" fill="#000000">narrative text</text>
</g>
<!-- relationship type&#45;&gt;description -->
<g id="edge6" class="edge">
<title>relationship type&#45;&gt;description</title>
<path fill="none" stroke="#0000ff" d="M553.9941,-90.3461C572.4633,-84.535 593.1347,-77.2579 611.3431,-69 629.0513,-60.9689 647.7282,-50.2016 663.1357,-40.6302"/>
<polygon fill="#0000ff" stroke="#0000ff" points="665.2095,-43.4601 671.7975,-35.1626 661.473,-37.5407 665.2095,-43.4601"/>
<text text-anchor="middle" x="679.3431" y="-57.8" font-family="Times,serif" font-size="14.00" fill="#000000">description</text>
</g>
<!-- note -->
<g id="node8" class="node">
<title>note</title>
<ellipse fill="none" stroke="#0000ff" cx="866.3431" cy="-18" rx="75.2868" ry="18"/>
<text text-anchor="middle" x="866.3431" y="-14.3" font-family="Times,serif" font-size="14.00" fill="#000000">narrative text</text>
</g>
<!-- relationship type&#45;&gt;note -->
<g id="edge7" class="edge">
<title>relationship type&#45;&gt;note</title>
<path fill="none" stroke="#0000ff" d="M566.6483,-92.6423C577.5535,-90.683 588.7591,-88.7334 599.3431,-87 654.7338,-77.9284 669.8759,-82.5551 724.3431,-69 756.8589,-60.9079 792.3343,-48.169 819.693,-37.4477"/>
<polygon fill="#0000ff" stroke="#0000ff" points="821.0086,-40.6912 829.0134,-33.7504 818.4275,-34.1844 821.0086,-40.6912"/>
<text text-anchor="middle" x="788.3431" y="-57.8" font-family="Times,serif" font-size="14.00" fill="#000000">note</text>
</g>
<!-- category -->
<g id="node9" class="node">
<title>category</title>
<ellipse fill="none" stroke="#000000" cx="1011.3431" cy="-18" rx="51.9908" ry="18"/>
<text text-anchor="middle" x="1011.3431" y="-14.3" font-family="Times,serif" font-size="14.00" fill="#000000">category</text>
</g>
<!-- relationship type&#45;&gt;category -->
<g id="edge8" class="edge">
<title>relationship type&#45;&gt;category</title>
<path fill="none" stroke="#0000ff" d="M565.2517,-92.3504C576.5785,-90.3692 588.2853,-88.4882 599.3431,-87 691.7428,-74.5644 716.2589,-83.5892 808.3431,-69 872.3379,-58.8611 887.6888,-52.5092 950.3431,-36 954.197,-34.9845 958.1767,-33.8976 962.1702,-32.7795"/>
<polygon fill="#0000ff" stroke="#0000ff" points="963.4045,-36.0672 972.0614,-29.9592 961.4849,-29.3355 963.4045,-36.0672"/>
<text text-anchor="middle" x="914.3431" y="-57.8" font-family="Times,serif" font-size="14.00" fill="#000000">category</text>
</g>
<!-- named thing_category -->
<g id="node10" class="node">
<title>named thing_category</title>
<ellipse fill="none" stroke="#0000ff" cx="678.3431" cy="-105" rx="69.5877" ry="18"/>
<text text-anchor="middle" x="678.3431" y="-101.3" font-family="Times,serif" font-size="14.00" fill="#000000">named thing</text>
</g>
</g>
</svg>
