<?xml version="1.0" encoding="UTF-8" standalone="no"?>
<!DOCTYPE svg PUBLIC "-//W3C//DTD SVG 1.1//EN"
 "http://www.w3.org/Graphics/SVG/1.1/DTD/svg11.dtd">
<!-- Generated by graphviz version 2.40.1 (20161225.0304)
 -->
<!-- Title: %3 Pages: 1 -->
<svg width="1242pt" height="131pt"
 viewBox="0.00 0.00 1242.04 131.00" xmlns="http://www.w3.org/2000/svg" xmlns:xlink="http://www.w3.org/1999/xlink">
<g id="graph0" class="graph" transform="scale(1 1) rotate(0) translate(4 127)">
<title>%3</title>
<polygon fill="#ffffff" stroke="transparent" points="-4,4 -4,-127 1238.0363,-127 1238.0363,4 -4,4"/>
<!-- server type -->
<g id="node1" class="node">
<title>server type</title>
<ellipse fill="none" stroke="#000000" cx="567.5427" cy="-105" rx="63.8893" ry="18"/>
<text text-anchor="middle" x="567.5427" y="-101.3" font-family="Times,serif" font-size="14.00" fill="#000000">server type</text>
</g>
<!-- systemic entity -->
<g id="node2" class="node">
<title>systemic entity</title>
<ellipse fill="none" stroke="#000000" cx="82.5427" cy="-18" rx="82.5854" ry="18"/>
<text text-anchor="middle" x="82.5427" y="-14.3" font-family="Times,serif" font-size="14.00" fill="#000000">systemic entity</text>
</g>
<!-- server type&#45;&gt;systemic entity -->
<g id="edge1" class="edge">
<title>server type&#45;&gt;systemic entity</title>
<path fill="none" stroke="#000000" d="M507.8621,-98.5535C453.784,-92.3257 372.0136,-81.9444 301.5427,-69 248.6453,-59.2836 189.2567,-45.2547 145.6833,-34.3691"/>
<polygon fill="#000000" stroke="#000000" points="146.3508,-30.928 135.7993,-31.886 144.6452,-37.7171 146.3508,-30.928"/>
<text text-anchor="middle" x="315.5427" y="-57.8" font-family="Times,serif" font-size="14.00" fill="#000000">is_a</text>
</g>
<!-- id -->
<g id="node3" class="node">
<title>id</title>
<ellipse fill="none" stroke="#0000ff" cx="221.5427" cy="-18" rx="38.1938" ry="18"/>
<text text-anchor="middle" x="221.5427" y="-14.3" font-family="Times,serif" font-size="14.00" fill="#000000">string</text>
</g>
<!-- server type&#45;&gt;id -->
<g id="edge2" class="edge">
<title>server type&#45;&gt;id</title>
<path fill="none" stroke="#0000ff" d="M513.6059,-95.393C453.159,-83.9743 352.6097,-63.017 268.5427,-36 265.8131,-35.1228 263.0111,-34.1747 260.2002,-33.1884"/>
<polygon fill="#0000ff" stroke="#0000ff" points="261.2944,-29.8622 250.7003,-29.7349 258.9027,-36.4409 261.2944,-29.8622"/>
<text text-anchor="middle" x="389.5427" y="-57.8" font-family="Times,serif" font-size="14.00" fill="#000000">id</text>
</g>
<!-- name -->
<g id="node4" class="node">
<title>name</title>
<ellipse fill="none" stroke="#0000ff" cx="334.5427" cy="-18" rx="56.59" ry="18"/>
<text text-anchor="middle" x="334.5427" y="-14.3" font-family="Times,serif" font-size="14.00" fill="#000000">label type</text>
</g>
<!-- server type&#45;&gt;name -->
<g id="edge3" class="edge">
<title>server type&#45;&gt;name</title>
<path fill="none" stroke="#0000ff" d="M520.7925,-92.7189C498.1293,-86.3542 470.6602,-78.0295 446.5427,-69 421.9667,-59.7989 395.1916,-47.6871 373.9847,-37.5756"/>
<polygon fill="#0000ff" stroke="#0000ff" points="375.4897,-34.4157 364.9609,-33.234 372.4547,-40.7236 375.4897,-34.4157"/>
<text text-anchor="middle" x="466.5427" y="-57.8" font-family="Times,serif" font-size="14.00" fill="#000000">name</text>
</g>
<!-- enabled -->
<g id="node5" class="node">
<title>enabled</title>
<ellipse fill="none" stroke="#0000ff" cx="455.5427" cy="-18" rx="46.5926" ry="18"/>
<text text-anchor="middle" x="455.5427" y="-14.3" font-family="Times,serif" font-size="14.00" fill="#000000">boolean</text>
</g>
<!-- server type&#45;&gt;enabled -->
<g id="edge4" class="edge">
<title>server type&#45;&gt;enabled</title>
<path fill="none" stroke="#0000ff" d="M537.0904,-89.0444C527.0123,-83.2446 515.9711,-76.3065 506.5427,-69 496.4379,-61.1693 486.2815,-51.4732 477.7217,-42.6449"/>
<polygon fill="#0000ff" stroke="#0000ff" points="480.0692,-40.0335 470.652,-35.1788 474.9863,-44.8466 480.0692,-40.0335"/>
<text text-anchor="middle" x="535.0427" y="-57.8" font-family="Times,serif" font-size="14.00" fill="#000000">enabled</text>
</g>
<!-- archived -->
<g id="node6" class="node">
<title>archived</title>
<ellipse fill="none" stroke="#0000ff" cx="567.5427" cy="-18" rx="46.5926" ry="18"/>
<text text-anchor="middle" x="567.5427" y="-14.3" font-family="Times,serif" font-size="14.00" fill="#000000">boolean</text>
</g>
<!-- server type&#45;&gt;archived -->
<g id="edge5" class="edge">
<title>server type&#45;&gt;archived</title>
<path fill="none" stroke="#0000ff" d="M567.5427,-86.9735C567.5427,-75.1918 567.5427,-59.5607 567.5427,-46.1581"/>
<polygon fill="#0000ff" stroke="#0000ff" points="571.0428,-46.0033 567.5427,-36.0034 564.0428,-46.0034 571.0428,-46.0033"/>
<text text-anchor="middle" x="599.0427" y="-57.8" font-family="Times,serif" font-size="14.00" fill="#000000">archived</text>
</g>
<!-- description -->
<g id="node7" class="node">
<title>description</title>
<ellipse fill="none" stroke="#0000ff" cx="707.5427" cy="-18" rx="75.2868" ry="18"/>
<text text-anchor="middle" x="707.5427" y="-14.3" font-family="Times,serif" font-size="14.00" fill="#000000">narrative text</text>
</g>
<!-- server type&#45;&gt;description -->
<g id="edge6" class="edge">
<title>server type&#45;&gt;description</title>
<path fill="none" stroke="#0000ff" d="M598.6545,-89.2517C610.1035,-83.2048 623.0702,-76.0564 634.5427,-69 648.452,-60.4447 663.3107,-50.2672 675.9675,-41.2624"/>
<polygon fill="#0000ff" stroke="#0000ff" points="678.2586,-43.9262 684.3394,-35.2501 674.1753,-38.2405 678.2586,-43.9262"/>
<text text-anchor="middle" x="698.5427" y="-57.8" font-family="Times,serif" font-size="14.00" fill="#000000">description</text>
</g>
<!-- note -->
<g id="node8" class="node">
<title>note</title>
<ellipse fill="none" stroke="#0000ff" cx="876.5427" cy="-18" rx="75.2868" ry="18"/>
<text text-anchor="middle" x="876.5427" y="-14.3" font-family="Times,serif" font-size="14.00" fill="#000000">narrative text</text>
</g>
<!-- server type&#45;&gt;note -->
<g id="edge7" class="edge">
<title>server type&#45;&gt;note</title>
<path fill="none" stroke="#0000ff" d="M614.6776,-92.6885C622.9404,-90.6815 631.4745,-88.7043 639.5427,-87 685.4393,-77.3048 698.3174,-81.4567 743.5427,-69 773.4572,-60.7604 805.9972,-48.3465 831.4032,-37.8294"/>
<polygon fill="#0000ff" stroke="#0000ff" points="832.9003,-40.997 840.7706,-33.9042 830.1949,-34.5409 832.9003,-40.997"/>
<text text-anchor="middle" x="804.5427" y="-57.8" font-family="Times,serif" font-size="14.00" fill="#000000">note</text>
</g>
<!-- category -->
<g id="node9" class="node">
<title>category</title>
<ellipse fill="none" stroke="#000000" cx="1021.5427" cy="-18" rx="51.9908" ry="18"/>
<text text-anchor="middle" x="1021.5427" y="-14.3" font-family="Times,serif" font-size="14.00" fill="#000000">category</text>
</g>
<!-- server type&#45;&gt;category -->
<g id="edge8" class="edge">
<title>server type&#45;&gt;category</title>
<path fill="none" stroke="#0000ff" d="M613.4186,-92.4554C622.05,-90.4019 631.0358,-88.4689 639.5427,-87 720.9485,-72.9435 743.0886,-82.7742 824.5427,-69 885.8704,-58.6292 900.4748,-52.1398 960.5427,-36 964.3915,-34.9658 968.3677,-33.8655 972.3587,-32.7382"/>
<polygon fill="#0000ff" stroke="#0000ff" points="973.5983,-36.0238 982.2459,-29.9027 971.6685,-29.2951 973.5983,-36.0238"/>
<text text-anchor="middle" x="927.5427" y="-57.8" font-family="Times,serif" font-size="14.00" fill="#000000">category</text>
</g>
<!-- has attribute -->
<g id="node11" class="node">
<title>has attribute</title>
<ellipse fill="none" stroke="#000000" cx="1162.5427" cy="-18" rx="71.4873" ry="18"/>
<text text-anchor="middle" x="1162.5427" y="-14.3" font-family="Times,serif" font-size="14.00" fill="#000000">has attribute</text>
</g>
<!-- server type&#45;&gt;has attribute -->
<g id="edge9" class="edge">
<title>server type&#45;&gt;has attribute</title>
<path fill="none" stroke="#0000ff" d="M612.9853,-92.2571C621.739,-90.1961 630.8798,-88.3114 639.5427,-87 782.1401,-65.4137 821.0096,-91.0071 963.5427,-69 1013.0957,-61.349 1068.2379,-46.7207 1107.8862,-35.0858"/>
<polygon fill="#0000ff" stroke="#0000ff" points="1109.028,-38.3979 1117.6196,-32.1984 1107.0372,-31.687 1109.028,-38.3979"/>
<text text-anchor="middle" x="1082.5427" y="-57.8" font-family="Times,serif" font-size="14.00" fill="#000000">has attribute</text>
</g>
<!-- named thing_category -->
<g id="node10" class="node">
<title>named thing_category</title>
<ellipse fill="none" stroke="#0000ff" cx="718.5427" cy="-105" rx="69.5877" ry="18"/>
<text text-anchor="middle" x="718.5427" y="-101.3" font-family="Times,serif" font-size="14.00" fill="#000000">named thing</text>
</g>
<!-- systemic entity_has attribute -->
<g id="node12" class="node">
<title>systemic entity_has attribute</title>
<ellipse fill="none" stroke="#0000ff" cx="858.5427" cy="-105" rx="51.9908" ry="18"/>
<text text-anchor="middle" x="858.5427" y="-101.3" font-family="Times,serif" font-size="14.00" fill="#000000">attribute</text>
</g>
</g>
</svg>
