<?xml version="1.0" encoding="UTF-8" standalone="no"?>
<!DOCTYPE svg PUBLIC "-//W3C//DTD SVG 1.1//EN"
 "http://www.w3.org/Graphics/SVG/1.1/DTD/svg11.dtd">
<!-- Generated by graphviz version 2.40.1 (20161225.0304)
 -->
<!-- Title: %3 Pages: 1 -->
<svg width="1056pt" height="131pt"
 viewBox="0.00 0.00 1055.54 131.00" xmlns="http://www.w3.org/2000/svg" xmlns:xlink="http://www.w3.org/1999/xlink">
<g id="graph0" class="graph" transform="scale(1 1) rotate(0) translate(4 127)">
<title>%3</title>
<polygon fill="#ffffff" stroke="transparent" points="-4,4 -4,-127 1051.5392,-127 1051.5392,4 -4,4"/>
<!-- server -->
<g id="node1" class="node">
<title>server</title>
<ellipse fill="none" stroke="#000000" cx="485.5438" cy="-105" rx="40.0939" ry="18"/>
<text text-anchor="middle" x="485.5438" y="-101.3" font-family="Times,serif" font-size="14.00" fill="#000000">server</text>
</g>
<!-- named thing -->
<g id="node2" class="node">
<title>named thing</title>
<ellipse fill="none" stroke="#000000" cx="69.5438" cy="-18" rx="69.5877" ry="18"/>
<text text-anchor="middle" x="69.5438" y="-14.3" font-family="Times,serif" font-size="14.00" fill="#000000">named thing</text>
</g>
<!-- server&#45;&gt;named thing -->
<g id="edge1" class="edge">
<title>server&#45;&gt;named thing</title>
<path fill="none" stroke="#000000" d="M446.9144,-99.5147C403.7392,-93.156 331.8393,-81.885 270.5438,-69 221.8251,-58.7588 167.0918,-44.7009 127.0563,-33.9377"/>
<polygon fill="#000000" stroke="#000000" points="127.7739,-30.5061 117.2071,-31.2766 125.948,-37.2638 127.7739,-30.5061"/>
<text text-anchor="middle" x="284.5438" y="-57.8" font-family="Times,serif" font-size="14.00" fill="#000000">is_a</text>
</g>
<!-- id -->
<g id="node3" class="node">
<title>id</title>
<ellipse fill="none" stroke="#0000ff" cx="195.5438" cy="-18" rx="38.1938" ry="18"/>
<text text-anchor="middle" x="195.5438" y="-14.3" font-family="Times,serif" font-size="14.00" fill="#000000">string</text>
</g>
<!-- server&#45;&gt;id -->
<g id="edge2" class="edge">
<title>server&#45;&gt;id</title>
<path fill="none" stroke="#0000ff" d="M450.2348,-96.0307C402.6764,-83.7101 315.5734,-60.2992 242.5438,-36 239.9517,-35.1375 237.2916,-34.2172 234.6189,-33.2661"/>
<polygon fill="#0000ff" stroke="#0000ff" points="235.5776,-29.8898 224.9838,-29.735 233.1688,-36.4623 235.5776,-29.8898"/>
<text text-anchor="middle" x="356.5438" y="-57.8" font-family="Times,serif" font-size="14.00" fill="#000000">id</text>
</g>
<!-- name -->
<g id="node4" class="node">
<title>name</title>
<ellipse fill="none" stroke="#0000ff" cx="308.5438" cy="-18" rx="56.59" ry="18"/>
<text text-anchor="middle" x="308.5438" y="-14.3" font-family="Times,serif" font-size="14.00" fill="#000000">label type</text>
</g>
<!-- server&#45;&gt;name -->
<g id="edge3" class="edge">
<title>server&#45;&gt;name</title>
<path fill="none" stroke="#0000ff" d="M457.7105,-91.7713C443.5601,-85.0125 426.1078,-76.6258 410.5438,-69 389.7644,-58.8189 366.6984,-47.304 347.7647,-37.7953"/>
<polygon fill="#0000ff" stroke="#0000ff" points="349.3366,-34.6682 338.8301,-33.3031 346.1922,-40.9222 349.3366,-34.6682"/>
<text text-anchor="middle" x="430.5438" y="-57.8" font-family="Times,serif" font-size="14.00" fill="#000000">name</text>
</g>
<!-- enabled -->
<g id="node5" class="node">
<title>enabled</title>
<ellipse fill="none" stroke="#0000ff" cx="429.5438" cy="-18" rx="46.5926" ry="18"/>
<text text-anchor="middle" x="429.5438" y="-14.3" font-family="Times,serif" font-size="14.00" fill="#000000">boolean</text>
</g>
<!-- server&#45;&gt;enabled -->
<g id="edge4" class="edge">
<title>server&#45;&gt;enabled</title>
<path fill="none" stroke="#0000ff" d="M474.2114,-87.3943C466.2414,-75.0124 455.4388,-58.2297 446.4535,-44.2704"/>
<polygon fill="#0000ff" stroke="#0000ff" points="449.2149,-42.0938 440.8594,-35.5796 443.3289,-45.8826 449.2149,-42.0938"/>
<text text-anchor="middle" x="490.0438" y="-57.8" font-family="Times,serif" font-size="14.00" fill="#000000">enabled</text>
</g>
<!-- archived -->
<g id="node6" class="node">
<title>archived</title>
<ellipse fill="none" stroke="#0000ff" cx="541.5438" cy="-18" rx="46.5926" ry="18"/>
<text text-anchor="middle" x="541.5438" y="-14.3" font-family="Times,serif" font-size="14.00" fill="#000000">boolean</text>
</g>
<!-- server&#45;&gt;archived -->
<g id="edge5" class="edge">
<title>server&#45;&gt;archived</title>
<path fill="none" stroke="#0000ff" d="M503.4693,-88.4696C509.0914,-82.68 515.0069,-75.894 519.5438,-69 524.2402,-61.8637 528.3208,-53.5588 531.6494,-45.7487"/>
<polygon fill="#0000ff" stroke="#0000ff" points="534.9864,-46.8304 535.4532,-36.2458 528.4877,-44.229 534.9864,-46.8304"/>
<text text-anchor="middle" x="560.0438" y="-57.8" font-family="Times,serif" font-size="14.00" fill="#000000">archived</text>
</g>
<!-- description -->
<g id="node7" class="node">
<title>description</title>
<ellipse fill="none" stroke="#0000ff" cx="681.5438" cy="-18" rx="75.2868" ry="18"/>
<text text-anchor="middle" x="681.5438" y="-14.3" font-family="Times,serif" font-size="14.00" fill="#000000">narrative text</text>
</g>
<!-- server&#45;&gt;description -->
<g id="edge6" class="edge">
<title>server&#45;&gt;description</title>
<path fill="none" stroke="#0000ff" d="M516.5425,-93.267C522.4932,-91.1129 528.693,-88.9356 534.5438,-87 561.3802,-78.1219 569.6322,-80.2961 595.5438,-69 613.501,-61.1716 632.3384,-50.3344 647.7903,-40.6624"/>
<polygon fill="#0000ff" stroke="#0000ff" points="649.913,-43.4601 656.4648,-35.1339 646.1507,-37.557 649.913,-43.4601"/>
<text text-anchor="middle" x="666.5438" y="-57.8" font-family="Times,serif" font-size="14.00" fill="#000000">description</text>
</g>
<!-- note -->
<g id="node8" class="node">
<title>note</title>
<ellipse fill="none" stroke="#0000ff" cx="850.5438" cy="-18" rx="75.2868" ry="18"/>
<text text-anchor="middle" x="850.5438" y="-14.3" font-family="Times,serif" font-size="14.00" fill="#000000">narrative text</text>
</g>
<!-- server&#45;&gt;note -->
<g id="edge7" class="edge">
<title>server&#45;&gt;note</title>
<path fill="none" stroke="#0000ff" d="M515.2421,-92.7435C521.5279,-90.5321 528.1856,-88.4666 534.5438,-87 611.5931,-69.2278 634.4911,-86.7573 711.5438,-69 743.6685,-61.5967 778.4916,-48.8113 805.2469,-37.8945"/>
<polygon fill="#0000ff" stroke="#0000ff" points="806.8201,-41.0313 814.7191,-33.9705 804.141,-34.5642 806.8201,-41.0313"/>
<text text-anchor="middle" x="778.5438" y="-57.8" font-family="Times,serif" font-size="14.00" fill="#000000">note</text>
</g>
<!-- category -->
<g id="node9" class="node">
<title>category</title>
<ellipse fill="none" stroke="#000000" cx="995.5438" cy="-18" rx="51.9908" ry="18"/>
<text text-anchor="middle" x="995.5438" y="-14.3" font-family="Times,serif" font-size="14.00" fill="#000000">category</text>
</g>
<!-- server&#45;&gt;category -->
<g id="edge8" class="edge">
<title>server&#45;&gt;category</title>
<path fill="none" stroke="#0000ff" d="M514.9439,-92.671C521.3088,-90.4359 528.0734,-88.3795 534.5438,-87 649.5644,-62.477 682.313,-86.9307 798.5438,-69 860.0151,-59.517 874.476,-52.1398 934.5438,-36 938.3927,-34.9658 942.3688,-33.8655 946.3598,-32.7382"/>
<polygon fill="#0000ff" stroke="#0000ff" points="947.5994,-36.0238 956.2471,-29.9027 945.6697,-29.2951 947.5994,-36.0238"/>
<text text-anchor="middle" x="901.5438" y="-57.8" font-family="Times,serif" font-size="14.00" fill="#000000">category</text>
</g>
<!-- named thing_category -->
<g id="node10" class="node">
<title>named thing_category</title>
<ellipse fill="none" stroke="#0000ff" cx="613.5438" cy="-105" rx="69.5877" ry="18"/>
<text text-anchor="middle" x="613.5438" y="-101.3" font-family="Times,serif" font-size="14.00" fill="#000000">named thing</text>
</g>
</g>
</svg>
