<?xml version="1.0" encoding="UTF-8" standalone="no"?>
<!DOCTYPE svg PUBLIC "-//W3C//DTD SVG 1.1//EN"
 "http://www.w3.org/Graphics/SVG/1.1/DTD/svg11.dtd">
<!-- Generated by graphviz version 2.40.1 (20161225.0304)
 -->
<!-- Title: %3 Pages: 1 -->
<svg width="1681pt" height="131pt"
 viewBox="0.00 0.00 1680.69 131.00" xmlns="http://www.w3.org/2000/svg" xmlns:xlink="http://www.w3.org/1999/xlink">
<g id="graph0" class="graph" transform="scale(1 1) rotate(0) translate(4 127)">
<title>%3</title>
<polygon fill="#ffffff" stroke="transparent" points="-4,4 -4,-127 1676.6863,-127 1676.6863,4 -4,4"/>
<!-- server group -->
<g id="node1" class="node">
<title>server group</title>
<ellipse fill="none" stroke="#000000" cx="709.8426" cy="-105" rx="70.6878" ry="18"/>
<text text-anchor="middle" x="709.8426" y="-101.3" font-family="Times,serif" font-size="14.00" fill="#000000">server group</text>
</g>
<!-- workload entity -->
<g id="node2" class="node">
<title>workload entity</title>
<ellipse fill="none" stroke="#000000" cx="83.8426" cy="-18" rx="83.6854" ry="18"/>
<text text-anchor="middle" x="83.8426" y="-14.3" font-family="Times,serif" font-size="14.00" fill="#000000">workload entity</text>
</g>
<!-- server group&#45;&gt;workload entity -->
<g id="edge1" class="edge">
<title>server group&#45;&gt;workload entity</title>
<path fill="none" stroke="#000000" d="M640.1294,-101.5256C560.0451,-96.8871 424.8722,-87.0742 309.8426,-69 254.2458,-60.2643 191.9113,-45.8428 146.812,-34.5603"/>
<polygon fill="#000000" stroke="#000000" points="147.4377,-31.1087 136.8855,-32.0581 145.7267,-37.8963 147.4377,-31.1087"/>
<text text-anchor="middle" x="323.8426" y="-57.8" font-family="Times,serif" font-size="14.00" fill="#000000">is_a</text>
</g>
<!-- id -->
<g id="node3" class="node">
<title>id</title>
<ellipse fill="none" stroke="#0000ff" cx="223.8426" cy="-18" rx="38.1938" ry="18"/>
<text text-anchor="middle" x="223.8426" y="-14.3" font-family="Times,serif" font-size="14.00" fill="#000000">string</text>
</g>
<!-- server group&#45;&gt;id -->
<g id="edge2" class="edge">
<title>server group&#45;&gt;id</title>
<path fill="none" stroke="#0000ff" d="M641.2214,-100.1389C553.6906,-92.6023 398.3727,-74.7188 270.8426,-36 268.0992,-35.1671 265.2869,-34.252 262.4685,-33.2894"/>
<polygon fill="#0000ff" stroke="#0000ff" points="263.548,-29.9585 252.9534,-29.8845 261.1895,-36.5492 263.548,-29.9585"/>
<text text-anchor="middle" x="408.8426" y="-57.8" font-family="Times,serif" font-size="14.00" fill="#000000">id</text>
</g>
<!-- name -->
<g id="node4" class="node">
<title>name</title>
<ellipse fill="none" stroke="#0000ff" cx="336.8426" cy="-18" rx="56.59" ry="18"/>
<text text-anchor="middle" x="336.8426" y="-14.3" font-family="Times,serif" font-size="14.00" fill="#000000">label type</text>
</g>
<!-- server group&#45;&gt;name -->
<g id="edge3" class="edge">
<title>server group&#45;&gt;name</title>
<path fill="none" stroke="#0000ff" d="M644.3439,-97.8625C598.4256,-92.082 535.8489,-82.641 481.8426,-69 447.4737,-60.3191 409.7307,-46.9152 381.3692,-36.0272"/>
<polygon fill="#0000ff" stroke="#0000ff" points="382.3385,-32.649 371.7496,-32.2927 379.8051,-39.1745 382.3385,-32.649"/>
<text text-anchor="middle" x="501.8426" y="-57.8" font-family="Times,serif" font-size="14.00" fill="#000000">name</text>
</g>
<!-- enabled -->
<g id="node5" class="node">
<title>enabled</title>
<ellipse fill="none" stroke="#0000ff" cx="457.8426" cy="-18" rx="46.5926" ry="18"/>
<text text-anchor="middle" x="457.8426" y="-14.3" font-family="Times,serif" font-size="14.00" fill="#000000">boolean</text>
</g>
<!-- server group&#45;&gt;enabled -->
<g id="edge4" class="edge">
<title>server group&#45;&gt;enabled</title>
<path fill="none" stroke="#0000ff" d="M652.3128,-94.4074C624.0117,-88.3905 589.6586,-79.8701 559.8426,-69 536.8239,-60.6081 512.2249,-48.4121 492.9522,-38.0507"/>
<polygon fill="#0000ff" stroke="#0000ff" points="494.4037,-34.8555 483.9492,-33.1363 491.0497,-40.9998 494.4037,-34.8555"/>
<text text-anchor="middle" x="588.3426" y="-57.8" font-family="Times,serif" font-size="14.00" fill="#000000">enabled</text>
</g>
<!-- archived -->
<g id="node6" class="node">
<title>archived</title>
<ellipse fill="none" stroke="#0000ff" cx="569.8426" cy="-18" rx="46.5926" ry="18"/>
<text text-anchor="middle" x="569.8426" y="-14.3" font-family="Times,serif" font-size="14.00" fill="#000000">boolean</text>
</g>
<!-- server group&#45;&gt;archived -->
<g id="edge5" class="edge">
<title>server group&#45;&gt;archived</title>
<path fill="none" stroke="#0000ff" d="M678.0555,-88.8947C666.7738,-82.9245 654.09,-75.918 642.8426,-69 628.2594,-60.0303 612.6326,-49.2772 599.5941,-39.9622"/>
<polygon fill="#0000ff" stroke="#0000ff" points="601.5954,-37.0903 591.4366,-34.0818 597.502,-42.7688 601.5954,-37.0903"/>
<text text-anchor="middle" x="674.3426" y="-57.8" font-family="Times,serif" font-size="14.00" fill="#000000">archived</text>
</g>
<!-- description -->
<g id="node7" class="node">
<title>description</title>
<ellipse fill="none" stroke="#0000ff" cx="709.8426" cy="-18" rx="75.2868" ry="18"/>
<text text-anchor="middle" x="709.8426" y="-14.3" font-family="Times,serif" font-size="14.00" fill="#000000">narrative text</text>
</g>
<!-- server group&#45;&gt;description -->
<g id="edge6" class="edge">
<title>server group&#45;&gt;description</title>
<path fill="none" stroke="#0000ff" d="M709.8426,-86.9735C709.8426,-75.1918 709.8426,-59.5607 709.8426,-46.1581"/>
<polygon fill="#0000ff" stroke="#0000ff" points="713.3427,-46.0033 709.8426,-36.0034 706.3427,-46.0034 713.3427,-46.0033"/>
<text text-anchor="middle" x="750.8426" y="-57.8" font-family="Times,serif" font-size="14.00" fill="#000000">description</text>
</g>
<!-- note -->
<g id="node8" class="node">
<title>note</title>
<ellipse fill="none" stroke="#0000ff" cx="878.8426" cy="-18" rx="75.2868" ry="18"/>
<text text-anchor="middle" x="878.8426" y="-14.3" font-family="Times,serif" font-size="14.00" fill="#000000">narrative text</text>
</g>
<!-- server group&#45;&gt;note -->
<g id="edge7" class="edge">
<title>server group&#45;&gt;note</title>
<path fill="none" stroke="#0000ff" d="M749.3825,-89.9434C764.1876,-83.9185 781.0069,-76.6054 795.8426,-69 812.2943,-60.5661 829.8297,-50.0359 844.5235,-40.7374"/>
<polygon fill="#0000ff" stroke="#0000ff" points="846.7361,-43.4768 853.2703,-35.1368 842.9614,-37.5817 846.7361,-43.4768"/>
<text text-anchor="middle" x="837.8426" y="-57.8" font-family="Times,serif" font-size="14.00" fill="#000000">note</text>
</g>
<!-- category -->
<g id="node9" class="node">
<title>category</title>
<ellipse fill="none" stroke="#000000" cx="1023.8426" cy="-18" rx="51.9908" ry="18"/>
<text text-anchor="middle" x="1023.8426" y="-14.3" font-family="Times,serif" font-size="14.00" fill="#000000">category</text>
</g>
<!-- server group&#45;&gt;category -->
<g id="edge8" class="edge">
<title>server group&#45;&gt;category</title>
<path fill="none" stroke="#0000ff" d="M762.7816,-92.9288C791.09,-86.2711 826.4809,-77.6237 857.8426,-69 897.8864,-57.989 942.8992,-44.0613 975.9394,-33.544"/>
<polygon fill="#0000ff" stroke="#0000ff" points="977.3299,-36.7741 985.7901,-30.3964 975.1993,-30.1062 977.3299,-36.7741"/>
<text text-anchor="middle" x="940.8426" y="-57.8" font-family="Times,serif" font-size="14.00" fill="#000000">category</text>
</g>
<!-- in taxon -->
<g id="node11" class="node">
<title>in taxon</title>
<ellipse fill="none" stroke="#0000ff" cx="1166.8426" cy="-18" rx="72.5877" ry="18"/>
<text text-anchor="middle" x="1166.8426" y="-14.3" font-family="Times,serif" font-size="14.00" fill="#000000">system taxon</text>
</g>
<!-- server group&#45;&gt;in taxon -->
<g id="edge9" class="edge">
<title>server group&#45;&gt;in taxon</title>
<path fill="none" stroke="#0000ff" d="M760.6505,-92.4127C769.986,-90.3884 779.6767,-88.4767 788.8426,-87 871.7116,-73.6489 894.2437,-83.9321 976.8426,-69 1023.1206,-60.6339 1074.5835,-46.513 1112.2652,-35.2483"/>
<polygon fill="#0000ff" stroke="#0000ff" points="1113.4614,-38.5433 1122.0234,-32.303 1111.4386,-31.8419 1113.4614,-38.5433"/>
<text text-anchor="middle" x="1069.8426" y="-57.8" font-family="Times,serif" font-size="14.00" fill="#000000">in taxon</text>
</g>
<!-- has computational sequence -->
<g id="node12" class="node">
<title>has computational sequence</title>
<ellipse fill="none" stroke="#0000ff" cx="1381.8426" cy="-18" rx="124.2781" ry="18"/>
<text text-anchor="middle" x="1381.8426" y="-14.3" font-family="Times,serif" font-size="14.00" fill="#000000">computational sequence</text>
</g>
<!-- server group&#45;&gt;has computational sequence -->
<g id="edge10" class="edge">
<title>server group&#45;&gt;has computational sequence</title>
<path fill="none" stroke="#0000ff" d="M760.1823,-92.2138C769.6525,-90.1837 779.5109,-88.3212 788.8426,-87 927.247,-67.405 964.047,-85.5994 1102.8426,-69 1170.9885,-60.85 1247.6345,-46.4565 1303.3239,-35.0341"/>
<polygon fill="#0000ff" stroke="#0000ff" points="1304.0364,-38.4609 1313.1219,-33.0108 1302.6207,-31.6055 1304.0364,-38.4609"/>
<text text-anchor="middle" x="1306.3426" y="-57.8" font-family="Times,serif" font-size="14.00" fill="#000000">has computational sequence</text>
</g>
<!-- has homogeneity -->
<g id="node13" class="node">
<title>has homogeneity</title>
<ellipse fill="none" stroke="#0000ff" cx="1601.8426" cy="-18" rx="70.6878" ry="18"/>
<text text-anchor="middle" x="1601.8426" y="-14.3" font-family="Times,serif" font-size="14.00" fill="#000000">homogeneity</text>
</g>
<!-- server group&#45;&gt;has homogeneity -->
<g id="edge11" class="edge">
<title>server group&#45;&gt;has homogeneity</title>
<path fill="none" stroke="#0000ff" d="M759.7293,-92.0868C769.3315,-90.0415 779.3535,-88.2061 788.8426,-87 1064.0767,-52.0153 1138.3538,-109.4189 1412.8426,-69 1459.9122,-62.0689 1512.0198,-47.4676 1549.5802,-35.6574"/>
<polygon fill="#0000ff" stroke="#0000ff" points="1550.821,-38.9355 1559.2871,-32.5656 1548.6965,-32.2657 1550.821,-38.9355"/>
<text text-anchor="middle" x="1541.8426" y="-57.8" font-family="Times,serif" font-size="14.00" fill="#000000">has homogeneity</text>
</g>
<!-- named thing_category -->
<g id="node10" class="node">
<title>named thing_category</title>
<ellipse fill="none" stroke="#0000ff" cx="867.8426" cy="-105" rx="69.5877" ry="18"/>
<text text-anchor="middle" x="867.8426" y="-101.3" font-family="Times,serif" font-size="14.00" fill="#000000">named thing</text>
</g>
</g>
</svg>
