<?xml version="1.0" encoding="UTF-8" standalone="no"?>
<!DOCTYPE svg PUBLIC "-//W3C//DTD SVG 1.1//EN"
 "http://www.w3.org/Graphics/SVG/1.1/DTD/svg11.dtd">
<!-- Generated by graphviz version 2.40.1 (20161225.0304)
 -->
<!-- Title: %3 Pages: 1 -->
<svg width="2126pt" height="291pt"
 viewBox="0.00 0.00 2125.63 291.00" xmlns="http://www.w3.org/2000/svg" xmlns:xlink="http://www.w3.org/1999/xlink">
<g id="graph0" class="graph" transform="scale(1 1) rotate(0) translate(4 287)">
<title>%3</title>
<polygon fill="#ffffff" stroke="transparent" points="-4,4 -4,-287 2121.6349,-287 2121.6349,4 -4,4"/>
<!-- server group hub to domain environment association -->
<g id="node1" class="node">
<title>server group hub to domain environment association</title>
<ellipse fill="none" stroke="#000000" cx="1014.0444" cy="-265" rx="257.2544" ry="18"/>
<text text-anchor="middle" x="1014.0444" y="-261.3" font-family="Times,serif" font-size="14.00" fill="#000000">server group hub to domain environment association</text>
</g>
<!-- association -->
<g id="node2" class="node">
<title>association</title>
<ellipse fill="none" stroke="#000000" cx="63.0444" cy="-178" rx="63.0888" ry="18"/>
<text text-anchor="middle" x="63.0444" y="-174.3" font-family="Times,serif" font-size="14.00" fill="#000000">association</text>
</g>
<!-- server group hub to domain environment association&#45;&gt;association -->
<g id="edge1" class="edge">
<title>server group hub to domain environment association&#45;&gt;association</title>
<path fill="none" stroke="#000000" d="M774.1759,-258.4213C594.1028,-252.5375 363.0632,-242.717 269.0444,-229 216.1659,-221.2852 157.0802,-205.9414 115.7949,-194.0897"/>
<polygon fill="#000000" stroke="#000000" points="116.5384,-190.6612 105.9591,-191.2356 114.5875,-197.3839 116.5384,-190.6612"/>
<text text-anchor="middle" x="283.0444" y="-217.8" font-family="Times,serif" font-size="14.00" fill="#000000">is_a</text>
</g>
<!-- id -->
<g id="node3" class="node">
<title>id</title>
<ellipse fill="none" stroke="#0000ff" cx="182.0444" cy="-178" rx="38.1938" ry="18"/>
<text text-anchor="middle" x="182.0444" y="-174.3" font-family="Times,serif" font-size="14.00" fill="#000000">string</text>
</g>
<!-- server group hub to domain environment association&#45;&gt;id -->
<g id="edge2" class="edge">
<title>server group hub to domain environment association&#45;&gt;id</title>
<path fill="none" stroke="#0000ff" d="M773.4461,-258.5395C659.0821,-253.5348 520.6571,-244.6732 397.0444,-229 321.5553,-219.4285 302.1776,-217.0181 229.0444,-196 226.2495,-195.1968 223.387,-194.2982 220.5216,-193.3426"/>
<polygon fill="#0000ff" stroke="#0000ff" points="221.4576,-189.9613 210.8628,-189.9297 219.1255,-196.5614 221.4576,-189.9613"/>
<text text-anchor="middle" x="404.0444" y="-217.8" font-family="Times,serif" font-size="14.00" fill="#000000">id</text>
</g>
<!-- name -->
<g id="node4" class="node">
<title>name</title>
<ellipse fill="none" stroke="#0000ff" cx="295.0444" cy="-178" rx="56.59" ry="18"/>
<text text-anchor="middle" x="295.0444" y="-174.3" font-family="Times,serif" font-size="14.00" fill="#000000">label type</text>
</g>
<!-- server group hub to domain environment association&#45;&gt;name -->
<g id="edge3" class="edge">
<title>server group hub to domain environment association&#45;&gt;name</title>
<path fill="none" stroke="#0000ff" d="M801.2021,-254.8499C680.5431,-248.2561 542.0183,-239.04 482.0444,-229 434.2118,-220.9925 380.9686,-205.8372 343.5669,-194.1199"/>
<polygon fill="#0000ff" stroke="#0000ff" points="344.5248,-190.752 333.9347,-191.0686 342.4108,-197.4252 344.5248,-190.752"/>
<text text-anchor="middle" x="502.0444" y="-217.8" font-family="Times,serif" font-size="14.00" fill="#000000">name</text>
</g>
<!-- enabled -->
<g id="node5" class="node">
<title>enabled</title>
<ellipse fill="none" stroke="#0000ff" cx="416.0444" cy="-178" rx="46.5926" ry="18"/>
<text text-anchor="middle" x="416.0444" y="-174.3" font-family="Times,serif" font-size="14.00" fill="#000000">boolean</text>
</g>
<!-- server group hub to domain environment association&#45;&gt;enabled -->
<g id="edge4" class="edge">
<title>server group hub to domain environment association&#45;&gt;enabled</title>
<path fill="none" stroke="#0000ff" d="M799.8073,-254.999C731.7396,-249.6606 656.4029,-241.491 588.0444,-229 543.566,-220.8726 494.2226,-205.5628 459.8346,-193.83"/>
<polygon fill="#0000ff" stroke="#0000ff" points="460.702,-190.4268 450.1073,-190.4704 458.4168,-197.0432 460.702,-190.4268"/>
<text text-anchor="middle" x="616.5444" y="-217.8" font-family="Times,serif" font-size="14.00" fill="#000000">enabled</text>
</g>
<!-- archived -->
<g id="node6" class="node">
<title>archived</title>
<ellipse fill="none" stroke="#0000ff" cx="528.0444" cy="-178" rx="46.5926" ry="18"/>
<text text-anchor="middle" x="528.0444" y="-174.3" font-family="Times,serif" font-size="14.00" fill="#000000">boolean</text>
</g>
<!-- server group hub to domain environment association&#45;&gt;archived -->
<g id="edge5" class="edge">
<title>server group hub to domain environment association&#45;&gt;archived</title>
<path fill="none" stroke="#0000ff" d="M860.3255,-250.5569C812.8999,-245.045 760.6395,-237.8941 713.0444,-229 654.8718,-218.1293 640.9075,-212.3956 584.0444,-196 580.4997,-194.9779 576.8403,-193.8859 573.1691,-192.764"/>
<polygon fill="#0000ff" stroke="#0000ff" points="574.0829,-189.3828 563.4945,-189.7519 572.0021,-196.0664 574.0829,-189.3828"/>
<text text-anchor="middle" x="744.5444" y="-217.8" font-family="Times,serif" font-size="14.00" fill="#000000">archived</text>
</g>
<!-- description -->
<g id="node7" class="node">
<title>description</title>
<ellipse fill="none" stroke="#0000ff" cx="668.0444" cy="-178" rx="75.2868" ry="18"/>
<text text-anchor="middle" x="668.0444" y="-174.3" font-family="Times,serif" font-size="14.00" fill="#000000">narrative text</text>
</g>
<!-- server group hub to domain environment association&#45;&gt;description -->
<g id="edge6" class="edge">
<title>server group hub to domain environment association&#45;&gt;description</title>
<path fill="none" stroke="#0000ff" d="M917.0822,-248.2995C888.5702,-242.8054 857.4226,-236.2305 829.0444,-229 792.3823,-219.6589 751.7751,-206.7774 720.5143,-196.2977"/>
<polygon fill="#0000ff" stroke="#0000ff" points="721.3041,-192.8703 710.7099,-192.9871 719.0646,-199.5024 721.3041,-192.8703"/>
<text text-anchor="middle" x="870.0444" y="-217.8" font-family="Times,serif" font-size="14.00" fill="#000000">description</text>
</g>
<!-- note -->
<g id="node8" class="node">
<title>note</title>
<ellipse fill="none" stroke="#0000ff" cx="837.0444" cy="-178" rx="75.2868" ry="18"/>
<text text-anchor="middle" x="837.0444" y="-174.3" font-family="Times,serif" font-size="14.00" fill="#000000">narrative text</text>
</g>
<!-- server group hub to domain environment association&#45;&gt;note -->
<g id="edge7" class="edge">
<title>server group hub to domain environment association&#45;&gt;note</title>
<path fill="none" stroke="#0000ff" d="M977.3699,-246.9735C948.8624,-232.9614 909.2778,-213.5045 879.4172,-198.8273"/>
<polygon fill="#0000ff" stroke="#0000ff" points="880.6087,-195.513 870.0902,-194.2429 877.5208,-201.7952 880.6087,-195.513"/>
<text text-anchor="middle" x="953.0444" y="-217.8" font-family="Times,serif" font-size="14.00" fill="#000000">note</text>
</g>
<!-- negated -->
<g id="node9" class="node">
<title>negated</title>
<ellipse fill="none" stroke="#0000ff" cx="977.0444" cy="-178" rx="46.5926" ry="18"/>
<text text-anchor="middle" x="977.0444" y="-174.3" font-family="Times,serif" font-size="14.00" fill="#000000">boolean</text>
</g>
<!-- server group hub to domain environment association&#45;&gt;negated -->
<g id="edge8" class="edge">
<title>server group hub to domain environment association&#45;&gt;negated</title>
<path fill="none" stroke="#0000ff" d="M992.5024,-247.0618C987.5534,-241.7839 982.9083,-235.6292 980.0444,-229 976.9974,-221.9469 975.6689,-213.8275 975.2449,-206.171"/>
<polygon fill="#0000ff" stroke="#0000ff" points="978.7448,-206.1276 975.1508,-196.1609 971.7451,-206.1934 978.7448,-206.1276"/>
<text text-anchor="middle" x="1009.0444" y="-217.8" font-family="Times,serif" font-size="14.00" fill="#000000">negated</text>
</g>
<!-- relation -->
<g id="node10" class="node">
<title>relation</title>
<ellipse fill="none" stroke="#0000ff" cx="1725.0444" cy="-18" rx="57.6901" ry="18"/>
<text text-anchor="middle" x="1725.0444" y="-14.3" font-family="Times,serif" font-size="14.00" fill="#000000">uriorcurie</text>
</g>
<!-- server group hub to domain environment association&#45;&gt;relation -->
<g id="edge9" class="edge">
<title>server group hub to domain environment association&#45;&gt;relation</title>
<path fill="none" stroke="#0000ff" d="M1026.7675,-247.0026C1030.5679,-241.3462 1034.6283,-235.0073 1038.0444,-229 1054.8481,-199.4502 1044.3837,-181.0894 1071.0444,-160 1162.5357,-87.6274 1512.8884,-41.4229 1659.7095,-24.8635"/>
<polygon fill="#0000ff" stroke="#0000ff" points="1660.373,-28.3112 1669.9225,-23.7225 1659.5957,-21.3545 1660.373,-28.3112"/>
<text text-anchor="middle" x="1160.0444" y="-130.8" font-family="Times,serif" font-size="14.00" fill="#000000">relation</text>
</g>
<!-- qualifiers -->
<g id="node11" class="node">
<title>qualifiers</title>
<ellipse fill="none" stroke="#0000ff" cx="1157.0444" cy="-178" rx="77.1866" ry="18"/>
<text text-anchor="middle" x="1157.0444" y="-174.3" font-family="Times,serif" font-size="14.00" fill="#000000">ontology class</text>
</g>
<!-- server group hub to domain environment association&#45;&gt;qualifiers -->
<g id="edge10" class="edge">
<title>server group hub to domain environment association&#45;&gt;qualifiers</title>
<path fill="none" stroke="#0000ff" d="M1043.6741,-246.9735C1066.0166,-233.3806 1096.781,-214.6638 1120.6254,-200.157"/>
<polygon fill="#0000ff" stroke="#0000ff" points="1122.6691,-203.0105 1129.3931,-194.8228 1119.0308,-197.0303 1122.6691,-203.0105"/>
<text text-anchor="middle" x="1129.0444" y="-217.8" font-family="Times,serif" font-size="14.00" fill="#000000">qualifiers</text>
</g>
<!-- publications -->
<g id="node12" class="node">
<title>publications</title>
<ellipse fill="none" stroke="#0000ff" cx="1315.0444" cy="-178" rx="63.0888" ry="18"/>
<text text-anchor="middle" x="1315.0444" y="-174.3" font-family="Times,serif" font-size="14.00" fill="#000000">publication</text>
</g>
<!-- server group hub to domain environment association&#45;&gt;publications -->
<g id="edge11" class="edge">
<title>server group hub to domain environment association&#45;&gt;publications</title>
<path fill="none" stroke="#0000ff" d="M1093.8499,-247.8249C1117.5375,-242.2964 1143.4518,-235.8218 1167.0444,-229 1200.9386,-219.1996 1238.5177,-206.2233 1267.3274,-195.8126"/>
<polygon fill="#0000ff" stroke="#0000ff" points="1268.5416,-199.0954 1276.7435,-192.3887 1266.1495,-192.5168 1268.5416,-199.0954"/>
<text text-anchor="middle" x="1257.0444" y="-217.8" font-family="Times,serif" font-size="14.00" fill="#000000">publications</text>
</g>
<!-- type -->
<g id="node13" class="node">
<title>type</title>
<ellipse fill="none" stroke="#000000" cx="1427.0444" cy="-178" rx="31.3957" ry="18"/>
<text text-anchor="middle" x="1427.0444" y="-174.3" font-family="Times,serif" font-size="14.00" fill="#000000">type</text>
</g>
<!-- server group hub to domain environment association&#45;&gt;type -->
<g id="edge12" class="edge">
<title>server group hub to domain environment association&#45;&gt;type</title>
<path fill="none" stroke="#0000ff" d="M1184.3203,-251.4466C1224.2987,-246.2015 1266.477,-238.9649 1305.0444,-229 1336.4398,-220.8882 1370.3312,-206.2016 1394.4062,-194.6652"/>
<polygon fill="#0000ff" stroke="#0000ff" points="1395.9896,-197.7871 1403.4459,-190.2603 1392.9232,-191.4944 1395.9896,-197.7871"/>
<text text-anchor="middle" x="1366.0444" y="-217.8" font-family="Times,serif" font-size="14.00" fill="#000000">type</text>
</g>
<!-- category -->
<g id="node15" class="node">
<title>category</title>
<ellipse fill="none" stroke="#000000" cx="1528.0444" cy="-178" rx="51.9908" ry="18"/>
<text text-anchor="middle" x="1528.0444" y="-174.3" font-family="Times,serif" font-size="14.00" fill="#000000">category</text>
</g>
<!-- server group hub to domain environment association&#45;&gt;category -->
<g id="edge13" class="edge">
<title>server group hub to domain environment association&#45;&gt;category</title>
<path fill="none" stroke="#0000ff" d="M1192.1906,-251.9494C1268.812,-245.4704 1349.1651,-237.2717 1386.0444,-229 1420.6831,-221.2308 1458.4423,-207.3949 1486.3109,-196.0927"/>
<polygon fill="#0000ff" stroke="#0000ff" points="1487.8189,-199.257 1495.7345,-192.2148 1485.155,-192.7837 1487.8189,-199.257"/>
<text text-anchor="middle" x="1470.0444" y="-217.8" font-family="Times,serif" font-size="14.00" fill="#000000">category</text>
</g>
<!-- predicate -->
<g id="node17" class="node">
<title>predicate</title>
<ellipse fill="none" stroke="#000000" cx="1653.0444" cy="-178" rx="55.4913" ry="18"/>
<text text-anchor="middle" x="1653.0444" y="-174.3" font-family="Times,serif" font-size="14.00" fill="#000000">predicate</text>
</g>
<!-- server group hub to domain environment association&#45;&gt;predicate -->
<g id="edge14" class="edge">
<title>server group hub to domain environment association&#45;&gt;predicate</title>
<path fill="none" stroke="#0000ff" d="M1200.017,-252.5214C1332.8632,-243.4238 1490.7367,-232.1587 1506.0444,-229 1542.0542,-221.5694 1581.3282,-207.6229 1610.2154,-196.1899"/>
<polygon fill="#0000ff" stroke="#0000ff" points="1611.6196,-199.3977 1619.594,-192.4221 1609.01,-192.9023 1611.6196,-199.3977"/>
<text text-anchor="middle" x="1594.5444" y="-217.8" font-family="Times,serif" font-size="14.00" fill="#000000">predicate</text>
</g>
<!-- subject -->
<g id="node19" class="node">
<title>subject</title>
<ellipse fill="none" stroke="#000000" cx="1771.0444" cy="-178" rx="44.6926" ry="18"/>
<text text-anchor="middle" x="1771.0444" y="-174.3" font-family="Times,serif" font-size="14.00" fill="#000000">subject</text>
</g>
<!-- server group hub to domain environment association&#45;&gt;subject -->
<g id="edge15" class="edge">
<title>server group hub to domain environment association&#45;&gt;subject</title>
<path fill="none" stroke="#0000ff" d="M1196.7843,-252.2853C1224.9942,-250.4367 1253.7973,-248.615 1281.0444,-247 1437.4188,-237.7314 1479.5978,-260.5119 1633.0444,-229 1667.6951,-221.8841 1705.2425,-207.5415 1732.4115,-195.8738"/>
<polygon fill="#0000ff" stroke="#0000ff" points="1734.1658,-198.9268 1741.9269,-191.7146 1731.3622,-192.5128 1734.1658,-198.9268"/>
<text text-anchor="middle" x="1709.5444" y="-217.8" font-family="Times,serif" font-size="14.00" fill="#000000">subject</text>
</g>
<!-- object -->
<g id="node21" class="node">
<title>object</title>
<ellipse fill="none" stroke="#000000" cx="1793.0444" cy="-91" rx="39.7935" ry="18"/>
<text text-anchor="middle" x="1793.0444" y="-87.3" font-family="Times,serif" font-size="14.00" fill="#000000">object</text>
</g>
<!-- server group hub to domain environment association&#45;&gt;object -->
<g id="edge16" class="edge">
<title>server group hub to domain environment association&#45;&gt;object</title>
<path fill="none" stroke="#0000ff" d="M1194.6084,-252.1353C1223.5081,-250.2757 1253.0923,-248.49 1281.0444,-247 1382.9781,-241.5664 1640.0984,-249.7558 1740.0444,-229 1779.7228,-220.76 1798.3729,-226.5107 1825.0444,-196 1845.5828,-172.5053 1851.5626,-155.1263 1838.0444,-127 1835.2571,-121.2007 1831.0302,-116.0431 1826.263,-111.5709"/>
<polygon fill="#0000ff" stroke="#0000ff" points="1828.3925,-108.7902 1818.456,-105.1136 1823.931,-114.1842 1828.3925,-108.7902"/>
<text text-anchor="middle" x="1866.5444" y="-174.3" font-family="Times,serif" font-size="14.00" fill="#000000">object</text>
</g>
<!-- association_type -->
<g id="node14" class="node">
<title>association_type</title>
<ellipse fill="none" stroke="#0000ff" cx="1328.0444" cy="-265" rx="38.1938" ry="18"/>
<text text-anchor="middle" x="1328.0444" y="-261.3" font-family="Times,serif" font-size="14.00" fill="#000000">string</text>
</g>
<!-- association_category -->
<g id="node16" class="node">
<title>association_category</title>
<ellipse fill="none" stroke="#0000ff" cx="1447.0444" cy="-265" rx="63.0888" ry="18"/>
<text text-anchor="middle" x="1447.0444" y="-261.3" font-family="Times,serif" font-size="14.00" fill="#000000">association</text>
</g>
<!-- server group hub to domain environment association_predicate -->
<g id="node18" class="node">
<title>server group hub to domain environment association_predicate</title>
<ellipse fill="none" stroke="#0000ff" cx="1607.0444" cy="-265" rx="78.7863" ry="18"/>
<text text-anchor="middle" x="1607.0444" y="-261.3" font-family="Times,serif" font-size="14.00" fill="#000000">predicate type</text>
</g>
<!-- subject&#45;&gt;relation -->
<g id="edge18" class="edge">
<title>subject&#45;&gt;relation</title>
<path fill="none" stroke="#000000" stroke-dasharray="1,5" d="M1763.098,-160.1293C1757.213,-146.3661 1749.3308,-126.7533 1744.0444,-109 1737.8454,-88.1821 1732.913,-64.1019 1729.6287,-45.9434"/>
<polygon fill="#000000" stroke="#000000" points="1733.061,-45.252 1727.8884,-36.0057 1726.1659,-46.4595 1733.061,-45.252"/>
</g>
<!-- subject&#45;&gt;object -->
<g id="edge17" class="edge">
<title>subject&#45;&gt;object</title>
<path fill="none" stroke="#000000" d="M1774.5468,-159.975C1776.5477,-150.1752 1779.2168,-137.8699 1782.0444,-127 1782.7452,-124.306 1783.5173,-121.512 1784.3176,-118.7256"/>
<polygon fill="#000000" stroke="#000000" points="1787.7556,-119.4442 1787.2625,-108.8608 1781.0481,-117.4417 1787.7556,-119.4442"/>
<text text-anchor="middle" x="1810.0444" y="-130.8" font-family="Times,serif" font-size="14.00" fill="#000000">relation</text>
</g>
<!-- server group hub to domain environment association_subject -->
<g id="node20" class="node">
<title>server group hub to domain environment association_subject</title>
<ellipse fill="none" stroke="#0000ff" cx="1795.0444" cy="-265" rx="90.9839" ry="18"/>
<text text-anchor="middle" x="1795.0444" y="-261.3" font-family="Times,serif" font-size="14.00" fill="#000000">server group hub</text>
</g>
<!-- object&#45;&gt;relation -->
<g id="edge19" class="edge">
<title>object&#45;&gt;relation</title>
<path fill="none" stroke="#000000" stroke-dasharray="1,5" d="M1777.2729,-74.0688C1768.6439,-64.8053 1757.7907,-53.1542 1748.2166,-42.8761"/>
<polygon fill="#000000" stroke="#000000" points="1750.5797,-40.2779 1741.2026,-35.3463 1745.4576,-45.0491 1750.5797,-40.2779"/>
</g>
<!-- server group hub to domain environment association_object -->
<g id="node22" class="node">
<title>server group hub to domain environment association_object</title>
<ellipse fill="none" stroke="#0000ff" cx="2011.0444" cy="-265" rx="106.6812" ry="18"/>
<text text-anchor="middle" x="2011.0444" y="-261.3" font-family="Times,serif" font-size="14.00" fill="#000000">domain environment</text>
</g>
</g>
</svg>
