<?xml version="1.0" encoding="UTF-8" standalone="no"?>
<!DOCTYPE svg PUBLIC "-//W3C//DTD SVG 1.1//EN"
 "http://www.w3.org/Graphics/SVG/1.1/DTD/svg11.dtd">
<!-- Generated by graphviz version 2.40.1 (20161225.0304)
 -->
<!-- Title: %3 Pages: 1 -->
<svg width="974pt" height="131pt"
 viewBox="0.00 0.00 973.59 131.00" xmlns="http://www.w3.org/2000/svg" xmlns:xlink="http://www.w3.org/1999/xlink">
<g id="graph0" class="graph" transform="scale(1 1) rotate(0) translate(4 127)">
<title>%3</title>
<polygon fill="#ffffff" stroke="transparent" points="-4,4 -4,-127 969.5928,-127 969.5928,4 -4,4"/>
<!-- server group hub -->
<g id="node1" class="node">
<title>server group hub</title>
<ellipse fill="none" stroke="#000000" cx="403.5975" cy="-105" rx="90.9839" ry="18"/>
<text text-anchor="middle" x="403.5975" y="-101.3" font-family="Times,serif" font-size="14.00" fill="#000000">server group hub</text>
</g>
<!-- hub -->
<g id="node2" class="node">
<title>hub</title>
<ellipse fill="none" stroke="#000000" cx="28.5975" cy="-18" rx="28.6953" ry="18"/>
<text text-anchor="middle" x="28.5975" y="-14.3" font-family="Times,serif" font-size="14.00" fill="#000000">hub</text>
</g>
<!-- server group hub&#45;&gt;hub -->
<g id="edge1" class="edge">
<title>server group hub&#45;&gt;hub</title>
<path fill="none" stroke="#000000" d="M325.128,-95.7832C255.6188,-86.0238 152.1874,-67.5605 66.5975,-36 64.4828,-35.2202 62.3255,-34.3667 60.1665,-33.4686"/>
<polygon fill="#000000" stroke="#000000" points="61.3796,-30.1782 50.8183,-29.3359 58.5492,-36.5805 61.3796,-30.1782"/>
<text text-anchor="middle" x="189.5975" y="-57.8" font-family="Times,serif" font-size="14.00" fill="#000000">is_a</text>
</g>
<!-- id -->
<g id="node3" class="node">
<title>id</title>
<ellipse fill="none" stroke="#0000ff" cx="113.5975" cy="-18" rx="38.1938" ry="18"/>
<text text-anchor="middle" x="113.5975" y="-14.3" font-family="Times,serif" font-size="14.00" fill="#000000">string</text>
</g>
<!-- server group hub&#45;&gt;id -->
<g id="edge2" class="edge">
<title>server group hub&#45;&gt;id</title>
<path fill="none" stroke="#0000ff" d="M347.6734,-90.6383C298.1413,-77.5587 224.0562,-57.1147 160.5975,-36 158.0053,-35.1375 155.3453,-34.2172 152.6726,-33.2661"/>
<polygon fill="#0000ff" stroke="#0000ff" points="153.6312,-29.8898 143.0375,-29.735 151.2225,-36.4623 153.6312,-29.8898"/>
<text text-anchor="middle" x="274.5975" y="-57.8" font-family="Times,serif" font-size="14.00" fill="#000000">id</text>
</g>
<!-- name -->
<g id="node4" class="node">
<title>name</title>
<ellipse fill="none" stroke="#0000ff" cx="226.5975" cy="-18" rx="56.59" ry="18"/>
<text text-anchor="middle" x="226.5975" y="-14.3" font-family="Times,serif" font-size="14.00" fill="#000000">label type</text>
</g>
<!-- server group hub&#45;&gt;name -->
<g id="edge3" class="edge">
<title>server group hub&#45;&gt;name</title>
<path fill="none" stroke="#0000ff" d="M368.4378,-88.2673C355.8488,-82.2381 341.5675,-75.3548 328.5975,-69 307.8181,-58.8189 284.752,-47.304 265.8183,-37.7953"/>
<polygon fill="#0000ff" stroke="#0000ff" points="267.3902,-34.6682 256.8837,-33.3031 264.2458,-40.9222 267.3902,-34.6682"/>
<text text-anchor="middle" x="348.5975" y="-57.8" font-family="Times,serif" font-size="14.00" fill="#000000">name</text>
</g>
<!-- enabled -->
<g id="node5" class="node">
<title>enabled</title>
<ellipse fill="none" stroke="#0000ff" cx="347.5975" cy="-18" rx="46.5926" ry="18"/>
<text text-anchor="middle" x="347.5975" y="-14.3" font-family="Times,serif" font-size="14.00" fill="#000000">boolean</text>
</g>
<!-- server group hub&#45;&gt;enabled -->
<g id="edge4" class="edge">
<title>server group hub&#45;&gt;enabled</title>
<path fill="none" stroke="#0000ff" d="M391.9942,-86.9735C384.0577,-74.6435 373.4074,-58.0975 364.5276,-44.3021"/>
<polygon fill="#0000ff" stroke="#0000ff" points="367.3498,-42.22 358.9942,-35.7057 361.4637,-46.0087 367.3498,-42.22"/>
<text text-anchor="middle" x="408.0975" y="-57.8" font-family="Times,serif" font-size="14.00" fill="#000000">enabled</text>
</g>
<!-- archived -->
<g id="node6" class="node">
<title>archived</title>
<ellipse fill="none" stroke="#0000ff" cx="459.5975" cy="-18" rx="46.5926" ry="18"/>
<text text-anchor="middle" x="459.5975" y="-14.3" font-family="Times,serif" font-size="14.00" fill="#000000">boolean</text>
</g>
<!-- server group hub&#45;&gt;archived -->
<g id="edge5" class="edge">
<title>server group hub&#45;&gt;archived</title>
<path fill="none" stroke="#0000ff" d="M422.5801,-87.3726C427.8791,-81.8313 433.3441,-75.4631 437.5975,-69 442.2938,-61.8637 446.3744,-53.5588 449.7031,-45.7487"/>
<polygon fill="#0000ff" stroke="#0000ff" points="453.04,-46.8304 453.5069,-36.2458 446.5413,-44.229 453.04,-46.8304"/>
<text text-anchor="middle" x="478.0975" y="-57.8" font-family="Times,serif" font-size="14.00" fill="#000000">archived</text>
</g>
<!-- description -->
<g id="node7" class="node">
<title>description</title>
<ellipse fill="none" stroke="#0000ff" cx="599.5975" cy="-18" rx="75.2868" ry="18"/>
<text text-anchor="middle" x="599.5975" y="-14.3" font-family="Times,serif" font-size="14.00" fill="#000000">narrative text</text>
</g>
<!-- server group hub&#45;&gt;description -->
<g id="edge6" class="edge">
<title>server group hub&#45;&gt;description</title>
<path fill="none" stroke="#0000ff" d="M456.527,-90.2584C474.9253,-84.4618 495.4806,-77.2164 513.5975,-69 531.3057,-60.9689 549.9826,-50.2016 565.39,-40.6302"/>
<polygon fill="#0000ff" stroke="#0000ff" points="567.4638,-43.4601 574.0518,-35.1626 563.7274,-37.5407 567.4638,-43.4601"/>
<text text-anchor="middle" x="581.5975" y="-57.8" font-family="Times,serif" font-size="14.00" fill="#000000">description</text>
</g>
<!-- note -->
<g id="node8" class="node">
<title>note</title>
<ellipse fill="none" stroke="#0000ff" cx="768.5975" cy="-18" rx="75.2868" ry="18"/>
<text text-anchor="middle" x="768.5975" y="-14.3" font-family="Times,serif" font-size="14.00" fill="#000000">narrative text</text>
</g>
<!-- server group hub&#45;&gt;note -->
<g id="edge7" class="edge">
<title>server group hub&#45;&gt;note</title>
<path fill="none" stroke="#0000ff" d="M470.2454,-92.6896C481.372,-90.7245 492.8033,-88.7608 503.5975,-87 558.1257,-78.105 572.9992,-82.4041 626.5975,-69 659.1039,-60.8706 694.5793,-48.1317 721.9403,-37.4197"/>
<polygon fill="#0000ff" stroke="#0000ff" points="723.2543,-40.6638 731.2617,-33.7261 720.6756,-34.1561 723.2543,-40.6638"/>
<text text-anchor="middle" x="690.5975" y="-57.8" font-family="Times,serif" font-size="14.00" fill="#000000">note</text>
</g>
<!-- category -->
<g id="node9" class="node">
<title>category</title>
<ellipse fill="none" stroke="#000000" cx="913.5975" cy="-18" rx="51.9908" ry="18"/>
<text text-anchor="middle" x="913.5975" y="-14.3" font-family="Times,serif" font-size="14.00" fill="#000000">category</text>
</g>
<!-- server group hub&#45;&gt;category -->
<g id="edge8" class="edge">
<title>server group hub&#45;&gt;category</title>
<path fill="none" stroke="#0000ff" d="M468.8191,-92.3739C480.3761,-90.3901 492.3192,-88.5022 503.5975,-87 595.1362,-74.8075 619.3939,-83.4883 710.5975,-69 774.588,-58.8347 789.9431,-52.5092 852.5975,-36 856.4513,-34.9845 860.431,-33.8976 864.4245,-32.7795"/>
<polygon fill="#0000ff" stroke="#0000ff" points="865.6588,-36.0672 874.3157,-29.9592 863.7393,-29.3355 865.6588,-36.0672"/>
<text text-anchor="middle" x="816.5975" y="-57.8" font-family="Times,serif" font-size="14.00" fill="#000000">category</text>
</g>
<!-- named thing_category -->
<g id="node10" class="node">
<title>named thing_category</title>
<ellipse fill="none" stroke="#0000ff" cx="582.5975" cy="-105" rx="69.5877" ry="18"/>
<text text-anchor="middle" x="582.5975" y="-101.3" font-family="Times,serif" font-size="14.00" fill="#000000">named thing</text>
</g>
</g>
</svg>
