<?xml version="1.0" encoding="UTF-8" standalone="no"?>
<!DOCTYPE svg PUBLIC "-//W3C//DTD SVG 1.1//EN"
 "http://www.w3.org/Graphics/SVG/1.1/DTD/svg11.dtd">
<!-- Generated by graphviz version 2.40.1 (20161225.0304)
 -->
<!-- Title: %3 Pages: 1 -->
<svg width="1438pt" height="131pt"
 viewBox="0.00 0.00 1437.74 131.00" xmlns="http://www.w3.org/2000/svg" xmlns:xlink="http://www.w3.org/1999/xlink">
<g id="graph0" class="graph" transform="scale(1 1) rotate(0) translate(4 127)">
<title>%3</title>
<polygon fill="#ffffff" stroke="transparent" points="-4,4 -4,-127 1433.7376,-127 1433.7376,4 -4,4"/>
<!-- system taxon -->
<g id="node1" class="node">
<title>system taxon</title>
<ellipse fill="none" stroke="#000000" cx="627.3431" cy="-105" rx="72.5877" ry="18"/>
<text text-anchor="middle" x="627.3431" y="-101.3" font-family="Times,serif" font-size="14.00" fill="#000000">system taxon</text>
</g>
<!-- ontology class -->
<g id="node2" class="node">
<title>ontology class</title>
<ellipse fill="none" stroke="#000000" cx="77.3431" cy="-18" rx="77.1866" ry="18"/>
<text text-anchor="middle" x="77.3431" y="-14.3" font-family="Times,serif" font-size="14.00" fill="#000000">ontology class</text>
</g>
<!-- system taxon&#45;&gt;ontology class -->
<g id="edge1" class="edge">
<title>system taxon&#45;&gt;ontology class</title>
<path fill="none" stroke="#000000" d="M557.2643,-99.8435C490.0334,-94.3161 385.8094,-84.2256 296.3431,-69 242.4305,-59.825 181.9427,-45.4196 138.2199,-34.2556"/>
<polygon fill="#000000" stroke="#000000" points="138.8754,-30.8104 128.3188,-31.7098 137.1322,-37.5899 138.8754,-30.8104"/>
<text text-anchor="middle" x="310.3431" y="-57.8" font-family="Times,serif" font-size="14.00" fill="#000000">is_a</text>
</g>
<!-- id -->
<g id="node3" class="node">
<title>id</title>
<ellipse fill="none" stroke="#0000ff" cx="211.3431" cy="-18" rx="38.1938" ry="18"/>
<text text-anchor="middle" x="211.3431" y="-14.3" font-family="Times,serif" font-size="14.00" fill="#000000">string</text>
</g>
<!-- system taxon&#45;&gt;id -->
<g id="edge2" class="edge">
<title>system taxon&#45;&gt;id</title>
<path fill="none" stroke="#0000ff" d="M561.247,-97.3196C486.5382,-87.5683 361.8462,-68.0439 258.3431,-36 255.6043,-35.1521 252.7955,-34.2258 249.9795,-33.2552"/>
<polygon fill="#0000ff" stroke="#0000ff" points="251.064,-29.9258 240.4696,-29.8338 248.6943,-36.5125 251.064,-29.9258"/>
<text text-anchor="middle" x="395.3431" y="-57.8" font-family="Times,serif" font-size="14.00" fill="#000000">id</text>
</g>
<!-- name -->
<g id="node4" class="node">
<title>name</title>
<ellipse fill="none" stroke="#0000ff" cx="324.3431" cy="-18" rx="56.59" ry="18"/>
<text text-anchor="middle" x="324.3431" y="-14.3" font-family="Times,serif" font-size="14.00" fill="#000000">label type</text>
</g>
<!-- system taxon&#45;&gt;name -->
<g id="edge3" class="edge">
<title>system taxon&#45;&gt;name</title>
<path fill="none" stroke="#0000ff" d="M567.7348,-94.6244C535.1167,-88.3677 494.1661,-79.5643 458.3431,-69 427.5398,-59.916 393.7499,-47.0347 367.8076,-36.4908"/>
<polygon fill="#0000ff" stroke="#0000ff" points="368.8518,-33.1361 358.2717,-32.577 366.1939,-39.6119 368.8518,-33.1361"/>
<text text-anchor="middle" x="478.3431" y="-57.8" font-family="Times,serif" font-size="14.00" fill="#000000">name</text>
</g>
<!-- enabled -->
<g id="node5" class="node">
<title>enabled</title>
<ellipse fill="none" stroke="#0000ff" cx="445.3431" cy="-18" rx="46.5926" ry="18"/>
<text text-anchor="middle" x="445.3431" y="-14.3" font-family="Times,serif" font-size="14.00" fill="#000000">boolean</text>
</g>
<!-- system taxon&#45;&gt;enabled -->
<g id="edge4" class="edge">
<title>system taxon&#45;&gt;enabled</title>
<path fill="none" stroke="#0000ff" d="M581.7119,-90.8426C564.3567,-84.8735 544.6145,-77.3639 527.3431,-69 509.8107,-60.5097 491.3006,-49.2199 476.3123,-39.4211"/>
<polygon fill="#0000ff" stroke="#0000ff" points="478.1957,-36.4704 467.9284,-33.8565 474.3246,-42.3027 478.1957,-36.4704"/>
<text text-anchor="middle" x="555.8431" y="-57.8" font-family="Times,serif" font-size="14.00" fill="#000000">enabled</text>
</g>
<!-- archived -->
<g id="node6" class="node">
<title>archived</title>
<ellipse fill="none" stroke="#0000ff" cx="557.3431" cy="-18" rx="46.5926" ry="18"/>
<text text-anchor="middle" x="557.3431" y="-14.3" font-family="Times,serif" font-size="14.00" fill="#000000">boolean</text>
</g>
<!-- system taxon&#45;&gt;archived -->
<g id="edge5" class="edge">
<title>system taxon&#45;&gt;archived</title>
<path fill="none" stroke="#0000ff" d="M612.8391,-86.9735C602.6625,-74.3254 588.9164,-57.2411 577.6513,-43.2401"/>
<polygon fill="#0000ff" stroke="#0000ff" points="580.3467,-41.0068 571.3509,-35.4097 574.8928,-45.395 580.3467,-41.0068"/>
<text text-anchor="middle" x="628.8431" y="-57.8" font-family="Times,serif" font-size="14.00" fill="#000000">archived</text>
</g>
<!-- description -->
<g id="node7" class="node">
<title>description</title>
<ellipse fill="none" stroke="#0000ff" cx="697.3431" cy="-18" rx="75.2868" ry="18"/>
<text text-anchor="middle" x="697.3431" y="-14.3" font-family="Times,serif" font-size="14.00" fill="#000000">narrative text</text>
</g>
<!-- system taxon&#45;&gt;description -->
<g id="edge6" class="edge">
<title>system taxon&#45;&gt;description</title>
<path fill="none" stroke="#0000ff" d="M647.0059,-87.4573C652.8668,-81.8194 659.1156,-75.3765 664.3431,-69 670.464,-61.5337 676.4273,-52.8854 681.5629,-44.8553"/>
<polygon fill="#0000ff" stroke="#0000ff" points="684.6686,-46.4887 686.9738,-36.1477 678.723,-42.7941 684.6686,-46.4887"/>
<text text-anchor="middle" x="716.3431" y="-57.8" font-family="Times,serif" font-size="14.00" fill="#000000">description</text>
</g>
<!-- note -->
<g id="node8" class="node">
<title>note</title>
<ellipse fill="none" stroke="#0000ff" cx="866.3431" cy="-18" rx="75.2868" ry="18"/>
<text text-anchor="middle" x="866.3431" y="-14.3" font-family="Times,serif" font-size="14.00" fill="#000000">narrative text</text>
</g>
<!-- system taxon&#45;&gt;note -->
<g id="edge7" class="edge">
<title>system taxon&#45;&gt;note</title>
<path fill="none" stroke="#0000ff" d="M681.5447,-92.9241C706.2298,-86.7941 735.6163,-78.6046 761.3431,-69 783.6959,-60.655 807.6969,-49.1988 827.1024,-39.2582"/>
<polygon fill="#0000ff" stroke="#0000ff" points="828.9684,-42.2331 836.2321,-34.5202 825.744,-36.0199 828.9684,-42.2331"/>
<text text-anchor="middle" x="813.3431" y="-57.8" font-family="Times,serif" font-size="14.00" fill="#000000">note</text>
</g>
<!-- category -->
<g id="node9" class="node">
<title>category</title>
<ellipse fill="none" stroke="#000000" cx="1011.3431" cy="-18" rx="51.9908" ry="18"/>
<text text-anchor="middle" x="1011.3431" y="-14.3" font-family="Times,serif" font-size="14.00" fill="#000000">category</text>
</g>
<!-- system taxon&#45;&gt;category -->
<g id="edge8" class="edge">
<title>system taxon&#45;&gt;category</title>
<path fill="none" stroke="#0000ff" d="M680.3826,-92.6107C689.6768,-90.6123 699.2739,-88.6582 708.3431,-87 763.5564,-76.9048 778.4355,-80.6436 833.3431,-69 886.1966,-57.7919 898.4323,-50.9792 950.3431,-36 954.1143,-34.9118 958.0142,-33.7788 961.9346,-32.6343"/>
<polygon fill="#0000ff" stroke="#0000ff" points="963.0471,-35.9556 971.6596,-29.7851 961.0789,-29.238 963.0471,-35.9556"/>
<text text-anchor="middle" x="922.3431" y="-57.8" font-family="Times,serif" font-size="14.00" fill="#000000">category</text>
</g>
<!-- has taxonomic rank -->
<g id="node11" class="node">
<title>has taxonomic rank</title>
<ellipse fill="none" stroke="#000000" cx="1184.3431" cy="-18" rx="102.8821" ry="18"/>
<text text-anchor="middle" x="1184.3431" y="-14.3" font-family="Times,serif" font-size="14.00" fill="#000000">has taxonomic rank</text>
</g>
<!-- system taxon&#45;&gt;has taxonomic rank -->
<g id="edge9" class="edge">
<title>system taxon&#45;&gt;has taxonomic rank</title>
<path fill="none" stroke="#0000ff" d="M679.4215,-92.2468C688.995,-90.2394 698.9356,-88.3763 708.3431,-87 818.5685,-70.8737 848.1444,-85.3069 958.3431,-69 1012.721,-60.9533 1073.4479,-46.9635 1118.2479,-35.6692"/>
<polygon fill="#0000ff" stroke="#0000ff" points="1119.3006,-39.013 1128.1297,-33.1566 1117.5755,-32.2289 1119.3006,-39.013"/>
<text text-anchor="middle" x="1111.3431" y="-57.8" font-family="Times,serif" font-size="14.00" fill="#000000">has taxonomic rank</text>
</g>
<!-- subclass of -->
<g id="node13" class="node">
<title>subclass of</title>
<ellipse fill="none" stroke="#000000" cx="1367.3431" cy="-18" rx="62.2891" ry="18"/>
<text text-anchor="middle" x="1367.3431" y="-14.3" font-family="Times,serif" font-size="14.00" fill="#000000">subclass of</text>
</g>
<!-- system taxon&#45;&gt;subclass of -->
<g id="edge10" class="edge">
<title>system taxon&#45;&gt;subclass of</title>
<path fill="none" stroke="#0000ff" d="M678.5152,-92.1609C688.3585,-90.1088 698.6277,-88.2519 708.3431,-87 919.1948,-59.8296 976.3345,-102.0606 1186.3431,-69 1231.8875,-61.8302 1282.2644,-47.0506 1318.282,-35.239"/>
<polygon fill="#0000ff" stroke="#0000ff" points="1319.6581,-38.47 1328.0441,-31.995 1317.4506,-31.8271 1319.6581,-38.47"/>
<text text-anchor="middle" x="1291.3431" y="-57.8" font-family="Times,serif" font-size="14.00" fill="#000000">subclass of</text>
</g>
<!-- named thing_category -->
<g id="node10" class="node">
<title>named thing_category</title>
<ellipse fill="none" stroke="#0000ff" cx="787.3431" cy="-105" rx="69.5877" ry="18"/>
<text text-anchor="middle" x="787.3431" y="-101.3" font-family="Times,serif" font-size="14.00" fill="#000000">named thing</text>
</g>
<!-- system taxon_has taxonomic rank -->
<g id="node12" class="node">
<title>system taxon_has taxonomic rank</title>
<ellipse fill="none" stroke="#0000ff" cx="958.3431" cy="-105" rx="83.3857" ry="18"/>
<text text-anchor="middle" x="958.3431" y="-101.3" font-family="Times,serif" font-size="14.00" fill="#000000">taxonomic rank</text>
</g>
<!-- system taxon_subclass of -->
<g id="node14" class="node">
<title>system taxon_subclass of</title>
<ellipse fill="none" stroke="#0000ff" cx="1132.3431" cy="-105" rx="72.5877" ry="18"/>
<text text-anchor="middle" x="1132.3431" y="-101.3" font-family="Times,serif" font-size="14.00" fill="#000000">system taxon</text>
</g>
</g>
</svg>
