<?xml version="1.0" encoding="UTF-8" standalone="no"?>
<!DOCTYPE svg PUBLIC "-//W3C//DTD SVG 1.1//EN"
 "http://www.w3.org/Graphics/SVG/1.1/DTD/svg11.dtd">
<!-- Generated by graphviz version 2.40.1 (20161225.0304)
 -->
<!-- Title: %3 Pages: 1 -->
<svg width="1292pt" height="131pt"
 viewBox="0.00 0.00 1292.38 131.00" xmlns="http://www.w3.org/2000/svg" xmlns:xlink="http://www.w3.org/1999/xlink">
<g id="graph0" class="graph" transform="scale(1 1) rotate(0) translate(4 127)">
<title>%3</title>
<polygon fill="#ffffff" stroke="transparent" points="-4,4 -4,-127 1288.3841,-127 1288.3841,4 -4,4"/>
<!-- systemic entity -->
<g id="node1" class="node">
<title>systemic entity</title>
<ellipse fill="none" stroke="#000000" cx="617.8904" cy="-105" rx="82.5854" ry="18"/>
<text text-anchor="middle" x="617.8904" y="-101.3" font-family="Times,serif" font-size="14.00" fill="#000000">systemic entity</text>
</g>
<!-- computational entity -->
<g id="node2" class="node">
<title>computational entity</title>
<ellipse fill="none" stroke="#000000" cx="107.8904" cy="-18" rx="107.781" ry="18"/>
<text text-anchor="middle" x="107.8904" y="-14.3" font-family="Times,serif" font-size="14.00" fill="#000000">computational entity</text>
</g>
<!-- systemic entity&#45;&gt;computational entity -->
<g id="edge1" class="edge">
<title>systemic entity&#45;&gt;computational entity</title>
<path fill="none" stroke="#000000" d="M544.855,-96.5434C491.2908,-89.9946 416.8779,-80.1746 351.8904,-69 294.3529,-59.1064 229.6983,-45.4775 181.4057,-34.7975"/>
<polygon fill="#000000" stroke="#000000" points="181.8784,-31.3173 171.3573,-32.5657 180.3605,-38.1507 181.8784,-31.3173"/>
<text text-anchor="middle" x="365.8904" y="-57.8" font-family="Times,serif" font-size="14.00" fill="#000000">is_a</text>
</g>
<!-- id -->
<g id="node3" class="node">
<title>id</title>
<ellipse fill="none" stroke="#0000ff" cx="271.8904" cy="-18" rx="38.1938" ry="18"/>
<text text-anchor="middle" x="271.8904" y="-14.3" font-family="Times,serif" font-size="14.00" fill="#000000">string</text>
</g>
<!-- systemic entity&#45;&gt;id -->
<g id="edge2" class="edge">
<title>systemic entity&#45;&gt;id</title>
<path fill="none" stroke="#0000ff" d="M554.0537,-93.5054C492.9366,-81.7447 398.5195,-61.5908 318.8904,-36 316.1609,-35.1228 313.3589,-34.1747 310.5479,-33.1884"/>
<polygon fill="#0000ff" stroke="#0000ff" points="311.6421,-29.8622 301.0481,-29.7349 309.2505,-36.4409 311.6421,-29.8622"/>
<text text-anchor="middle" x="439.8904" y="-57.8" font-family="Times,serif" font-size="14.00" fill="#000000">id</text>
</g>
<!-- name -->
<g id="node4" class="node">
<title>name</title>
<ellipse fill="none" stroke="#0000ff" cx="384.8904" cy="-18" rx="56.59" ry="18"/>
<text text-anchor="middle" x="384.8904" y="-14.3" font-family="Times,serif" font-size="14.00" fill="#000000">label type</text>
</g>
<!-- systemic entity&#45;&gt;name -->
<g id="edge3" class="edge">
<title>systemic entity&#45;&gt;name</title>
<path fill="none" stroke="#0000ff" d="M565.2545,-91.052C543.8257,-84.9321 518.9554,-77.261 496.8904,-69 472.3144,-59.7989 445.5393,-47.6871 424.3324,-37.5756"/>
<polygon fill="#0000ff" stroke="#0000ff" points="425.8374,-34.4157 415.3087,-33.234 422.8025,-40.7236 425.8374,-34.4157"/>
<text text-anchor="middle" x="516.8904" y="-57.8" font-family="Times,serif" font-size="14.00" fill="#000000">name</text>
</g>
<!-- enabled -->
<g id="node5" class="node">
<title>enabled</title>
<ellipse fill="none" stroke="#0000ff" cx="505.8904" cy="-18" rx="46.5926" ry="18"/>
<text text-anchor="middle" x="505.8904" y="-14.3" font-family="Times,serif" font-size="14.00" fill="#000000">boolean</text>
</g>
<!-- systemic entity&#45;&gt;enabled -->
<g id="edge4" class="edge">
<title>systemic entity&#45;&gt;enabled</title>
<path fill="none" stroke="#0000ff" d="M586.1867,-88.3211C576.4522,-82.6717 565.93,-76.0052 556.8904,-69 546.7856,-61.1693 536.6292,-51.4732 528.0695,-42.6449"/>
<polygon fill="#0000ff" stroke="#0000ff" points="530.4169,-40.0335 520.9997,-35.1788 525.3341,-44.8466 530.4169,-40.0335"/>
<text text-anchor="middle" x="585.3904" y="-57.8" font-family="Times,serif" font-size="14.00" fill="#000000">enabled</text>
</g>
<!-- archived -->
<g id="node6" class="node">
<title>archived</title>
<ellipse fill="none" stroke="#0000ff" cx="617.8904" cy="-18" rx="46.5926" ry="18"/>
<text text-anchor="middle" x="617.8904" y="-14.3" font-family="Times,serif" font-size="14.00" fill="#000000">boolean</text>
</g>
<!-- systemic entity&#45;&gt;archived -->
<g id="edge5" class="edge">
<title>systemic entity&#45;&gt;archived</title>
<path fill="none" stroke="#0000ff" d="M617.8904,-86.9735C617.8904,-75.1918 617.8904,-59.5607 617.8904,-46.1581"/>
<polygon fill="#0000ff" stroke="#0000ff" points="621.3905,-46.0033 617.8904,-36.0034 614.3905,-46.0034 621.3905,-46.0033"/>
<text text-anchor="middle" x="649.3904" y="-57.8" font-family="Times,serif" font-size="14.00" fill="#000000">archived</text>
</g>
<!-- description -->
<g id="node7" class="node">
<title>description</title>
<ellipse fill="none" stroke="#0000ff" cx="757.8904" cy="-18" rx="75.2868" ry="18"/>
<text text-anchor="middle" x="757.8904" y="-14.3" font-family="Times,serif" font-size="14.00" fill="#000000">narrative text</text>
</g>
<!-- systemic entity&#45;&gt;description -->
<g id="edge6" class="edge">
<title>systemic entity&#45;&gt;description</title>
<path fill="none" stroke="#0000ff" d="M650.6965,-88.3546C661.7189,-82.5042 673.9804,-75.7105 684.8904,-69 698.7998,-60.4447 713.6585,-50.2672 726.3153,-41.2624"/>
<polygon fill="#0000ff" stroke="#0000ff" points="728.6063,-43.9262 734.6871,-35.2501 724.523,-38.2405 728.6063,-43.9262"/>
<text text-anchor="middle" x="748.8904" y="-57.8" font-family="Times,serif" font-size="14.00" fill="#000000">description</text>
</g>
<!-- note -->
<g id="node8" class="node">
<title>note</title>
<ellipse fill="none" stroke="#0000ff" cx="926.8904" cy="-18" rx="75.2868" ry="18"/>
<text text-anchor="middle" x="926.8904" y="-14.3" font-family="Times,serif" font-size="14.00" fill="#000000">narrative text</text>
</g>
<!-- systemic entity&#45;&gt;note -->
<g id="edge7" class="edge">
<title>systemic entity&#45;&gt;note</title>
<path fill="none" stroke="#0000ff" d="M679.0941,-92.7285C727.6223,-82.959 788.2207,-70.6547 793.8904,-69 823.4658,-60.3684 855.7541,-48.0595 881.1103,-37.6967"/>
<polygon fill="#0000ff" stroke="#0000ff" points="882.5618,-40.8841 890.4687,-33.8321 879.8899,-34.414 882.5618,-40.8841"/>
<text text-anchor="middle" x="854.8904" y="-57.8" font-family="Times,serif" font-size="14.00" fill="#000000">note</text>
</g>
<!-- category -->
<g id="node9" class="node">
<title>category</title>
<ellipse fill="none" stroke="#000000" cx="1071.8904" cy="-18" rx="51.9908" ry="18"/>
<text text-anchor="middle" x="1071.8904" y="-14.3" font-family="Times,serif" font-size="14.00" fill="#000000">category</text>
</g>
<!-- systemic entity&#45;&gt;category -->
<g id="edge8" class="edge">
<title>systemic entity&#45;&gt;category</title>
<path fill="none" stroke="#0000ff" d="M677.4782,-92.44C687.9198,-90.4606 698.7017,-88.557 708.8904,-87 782.249,-75.7894 801.7883,-81.7766 874.8904,-69 936.1601,-58.2915 950.8226,-52.1398 1010.8904,-36 1014.7393,-34.9658 1018.7154,-33.8655 1022.7064,-32.7382"/>
<polygon fill="#0000ff" stroke="#0000ff" points="1023.946,-36.0238 1032.5937,-29.9027 1022.0163,-29.2951 1023.946,-36.0238"/>
<text text-anchor="middle" x="975.8904" y="-57.8" font-family="Times,serif" font-size="14.00" fill="#000000">category</text>
</g>
<!-- has attribute -->
<g id="node11" class="node">
<title>has attribute</title>
<ellipse fill="none" stroke="#000000" cx="1212.8904" cy="-18" rx="71.4873" ry="18"/>
<text text-anchor="middle" x="1212.8904" y="-14.3" font-family="Times,serif" font-size="14.00" fill="#000000">has attribute</text>
</g>
<!-- systemic entity&#45;&gt;has attribute -->
<g id="edge9" class="edge">
<title>systemic entity&#45;&gt;has attribute</title>
<path fill="none" stroke="#0000ff" d="M676.4409,-92.2025C687.192,-90.1996 698.3473,-88.3495 708.8904,-87 842.7028,-69.8719 878.5811,-89.6815 1011.8904,-69 1062.0693,-61.2153 1117.9705,-46.5271 1158.0561,-34.9058"/>
<polygon fill="#0000ff" stroke="#0000ff" points="1159.2811,-38.1941 1167.8935,-32.0233 1157.3128,-31.4765 1159.2811,-38.1941"/>
<text text-anchor="middle" x="1131.8904" y="-57.8" font-family="Times,serif" font-size="14.00" fill="#000000">has attribute</text>
</g>
<!-- named thing_category -->
<g id="node10" class="node">
<title>named thing_category</title>
<ellipse fill="none" stroke="#0000ff" cx="787.8904" cy="-105" rx="69.5877" ry="18"/>
<text text-anchor="middle" x="787.8904" y="-101.3" font-family="Times,serif" font-size="14.00" fill="#000000">named thing</text>
</g>
<!-- systemic entity_has attribute -->
<g id="node12" class="node">
<title>systemic entity_has attribute</title>
<ellipse fill="none" stroke="#0000ff" cx="927.8904" cy="-105" rx="51.9908" ry="18"/>
<text text-anchor="middle" x="927.8904" y="-101.3" font-family="Times,serif" font-size="14.00" fill="#000000">attribute</text>
</g>
</g>
</svg>
