<?xml version="1.0" encoding="UTF-8" standalone="no"?>
<!DOCTYPE svg PUBLIC "-//W3C//DTD SVG 1.1//EN"
 "http://www.w3.org/Graphics/SVG/1.1/DTD/svg11.dtd">
<!-- Generated by graphviz version 2.40.1 (20161225.0304)
 -->
<!-- Title: %3 Pages: 1 -->
<svg width="1228pt" height="131pt"
 viewBox="0.00 0.00 1227.89 131.00" xmlns="http://www.w3.org/2000/svg" xmlns:xlink="http://www.w3.org/1999/xlink">
<g id="graph0" class="graph" transform="scale(1 1) rotate(0) translate(4 127)">
<title>%3</title>
<polygon fill="#ffffff" stroke="transparent" points="-4,4 -4,-127 1223.887,-127 1223.887,4 -4,4"/>
<!-- vcs root -->
<g id="node1" class="node">
<title>vcs root</title>
<ellipse fill="none" stroke="#000000" cx="619.5404" cy="-105" rx="48.1917" ry="18"/>
<text text-anchor="middle" x="619.5404" y="-101.3" font-family="Times,serif" font-size="14.00" fill="#000000">vcs root</text>
</g>
<!-- administrative entity -->
<g id="node2" class="node">
<title>administrative entity</title>
<ellipse fill="none" stroke="#000000" cx="108.5404" cy="-18" rx="108.5808" ry="18"/>
<text text-anchor="middle" x="108.5404" y="-14.3" font-family="Times,serif" font-size="14.00" fill="#000000">administrative entity</text>
</g>
<!-- vcs root&#45;&gt;administrative entity -->
<g id="edge1" class="edge">
<title>vcs root&#45;&gt;administrative entity</title>
<path fill="none" stroke="#000000" d="M573.2571,-99.7427C520.0708,-93.4682 430.2448,-82.1571 353.5404,-69 295.7521,-59.0876 230.8064,-45.4533 182.3087,-34.7758"/>
<polygon fill="#000000" stroke="#000000" points="183.0468,-31.3545 172.527,-32.6132 181.5357,-38.1895 183.0468,-31.3545"/>
<text text-anchor="middle" x="367.5404" y="-57.8" font-family="Times,serif" font-size="14.00" fill="#000000">is_a</text>
</g>
<!-- id -->
<g id="node3" class="node">
<title>id</title>
<ellipse fill="none" stroke="#0000ff" cx="273.5404" cy="-18" rx="38.1938" ry="18"/>
<text text-anchor="middle" x="273.5404" y="-14.3" font-family="Times,serif" font-size="14.00" fill="#000000">string</text>
</g>
<!-- vcs root&#45;&gt;id -->
<g id="edge2" class="edge">
<title>vcs root&#45;&gt;id</title>
<path fill="none" stroke="#0000ff" d="M575.8429,-97.3084C517.043,-86.4189 409.5525,-64.6062 320.5404,-36 317.8108,-35.1228 315.0088,-34.1747 312.1978,-33.1884"/>
<polygon fill="#0000ff" stroke="#0000ff" points="313.2921,-29.8622 302.698,-29.7349 310.9004,-36.4409 313.2921,-29.8622"/>
<text text-anchor="middle" x="441.5404" y="-57.8" font-family="Times,serif" font-size="14.00" fill="#000000">id</text>
</g>
<!-- name -->
<g id="node4" class="node">
<title>name</title>
<ellipse fill="none" stroke="#0000ff" cx="386.5404" cy="-18" rx="56.59" ry="18"/>
<text text-anchor="middle" x="386.5404" y="-14.3" font-family="Times,serif" font-size="14.00" fill="#000000">label type</text>
</g>
<!-- vcs root&#45;&gt;name -->
<g id="edge3" class="edge">
<title>vcs root&#45;&gt;name</title>
<path fill="none" stroke="#0000ff" d="M579.8502,-94.6821C556.0094,-88.1174 525.2236,-78.9901 498.5404,-69 473.9644,-59.7989 447.1893,-47.6871 425.9824,-37.5756"/>
<polygon fill="#0000ff" stroke="#0000ff" points="427.4874,-34.4157 416.9586,-33.234 424.4524,-40.7236 427.4874,-34.4157"/>
<text text-anchor="middle" x="518.5404" y="-57.8" font-family="Times,serif" font-size="14.00" fill="#000000">name</text>
</g>
<!-- enabled -->
<g id="node5" class="node">
<title>enabled</title>
<ellipse fill="none" stroke="#0000ff" cx="507.5404" cy="-18" rx="46.5926" ry="18"/>
<text text-anchor="middle" x="507.5404" y="-14.3" font-family="Times,serif" font-size="14.00" fill="#000000">boolean</text>
</g>
<!-- vcs root&#45;&gt;enabled -->
<g id="edge4" class="edge">
<title>vcs root&#45;&gt;enabled</title>
<path fill="none" stroke="#0000ff" d="M591.254,-90.282C580.6119,-84.244 568.6492,-76.8338 558.5404,-69 548.4356,-61.1693 538.2792,-51.4732 529.7194,-42.6449"/>
<polygon fill="#0000ff" stroke="#0000ff" points="532.0669,-40.0335 522.6497,-35.1788 526.984,-44.8466 532.0669,-40.0335"/>
<text text-anchor="middle" x="587.0404" y="-57.8" font-family="Times,serif" font-size="14.00" fill="#000000">enabled</text>
</g>
<!-- archived -->
<g id="node6" class="node">
<title>archived</title>
<ellipse fill="none" stroke="#0000ff" cx="619.5404" cy="-18" rx="46.5926" ry="18"/>
<text text-anchor="middle" x="619.5404" y="-14.3" font-family="Times,serif" font-size="14.00" fill="#000000">boolean</text>
</g>
<!-- vcs root&#45;&gt;archived -->
<g id="edge5" class="edge">
<title>vcs root&#45;&gt;archived</title>
<path fill="none" stroke="#0000ff" d="M619.5404,-86.9735C619.5404,-75.1918 619.5404,-59.5607 619.5404,-46.1581"/>
<polygon fill="#0000ff" stroke="#0000ff" points="623.0405,-46.0033 619.5404,-36.0034 616.0405,-46.0034 623.0405,-46.0033"/>
<text text-anchor="middle" x="651.0404" y="-57.8" font-family="Times,serif" font-size="14.00" fill="#000000">archived</text>
</g>
<!-- description -->
<g id="node7" class="node">
<title>description</title>
<ellipse fill="none" stroke="#0000ff" cx="759.5404" cy="-18" rx="75.2868" ry="18"/>
<text text-anchor="middle" x="759.5404" y="-14.3" font-family="Times,serif" font-size="14.00" fill="#000000">narrative text</text>
</g>
<!-- vcs root&#45;&gt;description -->
<g id="edge6" class="edge">
<title>vcs root&#45;&gt;description</title>
<path fill="none" stroke="#0000ff" d="M648.3175,-90.4807C660.3144,-84.1864 674.2806,-76.5406 686.5404,-69 700.4497,-60.4447 715.3084,-50.2672 727.9652,-41.2624"/>
<polygon fill="#0000ff" stroke="#0000ff" points="730.2563,-43.9262 736.3371,-35.2501 726.173,-38.2405 730.2563,-43.9262"/>
<text text-anchor="middle" x="750.5404" y="-57.8" font-family="Times,serif" font-size="14.00" fill="#000000">description</text>
</g>
<!-- note -->
<g id="node8" class="node">
<title>note</title>
<ellipse fill="none" stroke="#0000ff" cx="928.5404" cy="-18" rx="75.2868" ry="18"/>
<text text-anchor="middle" x="928.5404" y="-14.3" font-family="Times,serif" font-size="14.00" fill="#000000">narrative text</text>
</g>
<!-- vcs root&#45;&gt;note -->
<g id="edge7" class="edge">
<title>vcs root&#45;&gt;note</title>
<path fill="none" stroke="#0000ff" d="M655.1844,-92.8088C662.2092,-90.6722 669.5652,-88.6185 676.5404,-87 728.6466,-74.9095 743.8222,-82.6554 795.5404,-69 825.6468,-61.0508 858.3125,-48.5835 883.7367,-37.9655"/>
<polygon fill="#0000ff" stroke="#0000ff" points="885.261,-41.121 893.1057,-33.9999 882.5324,-34.6747 885.261,-41.121"/>
<text text-anchor="middle" x="856.5404" y="-57.8" font-family="Times,serif" font-size="14.00" fill="#000000">note</text>
</g>
<!-- category -->
<g id="node9" class="node">
<title>category</title>
<ellipse fill="none" stroke="#000000" cx="1073.5404" cy="-18" rx="51.9908" ry="18"/>
<text text-anchor="middle" x="1073.5404" y="-14.3" font-family="Times,serif" font-size="14.00" fill="#000000">category</text>
</g>
<!-- vcs root&#45;&gt;category -->
<g id="edge8" class="edge">
<title>vcs root&#45;&gt;category</title>
<path fill="none" stroke="#0000ff" d="M654.8058,-92.5624C661.9286,-90.4204 669.4178,-88.4277 676.5404,-87 764.048,-69.46 788.4883,-83.5626 876.5404,-69 937.9052,-58.8511 952.4725,-52.1398 1012.5404,-36 1016.3892,-34.9658 1020.3654,-33.8655 1024.3564,-32.7382"/>
<polygon fill="#0000ff" stroke="#0000ff" points="1025.5959,-36.0238 1034.2436,-29.9027 1023.6662,-29.2951 1025.5959,-36.0238"/>
<text text-anchor="middle" x="979.5404" y="-57.8" font-family="Times,serif" font-size="14.00" fill="#000000">category</text>
</g>
<!-- location -->
<g id="node11" class="node">
<title>location</title>
<ellipse fill="none" stroke="#0000ff" cx="1181.5404" cy="-18" rx="38.1938" ry="18"/>
<text text-anchor="middle" x="1181.5404" y="-14.3" font-family="Times,serif" font-size="14.00" fill="#000000">string</text>
</g>
<!-- vcs root&#45;&gt;location -->
<g id="edge9" class="edge">
<title>vcs root&#45;&gt;location</title>
<path fill="none" stroke="#0000ff" d="M654.461,-92.4462C661.6779,-90.2854 669.2907,-88.3152 676.5404,-87 824.9961,-60.0679 866.6316,-93.3029 1015.5404,-69 1060.0337,-61.7384 1109.1853,-45.5597 1142.3731,-33.3585"/>
<polygon fill="#0000ff" stroke="#0000ff" points="1143.9927,-36.4899 1152.1374,-29.7139 1141.5448,-29.9318 1143.9927,-36.4899"/>
<text text-anchor="middle" x="1105.5404" y="-57.8" font-family="Times,serif" font-size="14.00" fill="#000000">location</text>
</g>
<!-- named thing_category -->
<g id="node10" class="node">
<title>named thing_category</title>
<ellipse fill="none" stroke="#0000ff" cx="755.5404" cy="-105" rx="69.5877" ry="18"/>
<text text-anchor="middle" x="755.5404" y="-101.3" font-family="Times,serif" font-size="14.00" fill="#000000">named thing</text>
</g>
</g>
</svg>
