<?xml version="1.0" encoding="UTF-8" standalone="no"?>
<!DOCTYPE svg PUBLIC "-//W3C//DTD SVG 1.1//EN"
 "http://www.w3.org/Graphics/SVG/1.1/DTD/svg11.dtd">
<!-- Generated by graphviz version 2.40.1 (20161225.0304)
 -->
<!-- Title: %3 Pages: 1 -->
<svg width="1534pt" height="131pt"
 viewBox="0.00 0.00 1533.73 131.00" xmlns="http://www.w3.org/2000/svg" xmlns:xlink="http://www.w3.org/1999/xlink">
<g id="graph0" class="graph" transform="scale(1 1) rotate(0) translate(4 127)">
<title>%3</title>
<polygon fill="#ffffff" stroke="transparent" points="-4,4 -4,-127 1529.7307,-127 1529.7307,4 -4,4"/>
<!-- workload entity -->
<g id="node1" class="node">
<title>workload entity</title>
<ellipse fill="none" stroke="#000000" cx="659.5917" cy="-105" rx="83.6854" ry="18"/>
<text text-anchor="middle" x="659.5917" y="-101.3" font-family="Times,serif" font-size="14.00" fill="#000000">workload entity</text>
</g>
<!-- operational entity -->
<g id="node2" class="node">
<title>operational entity</title>
<ellipse fill="none" stroke="#000000" cx="93.5917" cy="-18" rx="93.6835" ry="18"/>
<text text-anchor="middle" x="93.5917" y="-14.3" font-family="Times,serif" font-size="14.00" fill="#000000">operational entity</text>
</g>
<!-- workload entity&#45;&gt;operational entity -->
<g id="edge1" class="edge">
<title>workload entity&#45;&gt;operational entity</title>
<path fill="none" stroke="#000000" d="M580.6954,-98.7743C513.4361,-92.9049 414.3189,-82.9245 328.5917,-69 271.7726,-59.771 207.9872,-45.6887 161.2226,-34.6584"/>
<polygon fill="#000000" stroke="#000000" points="161.7509,-31.1867 151.213,-32.2828 160.1344,-37.9975 161.7509,-31.1867"/>
<text text-anchor="middle" x="342.5917" y="-57.8" font-family="Times,serif" font-size="14.00" fill="#000000">is_a</text>
</g>
<!-- id -->
<g id="node3" class="node">
<title>id</title>
<ellipse fill="none" stroke="#0000ff" cx="243.5917" cy="-18" rx="38.1938" ry="18"/>
<text text-anchor="middle" x="243.5917" y="-14.3" font-family="Times,serif" font-size="14.00" fill="#000000">string</text>
</g>
<!-- workload entity&#45;&gt;id -->
<g id="edge2" class="edge">
<title>workload entity&#45;&gt;id</title>
<path fill="none" stroke="#0000ff" d="M585.9193,-96.3196C510.5596,-86.2627 390.6706,-66.9838 290.5917,-36 287.8529,-35.1521 285.0441,-34.2258 282.2281,-33.2552"/>
<polygon fill="#0000ff" stroke="#0000ff" points="283.3126,-29.9258 272.7181,-29.8338 280.9428,-36.5125 283.3126,-29.9258"/>
<text text-anchor="middle" x="427.5917" y="-57.8" font-family="Times,serif" font-size="14.00" fill="#000000">id</text>
</g>
<!-- name -->
<g id="node4" class="node">
<title>name</title>
<ellipse fill="none" stroke="#0000ff" cx="356.5917" cy="-18" rx="56.59" ry="18"/>
<text text-anchor="middle" x="356.5917" y="-14.3" font-family="Times,serif" font-size="14.00" fill="#000000">label type</text>
</g>
<!-- workload entity&#45;&gt;name -->
<g id="edge3" class="edge">
<title>workload entity&#45;&gt;name</title>
<path fill="none" stroke="#0000ff" d="M594.4049,-93.545C562.7766,-87.3722 524.4005,-78.9703 490.5917,-69 459.7884,-59.916 425.9985,-47.0347 400.0561,-36.4908"/>
<polygon fill="#0000ff" stroke="#0000ff" points="401.1003,-33.1361 390.5203,-32.577 398.4424,-39.6119 401.1003,-33.1361"/>
<text text-anchor="middle" x="510.5917" y="-57.8" font-family="Times,serif" font-size="14.00" fill="#000000">name</text>
</g>
<!-- enabled -->
<g id="node5" class="node">
<title>enabled</title>
<ellipse fill="none" stroke="#0000ff" cx="477.5917" cy="-18" rx="46.5926" ry="18"/>
<text text-anchor="middle" x="477.5917" y="-14.3" font-family="Times,serif" font-size="14.00" fill="#000000">boolean</text>
</g>
<!-- workload entity&#45;&gt;enabled -->
<g id="edge4" class="edge">
<title>workload entity&#45;&gt;enabled</title>
<path fill="none" stroke="#0000ff" d="M611.9476,-90.1471C595.0903,-84.2946 576.1987,-77.0422 559.5917,-69 542.0592,-60.5097 523.5491,-49.2199 508.5608,-39.4211"/>
<polygon fill="#0000ff" stroke="#0000ff" points="510.4443,-36.4704 500.1769,-33.8565 506.5732,-42.3027 510.4443,-36.4704"/>
<text text-anchor="middle" x="588.0917" y="-57.8" font-family="Times,serif" font-size="14.00" fill="#000000">enabled</text>
</g>
<!-- archived -->
<g id="node6" class="node">
<title>archived</title>
<ellipse fill="none" stroke="#0000ff" cx="589.5917" cy="-18" rx="46.5926" ry="18"/>
<text text-anchor="middle" x="589.5917" y="-14.3" font-family="Times,serif" font-size="14.00" fill="#000000">boolean</text>
</g>
<!-- workload entity&#45;&gt;archived -->
<g id="edge5" class="edge">
<title>workload entity&#45;&gt;archived</title>
<path fill="none" stroke="#0000ff" d="M645.0877,-86.9735C634.911,-74.3254 621.165,-57.2411 609.8998,-43.2401"/>
<polygon fill="#0000ff" stroke="#0000ff" points="612.5952,-41.0068 603.5995,-35.4097 607.1414,-45.395 612.5952,-41.0068"/>
<text text-anchor="middle" x="661.0917" y="-57.8" font-family="Times,serif" font-size="14.00" fill="#000000">archived</text>
</g>
<!-- description -->
<g id="node7" class="node">
<title>description</title>
<ellipse fill="none" stroke="#0000ff" cx="729.5917" cy="-18" rx="75.2868" ry="18"/>
<text text-anchor="middle" x="729.5917" y="-14.3" font-family="Times,serif" font-size="14.00" fill="#000000">narrative text</text>
</g>
<!-- workload entity&#45;&gt;description -->
<g id="edge6" class="edge">
<title>workload entity&#45;&gt;description</title>
<path fill="none" stroke="#0000ff" d="M679.2545,-87.4573C685.1154,-81.8194 691.3642,-75.3765 696.5917,-69 702.7126,-61.5337 708.6759,-52.8854 713.8115,-44.8553"/>
<polygon fill="#0000ff" stroke="#0000ff" points="716.9171,-46.4887 719.2224,-36.1477 710.9715,-42.7941 716.9171,-46.4887"/>
<text text-anchor="middle" x="748.5917" y="-57.8" font-family="Times,serif" font-size="14.00" fill="#000000">description</text>
</g>
<!-- note -->
<g id="node8" class="node">
<title>note</title>
<ellipse fill="none" stroke="#0000ff" cx="898.5917" cy="-18" rx="75.2868" ry="18"/>
<text text-anchor="middle" x="898.5917" y="-14.3" font-family="Times,serif" font-size="14.00" fill="#000000">narrative text</text>
</g>
<!-- workload entity&#45;&gt;note -->
<g id="edge7" class="edge">
<title>workload entity&#45;&gt;note</title>
<path fill="none" stroke="#0000ff" d="M717.7288,-91.9391C741.5615,-85.9281 769.2189,-78.0991 793.5917,-69 815.9445,-60.655 839.9455,-49.1988 859.3509,-39.2582"/>
<polygon fill="#0000ff" stroke="#0000ff" points="861.2169,-42.2331 868.4807,-34.5202 857.9925,-36.0199 861.2169,-42.2331"/>
<text text-anchor="middle" x="845.5917" y="-57.8" font-family="Times,serif" font-size="14.00" fill="#000000">note</text>
</g>
<!-- category -->
<g id="node9" class="node">
<title>category</title>
<ellipse fill="none" stroke="#000000" cx="1043.5917" cy="-18" rx="51.9908" ry="18"/>
<text text-anchor="middle" x="1043.5917" y="-14.3" font-family="Times,serif" font-size="14.00" fill="#000000">category</text>
</g>
<!-- workload entity&#45;&gt;category -->
<g id="edge8" class="edge">
<title>workload entity&#45;&gt;category</title>
<path fill="none" stroke="#0000ff" d="M720.8976,-92.6811C731.1353,-90.7171 741.6551,-88.7559 751.5917,-87 802.1034,-78.0739 815.4866,-79.9814 865.5917,-69 918.3678,-57.4332 930.6808,-50.9792 982.5917,-36 986.3628,-34.9118 990.2628,-33.7788 994.1831,-32.6343"/>
<polygon fill="#0000ff" stroke="#0000ff" points="995.2956,-35.9556 1003.9081,-29.7851 993.3274,-29.238 995.2956,-35.9556"/>
<text text-anchor="middle" x="954.5917" y="-57.8" font-family="Times,serif" font-size="14.00" fill="#000000">category</text>
</g>
<!-- in taxon -->
<g id="node11" class="node">
<title>in taxon</title>
<ellipse fill="none" stroke="#0000ff" cx="1186.5917" cy="-18" rx="72.5877" ry="18"/>
<text text-anchor="middle" x="1186.5917" y="-14.3" font-family="Times,serif" font-size="14.00" fill="#000000">system taxon</text>
</g>
<!-- workload entity&#45;&gt;in taxon -->
<g id="edge9" class="edge">
<title>workload entity&#45;&gt;in taxon</title>
<path fill="none" stroke="#0000ff" d="M719.3029,-92.2556C730.017,-90.2724 741.108,-88.4153 751.5917,-87 857.1571,-72.7484 885.5131,-86.4825 990.5917,-69 1038.8276,-60.9747 1092.499,-46.6177 1131.4647,-35.1768"/>
<polygon fill="#0000ff" stroke="#0000ff" points="1132.9528,-38.3862 1141.5441,-32.1862 1130.9616,-31.6754 1132.9528,-38.3862"/>
<text text-anchor="middle" x="1090.5917" y="-57.8" font-family="Times,serif" font-size="14.00" fill="#000000">in taxon</text>
</g>
<!-- has computational sequence -->
<g id="node12" class="node">
<title>has computational sequence</title>
<ellipse fill="none" stroke="#0000ff" cx="1401.5917" cy="-18" rx="124.2781" ry="18"/>
<text text-anchor="middle" x="1401.5917" y="-14.3" font-family="Times,serif" font-size="14.00" fill="#000000">computational sequence</text>
</g>
<!-- workload entity&#45;&gt;has computational sequence -->
<g id="edge10" class="edge">
<title>workload entity&#45;&gt;has computational sequence</title>
<path fill="none" stroke="#0000ff" d="M718.7784,-92.1111C729.6484,-90.1175 740.9284,-88.2942 751.5917,-87 915.9126,-67.0562 959.1562,-87.976 1123.5917,-69 1191.5083,-61.1624 1267.8436,-46.7494 1323.3164,-35.2399"/>
<polygon fill="#0000ff" stroke="#0000ff" points="1324.3526,-38.599 1333.4248,-33.1268 1322.9202,-31.7471 1324.3526,-38.599"/>
<text text-anchor="middle" x="1326.0917" y="-57.8" font-family="Times,serif" font-size="14.00" fill="#000000">has computational sequence</text>
</g>
<!-- named thing_category -->
<g id="node10" class="node">
<title>named thing_category</title>
<ellipse fill="none" stroke="#0000ff" cx="830.5917" cy="-105" rx="69.5877" ry="18"/>
<text text-anchor="middle" x="830.5917" y="-101.3" font-family="Times,serif" font-size="14.00" fill="#000000">named thing</text>
</g>
</g>
</svg>
