<?xml version="1.0" encoding="UTF-8" standalone="no"?>
<!DOCTYPE svg PUBLIC "-//W3C//DTD SVG 1.1//EN"
 "http://www.w3.org/Graphics/SVG/1.1/DTD/svg11.dtd">
<!-- Generated by graphviz version 2.40.1 (20161225.0304)
 -->
<!-- Title: %3 Pages: 1 -->
<svg width="1514pt" height="131pt"
 viewBox="0.00 0.00 1513.98 131.00" xmlns="http://www.w3.org/2000/svg" xmlns:xlink="http://www.w3.org/1999/xlink">
<g id="graph0" class="graph" transform="scale(1 1) rotate(0) translate(4 127)">
<title>%3</title>
<polygon fill="#ffffff" stroke="transparent" points="-4,4 -4,-127 1509.9815,-127 1509.9815,4 -4,4"/>
<!-- workload -->
<g id="node1" class="node">
<title>workload</title>
<ellipse fill="none" stroke="#000000" cx="639.8426" cy="-105" rx="53.8905" ry="18"/>
<text text-anchor="middle" x="639.8426" y="-101.3" font-family="Times,serif" font-size="14.00" fill="#000000">workload</text>
</g>
<!-- workload entity -->
<g id="node2" class="node">
<title>workload entity</title>
<ellipse fill="none" stroke="#000000" cx="83.8426" cy="-18" rx="83.6854" ry="18"/>
<text text-anchor="middle" x="83.8426" y="-14.3" font-family="Times,serif" font-size="14.00" fill="#000000">workload entity</text>
</g>
<!-- workload&#45;&gt;workload entity -->
<g id="edge1" class="edge">
<title>workload&#45;&gt;workload entity</title>
<path fill="none" stroke="#000000" d="M587.1333,-101.1416C521.6062,-95.9149 406.4777,-85.3196 308.8426,-69 253.7511,-59.7915 191.914,-45.4817 147.0283,-34.3609"/>
<polygon fill="#000000" stroke="#000000" points="147.6951,-30.92 137.1453,-31.896 146.0011,-37.712 147.6951,-30.92"/>
<text text-anchor="middle" x="322.8426" y="-57.8" font-family="Times,serif" font-size="14.00" fill="#000000">is_a</text>
</g>
<!-- id -->
<g id="node3" class="node">
<title>id</title>
<ellipse fill="none" stroke="#0000ff" cx="223.8426" cy="-18" rx="38.1938" ry="18"/>
<text text-anchor="middle" x="223.8426" y="-14.3" font-family="Times,serif" font-size="14.00" fill="#000000">string</text>
</g>
<!-- workload&#45;&gt;id -->
<g id="edge2" class="edge">
<title>workload&#45;&gt;id</title>
<path fill="none" stroke="#0000ff" d="M588.5089,-99.2039C516.3896,-90.2095 381.5053,-70.2605 270.8426,-36 268.1038,-35.1521 265.2949,-34.2258 262.479,-33.2552"/>
<polygon fill="#0000ff" stroke="#0000ff" points="263.5634,-29.9258 252.969,-29.8338 261.1937,-36.5125 263.5634,-29.9258"/>
<text text-anchor="middle" x="407.8426" y="-57.8" font-family="Times,serif" font-size="14.00" fill="#000000">id</text>
</g>
<!-- name -->
<g id="node4" class="node">
<title>name</title>
<ellipse fill="none" stroke="#0000ff" cx="336.8426" cy="-18" rx="56.59" ry="18"/>
<text text-anchor="middle" x="336.8426" y="-14.3" font-family="Times,serif" font-size="14.00" fill="#000000">label type</text>
</g>
<!-- workload&#45;&gt;name -->
<g id="edge3" class="edge">
<title>workload&#45;&gt;name</title>
<path fill="none" stroke="#0000ff" d="M591.6375,-96.7735C557.5581,-90.4635 510.9815,-80.8371 470.8426,-69 440.0392,-59.916 406.2493,-47.0347 380.307,-36.4908"/>
<polygon fill="#0000ff" stroke="#0000ff" points="381.3512,-33.1361 370.7711,-32.577 378.6933,-39.6119 381.3512,-33.1361"/>
<text text-anchor="middle" x="490.8426" y="-57.8" font-family="Times,serif" font-size="14.00" fill="#000000">name</text>
</g>
<!-- enabled -->
<g id="node5" class="node">
<title>enabled</title>
<ellipse fill="none" stroke="#0000ff" cx="457.8426" cy="-18" rx="46.5926" ry="18"/>
<text text-anchor="middle" x="457.8426" y="-14.3" font-family="Times,serif" font-size="14.00" fill="#000000">boolean</text>
</g>
<!-- workload&#45;&gt;enabled -->
<g id="edge4" class="edge">
<title>workload&#45;&gt;enabled</title>
<path fill="none" stroke="#0000ff" d="M599.6324,-92.6841C581.0601,-86.4525 558.9407,-78.2485 539.8426,-69 522.3101,-60.5097 503.8,-49.2199 488.8117,-39.4211"/>
<polygon fill="#0000ff" stroke="#0000ff" points="490.6951,-36.4704 480.4278,-33.8565 486.8241,-42.3027 490.6951,-36.4704"/>
<text text-anchor="middle" x="568.3426" y="-57.8" font-family="Times,serif" font-size="14.00" fill="#000000">enabled</text>
</g>
<!-- archived -->
<g id="node6" class="node">
<title>archived</title>
<ellipse fill="none" stroke="#0000ff" cx="569.8426" cy="-18" rx="46.5926" ry="18"/>
<text text-anchor="middle" x="569.8426" y="-14.3" font-family="Times,serif" font-size="14.00" fill="#000000">boolean</text>
</g>
<!-- workload&#45;&gt;archived -->
<g id="edge5" class="edge">
<title>workload&#45;&gt;archived</title>
<path fill="none" stroke="#0000ff" d="M625.677,-87.3943C615.458,-74.6935 601.5134,-57.3624 590.1166,-43.1977"/>
<polygon fill="#0000ff" stroke="#0000ff" points="592.7439,-40.8798 583.7481,-35.2827 587.29,-45.2679 592.7439,-40.8798"/>
<text text-anchor="middle" x="641.3426" y="-57.8" font-family="Times,serif" font-size="14.00" fill="#000000">archived</text>
</g>
<!-- description -->
<g id="node7" class="node">
<title>description</title>
<ellipse fill="none" stroke="#0000ff" cx="709.8426" cy="-18" rx="75.2868" ry="18"/>
<text text-anchor="middle" x="709.8426" y="-14.3" font-family="Times,serif" font-size="14.00" fill="#000000">narrative text</text>
</g>
<!-- workload&#45;&gt;description -->
<g id="edge6" class="edge">
<title>workload&#45;&gt;description</title>
<path fill="none" stroke="#0000ff" d="M659.1237,-87.8238C665.0941,-82.0995 671.5014,-75.5152 676.8426,-69 682.9635,-61.5337 688.9267,-52.8854 694.0623,-44.8553"/>
<polygon fill="#0000ff" stroke="#0000ff" points="697.168,-46.4887 699.4732,-36.1477 691.2224,-42.7941 697.168,-46.4887"/>
<text text-anchor="middle" x="728.8426" y="-57.8" font-family="Times,serif" font-size="14.00" fill="#000000">description</text>
</g>
<!-- note -->
<g id="node8" class="node">
<title>note</title>
<ellipse fill="none" stroke="#0000ff" cx="878.8426" cy="-18" rx="75.2868" ry="18"/>
<text text-anchor="middle" x="878.8426" y="-14.3" font-family="Times,serif" font-size="14.00" fill="#000000">narrative text</text>
</g>
<!-- workload&#45;&gt;note -->
<g id="edge7" class="edge">
<title>workload&#45;&gt;note</title>
<path fill="none" stroke="#0000ff" d="M680.4687,-92.9685C687.5797,-90.9303 694.9173,-88.8702 701.8426,-87 733.6866,-78.4002 742.8413,-80.266 773.8426,-69 796.2674,-60.8507 820.2742,-49.4102 839.6649,-39.4294"/>
<polygon fill="#0000ff" stroke="#0000ff" points="841.5409,-42.3983 848.7859,-34.6678 838.3014,-36.193 841.5409,-42.3983"/>
<text text-anchor="middle" x="825.8426" y="-57.8" font-family="Times,serif" font-size="14.00" fill="#000000">note</text>
</g>
<!-- category -->
<g id="node9" class="node">
<title>category</title>
<ellipse fill="none" stroke="#000000" cx="1023.8426" cy="-18" rx="51.9908" ry="18"/>
<text text-anchor="middle" x="1023.8426" y="-14.3" font-family="Times,serif" font-size="14.00" fill="#000000">category</text>
</g>
<!-- workload&#45;&gt;category -->
<g id="edge8" class="edge">
<title>workload&#45;&gt;category</title>
<path fill="none" stroke="#0000ff" d="M679.2989,-92.5346C686.7361,-90.4734 694.4879,-88.5173 701.8426,-87 765.0103,-73.9679 782.6255,-81.7906 845.8426,-69 898.7983,-58.2856 910.9317,-50.9792 962.8426,-36 966.6137,-34.9118 970.5137,-33.7788 974.434,-32.6343"/>
<polygon fill="#0000ff" stroke="#0000ff" points="975.5465,-35.9556 984.159,-29.7851 973.5783,-29.238 975.5465,-35.9556"/>
<text text-anchor="middle" x="936.8426" y="-57.8" font-family="Times,serif" font-size="14.00" fill="#000000">category</text>
</g>
<!-- in taxon -->
<g id="node11" class="node">
<title>in taxon</title>
<ellipse fill="none" stroke="#0000ff" cx="1166.8426" cy="-18" rx="72.5877" ry="18"/>
<text text-anchor="middle" x="1166.8426" y="-14.3" font-family="Times,serif" font-size="14.00" fill="#000000">system taxon</text>
</g>
<!-- workload&#45;&gt;in taxon -->
<g id="edge9" class="edge">
<title>workload&#45;&gt;in taxon</title>
<path fill="none" stroke="#0000ff" d="M678.5662,-92.3666C686.2114,-90.2686 694.2262,-88.3422 701.8426,-87 820.7205,-66.0501 853.7073,-88.4334 972.8426,-69 1020.6426,-61.2028 1073.7614,-46.8261 1112.3133,-35.3196"/>
<polygon fill="#0000ff" stroke="#0000ff" points="1113.7229,-38.5502 1122.2853,-32.3104 1111.7006,-31.8487 1113.7229,-38.5502"/>
<text text-anchor="middle" x="1072.8426" y="-57.8" font-family="Times,serif" font-size="14.00" fill="#000000">in taxon</text>
</g>
<!-- has computational sequence -->
<g id="node12" class="node">
<title>has computational sequence</title>
<ellipse fill="none" stroke="#0000ff" cx="1381.8426" cy="-18" rx="124.2781" ry="18"/>
<text text-anchor="middle" x="1381.8426" y="-14.3" font-family="Times,serif" font-size="14.00" fill="#000000">computational sequence</text>
</g>
<!-- workload&#45;&gt;has computational sequence -->
<g id="edge10" class="edge">
<title>workload&#45;&gt;has computational sequence</title>
<path fill="none" stroke="#0000ff" d="M678.2113,-92.3245C685.9581,-90.202 694.1014,-88.2774 701.8426,-87 879.1781,-57.7372 927.2678,-89.378 1105.8426,-69 1173.4103,-61.2895 1249.3363,-46.8284 1304.4253,-35.2687"/>
<polygon fill="#0000ff" stroke="#0000ff" points="1305.4029,-38.6395 1314.4625,-33.1463 1303.9547,-31.7909 1305.4029,-38.6395"/>
<text text-anchor="middle" x="1308.3426" y="-57.8" font-family="Times,serif" font-size="14.00" fill="#000000">has computational sequence</text>
</g>
<!-- named thing_category -->
<g id="node10" class="node">
<title>named thing_category</title>
<ellipse fill="none" stroke="#0000ff" cx="780.8426" cy="-105" rx="69.5877" ry="18"/>
<text text-anchor="middle" x="780.8426" y="-101.3" font-family="Times,serif" font-size="14.00" fill="#000000">named thing</text>
</g>
</g>
</svg>
